M48
; DRILL file {KiCad (5.1.9-0-10_14)} date Tuesday, May 25, 2021 at 02:21:42 PM
; FORMAT={-:-/ absolute / inch / decimal}
; #@! TF.CreationDate,2021-05-25T14:21:42-07:00
; #@! TF.GenerationSoftware,Kicad,Pcbnew,(5.1.9-0-10_14)
FMAT,2
INCH
T1C0.0079
T2C0.0157
T3C0.0394
T4C0.0472
T5C0.0512
T6C0.0701
T7C0.0728
%
G90
G05
T1
X1.3681Y-4.6378
X1.3681Y-4.6772
X1.3957Y-4.6378
X1.3957Y-4.6772
T2
X0.9146Y-4.4697
X0.9177Y-4.1799
X0.9248Y-3.9705
X0.9622Y-4.5118
X0.9791Y-3.9953
X0.9961Y-4.024
X0.9984Y-4.5421
X1.0189Y-4.9374
X1.0189Y-5.4673
X1.0311Y-3.9992
X1.037Y-4.4283
X1.0445Y-4.028
X1.0591Y-4.5256
X1.0697Y-4.8606
X1.0728Y-4.3106
X1.0744Y-4.4295
X1.0768Y-5.6913
X1.0795Y-4.0094
X1.0939Y-5.2376
X1.1071Y-5.1622
X1.111Y-4.3146
X1.1118Y-4.5465
X1.1146Y-5.113
X1.1165Y-5.4252
X1.1169Y-4.9
X1.122Y-6.1516
X1.1232Y-5.3185
X1.1256Y-6.4409
X1.1319Y-5.9252
X1.1476Y-4.3055
X1.1535Y-4.4409
X1.1583Y-5.1728
X1.1632Y-4.9679
X1.1681Y-5.3094
X1.1689Y-3.9953
X1.1713Y-4.835
X1.1772Y-4.2051
X1.1807Y-6.2413
X1.2142Y-6.126
X1.222Y-5.3772
X1.226Y-4.3547
X1.2417Y-4.8488
X1.2419Y-4.96
X1.2598Y-4.4291
X1.2634Y-6.0866
X1.2673Y-4.465
X1.2689Y-4.3528
X1.2846Y-4.8815
X1.2854Y-3.9634
X1.3016Y-5.4346
X1.3028Y-6.0571
X1.3091Y-4.1622
X1.3386Y-4.5866
X1.3386Y-4.7244
X1.3386Y-5.4264
X1.3409Y-3.9571
X1.3449Y-4.5071
X1.3484Y-6.2453
X1.352Y-6.0276
X1.3528Y-6.3213
X1.3543Y-5.1386
X1.3587Y-4.1264
X1.3591Y-4.402
X1.36Y-4.96
X1.3689Y-5.3815
X1.3717Y-5.9882
X1.3882Y-3.9591
X1.4Y-4.7358
X1.4012Y-5.9488
X1.4016Y-4.2024
X1.4091Y-4.3374
X1.4256Y-4.5079
X1.4256Y-5.3906
X1.4272Y-5.8661
X1.4285Y-5.214
X1.4469Y-5.7677
X1.452Y-4.3693
X1.4689Y-5.4256
X1.4783Y-4.2661
X1.4965Y-5.1469
X1.5059Y-4.0748
X1.5157Y-4.5669
X1.5256Y-3.9272
X1.5256Y-4.0256
X1.539Y-6.4311
X1.5709Y-4.7953
X1.5748Y-4.1043
X1.5984Y-4.8819
X1.6063Y-4.5906
X1.6264Y-4.8185
X1.6386Y-4.9232
X1.6807Y-5.4693
X1.6925Y-4.3902
X1.7055Y-4.6697
X1.7917Y-6.5047
X1.811Y-4.2224
X1.824Y-4.728
X1.8638Y-6.4311
X1.8811Y-4.8398
X1.913Y-6.126
X1.9252Y-4.8193
X1.9331Y-4.737
X1.9524Y-6.0866
X1.9524Y-6.4311
X1.9642Y-4.7098
X2.0031Y-5.4717
X2.0177Y-4.9114
X2.0965Y-4.8327
X2.1465Y-5.5118
X2.1787Y-5.5551
X2.2165Y-4.8047
X2.2453Y-5.6898
X2.2465Y-6.4972
X2.313Y-5.9449
X2.3165Y-5.7717
X2.3165Y-6.4409
X2.5165Y-4.565
X2.6299Y-4.7358
X2.6886Y-4.7075
X2.7201Y-6.4311
X2.9563Y-6.5008
X3.0449Y-6.4311
X3.0921Y-4.7319
X3.0941Y-6.1358
X3.1236Y-6.4409
X3.1335Y-6.1063
X3.3268Y-5.513
X3.3295Y-5.5988
X3.3563Y-4.439
X3.3713Y-5.5051
X3.3795Y-5.5551
X3.4295Y-5.6858
X3.4421Y-5.4661
X3.4634Y-6.5008
X3.4976Y-5.7618
X3.4976Y-6.4409
X3.622Y-5.9744
X3.7303Y-5.8465
X3.7402Y-4.4587
X3.911Y-6.4409
X4.3047Y-6.1358
X4.3047Y-6.4213
X4.3441Y-6.1063
X4.3539Y-6.4213
T3
X3.2091Y-4.7075
X3.3091Y-4.7075
X3.4091Y-4.7075
T4
X2.749Y-4.4449
X2.799Y-4.5449
X2.8482Y-4.4449
X2.899Y-4.5449
X2.949Y-4.4449
X2.999Y-4.5449
X3.7205Y-4.7638
X3.8189Y-4.6654
X3.8189Y-4.8622
X3.9173Y-4.6654
X3.9173Y-4.8622
X4.0157Y-4.6654
X4.0157Y-4.8622
X4.1142Y-4.7638
T5
X1.0685Y-5.8996
X1.0685Y-6.0472
X1.0685Y-6.1949
X1.6591Y-5.8996
X1.6591Y-6.1949
X1.8559Y-5.8996
X1.8559Y-6.1949
X2.0528Y-5.8996
X2.0528Y-6.1949
X2.2496Y-5.8996
X2.2496Y-6.0472
X2.2496Y-6.1949
X2.8402Y-5.8996
X2.8402Y-6.1949
X3.037Y-5.8996
X3.037Y-6.1949
X3.2339Y-5.8996
X3.2339Y-6.1949
X3.4307Y-5.8996
X3.4307Y-6.0472
X3.4307Y-6.1949
X4.0213Y-5.8996
X4.0213Y-6.1949
X4.2181Y-5.8996
X4.2181Y-6.1949
X4.415Y-5.8996
X4.415Y-6.1949
T6
X1.5921Y-5.25
X1.5921Y-5.6406
X1.726Y-5.25
X1.726Y-5.6406
X1.9071Y-5.25
X1.9071Y-5.6406
X2.0409Y-5.25
X2.0409Y-5.6406
X2.7732Y-5.25
X2.7732Y-5.6406
X2.9071Y-5.25
X2.9071Y-5.6406
X3.0882Y-5.25
X3.0882Y-5.6406
X3.222Y-5.25
X3.222Y-5.6406
X3.9508Y-5.2461
X3.9508Y-5.6366
X4.0846Y-5.2461
X4.0846Y-5.6366
X4.2657Y-5.2461
X4.2657Y-5.6366
X4.3996Y-5.2461
X4.3996Y-5.6366
T7
X1.1577Y-6.9652
X1.1577Y-7.1963
X1.3888Y-6.9652
X1.3888Y-7.1963
X1.7089Y-6.9652
X1.7089Y-7.1963
X1.94Y-6.9652
X1.94Y-7.1963
X2.3388Y-6.9652
X2.3388Y-7.1963
X2.5699Y-6.9652
X2.5699Y-7.1963
X2.89Y-6.9652
X2.89Y-7.1963
X3.1211Y-6.9652
X3.1211Y-7.1963
X3.3982Y-3.9297
X3.3982Y-4.1043
X3.3982Y-4.2789
X3.5199Y-6.9652
X3.5199Y-7.1963
X3.5728Y-3.9297
X3.5728Y-4.1043
X3.5728Y-4.2789
X3.7474Y-3.9297
X3.7474Y-4.1043
X3.7474Y-4.2789
X3.751Y-6.9652
X3.751Y-7.1963
X4.0478Y-3.9297
X4.0478Y-4.1043
X4.0478Y-4.2789
X4.0711Y-6.9652
X4.0711Y-7.1963
X4.2224Y-3.9297
X4.2224Y-4.1043
X4.2224Y-4.2789
X4.3022Y-6.9652
X4.3022Y-7.1963
X4.397Y-3.9297
X4.397Y-4.1043
X4.397Y-4.2789
T0
M30
