%TF.GenerationSoftware,KiCad,Pcbnew,(5.1.9-0-10_14)*%
%TF.CreationDate,2021-07-01T16:45:12-07:00*%
%TF.ProjectId,vantroller_v5_display,76616e74-726f-46c6-9c65-725f76355f64,rev?*%
%TF.SameCoordinates,Original*%
%TF.FileFunction,Legend,Bot*%
%TF.FilePolarity,Positive*%
%FSLAX46Y46*%
G04 Gerber Fmt 4.6, Leading zero omitted, Abs format (unit mm)*
G04 Created by KiCad (PCBNEW (5.1.9-0-10_14)) date 2021-07-01 16:45:12*
%MOMM*%
%LPD*%
G01*
G04 APERTURE LIST*
%ADD10C,0.150000*%
%ADD11C,0.120000*%
G04 APERTURE END LIST*
D10*
X91904761Y-47627380D02*
X91904761Y-46960714D01*
X91904761Y-47055952D02*
X91857142Y-47008333D01*
X91761904Y-46960714D01*
X91619047Y-46960714D01*
X91523809Y-47008333D01*
X91476190Y-47103571D01*
X91476190Y-47627380D01*
X91476190Y-47103571D02*
X91428571Y-47008333D01*
X91333333Y-46960714D01*
X91190476Y-46960714D01*
X91095238Y-47008333D01*
X91047619Y-47103571D01*
X91047619Y-47627380D01*
X90571428Y-47627380D02*
X90571428Y-46960714D01*
X90571428Y-46627380D02*
X90619047Y-46675000D01*
X90571428Y-46722619D01*
X90523809Y-46675000D01*
X90571428Y-46627380D01*
X90571428Y-46722619D01*
X90142857Y-47579761D02*
X90047619Y-47627380D01*
X89857142Y-47627380D01*
X89761904Y-47579761D01*
X89714285Y-47484523D01*
X89714285Y-47436904D01*
X89761904Y-47341666D01*
X89857142Y-47294047D01*
X90000000Y-47294047D01*
X90095238Y-47246428D01*
X90142857Y-47151190D01*
X90142857Y-47103571D01*
X90095238Y-47008333D01*
X90000000Y-46960714D01*
X89857142Y-46960714D01*
X89761904Y-47008333D01*
X89285714Y-47627380D02*
X89285714Y-46627380D01*
X89190476Y-47246428D02*
X88904761Y-47627380D01*
X88904761Y-46960714D02*
X89285714Y-47341666D01*
X88333333Y-47627380D02*
X88428571Y-47579761D01*
X88476190Y-47532142D01*
X88523809Y-47436904D01*
X88523809Y-47151190D01*
X88476190Y-47055952D01*
X88428571Y-47008333D01*
X88333333Y-46960714D01*
X88190476Y-46960714D01*
X88095238Y-47008333D01*
X88047619Y-47055952D01*
X88000000Y-47151190D01*
X88000000Y-47436904D01*
X88047619Y-47532142D01*
X88095238Y-47579761D01*
X88190476Y-47627380D01*
X88333333Y-47627380D01*
X86952380Y-47151190D02*
X87000000Y-47103571D01*
X87095238Y-47055952D01*
X87190476Y-47055952D01*
X87285714Y-47103571D01*
X87333333Y-47151190D01*
X87380952Y-47246428D01*
X87380952Y-47341666D01*
X87333333Y-47436904D01*
X87285714Y-47484523D01*
X87190476Y-47532142D01*
X87095238Y-47532142D01*
X87000000Y-47484523D01*
X86952380Y-47436904D01*
X86952380Y-47055952D02*
X86952380Y-47436904D01*
X86904761Y-47484523D01*
X86857142Y-47484523D01*
X86761904Y-47436904D01*
X86714285Y-47341666D01*
X86714285Y-47103571D01*
X86809523Y-46960714D01*
X86952380Y-46865476D01*
X87142857Y-46817857D01*
X87333333Y-46865476D01*
X87476190Y-46960714D01*
X87571428Y-47103571D01*
X87619047Y-47294047D01*
X87571428Y-47484523D01*
X87476190Y-47627380D01*
X87333333Y-47722619D01*
X87142857Y-47770238D01*
X86952380Y-47722619D01*
X86809523Y-47627380D01*
X85857142Y-47579761D02*
X85952380Y-47627380D01*
X86142857Y-47627380D01*
X86238095Y-47579761D01*
X86285714Y-47532142D01*
X86333333Y-47436904D01*
X86333333Y-47151190D01*
X86285714Y-47055952D01*
X86238095Y-47008333D01*
X86142857Y-46960714D01*
X85952380Y-46960714D01*
X85857142Y-47008333D01*
X85476190Y-47579761D02*
X85380952Y-47627380D01*
X85190476Y-47627380D01*
X85095238Y-47579761D01*
X85047619Y-47484523D01*
X85047619Y-47436904D01*
X85095238Y-47341666D01*
X85190476Y-47294047D01*
X85333333Y-47294047D01*
X85428571Y-47246428D01*
X85476190Y-47151190D01*
X85476190Y-47103571D01*
X85428571Y-47008333D01*
X85333333Y-46960714D01*
X85190476Y-46960714D01*
X85095238Y-47008333D01*
X84619047Y-47532142D02*
X84571428Y-47579761D01*
X84619047Y-47627380D01*
X84666666Y-47579761D01*
X84619047Y-47532142D01*
X84619047Y-47627380D01*
X84285714Y-46960714D02*
X83904761Y-46960714D01*
X84142857Y-46627380D02*
X84142857Y-47484523D01*
X84095238Y-47579761D01*
X84000000Y-47627380D01*
X83904761Y-47627380D01*
X83428571Y-47627380D02*
X83523809Y-47579761D01*
X83571428Y-47532142D01*
X83619047Y-47436904D01*
X83619047Y-47151190D01*
X83571428Y-47055952D01*
X83523809Y-47008333D01*
X83428571Y-46960714D01*
X83285714Y-46960714D01*
X83190476Y-47008333D01*
X83142857Y-47055952D01*
X83095238Y-47151190D01*
X83095238Y-47436904D01*
X83142857Y-47532142D01*
X83190476Y-47579761D01*
X83285714Y-47627380D01*
X83428571Y-47627380D01*
X82666666Y-47627380D02*
X82666666Y-46960714D01*
X82666666Y-47151190D02*
X82619047Y-47055952D01*
X82571428Y-47008333D01*
X82476190Y-46960714D01*
X82380952Y-46960714D01*
X81904761Y-47627380D02*
X82000000Y-47579761D01*
X82047619Y-47532142D01*
X82095238Y-47436904D01*
X82095238Y-47151190D01*
X82047619Y-47055952D01*
X82000000Y-47008333D01*
X81904761Y-46960714D01*
X81761904Y-46960714D01*
X81666666Y-47008333D01*
X81619047Y-47055952D01*
X81571428Y-47151190D01*
X81571428Y-47436904D01*
X81619047Y-47532142D01*
X81666666Y-47579761D01*
X81761904Y-47627380D01*
X81904761Y-47627380D01*
X81142857Y-46960714D02*
X81142857Y-47627380D01*
X81142857Y-47055952D02*
X81095238Y-47008333D01*
X81000000Y-46960714D01*
X80857142Y-46960714D01*
X80761904Y-47008333D01*
X80714285Y-47103571D01*
X80714285Y-47627380D01*
X80380952Y-46960714D02*
X80000000Y-46960714D01*
X80238095Y-46627380D02*
X80238095Y-47484523D01*
X80190476Y-47579761D01*
X80095238Y-47627380D01*
X80000000Y-47627380D01*
X79523809Y-47627380D02*
X79619047Y-47579761D01*
X79666666Y-47532142D01*
X79714285Y-47436904D01*
X79714285Y-47151190D01*
X79666666Y-47055952D01*
X79619047Y-47008333D01*
X79523809Y-46960714D01*
X79380952Y-46960714D01*
X79285714Y-47008333D01*
X79238095Y-47055952D01*
X79190476Y-47151190D01*
X79190476Y-47436904D01*
X79238095Y-47532142D01*
X79285714Y-47579761D01*
X79380952Y-47627380D01*
X79523809Y-47627380D01*
X78761904Y-47532142D02*
X78714285Y-47579761D01*
X78761904Y-47627380D01*
X78809523Y-47579761D01*
X78761904Y-47532142D01*
X78761904Y-47627380D01*
X77904761Y-47579761D02*
X78000000Y-47627380D01*
X78190476Y-47627380D01*
X78285714Y-47579761D01*
X78333333Y-47484523D01*
X78333333Y-47103571D01*
X78285714Y-47008333D01*
X78190476Y-46960714D01*
X78000000Y-46960714D01*
X77904761Y-47008333D01*
X77857142Y-47103571D01*
X77857142Y-47198809D01*
X78333333Y-47294047D01*
X77000000Y-47627380D02*
X77000000Y-46627380D01*
X77000000Y-47579761D02*
X77095238Y-47627380D01*
X77285714Y-47627380D01*
X77380952Y-47579761D01*
X77428571Y-47532142D01*
X77476190Y-47436904D01*
X77476190Y-47151190D01*
X77428571Y-47055952D01*
X77380952Y-47008333D01*
X77285714Y-46960714D01*
X77095238Y-46960714D01*
X77000000Y-47008333D01*
X76095238Y-46960714D02*
X76095238Y-47627380D01*
X76523809Y-46960714D02*
X76523809Y-47484523D01*
X76476190Y-47579761D01*
X76380952Y-47627380D01*
X76238095Y-47627380D01*
X76142857Y-47579761D01*
X76095238Y-47532142D01*
X91714285Y-48610714D02*
X91476190Y-49277380D01*
X91238095Y-48610714D01*
X90428571Y-49277380D02*
X90428571Y-48753571D01*
X90476190Y-48658333D01*
X90571428Y-48610714D01*
X90761904Y-48610714D01*
X90857142Y-48658333D01*
X90428571Y-49229761D02*
X90523809Y-49277380D01*
X90761904Y-49277380D01*
X90857142Y-49229761D01*
X90904761Y-49134523D01*
X90904761Y-49039285D01*
X90857142Y-48944047D01*
X90761904Y-48896428D01*
X90523809Y-48896428D01*
X90428571Y-48848809D01*
X89952380Y-48610714D02*
X89952380Y-49277380D01*
X89952380Y-48705952D02*
X89904761Y-48658333D01*
X89809523Y-48610714D01*
X89666666Y-48610714D01*
X89571428Y-48658333D01*
X89523809Y-48753571D01*
X89523809Y-49277380D01*
X89190476Y-48610714D02*
X88809523Y-48610714D01*
X89047619Y-48277380D02*
X89047619Y-49134523D01*
X89000000Y-49229761D01*
X88904761Y-49277380D01*
X88809523Y-49277380D01*
X88476190Y-49277380D02*
X88476190Y-48610714D01*
X88476190Y-48801190D02*
X88428571Y-48705952D01*
X88380952Y-48658333D01*
X88285714Y-48610714D01*
X88190476Y-48610714D01*
X87714285Y-49277380D02*
X87809523Y-49229761D01*
X87857142Y-49182142D01*
X87904761Y-49086904D01*
X87904761Y-48801190D01*
X87857142Y-48705952D01*
X87809523Y-48658333D01*
X87714285Y-48610714D01*
X87571428Y-48610714D01*
X87476190Y-48658333D01*
X87428571Y-48705952D01*
X87380952Y-48801190D01*
X87380952Y-49086904D01*
X87428571Y-49182142D01*
X87476190Y-49229761D01*
X87571428Y-49277380D01*
X87714285Y-49277380D01*
X86809523Y-49277380D02*
X86904761Y-49229761D01*
X86952380Y-49134523D01*
X86952380Y-48277380D01*
X86285714Y-49277380D02*
X86380952Y-49229761D01*
X86428571Y-49134523D01*
X86428571Y-48277380D01*
X85523809Y-49229761D02*
X85619047Y-49277380D01*
X85809523Y-49277380D01*
X85904761Y-49229761D01*
X85952380Y-49134523D01*
X85952380Y-48753571D01*
X85904761Y-48658333D01*
X85809523Y-48610714D01*
X85619047Y-48610714D01*
X85523809Y-48658333D01*
X85476190Y-48753571D01*
X85476190Y-48848809D01*
X85952380Y-48944047D01*
X85047619Y-49277380D02*
X85047619Y-48610714D01*
X85047619Y-48801190D02*
X85000000Y-48705952D01*
X84952380Y-48658333D01*
X84857142Y-48610714D01*
X84761904Y-48610714D01*
X83761904Y-48610714D02*
X83523809Y-49277380D01*
X83285714Y-48610714D01*
X82428571Y-48277380D02*
X82904761Y-48277380D01*
X82952380Y-48753571D01*
X82904761Y-48705952D01*
X82809523Y-48658333D01*
X82571428Y-48658333D01*
X82476190Y-48705952D01*
X82428571Y-48753571D01*
X82380952Y-48848809D01*
X82380952Y-49086904D01*
X82428571Y-49182142D01*
X82476190Y-49229761D01*
X82571428Y-49277380D01*
X82809523Y-49277380D01*
X82904761Y-49229761D01*
X82952380Y-49182142D01*
X80761904Y-49277380D02*
X80761904Y-48277380D01*
X80761904Y-49229761D02*
X80857142Y-49277380D01*
X81047619Y-49277380D01*
X81142857Y-49229761D01*
X81190476Y-49182142D01*
X81238095Y-49086904D01*
X81238095Y-48801190D01*
X81190476Y-48705952D01*
X81142857Y-48658333D01*
X81047619Y-48610714D01*
X80857142Y-48610714D01*
X80761904Y-48658333D01*
X80285714Y-49277380D02*
X80285714Y-48610714D01*
X80285714Y-48277380D02*
X80333333Y-48325000D01*
X80285714Y-48372619D01*
X80238095Y-48325000D01*
X80285714Y-48277380D01*
X80285714Y-48372619D01*
X79857142Y-49229761D02*
X79761904Y-49277380D01*
X79571428Y-49277380D01*
X79476190Y-49229761D01*
X79428571Y-49134523D01*
X79428571Y-49086904D01*
X79476190Y-48991666D01*
X79571428Y-48944047D01*
X79714285Y-48944047D01*
X79809523Y-48896428D01*
X79857142Y-48801190D01*
X79857142Y-48753571D01*
X79809523Y-48658333D01*
X79714285Y-48610714D01*
X79571428Y-48610714D01*
X79476190Y-48658333D01*
X79000000Y-48610714D02*
X79000000Y-49610714D01*
X79000000Y-48658333D02*
X78904761Y-48610714D01*
X78714285Y-48610714D01*
X78619047Y-48658333D01*
X78571428Y-48705952D01*
X78523809Y-48801190D01*
X78523809Y-49086904D01*
X78571428Y-49182142D01*
X78619047Y-49229761D01*
X78714285Y-49277380D01*
X78904761Y-49277380D01*
X79000000Y-49229761D01*
X77952380Y-49277380D02*
X78047619Y-49229761D01*
X78095238Y-49134523D01*
X78095238Y-48277380D01*
X77142857Y-49277380D02*
X77142857Y-48753571D01*
X77190476Y-48658333D01*
X77285714Y-48610714D01*
X77476190Y-48610714D01*
X77571428Y-48658333D01*
X77142857Y-49229761D02*
X77238095Y-49277380D01*
X77476190Y-49277380D01*
X77571428Y-49229761D01*
X77619047Y-49134523D01*
X77619047Y-49039285D01*
X77571428Y-48944047D01*
X77476190Y-48896428D01*
X77238095Y-48896428D01*
X77142857Y-48848809D01*
X76761904Y-48610714D02*
X76523809Y-49277380D01*
X76285714Y-48610714D02*
X76523809Y-49277380D01*
X76619047Y-49515476D01*
X76666666Y-49563095D01*
X76761904Y-49610714D01*
D11*
%TO.C,J2*%
X61500000Y-60250000D02*
X61500000Y-47250000D01*
X61500000Y-47250000D02*
X49500000Y-47250000D01*
X49500000Y-60250000D02*
X49500000Y-47250000D01*
X61500000Y-60250000D02*
X49500000Y-60250000D01*
X69500000Y-61250000D02*
X69500000Y-46250000D01*
X69500000Y-46250000D02*
X49000000Y-46250000D01*
X49000000Y-61250000D02*
X69500000Y-61250000D01*
X49000000Y-46250000D02*
X49000000Y-61250000D01*
X61500000Y-49250000D02*
X50500000Y-60250000D01*
X61500000Y-50250000D02*
X61500000Y-49250000D01*
X51500000Y-60250000D02*
X61500000Y-50250000D01*
X52500000Y-60250000D02*
X51500000Y-60250000D01*
X61500000Y-51250000D02*
X52500000Y-60250000D01*
X61500000Y-52250000D02*
X61500000Y-51250000D01*
X53500000Y-60250000D02*
X61500000Y-52250000D01*
X54500000Y-60250000D02*
X53500000Y-60250000D01*
X61500000Y-53250000D02*
X54500000Y-60250000D01*
X61500000Y-54250000D02*
X61500000Y-53250000D01*
X55500000Y-60250000D02*
X61500000Y-54250000D01*
X56500000Y-60250000D02*
X55500000Y-60250000D01*
X61500000Y-55250000D02*
X56500000Y-60250000D01*
X61500000Y-56250000D02*
X61500000Y-55250000D01*
X57500000Y-60250000D02*
X61500000Y-56250000D01*
X58500000Y-60250000D02*
X57500000Y-60250000D01*
X61500000Y-57250000D02*
X58500000Y-60250000D01*
X61500000Y-58250000D02*
X61500000Y-57250000D01*
X59500000Y-60250000D02*
X61500000Y-58250000D01*
X60500000Y-60250000D02*
X59500000Y-60250000D01*
X61500000Y-59250000D02*
X60500000Y-60250000D01*
X49500000Y-60250000D02*
X61500000Y-48250000D01*
X49500000Y-48250000D02*
X50500000Y-47250000D01*
X49500000Y-49250000D02*
X49500000Y-48250000D01*
X51500000Y-47250000D02*
X49500000Y-49250000D01*
X51000000Y-47250000D02*
X51500000Y-47250000D01*
X52500000Y-47250000D02*
X51000000Y-47250000D01*
X49500000Y-50250000D02*
X52500000Y-47250000D01*
X49500000Y-51250000D02*
X49500000Y-50250000D01*
X53500000Y-47250000D02*
X49500000Y-51250000D01*
X54500000Y-47250000D02*
X53500000Y-47250000D01*
X49500000Y-52250000D02*
X54500000Y-47250000D01*
X49500000Y-53250000D02*
X49500000Y-52250000D01*
X55500000Y-47250000D02*
X49500000Y-53250000D01*
X55000000Y-47250000D02*
X55500000Y-47250000D01*
X56500000Y-47250000D02*
X55000000Y-47250000D01*
X49500000Y-54250000D02*
X56500000Y-47250000D01*
X49500000Y-55250000D02*
X49500000Y-54250000D01*
X57500000Y-47250000D02*
X49500000Y-55250000D01*
X58500000Y-47250000D02*
X57500000Y-47250000D01*
X49500000Y-56250000D02*
X58500000Y-47250000D01*
X49500000Y-55750000D02*
X49500000Y-56250000D01*
X49500000Y-57250000D02*
X49500000Y-55750000D01*
X59500000Y-47250000D02*
X49500000Y-57250000D01*
X59000000Y-47250000D02*
X59500000Y-47250000D01*
X60500000Y-47250000D02*
X59000000Y-47250000D01*
X49500000Y-58250000D02*
X60500000Y-47250000D01*
X49500000Y-59250000D02*
X49500000Y-58250000D01*
X61500000Y-47250000D02*
X49500000Y-59250000D01*
D10*
X67952380Y-52916666D02*
X68666666Y-52916666D01*
X68809523Y-52869047D01*
X68904761Y-52773809D01*
X68952380Y-52630952D01*
X68952380Y-52535714D01*
X68047619Y-53345238D02*
X68000000Y-53392857D01*
X67952380Y-53488095D01*
X67952380Y-53726190D01*
X68000000Y-53821428D01*
X68047619Y-53869047D01*
X68142857Y-53916666D01*
X68238095Y-53916666D01*
X68380952Y-53869047D01*
X68952380Y-53297619D01*
X68952380Y-53916666D01*
X55953571Y-50393571D02*
X56014047Y-50333095D01*
X56074523Y-50151666D01*
X56074523Y-50030714D01*
X56014047Y-49849285D01*
X55893095Y-49728333D01*
X55772142Y-49667857D01*
X55530238Y-49607380D01*
X55348809Y-49607380D01*
X55106904Y-49667857D01*
X54985952Y-49728333D01*
X54865000Y-49849285D01*
X54804523Y-50030714D01*
X54804523Y-50151666D01*
X54865000Y-50333095D01*
X54925476Y-50393571D01*
X54804523Y-50937857D02*
X55832619Y-50937857D01*
X55953571Y-50998333D01*
X56014047Y-51058809D01*
X56074523Y-51179761D01*
X56074523Y-51421666D01*
X56014047Y-51542619D01*
X55953571Y-51603095D01*
X55832619Y-51663571D01*
X54804523Y-51663571D01*
X54804523Y-52086904D02*
X54804523Y-52812619D01*
X56074523Y-52449761D02*
X54804523Y-52449761D01*
X54804523Y-54445476D02*
X54804523Y-54687380D01*
X54865000Y-54808333D01*
X54985952Y-54929285D01*
X55227857Y-54989761D01*
X55651190Y-54989761D01*
X55893095Y-54929285D01*
X56014047Y-54808333D01*
X56074523Y-54687380D01*
X56074523Y-54445476D01*
X56014047Y-54324523D01*
X55893095Y-54203571D01*
X55651190Y-54143095D01*
X55227857Y-54143095D01*
X54985952Y-54203571D01*
X54865000Y-54324523D01*
X54804523Y-54445476D01*
X54804523Y-55534047D02*
X55832619Y-55534047D01*
X55953571Y-55594523D01*
X56014047Y-55655000D01*
X56074523Y-55775952D01*
X56074523Y-56017857D01*
X56014047Y-56138809D01*
X55953571Y-56199285D01*
X55832619Y-56259761D01*
X54804523Y-56259761D01*
X54804523Y-56683095D02*
X54804523Y-57408809D01*
X56074523Y-57045952D02*
X54804523Y-57045952D01*
X55953571Y-57832142D02*
X56014047Y-57892619D01*
X56074523Y-57832142D01*
X56014047Y-57771666D01*
X55953571Y-57832142D01*
X56074523Y-57832142D01*
X55590714Y-57832142D02*
X54865000Y-57771666D01*
X54804523Y-57832142D01*
X54865000Y-57892619D01*
X55590714Y-57832142D01*
X54804523Y-57832142D01*
%TD*%
M02*
