%TF.GenerationSoftware,KiCad,Pcbnew,(5.1.9-0-10_14)*%
%TF.CreationDate,2021-07-01T16:45:12-07:00*%
%TF.ProjectId,vantroller_v5_display,76616e74-726f-46c6-9c65-725f76355f64,rev?*%
%TF.SameCoordinates,Original*%
%TF.FileFunction,Copper,L2,Bot*%
%TF.FilePolarity,Positive*%
%FSLAX46Y46*%
G04 Gerber Fmt 4.6, Leading zero omitted, Abs format (unit mm)*
G04 Created by KiCad (PCBNEW (5.1.9-0-10_14)) date 2021-07-01 16:45:12*
%MOMM*%
%LPD*%
G01*
G04 APERTURE LIST*
%TA.AperFunction,ComponentPad*%
%ADD10C,1.600000*%
%TD*%
%TA.AperFunction,ComponentPad*%
%ADD11R,1.600000X1.600000*%
%TD*%
%TA.AperFunction,ComponentPad*%
%ADD12O,1.700000X1.700000*%
%TD*%
%TA.AperFunction,ComponentPad*%
%ADD13R,1.700000X1.700000*%
%TD*%
%TA.AperFunction,ComponentPad*%
%ADD14C,1.700000*%
%TD*%
%TA.AperFunction,ViaPad*%
%ADD15C,0.800000*%
%TD*%
%TA.AperFunction,Conductor*%
%ADD16C,0.250000*%
%TD*%
G04 APERTURE END LIST*
D10*
%TO.P,S2,1*%
%TO.N,Net-(S2-Pad1)*%
X82750000Y-52750000D03*
%TO.P,S2,2*%
%TO.N,Net-(R5-Pad1)*%
X80250000Y-52750000D03*
%TO.P,S2,3*%
%TO.N,GND*%
X77750000Y-52750000D03*
%TO.P,S2,4*%
%TO.N,Net-(S2-Pad4)*%
X82750000Y-57750000D03*
%TO.P,S2,5*%
%TO.N,Net-(S2-Pad5)*%
X80250000Y-57750000D03*
%TO.P,S2,6*%
%TO.N,Net-(S2-Pad6)*%
X77750000Y-57750000D03*
D11*
%TO.P,S2,L1*%
%TO.N,+3V3*%
X85250000Y-55250000D03*
D10*
%TO.P,S2,L2*%
%TO.N,Net-(R4-Pad2)*%
X75250000Y-55250000D03*
%TD*%
%TO.P,S1,1*%
%TO.N,Net-(S1-Pad1)*%
X82750000Y-39750000D03*
%TO.P,S1,2*%
%TO.N,Net-(R2-Pad1)*%
X80250000Y-39750000D03*
%TO.P,S1,3*%
%TO.N,GND*%
X77750000Y-39750000D03*
%TO.P,S1,4*%
%TO.N,Net-(S1-Pad4)*%
X82750000Y-44750000D03*
%TO.P,S1,5*%
%TO.N,Net-(S1-Pad5)*%
X80250000Y-44750000D03*
%TO.P,S1,6*%
%TO.N,Net-(S1-Pad6)*%
X77750000Y-44750000D03*
D11*
%TO.P,S1,L1*%
%TO.N,+3V3*%
X85250000Y-42250000D03*
D10*
%TO.P,S1,L2*%
%TO.N,Net-(R1-Pad2)*%
X75250000Y-42250000D03*
%TD*%
D12*
%TO.P,J3,4*%
%TO.N,+3V3*%
X81130000Y-32500000D03*
%TO.P,J3,3*%
%TO.N,GND*%
X83670000Y-32500000D03*
%TO.P,J3,2*%
%TO.N,/SCL*%
X86210000Y-32500000D03*
D13*
%TO.P,J3,1*%
%TO.N,/SDA*%
X88750000Y-32500000D03*
%TD*%
D14*
%TO.P,J2,6*%
%TO.N,+3V3*%
X66440000Y-50575000D03*
%TO.P,J2,4*%
%TO.N,/BUTTON1*%
X66440000Y-53115000D03*
%TO.P,J2,2*%
%TO.N,/SDA*%
X66440000Y-55655000D03*
%TO.P,J2,5*%
%TO.N,/BUTTON2*%
X63900000Y-51845000D03*
%TO.P,J2,3*%
%TO.N,/SCL*%
X63900000Y-54405000D03*
%TO.P,J2,1*%
%TO.N,GND*%
X63900000Y-56925000D03*
%TD*%
%TO.P,J1,6*%
%TO.N,+3V3*%
X66379999Y-40864999D03*
%TO.P,J1,4*%
%TO.N,/BUTTON1*%
X66379999Y-38324999D03*
%TO.P,J1,2*%
%TO.N,/SDA*%
X66379999Y-35784999D03*
%TO.P,J1,5*%
%TO.N,/BUTTON2*%
X63839999Y-39594999D03*
%TO.P,J1,3*%
%TO.N,/SCL*%
X63839999Y-37034999D03*
%TO.P,J1,1*%
%TO.N,GND*%
X63839999Y-34514999D03*
%TD*%
D15*
%TO.N,/BUTTON1*%
X71000000Y-42500000D03*
X70000000Y-42500000D03*
X70000000Y-38500000D03*
%TO.N,GND*%
X75750000Y-50500000D03*
X78750000Y-31250000D03*
%TO.N,/BUTTON2*%
X63839999Y-49750000D03*
X70500000Y-59500000D03*
%TO.N,+3V3*%
X78750000Y-56000000D03*
X75000000Y-57000000D03*
X74750000Y-44000000D03*
X78750000Y-43000000D03*
X76500000Y-36000000D03*
X66379999Y-48250000D03*
%TO.N,/SDA*%
X75500000Y-33750000D03*
X66500000Y-33750000D03*
%TO.N,/SCL*%
X78500000Y-34000000D03*
%TD*%
D16*
%TO.N,/BUTTON1*%
X66379999Y-38324999D02*
X69824999Y-38324999D01*
X70000000Y-42500000D02*
X71000000Y-42500000D01*
X69824999Y-38324999D02*
X70000000Y-38500000D01*
%TO.N,GND*%
X77750000Y-52500000D02*
X77750000Y-52750000D01*
X75750000Y-50500000D02*
X77750000Y-52500000D01*
X83670000Y-32500000D02*
X83670000Y-32420000D01*
X79000000Y-31000000D02*
X78750000Y-31250000D01*
X82250000Y-31000000D02*
X79000000Y-31000000D01*
X83670000Y-32420000D02*
X82250000Y-31000000D01*
%TO.N,/BUTTON2*%
X62500000Y-59500000D02*
X70500000Y-59500000D01*
X62250000Y-59250000D02*
X62500000Y-59500000D01*
X62250000Y-50000000D02*
X62250000Y-59250000D01*
X63589999Y-50000000D02*
X62250000Y-50000000D01*
X63589999Y-50000000D02*
X63839999Y-49750000D01*
%TO.N,+3V3*%
X78250000Y-56500000D02*
X78750000Y-56000000D01*
X75500000Y-56500000D02*
X78250000Y-56500000D01*
X75000000Y-57000000D02*
X75500000Y-56500000D01*
X74750000Y-44000000D02*
X75250000Y-43500000D01*
X75250000Y-43500000D02*
X78000000Y-43500000D01*
X78000000Y-43500000D02*
X78500000Y-43000000D01*
X78500000Y-43000000D02*
X78750000Y-43000000D01*
X66379999Y-40864999D02*
X76000000Y-40864999D01*
X76000000Y-40864999D02*
X76114999Y-40864999D01*
X78250000Y-43000000D02*
X78750000Y-43000000D01*
X76114999Y-40864999D02*
X78250000Y-43000000D01*
X76000000Y-40864999D02*
X76000000Y-36500000D01*
X76000000Y-36500000D02*
X76500000Y-36000000D01*
X85250000Y-55250000D02*
X85250000Y-51500000D01*
X82500000Y-48750000D02*
X85250000Y-51500000D01*
X66879999Y-48750000D02*
X82500000Y-48750000D01*
X66879999Y-48750000D02*
X66379999Y-48250000D01*
%TO.N,/SDA*%
X66500000Y-33750000D02*
X75500000Y-33750000D01*
%TO.N,/SCL*%
X65000000Y-35874998D02*
X63839999Y-37034999D01*
X65000000Y-35000000D02*
X65000000Y-35874998D01*
X65500000Y-34500000D02*
X65000000Y-35000000D01*
X78000000Y-34500000D02*
X65500000Y-34500000D01*
X78500000Y-34000000D02*
X78000000Y-34500000D01*
X78500000Y-34000000D02*
X85750000Y-34000000D01*
X86210000Y-33540000D02*
X86210000Y-32500000D01*
X85750000Y-34000000D02*
X86210000Y-33540000D01*
%TD*%
M02*
