%TF.GenerationSoftware,KiCad,Pcbnew,(5.1.9-0-10_14)*%
%TF.CreationDate,2021-07-01T16:45:12-07:00*%
%TF.ProjectId,vantroller_v5_display,76616e74-726f-46c6-9c65-725f76355f64,rev?*%
%TF.SameCoordinates,Original*%
%TF.FileFunction,Legend,Top*%
%TF.FilePolarity,Positive*%
%FSLAX46Y46*%
G04 Gerber Fmt 4.6, Leading zero omitted, Abs format (unit mm)*
G04 Created by KiCad (PCBNEW (5.1.9-0-10_14)) date 2021-07-01 16:45:12*
%MOMM*%
%LPD*%
G01*
G04 APERTURE LIST*
%ADD10C,0.120000*%
%ADD11C,0.150000*%
G04 APERTURE END LIST*
D10*
%TO.C,U1*%
X75849999Y-30200000D02*
X72150001Y-30200000D01*
X77400001Y-35300000D02*
X72150001Y-35300000D01*
%TO.C,S2*%
X74250000Y-49250000D02*
X74250000Y-61250000D01*
X86250000Y-49250000D02*
X86250000Y-61250000D01*
X74250000Y-61250000D02*
X86250000Y-61250000D01*
X74250000Y-49250000D02*
X86250000Y-49250000D01*
%TO.C,S1*%
X74250000Y-36250000D02*
X74250000Y-48250000D01*
X86250000Y-36250000D02*
X86250000Y-48250000D01*
X74250000Y-48250000D02*
X86250000Y-48250000D01*
X74250000Y-36250000D02*
X86250000Y-36250000D01*
%TO.C,R6*%
X71870000Y-55153641D02*
X71870000Y-54846359D01*
X72630000Y-55153641D02*
X72630000Y-54846359D01*
%TO.C,R5*%
X73880000Y-55346359D02*
X73880000Y-55653641D01*
X73120000Y-55346359D02*
X73120000Y-55653641D01*
%TO.C,R4*%
X73660000Y-50772936D02*
X73660000Y-52227064D01*
X71840000Y-50772936D02*
X71840000Y-52227064D01*
%TO.C,R3*%
X71870000Y-42153641D02*
X71870000Y-41846359D01*
X72630000Y-42153641D02*
X72630000Y-41846359D01*
%TO.C,R2*%
X73880000Y-42346359D02*
X73880000Y-42653641D01*
X73120000Y-42346359D02*
X73120000Y-42653641D01*
%TO.C,R1*%
X73660000Y-37772936D02*
X73660000Y-39227064D01*
X71840000Y-37772936D02*
X71840000Y-39227064D01*
%TO.C,J3*%
X79800000Y-31170000D02*
X79800000Y-33830000D01*
X87480000Y-31170000D02*
X79800000Y-31170000D01*
X87480000Y-33830000D02*
X79800000Y-33830000D01*
X87480000Y-31170000D02*
X87480000Y-33830000D01*
X88750000Y-31170000D02*
X90080000Y-31170000D01*
X90080000Y-31170000D02*
X90080000Y-32500000D01*
%TO.C,J1*%
X61439999Y-31189999D02*
X61439999Y-44189999D01*
X61439999Y-44189999D02*
X49439999Y-44189999D01*
X49439999Y-31189999D02*
X49439999Y-44189999D01*
X61439999Y-31189999D02*
X49439999Y-31189999D01*
X69439999Y-30189999D02*
X69439999Y-45189999D01*
X69439999Y-45189999D02*
X48939999Y-45189999D01*
X48939999Y-30189999D02*
X69439999Y-30189999D01*
X48939999Y-45189999D02*
X48939999Y-30189999D01*
X61439999Y-42189999D02*
X50439999Y-31189999D01*
X61439999Y-41189999D02*
X61439999Y-42189999D01*
X51439999Y-31189999D02*
X61439999Y-41189999D01*
X52439999Y-31189999D02*
X51439999Y-31189999D01*
X61439999Y-40189999D02*
X52439999Y-31189999D01*
X61439999Y-39189999D02*
X61439999Y-40189999D01*
X53439999Y-31189999D02*
X61439999Y-39189999D01*
X54439999Y-31189999D02*
X53439999Y-31189999D01*
X61439999Y-38189999D02*
X54439999Y-31189999D01*
X61439999Y-37189999D02*
X61439999Y-38189999D01*
X55439999Y-31189999D02*
X61439999Y-37189999D01*
X56439999Y-31189999D02*
X55439999Y-31189999D01*
X61439999Y-36189999D02*
X56439999Y-31189999D01*
X61439999Y-35189999D02*
X61439999Y-36189999D01*
X57439999Y-31189999D02*
X61439999Y-35189999D01*
X58439999Y-31189999D02*
X57439999Y-31189999D01*
X61439999Y-34189999D02*
X58439999Y-31189999D01*
X61439999Y-33189999D02*
X61439999Y-34189999D01*
X59439999Y-31189999D02*
X61439999Y-33189999D01*
X60439999Y-31189999D02*
X59439999Y-31189999D01*
X61439999Y-32189999D02*
X60439999Y-31189999D01*
X49439999Y-31189999D02*
X61439999Y-43189999D01*
X49439999Y-43189999D02*
X50439999Y-44189999D01*
X49439999Y-42189999D02*
X49439999Y-43189999D01*
X51439999Y-44189999D02*
X49439999Y-42189999D01*
X50939999Y-44189999D02*
X51439999Y-44189999D01*
X52439999Y-44189999D02*
X50939999Y-44189999D01*
X49439999Y-41189999D02*
X52439999Y-44189999D01*
X49439999Y-40189999D02*
X49439999Y-41189999D01*
X53439999Y-44189999D02*
X49439999Y-40189999D01*
X54439999Y-44189999D02*
X53439999Y-44189999D01*
X49439999Y-39189999D02*
X54439999Y-44189999D01*
X49439999Y-38189999D02*
X49439999Y-39189999D01*
X55439999Y-44189999D02*
X49439999Y-38189999D01*
X54939999Y-44189999D02*
X55439999Y-44189999D01*
X56439999Y-44189999D02*
X54939999Y-44189999D01*
X49439999Y-37189999D02*
X56439999Y-44189999D01*
X49439999Y-36189999D02*
X49439999Y-37189999D01*
X57439999Y-44189999D02*
X49439999Y-36189999D01*
X58439999Y-44189999D02*
X57439999Y-44189999D01*
X49439999Y-35189999D02*
X58439999Y-44189999D01*
X49439999Y-35689999D02*
X49439999Y-35189999D01*
X49439999Y-34189999D02*
X49439999Y-35689999D01*
X59439999Y-44189999D02*
X49439999Y-34189999D01*
X58939999Y-44189999D02*
X59439999Y-44189999D01*
X60439999Y-44189999D02*
X58939999Y-44189999D01*
X49439999Y-33189999D02*
X60439999Y-44189999D01*
X49439999Y-32189999D02*
X49439999Y-33189999D01*
X61439999Y-44189999D02*
X49439999Y-32189999D01*
%TO.C,C2*%
X72740000Y-58390580D02*
X72740000Y-58109420D01*
X73760000Y-58390580D02*
X73760000Y-58109420D01*
%TO.C,C1*%
X72740000Y-45390580D02*
X72740000Y-45109420D01*
X73760000Y-45390580D02*
X73760000Y-45109420D01*
%TO.C,U1*%
D11*
X73238095Y-32202380D02*
X73238095Y-33011904D01*
X73285714Y-33107142D01*
X73333333Y-33154761D01*
X73428571Y-33202380D01*
X73619047Y-33202380D01*
X73714285Y-33154761D01*
X73761904Y-33107142D01*
X73809523Y-33011904D01*
X73809523Y-32202380D01*
X74809523Y-33202380D02*
X74238095Y-33202380D01*
X74523809Y-33202380D02*
X74523809Y-32202380D01*
X74428571Y-32345238D01*
X74333333Y-32440476D01*
X74238095Y-32488095D01*
X69309523Y-32202380D02*
X69880952Y-32202380D01*
X69595238Y-33202380D02*
X69595238Y-32202380D01*
X70785714Y-33107142D02*
X70738095Y-33154761D01*
X70595238Y-33202380D01*
X70500000Y-33202380D01*
X70357142Y-33154761D01*
X70261904Y-33059523D01*
X70214285Y-32964285D01*
X70166666Y-32773809D01*
X70166666Y-32630952D01*
X70214285Y-32440476D01*
X70261904Y-32345238D01*
X70357142Y-32250000D01*
X70500000Y-32202380D01*
X70595238Y-32202380D01*
X70738095Y-32250000D01*
X70785714Y-32297619D01*
X71166666Y-32916666D02*
X71642857Y-32916666D01*
X71071428Y-33202380D02*
X71404761Y-32202380D01*
X71738095Y-33202380D01*
X72500000Y-32202380D02*
X72309523Y-32202380D01*
X72214285Y-32250000D01*
X72166666Y-32297619D01*
X72071428Y-32440476D01*
X72023809Y-32630952D01*
X72023809Y-33011904D01*
X72071428Y-33107142D01*
X72119047Y-33154761D01*
X72214285Y-33202380D01*
X72404761Y-33202380D01*
X72500000Y-33154761D01*
X72547619Y-33107142D01*
X72595238Y-33011904D01*
X72595238Y-32773809D01*
X72547619Y-32678571D01*
X72500000Y-32630952D01*
X72404761Y-32583333D01*
X72214285Y-32583333D01*
X72119047Y-32630952D01*
X72071428Y-32678571D01*
X72023809Y-32773809D01*
X73500000Y-32202380D02*
X73023809Y-32202380D01*
X72976190Y-32678571D01*
X73023809Y-32630952D01*
X73119047Y-32583333D01*
X73357142Y-32583333D01*
X73452380Y-32630952D01*
X73500000Y-32678571D01*
X73547619Y-32773809D01*
X73547619Y-33011904D01*
X73500000Y-33107142D01*
X73452380Y-33154761D01*
X73357142Y-33202380D01*
X73119047Y-33202380D01*
X73023809Y-33154761D01*
X72976190Y-33107142D01*
X74166666Y-32202380D02*
X74261904Y-32202380D01*
X74357142Y-32250000D01*
X74404761Y-32297619D01*
X74452380Y-32392857D01*
X74500000Y-32583333D01*
X74500000Y-32821428D01*
X74452380Y-33011904D01*
X74404761Y-33107142D01*
X74357142Y-33154761D01*
X74261904Y-33202380D01*
X74166666Y-33202380D01*
X74071428Y-33154761D01*
X74023809Y-33107142D01*
X73976190Y-33011904D01*
X73928571Y-32821428D01*
X73928571Y-32583333D01*
X73976190Y-32392857D01*
X74023809Y-32297619D01*
X74071428Y-32250000D01*
X74166666Y-32202380D01*
X74833333Y-32202380D02*
X75500000Y-32202380D01*
X75071428Y-33202380D01*
X75880952Y-33202380D02*
X75880952Y-32202380D01*
X76261904Y-32202380D01*
X76357142Y-32250000D01*
X76404761Y-32297619D01*
X76452380Y-32392857D01*
X76452380Y-32535714D01*
X76404761Y-32630952D01*
X76357142Y-32678571D01*
X76261904Y-32726190D01*
X75880952Y-32726190D01*
X76785714Y-32202380D02*
X77023809Y-33202380D01*
X77214285Y-32488095D01*
X77404761Y-33202380D01*
X77642857Y-32202380D01*
X78595238Y-33202380D02*
X78261904Y-32726190D01*
X78023809Y-33202380D02*
X78023809Y-32202380D01*
X78404761Y-32202380D01*
X78500000Y-32250000D01*
X78547619Y-32297619D01*
X78595238Y-32392857D01*
X78595238Y-32535714D01*
X78547619Y-32630952D01*
X78500000Y-32678571D01*
X78404761Y-32726190D01*
X78023809Y-32726190D01*
X74000000Y-32202380D02*
X74000000Y-32440476D01*
X73761904Y-32345238D02*
X74000000Y-32440476D01*
X74238095Y-32345238D01*
X73857142Y-32630952D02*
X74000000Y-32440476D01*
X74142857Y-32630952D01*
X73544914Y-37063180D02*
X73544914Y-36063180D01*
X73783009Y-36063180D01*
X73925866Y-36110800D01*
X74021104Y-36206038D01*
X74068723Y-36301276D01*
X74116342Y-36491752D01*
X74116342Y-36634609D01*
X74068723Y-36825085D01*
X74021104Y-36920323D01*
X73925866Y-37015561D01*
X73783009Y-37063180D01*
X73544914Y-37063180D01*
X74925866Y-37015561D02*
X74830628Y-37063180D01*
X74640152Y-37063180D01*
X74544914Y-37015561D01*
X74497295Y-36920323D01*
X74497295Y-36539371D01*
X74544914Y-36444133D01*
X74640152Y-36396514D01*
X74830628Y-36396514D01*
X74925866Y-36444133D01*
X74973485Y-36539371D01*
X74973485Y-36634609D01*
X74497295Y-36729847D01*
X75354438Y-37015561D02*
X75449676Y-37063180D01*
X75640152Y-37063180D01*
X75735390Y-37015561D01*
X75783009Y-36920323D01*
X75783009Y-36872704D01*
X75735390Y-36777466D01*
X75640152Y-36729847D01*
X75497295Y-36729847D01*
X75402057Y-36682228D01*
X75354438Y-36586990D01*
X75354438Y-36539371D01*
X75402057Y-36444133D01*
X75497295Y-36396514D01*
X75640152Y-36396514D01*
X75735390Y-36444133D01*
X76211580Y-37063180D02*
X76211580Y-36396514D01*
X76211580Y-36063180D02*
X76163961Y-36110800D01*
X76211580Y-36158419D01*
X76259200Y-36110800D01*
X76211580Y-36063180D01*
X76211580Y-36158419D01*
X77116342Y-36396514D02*
X77116342Y-37206038D01*
X77068723Y-37301276D01*
X77021104Y-37348895D01*
X76925866Y-37396514D01*
X76783009Y-37396514D01*
X76687771Y-37348895D01*
X77116342Y-37015561D02*
X77021104Y-37063180D01*
X76830628Y-37063180D01*
X76735390Y-37015561D01*
X76687771Y-36967942D01*
X76640152Y-36872704D01*
X76640152Y-36586990D01*
X76687771Y-36491752D01*
X76735390Y-36444133D01*
X76830628Y-36396514D01*
X77021104Y-36396514D01*
X77116342Y-36444133D01*
X77592533Y-36396514D02*
X77592533Y-37063180D01*
X77592533Y-36491752D02*
X77640152Y-36444133D01*
X77735390Y-36396514D01*
X77878247Y-36396514D01*
X77973485Y-36444133D01*
X78021104Y-36539371D01*
X78021104Y-37063180D01*
X78925866Y-37063180D02*
X78925866Y-36539371D01*
X78878247Y-36444133D01*
X78783009Y-36396514D01*
X78592533Y-36396514D01*
X78497295Y-36444133D01*
X78925866Y-37015561D02*
X78830628Y-37063180D01*
X78592533Y-37063180D01*
X78497295Y-37015561D01*
X78449676Y-36920323D01*
X78449676Y-36825085D01*
X78497295Y-36729847D01*
X78592533Y-36682228D01*
X78830628Y-36682228D01*
X78925866Y-36634609D01*
X79259200Y-36396514D02*
X79640152Y-36396514D01*
X79402057Y-36063180D02*
X79402057Y-36920323D01*
X79449676Y-37015561D01*
X79544914Y-37063180D01*
X79640152Y-37063180D01*
X80116342Y-37063180D02*
X80021104Y-37015561D01*
X79973485Y-36967942D01*
X79925866Y-36872704D01*
X79925866Y-36586990D01*
X79973485Y-36491752D01*
X80021104Y-36444133D01*
X80116342Y-36396514D01*
X80259200Y-36396514D01*
X80354438Y-36444133D01*
X80402057Y-36491752D01*
X80449676Y-36586990D01*
X80449676Y-36872704D01*
X80402057Y-36967942D01*
X80354438Y-37015561D01*
X80259200Y-37063180D01*
X80116342Y-37063180D01*
X80878247Y-37063180D02*
X80878247Y-36396514D01*
X80878247Y-36586990D02*
X80925866Y-36491752D01*
X80973485Y-36444133D01*
X81068723Y-36396514D01*
X81163961Y-36396514D01*
X81544914Y-37063180D02*
X81735390Y-37063180D01*
X81830628Y-37015561D01*
X81878247Y-36967942D01*
X81973485Y-36825085D01*
X82021104Y-36634609D01*
X82021104Y-36253657D01*
X81973485Y-36158419D01*
X81925866Y-36110800D01*
X81830628Y-36063180D01*
X81640152Y-36063180D01*
X81544914Y-36110800D01*
X81497295Y-36158419D01*
X81449676Y-36253657D01*
X81449676Y-36491752D01*
X81497295Y-36586990D01*
X81544914Y-36634609D01*
X81640152Y-36682228D01*
X81830628Y-36682228D01*
X81925866Y-36634609D01*
X81973485Y-36586990D01*
X82021104Y-36491752D01*
%TO.C,S2*%
X79488095Y-48034761D02*
X79630952Y-48082380D01*
X79869047Y-48082380D01*
X79964285Y-48034761D01*
X80011904Y-47987142D01*
X80059523Y-47891904D01*
X80059523Y-47796666D01*
X80011904Y-47701428D01*
X79964285Y-47653809D01*
X79869047Y-47606190D01*
X79678571Y-47558571D01*
X79583333Y-47510952D01*
X79535714Y-47463333D01*
X79488095Y-47368095D01*
X79488095Y-47272857D01*
X79535714Y-47177619D01*
X79583333Y-47130000D01*
X79678571Y-47082380D01*
X79916666Y-47082380D01*
X80059523Y-47130000D01*
X80440476Y-47177619D02*
X80488095Y-47130000D01*
X80583333Y-47082380D01*
X80821428Y-47082380D01*
X80916666Y-47130000D01*
X80964285Y-47177619D01*
X81011904Y-47272857D01*
X81011904Y-47368095D01*
X80964285Y-47510952D01*
X80392857Y-48082380D01*
X81011904Y-48082380D01*
%TO.C,S1*%
X79488095Y-35034761D02*
X79630952Y-35082380D01*
X79869047Y-35082380D01*
X79964285Y-35034761D01*
X80011904Y-34987142D01*
X80059523Y-34891904D01*
X80059523Y-34796666D01*
X80011904Y-34701428D01*
X79964285Y-34653809D01*
X79869047Y-34606190D01*
X79678571Y-34558571D01*
X79583333Y-34510952D01*
X79535714Y-34463333D01*
X79488095Y-34368095D01*
X79488095Y-34272857D01*
X79535714Y-34177619D01*
X79583333Y-34130000D01*
X79678571Y-34082380D01*
X79916666Y-34082380D01*
X80059523Y-34130000D01*
X81011904Y-35082380D02*
X80440476Y-35082380D01*
X80726190Y-35082380D02*
X80726190Y-34082380D01*
X80630952Y-34225238D01*
X80535714Y-34320476D01*
X80440476Y-34368095D01*
%TO.C,R6*%
X71532380Y-55166666D02*
X71056190Y-55500000D01*
X71532380Y-55738095D02*
X70532380Y-55738095D01*
X70532380Y-55357142D01*
X70580000Y-55261904D01*
X70627619Y-55214285D01*
X70722857Y-55166666D01*
X70865714Y-55166666D01*
X70960952Y-55214285D01*
X71008571Y-55261904D01*
X71056190Y-55357142D01*
X71056190Y-55738095D01*
X70532380Y-54309523D02*
X70532380Y-54500000D01*
X70580000Y-54595238D01*
X70627619Y-54642857D01*
X70770476Y-54738095D01*
X70960952Y-54785714D01*
X71341904Y-54785714D01*
X71437142Y-54738095D01*
X71484761Y-54690476D01*
X71532380Y-54595238D01*
X71532380Y-54404761D01*
X71484761Y-54309523D01*
X71437142Y-54261904D01*
X71341904Y-54214285D01*
X71103809Y-54214285D01*
X71008571Y-54261904D01*
X70960952Y-54309523D01*
X70913333Y-54404761D01*
X70913333Y-54595238D01*
X70960952Y-54690476D01*
X71008571Y-54738095D01*
X71103809Y-54785714D01*
%TO.C,R5*%
X75122380Y-55666666D02*
X74646190Y-56000000D01*
X75122380Y-56238095D02*
X74122380Y-56238095D01*
X74122380Y-55857142D01*
X74170000Y-55761904D01*
X74217619Y-55714285D01*
X74312857Y-55666666D01*
X74455714Y-55666666D01*
X74550952Y-55714285D01*
X74598571Y-55761904D01*
X74646190Y-55857142D01*
X74646190Y-56238095D01*
X74122380Y-54761904D02*
X74122380Y-55238095D01*
X74598571Y-55285714D01*
X74550952Y-55238095D01*
X74503333Y-55142857D01*
X74503333Y-54904761D01*
X74550952Y-54809523D01*
X74598571Y-54761904D01*
X74693809Y-54714285D01*
X74931904Y-54714285D01*
X75027142Y-54761904D01*
X75074761Y-54809523D01*
X75122380Y-54904761D01*
X75122380Y-55142857D01*
X75074761Y-55238095D01*
X75027142Y-55285714D01*
%TO.C,R4*%
X75022380Y-51666666D02*
X74546190Y-52000000D01*
X75022380Y-52238095D02*
X74022380Y-52238095D01*
X74022380Y-51857142D01*
X74070000Y-51761904D01*
X74117619Y-51714285D01*
X74212857Y-51666666D01*
X74355714Y-51666666D01*
X74450952Y-51714285D01*
X74498571Y-51761904D01*
X74546190Y-51857142D01*
X74546190Y-52238095D01*
X74355714Y-50809523D02*
X75022380Y-50809523D01*
X73974761Y-51047619D02*
X74689047Y-51285714D01*
X74689047Y-50666666D01*
%TO.C,R3*%
X71532380Y-42166666D02*
X71056190Y-42500000D01*
X71532380Y-42738095D02*
X70532380Y-42738095D01*
X70532380Y-42357142D01*
X70580000Y-42261904D01*
X70627619Y-42214285D01*
X70722857Y-42166666D01*
X70865714Y-42166666D01*
X70960952Y-42214285D01*
X71008571Y-42261904D01*
X71056190Y-42357142D01*
X71056190Y-42738095D01*
X70532380Y-41833333D02*
X70532380Y-41214285D01*
X70913333Y-41547619D01*
X70913333Y-41404761D01*
X70960952Y-41309523D01*
X71008571Y-41261904D01*
X71103809Y-41214285D01*
X71341904Y-41214285D01*
X71437142Y-41261904D01*
X71484761Y-41309523D01*
X71532380Y-41404761D01*
X71532380Y-41690476D01*
X71484761Y-41785714D01*
X71437142Y-41833333D01*
%TO.C,R2*%
X75122380Y-42666666D02*
X74646190Y-43000000D01*
X75122380Y-43238095D02*
X74122380Y-43238095D01*
X74122380Y-42857142D01*
X74170000Y-42761904D01*
X74217619Y-42714285D01*
X74312857Y-42666666D01*
X74455714Y-42666666D01*
X74550952Y-42714285D01*
X74598571Y-42761904D01*
X74646190Y-42857142D01*
X74646190Y-43238095D01*
X74217619Y-42285714D02*
X74170000Y-42238095D01*
X74122380Y-42142857D01*
X74122380Y-41904761D01*
X74170000Y-41809523D01*
X74217619Y-41761904D01*
X74312857Y-41714285D01*
X74408095Y-41714285D01*
X74550952Y-41761904D01*
X75122380Y-42333333D01*
X75122380Y-41714285D01*
%TO.C,R1*%
X75022380Y-38666666D02*
X74546190Y-39000000D01*
X75022380Y-39238095D02*
X74022380Y-39238095D01*
X74022380Y-38857142D01*
X74070000Y-38761904D01*
X74117619Y-38714285D01*
X74212857Y-38666666D01*
X74355714Y-38666666D01*
X74450952Y-38714285D01*
X74498571Y-38761904D01*
X74546190Y-38857142D01*
X74546190Y-39238095D01*
X75022380Y-37714285D02*
X75022380Y-38285714D01*
X75022380Y-38000000D02*
X74022380Y-38000000D01*
X74165238Y-38095238D01*
X74260476Y-38190476D01*
X74308095Y-38285714D01*
%TO.C,J3*%
X90532380Y-32833333D02*
X91246666Y-32833333D01*
X91389523Y-32880952D01*
X91484761Y-32976190D01*
X91532380Y-33119047D01*
X91532380Y-33214285D01*
X90532380Y-32452380D02*
X90532380Y-31833333D01*
X90913333Y-32166666D01*
X90913333Y-32023809D01*
X90960952Y-31928571D01*
X91008571Y-31880952D01*
X91103809Y-31833333D01*
X91341904Y-31833333D01*
X91437142Y-31880952D01*
X91484761Y-31928571D01*
X91532380Y-32023809D01*
X91532380Y-32309523D01*
X91484761Y-32404761D01*
X91437142Y-32452380D01*
%TO.C,J1*%
X67892379Y-38523332D02*
X68606665Y-38523332D01*
X68749522Y-38570951D01*
X68844760Y-38666189D01*
X68892379Y-38809046D01*
X68892379Y-38904284D01*
X68892379Y-37523332D02*
X68892379Y-38094760D01*
X68892379Y-37809046D02*
X67892379Y-37809046D01*
X68035237Y-37904284D01*
X68130475Y-37999522D01*
X68178094Y-38094760D01*
X55893570Y-41046427D02*
X55954046Y-41106903D01*
X56014522Y-41288332D01*
X56014522Y-41409284D01*
X55954046Y-41590713D01*
X55833094Y-41711665D01*
X55712141Y-41772141D01*
X55470237Y-41832618D01*
X55288808Y-41832618D01*
X55046903Y-41772141D01*
X54925951Y-41711665D01*
X54804999Y-41590713D01*
X54744522Y-41409284D01*
X54744522Y-41288332D01*
X54804999Y-41106903D01*
X54865475Y-41046427D01*
X54744522Y-40502141D02*
X55772618Y-40502141D01*
X55893570Y-40441665D01*
X55954046Y-40381189D01*
X56014522Y-40260237D01*
X56014522Y-40018332D01*
X55954046Y-39897379D01*
X55893570Y-39836903D01*
X55772618Y-39776427D01*
X54744522Y-39776427D01*
X54744522Y-39353094D02*
X54744522Y-38627379D01*
X56014522Y-38990237D02*
X54744522Y-38990237D01*
X54744522Y-36994522D02*
X54744522Y-36752618D01*
X54804999Y-36631665D01*
X54925951Y-36510713D01*
X55167856Y-36450237D01*
X55591189Y-36450237D01*
X55833094Y-36510713D01*
X55954046Y-36631665D01*
X56014522Y-36752618D01*
X56014522Y-36994522D01*
X55954046Y-37115475D01*
X55833094Y-37236427D01*
X55591189Y-37296903D01*
X55167856Y-37296903D01*
X54925951Y-37236427D01*
X54804999Y-37115475D01*
X54744522Y-36994522D01*
X54744522Y-35905951D02*
X55772618Y-35905951D01*
X55893570Y-35845475D01*
X55954046Y-35784999D01*
X56014522Y-35664046D01*
X56014522Y-35422141D01*
X55954046Y-35301189D01*
X55893570Y-35240713D01*
X55772618Y-35180237D01*
X54744522Y-35180237D01*
X54744522Y-34756903D02*
X54744522Y-34031189D01*
X56014522Y-34394046D02*
X54744522Y-34394046D01*
X55893570Y-33607856D02*
X55954046Y-33547379D01*
X56014522Y-33607856D01*
X55954046Y-33668332D01*
X55893570Y-33607856D01*
X56014522Y-33607856D01*
X55530713Y-33607856D02*
X54804999Y-33668332D01*
X54744522Y-33607856D01*
X54804999Y-33547379D01*
X55530713Y-33607856D01*
X54744522Y-33607856D01*
%TO.C,C2*%
X72177142Y-58416666D02*
X72224761Y-58464285D01*
X72272380Y-58607142D01*
X72272380Y-58702380D01*
X72224761Y-58845238D01*
X72129523Y-58940476D01*
X72034285Y-58988095D01*
X71843809Y-59035714D01*
X71700952Y-59035714D01*
X71510476Y-58988095D01*
X71415238Y-58940476D01*
X71320000Y-58845238D01*
X71272380Y-58702380D01*
X71272380Y-58607142D01*
X71320000Y-58464285D01*
X71367619Y-58416666D01*
X71367619Y-58035714D02*
X71320000Y-57988095D01*
X71272380Y-57892857D01*
X71272380Y-57654761D01*
X71320000Y-57559523D01*
X71367619Y-57511904D01*
X71462857Y-57464285D01*
X71558095Y-57464285D01*
X71700952Y-57511904D01*
X72272380Y-58083333D01*
X72272380Y-57464285D01*
%TO.C,C1*%
X72177142Y-45416666D02*
X72224761Y-45464285D01*
X72272380Y-45607142D01*
X72272380Y-45702380D01*
X72224761Y-45845238D01*
X72129523Y-45940476D01*
X72034285Y-45988095D01*
X71843809Y-46035714D01*
X71700952Y-46035714D01*
X71510476Y-45988095D01*
X71415238Y-45940476D01*
X71320000Y-45845238D01*
X71272380Y-45702380D01*
X71272380Y-45607142D01*
X71320000Y-45464285D01*
X71367619Y-45416666D01*
X72272380Y-44464285D02*
X72272380Y-45035714D01*
X72272380Y-44750000D02*
X71272380Y-44750000D01*
X71415238Y-44845238D01*
X71510476Y-44940476D01*
X71558095Y-45035714D01*
%TD*%
M02*
