M48
; DRILL file {KiCad (5.1.9-0-10_14)} date Thursday, July 01, 2021 at 04:45:14 PM
; FORMAT={-:-/ absolute / inch / decimal}
; #@! TF.CreationDate,2021-07-01T16:45:14-07:00
; #@! TF.GenerationSoftware,Kicad,Pcbnew,(5.1.9-0-10_14)
FMAT,2
INCH
T1C0.0157
T2C0.0394
T3C0.0472
%
G90
G05
T1
X2.5134Y-1.9587
X2.6134Y-1.8996
X2.6181Y-1.3287
X2.7559Y-1.5157
X2.7559Y-1.6732
X2.7756Y-2.3425
X2.7953Y-1.6732
X2.9429Y-1.7323
X2.9528Y-2.2441
X2.9724Y-1.3287
X2.9823Y-1.9882
X3.0118Y-1.4173
X3.0906Y-1.3386
X3.1004Y-1.2303
X3.1004Y-1.6929
X3.1004Y-2.2047
T2
X3.1941Y-1.2795
X3.2941Y-1.2795
X3.3941Y-1.2795
X3.4941Y-1.2795
T3
X2.5134Y-1.3589
X2.5134Y-1.4581
X2.5134Y-1.5589
X2.5157Y-2.0411
X2.5157Y-2.1419
X2.5157Y-2.2411
X2.6134Y-1.4089
X2.6134Y-1.5089
X2.6134Y-1.6089
X2.6157Y-1.9911
X2.6157Y-2.0911
X2.6157Y-2.1911
X2.9626Y-1.6634
X2.9626Y-2.1752
X3.061Y-1.565
X3.061Y-1.7618
X3.061Y-2.0768
X3.061Y-2.2736
X3.1594Y-1.565
X3.1594Y-1.7618
X3.1594Y-2.0768
X3.1594Y-2.2736
X3.2579Y-1.565
X3.2579Y-1.7618
X3.2579Y-2.0768
X3.2579Y-2.2736
X3.3563Y-1.6634
X3.3563Y-2.1752
T0
M30
