%TF.GenerationSoftware,KiCad,Pcbnew,(5.1.9-0-10_14)*%
%TF.CreationDate,2021-07-01T16:45:12-07:00*%
%TF.ProjectId,vantroller_v5_display,76616e74-726f-46c6-9c65-725f76355f64,rev?*%
%TF.SameCoordinates,Original*%
%TF.FileFunction,Soldermask,Top*%
%TF.FilePolarity,Negative*%
%FSLAX46Y46*%
G04 Gerber Fmt 4.6, Leading zero omitted, Abs format (unit mm)*
G04 Created by KiCad (PCBNEW (5.1.9-0-10_14)) date 2021-07-01 16:45:12*
%MOMM*%
%LPD*%
G01*
G04 APERTURE LIST*
%ADD10O,1.400000X0.449999*%
%ADD11C,1.600000*%
%ADD12R,1.600000X1.600000*%
%ADD13O,1.700000X1.700000*%
%ADD14R,1.700000X1.700000*%
%ADD15C,1.700000*%
G04 APERTURE END LIST*
D10*
%TO.C,U1*%
X76950002Y-34700001D03*
X76950002Y-34050000D03*
X76950002Y-33400001D03*
X76950002Y-32750000D03*
X76950002Y-32100001D03*
X76950002Y-31450000D03*
X76950002Y-30800001D03*
X71050001Y-30800001D03*
X71050001Y-31450000D03*
X71050001Y-32100001D03*
X71050001Y-32750000D03*
X71050001Y-33400001D03*
X71050001Y-34050000D03*
X71050001Y-34700001D03*
%TD*%
D11*
%TO.C,S2*%
X82750000Y-52750000D03*
X80250000Y-52750000D03*
X77750000Y-52750000D03*
X82750000Y-57750000D03*
X80250000Y-57750000D03*
X77750000Y-57750000D03*
D12*
X85250000Y-55250000D03*
D11*
X75250000Y-55250000D03*
%TD*%
%TO.C,S1*%
X82750000Y-39750000D03*
X80250000Y-39750000D03*
X77750000Y-39750000D03*
X82750000Y-44750000D03*
X80250000Y-44750000D03*
X77750000Y-44750000D03*
D12*
X85250000Y-42250000D03*
D11*
X75250000Y-42250000D03*
%TD*%
%TO.C,R6*%
G36*
G01*
X72435000Y-54760000D02*
X72065000Y-54760000D01*
G75*
G02*
X71930000Y-54625000I0J135000D01*
G01*
X71930000Y-54355000D01*
G75*
G02*
X72065000Y-54220000I135000J0D01*
G01*
X72435000Y-54220000D01*
G75*
G02*
X72570000Y-54355000I0J-135000D01*
G01*
X72570000Y-54625000D01*
G75*
G02*
X72435000Y-54760000I-135000J0D01*
G01*
G37*
G36*
G01*
X72435000Y-55780000D02*
X72065000Y-55780000D01*
G75*
G02*
X71930000Y-55645000I0J135000D01*
G01*
X71930000Y-55375000D01*
G75*
G02*
X72065000Y-55240000I135000J0D01*
G01*
X72435000Y-55240000D01*
G75*
G02*
X72570000Y-55375000I0J-135000D01*
G01*
X72570000Y-55645000D01*
G75*
G02*
X72435000Y-55780000I-135000J0D01*
G01*
G37*
%TD*%
%TO.C,R5*%
G36*
G01*
X73315000Y-55740000D02*
X73685000Y-55740000D01*
G75*
G02*
X73820000Y-55875000I0J-135000D01*
G01*
X73820000Y-56145000D01*
G75*
G02*
X73685000Y-56280000I-135000J0D01*
G01*
X73315000Y-56280000D01*
G75*
G02*
X73180000Y-56145000I0J135000D01*
G01*
X73180000Y-55875000D01*
G75*
G02*
X73315000Y-55740000I135000J0D01*
G01*
G37*
G36*
G01*
X73315000Y-54720000D02*
X73685000Y-54720000D01*
G75*
G02*
X73820000Y-54855000I0J-135000D01*
G01*
X73820000Y-55125000D01*
G75*
G02*
X73685000Y-55260000I-135000J0D01*
G01*
X73315000Y-55260000D01*
G75*
G02*
X73180000Y-55125000I0J135000D01*
G01*
X73180000Y-54855000D01*
G75*
G02*
X73315000Y-54720000I135000J0D01*
G01*
G37*
%TD*%
%TO.C,R4*%
G36*
G01*
X72124999Y-52400000D02*
X73375001Y-52400000D01*
G75*
G02*
X73625000Y-52649999I0J-249999D01*
G01*
X73625000Y-53275001D01*
G75*
G02*
X73375001Y-53525000I-249999J0D01*
G01*
X72124999Y-53525000D01*
G75*
G02*
X71875000Y-53275001I0J249999D01*
G01*
X71875000Y-52649999D01*
G75*
G02*
X72124999Y-52400000I249999J0D01*
G01*
G37*
G36*
G01*
X72124999Y-49475000D02*
X73375001Y-49475000D01*
G75*
G02*
X73625000Y-49724999I0J-249999D01*
G01*
X73625000Y-50350001D01*
G75*
G02*
X73375001Y-50600000I-249999J0D01*
G01*
X72124999Y-50600000D01*
G75*
G02*
X71875000Y-50350001I0J249999D01*
G01*
X71875000Y-49724999D01*
G75*
G02*
X72124999Y-49475000I249999J0D01*
G01*
G37*
%TD*%
%TO.C,R3*%
G36*
G01*
X72435000Y-41760000D02*
X72065000Y-41760000D01*
G75*
G02*
X71930000Y-41625000I0J135000D01*
G01*
X71930000Y-41355000D01*
G75*
G02*
X72065000Y-41220000I135000J0D01*
G01*
X72435000Y-41220000D01*
G75*
G02*
X72570000Y-41355000I0J-135000D01*
G01*
X72570000Y-41625000D01*
G75*
G02*
X72435000Y-41760000I-135000J0D01*
G01*
G37*
G36*
G01*
X72435000Y-42780000D02*
X72065000Y-42780000D01*
G75*
G02*
X71930000Y-42645000I0J135000D01*
G01*
X71930000Y-42375000D01*
G75*
G02*
X72065000Y-42240000I135000J0D01*
G01*
X72435000Y-42240000D01*
G75*
G02*
X72570000Y-42375000I0J-135000D01*
G01*
X72570000Y-42645000D01*
G75*
G02*
X72435000Y-42780000I-135000J0D01*
G01*
G37*
%TD*%
%TO.C,R2*%
G36*
G01*
X73315000Y-42740000D02*
X73685000Y-42740000D01*
G75*
G02*
X73820000Y-42875000I0J-135000D01*
G01*
X73820000Y-43145000D01*
G75*
G02*
X73685000Y-43280000I-135000J0D01*
G01*
X73315000Y-43280000D01*
G75*
G02*
X73180000Y-43145000I0J135000D01*
G01*
X73180000Y-42875000D01*
G75*
G02*
X73315000Y-42740000I135000J0D01*
G01*
G37*
G36*
G01*
X73315000Y-41720000D02*
X73685000Y-41720000D01*
G75*
G02*
X73820000Y-41855000I0J-135000D01*
G01*
X73820000Y-42125000D01*
G75*
G02*
X73685000Y-42260000I-135000J0D01*
G01*
X73315000Y-42260000D01*
G75*
G02*
X73180000Y-42125000I0J135000D01*
G01*
X73180000Y-41855000D01*
G75*
G02*
X73315000Y-41720000I135000J0D01*
G01*
G37*
%TD*%
%TO.C,R1*%
G36*
G01*
X72124999Y-39400000D02*
X73375001Y-39400000D01*
G75*
G02*
X73625000Y-39649999I0J-249999D01*
G01*
X73625000Y-40275001D01*
G75*
G02*
X73375001Y-40525000I-249999J0D01*
G01*
X72124999Y-40525000D01*
G75*
G02*
X71875000Y-40275001I0J249999D01*
G01*
X71875000Y-39649999D01*
G75*
G02*
X72124999Y-39400000I249999J0D01*
G01*
G37*
G36*
G01*
X72124999Y-36475000D02*
X73375001Y-36475000D01*
G75*
G02*
X73625000Y-36724999I0J-249999D01*
G01*
X73625000Y-37350001D01*
G75*
G02*
X73375001Y-37600000I-249999J0D01*
G01*
X72124999Y-37600000D01*
G75*
G02*
X71875000Y-37350001I0J249999D01*
G01*
X71875000Y-36724999D01*
G75*
G02*
X72124999Y-36475000I249999J0D01*
G01*
G37*
%TD*%
D13*
%TO.C,J3*%
X81130000Y-32500000D03*
X83670000Y-32500000D03*
X86210000Y-32500000D03*
D14*
X88750000Y-32500000D03*
%TD*%
D15*
%TO.C,J2*%
X66440000Y-50575000D03*
X66440000Y-53115000D03*
X66440000Y-55655000D03*
X63900000Y-51845000D03*
X63900000Y-54405000D03*
X63900000Y-56925000D03*
%TD*%
%TO.C,J1*%
X66379999Y-40864999D03*
X66379999Y-38324999D03*
X66379999Y-35784999D03*
X63839999Y-39594999D03*
X63839999Y-37034999D03*
X63839999Y-34514999D03*
%TD*%
%TO.C,C2*%
G36*
G01*
X73500000Y-57925000D02*
X73000000Y-57925000D01*
G75*
G02*
X72775000Y-57700000I0J225000D01*
G01*
X72775000Y-57250000D01*
G75*
G02*
X73000000Y-57025000I225000J0D01*
G01*
X73500000Y-57025000D01*
G75*
G02*
X73725000Y-57250000I0J-225000D01*
G01*
X73725000Y-57700000D01*
G75*
G02*
X73500000Y-57925000I-225000J0D01*
G01*
G37*
G36*
G01*
X73500000Y-59475000D02*
X73000000Y-59475000D01*
G75*
G02*
X72775000Y-59250000I0J225000D01*
G01*
X72775000Y-58800000D01*
G75*
G02*
X73000000Y-58575000I225000J0D01*
G01*
X73500000Y-58575000D01*
G75*
G02*
X73725000Y-58800000I0J-225000D01*
G01*
X73725000Y-59250000D01*
G75*
G02*
X73500000Y-59475000I-225000J0D01*
G01*
G37*
%TD*%
%TO.C,C1*%
G36*
G01*
X73500000Y-44925000D02*
X73000000Y-44925000D01*
G75*
G02*
X72775000Y-44700000I0J225000D01*
G01*
X72775000Y-44250000D01*
G75*
G02*
X73000000Y-44025000I225000J0D01*
G01*
X73500000Y-44025000D01*
G75*
G02*
X73725000Y-44250000I0J-225000D01*
G01*
X73725000Y-44700000D01*
G75*
G02*
X73500000Y-44925000I-225000J0D01*
G01*
G37*
G36*
G01*
X73500000Y-46475000D02*
X73000000Y-46475000D01*
G75*
G02*
X72775000Y-46250000I0J225000D01*
G01*
X72775000Y-45800000D01*
G75*
G02*
X73000000Y-45575000I225000J0D01*
G01*
X73500000Y-45575000D01*
G75*
G02*
X73725000Y-45800000I0J-225000D01*
G01*
X73725000Y-46250000D01*
G75*
G02*
X73500000Y-46475000I-225000J0D01*
G01*
G37*
%TD*%
M02*
