M48
; DRILL file {KiCad (5.1.9-0-10_14)} date Thursday, April 08, 2021 at 11:44:38 AM
; FORMAT={-:-/ absolute / inch / decimal}
; #@! TF.CreationDate,2021-04-08T11:44:38-07:00
; #@! TF.GenerationSoftware,Kicad,Pcbnew,(5.1.9-0-10_14)
FMAT,2
INCH
T1C0.0157
T2C0.0236
T3C0.0394
T4C0.0510
T5C0.0512
T6C0.0701
%
G90
G05
T1
X4.6063Y-3.811
X4.6457Y-3.8268
X4.6457Y-4.3386
X4.6457Y-4.6693
X4.6535Y-4.5512
X4.6614Y-4.126
X4.6772Y-2.811
X4.6772Y-4.063
X4.6772Y-4.1654
X4.7087Y-4.2677
X4.7087Y-4.5591
X4.7165Y-4.0945
X4.7874Y-4.4803
X4.7953Y-3.0551
X4.8031Y-2.685
X4.811Y-4.5512
X4.8268Y-3.8976
X4.8346Y-2.9055
X4.8661Y-3.1732
X4.8976Y-3.4724
X4.8976Y-4.4252
X4.9134Y-4.3465
X4.9213Y-4.2992
X4.9291Y-3.6693
X4.937Y-4.252
X4.9528Y-3.0315
X4.9606Y-3.8661
X4.9606Y-4.0866
X4.9606Y-4.5197
X4.9606Y-4.6457
X5.1417Y-2.6693
X5.1654Y-4.1732
X5.1732Y-2.7008
X5.2205Y-4.1732
X5.2756Y-4.6142
X5.3228Y-4.2126
X5.4173Y-3.8268
X5.4331Y-2.6772
X5.4567Y-3.7717
X5.4567Y-4.2126
X5.5039Y-3.378
X5.5433Y-2.6299
X5.6063Y-3.3228
X5.6142Y-2.685
X5.6142Y-3.8346
X5.6693Y-4.2835
X5.7165Y-4.3307
X5.7244Y-4.2756
X5.7874Y-3.378
X5.7953Y-3.3228
X5.8819Y-3.5039
X5.8819Y-3.6063
X5.8819Y-3.7087
X5.8898Y-2.9528
X5.8898Y-3.8268
X6.0039Y-2.6575
X6.0236Y-2.5197
X6.2795Y-2.3819
X6.2835Y-3.4882
X6.3307Y-3.6457
X6.3386Y-3.8268
X6.5197Y-3.4724
X6.5945Y-2.6378
X6.622Y-3.8268
X6.6378Y-2.9055
X6.6693Y-3.9606
X6.7087Y-3.9843
X7.126Y-2.5197
X7.2244Y-2.5591
X7.2244Y-2.6772
X7.2756Y-3.6378
X7.2756Y-3.7874
X7.3228Y-3.4803
T2
X4.7087Y-2.4488
X4.8071Y-2.3504
X4.8071Y-2.5472
X4.9055Y-2.3504
X4.9055Y-2.5472
X5.0039Y-2.3504
X5.0039Y-2.5472
X5.1024Y-2.4488
X5.6142Y-2.4567
X5.7126Y-2.3583
X5.7126Y-2.5551
X5.811Y-2.3583
X5.811Y-2.5551
X5.9094Y-2.3583
X5.9094Y-2.5551
X6.0079Y-2.4567
X6.5118Y-2.4488
X6.6102Y-2.3504
X6.6102Y-2.5472
X6.7087Y-2.3504
X6.7087Y-2.5472
X6.8071Y-2.3504
X6.8071Y-2.5472
X6.9055Y-2.4488
T3
X5.0709Y-4.3882
X5.0709Y-4.4882
X5.1709Y-4.3882
X5.1709Y-4.4882
X5.2709Y-4.3882
X5.2709Y-4.4882
X5.3709Y-4.3882
X5.3709Y-4.4882
X5.4709Y-4.3882
X5.4709Y-4.4882
X5.5709Y-4.3882
X5.5709Y-4.4882
X5.6709Y-4.3882
X5.6709Y-4.4882
X5.7709Y-4.3882
X5.7709Y-4.4882
X5.8709Y-4.3882
X5.8709Y-4.4882
X5.9709Y-4.3882
X5.9709Y-4.4882
X6.0709Y-4.3882
X6.0709Y-4.4882
X6.1709Y-4.3882
X6.1709Y-4.4882
X7.4772Y-2.7362
X7.5772Y-2.7362
X7.6772Y-2.7362
T4
X6.9055Y-4.3071
X7.1024Y-4.3071
X7.2992Y-4.3071
X7.4961Y-4.3071
X7.6772Y-3.4638
X7.6772Y-3.8386
X7.6929Y-4.3071
X7.8898Y-4.3071
T5
X4.7638Y-2.9646
X4.7638Y-3.5551
X4.7638Y-3.752
X4.7638Y-3.9488
X4.9114Y-2.9646
X5.0591Y-2.9646
X5.0591Y-3.5551
X5.0591Y-3.752
X5.0591Y-3.9488
X5.6693Y-2.9646
X5.6693Y-3.5551
X5.6693Y-3.752
X5.6693Y-3.9488
X5.8169Y-2.9646
X5.9646Y-2.9646
X5.9646Y-3.5551
X5.9646Y-3.752
X5.9646Y-3.9488
X6.5748Y-2.9646
X6.5748Y-3.5551
X6.5748Y-3.752
X6.5748Y-3.9488
X6.7224Y-2.9646
X6.8701Y-2.9646
X6.8701Y-3.5551
X6.8701Y-3.752
X6.8701Y-3.9488
T6
X5.2598Y-2.9921
X5.2598Y-3.3827
X5.3937Y-2.9921
X5.3937Y-3.3827
X6.1654Y-2.9921
X6.1654Y-3.3827
X6.2992Y-2.9921
X6.2992Y-3.3827
X7.0709Y-2.9921
X7.0709Y-3.3827
X7.2047Y-2.9921
X7.2047Y-3.3827
X7.4835Y-3.0354
X7.4835Y-3.1693
X7.874Y-3.0354
X7.874Y-3.1693
T0
M30
