%TF.GenerationSoftware,KiCad,Pcbnew,(5.1.9-0-10_14)*%
%TF.CreationDate,2021-04-22T23:32:40-07:00*%
%TF.ProjectId,thundipiswitch2,7468756e-6469-4706-9973-776974636832,rev?*%
%TF.SameCoordinates,Original*%
%TF.FileFunction,Paste,Top*%
%TF.FilePolarity,Positive*%
%FSLAX46Y46*%
G04 Gerber Fmt 4.6, Leading zero omitted, Abs format (unit mm)*
G04 Created by KiCad (PCBNEW (5.1.9-0-10_14)) date 2021-04-22 23:32:40*
%MOMM*%
%LPD*%
G01*
G04 APERTURE LIST*
%ADD10R,3.300000X1.400000*%
%ADD11R,0.800000X0.900000*%
%ADD12R,2.500000X1.800000*%
G04 APERTURE END LIST*
%TO.C,R28*%
G36*
G01*
X143000000Y-107625001D02*
X143000000Y-106374999D01*
G75*
G02*
X143249999Y-106125000I249999J0D01*
G01*
X143875001Y-106125000D01*
G75*
G02*
X144125000Y-106374999I0J-249999D01*
G01*
X144125000Y-107625001D01*
G75*
G02*
X143875001Y-107875000I-249999J0D01*
G01*
X143249999Y-107875000D01*
G75*
G02*
X143000000Y-107625001I0J249999D01*
G01*
G37*
G36*
G01*
X140075000Y-107625001D02*
X140075000Y-106374999D01*
G75*
G02*
X140324999Y-106125000I249999J0D01*
G01*
X140950001Y-106125000D01*
G75*
G02*
X141200000Y-106374999I0J-249999D01*
G01*
X141200000Y-107625001D01*
G75*
G02*
X140950001Y-107875000I-249999J0D01*
G01*
X140324999Y-107875000D01*
G75*
G02*
X140075000Y-107625001I0J249999D01*
G01*
G37*
%TD*%
%TO.C,R27*%
G36*
G01*
X149674999Y-106500000D02*
X150925001Y-106500000D01*
G75*
G02*
X151175000Y-106749999I0J-249999D01*
G01*
X151175000Y-107375001D01*
G75*
G02*
X150925001Y-107625000I-249999J0D01*
G01*
X149674999Y-107625000D01*
G75*
G02*
X149425000Y-107375001I0J249999D01*
G01*
X149425000Y-106749999D01*
G75*
G02*
X149674999Y-106500000I249999J0D01*
G01*
G37*
G36*
G01*
X149674999Y-103575000D02*
X150925001Y-103575000D01*
G75*
G02*
X151175000Y-103824999I0J-249999D01*
G01*
X151175000Y-104450001D01*
G75*
G02*
X150925001Y-104700000I-249999J0D01*
G01*
X149674999Y-104700000D01*
G75*
G02*
X149425000Y-104450001I0J249999D01*
G01*
X149425000Y-103824999D01*
G75*
G02*
X149674999Y-103575000I249999J0D01*
G01*
G37*
%TD*%
%TO.C,R26*%
G36*
G01*
X154674999Y-107600000D02*
X155925001Y-107600000D01*
G75*
G02*
X156175000Y-107849999I0J-249999D01*
G01*
X156175000Y-108475001D01*
G75*
G02*
X155925001Y-108725000I-249999J0D01*
G01*
X154674999Y-108725000D01*
G75*
G02*
X154425000Y-108475001I0J249999D01*
G01*
X154425000Y-107849999D01*
G75*
G02*
X154674999Y-107600000I249999J0D01*
G01*
G37*
G36*
G01*
X154674999Y-104675000D02*
X155925001Y-104675000D01*
G75*
G02*
X156175000Y-104924999I0J-249999D01*
G01*
X156175000Y-105550001D01*
G75*
G02*
X155925001Y-105800000I-249999J0D01*
G01*
X154674999Y-105800000D01*
G75*
G02*
X154425000Y-105550001I0J249999D01*
G01*
X154425000Y-104924999D01*
G75*
G02*
X154674999Y-104675000I249999J0D01*
G01*
G37*
%TD*%
%TO.C,R25*%
G36*
G01*
X158425001Y-105800000D02*
X157174999Y-105800000D01*
G75*
G02*
X156925000Y-105550001I0J249999D01*
G01*
X156925000Y-104924999D01*
G75*
G02*
X157174999Y-104675000I249999J0D01*
G01*
X158425001Y-104675000D01*
G75*
G02*
X158675000Y-104924999I0J-249999D01*
G01*
X158675000Y-105550001D01*
G75*
G02*
X158425001Y-105800000I-249999J0D01*
G01*
G37*
G36*
G01*
X158425001Y-108725000D02*
X157174999Y-108725000D01*
G75*
G02*
X156925000Y-108475001I0J249999D01*
G01*
X156925000Y-107849999D01*
G75*
G02*
X157174999Y-107600000I249999J0D01*
G01*
X158425001Y-107600000D01*
G75*
G02*
X158675000Y-107849999I0J-249999D01*
G01*
X158675000Y-108475001D01*
G75*
G02*
X158425001Y-108725000I-249999J0D01*
G01*
G37*
%TD*%
%TO.C,R24*%
G36*
G01*
X153425001Y-104700000D02*
X152174999Y-104700000D01*
G75*
G02*
X151925000Y-104450001I0J249999D01*
G01*
X151925000Y-103824999D01*
G75*
G02*
X152174999Y-103575000I249999J0D01*
G01*
X153425001Y-103575000D01*
G75*
G02*
X153675000Y-103824999I0J-249999D01*
G01*
X153675000Y-104450001D01*
G75*
G02*
X153425001Y-104700000I-249999J0D01*
G01*
G37*
G36*
G01*
X153425001Y-107625000D02*
X152174999Y-107625000D01*
G75*
G02*
X151925000Y-107375001I0J249999D01*
G01*
X151925000Y-106749999D01*
G75*
G02*
X152174999Y-106500000I249999J0D01*
G01*
X153425001Y-106500000D01*
G75*
G02*
X153675000Y-106749999I0J-249999D01*
G01*
X153675000Y-107375001D01*
G75*
G02*
X153425001Y-107625000I-249999J0D01*
G01*
G37*
%TD*%
%TO.C,R23*%
G36*
G01*
X148425001Y-104700000D02*
X147174999Y-104700000D01*
G75*
G02*
X146925000Y-104450001I0J249999D01*
G01*
X146925000Y-103824999D01*
G75*
G02*
X147174999Y-103575000I249999J0D01*
G01*
X148425001Y-103575000D01*
G75*
G02*
X148675000Y-103824999I0J-249999D01*
G01*
X148675000Y-104450001D01*
G75*
G02*
X148425001Y-104700000I-249999J0D01*
G01*
G37*
G36*
G01*
X148425001Y-107625000D02*
X147174999Y-107625000D01*
G75*
G02*
X146925000Y-107375001I0J249999D01*
G01*
X146925000Y-106749999D01*
G75*
G02*
X147174999Y-106500000I249999J0D01*
G01*
X148425001Y-106500000D01*
G75*
G02*
X148675000Y-106749999I0J-249999D01*
G01*
X148675000Y-107375001D01*
G75*
G02*
X148425001Y-107625000I-249999J0D01*
G01*
G37*
%TD*%
D10*
%TO.C,R3*%
X179850000Y-94300000D03*
X179850000Y-90700000D03*
X184150000Y-94300000D03*
X184150000Y-90700000D03*
%TD*%
%TO.C,R2*%
X156850000Y-94300000D03*
X156850000Y-90700000D03*
X161150000Y-94300000D03*
X161150000Y-90700000D03*
%TD*%
%TO.C,R1*%
X133850000Y-94300000D03*
X133850000Y-90700000D03*
X138150000Y-94300000D03*
X138150000Y-90700000D03*
%TD*%
%TO.C,C1*%
G36*
G01*
X118430000Y-107400000D02*
X118770000Y-107400000D01*
G75*
G02*
X118910000Y-107540000I0J-140000D01*
G01*
X118910000Y-107820000D01*
G75*
G02*
X118770000Y-107960000I-140000J0D01*
G01*
X118430000Y-107960000D01*
G75*
G02*
X118290000Y-107820000I0J140000D01*
G01*
X118290000Y-107540000D01*
G75*
G02*
X118430000Y-107400000I140000J0D01*
G01*
G37*
G36*
G01*
X118430000Y-106440000D02*
X118770000Y-106440000D01*
G75*
G02*
X118910000Y-106580000I0J-140000D01*
G01*
X118910000Y-106860000D01*
G75*
G02*
X118770000Y-107000000I-140000J0D01*
G01*
X118430000Y-107000000D01*
G75*
G02*
X118290000Y-106860000I0J140000D01*
G01*
X118290000Y-106580000D01*
G75*
G02*
X118430000Y-106440000I140000J0D01*
G01*
G37*
%TD*%
%TO.C,U2*%
G36*
G01*
X122100000Y-107137500D02*
X122100000Y-106712500D01*
G75*
G02*
X122312500Y-106500000I212500J0D01*
G01*
X122737500Y-106500000D01*
G75*
G02*
X122950000Y-106712500I0J-212500D01*
G01*
X122950000Y-107137500D01*
G75*
G02*
X122737500Y-107350000I-212500J0D01*
G01*
X122312500Y-107350000D01*
G75*
G02*
X122100000Y-107137500I0J212500D01*
G01*
G37*
G36*
G01*
X122100000Y-106087500D02*
X122100000Y-105662500D01*
G75*
G02*
X122312500Y-105450000I212500J0D01*
G01*
X122737500Y-105450000D01*
G75*
G02*
X122950000Y-105662500I0J-212500D01*
G01*
X122950000Y-106087500D01*
G75*
G02*
X122737500Y-106300000I-212500J0D01*
G01*
X122312500Y-106300000D01*
G75*
G02*
X122100000Y-106087500I0J212500D01*
G01*
G37*
G36*
G01*
X121050000Y-107137500D02*
X121050000Y-106712500D01*
G75*
G02*
X121262500Y-106500000I212500J0D01*
G01*
X121687500Y-106500000D01*
G75*
G02*
X121900000Y-106712500I0J-212500D01*
G01*
X121900000Y-107137500D01*
G75*
G02*
X121687500Y-107350000I-212500J0D01*
G01*
X121262500Y-107350000D01*
G75*
G02*
X121050000Y-107137500I0J212500D01*
G01*
G37*
G36*
G01*
X121050000Y-106087500D02*
X121050000Y-105662500D01*
G75*
G02*
X121262500Y-105450000I212500J0D01*
G01*
X121687500Y-105450000D01*
G75*
G02*
X121900000Y-105662500I0J-212500D01*
G01*
X121900000Y-106087500D01*
G75*
G02*
X121687500Y-106300000I-212500J0D01*
G01*
X121262500Y-106300000D01*
G75*
G02*
X121050000Y-106087500I0J212500D01*
G01*
G37*
G36*
G01*
X120850000Y-104962500D02*
X120850000Y-104112500D01*
G75*
G02*
X120937500Y-104025000I87500J0D01*
G01*
X121112500Y-104025000D01*
G75*
G02*
X121200000Y-104112500I0J-87500D01*
G01*
X121200000Y-104962500D01*
G75*
G02*
X121112500Y-105050000I-87500J0D01*
G01*
X120937500Y-105050000D01*
G75*
G02*
X120850000Y-104962500I0J87500D01*
G01*
G37*
G36*
G01*
X121500000Y-104962500D02*
X121500000Y-104112500D01*
G75*
G02*
X121587500Y-104025000I87500J0D01*
G01*
X121762500Y-104025000D01*
G75*
G02*
X121850000Y-104112500I0J-87500D01*
G01*
X121850000Y-104962500D01*
G75*
G02*
X121762500Y-105050000I-87500J0D01*
G01*
X121587500Y-105050000D01*
G75*
G02*
X121500000Y-104962500I0J87500D01*
G01*
G37*
G36*
G01*
X122150000Y-104962500D02*
X122150000Y-104112500D01*
G75*
G02*
X122237500Y-104025000I87500J0D01*
G01*
X122412500Y-104025000D01*
G75*
G02*
X122500000Y-104112500I0J-87500D01*
G01*
X122500000Y-104962500D01*
G75*
G02*
X122412500Y-105050000I-87500J0D01*
G01*
X122237500Y-105050000D01*
G75*
G02*
X122150000Y-104962500I0J87500D01*
G01*
G37*
G36*
G01*
X122800000Y-104962500D02*
X122800000Y-104112500D01*
G75*
G02*
X122887500Y-104025000I87500J0D01*
G01*
X123062500Y-104025000D01*
G75*
G02*
X123150000Y-104112500I0J-87500D01*
G01*
X123150000Y-104962500D01*
G75*
G02*
X123062500Y-105050000I-87500J0D01*
G01*
X122887500Y-105050000D01*
G75*
G02*
X122800000Y-104962500I0J87500D01*
G01*
G37*
G36*
G01*
X123350000Y-105512500D02*
X123350000Y-105337500D01*
G75*
G02*
X123437500Y-105250000I87500J0D01*
G01*
X124287500Y-105250000D01*
G75*
G02*
X124375000Y-105337500I0J-87500D01*
G01*
X124375000Y-105512500D01*
G75*
G02*
X124287500Y-105600000I-87500J0D01*
G01*
X123437500Y-105600000D01*
G75*
G02*
X123350000Y-105512500I0J87500D01*
G01*
G37*
G36*
G01*
X123350000Y-106162500D02*
X123350000Y-105987500D01*
G75*
G02*
X123437500Y-105900000I87500J0D01*
G01*
X124287500Y-105900000D01*
G75*
G02*
X124375000Y-105987500I0J-87500D01*
G01*
X124375000Y-106162500D01*
G75*
G02*
X124287500Y-106250000I-87500J0D01*
G01*
X123437500Y-106250000D01*
G75*
G02*
X123350000Y-106162500I0J87500D01*
G01*
G37*
G36*
G01*
X123350000Y-106812500D02*
X123350000Y-106637500D01*
G75*
G02*
X123437500Y-106550000I87500J0D01*
G01*
X124287500Y-106550000D01*
G75*
G02*
X124375000Y-106637500I0J-87500D01*
G01*
X124375000Y-106812500D01*
G75*
G02*
X124287500Y-106900000I-87500J0D01*
G01*
X123437500Y-106900000D01*
G75*
G02*
X123350000Y-106812500I0J87500D01*
G01*
G37*
G36*
G01*
X123350000Y-107462500D02*
X123350000Y-107287500D01*
G75*
G02*
X123437500Y-107200000I87500J0D01*
G01*
X124287500Y-107200000D01*
G75*
G02*
X124375000Y-107287500I0J-87500D01*
G01*
X124375000Y-107462500D01*
G75*
G02*
X124287500Y-107550000I-87500J0D01*
G01*
X123437500Y-107550000D01*
G75*
G02*
X123350000Y-107462500I0J87500D01*
G01*
G37*
G36*
G01*
X122800000Y-108687500D02*
X122800000Y-107837500D01*
G75*
G02*
X122887500Y-107750000I87500J0D01*
G01*
X123062500Y-107750000D01*
G75*
G02*
X123150000Y-107837500I0J-87500D01*
G01*
X123150000Y-108687500D01*
G75*
G02*
X123062500Y-108775000I-87500J0D01*
G01*
X122887500Y-108775000D01*
G75*
G02*
X122800000Y-108687500I0J87500D01*
G01*
G37*
G36*
G01*
X122150000Y-108687500D02*
X122150000Y-107837500D01*
G75*
G02*
X122237500Y-107750000I87500J0D01*
G01*
X122412500Y-107750000D01*
G75*
G02*
X122500000Y-107837500I0J-87500D01*
G01*
X122500000Y-108687500D01*
G75*
G02*
X122412500Y-108775000I-87500J0D01*
G01*
X122237500Y-108775000D01*
G75*
G02*
X122150000Y-108687500I0J87500D01*
G01*
G37*
G36*
G01*
X121500000Y-108687500D02*
X121500000Y-107837500D01*
G75*
G02*
X121587500Y-107750000I87500J0D01*
G01*
X121762500Y-107750000D01*
G75*
G02*
X121850000Y-107837500I0J-87500D01*
G01*
X121850000Y-108687500D01*
G75*
G02*
X121762500Y-108775000I-87500J0D01*
G01*
X121587500Y-108775000D01*
G75*
G02*
X121500000Y-108687500I0J87500D01*
G01*
G37*
G36*
G01*
X120850000Y-108687500D02*
X120850000Y-107837500D01*
G75*
G02*
X120937500Y-107750000I87500J0D01*
G01*
X121112500Y-107750000D01*
G75*
G02*
X121200000Y-107837500I0J-87500D01*
G01*
X121200000Y-108687500D01*
G75*
G02*
X121112500Y-108775000I-87500J0D01*
G01*
X120937500Y-108775000D01*
G75*
G02*
X120850000Y-108687500I0J87500D01*
G01*
G37*
G36*
G01*
X119625000Y-107462500D02*
X119625000Y-107287500D01*
G75*
G02*
X119712500Y-107200000I87500J0D01*
G01*
X120562500Y-107200000D01*
G75*
G02*
X120650000Y-107287500I0J-87500D01*
G01*
X120650000Y-107462500D01*
G75*
G02*
X120562500Y-107550000I-87500J0D01*
G01*
X119712500Y-107550000D01*
G75*
G02*
X119625000Y-107462500I0J87500D01*
G01*
G37*
G36*
G01*
X119625000Y-106812500D02*
X119625000Y-106637500D01*
G75*
G02*
X119712500Y-106550000I87500J0D01*
G01*
X120562500Y-106550000D01*
G75*
G02*
X120650000Y-106637500I0J-87500D01*
G01*
X120650000Y-106812500D01*
G75*
G02*
X120562500Y-106900000I-87500J0D01*
G01*
X119712500Y-106900000D01*
G75*
G02*
X119625000Y-106812500I0J87500D01*
G01*
G37*
G36*
G01*
X119625000Y-106162500D02*
X119625000Y-105987500D01*
G75*
G02*
X119712500Y-105900000I87500J0D01*
G01*
X120562500Y-105900000D01*
G75*
G02*
X120650000Y-105987500I0J-87500D01*
G01*
X120650000Y-106162500D01*
G75*
G02*
X120562500Y-106250000I-87500J0D01*
G01*
X119712500Y-106250000D01*
G75*
G02*
X119625000Y-106162500I0J87500D01*
G01*
G37*
G36*
G01*
X119625000Y-105512500D02*
X119625000Y-105337500D01*
G75*
G02*
X119712500Y-105250000I87500J0D01*
G01*
X120562500Y-105250000D01*
G75*
G02*
X120650000Y-105337500I0J-87500D01*
G01*
X120650000Y-105512500D01*
G75*
G02*
X120562500Y-105600000I-87500J0D01*
G01*
X119712500Y-105600000D01*
G75*
G02*
X119625000Y-105512500I0J87500D01*
G01*
G37*
%TD*%
%TO.C,R22*%
G36*
G01*
X183100000Y-100374999D02*
X183100000Y-101625001D01*
G75*
G02*
X182850001Y-101875000I-249999J0D01*
G01*
X182224999Y-101875000D01*
G75*
G02*
X181975000Y-101625001I0J249999D01*
G01*
X181975000Y-100374999D01*
G75*
G02*
X182224999Y-100125000I249999J0D01*
G01*
X182850001Y-100125000D01*
G75*
G02*
X183100000Y-100374999I0J-249999D01*
G01*
G37*
G36*
G01*
X186025000Y-100374999D02*
X186025000Y-101625001D01*
G75*
G02*
X185775001Y-101875000I-249999J0D01*
G01*
X185149999Y-101875000D01*
G75*
G02*
X184900000Y-101625001I0J249999D01*
G01*
X184900000Y-100374999D01*
G75*
G02*
X185149999Y-100125000I249999J0D01*
G01*
X185775001Y-100125000D01*
G75*
G02*
X186025000Y-100374999I0J-249999D01*
G01*
G37*
%TD*%
%TO.C,R21*%
G36*
G01*
X183100000Y-97874999D02*
X183100000Y-99125001D01*
G75*
G02*
X182850001Y-99375000I-249999J0D01*
G01*
X182224999Y-99375000D01*
G75*
G02*
X181975000Y-99125001I0J249999D01*
G01*
X181975000Y-97874999D01*
G75*
G02*
X182224999Y-97625000I249999J0D01*
G01*
X182850001Y-97625000D01*
G75*
G02*
X183100000Y-97874999I0J-249999D01*
G01*
G37*
G36*
G01*
X186025000Y-97874999D02*
X186025000Y-99125001D01*
G75*
G02*
X185775001Y-99375000I-249999J0D01*
G01*
X185149999Y-99375000D01*
G75*
G02*
X184900000Y-99125001I0J249999D01*
G01*
X184900000Y-97874999D01*
G75*
G02*
X185149999Y-97625000I249999J0D01*
G01*
X185775001Y-97625000D01*
G75*
G02*
X186025000Y-97874999I0J-249999D01*
G01*
G37*
%TD*%
%TO.C,R20*%
G36*
G01*
X160100000Y-100374999D02*
X160100000Y-101625001D01*
G75*
G02*
X159850001Y-101875000I-249999J0D01*
G01*
X159224999Y-101875000D01*
G75*
G02*
X158975000Y-101625001I0J249999D01*
G01*
X158975000Y-100374999D01*
G75*
G02*
X159224999Y-100125000I249999J0D01*
G01*
X159850001Y-100125000D01*
G75*
G02*
X160100000Y-100374999I0J-249999D01*
G01*
G37*
G36*
G01*
X163025000Y-100374999D02*
X163025000Y-101625001D01*
G75*
G02*
X162775001Y-101875000I-249999J0D01*
G01*
X162149999Y-101875000D01*
G75*
G02*
X161900000Y-101625001I0J249999D01*
G01*
X161900000Y-100374999D01*
G75*
G02*
X162149999Y-100125000I249999J0D01*
G01*
X162775001Y-100125000D01*
G75*
G02*
X163025000Y-100374999I0J-249999D01*
G01*
G37*
%TD*%
%TO.C,R19*%
G36*
G01*
X160100000Y-97874999D02*
X160100000Y-99125001D01*
G75*
G02*
X159850001Y-99375000I-249999J0D01*
G01*
X159224999Y-99375000D01*
G75*
G02*
X158975000Y-99125001I0J249999D01*
G01*
X158975000Y-97874999D01*
G75*
G02*
X159224999Y-97625000I249999J0D01*
G01*
X159850001Y-97625000D01*
G75*
G02*
X160100000Y-97874999I0J-249999D01*
G01*
G37*
G36*
G01*
X163025000Y-97874999D02*
X163025000Y-99125001D01*
G75*
G02*
X162775001Y-99375000I-249999J0D01*
G01*
X162149999Y-99375000D01*
G75*
G02*
X161900000Y-99125001I0J249999D01*
G01*
X161900000Y-97874999D01*
G75*
G02*
X162149999Y-97625000I249999J0D01*
G01*
X162775001Y-97625000D01*
G75*
G02*
X163025000Y-97874999I0J-249999D01*
G01*
G37*
%TD*%
%TO.C,R18*%
G36*
G01*
X137100000Y-100874999D02*
X137100000Y-102125001D01*
G75*
G02*
X136850001Y-102375000I-249999J0D01*
G01*
X136224999Y-102375000D01*
G75*
G02*
X135975000Y-102125001I0J249999D01*
G01*
X135975000Y-100874999D01*
G75*
G02*
X136224999Y-100625000I249999J0D01*
G01*
X136850001Y-100625000D01*
G75*
G02*
X137100000Y-100874999I0J-249999D01*
G01*
G37*
G36*
G01*
X140025000Y-100874999D02*
X140025000Y-102125001D01*
G75*
G02*
X139775001Y-102375000I-249999J0D01*
G01*
X139149999Y-102375000D01*
G75*
G02*
X138900000Y-102125001I0J249999D01*
G01*
X138900000Y-100874999D01*
G75*
G02*
X139149999Y-100625000I249999J0D01*
G01*
X139775001Y-100625000D01*
G75*
G02*
X140025000Y-100874999I0J-249999D01*
G01*
G37*
%TD*%
%TO.C,R17*%
G36*
G01*
X137100000Y-98374999D02*
X137100000Y-99625001D01*
G75*
G02*
X136850001Y-99875000I-249999J0D01*
G01*
X136224999Y-99875000D01*
G75*
G02*
X135975000Y-99625001I0J249999D01*
G01*
X135975000Y-98374999D01*
G75*
G02*
X136224999Y-98125000I249999J0D01*
G01*
X136850001Y-98125000D01*
G75*
G02*
X137100000Y-98374999I0J-249999D01*
G01*
G37*
G36*
G01*
X140025000Y-98374999D02*
X140025000Y-99625001D01*
G75*
G02*
X139775001Y-99875000I-249999J0D01*
G01*
X139149999Y-99875000D01*
G75*
G02*
X138900000Y-99625001I0J249999D01*
G01*
X138900000Y-98374999D01*
G75*
G02*
X139149999Y-98125000I249999J0D01*
G01*
X139775001Y-98125000D01*
G75*
G02*
X140025000Y-98374999I0J-249999D01*
G01*
G37*
%TD*%
%TO.C,R16*%
G36*
G01*
X201900000Y-70625001D02*
X201900000Y-69374999D01*
G75*
G02*
X202149999Y-69125000I249999J0D01*
G01*
X202775001Y-69125000D01*
G75*
G02*
X203025000Y-69374999I0J-249999D01*
G01*
X203025000Y-70625001D01*
G75*
G02*
X202775001Y-70875000I-249999J0D01*
G01*
X202149999Y-70875000D01*
G75*
G02*
X201900000Y-70625001I0J249999D01*
G01*
G37*
G36*
G01*
X198975000Y-70625001D02*
X198975000Y-69374999D01*
G75*
G02*
X199224999Y-69125000I249999J0D01*
G01*
X199850001Y-69125000D01*
G75*
G02*
X200100000Y-69374999I0J-249999D01*
G01*
X200100000Y-70625001D01*
G75*
G02*
X199850001Y-70875000I-249999J0D01*
G01*
X199224999Y-70875000D01*
G75*
G02*
X198975000Y-70625001I0J249999D01*
G01*
G37*
%TD*%
%TO.C,R15*%
G36*
G01*
X154760000Y-59315000D02*
X154760000Y-59685000D01*
G75*
G02*
X154625000Y-59820000I-135000J0D01*
G01*
X154355000Y-59820000D01*
G75*
G02*
X154220000Y-59685000I0J135000D01*
G01*
X154220000Y-59315000D01*
G75*
G02*
X154355000Y-59180000I135000J0D01*
G01*
X154625000Y-59180000D01*
G75*
G02*
X154760000Y-59315000I0J-135000D01*
G01*
G37*
G36*
G01*
X155780000Y-59315000D02*
X155780000Y-59685000D01*
G75*
G02*
X155645000Y-59820000I-135000J0D01*
G01*
X155375000Y-59820000D01*
G75*
G02*
X155240000Y-59685000I0J135000D01*
G01*
X155240000Y-59315000D01*
G75*
G02*
X155375000Y-59180000I135000J0D01*
G01*
X155645000Y-59180000D01*
G75*
G02*
X155780000Y-59315000I0J-135000D01*
G01*
G37*
%TD*%
%TO.C,R14*%
G36*
G01*
X177760000Y-59315000D02*
X177760000Y-59685000D01*
G75*
G02*
X177625000Y-59820000I-135000J0D01*
G01*
X177355000Y-59820000D01*
G75*
G02*
X177220000Y-59685000I0J135000D01*
G01*
X177220000Y-59315000D01*
G75*
G02*
X177355000Y-59180000I135000J0D01*
G01*
X177625000Y-59180000D01*
G75*
G02*
X177760000Y-59315000I0J-135000D01*
G01*
G37*
G36*
G01*
X178780000Y-59315000D02*
X178780000Y-59685000D01*
G75*
G02*
X178645000Y-59820000I-135000J0D01*
G01*
X178375000Y-59820000D01*
G75*
G02*
X178240000Y-59685000I0J135000D01*
G01*
X178240000Y-59315000D01*
G75*
G02*
X178375000Y-59180000I135000J0D01*
G01*
X178645000Y-59180000D01*
G75*
G02*
X178780000Y-59315000I0J-135000D01*
G01*
G37*
%TD*%
%TO.C,R13*%
G36*
G01*
X131960000Y-59415000D02*
X131960000Y-59785000D01*
G75*
G02*
X131825000Y-59920000I-135000J0D01*
G01*
X131555000Y-59920000D01*
G75*
G02*
X131420000Y-59785000I0J135000D01*
G01*
X131420000Y-59415000D01*
G75*
G02*
X131555000Y-59280000I135000J0D01*
G01*
X131825000Y-59280000D01*
G75*
G02*
X131960000Y-59415000I0J-135000D01*
G01*
G37*
G36*
G01*
X132980000Y-59415000D02*
X132980000Y-59785000D01*
G75*
G02*
X132845000Y-59920000I-135000J0D01*
G01*
X132575000Y-59920000D01*
G75*
G02*
X132440000Y-59785000I0J135000D01*
G01*
X132440000Y-59415000D01*
G75*
G02*
X132575000Y-59280000I135000J0D01*
G01*
X132845000Y-59280000D01*
G75*
G02*
X132980000Y-59415000I0J-135000D01*
G01*
G37*
%TD*%
%TO.C,R12*%
G36*
G01*
X178600000Y-61374999D02*
X178600000Y-62625001D01*
G75*
G02*
X178350001Y-62875000I-249999J0D01*
G01*
X177724999Y-62875000D01*
G75*
G02*
X177475000Y-62625001I0J249999D01*
G01*
X177475000Y-61374999D01*
G75*
G02*
X177724999Y-61125000I249999J0D01*
G01*
X178350001Y-61125000D01*
G75*
G02*
X178600000Y-61374999I0J-249999D01*
G01*
G37*
G36*
G01*
X181525000Y-61374999D02*
X181525000Y-62625001D01*
G75*
G02*
X181275001Y-62875000I-249999J0D01*
G01*
X180649999Y-62875000D01*
G75*
G02*
X180400000Y-62625001I0J249999D01*
G01*
X180400000Y-61374999D01*
G75*
G02*
X180649999Y-61125000I249999J0D01*
G01*
X181275001Y-61125000D01*
G75*
G02*
X181525000Y-61374999I0J-249999D01*
G01*
G37*
%TD*%
%TO.C,R11*%
G36*
G01*
X126840000Y-107185000D02*
X126840000Y-106815000D01*
G75*
G02*
X126975000Y-106680000I135000J0D01*
G01*
X127245000Y-106680000D01*
G75*
G02*
X127380000Y-106815000I0J-135000D01*
G01*
X127380000Y-107185000D01*
G75*
G02*
X127245000Y-107320000I-135000J0D01*
G01*
X126975000Y-107320000D01*
G75*
G02*
X126840000Y-107185000I0J135000D01*
G01*
G37*
G36*
G01*
X125820000Y-107185000D02*
X125820000Y-106815000D01*
G75*
G02*
X125955000Y-106680000I135000J0D01*
G01*
X126225000Y-106680000D01*
G75*
G02*
X126360000Y-106815000I0J-135000D01*
G01*
X126360000Y-107185000D01*
G75*
G02*
X126225000Y-107320000I-135000J0D01*
G01*
X125955000Y-107320000D01*
G75*
G02*
X125820000Y-107185000I0J135000D01*
G01*
G37*
%TD*%
%TO.C,R10*%
G36*
G01*
X127440000Y-108385000D02*
X127440000Y-108015000D01*
G75*
G02*
X127575000Y-107880000I135000J0D01*
G01*
X127845000Y-107880000D01*
G75*
G02*
X127980000Y-108015000I0J-135000D01*
G01*
X127980000Y-108385000D01*
G75*
G02*
X127845000Y-108520000I-135000J0D01*
G01*
X127575000Y-108520000D01*
G75*
G02*
X127440000Y-108385000I0J135000D01*
G01*
G37*
G36*
G01*
X126420000Y-108385000D02*
X126420000Y-108015000D01*
G75*
G02*
X126555000Y-107880000I135000J0D01*
G01*
X126825000Y-107880000D01*
G75*
G02*
X126960000Y-108015000I0J-135000D01*
G01*
X126960000Y-108385000D01*
G75*
G02*
X126825000Y-108520000I-135000J0D01*
G01*
X126555000Y-108520000D01*
G75*
G02*
X126420000Y-108385000I0J135000D01*
G01*
G37*
%TD*%
%TO.C,R9*%
G36*
G01*
X123215000Y-110640000D02*
X123585000Y-110640000D01*
G75*
G02*
X123720000Y-110775000I0J-135000D01*
G01*
X123720000Y-111045000D01*
G75*
G02*
X123585000Y-111180000I-135000J0D01*
G01*
X123215000Y-111180000D01*
G75*
G02*
X123080000Y-111045000I0J135000D01*
G01*
X123080000Y-110775000D01*
G75*
G02*
X123215000Y-110640000I135000J0D01*
G01*
G37*
G36*
G01*
X123215000Y-109620000D02*
X123585000Y-109620000D01*
G75*
G02*
X123720000Y-109755000I0J-135000D01*
G01*
X123720000Y-110025000D01*
G75*
G02*
X123585000Y-110160000I-135000J0D01*
G01*
X123215000Y-110160000D01*
G75*
G02*
X123080000Y-110025000I0J135000D01*
G01*
X123080000Y-109755000D01*
G75*
G02*
X123215000Y-109620000I135000J0D01*
G01*
G37*
%TD*%
%TO.C,R8*%
G36*
G01*
X132500000Y-61374999D02*
X132500000Y-62625001D01*
G75*
G02*
X132250001Y-62875000I-249999J0D01*
G01*
X131624999Y-62875000D01*
G75*
G02*
X131375000Y-62625001I0J249999D01*
G01*
X131375000Y-61374999D01*
G75*
G02*
X131624999Y-61125000I249999J0D01*
G01*
X132250001Y-61125000D01*
G75*
G02*
X132500000Y-61374999I0J-249999D01*
G01*
G37*
G36*
G01*
X135425000Y-61374999D02*
X135425000Y-62625001D01*
G75*
G02*
X135175001Y-62875000I-249999J0D01*
G01*
X134549999Y-62875000D01*
G75*
G02*
X134300000Y-62625001I0J249999D01*
G01*
X134300000Y-61374999D01*
G75*
G02*
X134549999Y-61125000I249999J0D01*
G01*
X135175001Y-61125000D01*
G75*
G02*
X135425000Y-61374999I0J-249999D01*
G01*
G37*
%TD*%
%TO.C,R7*%
G36*
G01*
X124840000Y-103385000D02*
X124840000Y-103015000D01*
G75*
G02*
X124975000Y-102880000I135000J0D01*
G01*
X125245000Y-102880000D01*
G75*
G02*
X125380000Y-103015000I0J-135000D01*
G01*
X125380000Y-103385000D01*
G75*
G02*
X125245000Y-103520000I-135000J0D01*
G01*
X124975000Y-103520000D01*
G75*
G02*
X124840000Y-103385000I0J135000D01*
G01*
G37*
G36*
G01*
X123820000Y-103385000D02*
X123820000Y-103015000D01*
G75*
G02*
X123955000Y-102880000I135000J0D01*
G01*
X124225000Y-102880000D01*
G75*
G02*
X124360000Y-103015000I0J-135000D01*
G01*
X124360000Y-103385000D01*
G75*
G02*
X124225000Y-103520000I-135000J0D01*
G01*
X123955000Y-103520000D01*
G75*
G02*
X123820000Y-103385000I0J135000D01*
G01*
G37*
%TD*%
%TO.C,R6*%
G36*
G01*
X155600000Y-61374999D02*
X155600000Y-62625001D01*
G75*
G02*
X155350001Y-62875000I-249999J0D01*
G01*
X154724999Y-62875000D01*
G75*
G02*
X154475000Y-62625001I0J249999D01*
G01*
X154475000Y-61374999D01*
G75*
G02*
X154724999Y-61125000I249999J0D01*
G01*
X155350001Y-61125000D01*
G75*
G02*
X155600000Y-61374999I0J-249999D01*
G01*
G37*
G36*
G01*
X158525000Y-61374999D02*
X158525000Y-62625001D01*
G75*
G02*
X158275001Y-62875000I-249999J0D01*
G01*
X157649999Y-62875000D01*
G75*
G02*
X157400000Y-62625001I0J249999D01*
G01*
X157400000Y-61374999D01*
G75*
G02*
X157649999Y-61125000I249999J0D01*
G01*
X158275001Y-61125000D01*
G75*
G02*
X158525000Y-61374999I0J-249999D01*
G01*
G37*
%TD*%
%TO.C,R5*%
G36*
G01*
X121415000Y-112440000D02*
X121785000Y-112440000D01*
G75*
G02*
X121920000Y-112575000I0J-135000D01*
G01*
X121920000Y-112845000D01*
G75*
G02*
X121785000Y-112980000I-135000J0D01*
G01*
X121415000Y-112980000D01*
G75*
G02*
X121280000Y-112845000I0J135000D01*
G01*
X121280000Y-112575000D01*
G75*
G02*
X121415000Y-112440000I135000J0D01*
G01*
G37*
G36*
G01*
X121415000Y-111420000D02*
X121785000Y-111420000D01*
G75*
G02*
X121920000Y-111555000I0J-135000D01*
G01*
X121920000Y-111825000D01*
G75*
G02*
X121785000Y-111960000I-135000J0D01*
G01*
X121415000Y-111960000D01*
G75*
G02*
X121280000Y-111825000I0J135000D01*
G01*
X121280000Y-111555000D01*
G75*
G02*
X121415000Y-111420000I135000J0D01*
G01*
G37*
%TD*%
%TO.C,R4*%
G36*
G01*
X120215000Y-111840000D02*
X120585000Y-111840000D01*
G75*
G02*
X120720000Y-111975000I0J-135000D01*
G01*
X120720000Y-112245000D01*
G75*
G02*
X120585000Y-112380000I-135000J0D01*
G01*
X120215000Y-112380000D01*
G75*
G02*
X120080000Y-112245000I0J135000D01*
G01*
X120080000Y-111975000D01*
G75*
G02*
X120215000Y-111840000I135000J0D01*
G01*
G37*
G36*
G01*
X120215000Y-110820000D02*
X120585000Y-110820000D01*
G75*
G02*
X120720000Y-110955000I0J-135000D01*
G01*
X120720000Y-111225000D01*
G75*
G02*
X120585000Y-111360000I-135000J0D01*
G01*
X120215000Y-111360000D01*
G75*
G02*
X120080000Y-111225000I0J135000D01*
G01*
X120080000Y-110955000D01*
G75*
G02*
X120215000Y-110820000I135000J0D01*
G01*
G37*
%TD*%
D11*
%TO.C,Q6*%
X184500000Y-71500000D03*
X183550000Y-69500000D03*
X185450000Y-69500000D03*
%TD*%
%TO.C,Q5*%
X166000000Y-71500000D03*
X165050000Y-69500000D03*
X166950000Y-69500000D03*
%TD*%
%TO.C,Q4*%
X161500000Y-71500000D03*
X160550000Y-69500000D03*
X162450000Y-69500000D03*
%TD*%
%TO.C,Q3*%
X143000000Y-71500000D03*
X142050000Y-69500000D03*
X143950000Y-69500000D03*
%TD*%
%TO.C,Q2*%
X138500000Y-71500000D03*
X137550000Y-69500000D03*
X139450000Y-69500000D03*
%TD*%
%TO.C,Q1*%
X120000000Y-71500000D03*
X119050000Y-69500000D03*
X120950000Y-69500000D03*
%TD*%
%TO.C,D13*%
G36*
G01*
X179300000Y-100287500D02*
X179300000Y-100712500D01*
G75*
G02*
X179087500Y-100925000I-212500J0D01*
G01*
X178287500Y-100925000D01*
G75*
G02*
X178075000Y-100712500I0J212500D01*
G01*
X178075000Y-100287500D01*
G75*
G02*
X178287500Y-100075000I212500J0D01*
G01*
X179087500Y-100075000D01*
G75*
G02*
X179300000Y-100287500I0J-212500D01*
G01*
G37*
G36*
G01*
X180925000Y-100287500D02*
X180925000Y-100712500D01*
G75*
G02*
X180712500Y-100925000I-212500J0D01*
G01*
X179912500Y-100925000D01*
G75*
G02*
X179700000Y-100712500I0J212500D01*
G01*
X179700000Y-100287500D01*
G75*
G02*
X179912500Y-100075000I212500J0D01*
G01*
X180712500Y-100075000D01*
G75*
G02*
X180925000Y-100287500I0J-212500D01*
G01*
G37*
%TD*%
%TO.C,D12*%
G36*
G01*
X179300000Y-97787500D02*
X179300000Y-98212500D01*
G75*
G02*
X179087500Y-98425000I-212500J0D01*
G01*
X178287500Y-98425000D01*
G75*
G02*
X178075000Y-98212500I0J212500D01*
G01*
X178075000Y-97787500D01*
G75*
G02*
X178287500Y-97575000I212500J0D01*
G01*
X179087500Y-97575000D01*
G75*
G02*
X179300000Y-97787500I0J-212500D01*
G01*
G37*
G36*
G01*
X180925000Y-97787500D02*
X180925000Y-98212500D01*
G75*
G02*
X180712500Y-98425000I-212500J0D01*
G01*
X179912500Y-98425000D01*
G75*
G02*
X179700000Y-98212500I0J212500D01*
G01*
X179700000Y-97787500D01*
G75*
G02*
X179912500Y-97575000I212500J0D01*
G01*
X180712500Y-97575000D01*
G75*
G02*
X180925000Y-97787500I0J-212500D01*
G01*
G37*
%TD*%
%TO.C,D11*%
G36*
G01*
X156300000Y-100287500D02*
X156300000Y-100712500D01*
G75*
G02*
X156087500Y-100925000I-212500J0D01*
G01*
X155287500Y-100925000D01*
G75*
G02*
X155075000Y-100712500I0J212500D01*
G01*
X155075000Y-100287500D01*
G75*
G02*
X155287500Y-100075000I212500J0D01*
G01*
X156087500Y-100075000D01*
G75*
G02*
X156300000Y-100287500I0J-212500D01*
G01*
G37*
G36*
G01*
X157925000Y-100287500D02*
X157925000Y-100712500D01*
G75*
G02*
X157712500Y-100925000I-212500J0D01*
G01*
X156912500Y-100925000D01*
G75*
G02*
X156700000Y-100712500I0J212500D01*
G01*
X156700000Y-100287500D01*
G75*
G02*
X156912500Y-100075000I212500J0D01*
G01*
X157712500Y-100075000D01*
G75*
G02*
X157925000Y-100287500I0J-212500D01*
G01*
G37*
%TD*%
%TO.C,D10*%
G36*
G01*
X156300000Y-97787500D02*
X156300000Y-98212500D01*
G75*
G02*
X156087500Y-98425000I-212500J0D01*
G01*
X155287500Y-98425000D01*
G75*
G02*
X155075000Y-98212500I0J212500D01*
G01*
X155075000Y-97787500D01*
G75*
G02*
X155287500Y-97575000I212500J0D01*
G01*
X156087500Y-97575000D01*
G75*
G02*
X156300000Y-97787500I0J-212500D01*
G01*
G37*
G36*
G01*
X157925000Y-97787500D02*
X157925000Y-98212500D01*
G75*
G02*
X157712500Y-98425000I-212500J0D01*
G01*
X156912500Y-98425000D01*
G75*
G02*
X156700000Y-98212500I0J212500D01*
G01*
X156700000Y-97787500D01*
G75*
G02*
X156912500Y-97575000I212500J0D01*
G01*
X157712500Y-97575000D01*
G75*
G02*
X157925000Y-97787500I0J-212500D01*
G01*
G37*
%TD*%
%TO.C,D9*%
G36*
G01*
X133300000Y-100787500D02*
X133300000Y-101212500D01*
G75*
G02*
X133087500Y-101425000I-212500J0D01*
G01*
X132287500Y-101425000D01*
G75*
G02*
X132075000Y-101212500I0J212500D01*
G01*
X132075000Y-100787500D01*
G75*
G02*
X132287500Y-100575000I212500J0D01*
G01*
X133087500Y-100575000D01*
G75*
G02*
X133300000Y-100787500I0J-212500D01*
G01*
G37*
G36*
G01*
X134925000Y-100787500D02*
X134925000Y-101212500D01*
G75*
G02*
X134712500Y-101425000I-212500J0D01*
G01*
X133912500Y-101425000D01*
G75*
G02*
X133700000Y-101212500I0J212500D01*
G01*
X133700000Y-100787500D01*
G75*
G02*
X133912500Y-100575000I212500J0D01*
G01*
X134712500Y-100575000D01*
G75*
G02*
X134925000Y-100787500I0J-212500D01*
G01*
G37*
%TD*%
%TO.C,D8*%
G36*
G01*
X133300000Y-98287500D02*
X133300000Y-98712500D01*
G75*
G02*
X133087500Y-98925000I-212500J0D01*
G01*
X132287500Y-98925000D01*
G75*
G02*
X132075000Y-98712500I0J212500D01*
G01*
X132075000Y-98287500D01*
G75*
G02*
X132287500Y-98075000I212500J0D01*
G01*
X133087500Y-98075000D01*
G75*
G02*
X133300000Y-98287500I0J-212500D01*
G01*
G37*
G36*
G01*
X134925000Y-98287500D02*
X134925000Y-98712500D01*
G75*
G02*
X134712500Y-98925000I-212500J0D01*
G01*
X133912500Y-98925000D01*
G75*
G02*
X133700000Y-98712500I0J212500D01*
G01*
X133700000Y-98287500D01*
G75*
G02*
X133912500Y-98075000I212500J0D01*
G01*
X134712500Y-98075000D01*
G75*
G02*
X134925000Y-98287500I0J-212500D01*
G01*
G37*
%TD*%
%TO.C,D7*%
G36*
G01*
X200800000Y-72287500D02*
X200800000Y-72712500D01*
G75*
G02*
X200587500Y-72925000I-212500J0D01*
G01*
X199787500Y-72925000D01*
G75*
G02*
X199575000Y-72712500I0J212500D01*
G01*
X199575000Y-72287500D01*
G75*
G02*
X199787500Y-72075000I212500J0D01*
G01*
X200587500Y-72075000D01*
G75*
G02*
X200800000Y-72287500I0J-212500D01*
G01*
G37*
G36*
G01*
X202425000Y-72287500D02*
X202425000Y-72712500D01*
G75*
G02*
X202212500Y-72925000I-212500J0D01*
G01*
X201412500Y-72925000D01*
G75*
G02*
X201200000Y-72712500I0J212500D01*
G01*
X201200000Y-72287500D01*
G75*
G02*
X201412500Y-72075000I212500J0D01*
G01*
X202212500Y-72075000D01*
G75*
G02*
X202425000Y-72287500I0J-212500D01*
G01*
G37*
%TD*%
D12*
%TO.C,D6*%
X181000000Y-70500000D03*
X177000000Y-70500000D03*
%TD*%
%TO.C,D5*%
X169500000Y-70500000D03*
X173500000Y-70500000D03*
%TD*%
%TO.C,D4*%
X158000000Y-70500000D03*
X154000000Y-70500000D03*
%TD*%
%TO.C,D3*%
X146500000Y-70500000D03*
X150500000Y-70500000D03*
%TD*%
%TO.C,D2*%
X135000000Y-70500000D03*
X131000000Y-70500000D03*
%TD*%
%TO.C,D1*%
X123500000Y-70500000D03*
X127500000Y-70500000D03*
%TD*%
M02*
