%TF.GenerationSoftware,KiCad,Pcbnew,(5.1.9-0-10_14)*%
%TF.CreationDate,2021-05-27T00:43:31-07:00*%
%TF.ProjectId,tp_radio_board,74705f72-6164-4696-9f5f-626f6172642e,rev?*%
%TF.SameCoordinates,Original*%
%TF.FileFunction,Legend,Bot*%
%TF.FilePolarity,Positive*%
%FSLAX46Y46*%
G04 Gerber Fmt 4.6, Leading zero omitted, Abs format (unit mm)*
G04 Created by KiCad (PCBNEW (5.1.9-0-10_14)) date 2021-05-27 00:43:31*
%MOMM*%
%LPD*%
G01*
G04 APERTURE LIST*
%ADD10C,0.120000*%
%ADD11C,0.150000*%
G04 APERTURE END LIST*
D10*
%TO.C,J9*%
X69500000Y-115000000D02*
X57500000Y-127000000D01*
X57500000Y-127000000D02*
X57500000Y-126000000D01*
X57500000Y-126000000D02*
X68500000Y-115000000D01*
X68500000Y-115000000D02*
X67000000Y-115000000D01*
X67000000Y-115000000D02*
X67500000Y-115000000D01*
X67500000Y-115000000D02*
X57500000Y-125000000D01*
X57500000Y-125000000D02*
X57500000Y-123500000D01*
X57500000Y-123500000D02*
X57500000Y-124000000D01*
X57500000Y-124000000D02*
X66500000Y-115000000D01*
X66500000Y-115000000D02*
X65500000Y-115000000D01*
X65500000Y-115000000D02*
X57500000Y-123000000D01*
X57500000Y-123000000D02*
X57500000Y-122000000D01*
X57500000Y-122000000D02*
X64500000Y-115000000D01*
X64500000Y-115000000D02*
X63000000Y-115000000D01*
X63000000Y-115000000D02*
X63500000Y-115000000D01*
X63500000Y-115000000D02*
X57500000Y-121000000D01*
X57500000Y-121000000D02*
X57500000Y-120000000D01*
X57500000Y-120000000D02*
X62500000Y-115000000D01*
X62500000Y-115000000D02*
X61500000Y-115000000D01*
X61500000Y-115000000D02*
X57500000Y-119000000D01*
X57500000Y-119000000D02*
X57500000Y-118000000D01*
X57500000Y-118000000D02*
X60500000Y-115000000D01*
X60500000Y-115000000D02*
X59000000Y-115000000D01*
X59000000Y-115000000D02*
X59500000Y-115000000D01*
X59500000Y-115000000D02*
X57500000Y-117000000D01*
X57500000Y-117000000D02*
X57500000Y-116000000D01*
X57500000Y-116000000D02*
X58500000Y-115000000D01*
X57500000Y-128000000D02*
X69500000Y-116000000D01*
X69500000Y-127000000D02*
X68500000Y-128000000D01*
X68500000Y-128000000D02*
X67500000Y-128000000D01*
X67500000Y-128000000D02*
X69500000Y-126000000D01*
X69500000Y-126000000D02*
X69500000Y-125000000D01*
X69500000Y-125000000D02*
X66500000Y-128000000D01*
X66500000Y-128000000D02*
X65500000Y-128000000D01*
X65500000Y-128000000D02*
X69500000Y-124000000D01*
X69500000Y-124000000D02*
X69500000Y-123000000D01*
X69500000Y-123000000D02*
X64500000Y-128000000D01*
X64500000Y-128000000D02*
X63500000Y-128000000D01*
X63500000Y-128000000D02*
X69500000Y-122000000D01*
X69500000Y-122000000D02*
X69500000Y-121000000D01*
X69500000Y-121000000D02*
X62500000Y-128000000D01*
X62500000Y-128000000D02*
X61500000Y-128000000D01*
X61500000Y-128000000D02*
X69500000Y-120000000D01*
X69500000Y-120000000D02*
X69500000Y-119000000D01*
X69500000Y-119000000D02*
X60500000Y-128000000D01*
X60500000Y-128000000D02*
X59500000Y-128000000D01*
X59500000Y-128000000D02*
X69500000Y-118000000D01*
X69500000Y-118000000D02*
X69500000Y-117000000D01*
X69500000Y-117000000D02*
X58500000Y-128000000D01*
X57000000Y-114000000D02*
X57000000Y-129000000D01*
X57000000Y-129000000D02*
X77500000Y-129000000D01*
X77500000Y-114000000D02*
X57000000Y-114000000D01*
X77500000Y-129000000D02*
X77500000Y-114000000D01*
X69500000Y-128000000D02*
X57500000Y-128000000D01*
X57500000Y-128000000D02*
X57500000Y-115000000D01*
X69500000Y-115000000D02*
X57500000Y-115000000D01*
X69500000Y-128000000D02*
X69500000Y-115000000D01*
D11*
X75952380Y-120666666D02*
X76666666Y-120666666D01*
X76809523Y-120619047D01*
X76904761Y-120523809D01*
X76952380Y-120380952D01*
X76952380Y-120285714D01*
X76952380Y-121190476D02*
X76952380Y-121380952D01*
X76904761Y-121476190D01*
X76857142Y-121523809D01*
X76714285Y-121619047D01*
X76523809Y-121666666D01*
X76142857Y-121666666D01*
X76047619Y-121619047D01*
X76000000Y-121571428D01*
X75952380Y-121476190D01*
X75952380Y-121285714D01*
X76000000Y-121190476D01*
X76047619Y-121142857D01*
X76142857Y-121095238D01*
X76380952Y-121095238D01*
X76476190Y-121142857D01*
X76523809Y-121190476D01*
X76571428Y-121285714D01*
X76571428Y-121476190D01*
X76523809Y-121571428D01*
X76476190Y-121619047D01*
X76380952Y-121666666D01*
X63953571Y-118143571D02*
X64014047Y-118083095D01*
X64074523Y-117901666D01*
X64074523Y-117780714D01*
X64014047Y-117599285D01*
X63893095Y-117478333D01*
X63772142Y-117417857D01*
X63530238Y-117357380D01*
X63348809Y-117357380D01*
X63106904Y-117417857D01*
X62985952Y-117478333D01*
X62865000Y-117599285D01*
X62804523Y-117780714D01*
X62804523Y-117901666D01*
X62865000Y-118083095D01*
X62925476Y-118143571D01*
X62804523Y-118687857D02*
X63832619Y-118687857D01*
X63953571Y-118748333D01*
X64014047Y-118808809D01*
X64074523Y-118929761D01*
X64074523Y-119171666D01*
X64014047Y-119292619D01*
X63953571Y-119353095D01*
X63832619Y-119413571D01*
X62804523Y-119413571D01*
X62804523Y-119836904D02*
X62804523Y-120562619D01*
X64074523Y-120199761D02*
X62804523Y-120199761D01*
X62804523Y-122195476D02*
X62804523Y-122437380D01*
X62865000Y-122558333D01*
X62985952Y-122679285D01*
X63227857Y-122739761D01*
X63651190Y-122739761D01*
X63893095Y-122679285D01*
X64014047Y-122558333D01*
X64074523Y-122437380D01*
X64074523Y-122195476D01*
X64014047Y-122074523D01*
X63893095Y-121953571D01*
X63651190Y-121893095D01*
X63227857Y-121893095D01*
X62985952Y-121953571D01*
X62865000Y-122074523D01*
X62804523Y-122195476D01*
X62804523Y-123284047D02*
X63832619Y-123284047D01*
X63953571Y-123344523D01*
X64014047Y-123405000D01*
X64074523Y-123525952D01*
X64074523Y-123767857D01*
X64014047Y-123888809D01*
X63953571Y-123949285D01*
X63832619Y-124009761D01*
X62804523Y-124009761D01*
X62804523Y-124433095D02*
X62804523Y-125158809D01*
X64074523Y-124795952D02*
X62804523Y-124795952D01*
X63953571Y-125582142D02*
X64014047Y-125642619D01*
X64074523Y-125582142D01*
X64014047Y-125521666D01*
X63953571Y-125582142D01*
X64074523Y-125582142D01*
X63590714Y-125582142D02*
X62865000Y-125521666D01*
X62804523Y-125582142D01*
X62865000Y-125642619D01*
X63590714Y-125582142D01*
X62804523Y-125582142D01*
%TD*%
M02*
