%TF.GenerationSoftware,KiCad,Pcbnew,(5.1.9-0-10_14)*%
%TF.CreationDate,2021-05-27T00:43:31-07:00*%
%TF.ProjectId,tp_radio_board,74705f72-6164-4696-9f5f-626f6172642e,rev?*%
%TF.SameCoordinates,Original*%
%TF.FileFunction,Soldermask,Bot*%
%TF.FilePolarity,Negative*%
%FSLAX46Y46*%
G04 Gerber Fmt 4.6, Leading zero omitted, Abs format (unit mm)*
G04 Created by KiCad (PCBNEW (5.1.9-0-10_14)) date 2021-05-27 00:43:31*
%MOMM*%
%LPD*%
G01*
G04 APERTURE LIST*
%ADD10O,1.700000X1.700000*%
%ADD11R,1.700000X1.700000*%
%ADD12C,1.808000*%
%ADD13C,3.200000*%
%ADD14C,1.700000*%
%ADD15C,2.780000*%
%ADD16R,1.800000X1.800000*%
%ADD17C,1.800000*%
%ADD18C,1.600000*%
%ADD19R,1.600000X1.600000*%
G04 APERTURE END LIST*
D10*
%TO.C,J11*%
X54500000Y-106660000D03*
X54500000Y-104120000D03*
X54500000Y-101580000D03*
X54500000Y-99040000D03*
D11*
X54500000Y-96500000D03*
%TD*%
D12*
%TO.C,K2*%
X57140008Y-157350000D03*
X72140008Y-157350000D03*
X77140008Y-157350000D03*
X82140008Y-157350000D03*
X82140008Y-149850000D03*
X77140008Y-149850000D03*
X72140008Y-149850000D03*
X57140008Y-149850000D03*
X57140008Y-153600000D03*
%TD*%
%TO.C,K3*%
X87140008Y-157350000D03*
X102140008Y-157350000D03*
X107140008Y-157350000D03*
X112140008Y-157350000D03*
X112140008Y-149850000D03*
X107140008Y-149850000D03*
X102140008Y-149850000D03*
X87140008Y-149850000D03*
X87140008Y-153600000D03*
%TD*%
%TO.C,K1*%
X27140008Y-157350000D03*
X42140008Y-157350000D03*
X47140008Y-157350000D03*
X52140008Y-157350000D03*
X52140008Y-149850000D03*
X47140008Y-149850000D03*
X42140008Y-149850000D03*
X27140008Y-149850000D03*
X27140008Y-153600000D03*
%TD*%
D13*
%TO.C,J10*%
X90750000Y-104250000D03*
X90750000Y-108685000D03*
X95185000Y-104250000D03*
X90750000Y-99815000D03*
X86315000Y-104250000D03*
X86315000Y-108685000D03*
X86315000Y-99815000D03*
X95185000Y-99815000D03*
X95185000Y-108685000D03*
%TD*%
%TO.C,J8*%
X107250000Y-104250000D03*
X107250000Y-108685000D03*
X111685000Y-104250000D03*
X107250000Y-99815000D03*
X102815000Y-104250000D03*
X102815000Y-108685000D03*
X102815000Y-99815000D03*
X111685000Y-99815000D03*
X111685000Y-108685000D03*
%TD*%
%TO.C,J7*%
X105065000Y-181935000D03*
X105065000Y-176065000D03*
X110935000Y-176065000D03*
X110935000Y-181935000D03*
%TD*%
%TO.C,J6*%
X75065000Y-181935000D03*
X75065000Y-176065000D03*
X80935000Y-176065000D03*
X80935000Y-181935000D03*
%TD*%
%TO.C,J5*%
X45065000Y-181935000D03*
X45065000Y-176065000D03*
X50935000Y-176065000D03*
X50935000Y-181935000D03*
%TD*%
%TO.C,J4*%
X90065000Y-181935000D03*
X90065000Y-176065000D03*
X95935000Y-176065000D03*
X95935000Y-181935000D03*
%TD*%
%TO.C,J3*%
X60065000Y-181935000D03*
X60065000Y-176065000D03*
X65935000Y-176065000D03*
X65935000Y-181935000D03*
%TD*%
%TO.C,J2*%
X30065000Y-181935000D03*
X30065000Y-176065000D03*
X35935000Y-176065000D03*
X35935000Y-181935000D03*
%TD*%
D14*
%TO.C,J9*%
X74440000Y-118325000D03*
X74440000Y-120865000D03*
X74440000Y-123405000D03*
X71900000Y-119595000D03*
X71900000Y-122155000D03*
X71900000Y-124675000D03*
%TD*%
D15*
%TO.C,F6*%
X108350000Y-143170000D03*
X111750000Y-143170000D03*
X108350000Y-133250000D03*
X111750000Y-133250000D03*
%TD*%
%TO.C,F5*%
X78440000Y-143270000D03*
X81840000Y-143270000D03*
X78440000Y-133350000D03*
X81840000Y-133350000D03*
%TD*%
%TO.C,F4*%
X48440000Y-143270000D03*
X51840000Y-143270000D03*
X48440000Y-133350000D03*
X51840000Y-133350000D03*
%TD*%
D16*
%TO.C,U3*%
X86590000Y-119570000D03*
D17*
X84050000Y-119570000D03*
X81510000Y-119570000D03*
%TD*%
D15*
%TO.C,F3*%
X100350000Y-143170000D03*
X103750000Y-143170000D03*
X100350000Y-133250000D03*
X103750000Y-133250000D03*
%TD*%
%TO.C,F2*%
X70440000Y-143270000D03*
X73840000Y-143270000D03*
X70440000Y-133350000D03*
X73840000Y-133350000D03*
%TD*%
%TO.C,F1*%
X40440000Y-143270000D03*
X43840000Y-143270000D03*
X40440000Y-133350000D03*
X43840000Y-133350000D03*
%TD*%
D18*
%TO.C,S1*%
X102000000Y-118500000D03*
X99500000Y-118500000D03*
X97000000Y-118500000D03*
X102000000Y-123500000D03*
X99500000Y-123500000D03*
X97000000Y-123500000D03*
D19*
X104500000Y-121000000D03*
D18*
X94500000Y-121000000D03*
%TD*%
M02*
