%TF.GenerationSoftware,KiCad,Pcbnew,(5.1.9-0-10_14)*%
%TF.CreationDate,2021-05-27T00:43:31-07:00*%
%TF.ProjectId,tp_radio_board,74705f72-6164-4696-9f5f-626f6172642e,rev?*%
%TF.SameCoordinates,Original*%
%TF.FileFunction,Legend,Top*%
%TF.FilePolarity,Positive*%
%FSLAX46Y46*%
G04 Gerber Fmt 4.6, Leading zero omitted, Abs format (unit mm)*
G04 Created by KiCad (PCBNEW (5.1.9-0-10_14)) date 2021-05-27 00:43:31*
%MOMM*%
%LPD*%
G01*
G04 APERTURE LIST*
%ADD10C,0.300000*%
%ADD11C,0.127000*%
%ADD12C,0.200000*%
%ADD13C,0.120000*%
%ADD14C,0.152400*%
%ADD15C,0.015000*%
%ADD16C,0.150000*%
G04 APERTURE END LIST*
D10*
X114630952Y-188583333D02*
X114630952Y-187154761D01*
X117130952Y-187869047D02*
X114630952Y-187869047D01*
X117130952Y-186321428D02*
X114630952Y-186321428D01*
X117130952Y-185250000D02*
X115821428Y-185250000D01*
X115583333Y-185369047D01*
X115464285Y-185607142D01*
X115464285Y-185964285D01*
X115583333Y-186202380D01*
X115702380Y-186321428D01*
X115464285Y-182988095D02*
X117130952Y-182988095D01*
X115464285Y-184059523D02*
X116773809Y-184059523D01*
X117011904Y-183940476D01*
X117130952Y-183702380D01*
X117130952Y-183345238D01*
X117011904Y-183107142D01*
X116892857Y-182988095D01*
X115464285Y-181797619D02*
X117130952Y-181797619D01*
X115702380Y-181797619D02*
X115583333Y-181678571D01*
X115464285Y-181440476D01*
X115464285Y-181083333D01*
X115583333Y-180845238D01*
X115821428Y-180726190D01*
X117130952Y-180726190D01*
X117130952Y-178464285D02*
X114630952Y-178464285D01*
X117011904Y-178464285D02*
X117130952Y-178702380D01*
X117130952Y-179178571D01*
X117011904Y-179416666D01*
X116892857Y-179535714D01*
X116654761Y-179654761D01*
X115940476Y-179654761D01*
X115702380Y-179535714D01*
X115583333Y-179416666D01*
X115464285Y-179178571D01*
X115464285Y-178702380D01*
X115583333Y-178464285D01*
X117130952Y-177273809D02*
X115464285Y-177273809D01*
X114630952Y-177273809D02*
X114750000Y-177392857D01*
X114869047Y-177273809D01*
X114750000Y-177154761D01*
X114630952Y-177273809D01*
X114869047Y-177273809D01*
X115464285Y-176083333D02*
X117964285Y-176083333D01*
X115583333Y-176083333D02*
X115464285Y-175845238D01*
X115464285Y-175369047D01*
X115583333Y-175130952D01*
X115702380Y-175011904D01*
X115940476Y-174892857D01*
X116654761Y-174892857D01*
X116892857Y-175011904D01*
X117011904Y-175130952D01*
X117130952Y-175369047D01*
X117130952Y-175845238D01*
X117011904Y-176083333D01*
X117130952Y-173821428D02*
X115464285Y-173821428D01*
X114630952Y-173821428D02*
X114750000Y-173940476D01*
X114869047Y-173821428D01*
X114750000Y-173702380D01*
X114630952Y-173821428D01*
X114869047Y-173821428D01*
X117130952Y-169297619D02*
X115940476Y-170130952D01*
X117130952Y-170726190D02*
X114630952Y-170726190D01*
X114630952Y-169773809D01*
X114750000Y-169535714D01*
X114869047Y-169416666D01*
X115107142Y-169297619D01*
X115464285Y-169297619D01*
X115702380Y-169416666D01*
X115821428Y-169535714D01*
X115940476Y-169773809D01*
X115940476Y-170726190D01*
X117011904Y-167273809D02*
X117130952Y-167511904D01*
X117130952Y-167988095D01*
X117011904Y-168226190D01*
X116773809Y-168345238D01*
X115821428Y-168345238D01*
X115583333Y-168226190D01*
X115464285Y-167988095D01*
X115464285Y-167511904D01*
X115583333Y-167273809D01*
X115821428Y-167154761D01*
X116059523Y-167154761D01*
X116297619Y-168345238D01*
X117130952Y-165726190D02*
X117011904Y-165964285D01*
X116773809Y-166083333D01*
X114630952Y-166083333D01*
X117130952Y-163702380D02*
X115821428Y-163702380D01*
X115583333Y-163821428D01*
X115464285Y-164059523D01*
X115464285Y-164535714D01*
X115583333Y-164773809D01*
X117011904Y-163702380D02*
X117130952Y-163940476D01*
X117130952Y-164535714D01*
X117011904Y-164773809D01*
X116773809Y-164892857D01*
X116535714Y-164892857D01*
X116297619Y-164773809D01*
X116178571Y-164535714D01*
X116178571Y-163940476D01*
X116059523Y-163702380D01*
X115464285Y-162750000D02*
X117130952Y-162154761D01*
X115464285Y-161559523D02*
X117130952Y-162154761D01*
X117726190Y-162392857D01*
X117845238Y-162511904D01*
X117964285Y-162750000D01*
X115821428Y-157869047D02*
X115940476Y-157511904D01*
X116059523Y-157392857D01*
X116297619Y-157273809D01*
X116654761Y-157273809D01*
X116892857Y-157392857D01*
X117011904Y-157511904D01*
X117130952Y-157750000D01*
X117130952Y-158702380D01*
X114630952Y-158702380D01*
X114630952Y-157869047D01*
X114750000Y-157630952D01*
X114869047Y-157511904D01*
X115107142Y-157392857D01*
X115345238Y-157392857D01*
X115583333Y-157511904D01*
X115702380Y-157630952D01*
X115821428Y-157869047D01*
X115821428Y-158702380D01*
X117130952Y-155845238D02*
X117011904Y-156083333D01*
X116892857Y-156202380D01*
X116654761Y-156321428D01*
X115940476Y-156321428D01*
X115702380Y-156202380D01*
X115583333Y-156083333D01*
X115464285Y-155845238D01*
X115464285Y-155488095D01*
X115583333Y-155250000D01*
X115702380Y-155130952D01*
X115940476Y-155011904D01*
X116654761Y-155011904D01*
X116892857Y-155130952D01*
X117011904Y-155250000D01*
X117130952Y-155488095D01*
X117130952Y-155845238D01*
X117130952Y-152869047D02*
X115821428Y-152869047D01*
X115583333Y-152988095D01*
X115464285Y-153226190D01*
X115464285Y-153702380D01*
X115583333Y-153940476D01*
X117011904Y-152869047D02*
X117130952Y-153107142D01*
X117130952Y-153702380D01*
X117011904Y-153940476D01*
X116773809Y-154059523D01*
X116535714Y-154059523D01*
X116297619Y-153940476D01*
X116178571Y-153702380D01*
X116178571Y-153107142D01*
X116059523Y-152869047D01*
X117130952Y-151678571D02*
X115464285Y-151678571D01*
X115940476Y-151678571D02*
X115702380Y-151559523D01*
X115583333Y-151440476D01*
X115464285Y-151202380D01*
X115464285Y-150964285D01*
X117130952Y-149059523D02*
X114630952Y-149059523D01*
X117011904Y-149059523D02*
X117130952Y-149297619D01*
X117130952Y-149773809D01*
X117011904Y-150011904D01*
X116892857Y-150130952D01*
X116654761Y-150250000D01*
X115940476Y-150250000D01*
X115702380Y-150130952D01*
X115583333Y-150011904D01*
X115464285Y-149773809D01*
X115464285Y-149297619D01*
X115583333Y-149059523D01*
X115464285Y-146202380D02*
X117130952Y-145607142D01*
X115464285Y-145011904D01*
X114630952Y-144297619D02*
X114630952Y-142750000D01*
X115583333Y-143583333D01*
X115583333Y-143226190D01*
X115702380Y-142988095D01*
X115821428Y-142869047D01*
X116059523Y-142750000D01*
X116654761Y-142750000D01*
X116892857Y-142869047D01*
X117011904Y-142988095D01*
X117130952Y-143226190D01*
X117130952Y-143940476D01*
X117011904Y-144178571D01*
X116892857Y-144297619D01*
X116892857Y-141678571D02*
X117011904Y-141559523D01*
X117130952Y-141678571D01*
X117011904Y-141797619D01*
X116892857Y-141678571D01*
X117130952Y-141678571D01*
X117130952Y-139178571D02*
X117130952Y-140607142D01*
X117130952Y-139892857D02*
X114630952Y-139892857D01*
X114988095Y-140130952D01*
X115226190Y-140369047D01*
X115345238Y-140607142D01*
X117130952Y-136202380D02*
X115464285Y-136202380D01*
X115702380Y-136202380D02*
X115583333Y-136083333D01*
X115464285Y-135845238D01*
X115464285Y-135488095D01*
X115583333Y-135250000D01*
X115821428Y-135130952D01*
X117130952Y-135130952D01*
X115821428Y-135130952D02*
X115583333Y-135011904D01*
X115464285Y-134773809D01*
X115464285Y-134416666D01*
X115583333Y-134178571D01*
X115821428Y-134059523D01*
X117130952Y-134059523D01*
X117130952Y-132869047D02*
X115464285Y-132869047D01*
X114630952Y-132869047D02*
X114750000Y-132988095D01*
X114869047Y-132869047D01*
X114750000Y-132750000D01*
X114630952Y-132869047D01*
X114869047Y-132869047D01*
X117011904Y-131797619D02*
X117130952Y-131559523D01*
X117130952Y-131083333D01*
X117011904Y-130845238D01*
X116773809Y-130726190D01*
X116654761Y-130726190D01*
X116416666Y-130845238D01*
X116297619Y-131083333D01*
X116297619Y-131440476D01*
X116178571Y-131678571D01*
X115940476Y-131797619D01*
X115821428Y-131797619D01*
X115583333Y-131678571D01*
X115464285Y-131440476D01*
X115464285Y-131083333D01*
X115583333Y-130845238D01*
X117130952Y-129654761D02*
X114630952Y-129654761D01*
X116178571Y-129416666D02*
X117130952Y-128702380D01*
X115464285Y-128702380D02*
X116416666Y-129654761D01*
X117130952Y-127273809D02*
X117011904Y-127511904D01*
X116892857Y-127630952D01*
X116654761Y-127750000D01*
X115940476Y-127750000D01*
X115702380Y-127630952D01*
X115583333Y-127511904D01*
X115464285Y-127273809D01*
X115464285Y-126916666D01*
X115583333Y-126678571D01*
X115702380Y-126559523D01*
X115940476Y-126440476D01*
X116654761Y-126440476D01*
X116892857Y-126559523D01*
X117011904Y-126678571D01*
X117130952Y-126916666D01*
X117130952Y-127273809D01*
X115940476Y-123821428D02*
X115821428Y-123940476D01*
X115702380Y-124178571D01*
X115702380Y-124416666D01*
X115821428Y-124654761D01*
X115940476Y-124773809D01*
X116178571Y-124892857D01*
X116416666Y-124892857D01*
X116654761Y-124773809D01*
X116773809Y-124654761D01*
X116892857Y-124416666D01*
X116892857Y-124178571D01*
X116773809Y-123940476D01*
X116654761Y-123821428D01*
X115702380Y-123821428D02*
X116654761Y-123821428D01*
X116773809Y-123702380D01*
X116773809Y-123583333D01*
X116654761Y-123345238D01*
X116416666Y-123226190D01*
X115821428Y-123226190D01*
X115464285Y-123464285D01*
X115226190Y-123821428D01*
X115107142Y-124297619D01*
X115226190Y-124773809D01*
X115464285Y-125130952D01*
X115821428Y-125369047D01*
X116297619Y-125488095D01*
X116773809Y-125369047D01*
X117130952Y-125130952D01*
X117369047Y-124773809D01*
X117488095Y-124297619D01*
X117369047Y-123821428D01*
X117130952Y-123464285D01*
X117011904Y-121083333D02*
X117130952Y-121321428D01*
X117130952Y-121797619D01*
X117011904Y-122035714D01*
X116892857Y-122154761D01*
X116654761Y-122273809D01*
X115940476Y-122273809D01*
X115702380Y-122154761D01*
X115583333Y-122035714D01*
X115464285Y-121797619D01*
X115464285Y-121321428D01*
X115583333Y-121083333D01*
X117011904Y-120130952D02*
X117130952Y-119892857D01*
X117130952Y-119416666D01*
X117011904Y-119178571D01*
X116773809Y-119059523D01*
X116654761Y-119059523D01*
X116416666Y-119178571D01*
X116297619Y-119416666D01*
X116297619Y-119773809D01*
X116178571Y-120011904D01*
X115940476Y-120130952D01*
X115821428Y-120130952D01*
X115583333Y-120011904D01*
X115464285Y-119773809D01*
X115464285Y-119416666D01*
X115583333Y-119178571D01*
X116892857Y-117988095D02*
X117011904Y-117869047D01*
X117130952Y-117988095D01*
X117011904Y-118107142D01*
X116892857Y-117988095D01*
X117130952Y-117988095D01*
X115464285Y-117154761D02*
X115464285Y-116202380D01*
X114630952Y-116797619D02*
X116773809Y-116797619D01*
X117011904Y-116678571D01*
X117130952Y-116440476D01*
X117130952Y-116202380D01*
X117130952Y-115011904D02*
X117011904Y-115250000D01*
X116892857Y-115369047D01*
X116654761Y-115488095D01*
X115940476Y-115488095D01*
X115702380Y-115369047D01*
X115583333Y-115250000D01*
X115464285Y-115011904D01*
X115464285Y-114654761D01*
X115583333Y-114416666D01*
X115702380Y-114297619D01*
X115940476Y-114178571D01*
X116654761Y-114178571D01*
X116892857Y-114297619D01*
X117011904Y-114416666D01*
X117130952Y-114654761D01*
X117130952Y-115011904D01*
X117130952Y-113107142D02*
X115464285Y-113107142D01*
X115940476Y-113107142D02*
X115702380Y-112988095D01*
X115583333Y-112869047D01*
X115464285Y-112630952D01*
X115464285Y-112392857D01*
X117130952Y-111202380D02*
X117011904Y-111440476D01*
X116892857Y-111559523D01*
X116654761Y-111678571D01*
X115940476Y-111678571D01*
X115702380Y-111559523D01*
X115583333Y-111440476D01*
X115464285Y-111202380D01*
X115464285Y-110845238D01*
X115583333Y-110607142D01*
X115702380Y-110488095D01*
X115940476Y-110369047D01*
X116654761Y-110369047D01*
X116892857Y-110488095D01*
X117011904Y-110607142D01*
X117130952Y-110845238D01*
X117130952Y-111202380D01*
X115464285Y-109297619D02*
X117130952Y-109297619D01*
X115702380Y-109297619D02*
X115583333Y-109178571D01*
X115464285Y-108940476D01*
X115464285Y-108583333D01*
X115583333Y-108345238D01*
X115821428Y-108226190D01*
X117130952Y-108226190D01*
X115464285Y-107392857D02*
X115464285Y-106440476D01*
X114630952Y-107035714D02*
X116773809Y-107035714D01*
X117011904Y-106916666D01*
X117130952Y-106678571D01*
X117130952Y-106440476D01*
X117130952Y-105250000D02*
X117011904Y-105488095D01*
X116892857Y-105607142D01*
X116654761Y-105726190D01*
X115940476Y-105726190D01*
X115702380Y-105607142D01*
X115583333Y-105488095D01*
X115464285Y-105250000D01*
X115464285Y-104892857D01*
X115583333Y-104654761D01*
X115702380Y-104535714D01*
X115940476Y-104416666D01*
X116654761Y-104416666D01*
X116892857Y-104535714D01*
X117011904Y-104654761D01*
X117130952Y-104892857D01*
X117130952Y-105250000D01*
X116892857Y-103345238D02*
X117011904Y-103226190D01*
X117130952Y-103345238D01*
X117011904Y-103464285D01*
X116892857Y-103345238D01*
X117130952Y-103345238D01*
X117011904Y-101202380D02*
X117130952Y-101440476D01*
X117130952Y-101916666D01*
X117011904Y-102154761D01*
X116773809Y-102273809D01*
X115821428Y-102273809D01*
X115583333Y-102154761D01*
X115464285Y-101916666D01*
X115464285Y-101440476D01*
X115583333Y-101202380D01*
X115821428Y-101083333D01*
X116059523Y-101083333D01*
X116297619Y-102273809D01*
X117130952Y-98940476D02*
X114630952Y-98940476D01*
X117011904Y-98940476D02*
X117130952Y-99178571D01*
X117130952Y-99654761D01*
X117011904Y-99892857D01*
X116892857Y-100011904D01*
X116654761Y-100130952D01*
X115940476Y-100130952D01*
X115702380Y-100011904D01*
X115583333Y-99892857D01*
X115464285Y-99654761D01*
X115464285Y-99178571D01*
X115583333Y-98940476D01*
X115464285Y-96678571D02*
X117130952Y-96678571D01*
X115464285Y-97750000D02*
X116773809Y-97750000D01*
X117011904Y-97630952D01*
X117130952Y-97392857D01*
X117130952Y-97035714D01*
X117011904Y-96797619D01*
X116892857Y-96678571D01*
D11*
%TO.C,U1*%
X63050000Y-94750000D02*
X75950000Y-94750000D01*
D12*
X62100000Y-95400000D02*
G75*
G03*
X62100000Y-95400000I-100000J0D01*
G01*
D11*
X63050000Y-109750000D02*
X65000000Y-109750000D01*
X75950000Y-109750000D02*
X74000000Y-109750000D01*
D13*
%TO.C,J11*%
X53170000Y-107990000D02*
X55830000Y-107990000D01*
X53170000Y-97770000D02*
X53170000Y-107990000D01*
X55830000Y-97770000D02*
X55830000Y-107990000D01*
X53170000Y-97770000D02*
X55830000Y-97770000D01*
X53170000Y-96500000D02*
X53170000Y-95170000D01*
X53170000Y-95170000D02*
X54500000Y-95170000D01*
D14*
%TO.C,J1*%
X51175000Y-121540000D02*
X44825000Y-121540000D01*
X51175000Y-116460000D02*
X51175000Y-121540000D01*
X44825000Y-116460000D02*
X51175000Y-116460000D01*
X44825000Y-121540000D02*
X44825000Y-116460000D01*
X45256800Y-121540000D02*
X44825000Y-121540000D01*
X45256800Y-122429000D02*
X45256800Y-121540000D01*
X50743200Y-122429000D02*
X45256800Y-122429000D01*
X50743200Y-121540000D02*
X50743200Y-122429000D01*
X51175000Y-121540000D02*
X50743200Y-121540000D01*
X50743200Y-116460000D02*
X51175000Y-116460000D01*
X50743200Y-115571000D02*
X50743200Y-116460000D01*
X45256800Y-115571000D02*
X50743200Y-115571000D01*
X45256800Y-116460000D02*
X45256800Y-115571000D01*
X44825000Y-116460000D02*
X45256800Y-116460000D01*
X50667000Y-121730500D02*
X50413000Y-121730500D01*
X50667000Y-122111500D02*
X50667000Y-121730500D01*
X50413000Y-122111500D02*
X50667000Y-122111500D01*
X50413000Y-121730500D02*
X50413000Y-122111500D01*
X44698000Y-116333000D02*
X44698000Y-121667000D01*
X51302000Y-121667000D02*
X51302000Y-116333000D01*
X44825000Y-123955540D02*
X45421900Y-122761740D01*
X46095000Y-123955540D02*
X44825000Y-123955540D01*
X45498100Y-122761740D02*
X46095000Y-123955540D01*
%TO.C,K2*%
X83767001Y-159977000D02*
X83767001Y-147223000D01*
X83767001Y-147223000D02*
X54713007Y-147223000D01*
X54713007Y-147223000D02*
X54713007Y-159977000D01*
X54713007Y-159977000D02*
X83767001Y-159977000D01*
%TO.C,K3*%
X84713007Y-159977000D02*
X113767001Y-159977000D01*
X84713007Y-147223000D02*
X84713007Y-159977000D01*
X113767001Y-147223000D02*
X84713007Y-147223000D01*
X113767001Y-159977000D02*
X113767001Y-147223000D01*
%TO.C,K1*%
X24713007Y-159977000D02*
X53767001Y-159977000D01*
X24713007Y-147223000D02*
X24713007Y-159977000D01*
X53767001Y-147223000D02*
X24713007Y-147223000D01*
X53767001Y-159977000D02*
X53767001Y-147223000D01*
D13*
%TO.C,D12*%
X103440000Y-160565000D02*
X100955000Y-160565000D01*
X100955000Y-160565000D02*
X100955000Y-161935000D01*
X100955000Y-161935000D02*
X103440000Y-161935000D01*
%TO.C,D11*%
X73440000Y-160565000D02*
X70955000Y-160565000D01*
X70955000Y-160565000D02*
X70955000Y-161935000D01*
X70955000Y-161935000D02*
X73440000Y-161935000D01*
%TO.C,D10*%
X43440000Y-160565000D02*
X40955000Y-160565000D01*
X40955000Y-160565000D02*
X40955000Y-161935000D01*
X40955000Y-161935000D02*
X43440000Y-161935000D01*
%TO.C,R24*%
X43967064Y-164160000D02*
X42512936Y-164160000D01*
X43967064Y-162340000D02*
X42512936Y-162340000D01*
%TO.C,R26*%
X103967064Y-164160000D02*
X102512936Y-164160000D01*
X103967064Y-162340000D02*
X102512936Y-162340000D01*
%TO.C,R25*%
X73967064Y-164160000D02*
X72512936Y-164160000D01*
X73967064Y-162340000D02*
X72512936Y-162340000D01*
%TO.C,R21*%
X35917500Y-162287258D02*
X35917500Y-161812742D01*
X36962500Y-162287258D02*
X36962500Y-161812742D01*
%TO.C,R23*%
X95917500Y-162287258D02*
X95917500Y-161812742D01*
X96962500Y-162287258D02*
X96962500Y-161812742D01*
%TO.C,R22*%
X65917500Y-162287258D02*
X65917500Y-161812742D01*
X66962500Y-162287258D02*
X66962500Y-161812742D01*
%TO.C,R16*%
X33467064Y-164260000D02*
X32012936Y-164260000D01*
X33467064Y-162440000D02*
X32012936Y-162440000D01*
%TO.C,R18*%
X93467064Y-164260000D02*
X92012936Y-164260000D01*
X93467064Y-162440000D02*
X92012936Y-162440000D01*
%TO.C,R17*%
X63467064Y-164260000D02*
X62012936Y-164260000D01*
X63467064Y-162440000D02*
X62012936Y-162440000D01*
%TO.C,R13*%
X25417500Y-162387258D02*
X25417500Y-161912742D01*
X26462500Y-162387258D02*
X26462500Y-161912742D01*
%TO.C,R15*%
X85417500Y-162387258D02*
X85417500Y-161912742D01*
X86462500Y-162387258D02*
X86462500Y-161912742D01*
%TO.C,R14*%
X55417500Y-162387258D02*
X55417500Y-161912742D01*
X56462500Y-162387258D02*
X56462500Y-161912742D01*
%TO.C,Q10*%
X39800000Y-163930000D02*
X39800000Y-163000000D01*
X39800000Y-160770000D02*
X39800000Y-161700000D01*
X39800000Y-160770000D02*
X37640000Y-160770000D01*
X39800000Y-163930000D02*
X38340000Y-163930000D01*
%TO.C,Q12*%
X99800000Y-163930000D02*
X99800000Y-163000000D01*
X99800000Y-160770000D02*
X99800000Y-161700000D01*
X99800000Y-160770000D02*
X97640000Y-160770000D01*
X99800000Y-163930000D02*
X98340000Y-163930000D01*
%TO.C,Q11*%
X69800000Y-163930000D02*
X69800000Y-163000000D01*
X69800000Y-160770000D02*
X69800000Y-161700000D01*
X69800000Y-160770000D02*
X67640000Y-160770000D01*
X69800000Y-163930000D02*
X68340000Y-163930000D01*
%TO.C,Q7*%
X29300000Y-164030000D02*
X29300000Y-163100000D01*
X29300000Y-160870000D02*
X29300000Y-161800000D01*
X29300000Y-160870000D02*
X27140000Y-160870000D01*
X29300000Y-164030000D02*
X27840000Y-164030000D01*
%TO.C,Q9*%
X89300000Y-164030000D02*
X89300000Y-163100000D01*
X89300000Y-160870000D02*
X89300000Y-161800000D01*
X89300000Y-160870000D02*
X87140000Y-160870000D01*
X89300000Y-164030000D02*
X87840000Y-164030000D01*
%TO.C,Q8*%
X59300000Y-164030000D02*
X59300000Y-163100000D01*
X59300000Y-160870000D02*
X59300000Y-161800000D01*
X59300000Y-160870000D02*
X57140000Y-160870000D01*
X59300000Y-164030000D02*
X57840000Y-164030000D01*
%TO.C,D7*%
X32940000Y-160665000D02*
X30455000Y-160665000D01*
X30455000Y-160665000D02*
X30455000Y-162035000D01*
X30455000Y-162035000D02*
X32940000Y-162035000D01*
%TO.C,D9*%
X92940000Y-160665000D02*
X90455000Y-160665000D01*
X90455000Y-160665000D02*
X90455000Y-162035000D01*
X90455000Y-162035000D02*
X92940000Y-162035000D01*
%TO.C,D8*%
X62940000Y-160665000D02*
X60455000Y-160665000D01*
X60455000Y-160665000D02*
X60455000Y-162035000D01*
X60455000Y-162035000D02*
X62940000Y-162035000D01*
%TO.C,J10*%
X88050000Y-99050000D02*
X89050000Y-99050000D01*
X92450000Y-99050000D02*
X93450000Y-99050000D01*
X95950000Y-102550000D02*
X95950000Y-101550000D01*
X95950000Y-106950000D02*
X95950000Y-105950000D01*
X92450000Y-109450000D02*
X93450000Y-109450000D01*
X88050000Y-109450000D02*
X89050000Y-109450000D01*
X85550000Y-105950000D02*
X85550000Y-106950000D01*
X85550000Y-101550000D02*
X85550000Y-102550000D01*
%TO.C,J8*%
X104550000Y-99050000D02*
X105550000Y-99050000D01*
X108950000Y-99050000D02*
X109950000Y-99050000D01*
X112450000Y-102550000D02*
X112450000Y-101550000D01*
X112450000Y-106950000D02*
X112450000Y-105950000D01*
X108950000Y-109450000D02*
X109950000Y-109450000D01*
X104550000Y-109450000D02*
X105550000Y-109450000D01*
X102050000Y-105950000D02*
X102050000Y-106950000D01*
X102050000Y-101550000D02*
X102050000Y-102550000D01*
%TO.C,J7*%
X106800000Y-175300000D02*
X109200000Y-175300000D01*
X104300000Y-180200000D02*
X104300000Y-177800000D01*
X109200000Y-182700000D02*
X106800000Y-182700000D01*
X111700000Y-177800000D02*
X111700000Y-180200000D01*
%TO.C,J6*%
X76800000Y-175300000D02*
X79200000Y-175300000D01*
X74300000Y-180200000D02*
X74300000Y-177800000D01*
X79200000Y-182700000D02*
X76800000Y-182700000D01*
X81700000Y-177800000D02*
X81700000Y-180200000D01*
%TO.C,J5*%
X46800000Y-175300000D02*
X49200000Y-175300000D01*
X44300000Y-180200000D02*
X44300000Y-177800000D01*
X49200000Y-182700000D02*
X46800000Y-182700000D01*
X51700000Y-177800000D02*
X51700000Y-180200000D01*
%TO.C,J4*%
X91800000Y-175300000D02*
X94200000Y-175300000D01*
X89300000Y-180200000D02*
X89300000Y-177800000D01*
X94200000Y-182700000D02*
X91800000Y-182700000D01*
X96700000Y-177800000D02*
X96700000Y-180200000D01*
%TO.C,J3*%
X61800000Y-175300000D02*
X64200000Y-175300000D01*
X59300000Y-180200000D02*
X59300000Y-177800000D01*
X64200000Y-182700000D02*
X61800000Y-182700000D01*
X66700000Y-177800000D02*
X66700000Y-180200000D01*
%TO.C,J2*%
X31800000Y-175300000D02*
X34200000Y-175300000D01*
X29300000Y-180200000D02*
X29300000Y-177800000D01*
X34200000Y-182700000D02*
X31800000Y-182700000D01*
X36700000Y-177800000D02*
X36700000Y-180200000D01*
%TO.C,R20*%
X90340000Y-119227064D02*
X90340000Y-117772936D01*
X92160000Y-119227064D02*
X92160000Y-117772936D01*
%TO.C,R19*%
X76370000Y-112653641D02*
X76370000Y-112346359D01*
X77130000Y-112653641D02*
X77130000Y-112346359D01*
%TO.C,F6*%
X113520000Y-130110000D02*
X106580000Y-130110000D01*
X106580000Y-130110000D02*
X106580000Y-146310000D01*
X106580000Y-146310000D02*
X113520000Y-146310000D01*
X113520000Y-146310000D02*
X113520000Y-130110000D01*
X110050000Y-137460000D02*
X110050000Y-138960000D01*
X108050000Y-139810000D02*
X108050000Y-136610000D01*
X112050000Y-136610000D02*
X112050000Y-139810000D01*
%TO.C,F5*%
X83610000Y-130210000D02*
X76670000Y-130210000D01*
X76670000Y-130210000D02*
X76670000Y-146410000D01*
X76670000Y-146410000D02*
X83610000Y-146410000D01*
X83610000Y-146410000D02*
X83610000Y-130210000D01*
X80140000Y-137560000D02*
X80140000Y-139060000D01*
X78140000Y-139910000D02*
X78140000Y-136710000D01*
X82140000Y-136710000D02*
X82140000Y-139910000D01*
%TO.C,F4*%
X53610000Y-130210000D02*
X46670000Y-130210000D01*
X46670000Y-130210000D02*
X46670000Y-146410000D01*
X46670000Y-146410000D02*
X53610000Y-146410000D01*
X53610000Y-146410000D02*
X53610000Y-130210000D01*
X50140000Y-137560000D02*
X50140000Y-139060000D01*
X48140000Y-139910000D02*
X48140000Y-136710000D01*
X52140000Y-136710000D02*
X52140000Y-139910000D01*
%TO.C,U6*%
X37900000Y-123750000D02*
X36400000Y-123750000D01*
X35950000Y-121450000D02*
X35950000Y-121550000D01*
X35950000Y-121450000D02*
X37900000Y-121450000D01*
%TO.C,U5*%
X31900000Y-123050000D02*
X30400000Y-123050000D01*
X29950000Y-120750000D02*
X29950000Y-120850000D01*
X29950000Y-120750000D02*
X31900000Y-120750000D01*
%TO.C,U4*%
X27350000Y-118660000D02*
X30350000Y-118660000D01*
X28850000Y-115940000D02*
X30350000Y-115940000D01*
%TO.C,U3*%
X87990000Y-120710000D02*
X89380000Y-120710000D01*
X87990000Y-118470000D02*
X87990000Y-120710000D01*
X80110000Y-118470000D02*
X87990000Y-118470000D01*
X80110000Y-120710000D02*
X80110000Y-118470000D01*
X78710000Y-120710000D02*
X80110000Y-120710000D01*
X78710000Y-120720000D02*
X78710000Y-122490000D01*
X78710000Y-122490000D02*
X89380000Y-122490000D01*
X89380000Y-122490000D02*
X89380000Y-120710000D01*
%TO.C,R30*%
X34187258Y-118577500D02*
X33712742Y-118577500D01*
X34187258Y-119622500D02*
X33712742Y-119622500D01*
%TO.C,R29*%
X32877500Y-116512742D02*
X32877500Y-116987258D01*
X33922500Y-116512742D02*
X33922500Y-116987258D01*
%TO.C,R28*%
X34072500Y-123237258D02*
X34072500Y-122762742D01*
X33027500Y-123237258D02*
X33027500Y-122762742D01*
%TO.C,R27*%
X34520000Y-116846359D02*
X34520000Y-117153641D01*
X35280000Y-116846359D02*
X35280000Y-117153641D01*
%TO.C,R12*%
X28831359Y-134115000D02*
X29138641Y-134115000D01*
X28831359Y-133355000D02*
X29138641Y-133355000D01*
%TO.C,R11*%
X28831359Y-133015000D02*
X29138641Y-133015000D01*
X28831359Y-132255000D02*
X29138641Y-132255000D01*
%TO.C,R10*%
X29641359Y-129765000D02*
X29948641Y-129765000D01*
X29641359Y-129005000D02*
X29948641Y-129005000D01*
%TO.C,R9*%
X31031359Y-138215000D02*
X31338641Y-138215000D01*
X31031359Y-137455000D02*
X31338641Y-137455000D01*
%TO.C,R8*%
X31641359Y-129765000D02*
X31948641Y-129765000D01*
X31641359Y-129005000D02*
X31948641Y-129005000D01*
%TO.C,R7*%
X33641359Y-129765000D02*
X33948641Y-129765000D01*
X33641359Y-129005000D02*
X33948641Y-129005000D01*
%TO.C,R4*%
X53740000Y-162350000D02*
X53740000Y-164350000D01*
X50740000Y-165150000D02*
X49940000Y-165150000D01*
X49940000Y-161550000D02*
X50740000Y-161550000D01*
X46940000Y-162350000D02*
X46940000Y-164350000D01*
%TO.C,R5*%
X83740000Y-162350000D02*
X83740000Y-164350000D01*
X80740000Y-165150000D02*
X79940000Y-165150000D01*
X79940000Y-161550000D02*
X80740000Y-161550000D01*
X76940000Y-162350000D02*
X76940000Y-164350000D01*
%TO.C,R3*%
X73880000Y-112653641D02*
X73880000Y-112346359D01*
X73120000Y-112653641D02*
X73120000Y-112346359D01*
%TO.C,R2*%
X71620000Y-112346359D02*
X71620000Y-112653641D01*
X72380000Y-112346359D02*
X72380000Y-112653641D01*
%TO.C,Q6*%
X88800000Y-142630000D02*
X87340000Y-142630000D01*
X88800000Y-139470000D02*
X86640000Y-139470000D01*
X88800000Y-139470000D02*
X88800000Y-140400000D01*
X88800000Y-142630000D02*
X88800000Y-141700000D01*
%TO.C,Q3*%
X88800000Y-146330000D02*
X87340000Y-146330000D01*
X88800000Y-143170000D02*
X86640000Y-143170000D01*
X88800000Y-143170000D02*
X88800000Y-144100000D01*
X88800000Y-146330000D02*
X88800000Y-145400000D01*
%TO.C,Q4*%
X28900000Y-142530000D02*
X27440000Y-142530000D01*
X28900000Y-139370000D02*
X26740000Y-139370000D01*
X28900000Y-139370000D02*
X28900000Y-140300000D01*
X28900000Y-142530000D02*
X28900000Y-141600000D01*
%TO.C,Q1*%
X28900000Y-146230000D02*
X27440000Y-146230000D01*
X28900000Y-143070000D02*
X26740000Y-143070000D01*
X28900000Y-143070000D02*
X28900000Y-144000000D01*
X28900000Y-146230000D02*
X28900000Y-145300000D01*
%TO.C,F3*%
X104050000Y-136610000D02*
X104050000Y-139810000D01*
X100050000Y-139810000D02*
X100050000Y-136610000D01*
X102050000Y-137460000D02*
X102050000Y-138960000D01*
X105520000Y-146310000D02*
X105520000Y-130110000D01*
X98580000Y-146310000D02*
X105520000Y-146310000D01*
X98580000Y-130110000D02*
X98580000Y-146310000D01*
X105520000Y-130110000D02*
X98580000Y-130110000D01*
%TO.C,F2*%
X74140000Y-136710000D02*
X74140000Y-139910000D01*
X70140000Y-139910000D02*
X70140000Y-136710000D01*
X72140000Y-137560000D02*
X72140000Y-139060000D01*
X75610000Y-146410000D02*
X75610000Y-130210000D01*
X68670000Y-146410000D02*
X75610000Y-146410000D01*
X68670000Y-130210000D02*
X68670000Y-146410000D01*
X75610000Y-130210000D02*
X68670000Y-130210000D01*
%TO.C,F1*%
X44140000Y-136710000D02*
X44140000Y-139910000D01*
X40140000Y-139910000D02*
X40140000Y-136710000D01*
X42140000Y-137560000D02*
X42140000Y-139060000D01*
X45610000Y-146410000D02*
X45610000Y-130210000D01*
X38670000Y-146410000D02*
X45610000Y-146410000D01*
X38670000Y-130210000D02*
X38670000Y-146410000D01*
X45610000Y-130210000D02*
X38670000Y-130210000D01*
%TO.C,D6*%
X96840000Y-142700000D02*
X91440000Y-142700000D01*
X96840000Y-139400000D02*
X91440000Y-139400000D01*
X96840000Y-142700000D02*
X96840000Y-139400000D01*
%TO.C,D3*%
X96840000Y-146400000D02*
X91440000Y-146400000D01*
X96840000Y-143100000D02*
X91440000Y-143100000D01*
X96840000Y-146400000D02*
X96840000Y-143100000D01*
%TO.C,D4*%
X36940000Y-142600000D02*
X31540000Y-142600000D01*
X36940000Y-139300000D02*
X31540000Y-139300000D01*
X36940000Y-142600000D02*
X36940000Y-139300000D01*
%TO.C,D1*%
X36940000Y-146300000D02*
X31540000Y-146300000D01*
X36940000Y-143000000D02*
X31540000Y-143000000D01*
X36940000Y-146300000D02*
X36940000Y-143000000D01*
%TO.C,C7*%
X35790000Y-116788748D02*
X35790000Y-118211252D01*
X38510000Y-116788748D02*
X38510000Y-118211252D01*
%TO.C,C6*%
X31140000Y-118909420D02*
X31140000Y-119190580D01*
X32160000Y-118909420D02*
X32160000Y-119190580D01*
%TO.C,C5*%
X25540000Y-117159420D02*
X25540000Y-117440580D01*
X26560000Y-117159420D02*
X26560000Y-117440580D01*
%TO.C,C4*%
X27440000Y-121488748D02*
X27440000Y-122911252D01*
X29260000Y-121488748D02*
X29260000Y-122911252D01*
%TO.C,C3*%
X24390000Y-116592164D02*
X24390000Y-116807836D01*
X25110000Y-116592164D02*
X25110000Y-116807836D01*
%TO.C,C2*%
X36545000Y-133742836D02*
X36545000Y-133527164D01*
X35825000Y-133742836D02*
X35825000Y-133527164D01*
%TO.C,BT1*%
X31300000Y-110790000D02*
X34800000Y-110790000D01*
X29220000Y-100250000D02*
X29220000Y-99620000D01*
X29220000Y-108710000D02*
X29220000Y-106250000D01*
X50780000Y-100250000D02*
X50780000Y-99620000D01*
X50780000Y-108710000D02*
X50780000Y-106250000D01*
X29220000Y-99620000D02*
X30660000Y-95670000D01*
X31300000Y-110790000D02*
X29220000Y-108710000D01*
X45200000Y-110790000D02*
X48700000Y-110790000D01*
X48700000Y-110790000D02*
X50780000Y-108710000D01*
X50780000Y-99620000D02*
X49340000Y-95670000D01*
X30674756Y-95661831D02*
G75*
G02*
X34000000Y-94700000I2015244J-738169D01*
G01*
X46003354Y-94683470D02*
G75*
G02*
X49340000Y-95670000I1306646J-1716530D01*
G01*
%TO.C,U2*%
X31475000Y-136715000D02*
X30775000Y-136715000D01*
X30775000Y-136715000D02*
X30775000Y-136015000D01*
X34295000Y-132495000D02*
X34995000Y-132495000D01*
X34995000Y-132495000D02*
X34995000Y-133195000D01*
X31475000Y-132495000D02*
X30775000Y-132495000D01*
X30775000Y-132495000D02*
X30775000Y-133195000D01*
X34295000Y-136715000D02*
X34995000Y-136715000D01*
%TO.C,S1*%
X93500000Y-115000000D02*
X93500000Y-127000000D01*
X105500000Y-115000000D02*
X105500000Y-127000000D01*
X93500000Y-127000000D02*
X105500000Y-127000000D01*
X93500000Y-115000000D02*
X105500000Y-115000000D01*
%TO.C,R6*%
X106940000Y-162350000D02*
X106940000Y-164350000D01*
X109940000Y-161550000D02*
X110740000Y-161550000D01*
X110740000Y-165150000D02*
X109940000Y-165150000D01*
X113740000Y-162350000D02*
X113740000Y-164350000D01*
%TO.C,Q5*%
X58700000Y-142630000D02*
X58700000Y-141700000D01*
X58700000Y-139470000D02*
X58700000Y-140400000D01*
X58700000Y-139470000D02*
X56540000Y-139470000D01*
X58700000Y-142630000D02*
X57240000Y-142630000D01*
%TO.C,Q2*%
X58700000Y-146330000D02*
X58700000Y-145400000D01*
X58700000Y-143170000D02*
X58700000Y-144100000D01*
X58700000Y-143170000D02*
X56540000Y-143170000D01*
X58700000Y-146330000D02*
X57240000Y-146330000D01*
%TO.C,D5*%
X66740000Y-142700000D02*
X66740000Y-139400000D01*
X66740000Y-139400000D02*
X61340000Y-139400000D01*
X66740000Y-142700000D02*
X61340000Y-142700000D01*
%TO.C,D2*%
X66740000Y-146400000D02*
X66740000Y-143100000D01*
X66740000Y-143100000D02*
X61340000Y-143100000D01*
X66740000Y-146400000D02*
X61340000Y-146400000D01*
%TO.C,U1*%
D15*
X64863095Y-93217380D02*
X64863095Y-94026904D01*
X64910714Y-94122142D01*
X64958333Y-94169761D01*
X65053571Y-94217380D01*
X65244047Y-94217380D01*
X65339285Y-94169761D01*
X65386904Y-94122142D01*
X65434523Y-94026904D01*
X65434523Y-93217380D01*
X66434523Y-94217380D02*
X65863095Y-94217380D01*
X66148809Y-94217380D02*
X66148809Y-93217380D01*
X66053571Y-93360238D01*
X65958333Y-93455476D01*
X65863095Y-93503095D01*
%TO.C,J11*%
D16*
X53690476Y-93622380D02*
X53690476Y-94336666D01*
X53642857Y-94479523D01*
X53547619Y-94574761D01*
X53404761Y-94622380D01*
X53309523Y-94622380D01*
X54690476Y-94622380D02*
X54119047Y-94622380D01*
X54404761Y-94622380D02*
X54404761Y-93622380D01*
X54309523Y-93765238D01*
X54214285Y-93860476D01*
X54119047Y-93908095D01*
X55642857Y-94622380D02*
X55071428Y-94622380D01*
X55357142Y-94622380D02*
X55357142Y-93622380D01*
X55261904Y-93765238D01*
X55166666Y-93860476D01*
X55071428Y-93908095D01*
%TO.C,J1*%
X47666666Y-118452380D02*
X47666666Y-119166666D01*
X47619047Y-119309523D01*
X47523809Y-119404761D01*
X47380952Y-119452380D01*
X47285714Y-119452380D01*
X48666666Y-119452380D02*
X48095238Y-119452380D01*
X48380952Y-119452380D02*
X48380952Y-118452380D01*
X48285714Y-118595238D01*
X48190476Y-118690476D01*
X48095238Y-118738095D01*
X39452380Y-118928571D02*
X39119047Y-118928571D01*
X39119047Y-119452380D02*
X39119047Y-118452380D01*
X39595238Y-118452380D01*
X39833333Y-118452380D02*
X40404761Y-118452380D01*
X40119047Y-119452380D02*
X40119047Y-118452380D01*
X40690476Y-119404761D02*
X40833333Y-119452380D01*
X41071428Y-119452380D01*
X41166666Y-119404761D01*
X41214285Y-119357142D01*
X41261904Y-119261904D01*
X41261904Y-119166666D01*
X41214285Y-119071428D01*
X41166666Y-119023809D01*
X41071428Y-118976190D01*
X40880952Y-118928571D01*
X40785714Y-118880952D01*
X40738095Y-118833333D01*
X40690476Y-118738095D01*
X40690476Y-118642857D01*
X40738095Y-118547619D01*
X40785714Y-118500000D01*
X40880952Y-118452380D01*
X41119047Y-118452380D01*
X41261904Y-118500000D01*
X41690476Y-119452380D02*
X41690476Y-118452380D01*
X41690476Y-118928571D02*
X42261904Y-118928571D01*
X42261904Y-119452380D02*
X42261904Y-118452380D01*
X42738095Y-119071428D02*
X43500000Y-119071428D01*
X44500000Y-119452380D02*
X43928571Y-119452380D01*
X44214285Y-119452380D02*
X44214285Y-118452380D01*
X44119047Y-118595238D01*
X44023809Y-118690476D01*
X43928571Y-118738095D01*
X45119047Y-118452380D02*
X45214285Y-118452380D01*
X45309523Y-118500000D01*
X45357142Y-118547619D01*
X45404761Y-118642857D01*
X45452380Y-118833333D01*
X45452380Y-119071428D01*
X45404761Y-119261904D01*
X45357142Y-119357142D01*
X45309523Y-119404761D01*
X45214285Y-119452380D01*
X45119047Y-119452380D01*
X45023809Y-119404761D01*
X44976190Y-119357142D01*
X44928571Y-119261904D01*
X44880952Y-119071428D01*
X44880952Y-118833333D01*
X44928571Y-118642857D01*
X44976190Y-118547619D01*
X45023809Y-118500000D01*
X45119047Y-118452380D01*
X46357142Y-118452380D02*
X45880952Y-118452380D01*
X45833333Y-118928571D01*
X45880952Y-118880952D01*
X45976190Y-118833333D01*
X46214285Y-118833333D01*
X46309523Y-118880952D01*
X46357142Y-118928571D01*
X46404761Y-119023809D01*
X46404761Y-119261904D01*
X46357142Y-119357142D01*
X46309523Y-119404761D01*
X46214285Y-119452380D01*
X45976190Y-119452380D01*
X45880952Y-119404761D01*
X45833333Y-119357142D01*
X46833333Y-119071428D02*
X47595238Y-119071428D01*
X48261904Y-118452380D02*
X48357142Y-118452380D01*
X48452380Y-118500000D01*
X48500000Y-118547619D01*
X48547619Y-118642857D01*
X48595238Y-118833333D01*
X48595238Y-119071428D01*
X48547619Y-119261904D01*
X48500000Y-119357142D01*
X48452380Y-119404761D01*
X48357142Y-119452380D01*
X48261904Y-119452380D01*
X48166666Y-119404761D01*
X48119047Y-119357142D01*
X48071428Y-119261904D01*
X48023809Y-119071428D01*
X48023809Y-118833333D01*
X48071428Y-118642857D01*
X48119047Y-118547619D01*
X48166666Y-118500000D01*
X48261904Y-118452380D01*
X49547619Y-119452380D02*
X48976190Y-119452380D01*
X49261904Y-119452380D02*
X49261904Y-118452380D01*
X49166666Y-118595238D01*
X49071428Y-118690476D01*
X48976190Y-118738095D01*
X49976190Y-119071428D02*
X50738095Y-119071428D01*
X51690476Y-119452380D02*
X51214285Y-119452380D01*
X51214285Y-118452380D01*
X52023809Y-119071428D02*
X52785714Y-119071428D01*
X53261904Y-119452380D02*
X53261904Y-118452380D01*
X53500000Y-118452380D01*
X53642857Y-118500000D01*
X53738095Y-118595238D01*
X53785714Y-118690476D01*
X53833333Y-118880952D01*
X53833333Y-119023809D01*
X53785714Y-119214285D01*
X53738095Y-119309523D01*
X53642857Y-119404761D01*
X53500000Y-119452380D01*
X53261904Y-119452380D01*
X54119047Y-118452380D02*
X54452380Y-119452380D01*
X54785714Y-118452380D01*
X55119047Y-119071428D02*
X55880952Y-119071428D01*
X56357142Y-119452380D02*
X56357142Y-118452380D01*
X56928571Y-119452380D02*
X56500000Y-118880952D01*
X56928571Y-118452380D02*
X56357142Y-119023809D01*
X48000000Y-118452380D02*
X48000000Y-118690476D01*
X47761904Y-118595238D02*
X48000000Y-118690476D01*
X48238095Y-118595238D01*
X47857142Y-118880952D02*
X48000000Y-118690476D01*
X48142857Y-118880952D01*
X44031285Y-116515619D02*
X44078904Y-116468000D01*
X44174142Y-116420380D01*
X44412238Y-116420380D01*
X44507476Y-116468000D01*
X44555095Y-116515619D01*
X44602714Y-116610857D01*
X44602714Y-116706095D01*
X44555095Y-116848952D01*
X43983666Y-117420380D01*
X44602714Y-117420380D01*
X44602714Y-121484380D02*
X44031285Y-121484380D01*
X44317000Y-121484380D02*
X44317000Y-120484380D01*
X44221761Y-120627238D01*
X44126523Y-120722476D01*
X44031285Y-120770095D01*
X51492523Y-117420380D02*
X50921095Y-117420380D01*
X51206809Y-117420380D02*
X51206809Y-116420380D01*
X51111571Y-116563238D01*
X51016333Y-116658476D01*
X50921095Y-116706095D01*
X52111571Y-116420380D02*
X52206809Y-116420380D01*
X52302047Y-116468000D01*
X52349666Y-116515619D01*
X52397285Y-116610857D01*
X52444904Y-116801333D01*
X52444904Y-117039428D01*
X52397285Y-117229904D01*
X52349666Y-117325142D01*
X52302047Y-117372761D01*
X52206809Y-117420380D01*
X52111571Y-117420380D01*
X52016333Y-117372761D01*
X51968714Y-117325142D01*
X51921095Y-117229904D01*
X51873476Y-117039428D01*
X51873476Y-116801333D01*
X51921095Y-116610857D01*
X51968714Y-116515619D01*
X52016333Y-116468000D01*
X52111571Y-116420380D01*
X51492523Y-121484380D02*
X51683000Y-121484380D01*
X51778238Y-121436761D01*
X51825857Y-121389142D01*
X51921095Y-121246285D01*
X51968714Y-121055809D01*
X51968714Y-120674857D01*
X51921095Y-120579619D01*
X51873476Y-120532000D01*
X51778238Y-120484380D01*
X51587761Y-120484380D01*
X51492523Y-120532000D01*
X51444904Y-120579619D01*
X51397285Y-120674857D01*
X51397285Y-120912952D01*
X51444904Y-121008190D01*
X51492523Y-121055809D01*
X51587761Y-121103428D01*
X51778238Y-121103428D01*
X51873476Y-121055809D01*
X51921095Y-121008190D01*
X51968714Y-120912952D01*
%TO.C,K2*%
X69692384Y-154338095D02*
X68692384Y-154338095D01*
X69692384Y-153766666D02*
X69120956Y-154195238D01*
X68692384Y-153766666D02*
X69263813Y-154338095D01*
X68787623Y-153385714D02*
X68740004Y-153338095D01*
X68692384Y-153242857D01*
X68692384Y-153004761D01*
X68740004Y-152909523D01*
X68787623Y-152861904D01*
X68882861Y-152814285D01*
X68978099Y-152814285D01*
X69120956Y-152861904D01*
X69692384Y-153433333D01*
X69692384Y-152814285D01*
X68740004Y-159242857D02*
X68692384Y-159338095D01*
X68692384Y-159480952D01*
X68740004Y-159623809D01*
X68835242Y-159719047D01*
X68930480Y-159766666D01*
X69120956Y-159814285D01*
X69263813Y-159814285D01*
X69454289Y-159766666D01*
X69549527Y-159719047D01*
X69644765Y-159623809D01*
X69692384Y-159480952D01*
X69692384Y-159385714D01*
X69644765Y-159242857D01*
X69597146Y-159195238D01*
X69263813Y-159195238D01*
X69263813Y-159385714D01*
X68692384Y-158290476D02*
X68692384Y-158766666D01*
X69168575Y-158814285D01*
X69120956Y-158766666D01*
X69073337Y-158671428D01*
X69073337Y-158433333D01*
X69120956Y-158338095D01*
X69168575Y-158290476D01*
X69263813Y-158242857D01*
X69501908Y-158242857D01*
X69597146Y-158290476D01*
X69644765Y-158338095D01*
X69692384Y-158433333D01*
X69692384Y-158671428D01*
X69644765Y-158766666D01*
X69597146Y-158814285D01*
X69692384Y-157242857D02*
X69216194Y-157576190D01*
X69692384Y-157814285D02*
X68692384Y-157814285D01*
X68692384Y-157433333D01*
X68740004Y-157338095D01*
X68787623Y-157290476D01*
X68882861Y-157242857D01*
X69025718Y-157242857D01*
X69120956Y-157290476D01*
X69168575Y-157338095D01*
X69216194Y-157433333D01*
X69216194Y-157814285D01*
X69692384Y-156338095D02*
X69692384Y-156814285D01*
X68692384Y-156814285D01*
X69311432Y-156004761D02*
X69311432Y-155242857D01*
X69692384Y-154766666D02*
X68692384Y-154766666D01*
X69692384Y-154195238D02*
X69120956Y-154623809D01*
X68692384Y-154195238D02*
X69263813Y-154766666D01*
X69692384Y-153242857D02*
X69692384Y-153814285D01*
X69692384Y-153528571D02*
X68692384Y-153528571D01*
X68835242Y-153623809D01*
X68930480Y-153719047D01*
X68978099Y-153814285D01*
X69311432Y-152814285D02*
X69311432Y-152052380D01*
X69168575Y-151576190D02*
X69168575Y-151242857D01*
X69692384Y-151100000D02*
X69692384Y-151576190D01*
X68692384Y-151576190D01*
X68692384Y-151100000D01*
X69787623Y-150909523D02*
X69787623Y-150147619D01*
X69692384Y-149909523D02*
X68692384Y-149909523D01*
X68692384Y-149671428D01*
X68740004Y-149528571D01*
X68835242Y-149433333D01*
X68930480Y-149385714D01*
X69120956Y-149338095D01*
X69263813Y-149338095D01*
X69454289Y-149385714D01*
X69549527Y-149433333D01*
X69644765Y-149528571D01*
X69692384Y-149671428D01*
X69692384Y-149909523D01*
X69597146Y-148338095D02*
X69644765Y-148385714D01*
X69692384Y-148528571D01*
X69692384Y-148623809D01*
X69644765Y-148766666D01*
X69549527Y-148861904D01*
X69454289Y-148909523D01*
X69263813Y-148957142D01*
X69120956Y-148957142D01*
X68930480Y-148909523D01*
X68835242Y-148861904D01*
X68740004Y-148766666D01*
X68692384Y-148623809D01*
X68692384Y-148528571D01*
X68740004Y-148385714D01*
X68787623Y-148338095D01*
X68692384Y-147433333D02*
X68692384Y-147909523D01*
X69168575Y-147957142D01*
X69120956Y-147909523D01*
X69073337Y-147814285D01*
X69073337Y-147576190D01*
X69120956Y-147480952D01*
X69168575Y-147433333D01*
X69263813Y-147385714D01*
X69501908Y-147385714D01*
X69597146Y-147433333D01*
X69644765Y-147480952D01*
X69692384Y-147576190D01*
X69692384Y-147814285D01*
X69644765Y-147909523D01*
X69597146Y-147957142D01*
X48659053Y-157350000D02*
X48897149Y-157350000D01*
X48801911Y-157588095D02*
X48897149Y-157350000D01*
X48801911Y-157111904D01*
X49087625Y-157492857D02*
X48897149Y-157350000D01*
X49087625Y-157207142D01*
X48659053Y-157350000D02*
X48897149Y-157350000D01*
X48801911Y-157588095D02*
X48897149Y-157350000D01*
X48801911Y-157111904D01*
X49087625Y-157492857D02*
X48897149Y-157350000D01*
X49087625Y-157207142D01*
%TO.C,K3*%
X99692384Y-154338095D02*
X98692384Y-154338095D01*
X99692384Y-153766666D02*
X99120956Y-154195238D01*
X98692384Y-153766666D02*
X99263813Y-154338095D01*
X98692384Y-153433333D02*
X98692384Y-152814285D01*
X99073337Y-153147619D01*
X99073337Y-153004761D01*
X99120956Y-152909523D01*
X99168575Y-152861904D01*
X99263813Y-152814285D01*
X99501908Y-152814285D01*
X99597146Y-152861904D01*
X99644765Y-152909523D01*
X99692384Y-153004761D01*
X99692384Y-153290476D01*
X99644765Y-153385714D01*
X99597146Y-153433333D01*
X98740004Y-159242857D02*
X98692384Y-159338095D01*
X98692384Y-159480952D01*
X98740004Y-159623809D01*
X98835242Y-159719047D01*
X98930480Y-159766666D01*
X99120956Y-159814285D01*
X99263813Y-159814285D01*
X99454289Y-159766666D01*
X99549527Y-159719047D01*
X99644765Y-159623809D01*
X99692384Y-159480952D01*
X99692384Y-159385714D01*
X99644765Y-159242857D01*
X99597146Y-159195238D01*
X99263813Y-159195238D01*
X99263813Y-159385714D01*
X98692384Y-158290476D02*
X98692384Y-158766666D01*
X99168575Y-158814285D01*
X99120956Y-158766666D01*
X99073337Y-158671428D01*
X99073337Y-158433333D01*
X99120956Y-158338095D01*
X99168575Y-158290476D01*
X99263813Y-158242857D01*
X99501908Y-158242857D01*
X99597146Y-158290476D01*
X99644765Y-158338095D01*
X99692384Y-158433333D01*
X99692384Y-158671428D01*
X99644765Y-158766666D01*
X99597146Y-158814285D01*
X99692384Y-157242857D02*
X99216194Y-157576190D01*
X99692384Y-157814285D02*
X98692384Y-157814285D01*
X98692384Y-157433333D01*
X98740004Y-157338095D01*
X98787623Y-157290476D01*
X98882861Y-157242857D01*
X99025718Y-157242857D01*
X99120956Y-157290476D01*
X99168575Y-157338095D01*
X99216194Y-157433333D01*
X99216194Y-157814285D01*
X99692384Y-156338095D02*
X99692384Y-156814285D01*
X98692384Y-156814285D01*
X99311432Y-156004761D02*
X99311432Y-155242857D01*
X99692384Y-154766666D02*
X98692384Y-154766666D01*
X99692384Y-154195238D02*
X99120956Y-154623809D01*
X98692384Y-154195238D02*
X99263813Y-154766666D01*
X99692384Y-153242857D02*
X99692384Y-153814285D01*
X99692384Y-153528571D02*
X98692384Y-153528571D01*
X98835242Y-153623809D01*
X98930480Y-153719047D01*
X98978099Y-153814285D01*
X99311432Y-152814285D02*
X99311432Y-152052380D01*
X99168575Y-151576190D02*
X99168575Y-151242857D01*
X99692384Y-151100000D02*
X99692384Y-151576190D01*
X98692384Y-151576190D01*
X98692384Y-151100000D01*
X99787623Y-150909523D02*
X99787623Y-150147619D01*
X99692384Y-149909523D02*
X98692384Y-149909523D01*
X98692384Y-149671428D01*
X98740004Y-149528571D01*
X98835242Y-149433333D01*
X98930480Y-149385714D01*
X99120956Y-149338095D01*
X99263813Y-149338095D01*
X99454289Y-149385714D01*
X99549527Y-149433333D01*
X99644765Y-149528571D01*
X99692384Y-149671428D01*
X99692384Y-149909523D01*
X99597146Y-148338095D02*
X99644765Y-148385714D01*
X99692384Y-148528571D01*
X99692384Y-148623809D01*
X99644765Y-148766666D01*
X99549527Y-148861904D01*
X99454289Y-148909523D01*
X99263813Y-148957142D01*
X99120956Y-148957142D01*
X98930480Y-148909523D01*
X98835242Y-148861904D01*
X98740004Y-148766666D01*
X98692384Y-148623809D01*
X98692384Y-148528571D01*
X98740004Y-148385714D01*
X98787623Y-148338095D01*
X98692384Y-147433333D02*
X98692384Y-147909523D01*
X99168575Y-147957142D01*
X99120956Y-147909523D01*
X99073337Y-147814285D01*
X99073337Y-147576190D01*
X99120956Y-147480952D01*
X99168575Y-147433333D01*
X99263813Y-147385714D01*
X99501908Y-147385714D01*
X99597146Y-147433333D01*
X99644765Y-147480952D01*
X99692384Y-147576190D01*
X99692384Y-147814285D01*
X99644765Y-147909523D01*
X99597146Y-147957142D01*
X78659053Y-157350000D02*
X78897149Y-157350000D01*
X78801911Y-157588095D02*
X78897149Y-157350000D01*
X78801911Y-157111904D01*
X79087625Y-157492857D02*
X78897149Y-157350000D01*
X79087625Y-157207142D01*
X78659053Y-157350000D02*
X78897149Y-157350000D01*
X78801911Y-157588095D02*
X78897149Y-157350000D01*
X78801911Y-157111904D01*
X79087625Y-157492857D02*
X78897149Y-157350000D01*
X79087625Y-157207142D01*
%TO.C,K1*%
X39692384Y-154338095D02*
X38692384Y-154338095D01*
X39692384Y-153766666D02*
X39120956Y-154195238D01*
X38692384Y-153766666D02*
X39263813Y-154338095D01*
X39692384Y-152814285D02*
X39692384Y-153385714D01*
X39692384Y-153100000D02*
X38692384Y-153100000D01*
X38835242Y-153195238D01*
X38930480Y-153290476D01*
X38978099Y-153385714D01*
X38740004Y-159242857D02*
X38692384Y-159338095D01*
X38692384Y-159480952D01*
X38740004Y-159623809D01*
X38835242Y-159719047D01*
X38930480Y-159766666D01*
X39120956Y-159814285D01*
X39263813Y-159814285D01*
X39454289Y-159766666D01*
X39549527Y-159719047D01*
X39644765Y-159623809D01*
X39692384Y-159480952D01*
X39692384Y-159385714D01*
X39644765Y-159242857D01*
X39597146Y-159195238D01*
X39263813Y-159195238D01*
X39263813Y-159385714D01*
X38692384Y-158290476D02*
X38692384Y-158766666D01*
X39168575Y-158814285D01*
X39120956Y-158766666D01*
X39073337Y-158671428D01*
X39073337Y-158433333D01*
X39120956Y-158338095D01*
X39168575Y-158290476D01*
X39263813Y-158242857D01*
X39501908Y-158242857D01*
X39597146Y-158290476D01*
X39644765Y-158338095D01*
X39692384Y-158433333D01*
X39692384Y-158671428D01*
X39644765Y-158766666D01*
X39597146Y-158814285D01*
X39692384Y-157242857D02*
X39216194Y-157576190D01*
X39692384Y-157814285D02*
X38692384Y-157814285D01*
X38692384Y-157433333D01*
X38740004Y-157338095D01*
X38787623Y-157290476D01*
X38882861Y-157242857D01*
X39025718Y-157242857D01*
X39120956Y-157290476D01*
X39168575Y-157338095D01*
X39216194Y-157433333D01*
X39216194Y-157814285D01*
X39692384Y-156338095D02*
X39692384Y-156814285D01*
X38692384Y-156814285D01*
X39311432Y-156004761D02*
X39311432Y-155242857D01*
X39692384Y-154766666D02*
X38692384Y-154766666D01*
X39692384Y-154195238D02*
X39120956Y-154623809D01*
X38692384Y-154195238D02*
X39263813Y-154766666D01*
X39692384Y-153242857D02*
X39692384Y-153814285D01*
X39692384Y-153528571D02*
X38692384Y-153528571D01*
X38835242Y-153623809D01*
X38930480Y-153719047D01*
X38978099Y-153814285D01*
X39311432Y-152814285D02*
X39311432Y-152052380D01*
X39168575Y-151576190D02*
X39168575Y-151242857D01*
X39692384Y-151100000D02*
X39692384Y-151576190D01*
X38692384Y-151576190D01*
X38692384Y-151100000D01*
X39787623Y-150909523D02*
X39787623Y-150147619D01*
X39692384Y-149909523D02*
X38692384Y-149909523D01*
X38692384Y-149671428D01*
X38740004Y-149528571D01*
X38835242Y-149433333D01*
X38930480Y-149385714D01*
X39120956Y-149338095D01*
X39263813Y-149338095D01*
X39454289Y-149385714D01*
X39549527Y-149433333D01*
X39644765Y-149528571D01*
X39692384Y-149671428D01*
X39692384Y-149909523D01*
X39597146Y-148338095D02*
X39644765Y-148385714D01*
X39692384Y-148528571D01*
X39692384Y-148623809D01*
X39644765Y-148766666D01*
X39549527Y-148861904D01*
X39454289Y-148909523D01*
X39263813Y-148957142D01*
X39120956Y-148957142D01*
X38930480Y-148909523D01*
X38835242Y-148861904D01*
X38740004Y-148766666D01*
X38692384Y-148623809D01*
X38692384Y-148528571D01*
X38740004Y-148385714D01*
X38787623Y-148338095D01*
X38692384Y-147433333D02*
X38692384Y-147909523D01*
X39168575Y-147957142D01*
X39120956Y-147909523D01*
X39073337Y-147814285D01*
X39073337Y-147576190D01*
X39120956Y-147480952D01*
X39168575Y-147433333D01*
X39263813Y-147385714D01*
X39501908Y-147385714D01*
X39597146Y-147433333D01*
X39644765Y-147480952D01*
X39692384Y-147576190D01*
X39692384Y-147814285D01*
X39644765Y-147909523D01*
X39597146Y-147957142D01*
X26702380Y-167250000D02*
X26940476Y-167250000D01*
X26845238Y-167488095D02*
X26940476Y-167250000D01*
X26845238Y-167011904D01*
X27130952Y-167392857D02*
X26940476Y-167250000D01*
X27130952Y-167107142D01*
X28702380Y-166250000D02*
X28940476Y-166250000D01*
X28845238Y-166488095D02*
X28940476Y-166250000D01*
X28845238Y-166011904D01*
X29130952Y-166392857D02*
X28940476Y-166250000D01*
X29130952Y-166107142D01*
%TO.C,D12*%
X104625714Y-161802380D02*
X104625714Y-160802380D01*
X104863809Y-160802380D01*
X105006666Y-160850000D01*
X105101904Y-160945238D01*
X105149523Y-161040476D01*
X105197142Y-161230952D01*
X105197142Y-161373809D01*
X105149523Y-161564285D01*
X105101904Y-161659523D01*
X105006666Y-161754761D01*
X104863809Y-161802380D01*
X104625714Y-161802380D01*
X106149523Y-161802380D02*
X105578095Y-161802380D01*
X105863809Y-161802380D02*
X105863809Y-160802380D01*
X105768571Y-160945238D01*
X105673333Y-161040476D01*
X105578095Y-161088095D01*
X106530476Y-160897619D02*
X106578095Y-160850000D01*
X106673333Y-160802380D01*
X106911428Y-160802380D01*
X107006666Y-160850000D01*
X107054285Y-160897619D01*
X107101904Y-160992857D01*
X107101904Y-161088095D01*
X107054285Y-161230952D01*
X106482857Y-161802380D01*
X107101904Y-161802380D01*
%TO.C,D11*%
X74725714Y-161702380D02*
X74725714Y-160702380D01*
X74963809Y-160702380D01*
X75106666Y-160750000D01*
X75201904Y-160845238D01*
X75249523Y-160940476D01*
X75297142Y-161130952D01*
X75297142Y-161273809D01*
X75249523Y-161464285D01*
X75201904Y-161559523D01*
X75106666Y-161654761D01*
X74963809Y-161702380D01*
X74725714Y-161702380D01*
X76249523Y-161702380D02*
X75678095Y-161702380D01*
X75963809Y-161702380D02*
X75963809Y-160702380D01*
X75868571Y-160845238D01*
X75773333Y-160940476D01*
X75678095Y-160988095D01*
X77201904Y-161702380D02*
X76630476Y-161702380D01*
X76916190Y-161702380D02*
X76916190Y-160702380D01*
X76820952Y-160845238D01*
X76725714Y-160940476D01*
X76630476Y-160988095D01*
%TO.C,D10*%
X44625714Y-161702380D02*
X44625714Y-160702380D01*
X44863809Y-160702380D01*
X45006666Y-160750000D01*
X45101904Y-160845238D01*
X45149523Y-160940476D01*
X45197142Y-161130952D01*
X45197142Y-161273809D01*
X45149523Y-161464285D01*
X45101904Y-161559523D01*
X45006666Y-161654761D01*
X44863809Y-161702380D01*
X44625714Y-161702380D01*
X46149523Y-161702380D02*
X45578095Y-161702380D01*
X45863809Y-161702380D02*
X45863809Y-160702380D01*
X45768571Y-160845238D01*
X45673333Y-160940476D01*
X45578095Y-160988095D01*
X46768571Y-160702380D02*
X46863809Y-160702380D01*
X46959047Y-160750000D01*
X47006666Y-160797619D01*
X47054285Y-160892857D01*
X47101904Y-161083333D01*
X47101904Y-161321428D01*
X47054285Y-161511904D01*
X47006666Y-161607142D01*
X46959047Y-161654761D01*
X46863809Y-161702380D01*
X46768571Y-161702380D01*
X46673333Y-161654761D01*
X46625714Y-161607142D01*
X46578095Y-161511904D01*
X46530476Y-161321428D01*
X46530476Y-161083333D01*
X46578095Y-160892857D01*
X46625714Y-160797619D01*
X46673333Y-160750000D01*
X46768571Y-160702380D01*
%TO.C,R24*%
X42537142Y-165492380D02*
X42203809Y-165016190D01*
X41965714Y-165492380D02*
X41965714Y-164492380D01*
X42346666Y-164492380D01*
X42441904Y-164540000D01*
X42489523Y-164587619D01*
X42537142Y-164682857D01*
X42537142Y-164825714D01*
X42489523Y-164920952D01*
X42441904Y-164968571D01*
X42346666Y-165016190D01*
X41965714Y-165016190D01*
X42918095Y-164587619D02*
X42965714Y-164540000D01*
X43060952Y-164492380D01*
X43299047Y-164492380D01*
X43394285Y-164540000D01*
X43441904Y-164587619D01*
X43489523Y-164682857D01*
X43489523Y-164778095D01*
X43441904Y-164920952D01*
X42870476Y-165492380D01*
X43489523Y-165492380D01*
X44346666Y-164825714D02*
X44346666Y-165492380D01*
X44108571Y-164444761D02*
X43870476Y-165159047D01*
X44489523Y-165159047D01*
%TO.C,R26*%
X103397142Y-165652380D02*
X103063809Y-165176190D01*
X102825714Y-165652380D02*
X102825714Y-164652380D01*
X103206666Y-164652380D01*
X103301904Y-164700000D01*
X103349523Y-164747619D01*
X103397142Y-164842857D01*
X103397142Y-164985714D01*
X103349523Y-165080952D01*
X103301904Y-165128571D01*
X103206666Y-165176190D01*
X102825714Y-165176190D01*
X103778095Y-164747619D02*
X103825714Y-164700000D01*
X103920952Y-164652380D01*
X104159047Y-164652380D01*
X104254285Y-164700000D01*
X104301904Y-164747619D01*
X104349523Y-164842857D01*
X104349523Y-164938095D01*
X104301904Y-165080952D01*
X103730476Y-165652380D01*
X104349523Y-165652380D01*
X105206666Y-164652380D02*
X105016190Y-164652380D01*
X104920952Y-164700000D01*
X104873333Y-164747619D01*
X104778095Y-164890476D01*
X104730476Y-165080952D01*
X104730476Y-165461904D01*
X104778095Y-165557142D01*
X104825714Y-165604761D01*
X104920952Y-165652380D01*
X105111428Y-165652380D01*
X105206666Y-165604761D01*
X105254285Y-165557142D01*
X105301904Y-165461904D01*
X105301904Y-165223809D01*
X105254285Y-165128571D01*
X105206666Y-165080952D01*
X105111428Y-165033333D01*
X104920952Y-165033333D01*
X104825714Y-165080952D01*
X104778095Y-165128571D01*
X104730476Y-165223809D01*
%TO.C,R25*%
X72247142Y-165332380D02*
X71913809Y-164856190D01*
X71675714Y-165332380D02*
X71675714Y-164332380D01*
X72056666Y-164332380D01*
X72151904Y-164380000D01*
X72199523Y-164427619D01*
X72247142Y-164522857D01*
X72247142Y-164665714D01*
X72199523Y-164760952D01*
X72151904Y-164808571D01*
X72056666Y-164856190D01*
X71675714Y-164856190D01*
X72628095Y-164427619D02*
X72675714Y-164380000D01*
X72770952Y-164332380D01*
X73009047Y-164332380D01*
X73104285Y-164380000D01*
X73151904Y-164427619D01*
X73199523Y-164522857D01*
X73199523Y-164618095D01*
X73151904Y-164760952D01*
X72580476Y-165332380D01*
X73199523Y-165332380D01*
X74104285Y-164332380D02*
X73628095Y-164332380D01*
X73580476Y-164808571D01*
X73628095Y-164760952D01*
X73723333Y-164713333D01*
X73961428Y-164713333D01*
X74056666Y-164760952D01*
X74104285Y-164808571D01*
X74151904Y-164903809D01*
X74151904Y-165141904D01*
X74104285Y-165237142D01*
X74056666Y-165284761D01*
X73961428Y-165332380D01*
X73723333Y-165332380D01*
X73628095Y-165284761D01*
X73580476Y-165237142D01*
%TO.C,R21*%
X35887142Y-165462380D02*
X35553809Y-164986190D01*
X35315714Y-165462380D02*
X35315714Y-164462380D01*
X35696666Y-164462380D01*
X35791904Y-164510000D01*
X35839523Y-164557619D01*
X35887142Y-164652857D01*
X35887142Y-164795714D01*
X35839523Y-164890952D01*
X35791904Y-164938571D01*
X35696666Y-164986190D01*
X35315714Y-164986190D01*
X36268095Y-164557619D02*
X36315714Y-164510000D01*
X36410952Y-164462380D01*
X36649047Y-164462380D01*
X36744285Y-164510000D01*
X36791904Y-164557619D01*
X36839523Y-164652857D01*
X36839523Y-164748095D01*
X36791904Y-164890952D01*
X36220476Y-165462380D01*
X36839523Y-165462380D01*
X37791904Y-165462380D02*
X37220476Y-165462380D01*
X37506190Y-165462380D02*
X37506190Y-164462380D01*
X37410952Y-164605238D01*
X37315714Y-164700476D01*
X37220476Y-164748095D01*
%TO.C,R23*%
X95717142Y-165002380D02*
X95383809Y-164526190D01*
X95145714Y-165002380D02*
X95145714Y-164002380D01*
X95526666Y-164002380D01*
X95621904Y-164050000D01*
X95669523Y-164097619D01*
X95717142Y-164192857D01*
X95717142Y-164335714D01*
X95669523Y-164430952D01*
X95621904Y-164478571D01*
X95526666Y-164526190D01*
X95145714Y-164526190D01*
X96098095Y-164097619D02*
X96145714Y-164050000D01*
X96240952Y-164002380D01*
X96479047Y-164002380D01*
X96574285Y-164050000D01*
X96621904Y-164097619D01*
X96669523Y-164192857D01*
X96669523Y-164288095D01*
X96621904Y-164430952D01*
X96050476Y-165002380D01*
X96669523Y-165002380D01*
X97002857Y-164002380D02*
X97621904Y-164002380D01*
X97288571Y-164383333D01*
X97431428Y-164383333D01*
X97526666Y-164430952D01*
X97574285Y-164478571D01*
X97621904Y-164573809D01*
X97621904Y-164811904D01*
X97574285Y-164907142D01*
X97526666Y-164954761D01*
X97431428Y-165002380D01*
X97145714Y-165002380D01*
X97050476Y-164954761D01*
X97002857Y-164907142D01*
%TO.C,R22*%
X65727142Y-165042380D02*
X65393809Y-164566190D01*
X65155714Y-165042380D02*
X65155714Y-164042380D01*
X65536666Y-164042380D01*
X65631904Y-164090000D01*
X65679523Y-164137619D01*
X65727142Y-164232857D01*
X65727142Y-164375714D01*
X65679523Y-164470952D01*
X65631904Y-164518571D01*
X65536666Y-164566190D01*
X65155714Y-164566190D01*
X66108095Y-164137619D02*
X66155714Y-164090000D01*
X66250952Y-164042380D01*
X66489047Y-164042380D01*
X66584285Y-164090000D01*
X66631904Y-164137619D01*
X66679523Y-164232857D01*
X66679523Y-164328095D01*
X66631904Y-164470952D01*
X66060476Y-165042380D01*
X66679523Y-165042380D01*
X67060476Y-164137619D02*
X67108095Y-164090000D01*
X67203333Y-164042380D01*
X67441428Y-164042380D01*
X67536666Y-164090000D01*
X67584285Y-164137619D01*
X67631904Y-164232857D01*
X67631904Y-164328095D01*
X67584285Y-164470952D01*
X67012857Y-165042380D01*
X67631904Y-165042380D01*
%TO.C,R16*%
X31987142Y-165722380D02*
X31653809Y-165246190D01*
X31415714Y-165722380D02*
X31415714Y-164722380D01*
X31796666Y-164722380D01*
X31891904Y-164770000D01*
X31939523Y-164817619D01*
X31987142Y-164912857D01*
X31987142Y-165055714D01*
X31939523Y-165150952D01*
X31891904Y-165198571D01*
X31796666Y-165246190D01*
X31415714Y-165246190D01*
X32939523Y-165722380D02*
X32368095Y-165722380D01*
X32653809Y-165722380D02*
X32653809Y-164722380D01*
X32558571Y-164865238D01*
X32463333Y-164960476D01*
X32368095Y-165008095D01*
X33796666Y-164722380D02*
X33606190Y-164722380D01*
X33510952Y-164770000D01*
X33463333Y-164817619D01*
X33368095Y-164960476D01*
X33320476Y-165150952D01*
X33320476Y-165531904D01*
X33368095Y-165627142D01*
X33415714Y-165674761D01*
X33510952Y-165722380D01*
X33701428Y-165722380D01*
X33796666Y-165674761D01*
X33844285Y-165627142D01*
X33891904Y-165531904D01*
X33891904Y-165293809D01*
X33844285Y-165198571D01*
X33796666Y-165150952D01*
X33701428Y-165103333D01*
X33510952Y-165103333D01*
X33415714Y-165150952D01*
X33368095Y-165198571D01*
X33320476Y-165293809D01*
%TO.C,R18*%
X92017142Y-165752380D02*
X91683809Y-165276190D01*
X91445714Y-165752380D02*
X91445714Y-164752380D01*
X91826666Y-164752380D01*
X91921904Y-164800000D01*
X91969523Y-164847619D01*
X92017142Y-164942857D01*
X92017142Y-165085714D01*
X91969523Y-165180952D01*
X91921904Y-165228571D01*
X91826666Y-165276190D01*
X91445714Y-165276190D01*
X92969523Y-165752380D02*
X92398095Y-165752380D01*
X92683809Y-165752380D02*
X92683809Y-164752380D01*
X92588571Y-164895238D01*
X92493333Y-164990476D01*
X92398095Y-165038095D01*
X93540952Y-165180952D02*
X93445714Y-165133333D01*
X93398095Y-165085714D01*
X93350476Y-164990476D01*
X93350476Y-164942857D01*
X93398095Y-164847619D01*
X93445714Y-164800000D01*
X93540952Y-164752380D01*
X93731428Y-164752380D01*
X93826666Y-164800000D01*
X93874285Y-164847619D01*
X93921904Y-164942857D01*
X93921904Y-164990476D01*
X93874285Y-165085714D01*
X93826666Y-165133333D01*
X93731428Y-165180952D01*
X93540952Y-165180952D01*
X93445714Y-165228571D01*
X93398095Y-165276190D01*
X93350476Y-165371428D01*
X93350476Y-165561904D01*
X93398095Y-165657142D01*
X93445714Y-165704761D01*
X93540952Y-165752380D01*
X93731428Y-165752380D01*
X93826666Y-165704761D01*
X93874285Y-165657142D01*
X93921904Y-165561904D01*
X93921904Y-165371428D01*
X93874285Y-165276190D01*
X93826666Y-165228571D01*
X93731428Y-165180952D01*
%TO.C,R17*%
X61967142Y-165652380D02*
X61633809Y-165176190D01*
X61395714Y-165652380D02*
X61395714Y-164652380D01*
X61776666Y-164652380D01*
X61871904Y-164700000D01*
X61919523Y-164747619D01*
X61967142Y-164842857D01*
X61967142Y-164985714D01*
X61919523Y-165080952D01*
X61871904Y-165128571D01*
X61776666Y-165176190D01*
X61395714Y-165176190D01*
X62919523Y-165652380D02*
X62348095Y-165652380D01*
X62633809Y-165652380D02*
X62633809Y-164652380D01*
X62538571Y-164795238D01*
X62443333Y-164890476D01*
X62348095Y-164938095D01*
X63252857Y-164652380D02*
X63919523Y-164652380D01*
X63490952Y-165652380D01*
%TO.C,R13*%
X24667142Y-164862380D02*
X24333809Y-164386190D01*
X24095714Y-164862380D02*
X24095714Y-163862380D01*
X24476666Y-163862380D01*
X24571904Y-163910000D01*
X24619523Y-163957619D01*
X24667142Y-164052857D01*
X24667142Y-164195714D01*
X24619523Y-164290952D01*
X24571904Y-164338571D01*
X24476666Y-164386190D01*
X24095714Y-164386190D01*
X25619523Y-164862380D02*
X25048095Y-164862380D01*
X25333809Y-164862380D02*
X25333809Y-163862380D01*
X25238571Y-164005238D01*
X25143333Y-164100476D01*
X25048095Y-164148095D01*
X25952857Y-163862380D02*
X26571904Y-163862380D01*
X26238571Y-164243333D01*
X26381428Y-164243333D01*
X26476666Y-164290952D01*
X26524285Y-164338571D01*
X26571904Y-164433809D01*
X26571904Y-164671904D01*
X26524285Y-164767142D01*
X26476666Y-164814761D01*
X26381428Y-164862380D01*
X26095714Y-164862380D01*
X26000476Y-164814761D01*
X25952857Y-164767142D01*
%TO.C,R15*%
X84967142Y-164922380D02*
X84633809Y-164446190D01*
X84395714Y-164922380D02*
X84395714Y-163922380D01*
X84776666Y-163922380D01*
X84871904Y-163970000D01*
X84919523Y-164017619D01*
X84967142Y-164112857D01*
X84967142Y-164255714D01*
X84919523Y-164350952D01*
X84871904Y-164398571D01*
X84776666Y-164446190D01*
X84395714Y-164446190D01*
X85919523Y-164922380D02*
X85348095Y-164922380D01*
X85633809Y-164922380D02*
X85633809Y-163922380D01*
X85538571Y-164065238D01*
X85443333Y-164160476D01*
X85348095Y-164208095D01*
X86824285Y-163922380D02*
X86348095Y-163922380D01*
X86300476Y-164398571D01*
X86348095Y-164350952D01*
X86443333Y-164303333D01*
X86681428Y-164303333D01*
X86776666Y-164350952D01*
X86824285Y-164398571D01*
X86871904Y-164493809D01*
X86871904Y-164731904D01*
X86824285Y-164827142D01*
X86776666Y-164874761D01*
X86681428Y-164922380D01*
X86443333Y-164922380D01*
X86348095Y-164874761D01*
X86300476Y-164827142D01*
%TO.C,R14*%
X54967142Y-164822380D02*
X54633809Y-164346190D01*
X54395714Y-164822380D02*
X54395714Y-163822380D01*
X54776666Y-163822380D01*
X54871904Y-163870000D01*
X54919523Y-163917619D01*
X54967142Y-164012857D01*
X54967142Y-164155714D01*
X54919523Y-164250952D01*
X54871904Y-164298571D01*
X54776666Y-164346190D01*
X54395714Y-164346190D01*
X55919523Y-164822380D02*
X55348095Y-164822380D01*
X55633809Y-164822380D02*
X55633809Y-163822380D01*
X55538571Y-163965238D01*
X55443333Y-164060476D01*
X55348095Y-164108095D01*
X56776666Y-164155714D02*
X56776666Y-164822380D01*
X56538571Y-163774761D02*
X56300476Y-164489047D01*
X56919523Y-164489047D01*
%TO.C,Q10*%
X38898571Y-165427619D02*
X38803333Y-165380000D01*
X38708095Y-165284761D01*
X38565238Y-165141904D01*
X38470000Y-165094285D01*
X38374761Y-165094285D01*
X38422380Y-165332380D02*
X38327142Y-165284761D01*
X38231904Y-165189523D01*
X38184285Y-164999047D01*
X38184285Y-164665714D01*
X38231904Y-164475238D01*
X38327142Y-164380000D01*
X38422380Y-164332380D01*
X38612857Y-164332380D01*
X38708095Y-164380000D01*
X38803333Y-164475238D01*
X38850952Y-164665714D01*
X38850952Y-164999047D01*
X38803333Y-165189523D01*
X38708095Y-165284761D01*
X38612857Y-165332380D01*
X38422380Y-165332380D01*
X39803333Y-165332380D02*
X39231904Y-165332380D01*
X39517619Y-165332380D02*
X39517619Y-164332380D01*
X39422380Y-164475238D01*
X39327142Y-164570476D01*
X39231904Y-164618095D01*
X40422380Y-164332380D02*
X40517619Y-164332380D01*
X40612857Y-164380000D01*
X40660476Y-164427619D01*
X40708095Y-164522857D01*
X40755714Y-164713333D01*
X40755714Y-164951428D01*
X40708095Y-165141904D01*
X40660476Y-165237142D01*
X40612857Y-165284761D01*
X40517619Y-165332380D01*
X40422380Y-165332380D01*
X40327142Y-165284761D01*
X40279523Y-165237142D01*
X40231904Y-165141904D01*
X40184285Y-164951428D01*
X40184285Y-164713333D01*
X40231904Y-164522857D01*
X40279523Y-164427619D01*
X40327142Y-164380000D01*
X40422380Y-164332380D01*
%TO.C,Q12*%
X99138571Y-165687619D02*
X99043333Y-165640000D01*
X98948095Y-165544761D01*
X98805238Y-165401904D01*
X98710000Y-165354285D01*
X98614761Y-165354285D01*
X98662380Y-165592380D02*
X98567142Y-165544761D01*
X98471904Y-165449523D01*
X98424285Y-165259047D01*
X98424285Y-164925714D01*
X98471904Y-164735238D01*
X98567142Y-164640000D01*
X98662380Y-164592380D01*
X98852857Y-164592380D01*
X98948095Y-164640000D01*
X99043333Y-164735238D01*
X99090952Y-164925714D01*
X99090952Y-165259047D01*
X99043333Y-165449523D01*
X98948095Y-165544761D01*
X98852857Y-165592380D01*
X98662380Y-165592380D01*
X100043333Y-165592380D02*
X99471904Y-165592380D01*
X99757619Y-165592380D02*
X99757619Y-164592380D01*
X99662380Y-164735238D01*
X99567142Y-164830476D01*
X99471904Y-164878095D01*
X100424285Y-164687619D02*
X100471904Y-164640000D01*
X100567142Y-164592380D01*
X100805238Y-164592380D01*
X100900476Y-164640000D01*
X100948095Y-164687619D01*
X100995714Y-164782857D01*
X100995714Y-164878095D01*
X100948095Y-165020952D01*
X100376666Y-165592380D01*
X100995714Y-165592380D01*
%TO.C,Q11*%
X68898571Y-165467619D02*
X68803333Y-165420000D01*
X68708095Y-165324761D01*
X68565238Y-165181904D01*
X68470000Y-165134285D01*
X68374761Y-165134285D01*
X68422380Y-165372380D02*
X68327142Y-165324761D01*
X68231904Y-165229523D01*
X68184285Y-165039047D01*
X68184285Y-164705714D01*
X68231904Y-164515238D01*
X68327142Y-164420000D01*
X68422380Y-164372380D01*
X68612857Y-164372380D01*
X68708095Y-164420000D01*
X68803333Y-164515238D01*
X68850952Y-164705714D01*
X68850952Y-165039047D01*
X68803333Y-165229523D01*
X68708095Y-165324761D01*
X68612857Y-165372380D01*
X68422380Y-165372380D01*
X69803333Y-165372380D02*
X69231904Y-165372380D01*
X69517619Y-165372380D02*
X69517619Y-164372380D01*
X69422380Y-164515238D01*
X69327142Y-164610476D01*
X69231904Y-164658095D01*
X70755714Y-165372380D02*
X70184285Y-165372380D01*
X70470000Y-165372380D02*
X70470000Y-164372380D01*
X70374761Y-164515238D01*
X70279523Y-164610476D01*
X70184285Y-164658095D01*
%TO.C,Q7*%
X28544761Y-165377619D02*
X28449523Y-165330000D01*
X28354285Y-165234761D01*
X28211428Y-165091904D01*
X28116190Y-165044285D01*
X28020952Y-165044285D01*
X28068571Y-165282380D02*
X27973333Y-165234761D01*
X27878095Y-165139523D01*
X27830476Y-164949047D01*
X27830476Y-164615714D01*
X27878095Y-164425238D01*
X27973333Y-164330000D01*
X28068571Y-164282380D01*
X28259047Y-164282380D01*
X28354285Y-164330000D01*
X28449523Y-164425238D01*
X28497142Y-164615714D01*
X28497142Y-164949047D01*
X28449523Y-165139523D01*
X28354285Y-165234761D01*
X28259047Y-165282380D01*
X28068571Y-165282380D01*
X28830476Y-164282380D02*
X29497142Y-164282380D01*
X29068571Y-165282380D01*
%TO.C,Q9*%
X89134761Y-165427619D02*
X89039523Y-165380000D01*
X88944285Y-165284761D01*
X88801428Y-165141904D01*
X88706190Y-165094285D01*
X88610952Y-165094285D01*
X88658571Y-165332380D02*
X88563333Y-165284761D01*
X88468095Y-165189523D01*
X88420476Y-164999047D01*
X88420476Y-164665714D01*
X88468095Y-164475238D01*
X88563333Y-164380000D01*
X88658571Y-164332380D01*
X88849047Y-164332380D01*
X88944285Y-164380000D01*
X89039523Y-164475238D01*
X89087142Y-164665714D01*
X89087142Y-164999047D01*
X89039523Y-165189523D01*
X88944285Y-165284761D01*
X88849047Y-165332380D01*
X88658571Y-165332380D01*
X89563333Y-165332380D02*
X89753809Y-165332380D01*
X89849047Y-165284761D01*
X89896666Y-165237142D01*
X89991904Y-165094285D01*
X90039523Y-164903809D01*
X90039523Y-164522857D01*
X89991904Y-164427619D01*
X89944285Y-164380000D01*
X89849047Y-164332380D01*
X89658571Y-164332380D01*
X89563333Y-164380000D01*
X89515714Y-164427619D01*
X89468095Y-164522857D01*
X89468095Y-164760952D01*
X89515714Y-164856190D01*
X89563333Y-164903809D01*
X89658571Y-164951428D01*
X89849047Y-164951428D01*
X89944285Y-164903809D01*
X89991904Y-164856190D01*
X90039523Y-164760952D01*
%TO.C,Q8*%
X58874761Y-165477619D02*
X58779523Y-165430000D01*
X58684285Y-165334761D01*
X58541428Y-165191904D01*
X58446190Y-165144285D01*
X58350952Y-165144285D01*
X58398571Y-165382380D02*
X58303333Y-165334761D01*
X58208095Y-165239523D01*
X58160476Y-165049047D01*
X58160476Y-164715714D01*
X58208095Y-164525238D01*
X58303333Y-164430000D01*
X58398571Y-164382380D01*
X58589047Y-164382380D01*
X58684285Y-164430000D01*
X58779523Y-164525238D01*
X58827142Y-164715714D01*
X58827142Y-165049047D01*
X58779523Y-165239523D01*
X58684285Y-165334761D01*
X58589047Y-165382380D01*
X58398571Y-165382380D01*
X59398571Y-164810952D02*
X59303333Y-164763333D01*
X59255714Y-164715714D01*
X59208095Y-164620476D01*
X59208095Y-164572857D01*
X59255714Y-164477619D01*
X59303333Y-164430000D01*
X59398571Y-164382380D01*
X59589047Y-164382380D01*
X59684285Y-164430000D01*
X59731904Y-164477619D01*
X59779523Y-164572857D01*
X59779523Y-164620476D01*
X59731904Y-164715714D01*
X59684285Y-164763333D01*
X59589047Y-164810952D01*
X59398571Y-164810952D01*
X59303333Y-164858571D01*
X59255714Y-164906190D01*
X59208095Y-165001428D01*
X59208095Y-165191904D01*
X59255714Y-165287142D01*
X59303333Y-165334761D01*
X59398571Y-165382380D01*
X59589047Y-165382380D01*
X59684285Y-165334761D01*
X59731904Y-165287142D01*
X59779523Y-165191904D01*
X59779523Y-165001428D01*
X59731904Y-164906190D01*
X59684285Y-164858571D01*
X59589047Y-164810952D01*
%TO.C,D7*%
X34031904Y-162052380D02*
X34031904Y-161052380D01*
X34270000Y-161052380D01*
X34412857Y-161100000D01*
X34508095Y-161195238D01*
X34555714Y-161290476D01*
X34603333Y-161480952D01*
X34603333Y-161623809D01*
X34555714Y-161814285D01*
X34508095Y-161909523D01*
X34412857Y-162004761D01*
X34270000Y-162052380D01*
X34031904Y-162052380D01*
X34936666Y-161052380D02*
X35603333Y-161052380D01*
X35174761Y-162052380D01*
%TO.C,D9*%
X94001904Y-161902380D02*
X94001904Y-160902380D01*
X94240000Y-160902380D01*
X94382857Y-160950000D01*
X94478095Y-161045238D01*
X94525714Y-161140476D01*
X94573333Y-161330952D01*
X94573333Y-161473809D01*
X94525714Y-161664285D01*
X94478095Y-161759523D01*
X94382857Y-161854761D01*
X94240000Y-161902380D01*
X94001904Y-161902380D01*
X95049523Y-161902380D02*
X95240000Y-161902380D01*
X95335238Y-161854761D01*
X95382857Y-161807142D01*
X95478095Y-161664285D01*
X95525714Y-161473809D01*
X95525714Y-161092857D01*
X95478095Y-160997619D01*
X95430476Y-160950000D01*
X95335238Y-160902380D01*
X95144761Y-160902380D01*
X95049523Y-160950000D01*
X95001904Y-160997619D01*
X94954285Y-161092857D01*
X94954285Y-161330952D01*
X95001904Y-161426190D01*
X95049523Y-161473809D01*
X95144761Y-161521428D01*
X95335238Y-161521428D01*
X95430476Y-161473809D01*
X95478095Y-161426190D01*
X95525714Y-161330952D01*
%TO.C,D8*%
X64081904Y-161712380D02*
X64081904Y-160712380D01*
X64320000Y-160712380D01*
X64462857Y-160760000D01*
X64558095Y-160855238D01*
X64605714Y-160950476D01*
X64653333Y-161140952D01*
X64653333Y-161283809D01*
X64605714Y-161474285D01*
X64558095Y-161569523D01*
X64462857Y-161664761D01*
X64320000Y-161712380D01*
X64081904Y-161712380D01*
X65224761Y-161140952D02*
X65129523Y-161093333D01*
X65081904Y-161045714D01*
X65034285Y-160950476D01*
X65034285Y-160902857D01*
X65081904Y-160807619D01*
X65129523Y-160760000D01*
X65224761Y-160712380D01*
X65415238Y-160712380D01*
X65510476Y-160760000D01*
X65558095Y-160807619D01*
X65605714Y-160902857D01*
X65605714Y-160950476D01*
X65558095Y-161045714D01*
X65510476Y-161093333D01*
X65415238Y-161140952D01*
X65224761Y-161140952D01*
X65129523Y-161188571D01*
X65081904Y-161236190D01*
X65034285Y-161331428D01*
X65034285Y-161521904D01*
X65081904Y-161617142D01*
X65129523Y-161664761D01*
X65224761Y-161712380D01*
X65415238Y-161712380D01*
X65510476Y-161664761D01*
X65558095Y-161617142D01*
X65605714Y-161521904D01*
X65605714Y-161331428D01*
X65558095Y-161236190D01*
X65510476Y-161188571D01*
X65415238Y-161140952D01*
%TO.C,J10*%
X89940476Y-96202380D02*
X89940476Y-96916666D01*
X89892857Y-97059523D01*
X89797619Y-97154761D01*
X89654761Y-97202380D01*
X89559523Y-97202380D01*
X90940476Y-97202380D02*
X90369047Y-97202380D01*
X90654761Y-97202380D02*
X90654761Y-96202380D01*
X90559523Y-96345238D01*
X90464285Y-96440476D01*
X90369047Y-96488095D01*
X91559523Y-96202380D02*
X91654761Y-96202380D01*
X91750000Y-96250000D01*
X91797619Y-96297619D01*
X91845238Y-96392857D01*
X91892857Y-96583333D01*
X91892857Y-96821428D01*
X91845238Y-97011904D01*
X91797619Y-97107142D01*
X91750000Y-97154761D01*
X91654761Y-97202380D01*
X91559523Y-97202380D01*
X91464285Y-97154761D01*
X91416666Y-97107142D01*
X91369047Y-97011904D01*
X91321428Y-96821428D01*
X91321428Y-96583333D01*
X91369047Y-96392857D01*
X91416666Y-96297619D01*
X91464285Y-96250000D01*
X91559523Y-96202380D01*
%TO.C,J8*%
X106916666Y-96202380D02*
X106916666Y-96916666D01*
X106869047Y-97059523D01*
X106773809Y-97154761D01*
X106630952Y-97202380D01*
X106535714Y-97202380D01*
X107535714Y-96630952D02*
X107440476Y-96583333D01*
X107392857Y-96535714D01*
X107345238Y-96440476D01*
X107345238Y-96392857D01*
X107392857Y-96297619D01*
X107440476Y-96250000D01*
X107535714Y-96202380D01*
X107726190Y-96202380D01*
X107821428Y-96250000D01*
X107869047Y-96297619D01*
X107916666Y-96392857D01*
X107916666Y-96440476D01*
X107869047Y-96535714D01*
X107821428Y-96583333D01*
X107726190Y-96630952D01*
X107535714Y-96630952D01*
X107440476Y-96678571D01*
X107392857Y-96726190D01*
X107345238Y-96821428D01*
X107345238Y-97011904D01*
X107392857Y-97107142D01*
X107440476Y-97154761D01*
X107535714Y-97202380D01*
X107726190Y-97202380D01*
X107821428Y-97154761D01*
X107869047Y-97107142D01*
X107916666Y-97011904D01*
X107916666Y-96821428D01*
X107869047Y-96726190D01*
X107821428Y-96678571D01*
X107726190Y-96630952D01*
%TO.C,J7*%
X107666666Y-172452380D02*
X107666666Y-173166666D01*
X107619047Y-173309523D01*
X107523809Y-173404761D01*
X107380952Y-173452380D01*
X107285714Y-173452380D01*
X108047619Y-172452380D02*
X108714285Y-172452380D01*
X108285714Y-173452380D01*
%TO.C,J6*%
X77666666Y-172452380D02*
X77666666Y-173166666D01*
X77619047Y-173309523D01*
X77523809Y-173404761D01*
X77380952Y-173452380D01*
X77285714Y-173452380D01*
X78571428Y-172452380D02*
X78380952Y-172452380D01*
X78285714Y-172500000D01*
X78238095Y-172547619D01*
X78142857Y-172690476D01*
X78095238Y-172880952D01*
X78095238Y-173261904D01*
X78142857Y-173357142D01*
X78190476Y-173404761D01*
X78285714Y-173452380D01*
X78476190Y-173452380D01*
X78571428Y-173404761D01*
X78619047Y-173357142D01*
X78666666Y-173261904D01*
X78666666Y-173023809D01*
X78619047Y-172928571D01*
X78571428Y-172880952D01*
X78476190Y-172833333D01*
X78285714Y-172833333D01*
X78190476Y-172880952D01*
X78142857Y-172928571D01*
X78095238Y-173023809D01*
%TO.C,J5*%
X47666666Y-172452380D02*
X47666666Y-173166666D01*
X47619047Y-173309523D01*
X47523809Y-173404761D01*
X47380952Y-173452380D01*
X47285714Y-173452380D01*
X48619047Y-172452380D02*
X48142857Y-172452380D01*
X48095238Y-172928571D01*
X48142857Y-172880952D01*
X48238095Y-172833333D01*
X48476190Y-172833333D01*
X48571428Y-172880952D01*
X48619047Y-172928571D01*
X48666666Y-173023809D01*
X48666666Y-173261904D01*
X48619047Y-173357142D01*
X48571428Y-173404761D01*
X48476190Y-173452380D01*
X48238095Y-173452380D01*
X48142857Y-173404761D01*
X48095238Y-173357142D01*
%TO.C,J4*%
X92666666Y-172452380D02*
X92666666Y-173166666D01*
X92619047Y-173309523D01*
X92523809Y-173404761D01*
X92380952Y-173452380D01*
X92285714Y-173452380D01*
X93571428Y-172785714D02*
X93571428Y-173452380D01*
X93333333Y-172404761D02*
X93095238Y-173119047D01*
X93714285Y-173119047D01*
%TO.C,J3*%
X62666666Y-172452380D02*
X62666666Y-173166666D01*
X62619047Y-173309523D01*
X62523809Y-173404761D01*
X62380952Y-173452380D01*
X62285714Y-173452380D01*
X63047619Y-172452380D02*
X63666666Y-172452380D01*
X63333333Y-172833333D01*
X63476190Y-172833333D01*
X63571428Y-172880952D01*
X63619047Y-172928571D01*
X63666666Y-173023809D01*
X63666666Y-173261904D01*
X63619047Y-173357142D01*
X63571428Y-173404761D01*
X63476190Y-173452380D01*
X63190476Y-173452380D01*
X63095238Y-173404761D01*
X63047619Y-173357142D01*
%TO.C,J2*%
X32666666Y-172452380D02*
X32666666Y-173166666D01*
X32619047Y-173309523D01*
X32523809Y-173404761D01*
X32380952Y-173452380D01*
X32285714Y-173452380D01*
X33095238Y-172547619D02*
X33142857Y-172500000D01*
X33238095Y-172452380D01*
X33476190Y-172452380D01*
X33571428Y-172500000D01*
X33619047Y-172547619D01*
X33666666Y-172642857D01*
X33666666Y-172738095D01*
X33619047Y-172880952D01*
X33047619Y-173452380D01*
X33666666Y-173452380D01*
%TO.C,R20*%
X91452380Y-122892857D02*
X90976190Y-123226190D01*
X91452380Y-123464285D02*
X90452380Y-123464285D01*
X90452380Y-123083333D01*
X90500000Y-122988095D01*
X90547619Y-122940476D01*
X90642857Y-122892857D01*
X90785714Y-122892857D01*
X90880952Y-122940476D01*
X90928571Y-122988095D01*
X90976190Y-123083333D01*
X90976190Y-123464285D01*
X90547619Y-122511904D02*
X90500000Y-122464285D01*
X90452380Y-122369047D01*
X90452380Y-122130952D01*
X90500000Y-122035714D01*
X90547619Y-121988095D01*
X90642857Y-121940476D01*
X90738095Y-121940476D01*
X90880952Y-121988095D01*
X91452380Y-122559523D01*
X91452380Y-121940476D01*
X90452380Y-121321428D02*
X90452380Y-121226190D01*
X90500000Y-121130952D01*
X90547619Y-121083333D01*
X90642857Y-121035714D01*
X90833333Y-120988095D01*
X91071428Y-120988095D01*
X91261904Y-121035714D01*
X91357142Y-121083333D01*
X91404761Y-121130952D01*
X91452380Y-121226190D01*
X91452380Y-121321428D01*
X91404761Y-121416666D01*
X91357142Y-121464285D01*
X91261904Y-121511904D01*
X91071428Y-121559523D01*
X90833333Y-121559523D01*
X90642857Y-121511904D01*
X90547619Y-121464285D01*
X90500000Y-121416666D01*
X90452380Y-121321428D01*
%TO.C,R19*%
X75611142Y-115316380D02*
X75277809Y-114840190D01*
X75039714Y-115316380D02*
X75039714Y-114316380D01*
X75420666Y-114316380D01*
X75515904Y-114364000D01*
X75563523Y-114411619D01*
X75611142Y-114506857D01*
X75611142Y-114649714D01*
X75563523Y-114744952D01*
X75515904Y-114792571D01*
X75420666Y-114840190D01*
X75039714Y-114840190D01*
X76563523Y-115316380D02*
X75992095Y-115316380D01*
X76277809Y-115316380D02*
X76277809Y-114316380D01*
X76182571Y-114459238D01*
X76087333Y-114554476D01*
X75992095Y-114602095D01*
X77039714Y-115316380D02*
X77230190Y-115316380D01*
X77325428Y-115268761D01*
X77373047Y-115221142D01*
X77468285Y-115078285D01*
X77515904Y-114887809D01*
X77515904Y-114506857D01*
X77468285Y-114411619D01*
X77420666Y-114364000D01*
X77325428Y-114316380D01*
X77134952Y-114316380D01*
X77039714Y-114364000D01*
X76992095Y-114411619D01*
X76944476Y-114506857D01*
X76944476Y-114744952D01*
X76992095Y-114840190D01*
X77039714Y-114887809D01*
X77134952Y-114935428D01*
X77325428Y-114935428D01*
X77420666Y-114887809D01*
X77468285Y-114840190D01*
X77515904Y-114744952D01*
%TO.C,F6*%
X114348571Y-138543333D02*
X114348571Y-138876666D01*
X114872380Y-138876666D02*
X113872380Y-138876666D01*
X113872380Y-138400476D01*
X113872380Y-137590952D02*
X113872380Y-137781428D01*
X113920000Y-137876666D01*
X113967619Y-137924285D01*
X114110476Y-138019523D01*
X114300952Y-138067142D01*
X114681904Y-138067142D01*
X114777142Y-138019523D01*
X114824761Y-137971904D01*
X114872380Y-137876666D01*
X114872380Y-137686190D01*
X114824761Y-137590952D01*
X114777142Y-137543333D01*
X114681904Y-137495714D01*
X114443809Y-137495714D01*
X114348571Y-137543333D01*
X114300952Y-137590952D01*
X114253333Y-137686190D01*
X114253333Y-137876666D01*
X114300952Y-137971904D01*
X114348571Y-138019523D01*
X114443809Y-138067142D01*
%TO.C,F5*%
X84438571Y-138643333D02*
X84438571Y-138976666D01*
X84962380Y-138976666D02*
X83962380Y-138976666D01*
X83962380Y-138500476D01*
X83962380Y-137643333D02*
X83962380Y-138119523D01*
X84438571Y-138167142D01*
X84390952Y-138119523D01*
X84343333Y-138024285D01*
X84343333Y-137786190D01*
X84390952Y-137690952D01*
X84438571Y-137643333D01*
X84533809Y-137595714D01*
X84771904Y-137595714D01*
X84867142Y-137643333D01*
X84914761Y-137690952D01*
X84962380Y-137786190D01*
X84962380Y-138024285D01*
X84914761Y-138119523D01*
X84867142Y-138167142D01*
%TO.C,F4*%
X54438571Y-138643333D02*
X54438571Y-138976666D01*
X54962380Y-138976666D02*
X53962380Y-138976666D01*
X53962380Y-138500476D01*
X54295714Y-137690952D02*
X54962380Y-137690952D01*
X53914761Y-137929047D02*
X54629047Y-138167142D01*
X54629047Y-137548095D01*
%TO.C,U6*%
X36388095Y-120302380D02*
X36388095Y-121111904D01*
X36435714Y-121207142D01*
X36483333Y-121254761D01*
X36578571Y-121302380D01*
X36769047Y-121302380D01*
X36864285Y-121254761D01*
X36911904Y-121207142D01*
X36959523Y-121111904D01*
X36959523Y-120302380D01*
X37864285Y-120302380D02*
X37673809Y-120302380D01*
X37578571Y-120350000D01*
X37530952Y-120397619D01*
X37435714Y-120540476D01*
X37388095Y-120730952D01*
X37388095Y-121111904D01*
X37435714Y-121207142D01*
X37483333Y-121254761D01*
X37578571Y-121302380D01*
X37769047Y-121302380D01*
X37864285Y-121254761D01*
X37911904Y-121207142D01*
X37959523Y-121111904D01*
X37959523Y-120873809D01*
X37911904Y-120778571D01*
X37864285Y-120730952D01*
X37769047Y-120683333D01*
X37578571Y-120683333D01*
X37483333Y-120730952D01*
X37435714Y-120778571D01*
X37388095Y-120873809D01*
%TO.C,U5*%
X30388095Y-119602380D02*
X30388095Y-120411904D01*
X30435714Y-120507142D01*
X30483333Y-120554761D01*
X30578571Y-120602380D01*
X30769047Y-120602380D01*
X30864285Y-120554761D01*
X30911904Y-120507142D01*
X30959523Y-120411904D01*
X30959523Y-119602380D01*
X31911904Y-119602380D02*
X31435714Y-119602380D01*
X31388095Y-120078571D01*
X31435714Y-120030952D01*
X31530952Y-119983333D01*
X31769047Y-119983333D01*
X31864285Y-120030952D01*
X31911904Y-120078571D01*
X31959523Y-120173809D01*
X31959523Y-120411904D01*
X31911904Y-120507142D01*
X31864285Y-120554761D01*
X31769047Y-120602380D01*
X31530952Y-120602380D01*
X31435714Y-120554761D01*
X31388095Y-120507142D01*
%TO.C,U4*%
X28088095Y-114552380D02*
X28088095Y-115361904D01*
X28135714Y-115457142D01*
X28183333Y-115504761D01*
X28278571Y-115552380D01*
X28469047Y-115552380D01*
X28564285Y-115504761D01*
X28611904Y-115457142D01*
X28659523Y-115361904D01*
X28659523Y-114552380D01*
X29564285Y-114885714D02*
X29564285Y-115552380D01*
X29326190Y-114504761D02*
X29088095Y-115219047D01*
X29707142Y-115219047D01*
%TO.C,U3*%
X83288095Y-116482380D02*
X83288095Y-117291904D01*
X83335714Y-117387142D01*
X83383333Y-117434761D01*
X83478571Y-117482380D01*
X83669047Y-117482380D01*
X83764285Y-117434761D01*
X83811904Y-117387142D01*
X83859523Y-117291904D01*
X83859523Y-116482380D01*
X84240476Y-116482380D02*
X84859523Y-116482380D01*
X84526190Y-116863333D01*
X84669047Y-116863333D01*
X84764285Y-116910952D01*
X84811904Y-116958571D01*
X84859523Y-117053809D01*
X84859523Y-117291904D01*
X84811904Y-117387142D01*
X84764285Y-117434761D01*
X84669047Y-117482380D01*
X84383333Y-117482380D01*
X84288095Y-117434761D01*
X84240476Y-117387142D01*
%TO.C,R30*%
X33307142Y-120982380D02*
X32973809Y-120506190D01*
X32735714Y-120982380D02*
X32735714Y-119982380D01*
X33116666Y-119982380D01*
X33211904Y-120030000D01*
X33259523Y-120077619D01*
X33307142Y-120172857D01*
X33307142Y-120315714D01*
X33259523Y-120410952D01*
X33211904Y-120458571D01*
X33116666Y-120506190D01*
X32735714Y-120506190D01*
X33640476Y-119982380D02*
X34259523Y-119982380D01*
X33926190Y-120363333D01*
X34069047Y-120363333D01*
X34164285Y-120410952D01*
X34211904Y-120458571D01*
X34259523Y-120553809D01*
X34259523Y-120791904D01*
X34211904Y-120887142D01*
X34164285Y-120934761D01*
X34069047Y-120982380D01*
X33783333Y-120982380D01*
X33688095Y-120934761D01*
X33640476Y-120887142D01*
X34878571Y-119982380D02*
X34973809Y-119982380D01*
X35069047Y-120030000D01*
X35116666Y-120077619D01*
X35164285Y-120172857D01*
X35211904Y-120363333D01*
X35211904Y-120601428D01*
X35164285Y-120791904D01*
X35116666Y-120887142D01*
X35069047Y-120934761D01*
X34973809Y-120982380D01*
X34878571Y-120982380D01*
X34783333Y-120934761D01*
X34735714Y-120887142D01*
X34688095Y-120791904D01*
X34640476Y-120601428D01*
X34640476Y-120363333D01*
X34688095Y-120172857D01*
X34735714Y-120077619D01*
X34783333Y-120030000D01*
X34878571Y-119982380D01*
%TO.C,R29*%
X32319142Y-114818380D02*
X31985809Y-114342190D01*
X31747714Y-114818380D02*
X31747714Y-113818380D01*
X32128666Y-113818380D01*
X32223904Y-113866000D01*
X32271523Y-113913619D01*
X32319142Y-114008857D01*
X32319142Y-114151714D01*
X32271523Y-114246952D01*
X32223904Y-114294571D01*
X32128666Y-114342190D01*
X31747714Y-114342190D01*
X32700095Y-113913619D02*
X32747714Y-113866000D01*
X32842952Y-113818380D01*
X33081047Y-113818380D01*
X33176285Y-113866000D01*
X33223904Y-113913619D01*
X33271523Y-114008857D01*
X33271523Y-114104095D01*
X33223904Y-114246952D01*
X32652476Y-114818380D01*
X33271523Y-114818380D01*
X33747714Y-114818380D02*
X33938190Y-114818380D01*
X34033428Y-114770761D01*
X34081047Y-114723142D01*
X34176285Y-114580285D01*
X34223904Y-114389809D01*
X34223904Y-114008857D01*
X34176285Y-113913619D01*
X34128666Y-113866000D01*
X34033428Y-113818380D01*
X33842952Y-113818380D01*
X33747714Y-113866000D01*
X33700095Y-113913619D01*
X33652476Y-114008857D01*
X33652476Y-114246952D01*
X33700095Y-114342190D01*
X33747714Y-114389809D01*
X33842952Y-114437428D01*
X34033428Y-114437428D01*
X34128666Y-114389809D01*
X34176285Y-114342190D01*
X34223904Y-114246952D01*
%TO.C,R28*%
X32977142Y-125742380D02*
X32643809Y-125266190D01*
X32405714Y-125742380D02*
X32405714Y-124742380D01*
X32786666Y-124742380D01*
X32881904Y-124790000D01*
X32929523Y-124837619D01*
X32977142Y-124932857D01*
X32977142Y-125075714D01*
X32929523Y-125170952D01*
X32881904Y-125218571D01*
X32786666Y-125266190D01*
X32405714Y-125266190D01*
X33358095Y-124837619D02*
X33405714Y-124790000D01*
X33500952Y-124742380D01*
X33739047Y-124742380D01*
X33834285Y-124790000D01*
X33881904Y-124837619D01*
X33929523Y-124932857D01*
X33929523Y-125028095D01*
X33881904Y-125170952D01*
X33310476Y-125742380D01*
X33929523Y-125742380D01*
X34500952Y-125170952D02*
X34405714Y-125123333D01*
X34358095Y-125075714D01*
X34310476Y-124980476D01*
X34310476Y-124932857D01*
X34358095Y-124837619D01*
X34405714Y-124790000D01*
X34500952Y-124742380D01*
X34691428Y-124742380D01*
X34786666Y-124790000D01*
X34834285Y-124837619D01*
X34881904Y-124932857D01*
X34881904Y-124980476D01*
X34834285Y-125075714D01*
X34786666Y-125123333D01*
X34691428Y-125170952D01*
X34500952Y-125170952D01*
X34405714Y-125218571D01*
X34358095Y-125266190D01*
X34310476Y-125361428D01*
X34310476Y-125551904D01*
X34358095Y-125647142D01*
X34405714Y-125694761D01*
X34500952Y-125742380D01*
X34691428Y-125742380D01*
X34786666Y-125694761D01*
X34834285Y-125647142D01*
X34881904Y-125551904D01*
X34881904Y-125361428D01*
X34834285Y-125266190D01*
X34786666Y-125218571D01*
X34691428Y-125170952D01*
%TO.C,R27*%
X35213142Y-115222380D02*
X34879809Y-114746190D01*
X34641714Y-115222380D02*
X34641714Y-114222380D01*
X35022666Y-114222380D01*
X35117904Y-114270000D01*
X35165523Y-114317619D01*
X35213142Y-114412857D01*
X35213142Y-114555714D01*
X35165523Y-114650952D01*
X35117904Y-114698571D01*
X35022666Y-114746190D01*
X34641714Y-114746190D01*
X35594095Y-114317619D02*
X35641714Y-114270000D01*
X35736952Y-114222380D01*
X35975047Y-114222380D01*
X36070285Y-114270000D01*
X36117904Y-114317619D01*
X36165523Y-114412857D01*
X36165523Y-114508095D01*
X36117904Y-114650952D01*
X35546476Y-115222380D01*
X36165523Y-115222380D01*
X36498857Y-114222380D02*
X37165523Y-114222380D01*
X36736952Y-115222380D01*
%TO.C,R12*%
X28087142Y-135552380D02*
X27753809Y-135076190D01*
X27515714Y-135552380D02*
X27515714Y-134552380D01*
X27896666Y-134552380D01*
X27991904Y-134600000D01*
X28039523Y-134647619D01*
X28087142Y-134742857D01*
X28087142Y-134885714D01*
X28039523Y-134980952D01*
X27991904Y-135028571D01*
X27896666Y-135076190D01*
X27515714Y-135076190D01*
X29039523Y-135552380D02*
X28468095Y-135552380D01*
X28753809Y-135552380D02*
X28753809Y-134552380D01*
X28658571Y-134695238D01*
X28563333Y-134790476D01*
X28468095Y-134838095D01*
X29420476Y-134647619D02*
X29468095Y-134600000D01*
X29563333Y-134552380D01*
X29801428Y-134552380D01*
X29896666Y-134600000D01*
X29944285Y-134647619D01*
X29991904Y-134742857D01*
X29991904Y-134838095D01*
X29944285Y-134980952D01*
X29372857Y-135552380D01*
X29991904Y-135552380D01*
%TO.C,R11*%
X28387142Y-131882380D02*
X28053809Y-131406190D01*
X27815714Y-131882380D02*
X27815714Y-130882380D01*
X28196666Y-130882380D01*
X28291904Y-130930000D01*
X28339523Y-130977619D01*
X28387142Y-131072857D01*
X28387142Y-131215714D01*
X28339523Y-131310952D01*
X28291904Y-131358571D01*
X28196666Y-131406190D01*
X27815714Y-131406190D01*
X29339523Y-131882380D02*
X28768095Y-131882380D01*
X29053809Y-131882380D02*
X29053809Y-130882380D01*
X28958571Y-131025238D01*
X28863333Y-131120476D01*
X28768095Y-131168095D01*
X30291904Y-131882380D02*
X29720476Y-131882380D01*
X30006190Y-131882380D02*
X30006190Y-130882380D01*
X29910952Y-131025238D01*
X29815714Y-131120476D01*
X29720476Y-131168095D01*
%TO.C,R10*%
X28617142Y-128702380D02*
X28283809Y-128226190D01*
X28045714Y-128702380D02*
X28045714Y-127702380D01*
X28426666Y-127702380D01*
X28521904Y-127750000D01*
X28569523Y-127797619D01*
X28617142Y-127892857D01*
X28617142Y-128035714D01*
X28569523Y-128130952D01*
X28521904Y-128178571D01*
X28426666Y-128226190D01*
X28045714Y-128226190D01*
X29569523Y-128702380D02*
X28998095Y-128702380D01*
X29283809Y-128702380D02*
X29283809Y-127702380D01*
X29188571Y-127845238D01*
X29093333Y-127940476D01*
X28998095Y-127988095D01*
X30188571Y-127702380D02*
X30283809Y-127702380D01*
X30379047Y-127750000D01*
X30426666Y-127797619D01*
X30474285Y-127892857D01*
X30521904Y-128083333D01*
X30521904Y-128321428D01*
X30474285Y-128511904D01*
X30426666Y-128607142D01*
X30379047Y-128654761D01*
X30283809Y-128702380D01*
X30188571Y-128702380D01*
X30093333Y-128654761D01*
X30045714Y-128607142D01*
X29998095Y-128511904D01*
X29950476Y-128321428D01*
X29950476Y-128083333D01*
X29998095Y-127892857D01*
X30045714Y-127797619D01*
X30093333Y-127750000D01*
X30188571Y-127702380D01*
%TO.C,R9*%
X29223333Y-138992380D02*
X28890000Y-138516190D01*
X28651904Y-138992380D02*
X28651904Y-137992380D01*
X29032857Y-137992380D01*
X29128095Y-138040000D01*
X29175714Y-138087619D01*
X29223333Y-138182857D01*
X29223333Y-138325714D01*
X29175714Y-138420952D01*
X29128095Y-138468571D01*
X29032857Y-138516190D01*
X28651904Y-138516190D01*
X29699523Y-138992380D02*
X29890000Y-138992380D01*
X29985238Y-138944761D01*
X30032857Y-138897142D01*
X30128095Y-138754285D01*
X30175714Y-138563809D01*
X30175714Y-138182857D01*
X30128095Y-138087619D01*
X30080476Y-138040000D01*
X29985238Y-137992380D01*
X29794761Y-137992380D01*
X29699523Y-138040000D01*
X29651904Y-138087619D01*
X29604285Y-138182857D01*
X29604285Y-138420952D01*
X29651904Y-138516190D01*
X29699523Y-138563809D01*
X29794761Y-138611428D01*
X29985238Y-138611428D01*
X30080476Y-138563809D01*
X30128095Y-138516190D01*
X30175714Y-138420952D01*
%TO.C,R8*%
X31628333Y-128667380D02*
X31295000Y-128191190D01*
X31056904Y-128667380D02*
X31056904Y-127667380D01*
X31437857Y-127667380D01*
X31533095Y-127715000D01*
X31580714Y-127762619D01*
X31628333Y-127857857D01*
X31628333Y-128000714D01*
X31580714Y-128095952D01*
X31533095Y-128143571D01*
X31437857Y-128191190D01*
X31056904Y-128191190D01*
X32199761Y-128095952D02*
X32104523Y-128048333D01*
X32056904Y-128000714D01*
X32009285Y-127905476D01*
X32009285Y-127857857D01*
X32056904Y-127762619D01*
X32104523Y-127715000D01*
X32199761Y-127667380D01*
X32390238Y-127667380D01*
X32485476Y-127715000D01*
X32533095Y-127762619D01*
X32580714Y-127857857D01*
X32580714Y-127905476D01*
X32533095Y-128000714D01*
X32485476Y-128048333D01*
X32390238Y-128095952D01*
X32199761Y-128095952D01*
X32104523Y-128143571D01*
X32056904Y-128191190D01*
X32009285Y-128286428D01*
X32009285Y-128476904D01*
X32056904Y-128572142D01*
X32104523Y-128619761D01*
X32199761Y-128667380D01*
X32390238Y-128667380D01*
X32485476Y-128619761D01*
X32533095Y-128572142D01*
X32580714Y-128476904D01*
X32580714Y-128286428D01*
X32533095Y-128191190D01*
X32485476Y-128143571D01*
X32390238Y-128095952D01*
%TO.C,R7*%
X33628333Y-128667380D02*
X33295000Y-128191190D01*
X33056904Y-128667380D02*
X33056904Y-127667380D01*
X33437857Y-127667380D01*
X33533095Y-127715000D01*
X33580714Y-127762619D01*
X33628333Y-127857857D01*
X33628333Y-128000714D01*
X33580714Y-128095952D01*
X33533095Y-128143571D01*
X33437857Y-128191190D01*
X33056904Y-128191190D01*
X33961666Y-127667380D02*
X34628333Y-127667380D01*
X34199761Y-128667380D01*
%TO.C,R4*%
X51213333Y-163902380D02*
X50880000Y-163426190D01*
X50641904Y-163902380D02*
X50641904Y-162902380D01*
X51022857Y-162902380D01*
X51118095Y-162950000D01*
X51165714Y-162997619D01*
X51213333Y-163092857D01*
X51213333Y-163235714D01*
X51165714Y-163330952D01*
X51118095Y-163378571D01*
X51022857Y-163426190D01*
X50641904Y-163426190D01*
X52070476Y-163235714D02*
X52070476Y-163902380D01*
X51832380Y-162854761D02*
X51594285Y-163569047D01*
X52213333Y-163569047D01*
%TO.C,R5*%
X80243333Y-163842380D02*
X79910000Y-163366190D01*
X79671904Y-163842380D02*
X79671904Y-162842380D01*
X80052857Y-162842380D01*
X80148095Y-162890000D01*
X80195714Y-162937619D01*
X80243333Y-163032857D01*
X80243333Y-163175714D01*
X80195714Y-163270952D01*
X80148095Y-163318571D01*
X80052857Y-163366190D01*
X79671904Y-163366190D01*
X81148095Y-162842380D02*
X80671904Y-162842380D01*
X80624285Y-163318571D01*
X80671904Y-163270952D01*
X80767142Y-163223333D01*
X81005238Y-163223333D01*
X81100476Y-163270952D01*
X81148095Y-163318571D01*
X81195714Y-163413809D01*
X81195714Y-163651904D01*
X81148095Y-163747142D01*
X81100476Y-163794761D01*
X81005238Y-163842380D01*
X80767142Y-163842380D01*
X80671904Y-163794761D01*
X80624285Y-163747142D01*
%TO.C,R3*%
X73441333Y-111516380D02*
X73108000Y-111040190D01*
X72869904Y-111516380D02*
X72869904Y-110516380D01*
X73250857Y-110516380D01*
X73346095Y-110564000D01*
X73393714Y-110611619D01*
X73441333Y-110706857D01*
X73441333Y-110849714D01*
X73393714Y-110944952D01*
X73346095Y-110992571D01*
X73250857Y-111040190D01*
X72869904Y-111040190D01*
X73774666Y-110516380D02*
X74393714Y-110516380D01*
X74060380Y-110897333D01*
X74203238Y-110897333D01*
X74298476Y-110944952D01*
X74346095Y-110992571D01*
X74393714Y-111087809D01*
X74393714Y-111325904D01*
X74346095Y-111421142D01*
X74298476Y-111468761D01*
X74203238Y-111516380D01*
X73917523Y-111516380D01*
X73822285Y-111468761D01*
X73774666Y-111421142D01*
%TO.C,R2*%
X73201333Y-113052380D02*
X72868000Y-112576190D01*
X72629904Y-113052380D02*
X72629904Y-112052380D01*
X73010857Y-112052380D01*
X73106095Y-112100000D01*
X73153714Y-112147619D01*
X73201333Y-112242857D01*
X73201333Y-112385714D01*
X73153714Y-112480952D01*
X73106095Y-112528571D01*
X73010857Y-112576190D01*
X72629904Y-112576190D01*
X73582285Y-112147619D02*
X73629904Y-112100000D01*
X73725142Y-112052380D01*
X73963238Y-112052380D01*
X74058476Y-112100000D01*
X74106095Y-112147619D01*
X74153714Y-112242857D01*
X74153714Y-112338095D01*
X74106095Y-112480952D01*
X73534666Y-113052380D01*
X74153714Y-113052380D01*
%TO.C,Q6*%
X84844761Y-141597619D02*
X84749523Y-141550000D01*
X84654285Y-141454761D01*
X84511428Y-141311904D01*
X84416190Y-141264285D01*
X84320952Y-141264285D01*
X84368571Y-141502380D02*
X84273333Y-141454761D01*
X84178095Y-141359523D01*
X84130476Y-141169047D01*
X84130476Y-140835714D01*
X84178095Y-140645238D01*
X84273333Y-140550000D01*
X84368571Y-140502380D01*
X84559047Y-140502380D01*
X84654285Y-140550000D01*
X84749523Y-140645238D01*
X84797142Y-140835714D01*
X84797142Y-141169047D01*
X84749523Y-141359523D01*
X84654285Y-141454761D01*
X84559047Y-141502380D01*
X84368571Y-141502380D01*
X85654285Y-140502380D02*
X85463809Y-140502380D01*
X85368571Y-140550000D01*
X85320952Y-140597619D01*
X85225714Y-140740476D01*
X85178095Y-140930952D01*
X85178095Y-141311904D01*
X85225714Y-141407142D01*
X85273333Y-141454761D01*
X85368571Y-141502380D01*
X85559047Y-141502380D01*
X85654285Y-141454761D01*
X85701904Y-141407142D01*
X85749523Y-141311904D01*
X85749523Y-141073809D01*
X85701904Y-140978571D01*
X85654285Y-140930952D01*
X85559047Y-140883333D01*
X85368571Y-140883333D01*
X85273333Y-140930952D01*
X85225714Y-140978571D01*
X85178095Y-141073809D01*
%TO.C,Q3*%
X84844761Y-145197619D02*
X84749523Y-145150000D01*
X84654285Y-145054761D01*
X84511428Y-144911904D01*
X84416190Y-144864285D01*
X84320952Y-144864285D01*
X84368571Y-145102380D02*
X84273333Y-145054761D01*
X84178095Y-144959523D01*
X84130476Y-144769047D01*
X84130476Y-144435714D01*
X84178095Y-144245238D01*
X84273333Y-144150000D01*
X84368571Y-144102380D01*
X84559047Y-144102380D01*
X84654285Y-144150000D01*
X84749523Y-144245238D01*
X84797142Y-144435714D01*
X84797142Y-144769047D01*
X84749523Y-144959523D01*
X84654285Y-145054761D01*
X84559047Y-145102380D01*
X84368571Y-145102380D01*
X85130476Y-144102380D02*
X85749523Y-144102380D01*
X85416190Y-144483333D01*
X85559047Y-144483333D01*
X85654285Y-144530952D01*
X85701904Y-144578571D01*
X85749523Y-144673809D01*
X85749523Y-144911904D01*
X85701904Y-145007142D01*
X85654285Y-145054761D01*
X85559047Y-145102380D01*
X85273333Y-145102380D01*
X85178095Y-145054761D01*
X85130476Y-145007142D01*
%TO.C,Q4*%
X24944761Y-141397619D02*
X24849523Y-141350000D01*
X24754285Y-141254761D01*
X24611428Y-141111904D01*
X24516190Y-141064285D01*
X24420952Y-141064285D01*
X24468571Y-141302380D02*
X24373333Y-141254761D01*
X24278095Y-141159523D01*
X24230476Y-140969047D01*
X24230476Y-140635714D01*
X24278095Y-140445238D01*
X24373333Y-140350000D01*
X24468571Y-140302380D01*
X24659047Y-140302380D01*
X24754285Y-140350000D01*
X24849523Y-140445238D01*
X24897142Y-140635714D01*
X24897142Y-140969047D01*
X24849523Y-141159523D01*
X24754285Y-141254761D01*
X24659047Y-141302380D01*
X24468571Y-141302380D01*
X25754285Y-140635714D02*
X25754285Y-141302380D01*
X25516190Y-140254761D02*
X25278095Y-140969047D01*
X25897142Y-140969047D01*
%TO.C,Q1*%
X25444761Y-145297619D02*
X25349523Y-145250000D01*
X25254285Y-145154761D01*
X25111428Y-145011904D01*
X25016190Y-144964285D01*
X24920952Y-144964285D01*
X24968571Y-145202380D02*
X24873333Y-145154761D01*
X24778095Y-145059523D01*
X24730476Y-144869047D01*
X24730476Y-144535714D01*
X24778095Y-144345238D01*
X24873333Y-144250000D01*
X24968571Y-144202380D01*
X25159047Y-144202380D01*
X25254285Y-144250000D01*
X25349523Y-144345238D01*
X25397142Y-144535714D01*
X25397142Y-144869047D01*
X25349523Y-145059523D01*
X25254285Y-145154761D01*
X25159047Y-145202380D01*
X24968571Y-145202380D01*
X26349523Y-145202380D02*
X25778095Y-145202380D01*
X26063809Y-145202380D02*
X26063809Y-144202380D01*
X25968571Y-144345238D01*
X25873333Y-144440476D01*
X25778095Y-144488095D01*
%TO.C,F3*%
X106348571Y-138543333D02*
X106348571Y-138876666D01*
X106872380Y-138876666D02*
X105872380Y-138876666D01*
X105872380Y-138400476D01*
X105872380Y-138114761D02*
X105872380Y-137495714D01*
X106253333Y-137829047D01*
X106253333Y-137686190D01*
X106300952Y-137590952D01*
X106348571Y-137543333D01*
X106443809Y-137495714D01*
X106681904Y-137495714D01*
X106777142Y-137543333D01*
X106824761Y-137590952D01*
X106872380Y-137686190D01*
X106872380Y-137971904D01*
X106824761Y-138067142D01*
X106777142Y-138114761D01*
%TO.C,F2*%
X76438571Y-138643333D02*
X76438571Y-138976666D01*
X76962380Y-138976666D02*
X75962380Y-138976666D01*
X75962380Y-138500476D01*
X76057619Y-138167142D02*
X76010000Y-138119523D01*
X75962380Y-138024285D01*
X75962380Y-137786190D01*
X76010000Y-137690952D01*
X76057619Y-137643333D01*
X76152857Y-137595714D01*
X76248095Y-137595714D01*
X76390952Y-137643333D01*
X76962380Y-138214761D01*
X76962380Y-137595714D01*
%TO.C,F1*%
X46438571Y-138643333D02*
X46438571Y-138976666D01*
X46962380Y-138976666D02*
X45962380Y-138976666D01*
X45962380Y-138500476D01*
X46962380Y-137595714D02*
X46962380Y-138167142D01*
X46962380Y-137881428D02*
X45962380Y-137881428D01*
X46105238Y-137976666D01*
X46200476Y-138071904D01*
X46248095Y-138167142D01*
%TO.C,D6*%
X97801904Y-141402380D02*
X97801904Y-140402380D01*
X98040000Y-140402380D01*
X98182857Y-140450000D01*
X98278095Y-140545238D01*
X98325714Y-140640476D01*
X98373333Y-140830952D01*
X98373333Y-140973809D01*
X98325714Y-141164285D01*
X98278095Y-141259523D01*
X98182857Y-141354761D01*
X98040000Y-141402380D01*
X97801904Y-141402380D01*
X99230476Y-140402380D02*
X99040000Y-140402380D01*
X98944761Y-140450000D01*
X98897142Y-140497619D01*
X98801904Y-140640476D01*
X98754285Y-140830952D01*
X98754285Y-141211904D01*
X98801904Y-141307142D01*
X98849523Y-141354761D01*
X98944761Y-141402380D01*
X99135238Y-141402380D01*
X99230476Y-141354761D01*
X99278095Y-141307142D01*
X99325714Y-141211904D01*
X99325714Y-140973809D01*
X99278095Y-140878571D01*
X99230476Y-140830952D01*
X99135238Y-140783333D01*
X98944761Y-140783333D01*
X98849523Y-140830952D01*
X98801904Y-140878571D01*
X98754285Y-140973809D01*
%TO.C,D3*%
X97701904Y-145002380D02*
X97701904Y-144002380D01*
X97940000Y-144002380D01*
X98082857Y-144050000D01*
X98178095Y-144145238D01*
X98225714Y-144240476D01*
X98273333Y-144430952D01*
X98273333Y-144573809D01*
X98225714Y-144764285D01*
X98178095Y-144859523D01*
X98082857Y-144954761D01*
X97940000Y-145002380D01*
X97701904Y-145002380D01*
X98606666Y-144002380D02*
X99225714Y-144002380D01*
X98892380Y-144383333D01*
X99035238Y-144383333D01*
X99130476Y-144430952D01*
X99178095Y-144478571D01*
X99225714Y-144573809D01*
X99225714Y-144811904D01*
X99178095Y-144907142D01*
X99130476Y-144954761D01*
X99035238Y-145002380D01*
X98749523Y-145002380D01*
X98654285Y-144954761D01*
X98606666Y-144907142D01*
%TO.C,D4*%
X37501904Y-141302380D02*
X37501904Y-140302380D01*
X37740000Y-140302380D01*
X37882857Y-140350000D01*
X37978095Y-140445238D01*
X38025714Y-140540476D01*
X38073333Y-140730952D01*
X38073333Y-140873809D01*
X38025714Y-141064285D01*
X37978095Y-141159523D01*
X37882857Y-141254761D01*
X37740000Y-141302380D01*
X37501904Y-141302380D01*
X38930476Y-140635714D02*
X38930476Y-141302380D01*
X38692380Y-140254761D02*
X38454285Y-140969047D01*
X39073333Y-140969047D01*
%TO.C,D1*%
X37601904Y-144802380D02*
X37601904Y-143802380D01*
X37840000Y-143802380D01*
X37982857Y-143850000D01*
X38078095Y-143945238D01*
X38125714Y-144040476D01*
X38173333Y-144230952D01*
X38173333Y-144373809D01*
X38125714Y-144564285D01*
X38078095Y-144659523D01*
X37982857Y-144754761D01*
X37840000Y-144802380D01*
X37601904Y-144802380D01*
X39125714Y-144802380D02*
X38554285Y-144802380D01*
X38840000Y-144802380D02*
X38840000Y-143802380D01*
X38744761Y-143945238D01*
X38649523Y-144040476D01*
X38554285Y-144088095D01*
%TO.C,C7*%
X37779333Y-115181142D02*
X37731714Y-115228761D01*
X37588857Y-115276380D01*
X37493619Y-115276380D01*
X37350761Y-115228761D01*
X37255523Y-115133523D01*
X37207904Y-115038285D01*
X37160285Y-114847809D01*
X37160285Y-114704952D01*
X37207904Y-114514476D01*
X37255523Y-114419238D01*
X37350761Y-114324000D01*
X37493619Y-114276380D01*
X37588857Y-114276380D01*
X37731714Y-114324000D01*
X37779333Y-114371619D01*
X38112666Y-114276380D02*
X38779333Y-114276380D01*
X38350761Y-115276380D01*
%TO.C,C6*%
X31353333Y-117267142D02*
X31305714Y-117314761D01*
X31162857Y-117362380D01*
X31067619Y-117362380D01*
X30924761Y-117314761D01*
X30829523Y-117219523D01*
X30781904Y-117124285D01*
X30734285Y-116933809D01*
X30734285Y-116790952D01*
X30781904Y-116600476D01*
X30829523Y-116505238D01*
X30924761Y-116410000D01*
X31067619Y-116362380D01*
X31162857Y-116362380D01*
X31305714Y-116410000D01*
X31353333Y-116457619D01*
X32210476Y-116362380D02*
X32020000Y-116362380D01*
X31924761Y-116410000D01*
X31877142Y-116457619D01*
X31781904Y-116600476D01*
X31734285Y-116790952D01*
X31734285Y-117171904D01*
X31781904Y-117267142D01*
X31829523Y-117314761D01*
X31924761Y-117362380D01*
X32115238Y-117362380D01*
X32210476Y-117314761D01*
X32258095Y-117267142D01*
X32305714Y-117171904D01*
X32305714Y-116933809D01*
X32258095Y-116838571D01*
X32210476Y-116790952D01*
X32115238Y-116743333D01*
X31924761Y-116743333D01*
X31829523Y-116790952D01*
X31781904Y-116838571D01*
X31734285Y-116933809D01*
%TO.C,C5*%
X25883333Y-119957142D02*
X25835714Y-120004761D01*
X25692857Y-120052380D01*
X25597619Y-120052380D01*
X25454761Y-120004761D01*
X25359523Y-119909523D01*
X25311904Y-119814285D01*
X25264285Y-119623809D01*
X25264285Y-119480952D01*
X25311904Y-119290476D01*
X25359523Y-119195238D01*
X25454761Y-119100000D01*
X25597619Y-119052380D01*
X25692857Y-119052380D01*
X25835714Y-119100000D01*
X25883333Y-119147619D01*
X26788095Y-119052380D02*
X26311904Y-119052380D01*
X26264285Y-119528571D01*
X26311904Y-119480952D01*
X26407142Y-119433333D01*
X26645238Y-119433333D01*
X26740476Y-119480952D01*
X26788095Y-119528571D01*
X26835714Y-119623809D01*
X26835714Y-119861904D01*
X26788095Y-119957142D01*
X26740476Y-120004761D01*
X26645238Y-120052380D01*
X26407142Y-120052380D01*
X26311904Y-120004761D01*
X26264285Y-119957142D01*
%TO.C,C4*%
X26093333Y-122207142D02*
X26045714Y-122254761D01*
X25902857Y-122302380D01*
X25807619Y-122302380D01*
X25664761Y-122254761D01*
X25569523Y-122159523D01*
X25521904Y-122064285D01*
X25474285Y-121873809D01*
X25474285Y-121730952D01*
X25521904Y-121540476D01*
X25569523Y-121445238D01*
X25664761Y-121350000D01*
X25807619Y-121302380D01*
X25902857Y-121302380D01*
X26045714Y-121350000D01*
X26093333Y-121397619D01*
X26950476Y-121635714D02*
X26950476Y-122302380D01*
X26712380Y-121254761D02*
X26474285Y-121969047D01*
X27093333Y-121969047D01*
%TO.C,C3*%
X24083333Y-118757142D02*
X24035714Y-118804761D01*
X23892857Y-118852380D01*
X23797619Y-118852380D01*
X23654761Y-118804761D01*
X23559523Y-118709523D01*
X23511904Y-118614285D01*
X23464285Y-118423809D01*
X23464285Y-118280952D01*
X23511904Y-118090476D01*
X23559523Y-117995238D01*
X23654761Y-117900000D01*
X23797619Y-117852380D01*
X23892857Y-117852380D01*
X24035714Y-117900000D01*
X24083333Y-117947619D01*
X24416666Y-117852380D02*
X25035714Y-117852380D01*
X24702380Y-118233333D01*
X24845238Y-118233333D01*
X24940476Y-118280952D01*
X24988095Y-118328571D01*
X25035714Y-118423809D01*
X25035714Y-118661904D01*
X24988095Y-118757142D01*
X24940476Y-118804761D01*
X24845238Y-118852380D01*
X24559523Y-118852380D01*
X24464285Y-118804761D01*
X24416666Y-118757142D01*
%TO.C,C2*%
X37473333Y-133807142D02*
X37425714Y-133854761D01*
X37282857Y-133902380D01*
X37187619Y-133902380D01*
X37044761Y-133854761D01*
X36949523Y-133759523D01*
X36901904Y-133664285D01*
X36854285Y-133473809D01*
X36854285Y-133330952D01*
X36901904Y-133140476D01*
X36949523Y-133045238D01*
X37044761Y-132950000D01*
X37187619Y-132902380D01*
X37282857Y-132902380D01*
X37425714Y-132950000D01*
X37473333Y-132997619D01*
X37854285Y-132997619D02*
X37901904Y-132950000D01*
X37997142Y-132902380D01*
X38235238Y-132902380D01*
X38330476Y-132950000D01*
X38378095Y-132997619D01*
X38425714Y-133092857D01*
X38425714Y-133188095D01*
X38378095Y-133330952D01*
X37806666Y-133902380D01*
X38425714Y-133902380D01*
%TO.C,BT1*%
X39214285Y-114678571D02*
X39357142Y-114726190D01*
X39404761Y-114773809D01*
X39452380Y-114869047D01*
X39452380Y-115011904D01*
X39404761Y-115107142D01*
X39357142Y-115154761D01*
X39261904Y-115202380D01*
X38880952Y-115202380D01*
X38880952Y-114202380D01*
X39214285Y-114202380D01*
X39309523Y-114250000D01*
X39357142Y-114297619D01*
X39404761Y-114392857D01*
X39404761Y-114488095D01*
X39357142Y-114583333D01*
X39309523Y-114630952D01*
X39214285Y-114678571D01*
X38880952Y-114678571D01*
X39738095Y-114202380D02*
X40309523Y-114202380D01*
X40023809Y-115202380D02*
X40023809Y-114202380D01*
X41166666Y-115202380D02*
X40595238Y-115202380D01*
X40880952Y-115202380D02*
X40880952Y-114202380D01*
X40785714Y-114345238D01*
X40690476Y-114440476D01*
X40595238Y-114488095D01*
%TO.C,U2*%
X31708095Y-130762380D02*
X31708095Y-131571904D01*
X31755714Y-131667142D01*
X31803333Y-131714761D01*
X31898571Y-131762380D01*
X32089047Y-131762380D01*
X32184285Y-131714761D01*
X32231904Y-131667142D01*
X32279523Y-131571904D01*
X32279523Y-130762380D01*
X32708095Y-130857619D02*
X32755714Y-130810000D01*
X32850952Y-130762380D01*
X33089047Y-130762380D01*
X33184285Y-130810000D01*
X33231904Y-130857619D01*
X33279523Y-130952857D01*
X33279523Y-131048095D01*
X33231904Y-131190952D01*
X32660476Y-131762380D01*
X33279523Y-131762380D01*
%TO.C,S1*%
X98738095Y-113784761D02*
X98880952Y-113832380D01*
X99119047Y-113832380D01*
X99214285Y-113784761D01*
X99261904Y-113737142D01*
X99309523Y-113641904D01*
X99309523Y-113546666D01*
X99261904Y-113451428D01*
X99214285Y-113403809D01*
X99119047Y-113356190D01*
X98928571Y-113308571D01*
X98833333Y-113260952D01*
X98785714Y-113213333D01*
X98738095Y-113118095D01*
X98738095Y-113022857D01*
X98785714Y-112927619D01*
X98833333Y-112880000D01*
X98928571Y-112832380D01*
X99166666Y-112832380D01*
X99309523Y-112880000D01*
X100261904Y-113832380D02*
X99690476Y-113832380D01*
X99976190Y-113832380D02*
X99976190Y-112832380D01*
X99880952Y-112975238D01*
X99785714Y-113070476D01*
X99690476Y-113118095D01*
%TO.C,R6*%
X112713333Y-163672380D02*
X112380000Y-163196190D01*
X112141904Y-163672380D02*
X112141904Y-162672380D01*
X112522857Y-162672380D01*
X112618095Y-162720000D01*
X112665714Y-162767619D01*
X112713333Y-162862857D01*
X112713333Y-163005714D01*
X112665714Y-163100952D01*
X112618095Y-163148571D01*
X112522857Y-163196190D01*
X112141904Y-163196190D01*
X113570476Y-162672380D02*
X113380000Y-162672380D01*
X113284761Y-162720000D01*
X113237142Y-162767619D01*
X113141904Y-162910476D01*
X113094285Y-163100952D01*
X113094285Y-163481904D01*
X113141904Y-163577142D01*
X113189523Y-163624761D01*
X113284761Y-163672380D01*
X113475238Y-163672380D01*
X113570476Y-163624761D01*
X113618095Y-163577142D01*
X113665714Y-163481904D01*
X113665714Y-163243809D01*
X113618095Y-163148571D01*
X113570476Y-163100952D01*
X113475238Y-163053333D01*
X113284761Y-163053333D01*
X113189523Y-163100952D01*
X113141904Y-163148571D01*
X113094285Y-163243809D01*
%TO.C,Q5*%
X54944761Y-141797619D02*
X54849523Y-141750000D01*
X54754285Y-141654761D01*
X54611428Y-141511904D01*
X54516190Y-141464285D01*
X54420952Y-141464285D01*
X54468571Y-141702380D02*
X54373333Y-141654761D01*
X54278095Y-141559523D01*
X54230476Y-141369047D01*
X54230476Y-141035714D01*
X54278095Y-140845238D01*
X54373333Y-140750000D01*
X54468571Y-140702380D01*
X54659047Y-140702380D01*
X54754285Y-140750000D01*
X54849523Y-140845238D01*
X54897142Y-141035714D01*
X54897142Y-141369047D01*
X54849523Y-141559523D01*
X54754285Y-141654761D01*
X54659047Y-141702380D01*
X54468571Y-141702380D01*
X55801904Y-140702380D02*
X55325714Y-140702380D01*
X55278095Y-141178571D01*
X55325714Y-141130952D01*
X55420952Y-141083333D01*
X55659047Y-141083333D01*
X55754285Y-141130952D01*
X55801904Y-141178571D01*
X55849523Y-141273809D01*
X55849523Y-141511904D01*
X55801904Y-141607142D01*
X55754285Y-141654761D01*
X55659047Y-141702380D01*
X55420952Y-141702380D01*
X55325714Y-141654761D01*
X55278095Y-141607142D01*
%TO.C,Q2*%
X55044761Y-145297619D02*
X54949523Y-145250000D01*
X54854285Y-145154761D01*
X54711428Y-145011904D01*
X54616190Y-144964285D01*
X54520952Y-144964285D01*
X54568571Y-145202380D02*
X54473333Y-145154761D01*
X54378095Y-145059523D01*
X54330476Y-144869047D01*
X54330476Y-144535714D01*
X54378095Y-144345238D01*
X54473333Y-144250000D01*
X54568571Y-144202380D01*
X54759047Y-144202380D01*
X54854285Y-144250000D01*
X54949523Y-144345238D01*
X54997142Y-144535714D01*
X54997142Y-144869047D01*
X54949523Y-145059523D01*
X54854285Y-145154761D01*
X54759047Y-145202380D01*
X54568571Y-145202380D01*
X55378095Y-144297619D02*
X55425714Y-144250000D01*
X55520952Y-144202380D01*
X55759047Y-144202380D01*
X55854285Y-144250000D01*
X55901904Y-144297619D01*
X55949523Y-144392857D01*
X55949523Y-144488095D01*
X55901904Y-144630952D01*
X55330476Y-145202380D01*
X55949523Y-145202380D01*
%TO.C,D5*%
X67301904Y-141502380D02*
X67301904Y-140502380D01*
X67540000Y-140502380D01*
X67682857Y-140550000D01*
X67778095Y-140645238D01*
X67825714Y-140740476D01*
X67873333Y-140930952D01*
X67873333Y-141073809D01*
X67825714Y-141264285D01*
X67778095Y-141359523D01*
X67682857Y-141454761D01*
X67540000Y-141502380D01*
X67301904Y-141502380D01*
X68778095Y-140502380D02*
X68301904Y-140502380D01*
X68254285Y-140978571D01*
X68301904Y-140930952D01*
X68397142Y-140883333D01*
X68635238Y-140883333D01*
X68730476Y-140930952D01*
X68778095Y-140978571D01*
X68825714Y-141073809D01*
X68825714Y-141311904D01*
X68778095Y-141407142D01*
X68730476Y-141454761D01*
X68635238Y-141502380D01*
X68397142Y-141502380D01*
X68301904Y-141454761D01*
X68254285Y-141407142D01*
%TO.C,D2*%
X67301904Y-145002380D02*
X67301904Y-144002380D01*
X67540000Y-144002380D01*
X67682857Y-144050000D01*
X67778095Y-144145238D01*
X67825714Y-144240476D01*
X67873333Y-144430952D01*
X67873333Y-144573809D01*
X67825714Y-144764285D01*
X67778095Y-144859523D01*
X67682857Y-144954761D01*
X67540000Y-145002380D01*
X67301904Y-145002380D01*
X68254285Y-144097619D02*
X68301904Y-144050000D01*
X68397142Y-144002380D01*
X68635238Y-144002380D01*
X68730476Y-144050000D01*
X68778095Y-144097619D01*
X68825714Y-144192857D01*
X68825714Y-144288095D01*
X68778095Y-144430952D01*
X68206666Y-145002380D01*
X68825714Y-145002380D01*
%TD*%
M02*
