%TF.GenerationSoftware,KiCad,Pcbnew,(5.1.9-0-10_14)*%
%TF.CreationDate,2021-05-27T00:43:31-07:00*%
%TF.ProjectId,tp_radio_board,74705f72-6164-4696-9f5f-626f6172642e,rev?*%
%TF.SameCoordinates,Original*%
%TF.FileFunction,Paste,Top*%
%TF.FilePolarity,Positive*%
%FSLAX46Y46*%
G04 Gerber Fmt 4.6, Leading zero omitted, Abs format (unit mm)*
G04 Created by KiCad (PCBNEW (5.1.9-0-10_14)) date 2021-05-27 00:43:31*
%MOMM*%
%LPD*%
G01*
G04 APERTURE LIST*
%ADD10O,2.400000X0.800000*%
%ADD11O,0.800000X2.400000*%
%ADD12R,0.762000X2.794000*%
%ADD13R,0.900000X0.800000*%
%ADD14C,3.100000*%
%ADD15R,0.950000X0.613000*%
%ADD16R,0.325000X0.300000*%
%ADD17R,3.300000X1.400000*%
%ADD18R,2.500000X1.800000*%
%ADD19R,1.270000X5.080000*%
G04 APERTURE END LIST*
D10*
%TO.C,U1*%
X63850000Y-95550000D03*
X63850000Y-96750000D03*
X63850000Y-97950000D03*
X63850000Y-99150000D03*
X63850000Y-100350000D03*
X63850000Y-101550000D03*
X63850000Y-102750000D03*
X63850000Y-103950000D03*
X63850000Y-105150000D03*
X63850000Y-106350000D03*
X63850000Y-107550000D03*
X63850000Y-108750000D03*
D11*
X65900000Y-108750000D03*
X67100000Y-108750000D03*
X68300000Y-108750000D03*
X69500000Y-108750000D03*
X70700000Y-108750000D03*
X71900000Y-108750000D03*
X73100000Y-108750000D03*
D10*
X75150000Y-108650000D03*
X75150000Y-107550000D03*
X75150000Y-106350000D03*
X75150000Y-105150000D03*
X75150000Y-103950000D03*
X75150000Y-102750000D03*
X75150000Y-101550000D03*
X75150000Y-100350000D03*
X75150000Y-99150000D03*
X75150000Y-97950000D03*
X75150000Y-96750000D03*
X75150000Y-95550000D03*
%TD*%
D12*
%TO.C,J1*%
X45460000Y-121032000D03*
X45460000Y-116968000D03*
X46730000Y-121032000D03*
X46730000Y-116968000D03*
X48000000Y-121032000D03*
X48000000Y-116968000D03*
X49270000Y-121032000D03*
X49270000Y-116968000D03*
X50540000Y-121032000D03*
X50540000Y-116968000D03*
%TD*%
%TO.C,D12*%
G36*
G01*
X102840000Y-161462500D02*
X102840000Y-161037500D01*
G75*
G02*
X103052500Y-160825000I212500J0D01*
G01*
X103852500Y-160825000D01*
G75*
G02*
X104065000Y-161037500I0J-212500D01*
G01*
X104065000Y-161462500D01*
G75*
G02*
X103852500Y-161675000I-212500J0D01*
G01*
X103052500Y-161675000D01*
G75*
G02*
X102840000Y-161462500I0J212500D01*
G01*
G37*
G36*
G01*
X101215000Y-161462500D02*
X101215000Y-161037500D01*
G75*
G02*
X101427500Y-160825000I212500J0D01*
G01*
X102227500Y-160825000D01*
G75*
G02*
X102440000Y-161037500I0J-212500D01*
G01*
X102440000Y-161462500D01*
G75*
G02*
X102227500Y-161675000I-212500J0D01*
G01*
X101427500Y-161675000D01*
G75*
G02*
X101215000Y-161462500I0J212500D01*
G01*
G37*
%TD*%
%TO.C,D11*%
G36*
G01*
X72840000Y-161462500D02*
X72840000Y-161037500D01*
G75*
G02*
X73052500Y-160825000I212500J0D01*
G01*
X73852500Y-160825000D01*
G75*
G02*
X74065000Y-161037500I0J-212500D01*
G01*
X74065000Y-161462500D01*
G75*
G02*
X73852500Y-161675000I-212500J0D01*
G01*
X73052500Y-161675000D01*
G75*
G02*
X72840000Y-161462500I0J212500D01*
G01*
G37*
G36*
G01*
X71215000Y-161462500D02*
X71215000Y-161037500D01*
G75*
G02*
X71427500Y-160825000I212500J0D01*
G01*
X72227500Y-160825000D01*
G75*
G02*
X72440000Y-161037500I0J-212500D01*
G01*
X72440000Y-161462500D01*
G75*
G02*
X72227500Y-161675000I-212500J0D01*
G01*
X71427500Y-161675000D01*
G75*
G02*
X71215000Y-161462500I0J212500D01*
G01*
G37*
%TD*%
%TO.C,D10*%
G36*
G01*
X42840000Y-161462500D02*
X42840000Y-161037500D01*
G75*
G02*
X43052500Y-160825000I212500J0D01*
G01*
X43852500Y-160825000D01*
G75*
G02*
X44065000Y-161037500I0J-212500D01*
G01*
X44065000Y-161462500D01*
G75*
G02*
X43852500Y-161675000I-212500J0D01*
G01*
X43052500Y-161675000D01*
G75*
G02*
X42840000Y-161462500I0J212500D01*
G01*
G37*
G36*
G01*
X41215000Y-161462500D02*
X41215000Y-161037500D01*
G75*
G02*
X41427500Y-160825000I212500J0D01*
G01*
X42227500Y-160825000D01*
G75*
G02*
X42440000Y-161037500I0J-212500D01*
G01*
X42440000Y-161462500D01*
G75*
G02*
X42227500Y-161675000I-212500J0D01*
G01*
X41427500Y-161675000D01*
G75*
G02*
X41215000Y-161462500I0J212500D01*
G01*
G37*
%TD*%
%TO.C,R24*%
G36*
G01*
X42340000Y-162624997D02*
X42340000Y-163875003D01*
G75*
G02*
X42090003Y-164125000I-249997J0D01*
G01*
X41464997Y-164125000D01*
G75*
G02*
X41215000Y-163875003I0J249997D01*
G01*
X41215000Y-162624997D01*
G75*
G02*
X41464997Y-162375000I249997J0D01*
G01*
X42090003Y-162375000D01*
G75*
G02*
X42340000Y-162624997I0J-249997D01*
G01*
G37*
G36*
G01*
X45265000Y-162624997D02*
X45265000Y-163875003D01*
G75*
G02*
X45015003Y-164125000I-249997J0D01*
G01*
X44389997Y-164125000D01*
G75*
G02*
X44140000Y-163875003I0J249997D01*
G01*
X44140000Y-162624997D01*
G75*
G02*
X44389997Y-162375000I249997J0D01*
G01*
X45015003Y-162375000D01*
G75*
G02*
X45265000Y-162624997I0J-249997D01*
G01*
G37*
%TD*%
%TO.C,R26*%
G36*
G01*
X102340000Y-162624997D02*
X102340000Y-163875003D01*
G75*
G02*
X102090003Y-164125000I-249997J0D01*
G01*
X101464997Y-164125000D01*
G75*
G02*
X101215000Y-163875003I0J249997D01*
G01*
X101215000Y-162624997D01*
G75*
G02*
X101464997Y-162375000I249997J0D01*
G01*
X102090003Y-162375000D01*
G75*
G02*
X102340000Y-162624997I0J-249997D01*
G01*
G37*
G36*
G01*
X105265000Y-162624997D02*
X105265000Y-163875003D01*
G75*
G02*
X105015003Y-164125000I-249997J0D01*
G01*
X104389997Y-164125000D01*
G75*
G02*
X104140000Y-163875003I0J249997D01*
G01*
X104140000Y-162624997D01*
G75*
G02*
X104389997Y-162375000I249997J0D01*
G01*
X105015003Y-162375000D01*
G75*
G02*
X105265000Y-162624997I0J-249997D01*
G01*
G37*
%TD*%
%TO.C,R25*%
G36*
G01*
X72340000Y-162624997D02*
X72340000Y-163875003D01*
G75*
G02*
X72090003Y-164125000I-249997J0D01*
G01*
X71464997Y-164125000D01*
G75*
G02*
X71215000Y-163875003I0J249997D01*
G01*
X71215000Y-162624997D01*
G75*
G02*
X71464997Y-162375000I249997J0D01*
G01*
X72090003Y-162375000D01*
G75*
G02*
X72340000Y-162624997I0J-249997D01*
G01*
G37*
G36*
G01*
X75265000Y-162624997D02*
X75265000Y-163875003D01*
G75*
G02*
X75015003Y-164125000I-249997J0D01*
G01*
X74389997Y-164125000D01*
G75*
G02*
X74140000Y-163875003I0J249997D01*
G01*
X74140000Y-162624997D01*
G75*
G02*
X74389997Y-162375000I249997J0D01*
G01*
X75015003Y-162375000D01*
G75*
G02*
X75265000Y-162624997I0J-249997D01*
G01*
G37*
%TD*%
%TO.C,R21*%
G36*
G01*
X36715000Y-161625000D02*
X36165000Y-161625000D01*
G75*
G02*
X35965000Y-161425000I0J200000D01*
G01*
X35965000Y-161025000D01*
G75*
G02*
X36165000Y-160825000I200000J0D01*
G01*
X36715000Y-160825000D01*
G75*
G02*
X36915000Y-161025000I0J-200000D01*
G01*
X36915000Y-161425000D01*
G75*
G02*
X36715000Y-161625000I-200000J0D01*
G01*
G37*
G36*
G01*
X36715000Y-163275000D02*
X36165000Y-163275000D01*
G75*
G02*
X35965000Y-163075000I0J200000D01*
G01*
X35965000Y-162675000D01*
G75*
G02*
X36165000Y-162475000I200000J0D01*
G01*
X36715000Y-162475000D01*
G75*
G02*
X36915000Y-162675000I0J-200000D01*
G01*
X36915000Y-163075000D01*
G75*
G02*
X36715000Y-163275000I-200000J0D01*
G01*
G37*
%TD*%
%TO.C,R23*%
G36*
G01*
X96715000Y-161625000D02*
X96165000Y-161625000D01*
G75*
G02*
X95965000Y-161425000I0J200000D01*
G01*
X95965000Y-161025000D01*
G75*
G02*
X96165000Y-160825000I200000J0D01*
G01*
X96715000Y-160825000D01*
G75*
G02*
X96915000Y-161025000I0J-200000D01*
G01*
X96915000Y-161425000D01*
G75*
G02*
X96715000Y-161625000I-200000J0D01*
G01*
G37*
G36*
G01*
X96715000Y-163275000D02*
X96165000Y-163275000D01*
G75*
G02*
X95965000Y-163075000I0J200000D01*
G01*
X95965000Y-162675000D01*
G75*
G02*
X96165000Y-162475000I200000J0D01*
G01*
X96715000Y-162475000D01*
G75*
G02*
X96915000Y-162675000I0J-200000D01*
G01*
X96915000Y-163075000D01*
G75*
G02*
X96715000Y-163275000I-200000J0D01*
G01*
G37*
%TD*%
%TO.C,R22*%
G36*
G01*
X66715000Y-161625000D02*
X66165000Y-161625000D01*
G75*
G02*
X65965000Y-161425000I0J200000D01*
G01*
X65965000Y-161025000D01*
G75*
G02*
X66165000Y-160825000I200000J0D01*
G01*
X66715000Y-160825000D01*
G75*
G02*
X66915000Y-161025000I0J-200000D01*
G01*
X66915000Y-161425000D01*
G75*
G02*
X66715000Y-161625000I-200000J0D01*
G01*
G37*
G36*
G01*
X66715000Y-163275000D02*
X66165000Y-163275000D01*
G75*
G02*
X65965000Y-163075000I0J200000D01*
G01*
X65965000Y-162675000D01*
G75*
G02*
X66165000Y-162475000I200000J0D01*
G01*
X66715000Y-162475000D01*
G75*
G02*
X66915000Y-162675000I0J-200000D01*
G01*
X66915000Y-163075000D01*
G75*
G02*
X66715000Y-163275000I-200000J0D01*
G01*
G37*
%TD*%
%TO.C,R16*%
G36*
G01*
X31840000Y-162724997D02*
X31840000Y-163975003D01*
G75*
G02*
X31590003Y-164225000I-249997J0D01*
G01*
X30964997Y-164225000D01*
G75*
G02*
X30715000Y-163975003I0J249997D01*
G01*
X30715000Y-162724997D01*
G75*
G02*
X30964997Y-162475000I249997J0D01*
G01*
X31590003Y-162475000D01*
G75*
G02*
X31840000Y-162724997I0J-249997D01*
G01*
G37*
G36*
G01*
X34765000Y-162724997D02*
X34765000Y-163975003D01*
G75*
G02*
X34515003Y-164225000I-249997J0D01*
G01*
X33889997Y-164225000D01*
G75*
G02*
X33640000Y-163975003I0J249997D01*
G01*
X33640000Y-162724997D01*
G75*
G02*
X33889997Y-162475000I249997J0D01*
G01*
X34515003Y-162475000D01*
G75*
G02*
X34765000Y-162724997I0J-249997D01*
G01*
G37*
%TD*%
%TO.C,R18*%
G36*
G01*
X91840000Y-162724997D02*
X91840000Y-163975003D01*
G75*
G02*
X91590003Y-164225000I-249997J0D01*
G01*
X90964997Y-164225000D01*
G75*
G02*
X90715000Y-163975003I0J249997D01*
G01*
X90715000Y-162724997D01*
G75*
G02*
X90964997Y-162475000I249997J0D01*
G01*
X91590003Y-162475000D01*
G75*
G02*
X91840000Y-162724997I0J-249997D01*
G01*
G37*
G36*
G01*
X94765000Y-162724997D02*
X94765000Y-163975003D01*
G75*
G02*
X94515003Y-164225000I-249997J0D01*
G01*
X93889997Y-164225000D01*
G75*
G02*
X93640000Y-163975003I0J249997D01*
G01*
X93640000Y-162724997D01*
G75*
G02*
X93889997Y-162475000I249997J0D01*
G01*
X94515003Y-162475000D01*
G75*
G02*
X94765000Y-162724997I0J-249997D01*
G01*
G37*
%TD*%
%TO.C,R17*%
G36*
G01*
X61840000Y-162724997D02*
X61840000Y-163975003D01*
G75*
G02*
X61590003Y-164225000I-249997J0D01*
G01*
X60964997Y-164225000D01*
G75*
G02*
X60715000Y-163975003I0J249997D01*
G01*
X60715000Y-162724997D01*
G75*
G02*
X60964997Y-162475000I249997J0D01*
G01*
X61590003Y-162475000D01*
G75*
G02*
X61840000Y-162724997I0J-249997D01*
G01*
G37*
G36*
G01*
X64765000Y-162724997D02*
X64765000Y-163975003D01*
G75*
G02*
X64515003Y-164225000I-249997J0D01*
G01*
X63889997Y-164225000D01*
G75*
G02*
X63640000Y-163975003I0J249997D01*
G01*
X63640000Y-162724997D01*
G75*
G02*
X63889997Y-162475000I249997J0D01*
G01*
X64515003Y-162475000D01*
G75*
G02*
X64765000Y-162724997I0J-249997D01*
G01*
G37*
%TD*%
%TO.C,R13*%
G36*
G01*
X26215000Y-161725000D02*
X25665000Y-161725000D01*
G75*
G02*
X25465000Y-161525000I0J200000D01*
G01*
X25465000Y-161125000D01*
G75*
G02*
X25665000Y-160925000I200000J0D01*
G01*
X26215000Y-160925000D01*
G75*
G02*
X26415000Y-161125000I0J-200000D01*
G01*
X26415000Y-161525000D01*
G75*
G02*
X26215000Y-161725000I-200000J0D01*
G01*
G37*
G36*
G01*
X26215000Y-163375000D02*
X25665000Y-163375000D01*
G75*
G02*
X25465000Y-163175000I0J200000D01*
G01*
X25465000Y-162775000D01*
G75*
G02*
X25665000Y-162575000I200000J0D01*
G01*
X26215000Y-162575000D01*
G75*
G02*
X26415000Y-162775000I0J-200000D01*
G01*
X26415000Y-163175000D01*
G75*
G02*
X26215000Y-163375000I-200000J0D01*
G01*
G37*
%TD*%
%TO.C,R15*%
G36*
G01*
X86215000Y-161725000D02*
X85665000Y-161725000D01*
G75*
G02*
X85465000Y-161525000I0J200000D01*
G01*
X85465000Y-161125000D01*
G75*
G02*
X85665000Y-160925000I200000J0D01*
G01*
X86215000Y-160925000D01*
G75*
G02*
X86415000Y-161125000I0J-200000D01*
G01*
X86415000Y-161525000D01*
G75*
G02*
X86215000Y-161725000I-200000J0D01*
G01*
G37*
G36*
G01*
X86215000Y-163375000D02*
X85665000Y-163375000D01*
G75*
G02*
X85465000Y-163175000I0J200000D01*
G01*
X85465000Y-162775000D01*
G75*
G02*
X85665000Y-162575000I200000J0D01*
G01*
X86215000Y-162575000D01*
G75*
G02*
X86415000Y-162775000I0J-200000D01*
G01*
X86415000Y-163175000D01*
G75*
G02*
X86215000Y-163375000I-200000J0D01*
G01*
G37*
%TD*%
%TO.C,R14*%
G36*
G01*
X56215000Y-161725000D02*
X55665000Y-161725000D01*
G75*
G02*
X55465000Y-161525000I0J200000D01*
G01*
X55465000Y-161125000D01*
G75*
G02*
X55665000Y-160925000I200000J0D01*
G01*
X56215000Y-160925000D01*
G75*
G02*
X56415000Y-161125000I0J-200000D01*
G01*
X56415000Y-161525000D01*
G75*
G02*
X56215000Y-161725000I-200000J0D01*
G01*
G37*
G36*
G01*
X56215000Y-163375000D02*
X55665000Y-163375000D01*
G75*
G02*
X55465000Y-163175000I0J200000D01*
G01*
X55465000Y-162775000D01*
G75*
G02*
X55665000Y-162575000I200000J0D01*
G01*
X56215000Y-162575000D01*
G75*
G02*
X56415000Y-162775000I0J-200000D01*
G01*
X56415000Y-163175000D01*
G75*
G02*
X56215000Y-163375000I-200000J0D01*
G01*
G37*
%TD*%
D13*
%TO.C,Q10*%
X40040000Y-162350000D03*
X38040000Y-163300000D03*
X38040000Y-161400000D03*
%TD*%
%TO.C,Q12*%
X100040000Y-162350000D03*
X98040000Y-163300000D03*
X98040000Y-161400000D03*
%TD*%
%TO.C,Q11*%
X70040000Y-162350000D03*
X68040000Y-163300000D03*
X68040000Y-161400000D03*
%TD*%
%TO.C,Q7*%
X29540000Y-162450000D03*
X27540000Y-163400000D03*
X27540000Y-161500000D03*
%TD*%
%TO.C,Q9*%
X89540000Y-162450000D03*
X87540000Y-163400000D03*
X87540000Y-161500000D03*
%TD*%
%TO.C,Q8*%
X59540000Y-162450000D03*
X57540000Y-163400000D03*
X57540000Y-161500000D03*
%TD*%
%TO.C,D7*%
G36*
G01*
X32340000Y-161562500D02*
X32340000Y-161137500D01*
G75*
G02*
X32552500Y-160925000I212500J0D01*
G01*
X33352500Y-160925000D01*
G75*
G02*
X33565000Y-161137500I0J-212500D01*
G01*
X33565000Y-161562500D01*
G75*
G02*
X33352500Y-161775000I-212500J0D01*
G01*
X32552500Y-161775000D01*
G75*
G02*
X32340000Y-161562500I0J212500D01*
G01*
G37*
G36*
G01*
X30715000Y-161562500D02*
X30715000Y-161137500D01*
G75*
G02*
X30927500Y-160925000I212500J0D01*
G01*
X31727500Y-160925000D01*
G75*
G02*
X31940000Y-161137500I0J-212500D01*
G01*
X31940000Y-161562500D01*
G75*
G02*
X31727500Y-161775000I-212500J0D01*
G01*
X30927500Y-161775000D01*
G75*
G02*
X30715000Y-161562500I0J212500D01*
G01*
G37*
%TD*%
%TO.C,D9*%
G36*
G01*
X92340000Y-161562500D02*
X92340000Y-161137500D01*
G75*
G02*
X92552500Y-160925000I212500J0D01*
G01*
X93352500Y-160925000D01*
G75*
G02*
X93565000Y-161137500I0J-212500D01*
G01*
X93565000Y-161562500D01*
G75*
G02*
X93352500Y-161775000I-212500J0D01*
G01*
X92552500Y-161775000D01*
G75*
G02*
X92340000Y-161562500I0J212500D01*
G01*
G37*
G36*
G01*
X90715000Y-161562500D02*
X90715000Y-161137500D01*
G75*
G02*
X90927500Y-160925000I212500J0D01*
G01*
X91727500Y-160925000D01*
G75*
G02*
X91940000Y-161137500I0J-212500D01*
G01*
X91940000Y-161562500D01*
G75*
G02*
X91727500Y-161775000I-212500J0D01*
G01*
X90927500Y-161775000D01*
G75*
G02*
X90715000Y-161562500I0J212500D01*
G01*
G37*
%TD*%
%TO.C,D8*%
G36*
G01*
X62340000Y-161562500D02*
X62340000Y-161137500D01*
G75*
G02*
X62552500Y-160925000I212500J0D01*
G01*
X63352500Y-160925000D01*
G75*
G02*
X63565000Y-161137500I0J-212500D01*
G01*
X63565000Y-161562500D01*
G75*
G02*
X63352500Y-161775000I-212500J0D01*
G01*
X62552500Y-161775000D01*
G75*
G02*
X62340000Y-161562500I0J212500D01*
G01*
G37*
G36*
G01*
X60715000Y-161562500D02*
X60715000Y-161137500D01*
G75*
G02*
X60927500Y-160925000I212500J0D01*
G01*
X61727500Y-160925000D01*
G75*
G02*
X61940000Y-161137500I0J-212500D01*
G01*
X61940000Y-161562500D01*
G75*
G02*
X61727500Y-161775000I-212500J0D01*
G01*
X60927500Y-161775000D01*
G75*
G02*
X60715000Y-161562500I0J212500D01*
G01*
G37*
%TD*%
D14*
%TO.C,J10*%
X90750000Y-104250000D03*
X90750000Y-108685000D03*
X86315000Y-104250000D03*
X90750000Y-99815000D03*
X95185000Y-104250000D03*
X86315000Y-99815000D03*
X95185000Y-99815000D03*
X95185000Y-108685000D03*
X86315000Y-108685000D03*
%TD*%
%TO.C,J8*%
X107250000Y-104250000D03*
X107250000Y-108685000D03*
X102815000Y-104250000D03*
X107250000Y-99815000D03*
X111685000Y-104250000D03*
X102815000Y-99815000D03*
X111685000Y-99815000D03*
X111685000Y-108685000D03*
X102815000Y-108685000D03*
%TD*%
%TO.C,J7*%
X105065000Y-176065000D03*
X110935000Y-176065000D03*
X110935000Y-181935000D03*
X105065000Y-181935000D03*
%TD*%
%TO.C,J6*%
X75065000Y-176065000D03*
X80935000Y-176065000D03*
X80935000Y-181935000D03*
X75065000Y-181935000D03*
%TD*%
%TO.C,J5*%
X45065000Y-176065000D03*
X50935000Y-176065000D03*
X50935000Y-181935000D03*
X45065000Y-181935000D03*
%TD*%
%TO.C,J4*%
X90065000Y-176065000D03*
X95935000Y-176065000D03*
X95935000Y-181935000D03*
X90065000Y-181935000D03*
%TD*%
%TO.C,J3*%
X60065000Y-176065000D03*
X65935000Y-176065000D03*
X65935000Y-181935000D03*
X60065000Y-181935000D03*
%TD*%
%TO.C,J2*%
X30065000Y-176065000D03*
X35935000Y-176065000D03*
X35935000Y-181935000D03*
X30065000Y-181935000D03*
%TD*%
%TO.C,R20*%
G36*
G01*
X91875003Y-117600000D02*
X90624997Y-117600000D01*
G75*
G02*
X90375000Y-117350003I0J249997D01*
G01*
X90375000Y-116724997D01*
G75*
G02*
X90624997Y-116475000I249997J0D01*
G01*
X91875003Y-116475000D01*
G75*
G02*
X92125000Y-116724997I0J-249997D01*
G01*
X92125000Y-117350003D01*
G75*
G02*
X91875003Y-117600000I-249997J0D01*
G01*
G37*
G36*
G01*
X91875003Y-120525000D02*
X90624997Y-120525000D01*
G75*
G02*
X90375000Y-120275003I0J249997D01*
G01*
X90375000Y-119649997D01*
G75*
G02*
X90624997Y-119400000I249997J0D01*
G01*
X91875003Y-119400000D01*
G75*
G02*
X92125000Y-119649997I0J-249997D01*
G01*
X92125000Y-120275003D01*
G75*
G02*
X91875003Y-120525000I-249997J0D01*
G01*
G37*
%TD*%
%TO.C,R19*%
G36*
G01*
X76935000Y-112260000D02*
X76565000Y-112260000D01*
G75*
G02*
X76430000Y-112125000I0J135000D01*
G01*
X76430000Y-111855000D01*
G75*
G02*
X76565000Y-111720000I135000J0D01*
G01*
X76935000Y-111720000D01*
G75*
G02*
X77070000Y-111855000I0J-135000D01*
G01*
X77070000Y-112125000D01*
G75*
G02*
X76935000Y-112260000I-135000J0D01*
G01*
G37*
G36*
G01*
X76935000Y-113280000D02*
X76565000Y-113280000D01*
G75*
G02*
X76430000Y-113145000I0J135000D01*
G01*
X76430000Y-112875000D01*
G75*
G02*
X76565000Y-112740000I135000J0D01*
G01*
X76935000Y-112740000D01*
G75*
G02*
X77070000Y-112875000I0J-135000D01*
G01*
X77070000Y-113145000D01*
G75*
G02*
X76935000Y-113280000I-135000J0D01*
G01*
G37*
%TD*%
D15*
%TO.C,U6*%
X37150000Y-122133500D03*
X37150000Y-123066500D03*
D16*
X38075000Y-121950000D03*
X38075000Y-123250000D03*
X38075000Y-122600000D03*
X36225000Y-123250000D03*
X36225000Y-122600000D03*
X36225000Y-121950000D03*
%TD*%
D15*
%TO.C,U5*%
X31150000Y-121433500D03*
X31150000Y-122366500D03*
D16*
X32075000Y-121250000D03*
X32075000Y-122550000D03*
X32075000Y-121900000D03*
X30225000Y-122550000D03*
X30225000Y-121900000D03*
X30225000Y-121250000D03*
%TD*%
%TO.C,U4*%
G36*
G01*
X28890000Y-117870000D02*
X28890000Y-117480000D01*
G75*
G02*
X29020000Y-117350000I130000J0D01*
G01*
X29280000Y-117350000D01*
G75*
G02*
X29410000Y-117480000I0J-130000D01*
G01*
X29410000Y-117870000D01*
G75*
G02*
X29280000Y-118000000I-130000J0D01*
G01*
X29020000Y-118000000D01*
G75*
G02*
X28890000Y-117870000I0J130000D01*
G01*
G37*
G36*
G01*
X28890000Y-117120000D02*
X28890000Y-116730000D01*
G75*
G02*
X29020000Y-116600000I130000J0D01*
G01*
X29280000Y-116600000D01*
G75*
G02*
X29410000Y-116730000I0J-130000D01*
G01*
X29410000Y-117120000D01*
G75*
G02*
X29280000Y-117250000I-130000J0D01*
G01*
X29020000Y-117250000D01*
G75*
G02*
X28890000Y-117120000I0J130000D01*
G01*
G37*
G36*
G01*
X28290000Y-117870000D02*
X28290000Y-117480000D01*
G75*
G02*
X28420000Y-117350000I130000J0D01*
G01*
X28680000Y-117350000D01*
G75*
G02*
X28810000Y-117480000I0J-130000D01*
G01*
X28810000Y-117870000D01*
G75*
G02*
X28680000Y-118000000I-130000J0D01*
G01*
X28420000Y-118000000D01*
G75*
G02*
X28290000Y-117870000I0J130000D01*
G01*
G37*
G36*
G01*
X28290000Y-117120000D02*
X28290000Y-116730000D01*
G75*
G02*
X28420000Y-116600000I130000J0D01*
G01*
X28680000Y-116600000D01*
G75*
G02*
X28810000Y-116730000I0J-130000D01*
G01*
X28810000Y-117120000D01*
G75*
G02*
X28680000Y-117250000I-130000J0D01*
G01*
X28420000Y-117250000D01*
G75*
G02*
X28290000Y-117120000I0J130000D01*
G01*
G37*
G36*
G01*
X29650000Y-116637500D02*
X29650000Y-116462500D01*
G75*
G02*
X29737500Y-116375000I87500J0D01*
G01*
X30237500Y-116375000D01*
G75*
G02*
X30325000Y-116462500I0J-87500D01*
G01*
X30325000Y-116637500D01*
G75*
G02*
X30237500Y-116725000I-87500J0D01*
G01*
X29737500Y-116725000D01*
G75*
G02*
X29650000Y-116637500I0J87500D01*
G01*
G37*
G36*
G01*
X29650000Y-117137500D02*
X29650000Y-116962500D01*
G75*
G02*
X29737500Y-116875000I87500J0D01*
G01*
X30237500Y-116875000D01*
G75*
G02*
X30325000Y-116962500I0J-87500D01*
G01*
X30325000Y-117137500D01*
G75*
G02*
X30237500Y-117225000I-87500J0D01*
G01*
X29737500Y-117225000D01*
G75*
G02*
X29650000Y-117137500I0J87500D01*
G01*
G37*
G36*
G01*
X29650000Y-117637500D02*
X29650000Y-117462500D01*
G75*
G02*
X29737500Y-117375000I87500J0D01*
G01*
X30237500Y-117375000D01*
G75*
G02*
X30325000Y-117462500I0J-87500D01*
G01*
X30325000Y-117637500D01*
G75*
G02*
X30237500Y-117725000I-87500J0D01*
G01*
X29737500Y-117725000D01*
G75*
G02*
X29650000Y-117637500I0J87500D01*
G01*
G37*
G36*
G01*
X29650000Y-118137500D02*
X29650000Y-117962500D01*
G75*
G02*
X29737500Y-117875000I87500J0D01*
G01*
X30237500Y-117875000D01*
G75*
G02*
X30325000Y-117962500I0J-87500D01*
G01*
X30325000Y-118137500D01*
G75*
G02*
X30237500Y-118225000I-87500J0D01*
G01*
X29737500Y-118225000D01*
G75*
G02*
X29650000Y-118137500I0J87500D01*
G01*
G37*
G36*
G01*
X27375000Y-118137500D02*
X27375000Y-117962500D01*
G75*
G02*
X27462500Y-117875000I87500J0D01*
G01*
X27962500Y-117875000D01*
G75*
G02*
X28050000Y-117962500I0J-87500D01*
G01*
X28050000Y-118137500D01*
G75*
G02*
X27962500Y-118225000I-87500J0D01*
G01*
X27462500Y-118225000D01*
G75*
G02*
X27375000Y-118137500I0J87500D01*
G01*
G37*
G36*
G01*
X27375000Y-117637500D02*
X27375000Y-117462500D01*
G75*
G02*
X27462500Y-117375000I87500J0D01*
G01*
X27962500Y-117375000D01*
G75*
G02*
X28050000Y-117462500I0J-87500D01*
G01*
X28050000Y-117637500D01*
G75*
G02*
X27962500Y-117725000I-87500J0D01*
G01*
X27462500Y-117725000D01*
G75*
G02*
X27375000Y-117637500I0J87500D01*
G01*
G37*
G36*
G01*
X27375000Y-117137500D02*
X27375000Y-116962500D01*
G75*
G02*
X27462500Y-116875000I87500J0D01*
G01*
X27962500Y-116875000D01*
G75*
G02*
X28050000Y-116962500I0J-87500D01*
G01*
X28050000Y-117137500D01*
G75*
G02*
X27962500Y-117225000I-87500J0D01*
G01*
X27462500Y-117225000D01*
G75*
G02*
X27375000Y-117137500I0J87500D01*
G01*
G37*
G36*
G01*
X27375000Y-116637500D02*
X27375000Y-116462500D01*
G75*
G02*
X27462500Y-116375000I87500J0D01*
G01*
X27962500Y-116375000D01*
G75*
G02*
X28050000Y-116462500I0J-87500D01*
G01*
X28050000Y-116637500D01*
G75*
G02*
X27962500Y-116725000I-87500J0D01*
G01*
X27462500Y-116725000D01*
G75*
G02*
X27375000Y-116637500I0J87500D01*
G01*
G37*
%TD*%
%TO.C,R30*%
G36*
G01*
X33525000Y-118825000D02*
X33525000Y-119375000D01*
G75*
G02*
X33325000Y-119575000I-200000J0D01*
G01*
X32925000Y-119575000D01*
G75*
G02*
X32725000Y-119375000I0J200000D01*
G01*
X32725000Y-118825000D01*
G75*
G02*
X32925000Y-118625000I200000J0D01*
G01*
X33325000Y-118625000D01*
G75*
G02*
X33525000Y-118825000I0J-200000D01*
G01*
G37*
G36*
G01*
X35175000Y-118825000D02*
X35175000Y-119375000D01*
G75*
G02*
X34975000Y-119575000I-200000J0D01*
G01*
X34575000Y-119575000D01*
G75*
G02*
X34375000Y-119375000I0J200000D01*
G01*
X34375000Y-118825000D01*
G75*
G02*
X34575000Y-118625000I200000J0D01*
G01*
X34975000Y-118625000D01*
G75*
G02*
X35175000Y-118825000I0J-200000D01*
G01*
G37*
%TD*%
%TO.C,R29*%
G36*
G01*
X33125000Y-117175000D02*
X33675000Y-117175000D01*
G75*
G02*
X33875000Y-117375000I0J-200000D01*
G01*
X33875000Y-117775000D01*
G75*
G02*
X33675000Y-117975000I-200000J0D01*
G01*
X33125000Y-117975000D01*
G75*
G02*
X32925000Y-117775000I0J200000D01*
G01*
X32925000Y-117375000D01*
G75*
G02*
X33125000Y-117175000I200000J0D01*
G01*
G37*
G36*
G01*
X33125000Y-115525000D02*
X33675000Y-115525000D01*
G75*
G02*
X33875000Y-115725000I0J-200000D01*
G01*
X33875000Y-116125000D01*
G75*
G02*
X33675000Y-116325000I-200000J0D01*
G01*
X33125000Y-116325000D01*
G75*
G02*
X32925000Y-116125000I0J200000D01*
G01*
X32925000Y-115725000D01*
G75*
G02*
X33125000Y-115525000I200000J0D01*
G01*
G37*
%TD*%
%TO.C,R28*%
G36*
G01*
X33825000Y-122575000D02*
X33275000Y-122575000D01*
G75*
G02*
X33075000Y-122375000I0J200000D01*
G01*
X33075000Y-121975000D01*
G75*
G02*
X33275000Y-121775000I200000J0D01*
G01*
X33825000Y-121775000D01*
G75*
G02*
X34025000Y-121975000I0J-200000D01*
G01*
X34025000Y-122375000D01*
G75*
G02*
X33825000Y-122575000I-200000J0D01*
G01*
G37*
G36*
G01*
X33825000Y-124225000D02*
X33275000Y-124225000D01*
G75*
G02*
X33075000Y-124025000I0J200000D01*
G01*
X33075000Y-123625000D01*
G75*
G02*
X33275000Y-123425000I200000J0D01*
G01*
X33825000Y-123425000D01*
G75*
G02*
X34025000Y-123625000I0J-200000D01*
G01*
X34025000Y-124025000D01*
G75*
G02*
X33825000Y-124225000I-200000J0D01*
G01*
G37*
%TD*%
%TO.C,R27*%
G36*
G01*
X34715000Y-117240000D02*
X35085000Y-117240000D01*
G75*
G02*
X35220000Y-117375000I0J-135000D01*
G01*
X35220000Y-117645000D01*
G75*
G02*
X35085000Y-117780000I-135000J0D01*
G01*
X34715000Y-117780000D01*
G75*
G02*
X34580000Y-117645000I0J135000D01*
G01*
X34580000Y-117375000D01*
G75*
G02*
X34715000Y-117240000I135000J0D01*
G01*
G37*
G36*
G01*
X34715000Y-116220000D02*
X35085000Y-116220000D01*
G75*
G02*
X35220000Y-116355000I0J-135000D01*
G01*
X35220000Y-116625000D01*
G75*
G02*
X35085000Y-116760000I-135000J0D01*
G01*
X34715000Y-116760000D01*
G75*
G02*
X34580000Y-116625000I0J135000D01*
G01*
X34580000Y-116355000D01*
G75*
G02*
X34715000Y-116220000I135000J0D01*
G01*
G37*
%TD*%
%TO.C,R12*%
G36*
G01*
X29225000Y-133920000D02*
X29225000Y-133550000D01*
G75*
G02*
X29360000Y-133415000I135000J0D01*
G01*
X29630000Y-133415000D01*
G75*
G02*
X29765000Y-133550000I0J-135000D01*
G01*
X29765000Y-133920000D01*
G75*
G02*
X29630000Y-134055000I-135000J0D01*
G01*
X29360000Y-134055000D01*
G75*
G02*
X29225000Y-133920000I0J135000D01*
G01*
G37*
G36*
G01*
X28205000Y-133920000D02*
X28205000Y-133550000D01*
G75*
G02*
X28340000Y-133415000I135000J0D01*
G01*
X28610000Y-133415000D01*
G75*
G02*
X28745000Y-133550000I0J-135000D01*
G01*
X28745000Y-133920000D01*
G75*
G02*
X28610000Y-134055000I-135000J0D01*
G01*
X28340000Y-134055000D01*
G75*
G02*
X28205000Y-133920000I0J135000D01*
G01*
G37*
%TD*%
%TO.C,R11*%
G36*
G01*
X29225000Y-132820000D02*
X29225000Y-132450000D01*
G75*
G02*
X29360000Y-132315000I135000J0D01*
G01*
X29630000Y-132315000D01*
G75*
G02*
X29765000Y-132450000I0J-135000D01*
G01*
X29765000Y-132820000D01*
G75*
G02*
X29630000Y-132955000I-135000J0D01*
G01*
X29360000Y-132955000D01*
G75*
G02*
X29225000Y-132820000I0J135000D01*
G01*
G37*
G36*
G01*
X28205000Y-132820000D02*
X28205000Y-132450000D01*
G75*
G02*
X28340000Y-132315000I135000J0D01*
G01*
X28610000Y-132315000D01*
G75*
G02*
X28745000Y-132450000I0J-135000D01*
G01*
X28745000Y-132820000D01*
G75*
G02*
X28610000Y-132955000I-135000J0D01*
G01*
X28340000Y-132955000D01*
G75*
G02*
X28205000Y-132820000I0J135000D01*
G01*
G37*
%TD*%
%TO.C,R10*%
G36*
G01*
X30035000Y-129570000D02*
X30035000Y-129200000D01*
G75*
G02*
X30170000Y-129065000I135000J0D01*
G01*
X30440000Y-129065000D01*
G75*
G02*
X30575000Y-129200000I0J-135000D01*
G01*
X30575000Y-129570000D01*
G75*
G02*
X30440000Y-129705000I-135000J0D01*
G01*
X30170000Y-129705000D01*
G75*
G02*
X30035000Y-129570000I0J135000D01*
G01*
G37*
G36*
G01*
X29015000Y-129570000D02*
X29015000Y-129200000D01*
G75*
G02*
X29150000Y-129065000I135000J0D01*
G01*
X29420000Y-129065000D01*
G75*
G02*
X29555000Y-129200000I0J-135000D01*
G01*
X29555000Y-129570000D01*
G75*
G02*
X29420000Y-129705000I-135000J0D01*
G01*
X29150000Y-129705000D01*
G75*
G02*
X29015000Y-129570000I0J135000D01*
G01*
G37*
%TD*%
%TO.C,R9*%
G36*
G01*
X31425000Y-138020000D02*
X31425000Y-137650000D01*
G75*
G02*
X31560000Y-137515000I135000J0D01*
G01*
X31830000Y-137515000D01*
G75*
G02*
X31965000Y-137650000I0J-135000D01*
G01*
X31965000Y-138020000D01*
G75*
G02*
X31830000Y-138155000I-135000J0D01*
G01*
X31560000Y-138155000D01*
G75*
G02*
X31425000Y-138020000I0J135000D01*
G01*
G37*
G36*
G01*
X30405000Y-138020000D02*
X30405000Y-137650000D01*
G75*
G02*
X30540000Y-137515000I135000J0D01*
G01*
X30810000Y-137515000D01*
G75*
G02*
X30945000Y-137650000I0J-135000D01*
G01*
X30945000Y-138020000D01*
G75*
G02*
X30810000Y-138155000I-135000J0D01*
G01*
X30540000Y-138155000D01*
G75*
G02*
X30405000Y-138020000I0J135000D01*
G01*
G37*
%TD*%
%TO.C,R8*%
G36*
G01*
X32035000Y-129570000D02*
X32035000Y-129200000D01*
G75*
G02*
X32170000Y-129065000I135000J0D01*
G01*
X32440000Y-129065000D01*
G75*
G02*
X32575000Y-129200000I0J-135000D01*
G01*
X32575000Y-129570000D01*
G75*
G02*
X32440000Y-129705000I-135000J0D01*
G01*
X32170000Y-129705000D01*
G75*
G02*
X32035000Y-129570000I0J135000D01*
G01*
G37*
G36*
G01*
X31015000Y-129570000D02*
X31015000Y-129200000D01*
G75*
G02*
X31150000Y-129065000I135000J0D01*
G01*
X31420000Y-129065000D01*
G75*
G02*
X31555000Y-129200000I0J-135000D01*
G01*
X31555000Y-129570000D01*
G75*
G02*
X31420000Y-129705000I-135000J0D01*
G01*
X31150000Y-129705000D01*
G75*
G02*
X31015000Y-129570000I0J135000D01*
G01*
G37*
%TD*%
%TO.C,R7*%
G36*
G01*
X34035000Y-129570000D02*
X34035000Y-129200000D01*
G75*
G02*
X34170000Y-129065000I135000J0D01*
G01*
X34440000Y-129065000D01*
G75*
G02*
X34575000Y-129200000I0J-135000D01*
G01*
X34575000Y-129570000D01*
G75*
G02*
X34440000Y-129705000I-135000J0D01*
G01*
X34170000Y-129705000D01*
G75*
G02*
X34035000Y-129570000I0J135000D01*
G01*
G37*
G36*
G01*
X33015000Y-129570000D02*
X33015000Y-129200000D01*
G75*
G02*
X33150000Y-129065000I135000J0D01*
G01*
X33420000Y-129065000D01*
G75*
G02*
X33555000Y-129200000I0J-135000D01*
G01*
X33555000Y-129570000D01*
G75*
G02*
X33420000Y-129705000I-135000J0D01*
G01*
X33150000Y-129705000D01*
G75*
G02*
X33015000Y-129570000I0J135000D01*
G01*
G37*
%TD*%
D17*
%TO.C,R4*%
X52490000Y-161550000D03*
X52490000Y-165150000D03*
X48190000Y-161550000D03*
X48190000Y-165150000D03*
%TD*%
%TO.C,R5*%
X82490000Y-161550000D03*
X82490000Y-165150000D03*
X78190000Y-161550000D03*
X78190000Y-165150000D03*
%TD*%
%TO.C,R3*%
G36*
G01*
X73685000Y-112260000D02*
X73315000Y-112260000D01*
G75*
G02*
X73180000Y-112125000I0J135000D01*
G01*
X73180000Y-111855000D01*
G75*
G02*
X73315000Y-111720000I135000J0D01*
G01*
X73685000Y-111720000D01*
G75*
G02*
X73820000Y-111855000I0J-135000D01*
G01*
X73820000Y-112125000D01*
G75*
G02*
X73685000Y-112260000I-135000J0D01*
G01*
G37*
G36*
G01*
X73685000Y-113280000D02*
X73315000Y-113280000D01*
G75*
G02*
X73180000Y-113145000I0J135000D01*
G01*
X73180000Y-112875000D01*
G75*
G02*
X73315000Y-112740000I135000J0D01*
G01*
X73685000Y-112740000D01*
G75*
G02*
X73820000Y-112875000I0J-135000D01*
G01*
X73820000Y-113145000D01*
G75*
G02*
X73685000Y-113280000I-135000J0D01*
G01*
G37*
%TD*%
%TO.C,R2*%
G36*
G01*
X71815000Y-112740000D02*
X72185000Y-112740000D01*
G75*
G02*
X72320000Y-112875000I0J-135000D01*
G01*
X72320000Y-113145000D01*
G75*
G02*
X72185000Y-113280000I-135000J0D01*
G01*
X71815000Y-113280000D01*
G75*
G02*
X71680000Y-113145000I0J135000D01*
G01*
X71680000Y-112875000D01*
G75*
G02*
X71815000Y-112740000I135000J0D01*
G01*
G37*
G36*
G01*
X71815000Y-111720000D02*
X72185000Y-111720000D01*
G75*
G02*
X72320000Y-111855000I0J-135000D01*
G01*
X72320000Y-112125000D01*
G75*
G02*
X72185000Y-112260000I-135000J0D01*
G01*
X71815000Y-112260000D01*
G75*
G02*
X71680000Y-112125000I0J135000D01*
G01*
X71680000Y-111855000D01*
G75*
G02*
X71815000Y-111720000I135000J0D01*
G01*
G37*
%TD*%
D13*
%TO.C,Q6*%
X89040000Y-141050000D03*
X87040000Y-142000000D03*
X87040000Y-140100000D03*
%TD*%
%TO.C,Q3*%
X89040000Y-144750000D03*
X87040000Y-145700000D03*
X87040000Y-143800000D03*
%TD*%
%TO.C,Q4*%
X29140000Y-140950000D03*
X27140000Y-141900000D03*
X27140000Y-140000000D03*
%TD*%
%TO.C,Q1*%
X29140000Y-144650000D03*
X27140000Y-145600000D03*
X27140000Y-143700000D03*
%TD*%
D18*
%TO.C,D6*%
X91440000Y-141050000D03*
X95440000Y-141050000D03*
%TD*%
%TO.C,D3*%
X91440000Y-144750000D03*
X95440000Y-144750000D03*
%TD*%
%TO.C,D4*%
X31540000Y-140950000D03*
X35540000Y-140950000D03*
%TD*%
%TO.C,D1*%
X31540000Y-144650000D03*
X35540000Y-144650000D03*
%TD*%
%TO.C,C7*%
G36*
G01*
X36049999Y-118400000D02*
X38250001Y-118400000D01*
G75*
G02*
X38500000Y-118649999I0J-249999D01*
G01*
X38500000Y-119300001D01*
G75*
G02*
X38250001Y-119550000I-249999J0D01*
G01*
X36049999Y-119550000D01*
G75*
G02*
X35800000Y-119300001I0J249999D01*
G01*
X35800000Y-118649999D01*
G75*
G02*
X36049999Y-118400000I249999J0D01*
G01*
G37*
G36*
G01*
X36049999Y-115450000D02*
X38250001Y-115450000D01*
G75*
G02*
X38500000Y-115699999I0J-249999D01*
G01*
X38500000Y-116350001D01*
G75*
G02*
X38250001Y-116600000I-249999J0D01*
G01*
X36049999Y-116600000D01*
G75*
G02*
X35800000Y-116350001I0J249999D01*
G01*
X35800000Y-115699999D01*
G75*
G02*
X36049999Y-115450000I249999J0D01*
G01*
G37*
%TD*%
%TO.C,C6*%
G36*
G01*
X31400000Y-119375000D02*
X31900000Y-119375000D01*
G75*
G02*
X32125000Y-119600000I0J-225000D01*
G01*
X32125000Y-120050000D01*
G75*
G02*
X31900000Y-120275000I-225000J0D01*
G01*
X31400000Y-120275000D01*
G75*
G02*
X31175000Y-120050000I0J225000D01*
G01*
X31175000Y-119600000D01*
G75*
G02*
X31400000Y-119375000I225000J0D01*
G01*
G37*
G36*
G01*
X31400000Y-117825000D02*
X31900000Y-117825000D01*
G75*
G02*
X32125000Y-118050000I0J-225000D01*
G01*
X32125000Y-118500000D01*
G75*
G02*
X31900000Y-118725000I-225000J0D01*
G01*
X31400000Y-118725000D01*
G75*
G02*
X31175000Y-118500000I0J225000D01*
G01*
X31175000Y-118050000D01*
G75*
G02*
X31400000Y-117825000I225000J0D01*
G01*
G37*
%TD*%
%TO.C,C5*%
G36*
G01*
X25800000Y-117625000D02*
X26300000Y-117625000D01*
G75*
G02*
X26525000Y-117850000I0J-225000D01*
G01*
X26525000Y-118300000D01*
G75*
G02*
X26300000Y-118525000I-225000J0D01*
G01*
X25800000Y-118525000D01*
G75*
G02*
X25575000Y-118300000I0J225000D01*
G01*
X25575000Y-117850000D01*
G75*
G02*
X25800000Y-117625000I225000J0D01*
G01*
G37*
G36*
G01*
X25800000Y-116075000D02*
X26300000Y-116075000D01*
G75*
G02*
X26525000Y-116300000I0J-225000D01*
G01*
X26525000Y-116750000D01*
G75*
G02*
X26300000Y-116975000I-225000J0D01*
G01*
X25800000Y-116975000D01*
G75*
G02*
X25575000Y-116750000I0J225000D01*
G01*
X25575000Y-116300000D01*
G75*
G02*
X25800000Y-116075000I225000J0D01*
G01*
G37*
%TD*%
%TO.C,C4*%
G36*
G01*
X27699999Y-123100000D02*
X29000001Y-123100000D01*
G75*
G02*
X29250000Y-123349999I0J-249999D01*
G01*
X29250000Y-124000001D01*
G75*
G02*
X29000001Y-124250000I-249999J0D01*
G01*
X27699999Y-124250000D01*
G75*
G02*
X27450000Y-124000001I0J249999D01*
G01*
X27450000Y-123349999D01*
G75*
G02*
X27699999Y-123100000I249999J0D01*
G01*
G37*
G36*
G01*
X27699999Y-120150000D02*
X29000001Y-120150000D01*
G75*
G02*
X29250000Y-120399999I0J-249999D01*
G01*
X29250000Y-121050001D01*
G75*
G02*
X29000001Y-121300000I-249999J0D01*
G01*
X27699999Y-121300000D01*
G75*
G02*
X27450000Y-121050001I0J249999D01*
G01*
X27450000Y-120399999D01*
G75*
G02*
X27699999Y-120150000I249999J0D01*
G01*
G37*
%TD*%
%TO.C,C3*%
G36*
G01*
X24580000Y-116900000D02*
X24920000Y-116900000D01*
G75*
G02*
X25060000Y-117040000I0J-140000D01*
G01*
X25060000Y-117320000D01*
G75*
G02*
X24920000Y-117460000I-140000J0D01*
G01*
X24580000Y-117460000D01*
G75*
G02*
X24440000Y-117320000I0J140000D01*
G01*
X24440000Y-117040000D01*
G75*
G02*
X24580000Y-116900000I140000J0D01*
G01*
G37*
G36*
G01*
X24580000Y-115940000D02*
X24920000Y-115940000D01*
G75*
G02*
X25060000Y-116080000I0J-140000D01*
G01*
X25060000Y-116360000D01*
G75*
G02*
X24920000Y-116500000I-140000J0D01*
G01*
X24580000Y-116500000D01*
G75*
G02*
X24440000Y-116360000I0J140000D01*
G01*
X24440000Y-116080000D01*
G75*
G02*
X24580000Y-115940000I140000J0D01*
G01*
G37*
%TD*%
%TO.C,C2*%
G36*
G01*
X36355000Y-133435000D02*
X36015000Y-133435000D01*
G75*
G02*
X35875000Y-133295000I0J140000D01*
G01*
X35875000Y-133015000D01*
G75*
G02*
X36015000Y-132875000I140000J0D01*
G01*
X36355000Y-132875000D01*
G75*
G02*
X36495000Y-133015000I0J-140000D01*
G01*
X36495000Y-133295000D01*
G75*
G02*
X36355000Y-133435000I-140000J0D01*
G01*
G37*
G36*
G01*
X36355000Y-134395000D02*
X36015000Y-134395000D01*
G75*
G02*
X35875000Y-134255000I0J140000D01*
G01*
X35875000Y-133975000D01*
G75*
G02*
X36015000Y-133835000I140000J0D01*
G01*
X36355000Y-133835000D01*
G75*
G02*
X36495000Y-133975000I0J-140000D01*
G01*
X36495000Y-134255000D01*
G75*
G02*
X36355000Y-134395000I-140000J0D01*
G01*
G37*
%TD*%
D19*
%TO.C,BT1*%
X50985000Y-103250000D03*
X29015000Y-103250000D03*
%TD*%
%TO.C,U2*%
G36*
G01*
X32785000Y-133867500D02*
X32785000Y-134292500D01*
G75*
G02*
X32572500Y-134505000I-212500J0D01*
G01*
X32147500Y-134505000D01*
G75*
G02*
X31935000Y-134292500I0J212500D01*
G01*
X31935000Y-133867500D01*
G75*
G02*
X32147500Y-133655000I212500J0D01*
G01*
X32572500Y-133655000D01*
G75*
G02*
X32785000Y-133867500I0J-212500D01*
G01*
G37*
G36*
G01*
X32785000Y-134917500D02*
X32785000Y-135342500D01*
G75*
G02*
X32572500Y-135555000I-212500J0D01*
G01*
X32147500Y-135555000D01*
G75*
G02*
X31935000Y-135342500I0J212500D01*
G01*
X31935000Y-134917500D01*
G75*
G02*
X32147500Y-134705000I212500J0D01*
G01*
X32572500Y-134705000D01*
G75*
G02*
X32785000Y-134917500I0J-212500D01*
G01*
G37*
G36*
G01*
X33835000Y-133867500D02*
X33835000Y-134292500D01*
G75*
G02*
X33622500Y-134505000I-212500J0D01*
G01*
X33197500Y-134505000D01*
G75*
G02*
X32985000Y-134292500I0J212500D01*
G01*
X32985000Y-133867500D01*
G75*
G02*
X33197500Y-133655000I212500J0D01*
G01*
X33622500Y-133655000D01*
G75*
G02*
X33835000Y-133867500I0J-212500D01*
G01*
G37*
G36*
G01*
X33835000Y-134917500D02*
X33835000Y-135342500D01*
G75*
G02*
X33622500Y-135555000I-212500J0D01*
G01*
X33197500Y-135555000D01*
G75*
G02*
X32985000Y-135342500I0J212500D01*
G01*
X32985000Y-134917500D01*
G75*
G02*
X33197500Y-134705000I212500J0D01*
G01*
X33622500Y-134705000D01*
G75*
G02*
X33835000Y-134917500I0J-212500D01*
G01*
G37*
G36*
G01*
X34035000Y-136042500D02*
X34035000Y-136892500D01*
G75*
G02*
X33947500Y-136980000I-87500J0D01*
G01*
X33772500Y-136980000D01*
G75*
G02*
X33685000Y-136892500I0J87500D01*
G01*
X33685000Y-136042500D01*
G75*
G02*
X33772500Y-135955000I87500J0D01*
G01*
X33947500Y-135955000D01*
G75*
G02*
X34035000Y-136042500I0J-87500D01*
G01*
G37*
G36*
G01*
X33385000Y-136042500D02*
X33385000Y-136892500D01*
G75*
G02*
X33297500Y-136980000I-87500J0D01*
G01*
X33122500Y-136980000D01*
G75*
G02*
X33035000Y-136892500I0J87500D01*
G01*
X33035000Y-136042500D01*
G75*
G02*
X33122500Y-135955000I87500J0D01*
G01*
X33297500Y-135955000D01*
G75*
G02*
X33385000Y-136042500I0J-87500D01*
G01*
G37*
G36*
G01*
X32735000Y-136042500D02*
X32735000Y-136892500D01*
G75*
G02*
X32647500Y-136980000I-87500J0D01*
G01*
X32472500Y-136980000D01*
G75*
G02*
X32385000Y-136892500I0J87500D01*
G01*
X32385000Y-136042500D01*
G75*
G02*
X32472500Y-135955000I87500J0D01*
G01*
X32647500Y-135955000D01*
G75*
G02*
X32735000Y-136042500I0J-87500D01*
G01*
G37*
G36*
G01*
X32085000Y-136042500D02*
X32085000Y-136892500D01*
G75*
G02*
X31997500Y-136980000I-87500J0D01*
G01*
X31822500Y-136980000D01*
G75*
G02*
X31735000Y-136892500I0J87500D01*
G01*
X31735000Y-136042500D01*
G75*
G02*
X31822500Y-135955000I87500J0D01*
G01*
X31997500Y-135955000D01*
G75*
G02*
X32085000Y-136042500I0J-87500D01*
G01*
G37*
G36*
G01*
X31535000Y-135492500D02*
X31535000Y-135667500D01*
G75*
G02*
X31447500Y-135755000I-87500J0D01*
G01*
X30597500Y-135755000D01*
G75*
G02*
X30510000Y-135667500I0J87500D01*
G01*
X30510000Y-135492500D01*
G75*
G02*
X30597500Y-135405000I87500J0D01*
G01*
X31447500Y-135405000D01*
G75*
G02*
X31535000Y-135492500I0J-87500D01*
G01*
G37*
G36*
G01*
X31535000Y-134842500D02*
X31535000Y-135017500D01*
G75*
G02*
X31447500Y-135105000I-87500J0D01*
G01*
X30597500Y-135105000D01*
G75*
G02*
X30510000Y-135017500I0J87500D01*
G01*
X30510000Y-134842500D01*
G75*
G02*
X30597500Y-134755000I87500J0D01*
G01*
X31447500Y-134755000D01*
G75*
G02*
X31535000Y-134842500I0J-87500D01*
G01*
G37*
G36*
G01*
X31535000Y-134192500D02*
X31535000Y-134367500D01*
G75*
G02*
X31447500Y-134455000I-87500J0D01*
G01*
X30597500Y-134455000D01*
G75*
G02*
X30510000Y-134367500I0J87500D01*
G01*
X30510000Y-134192500D01*
G75*
G02*
X30597500Y-134105000I87500J0D01*
G01*
X31447500Y-134105000D01*
G75*
G02*
X31535000Y-134192500I0J-87500D01*
G01*
G37*
G36*
G01*
X31535000Y-133542500D02*
X31535000Y-133717500D01*
G75*
G02*
X31447500Y-133805000I-87500J0D01*
G01*
X30597500Y-133805000D01*
G75*
G02*
X30510000Y-133717500I0J87500D01*
G01*
X30510000Y-133542500D01*
G75*
G02*
X30597500Y-133455000I87500J0D01*
G01*
X31447500Y-133455000D01*
G75*
G02*
X31535000Y-133542500I0J-87500D01*
G01*
G37*
G36*
G01*
X32085000Y-132317500D02*
X32085000Y-133167500D01*
G75*
G02*
X31997500Y-133255000I-87500J0D01*
G01*
X31822500Y-133255000D01*
G75*
G02*
X31735000Y-133167500I0J87500D01*
G01*
X31735000Y-132317500D01*
G75*
G02*
X31822500Y-132230000I87500J0D01*
G01*
X31997500Y-132230000D01*
G75*
G02*
X32085000Y-132317500I0J-87500D01*
G01*
G37*
G36*
G01*
X32735000Y-132317500D02*
X32735000Y-133167500D01*
G75*
G02*
X32647500Y-133255000I-87500J0D01*
G01*
X32472500Y-133255000D01*
G75*
G02*
X32385000Y-133167500I0J87500D01*
G01*
X32385000Y-132317500D01*
G75*
G02*
X32472500Y-132230000I87500J0D01*
G01*
X32647500Y-132230000D01*
G75*
G02*
X32735000Y-132317500I0J-87500D01*
G01*
G37*
G36*
G01*
X33385000Y-132317500D02*
X33385000Y-133167500D01*
G75*
G02*
X33297500Y-133255000I-87500J0D01*
G01*
X33122500Y-133255000D01*
G75*
G02*
X33035000Y-133167500I0J87500D01*
G01*
X33035000Y-132317500D01*
G75*
G02*
X33122500Y-132230000I87500J0D01*
G01*
X33297500Y-132230000D01*
G75*
G02*
X33385000Y-132317500I0J-87500D01*
G01*
G37*
G36*
G01*
X34035000Y-132317500D02*
X34035000Y-133167500D01*
G75*
G02*
X33947500Y-133255000I-87500J0D01*
G01*
X33772500Y-133255000D01*
G75*
G02*
X33685000Y-133167500I0J87500D01*
G01*
X33685000Y-132317500D01*
G75*
G02*
X33772500Y-132230000I87500J0D01*
G01*
X33947500Y-132230000D01*
G75*
G02*
X34035000Y-132317500I0J-87500D01*
G01*
G37*
G36*
G01*
X35260000Y-133542500D02*
X35260000Y-133717500D01*
G75*
G02*
X35172500Y-133805000I-87500J0D01*
G01*
X34322500Y-133805000D01*
G75*
G02*
X34235000Y-133717500I0J87500D01*
G01*
X34235000Y-133542500D01*
G75*
G02*
X34322500Y-133455000I87500J0D01*
G01*
X35172500Y-133455000D01*
G75*
G02*
X35260000Y-133542500I0J-87500D01*
G01*
G37*
G36*
G01*
X35260000Y-134192500D02*
X35260000Y-134367500D01*
G75*
G02*
X35172500Y-134455000I-87500J0D01*
G01*
X34322500Y-134455000D01*
G75*
G02*
X34235000Y-134367500I0J87500D01*
G01*
X34235000Y-134192500D01*
G75*
G02*
X34322500Y-134105000I87500J0D01*
G01*
X35172500Y-134105000D01*
G75*
G02*
X35260000Y-134192500I0J-87500D01*
G01*
G37*
G36*
G01*
X35260000Y-134842500D02*
X35260000Y-135017500D01*
G75*
G02*
X35172500Y-135105000I-87500J0D01*
G01*
X34322500Y-135105000D01*
G75*
G02*
X34235000Y-135017500I0J87500D01*
G01*
X34235000Y-134842500D01*
G75*
G02*
X34322500Y-134755000I87500J0D01*
G01*
X35172500Y-134755000D01*
G75*
G02*
X35260000Y-134842500I0J-87500D01*
G01*
G37*
G36*
G01*
X35260000Y-135492500D02*
X35260000Y-135667500D01*
G75*
G02*
X35172500Y-135755000I-87500J0D01*
G01*
X34322500Y-135755000D01*
G75*
G02*
X34235000Y-135667500I0J87500D01*
G01*
X34235000Y-135492500D01*
G75*
G02*
X34322500Y-135405000I87500J0D01*
G01*
X35172500Y-135405000D01*
G75*
G02*
X35260000Y-135492500I0J-87500D01*
G01*
G37*
%TD*%
D17*
%TO.C,R6*%
X112490000Y-161550000D03*
X112490000Y-165150000D03*
X108190000Y-161550000D03*
X108190000Y-165150000D03*
%TD*%
D13*
%TO.C,Q5*%
X58940000Y-141050000D03*
X56940000Y-142000000D03*
X56940000Y-140100000D03*
%TD*%
%TO.C,Q2*%
X58940000Y-144750000D03*
X56940000Y-145700000D03*
X56940000Y-143800000D03*
%TD*%
D18*
%TO.C,D5*%
X61340000Y-141050000D03*
X65340000Y-141050000D03*
%TD*%
%TO.C,D2*%
X61340000Y-144750000D03*
X65340000Y-144750000D03*
%TD*%
M02*
