M48
; DRILL file {KiCad (5.1.9-0-10_14)} date Thursday, May 27, 2021 at 12:43:33 AM
; FORMAT={-:-/ absolute / inch / decimal}
; #@! TF.CreationDate,2021-05-27T00:43:33-07:00
; #@! TF.GenerationSoftware,Kicad,Pcbnew,(5.1.9-0-10_14)
FMAT,2
INCH
T1C0.0079
T2C0.0157
T3C0.0394
T4C0.0472
T5C0.0512
T6C0.0701
T7C0.0728
%
G90
G05
T1
X1.122Y-4.5984
X1.122Y-4.6378
X1.1496Y-4.5984
X1.1496Y-4.6378
T2
X0.935Y-3.75
X0.935Y-3.8091
X0.935Y-3.878
X0.935Y-3.9469
X0.935Y-4.0157
X0.935Y-4.0846
X0.935Y-4.1535
X0.935Y-4.2224
X0.935Y-4.2913
X0.935Y-4.3602
X0.935Y-4.4291
X0.935Y-4.498
X0.935Y-4.5669
X0.935Y-4.6358
X0.935Y-4.7047
X0.935Y-4.7736
X0.935Y-4.8425
X0.935Y-4.9114
X0.935Y-4.9803
X0.935Y-5.0492
X0.935Y-5.1181
X0.935Y-5.187
X0.935Y-5.2559
X0.935Y-5.3248
X0.935Y-5.3937
X0.935Y-5.4626
X0.935Y-5.5315
X0.935Y-5.6004
X0.935Y-5.6693
X0.935Y-5.7382
X0.935Y-5.8071
X0.935Y-5.876
X0.935Y-5.9449
X0.935Y-6.0138
X0.935Y-6.0827
X0.935Y-6.1516
X0.935Y-6.2205
X0.935Y-6.2894
X0.935Y-6.3583
X0.935Y-6.4272
X0.935Y-6.4961
X0.935Y-6.565
X0.935Y-6.6339
X0.935Y-6.7028
X0.935Y-6.7717
X0.935Y-6.8406
X0.935Y-6.9094
X0.935Y-6.9783
X0.935Y-7.0472
X0.935Y-7.1161
X0.935Y-7.185
X0.935Y-7.2539
X0.935Y-7.3917
X0.9941Y-3.75
X1.063Y-3.75
X1.063Y-7.3917
X1.0787Y-5.2382
X1.0866Y-4.6909
X1.0945Y-4.5571
X1.1165Y-5.4252
X1.1201Y-5.313
X1.122Y-4.7343
X1.122Y-6.1516
X1.1256Y-6.4409
X1.1319Y-3.75
X1.1319Y-5.5906
X1.1319Y-5.7283
X1.1319Y-5.9252
X1.1319Y-7.3917
X1.1417Y-4.3898
X1.1516Y-5.3602
X1.1594Y-5.1417
X1.1614Y-5.187
X1.1811Y-6.2303
X1.1831Y-4.6929
X1.2008Y-3.75
X1.2008Y-7.3917
X1.2142Y-6.126
X1.222Y-5.3772
X1.2303Y-3.9075
X1.2402Y-5.1476
X1.25Y-4.6024
X1.2634Y-6.0866
X1.2697Y-3.75
X1.2697Y-7.3917
X1.2933Y-5.4429
X1.2953Y-4.5138
X1.3028Y-6.0571
X1.3091Y-5.0591
X1.3091Y-5.1378
X1.3248Y-4.7559
X1.3366Y-6.0236
X1.3386Y-3.75
X1.3386Y-5.4264
X1.3386Y-7.3917
X1.3484Y-6.2343
X1.3524Y-4.8425
X1.3528Y-6.3213
X1.3602Y-4.5512
X1.3689Y-5.3815
X1.3717Y-5.9882
X1.378Y-5.2067
X1.3803Y-4.7791
X1.3925Y-4.8839
X1.4012Y-5.9488
X1.4075Y-3.75
X1.4075Y-7.3917
X1.4256Y-5.3906
X1.4285Y-5.214
X1.439Y-5.878
X1.4469Y-5.7677
X1.4567Y-5.3543
X1.4594Y-4.6303
X1.4665Y-5.1772
X1.4665Y-5.5512
X1.4764Y-3.75
X1.4764Y-5.0295
X1.4764Y-5.8465
X1.4764Y-7.3917
X1.4862Y-5.4429
X1.5059Y-5.1378
X1.5059Y-5.8169
X1.5256Y-5.0591
X1.5256Y-5.3543
X1.5354Y-5.0
X1.539Y-6.4311
X1.5453Y-3.75
X1.5453Y-7.3917
X1.5551Y-5.0886
X1.5748Y-4.7933
X1.5748Y-5.502
X1.5945Y-5.1378
X1.6142Y-3.75
X1.6142Y-7.3917
X1.624Y-5.4429
X1.6339Y-4.5571
X1.6831Y-3.75
X1.6831Y-7.3917
X1.7323Y-4.6161
X1.752Y-3.75
X1.752Y-4.7933
X1.752Y-5.0
X1.752Y-7.3917
X1.7917Y-6.5047
X1.811Y-5.0295
X1.811Y-5.502
X1.811Y-5.8169
X1.8209Y-3.75
X1.8209Y-5.5906
X1.8209Y-7.3917
X1.8406Y-5.0886
X1.8504Y-4.4291
X1.8638Y-6.4311
X1.8701Y-5.4528
X1.876Y-5.0591
X1.8799Y-5.1378
X1.8898Y-3.75
X1.8898Y-7.3917
X1.9094Y-3.878
X1.913Y-6.126
X1.9291Y-4.439
X1.939Y-4.5079
X1.939Y-4.8622
X1.9524Y-6.0866
X1.9524Y-6.4311
X1.9547Y-5.5157
X1.9587Y-3.75
X1.9587Y-7.3917
X1.9783Y-4.5276
X2.0276Y-3.75
X2.0276Y-5.0
X2.0276Y-7.3917
X2.0374Y-4.8917
X2.0472Y-3.8386
X2.0472Y-4.7146
X2.0669Y-4.1929
X2.0768Y-4.685
X2.0768Y-4.8917
X2.0768Y-5.0295
X2.0866Y-6.0433
X2.0965Y-7.3917
X2.1063Y-5.9547
X2.1161Y-4.7244
X2.1161Y-4.9409
X2.1161Y-5.0591
X2.126Y-4.3602
X2.126Y-4.3996
X2.1457Y-5.0886
X2.1555Y-4.4783
X2.1555Y-4.7539
X2.1555Y-4.9705
X2.1654Y-7.3917
X2.1787Y-5.5551
X2.185Y-5.1181
X2.1949Y-4.4783
X2.1949Y-4.7736
X2.1949Y-4.9409
X2.2244Y-4.0059
X2.2244Y-4.0453
X2.2244Y-4.7343
X2.2244Y-4.9114
X2.2343Y-3.75
X2.2343Y-7.3917
X2.2362Y-4.4823
X2.2441Y-3.9173
X2.2441Y-4.3307
X2.2441Y-5.689
X2.2465Y-6.4972
X2.2539Y-4.124
X2.2638Y-5.5118
X2.2736Y-4.3898
X2.2736Y-4.4291
X2.2933Y-3.9764
X2.2972Y-4.4961
X2.3031Y-3.75
X2.3031Y-7.3917
X2.313Y-5.9449
X2.3165Y-5.7717
X2.3165Y-6.4409
X2.3228Y-4.3996
X2.3327Y-4.0059
X2.3327Y-4.0453
X2.3327Y-4.1142
X2.3327Y-4.1535
X2.3524Y-4.2126
X2.3622Y-3.8878
X2.372Y-3.75
X2.372Y-7.3917
X2.3917Y-4.0945
X2.4213Y-4.2421
X2.4213Y-4.3602
X2.4234Y-6.0116
X2.4311Y-3.7894
X2.4311Y-3.9469
X2.4311Y-4.1437
X2.4409Y-3.75
X2.4409Y-4.0748
X2.4409Y-4.2815
X2.4409Y-6.0567
X2.4409Y-6.1063
X2.4409Y-7.3917
X2.5Y-6.2303
X2.5098Y-7.3917
X2.5689Y-6.2402
X2.5787Y-7.3917
X2.5886Y-4.3504
X2.5984Y-4.0157
X2.6181Y-6.2697
X2.628Y-4.1634
X2.6476Y-4.0551
X2.6476Y-4.3406
X2.6476Y-6.1024
X2.6476Y-6.1417
X2.6476Y-7.3917
X2.6575Y-4.1339
X2.6772Y-5.5217
X2.6772Y-5.5906
X2.6969Y-4.3504
X2.6969Y-5.4823
X2.7165Y-6.0531
X2.7165Y-7.3917
X2.7201Y-6.4311
X2.7362Y-5.4724
X2.7657Y-4.1634
X2.7657Y-4.4291
X2.7756Y-5.4528
X2.7854Y-7.3917
X2.7953Y-4.0551
X2.7953Y-6.25
X2.815Y-4.1339
X2.8248Y-5.0689
X2.8248Y-6.0138
X2.8543Y-7.3917
X2.8937Y-4.1929
X2.9035Y-4.4685
X2.9232Y-7.3917
X2.9429Y-4.4193
X2.9563Y-6.5008
X2.9724Y-4.3504
X2.9823Y-4.4488
X2.9921Y-7.3917
X3.002Y-4.5866
X3.0118Y-4.6949
X3.0118Y-4.8622
X3.0217Y-3.75
X3.0217Y-4.2913
X3.0217Y-4.3406
X3.0413Y-4.0551
X3.0449Y-6.4311
X3.061Y-3.75
X3.061Y-4.2717
X3.061Y-4.626
X3.061Y-4.6949
X3.061Y-4.8228
X3.061Y-7.3917
X3.0941Y-6.1358
X3.1102Y-3.8189
X3.1102Y-4.6358
X3.1102Y-4.6949
X3.1102Y-5.0197
X3.1236Y-6.4409
X3.1299Y-3.75
X3.1299Y-7.3917
X3.1335Y-6.1063
X3.1496Y-3.9567
X3.1496Y-4.4882
X3.1496Y-4.7835
X3.1496Y-4.9902
X3.189Y-4.2717
X3.1988Y-3.75
X3.1988Y-3.8681
X3.1988Y-4.3799
X3.1988Y-7.3917
X3.2087Y-4.9902
X3.2185Y-4.6161
X3.2283Y-4.1732
X3.2382Y-4.3012
X3.2579Y-3.9075
X3.2677Y-3.75
X3.2677Y-4.3406
X3.2677Y-7.3917
X3.2874Y-4.1043
X3.2874Y-4.2421
X3.3366Y-3.75
X3.3366Y-7.3917
X3.3563Y-4.4291
X3.3563Y-4.5571
X3.3795Y-5.5551
X3.3858Y-4.498
X3.4055Y-3.75
X3.4055Y-4.3996
X3.4055Y-7.3917
X3.4154Y-5.6398
X3.4449Y-5.5315
X3.4634Y-6.5008
X3.4646Y-4.3898
X3.4744Y-3.75
X3.4744Y-7.3917
X3.4976Y-5.7618
X3.4976Y-6.4409
X3.5138Y-5.0295
X3.5315Y-6.1043
X3.5433Y-3.75
X3.5433Y-4.9508
X3.5433Y-6.2303
X3.5433Y-7.3917
X3.5709Y-6.1358
X3.6024Y-5.128
X3.6024Y-5.1772
X3.6024Y-5.2264
X3.6024Y-5.2756
X3.6024Y-5.3248
X3.6122Y-3.75
X3.6122Y-7.3917
X3.622Y-5.0787
X3.622Y-5.9744
X3.6319Y-4.8622
X3.6614Y-4.5571
X3.6614Y-4.8327
X3.6811Y-3.75
X3.6811Y-7.3917
X3.7008Y-5.0295
X3.7106Y-6.1319
X3.7303Y-5.8465
X3.7402Y-4.9508
X3.7402Y-6.3287
X3.75Y-3.75
X3.75Y-7.3917
X3.7598Y-6.1024
X3.7697Y-5.4626
X3.7992Y-6.1811
X3.7992Y-6.5157
X3.8091Y-4.9902
X3.8091Y-5.1181
X3.8091Y-5.1673
X3.8091Y-5.2165
X3.8091Y-5.2657
X3.8091Y-5.315
X3.8091Y-5.3642
X3.8189Y-3.75
X3.8189Y-7.3917
X3.8287Y-4.4882
X3.8878Y-3.75
X3.8878Y-6.2697
X3.8878Y-7.3917
X3.911Y-6.4409
X3.937Y-6.5059
X3.9567Y-3.75
X3.9567Y-7.3917
X4.0256Y-3.75
X4.0256Y-7.3917
X4.0945Y-3.75
X4.0945Y-7.3917
X4.1634Y-3.75
X4.1634Y-7.3917
X4.2323Y-3.75
X4.2323Y-7.3917
X4.3012Y-3.75
X4.3012Y-7.3917
X4.3047Y-6.1358
X4.3047Y-6.4213
X4.3441Y-6.1063
X4.3539Y-6.4213
X4.3701Y-3.75
X4.3701Y-7.3917
X4.439Y-3.75
X4.439Y-7.3917
X4.5079Y-3.75
X4.5079Y-7.3917
X4.5768Y-3.75
X4.5768Y-7.3917
X4.6457Y-3.75
X4.7146Y-3.75
X4.7815Y-3.75
X4.7815Y-3.8091
X4.7815Y-3.878
X4.7815Y-3.9469
X4.7815Y-4.0157
X4.7815Y-4.0846
X4.7815Y-4.1535
X4.7815Y-4.2224
X4.7815Y-4.2913
X4.7815Y-4.3602
X4.7815Y-4.4291
X4.7815Y-4.498
X4.7815Y-4.5669
X4.7815Y-4.6358
X4.7815Y-4.7047
X4.7815Y-4.7736
X4.7815Y-4.8425
X4.7815Y-4.9114
X4.7815Y-4.9803
X4.7815Y-5.0492
X4.7815Y-5.1181
X4.7815Y-5.187
X4.7815Y-5.2559
X4.7815Y-5.3248
X4.7815Y-5.3937
X4.7815Y-5.4626
X4.7815Y-5.5315
X4.7815Y-5.6004
X4.7815Y-5.6693
X4.7815Y-5.7382
X4.7815Y-5.8071
X4.7815Y-5.876
X4.7815Y-5.9449
X4.7815Y-6.0138
X4.7815Y-6.0827
X4.7815Y-6.1516
X4.7815Y-6.2205
X4.7815Y-6.2894
X4.7815Y-6.3583
X4.7815Y-6.4272
X4.7815Y-6.4961
X4.7815Y-6.565
X4.7815Y-6.6339
X4.7815Y-6.7028
X4.7815Y-6.7717
X4.7815Y-6.8406
X4.7815Y-6.9094
X4.7815Y-6.9783
X4.7815Y-7.0472
X4.7815Y-7.1161
X4.7815Y-7.185
X4.7815Y-7.2539
X4.7815Y-7.3228
X4.7815Y-7.3917
T3
X2.1457Y-3.7992
X2.1457Y-3.8992
X2.1457Y-3.9992
X2.1457Y-4.0992
X2.1457Y-4.1992
X3.2091Y-4.7075
X3.3091Y-4.7075
X3.4091Y-4.7075
T4
X2.8307Y-4.7085
X2.8307Y-4.8093
X2.8307Y-4.9085
X2.9307Y-4.6585
X2.9307Y-4.7585
X2.9307Y-4.8585
X3.7205Y-4.7638
X3.8189Y-4.6654
X3.8189Y-4.8622
X3.9173Y-4.6654
X3.9173Y-4.8622
X4.0157Y-4.6654
X4.0157Y-4.8622
X4.1142Y-4.7638
T5
X1.0685Y-5.8996
X1.0685Y-6.0472
X1.0685Y-6.1949
X1.6591Y-5.8996
X1.6591Y-6.1949
X1.8559Y-5.8996
X1.8559Y-6.1949
X2.0528Y-5.8996
X2.0528Y-6.1949
X2.2496Y-5.8996
X2.2496Y-6.0472
X2.2496Y-6.1949
X2.8402Y-5.8996
X2.8402Y-6.1949
X3.037Y-5.8996
X3.037Y-6.1949
X3.2339Y-5.8996
X3.2339Y-6.1949
X3.4307Y-5.8996
X3.4307Y-6.0472
X3.4307Y-6.1949
X4.0213Y-5.8996
X4.0213Y-6.1949
X4.2181Y-5.8996
X4.2181Y-6.1949
X4.415Y-5.8996
X4.415Y-6.1949
T6
X1.5921Y-5.25
X1.5921Y-5.6406
X1.726Y-5.25
X1.726Y-5.6406
X1.9071Y-5.25
X1.9071Y-5.6406
X2.0409Y-5.25
X2.0409Y-5.6406
X2.7732Y-5.25
X2.7732Y-5.6406
X2.9071Y-5.25
X2.9071Y-5.6406
X3.0882Y-5.25
X3.0882Y-5.6406
X3.222Y-5.25
X3.222Y-5.6406
X3.9508Y-5.2461
X3.9508Y-5.6366
X4.0846Y-5.2461
X4.0846Y-5.6366
X4.2657Y-5.2461
X4.2657Y-5.6366
X4.3996Y-5.2461
X4.3996Y-5.6366
T7
X1.1837Y-6.9317
X1.1837Y-7.1628
X1.4148Y-6.9317
X1.4148Y-7.1628
X1.7742Y-6.9317
X1.7742Y-7.1628
X2.0053Y-6.9317
X2.0053Y-7.1628
X2.3648Y-6.9317
X2.3648Y-7.1628
X2.5959Y-6.9317
X2.5959Y-7.1628
X2.9553Y-6.9317
X2.9553Y-7.1628
X3.1864Y-6.9317
X3.1864Y-7.1628
X3.3982Y-3.9297
X3.3982Y-4.1043
X3.3982Y-4.2789
X3.5459Y-6.9317
X3.5459Y-7.1628
X3.5728Y-3.9297
X3.5728Y-4.1043
X3.5728Y-4.2789
X3.7474Y-3.9297
X3.7474Y-4.1043
X3.7474Y-4.2789
X3.777Y-6.9317
X3.777Y-7.1628
X4.0478Y-3.9297
X4.0478Y-4.1043
X4.0478Y-4.2789
X4.1364Y-6.9317
X4.1364Y-7.1628
X4.2224Y-3.9297
X4.2224Y-4.1043
X4.2224Y-4.2789
X4.3675Y-6.9317
X4.3675Y-7.1628
X4.397Y-3.9297
X4.397Y-4.1043
X4.397Y-4.2789
T0
M30
