%TF.GenerationSoftware,KiCad,Pcbnew,(5.1.9-0-10_14)*%
%TF.CreationDate,2021-07-01T16:44:21-07:00*%
%TF.ProjectId,vantroller_v5_switch,76616e74-726f-46c6-9c65-725f76355f73,rev?*%
%TF.SameCoordinates,Original*%
%TF.FileFunction,Legend,Bot*%
%TF.FilePolarity,Positive*%
%FSLAX46Y46*%
G04 Gerber Fmt 4.6, Leading zero omitted, Abs format (unit mm)*
G04 Created by KiCad (PCBNEW (5.1.9-0-10_14)) date 2021-07-01 16:44:21*
%MOMM*%
%LPD*%
G01*
G04 APERTURE LIST*
%ADD10C,0.300000*%
%ADD11C,0.120000*%
%ADD12C,0.150000*%
G04 APERTURE END LIST*
D10*
X31678571Y-104392857D02*
X30678571Y-104392857D01*
X30821428Y-104392857D02*
X30750000Y-104464285D01*
X30678571Y-104607142D01*
X30678571Y-104821428D01*
X30750000Y-104964285D01*
X30892857Y-105035714D01*
X31678571Y-105035714D01*
X30892857Y-105035714D02*
X30750000Y-105107142D01*
X30678571Y-105250000D01*
X30678571Y-105464285D01*
X30750000Y-105607142D01*
X30892857Y-105678571D01*
X31678571Y-105678571D01*
X31678571Y-106392857D02*
X30678571Y-106392857D01*
X30178571Y-106392857D02*
X30250000Y-106321428D01*
X30321428Y-106392857D01*
X30250000Y-106464285D01*
X30178571Y-106392857D01*
X30321428Y-106392857D01*
X31607142Y-107035714D02*
X31678571Y-107178571D01*
X31678571Y-107464285D01*
X31607142Y-107607142D01*
X31464285Y-107678571D01*
X31392857Y-107678571D01*
X31250000Y-107607142D01*
X31178571Y-107464285D01*
X31178571Y-107250000D01*
X31107142Y-107107142D01*
X30964285Y-107035714D01*
X30892857Y-107035714D01*
X30750000Y-107107142D01*
X30678571Y-107250000D01*
X30678571Y-107464285D01*
X30750000Y-107607142D01*
X31678571Y-108321428D02*
X30178571Y-108321428D01*
X31107142Y-108464285D02*
X31678571Y-108892857D01*
X30678571Y-108892857D02*
X31250000Y-108321428D01*
X31678571Y-109750000D02*
X31607142Y-109607142D01*
X31535714Y-109535714D01*
X31392857Y-109464285D01*
X30964285Y-109464285D01*
X30821428Y-109535714D01*
X30750000Y-109607142D01*
X30678571Y-109750000D01*
X30678571Y-109964285D01*
X30750000Y-110107142D01*
X30821428Y-110178571D01*
X30964285Y-110250000D01*
X31392857Y-110250000D01*
X31535714Y-110178571D01*
X31607142Y-110107142D01*
X31678571Y-109964285D01*
X31678571Y-109750000D01*
X30964285Y-111821428D02*
X30892857Y-111750000D01*
X30821428Y-111607142D01*
X30821428Y-111464285D01*
X30892857Y-111321428D01*
X30964285Y-111250000D01*
X31107142Y-111178571D01*
X31250000Y-111178571D01*
X31392857Y-111250000D01*
X31464285Y-111321428D01*
X31535714Y-111464285D01*
X31535714Y-111607142D01*
X31464285Y-111750000D01*
X31392857Y-111821428D01*
X30821428Y-111821428D02*
X31392857Y-111821428D01*
X31464285Y-111892857D01*
X31464285Y-111964285D01*
X31392857Y-112107142D01*
X31250000Y-112178571D01*
X30892857Y-112178571D01*
X30678571Y-112035714D01*
X30535714Y-111821428D01*
X30464285Y-111535714D01*
X30535714Y-111250000D01*
X30678571Y-111035714D01*
X30892857Y-110892857D01*
X31178571Y-110821428D01*
X31464285Y-110892857D01*
X31678571Y-111035714D01*
X31821428Y-111250000D01*
X31892857Y-111535714D01*
X31821428Y-111821428D01*
X31678571Y-112035714D01*
X31607142Y-113464285D02*
X31678571Y-113321428D01*
X31678571Y-113035714D01*
X31607142Y-112892857D01*
X31535714Y-112821428D01*
X31392857Y-112750000D01*
X30964285Y-112750000D01*
X30821428Y-112821428D01*
X30750000Y-112892857D01*
X30678571Y-113035714D01*
X30678571Y-113321428D01*
X30750000Y-113464285D01*
X31607142Y-114035714D02*
X31678571Y-114178571D01*
X31678571Y-114464285D01*
X31607142Y-114607142D01*
X31464285Y-114678571D01*
X31392857Y-114678571D01*
X31250000Y-114607142D01*
X31178571Y-114464285D01*
X31178571Y-114250000D01*
X31107142Y-114107142D01*
X30964285Y-114035714D01*
X30892857Y-114035714D01*
X30750000Y-114107142D01*
X30678571Y-114250000D01*
X30678571Y-114464285D01*
X30750000Y-114607142D01*
X31535714Y-115321428D02*
X31607142Y-115392857D01*
X31678571Y-115321428D01*
X31607142Y-115250000D01*
X31535714Y-115321428D01*
X31678571Y-115321428D01*
X30678571Y-115821428D02*
X30678571Y-116392857D01*
X30178571Y-116035714D02*
X31464285Y-116035714D01*
X31607142Y-116107142D01*
X31678571Y-116250000D01*
X31678571Y-116392857D01*
X31678571Y-117107142D02*
X31607142Y-116964285D01*
X31535714Y-116892857D01*
X31392857Y-116821428D01*
X30964285Y-116821428D01*
X30821428Y-116892857D01*
X30750000Y-116964285D01*
X30678571Y-117107142D01*
X30678571Y-117321428D01*
X30750000Y-117464285D01*
X30821428Y-117535714D01*
X30964285Y-117607142D01*
X31392857Y-117607142D01*
X31535714Y-117535714D01*
X31607142Y-117464285D01*
X31678571Y-117321428D01*
X31678571Y-117107142D01*
X31678571Y-118250000D02*
X30678571Y-118250000D01*
X30964285Y-118250000D02*
X30821428Y-118321428D01*
X30750000Y-118392857D01*
X30678571Y-118535714D01*
X30678571Y-118678571D01*
X31678571Y-119392857D02*
X31607142Y-119250000D01*
X31535714Y-119178571D01*
X31392857Y-119107142D01*
X30964285Y-119107142D01*
X30821428Y-119178571D01*
X30750000Y-119250000D01*
X30678571Y-119392857D01*
X30678571Y-119607142D01*
X30750000Y-119750000D01*
X30821428Y-119821428D01*
X30964285Y-119892857D01*
X31392857Y-119892857D01*
X31535714Y-119821428D01*
X31607142Y-119750000D01*
X31678571Y-119607142D01*
X31678571Y-119392857D01*
X30678571Y-120535714D02*
X31678571Y-120535714D01*
X30821428Y-120535714D02*
X30750000Y-120607142D01*
X30678571Y-120750000D01*
X30678571Y-120964285D01*
X30750000Y-121107142D01*
X30892857Y-121178571D01*
X31678571Y-121178571D01*
X30678571Y-121678571D02*
X30678571Y-122250000D01*
X30178571Y-121892857D02*
X31464285Y-121892857D01*
X31607142Y-121964285D01*
X31678571Y-122107142D01*
X31678571Y-122250000D01*
X31678571Y-122964285D02*
X31607142Y-122821428D01*
X31535714Y-122750000D01*
X31392857Y-122678571D01*
X30964285Y-122678571D01*
X30821428Y-122750000D01*
X30750000Y-122821428D01*
X30678571Y-122964285D01*
X30678571Y-123178571D01*
X30750000Y-123321428D01*
X30821428Y-123392857D01*
X30964285Y-123464285D01*
X31392857Y-123464285D01*
X31535714Y-123392857D01*
X31607142Y-123321428D01*
X31678571Y-123178571D01*
X31678571Y-122964285D01*
X31535714Y-124107142D02*
X31607142Y-124178571D01*
X31678571Y-124107142D01*
X31607142Y-124035714D01*
X31535714Y-124107142D01*
X31678571Y-124107142D01*
X31607142Y-125392857D02*
X31678571Y-125250000D01*
X31678571Y-124964285D01*
X31607142Y-124821428D01*
X31464285Y-124750000D01*
X30892857Y-124750000D01*
X30750000Y-124821428D01*
X30678571Y-124964285D01*
X30678571Y-125250000D01*
X30750000Y-125392857D01*
X30892857Y-125464285D01*
X31035714Y-125464285D01*
X31178571Y-124750000D01*
X31678571Y-126750000D02*
X30178571Y-126750000D01*
X31607142Y-126750000D02*
X31678571Y-126607142D01*
X31678571Y-126321428D01*
X31607142Y-126178571D01*
X31535714Y-126107142D01*
X31392857Y-126035714D01*
X30964285Y-126035714D01*
X30821428Y-126107142D01*
X30750000Y-126178571D01*
X30678571Y-126321428D01*
X30678571Y-126607142D01*
X30750000Y-126750000D01*
X30678571Y-128107142D02*
X31678571Y-128107142D01*
X30678571Y-127464285D02*
X31464285Y-127464285D01*
X31607142Y-127535714D01*
X31678571Y-127678571D01*
X31678571Y-127892857D01*
X31607142Y-128035714D01*
X31535714Y-128107142D01*
X34428571Y-105142857D02*
X35428571Y-105500000D01*
X34428571Y-105857142D01*
X35428571Y-107071428D02*
X34642857Y-107071428D01*
X34500000Y-107000000D01*
X34428571Y-106857142D01*
X34428571Y-106571428D01*
X34500000Y-106428571D01*
X35357142Y-107071428D02*
X35428571Y-106928571D01*
X35428571Y-106571428D01*
X35357142Y-106428571D01*
X35214285Y-106357142D01*
X35071428Y-106357142D01*
X34928571Y-106428571D01*
X34857142Y-106571428D01*
X34857142Y-106928571D01*
X34785714Y-107071428D01*
X34428571Y-107785714D02*
X35428571Y-107785714D01*
X34571428Y-107785714D02*
X34500000Y-107857142D01*
X34428571Y-108000000D01*
X34428571Y-108214285D01*
X34500000Y-108357142D01*
X34642857Y-108428571D01*
X35428571Y-108428571D01*
X34428571Y-108928571D02*
X34428571Y-109500000D01*
X33928571Y-109142857D02*
X35214285Y-109142857D01*
X35357142Y-109214285D01*
X35428571Y-109357142D01*
X35428571Y-109500000D01*
X35428571Y-110000000D02*
X34428571Y-110000000D01*
X34714285Y-110000000D02*
X34571428Y-110071428D01*
X34500000Y-110142857D01*
X34428571Y-110285714D01*
X34428571Y-110428571D01*
X35428571Y-111142857D02*
X35357142Y-111000000D01*
X35285714Y-110928571D01*
X35142857Y-110857142D01*
X34714285Y-110857142D01*
X34571428Y-110928571D01*
X34500000Y-111000000D01*
X34428571Y-111142857D01*
X34428571Y-111357142D01*
X34500000Y-111500000D01*
X34571428Y-111571428D01*
X34714285Y-111642857D01*
X35142857Y-111642857D01*
X35285714Y-111571428D01*
X35357142Y-111500000D01*
X35428571Y-111357142D01*
X35428571Y-111142857D01*
X35428571Y-112500000D02*
X35357142Y-112357142D01*
X35214285Y-112285714D01*
X33928571Y-112285714D01*
X35428571Y-113285714D02*
X35357142Y-113142857D01*
X35214285Y-113071428D01*
X33928571Y-113071428D01*
X35357142Y-114428571D02*
X35428571Y-114285714D01*
X35428571Y-114000000D01*
X35357142Y-113857142D01*
X35214285Y-113785714D01*
X34642857Y-113785714D01*
X34500000Y-113857142D01*
X34428571Y-114000000D01*
X34428571Y-114285714D01*
X34500000Y-114428571D01*
X34642857Y-114500000D01*
X34785714Y-114500000D01*
X34928571Y-113785714D01*
X35428571Y-115142857D02*
X34428571Y-115142857D01*
X34714285Y-115142857D02*
X34571428Y-115214285D01*
X34500000Y-115285714D01*
X34428571Y-115428571D01*
X34428571Y-115571428D01*
X34428571Y-117071428D02*
X35428571Y-117428571D01*
X34428571Y-117785714D01*
X33928571Y-119071428D02*
X33928571Y-118357142D01*
X34642857Y-118285714D01*
X34571428Y-118357142D01*
X34500000Y-118500000D01*
X34500000Y-118857142D01*
X34571428Y-119000000D01*
X34642857Y-119071428D01*
X34785714Y-119142857D01*
X35142857Y-119142857D01*
X35285714Y-119071428D01*
X35357142Y-119000000D01*
X35428571Y-118857142D01*
X35428571Y-118500000D01*
X35357142Y-118357142D01*
X35285714Y-118285714D01*
X35357142Y-120857142D02*
X35428571Y-121000000D01*
X35428571Y-121285714D01*
X35357142Y-121428571D01*
X35214285Y-121500000D01*
X35142857Y-121500000D01*
X35000000Y-121428571D01*
X34928571Y-121285714D01*
X34928571Y-121071428D01*
X34857142Y-120928571D01*
X34714285Y-120857142D01*
X34642857Y-120857142D01*
X34500000Y-120928571D01*
X34428571Y-121071428D01*
X34428571Y-121285714D01*
X34500000Y-121428571D01*
X34428571Y-122000000D02*
X35428571Y-122285714D01*
X34714285Y-122571428D01*
X35428571Y-122857142D01*
X34428571Y-123142857D01*
X35428571Y-123714285D02*
X34428571Y-123714285D01*
X33928571Y-123714285D02*
X34000000Y-123642857D01*
X34071428Y-123714285D01*
X34000000Y-123785714D01*
X33928571Y-123714285D01*
X34071428Y-123714285D01*
X34428571Y-124214285D02*
X34428571Y-124785714D01*
X33928571Y-124428571D02*
X35214285Y-124428571D01*
X35357142Y-124500000D01*
X35428571Y-124642857D01*
X35428571Y-124785714D01*
X35357142Y-125928571D02*
X35428571Y-125785714D01*
X35428571Y-125500000D01*
X35357142Y-125357142D01*
X35285714Y-125285714D01*
X35142857Y-125214285D01*
X34714285Y-125214285D01*
X34571428Y-125285714D01*
X34500000Y-125357142D01*
X34428571Y-125500000D01*
X34428571Y-125785714D01*
X34500000Y-125928571D01*
X35428571Y-126571428D02*
X33928571Y-126571428D01*
X35428571Y-127214285D02*
X34642857Y-127214285D01*
X34500000Y-127142857D01*
X34428571Y-127000000D01*
X34428571Y-126785714D01*
X34500000Y-126642857D01*
X34571428Y-126571428D01*
D11*
%TO.C,J2*%
X67250000Y-112750000D02*
X80250000Y-112750000D01*
X80250000Y-112750000D02*
X80250000Y-100750000D01*
X67250000Y-100750000D02*
X80250000Y-100750000D01*
X67250000Y-112750000D02*
X67250000Y-100750000D01*
X66250000Y-120750000D02*
X81250000Y-120750000D01*
X81250000Y-120750000D02*
X81250000Y-100250000D01*
X66250000Y-100250000D02*
X66250000Y-120750000D01*
X81250000Y-100250000D02*
X66250000Y-100250000D01*
X78250000Y-112750000D02*
X67250000Y-101750000D01*
X77250000Y-112750000D02*
X78250000Y-112750000D01*
X67250000Y-102750000D02*
X77250000Y-112750000D01*
X67250000Y-103750000D02*
X67250000Y-102750000D01*
X76250000Y-112750000D02*
X67250000Y-103750000D01*
X75250000Y-112750000D02*
X76250000Y-112750000D01*
X67250000Y-104750000D02*
X75250000Y-112750000D01*
X67250000Y-105750000D02*
X67250000Y-104750000D01*
X74250000Y-112750000D02*
X67250000Y-105750000D01*
X73250000Y-112750000D02*
X74250000Y-112750000D01*
X67250000Y-106750000D02*
X73250000Y-112750000D01*
X67250000Y-107750000D02*
X67250000Y-106750000D01*
X72250000Y-112750000D02*
X67250000Y-107750000D01*
X71250000Y-112750000D02*
X72250000Y-112750000D01*
X67250000Y-108750000D02*
X71250000Y-112750000D01*
X67250000Y-109750000D02*
X67250000Y-108750000D01*
X70250000Y-112750000D02*
X67250000Y-109750000D01*
X69250000Y-112750000D02*
X70250000Y-112750000D01*
X67250000Y-110750000D02*
X69250000Y-112750000D01*
X67250000Y-111750000D02*
X67250000Y-110750000D01*
X68250000Y-112750000D02*
X67250000Y-111750000D01*
X67250000Y-100750000D02*
X79250000Y-112750000D01*
X79250000Y-100750000D02*
X80250000Y-101750000D01*
X78250000Y-100750000D02*
X79250000Y-100750000D01*
X80250000Y-102750000D02*
X78250000Y-100750000D01*
X80250000Y-102250000D02*
X80250000Y-102750000D01*
X80250000Y-103750000D02*
X80250000Y-102250000D01*
X77250000Y-100750000D02*
X80250000Y-103750000D01*
X76250000Y-100750000D02*
X77250000Y-100750000D01*
X80250000Y-104750000D02*
X76250000Y-100750000D01*
X80250000Y-105750000D02*
X80250000Y-104750000D01*
X75250000Y-100750000D02*
X80250000Y-105750000D01*
X74250000Y-100750000D02*
X75250000Y-100750000D01*
X80250000Y-106750000D02*
X74250000Y-100750000D01*
X80250000Y-106250000D02*
X80250000Y-106750000D01*
X80250000Y-107750000D02*
X80250000Y-106250000D01*
X73250000Y-100750000D02*
X80250000Y-107750000D01*
X72250000Y-100750000D02*
X73250000Y-100750000D01*
X80250000Y-108750000D02*
X72250000Y-100750000D01*
X80250000Y-109750000D02*
X80250000Y-108750000D01*
X71250000Y-100750000D02*
X80250000Y-109750000D01*
X71750000Y-100750000D02*
X71250000Y-100750000D01*
X70250000Y-100750000D02*
X71750000Y-100750000D01*
X80250000Y-110750000D02*
X70250000Y-100750000D01*
X80250000Y-110250000D02*
X80250000Y-110750000D01*
X80250000Y-111750000D02*
X80250000Y-110250000D01*
X69250000Y-100750000D02*
X80250000Y-111750000D01*
X68250000Y-100750000D02*
X69250000Y-100750000D01*
X80250000Y-112750000D02*
X68250000Y-100750000D01*
D12*
X74583333Y-119202380D02*
X74583333Y-119916666D01*
X74630952Y-120059523D01*
X74726190Y-120154761D01*
X74869047Y-120202380D01*
X74964285Y-120202380D01*
X74154761Y-119297619D02*
X74107142Y-119250000D01*
X74011904Y-119202380D01*
X73773809Y-119202380D01*
X73678571Y-119250000D01*
X73630952Y-119297619D01*
X73583333Y-119392857D01*
X73583333Y-119488095D01*
X73630952Y-119630952D01*
X74202380Y-120202380D01*
X73583333Y-120202380D01*
X77106428Y-107203571D02*
X77166904Y-107264047D01*
X77348333Y-107324523D01*
X77469285Y-107324523D01*
X77650714Y-107264047D01*
X77771666Y-107143095D01*
X77832142Y-107022142D01*
X77892619Y-106780238D01*
X77892619Y-106598809D01*
X77832142Y-106356904D01*
X77771666Y-106235952D01*
X77650714Y-106115000D01*
X77469285Y-106054523D01*
X77348333Y-106054523D01*
X77166904Y-106115000D01*
X77106428Y-106175476D01*
X76562142Y-106054523D02*
X76562142Y-107082619D01*
X76501666Y-107203571D01*
X76441190Y-107264047D01*
X76320238Y-107324523D01*
X76078333Y-107324523D01*
X75957380Y-107264047D01*
X75896904Y-107203571D01*
X75836428Y-107082619D01*
X75836428Y-106054523D01*
X75413095Y-106054523D02*
X74687380Y-106054523D01*
X75050238Y-107324523D02*
X75050238Y-106054523D01*
X73054523Y-106054523D02*
X72812619Y-106054523D01*
X72691666Y-106115000D01*
X72570714Y-106235952D01*
X72510238Y-106477857D01*
X72510238Y-106901190D01*
X72570714Y-107143095D01*
X72691666Y-107264047D01*
X72812619Y-107324523D01*
X73054523Y-107324523D01*
X73175476Y-107264047D01*
X73296428Y-107143095D01*
X73356904Y-106901190D01*
X73356904Y-106477857D01*
X73296428Y-106235952D01*
X73175476Y-106115000D01*
X73054523Y-106054523D01*
X71965952Y-106054523D02*
X71965952Y-107082619D01*
X71905476Y-107203571D01*
X71845000Y-107264047D01*
X71724047Y-107324523D01*
X71482142Y-107324523D01*
X71361190Y-107264047D01*
X71300714Y-107203571D01*
X71240238Y-107082619D01*
X71240238Y-106054523D01*
X70816904Y-106054523D02*
X70091190Y-106054523D01*
X70454047Y-107324523D02*
X70454047Y-106054523D01*
X69667857Y-107203571D02*
X69607380Y-107264047D01*
X69667857Y-107324523D01*
X69728333Y-107264047D01*
X69667857Y-107203571D01*
X69667857Y-107324523D01*
X69667857Y-106840714D02*
X69728333Y-106115000D01*
X69667857Y-106054523D01*
X69607380Y-106115000D01*
X69667857Y-106840714D01*
X69667857Y-106054523D01*
%TD*%
M02*
