%TF.GenerationSoftware,KiCad,Pcbnew,(5.1.9-0-10_14)*%
%TF.CreationDate,2021-07-01T16:44:21-07:00*%
%TF.ProjectId,vantroller_v5_switch,76616e74-726f-46c6-9c65-725f76355f73,rev?*%
%TF.SameCoordinates,Original*%
%TF.FileFunction,Copper,L2,Bot*%
%TF.FilePolarity,Positive*%
%FSLAX46Y46*%
G04 Gerber Fmt 4.6, Leading zero omitted, Abs format (unit mm)*
G04 Created by KiCad (PCBNEW (5.1.9-0-10_14)) date 2021-07-01 16:44:21*
%MOMM*%
%LPD*%
G01*
G04 APERTURE LIST*
%TA.AperFunction,ComponentPad*%
%ADD10C,1.800000*%
%TD*%
%TA.AperFunction,ComponentPad*%
%ADD11R,1.800000X1.800000*%
%TD*%
%TA.AperFunction,ComponentPad*%
%ADD12C,1.600000*%
%TD*%
%TA.AperFunction,ComponentPad*%
%ADD13R,1.600000X1.600000*%
%TD*%
%TA.AperFunction,ComponentPad*%
%ADD14C,1.700000*%
%TD*%
%TA.AperFunction,ComponentPad*%
%ADD15C,2.600000*%
%TD*%
%TA.AperFunction,ComponentPad*%
%ADD16R,2.600000X2.600000*%
%TD*%
%TA.AperFunction,ViaPad*%
%ADD17C,0.800000*%
%TD*%
%TA.AperFunction,Conductor*%
%ADD18C,0.250000*%
%TD*%
%TA.AperFunction,Conductor*%
%ADD19C,0.100000*%
%TD*%
G04 APERTURE END LIST*
D10*
%TO.P,U1,3*%
%TO.N,OKI3.3*%
X63500000Y-123080000D03*
%TO.P,U1,2*%
%TO.N,GND*%
X63500000Y-120540000D03*
D11*
%TO.P,U1,1*%
%TO.N,+12V*%
X63500000Y-118000000D03*
%TD*%
D12*
%TO.P,S3,1*%
%TO.N,Net-(S3-Pad1)*%
X73500000Y-130000000D03*
%TO.P,S3,2*%
%TO.N,/BUTTON3*%
X71000000Y-130000000D03*
%TO.P,S3,3*%
%TO.N,GND*%
X68500000Y-130000000D03*
%TO.P,S3,4*%
%TO.N,Net-(S3-Pad4)*%
X73500000Y-135000000D03*
%TO.P,S3,5*%
%TO.N,Net-(S3-Pad5)*%
X71000000Y-135000000D03*
%TO.P,S3,6*%
%TO.N,Net-(S3-Pad6)*%
X68500000Y-135000000D03*
D13*
%TO.P,S3,L1*%
%TO.N,Net-(R6-Pad2)*%
X76000000Y-132500000D03*
D12*
%TO.P,S3,L2*%
%TO.N,GND*%
X66000000Y-132500000D03*
%TD*%
%TO.P,S2,1*%
%TO.N,Net-(S2-Pad1)*%
X53500000Y-130000000D03*
%TO.P,S2,2*%
%TO.N,/BUTTON2*%
X51000000Y-130000000D03*
%TO.P,S2,3*%
%TO.N,GND*%
X48500000Y-130000000D03*
%TO.P,S2,4*%
%TO.N,Net-(S2-Pad4)*%
X53500000Y-135000000D03*
%TO.P,S2,5*%
%TO.N,Net-(S2-Pad5)*%
X51000000Y-135000000D03*
%TO.P,S2,6*%
%TO.N,Net-(S2-Pad6)*%
X48500000Y-135000000D03*
D13*
%TO.P,S2,L1*%
%TO.N,Net-(R4-Pad2)*%
X56000000Y-132500000D03*
D12*
%TO.P,S2,L2*%
%TO.N,GND*%
X46000000Y-132500000D03*
%TD*%
%TO.P,S1,1*%
%TO.N,Net-(S1-Pad1)*%
X33000000Y-130000000D03*
%TO.P,S1,2*%
%TO.N,/BUTTON1*%
X30500000Y-130000000D03*
%TO.P,S1,3*%
%TO.N,GND*%
X28000000Y-130000000D03*
%TO.P,S1,4*%
%TO.N,Net-(S1-Pad4)*%
X33000000Y-135000000D03*
%TO.P,S1,5*%
%TO.N,Net-(S1-Pad5)*%
X30500000Y-135000000D03*
%TO.P,S1,6*%
%TO.N,Net-(S1-Pad6)*%
X28000000Y-135000000D03*
D13*
%TO.P,S1,L1*%
%TO.N,Net-(R2-Pad2)*%
X35500000Y-132500000D03*
D12*
%TO.P,S1,L2*%
%TO.N,GND*%
X25500000Y-132500000D03*
%TD*%
D14*
%TO.P,J2,6*%
%TO.N,+3V3*%
X76925000Y-117690000D03*
%TO.P,J2,4*%
%TO.N,Net-(J2-Pad4)*%
X74385000Y-117690000D03*
%TO.P,J2,2*%
%TO.N,/SDA*%
X71845000Y-117690000D03*
%TO.P,J2,5*%
%TO.N,Net-(J2-Pad5)*%
X75655000Y-115150000D03*
%TO.P,J2,3*%
%TO.N,/SCL*%
X73095000Y-115150000D03*
%TO.P,J2,1*%
%TO.N,GND*%
X70575000Y-115150000D03*
%TD*%
D15*
%TO.P,J1,2*%
%TO.N,GND*%
X42500000Y-106250000D03*
D16*
%TO.P,J1,1*%
%TO.N,+12V*%
X47500000Y-106250000D03*
%TD*%
D17*
%TO.N,Net-(BT1-Pad1)*%
X38000000Y-116000000D03*
X35500000Y-123000000D03*
X37500000Y-101500000D03*
%TO.N,GND*%
X62000000Y-130000000D03*
X61500000Y-120500000D03*
X35250000Y-139250000D03*
X34250000Y-139250000D03*
X33250000Y-139250000D03*
X32250000Y-139250000D03*
X31250000Y-139250000D03*
X30250000Y-139250000D03*
X29250000Y-139250000D03*
X28250000Y-139250000D03*
X27250000Y-139250000D03*
X26250000Y-139250000D03*
X25250000Y-139250000D03*
X24250000Y-139250000D03*
X23250000Y-139250000D03*
X22250000Y-139250000D03*
X21250000Y-139250000D03*
X20250000Y-139250000D03*
X51250000Y-139250000D03*
X50250000Y-139250000D03*
X49250000Y-139250000D03*
X48250000Y-139250000D03*
X47250000Y-139250000D03*
X46250000Y-139250000D03*
X45250000Y-139250000D03*
X44250000Y-139250000D03*
X43250000Y-139250000D03*
X42250000Y-139250000D03*
X41250000Y-139250000D03*
X40250000Y-139250000D03*
X39250000Y-139250000D03*
X38250000Y-139250000D03*
X37250000Y-139250000D03*
X36250000Y-139250000D03*
X67250000Y-139250000D03*
X66250000Y-139250000D03*
X65250000Y-139250000D03*
X64250000Y-139250000D03*
X63250000Y-139250000D03*
X62250000Y-139250000D03*
X61250000Y-139250000D03*
X60250000Y-139250000D03*
X59250000Y-139250000D03*
X58250000Y-139250000D03*
X57250000Y-139250000D03*
X56250000Y-139250000D03*
X55250000Y-139250000D03*
X54250000Y-139250000D03*
X53250000Y-139250000D03*
X52250000Y-139250000D03*
X81250000Y-139250000D03*
X80250000Y-139250000D03*
X79250000Y-139250000D03*
X78250000Y-139250000D03*
X77250000Y-139250000D03*
X76250000Y-139250000D03*
X75250000Y-139250000D03*
X74250000Y-139250000D03*
X73250000Y-139250000D03*
X72250000Y-139250000D03*
X71250000Y-139250000D03*
X70250000Y-139250000D03*
X69250000Y-139250000D03*
X68250000Y-139250000D03*
X33250000Y-99750000D03*
X32250000Y-99750000D03*
X31250000Y-99750000D03*
X30250000Y-99750000D03*
X29250000Y-99750000D03*
X28250000Y-99750000D03*
X27250000Y-99750000D03*
X26250000Y-99750000D03*
X25250000Y-99750000D03*
X24250000Y-99750000D03*
X23250000Y-99750000D03*
X20250000Y-99750000D03*
X49250000Y-99750000D03*
X48250000Y-99750000D03*
X47250000Y-99750000D03*
X46250000Y-99750000D03*
X45250000Y-99750000D03*
X44250000Y-99750000D03*
X43250000Y-99750000D03*
X42250000Y-99750000D03*
X41250000Y-99750000D03*
X40250000Y-99750000D03*
X39250000Y-99750000D03*
X38250000Y-99750000D03*
X37250000Y-99750000D03*
X36250000Y-99750000D03*
X35250000Y-99750000D03*
X34250000Y-99750000D03*
X81250000Y-99750000D03*
X80250000Y-99750000D03*
X79250000Y-99750000D03*
X78250000Y-99750000D03*
X77250000Y-99750000D03*
X76250000Y-99750000D03*
X75250000Y-99750000D03*
X74250000Y-99750000D03*
X73250000Y-99750000D03*
X72250000Y-99750000D03*
X71250000Y-99750000D03*
X70250000Y-99750000D03*
X69250000Y-99750000D03*
X68250000Y-99750000D03*
X67250000Y-99750000D03*
X66250000Y-99750000D03*
X81250000Y-131000000D03*
X81250000Y-132000000D03*
X81250000Y-133000000D03*
X81250000Y-134000000D03*
X81250000Y-135000000D03*
X81250000Y-136000000D03*
X81250000Y-137000000D03*
X81250000Y-138000000D03*
X81250000Y-115000000D03*
X81250000Y-116000000D03*
X81250000Y-117000000D03*
X81250000Y-118000000D03*
X81250000Y-119000000D03*
X81250000Y-120000000D03*
X81250000Y-121000000D03*
X81250000Y-122000000D03*
X81250000Y-123000000D03*
X81250000Y-124000000D03*
X81250000Y-125000000D03*
X81250000Y-126000000D03*
X81250000Y-127000000D03*
X81250000Y-128000000D03*
X81250000Y-129000000D03*
X81250000Y-130000000D03*
X81250000Y-101000000D03*
X81250000Y-102000000D03*
X81250000Y-103000000D03*
X81250000Y-104000000D03*
X81250000Y-105000000D03*
X81250000Y-106000000D03*
X81250000Y-107000000D03*
X81250000Y-108000000D03*
X81250000Y-109000000D03*
X81250000Y-110000000D03*
X81250000Y-111000000D03*
X81250000Y-112000000D03*
X81250000Y-113000000D03*
X81250000Y-114000000D03*
X20250000Y-131000000D03*
X20250000Y-132000000D03*
X20250000Y-133000000D03*
X20250000Y-134000000D03*
X20250000Y-135000000D03*
X20250000Y-136000000D03*
X20250000Y-137000000D03*
X20250000Y-138000000D03*
X20250000Y-122000000D03*
X20250000Y-123000000D03*
X20250000Y-124000000D03*
X20250000Y-125000000D03*
X20250000Y-126000000D03*
X20250000Y-127000000D03*
X20250000Y-128000000D03*
X20250000Y-129000000D03*
X20250000Y-130000000D03*
%TO.N,+12V*%
X49000000Y-118000000D03*
%TO.N,+3V3*%
X47500000Y-114000000D03*
X44500000Y-116500000D03*
X77000000Y-123000000D03*
X79000000Y-126250000D03*
X79000000Y-123000000D03*
X53000000Y-115000000D03*
X59000000Y-126500000D03*
X59250000Y-122250000D03*
X53000000Y-122000000D03*
X73000000Y-123000000D03*
X73000000Y-126500000D03*
X44500000Y-121500000D03*
%TO.N,/SDA*%
X72000000Y-124250000D03*
X72000000Y-119250000D03*
%TO.N,/SCL*%
X68000000Y-116250000D03*
X68000000Y-122500000D03*
%TO.N,/RESETN*%
X56250000Y-127250000D03*
X56250000Y-107750000D03*
X61500000Y-107500000D03*
X65500000Y-101500000D03*
%TO.N,/SWO*%
X42500000Y-109250000D03*
X42500000Y-117750000D03*
%TO.N,/SWDIO*%
X54500000Y-110000000D03*
X54250000Y-126000000D03*
%TO.N,/SWCLK*%
X43750000Y-108250000D03*
X43750000Y-117750000D03*
%TO.N,/PTI_FRAME*%
X58500000Y-105500000D03*
X58250000Y-123500000D03*
%TO.N,/PTI_DATA*%
X59500000Y-106500000D03*
X59250000Y-119500000D03*
%TO.N,/BUTTON1*%
X40250000Y-134250000D03*
X40250000Y-128500000D03*
X50000000Y-128500000D03*
X50500000Y-106750000D03*
%TO.N,/BUTTON1_LED*%
X36000000Y-128500000D03*
X35750000Y-137750000D03*
X61000000Y-137000000D03*
X61250000Y-111250000D03*
%TO.N,/BUTTON2*%
X55250000Y-128500000D03*
X55250000Y-107000000D03*
%TO.N,/BUTTON2_LED*%
X60000000Y-128500000D03*
X60250000Y-124500000D03*
X66000000Y-124000000D03*
X66000000Y-110000000D03*
%TO.N,/BUTTON3*%
X66000000Y-128500000D03*
X66000000Y-125250000D03*
X57250000Y-125000000D03*
X57250000Y-106250000D03*
%TO.N,/BUTTON3_LED*%
X80000000Y-128250000D03*
X80000000Y-121750000D03*
X66750000Y-121500000D03*
X66500000Y-108750000D03*
%TO.N,OKI3.3*%
X49250000Y-114250000D03*
X49250000Y-116000000D03*
X51500000Y-116250000D03*
X51500000Y-120500000D03*
%TD*%
D18*
%TO.N,Net-(BT1-Pad1)*%
X36000000Y-118000000D02*
X38000000Y-116000000D01*
X36000000Y-122500000D02*
X36000000Y-118000000D01*
X35500000Y-123000000D02*
X36000000Y-122500000D01*
X38000000Y-102000000D02*
X38000000Y-116000000D01*
X37500000Y-101500000D02*
X38000000Y-102000000D01*
%TO.N,GND*%
X62000000Y-121000000D02*
X62000000Y-130000000D01*
X61500000Y-120500000D02*
X62000000Y-121000000D01*
%TO.N,+12V*%
X47500000Y-107500000D02*
X48500000Y-108500000D01*
X47500000Y-106250000D02*
X47500000Y-107500000D01*
X49000000Y-118000000D02*
X48500000Y-117500000D01*
X48500000Y-117500000D02*
X48500000Y-108500000D01*
%TO.N,+3V3*%
X47000000Y-114000000D02*
X47500000Y-114000000D01*
X44500000Y-116500000D02*
X47000000Y-114000000D01*
X76925000Y-122925000D02*
X76925000Y-117690000D01*
X77000000Y-123000000D02*
X76925000Y-122925000D01*
X79000000Y-123000000D02*
X79000000Y-126250000D01*
X59000000Y-122500000D02*
X59000000Y-126500000D01*
X59250000Y-122250000D02*
X59000000Y-122500000D01*
X53000000Y-122000000D02*
X53000000Y-115000000D01*
X73000000Y-126500000D02*
X73000000Y-123000000D01*
X44500000Y-116500000D02*
X44500000Y-121500000D01*
%TO.N,/SDA*%
X72000000Y-119250000D02*
X72000000Y-124250000D01*
%TO.N,/SCL*%
X71445000Y-113500000D02*
X73095000Y-115150000D01*
X69250000Y-113500000D02*
X71445000Y-113500000D01*
X68750000Y-114000000D02*
X69250000Y-113500000D01*
X68750000Y-115500000D02*
X68750000Y-114000000D01*
X68000000Y-116250000D02*
X68750000Y-115500000D01*
X68000000Y-116250000D02*
X68000000Y-122500000D01*
%TO.N,/RESETN*%
X56250000Y-109000000D02*
X56250000Y-127250000D01*
X56250000Y-107750000D02*
X56250000Y-109000000D01*
X61500000Y-105500000D02*
X61500000Y-107500000D01*
X65500000Y-101500000D02*
X61500000Y-105500000D01*
%TO.N,/SWO*%
X42500000Y-109000000D02*
X42500000Y-109250000D01*
X42500000Y-117750000D02*
X42500000Y-109000000D01*
%TO.N,/SWDIO*%
X54500000Y-125750000D02*
X54500000Y-110000000D01*
X54250000Y-126000000D02*
X54500000Y-125750000D01*
%TO.N,/SWCLK*%
X43750000Y-117750000D02*
X43750000Y-107750000D01*
%TO.N,/PTI_FRAME*%
X58500000Y-123250000D02*
X58500000Y-105500000D01*
X58250000Y-123500000D02*
X58500000Y-123250000D01*
%TO.N,/PTI_DATA*%
X59500000Y-119250000D02*
X59500000Y-106500000D01*
X59250000Y-119500000D02*
X59500000Y-119250000D01*
%TO.N,/BUTTON1*%
X40250000Y-128500000D02*
X40250000Y-134250000D01*
X50000000Y-107250000D02*
X50000000Y-128500000D01*
X50500000Y-106750000D02*
X50000000Y-107250000D01*
%TO.N,/BUTTON1_LED*%
X37250000Y-129750000D02*
X36000000Y-128500000D01*
X37250000Y-136250000D02*
X37250000Y-129750000D01*
X35750000Y-137750000D02*
X37250000Y-136250000D01*
X61000000Y-123500000D02*
X61000000Y-137000000D01*
X60500000Y-123000000D02*
X61000000Y-123500000D01*
X60500000Y-112000000D02*
X60500000Y-123000000D01*
X61250000Y-111250000D02*
X60500000Y-112000000D01*
%TO.N,/BUTTON2*%
X55250000Y-128250000D02*
X55250000Y-128500000D01*
X55250000Y-107000000D02*
X55250000Y-128250000D01*
%TO.N,/BUTTON2_LED*%
X60000000Y-124750000D02*
X60000000Y-128500000D01*
X60250000Y-124500000D02*
X60000000Y-124750000D01*
X66000000Y-110000000D02*
X66000000Y-124000000D01*
%TO.N,/BUTTON3*%
X66000000Y-125250000D02*
X66000000Y-128500000D01*
X57250000Y-106250000D02*
X57250000Y-125000000D01*
%TO.N,/BUTTON3_LED*%
X80000000Y-121750000D02*
X80000000Y-128250000D01*
X66750000Y-109000000D02*
X66750000Y-121500000D01*
X66500000Y-108750000D02*
X66750000Y-109000000D01*
%TO.N,OKI3.3*%
X49250000Y-116000000D02*
X49250000Y-114250000D01*
X51500000Y-120500000D02*
X51500000Y-116250000D01*
%TD*%
%TO.N,GND*%
X81565001Y-139565000D02*
X19935000Y-139565000D01*
X19935000Y-136864736D01*
X21126645Y-136864736D01*
X21126645Y-137135264D01*
X21179422Y-137400593D01*
X21282949Y-137650527D01*
X21433246Y-137875463D01*
X21624537Y-138066754D01*
X21849473Y-138217051D01*
X22099407Y-138320578D01*
X22364736Y-138373355D01*
X22635264Y-138373355D01*
X22900593Y-138320578D01*
X23150527Y-138217051D01*
X23375463Y-138066754D01*
X23566754Y-137875463D01*
X23698955Y-137677609D01*
X35015000Y-137677609D01*
X35015000Y-137822391D01*
X35043246Y-137964391D01*
X35098652Y-138098153D01*
X35179088Y-138218535D01*
X35281465Y-138320912D01*
X35401847Y-138401348D01*
X35535609Y-138456754D01*
X35677609Y-138485000D01*
X35822391Y-138485000D01*
X35964391Y-138456754D01*
X36098153Y-138401348D01*
X36218535Y-138320912D01*
X36320912Y-138218535D01*
X36401348Y-138098153D01*
X36456754Y-137964391D01*
X36485000Y-137822391D01*
X36485000Y-137677609D01*
X36482997Y-137667540D01*
X37559299Y-136591239D01*
X37576842Y-136576842D01*
X37634326Y-136506798D01*
X37677040Y-136426886D01*
X37703343Y-136340176D01*
X37710000Y-136272590D01*
X37710000Y-136272581D01*
X37712224Y-136250001D01*
X37710000Y-136227421D01*
X37710000Y-129772582D01*
X37712224Y-129750000D01*
X37710000Y-129727418D01*
X37710000Y-129727410D01*
X37703343Y-129659824D01*
X37677040Y-129573114D01*
X37634326Y-129493202D01*
X37576842Y-129423158D01*
X37559297Y-129408759D01*
X36732997Y-128582460D01*
X36735000Y-128572391D01*
X36735000Y-128427609D01*
X39515000Y-128427609D01*
X39515000Y-128572391D01*
X39543246Y-128714391D01*
X39598652Y-128848153D01*
X39679088Y-128968535D01*
X39781465Y-129070912D01*
X39790000Y-129076615D01*
X39790001Y-133673385D01*
X39781465Y-133679088D01*
X39679088Y-133781465D01*
X39598652Y-133901847D01*
X39543246Y-134035609D01*
X39515000Y-134177609D01*
X39515000Y-134322391D01*
X39543246Y-134464391D01*
X39598652Y-134598153D01*
X39679088Y-134718535D01*
X39781465Y-134820912D01*
X39901847Y-134901348D01*
X40035609Y-134956754D01*
X40177609Y-134985000D01*
X40322391Y-134985000D01*
X40464391Y-134956754D01*
X40598153Y-134901348D01*
X40617812Y-134888212D01*
X47365000Y-134888212D01*
X47365000Y-135111788D01*
X47408617Y-135331067D01*
X47494176Y-135537624D01*
X47618388Y-135723520D01*
X47776480Y-135881612D01*
X47962376Y-136005824D01*
X48168933Y-136091383D01*
X48388212Y-136135000D01*
X48611788Y-136135000D01*
X48831067Y-136091383D01*
X49037624Y-136005824D01*
X49223520Y-135881612D01*
X49381612Y-135723520D01*
X49505824Y-135537624D01*
X49591383Y-135331067D01*
X49635000Y-135111788D01*
X49635000Y-134888212D01*
X49865000Y-134888212D01*
X49865000Y-135111788D01*
X49908617Y-135331067D01*
X49994176Y-135537624D01*
X50118388Y-135723520D01*
X50276480Y-135881612D01*
X50462376Y-136005824D01*
X50668933Y-136091383D01*
X50888212Y-136135000D01*
X51111788Y-136135000D01*
X51331067Y-136091383D01*
X51537624Y-136005824D01*
X51723520Y-135881612D01*
X51881612Y-135723520D01*
X52005824Y-135537624D01*
X52091383Y-135331067D01*
X52135000Y-135111788D01*
X52135000Y-134888212D01*
X52365000Y-134888212D01*
X52365000Y-135111788D01*
X52408617Y-135331067D01*
X52494176Y-135537624D01*
X52618388Y-135723520D01*
X52776480Y-135881612D01*
X52962376Y-136005824D01*
X53168933Y-136091383D01*
X53388212Y-136135000D01*
X53611788Y-136135000D01*
X53831067Y-136091383D01*
X54037624Y-136005824D01*
X54223520Y-135881612D01*
X54381612Y-135723520D01*
X54505824Y-135537624D01*
X54591383Y-135331067D01*
X54635000Y-135111788D01*
X54635000Y-134888212D01*
X54591383Y-134668933D01*
X54505824Y-134462376D01*
X54381612Y-134276480D01*
X54223520Y-134118388D01*
X54037624Y-133994176D01*
X53831067Y-133908617D01*
X53611788Y-133865000D01*
X53388212Y-133865000D01*
X53168933Y-133908617D01*
X52962376Y-133994176D01*
X52776480Y-134118388D01*
X52618388Y-134276480D01*
X52494176Y-134462376D01*
X52408617Y-134668933D01*
X52365000Y-134888212D01*
X52135000Y-134888212D01*
X52091383Y-134668933D01*
X52005824Y-134462376D01*
X51881612Y-134276480D01*
X51723520Y-134118388D01*
X51537624Y-133994176D01*
X51331067Y-133908617D01*
X51111788Y-133865000D01*
X50888212Y-133865000D01*
X50668933Y-133908617D01*
X50462376Y-133994176D01*
X50276480Y-134118388D01*
X50118388Y-134276480D01*
X49994176Y-134462376D01*
X49908617Y-134668933D01*
X49865000Y-134888212D01*
X49635000Y-134888212D01*
X49591383Y-134668933D01*
X49505824Y-134462376D01*
X49381612Y-134276480D01*
X49223520Y-134118388D01*
X49037624Y-133994176D01*
X48831067Y-133908617D01*
X48611788Y-133865000D01*
X48388212Y-133865000D01*
X48168933Y-133908617D01*
X47962376Y-133994176D01*
X47776480Y-134118388D01*
X47618388Y-134276480D01*
X47494176Y-134462376D01*
X47408617Y-134668933D01*
X47365000Y-134888212D01*
X40617812Y-134888212D01*
X40718535Y-134820912D01*
X40820912Y-134718535D01*
X40901348Y-134598153D01*
X40956754Y-134464391D01*
X40985000Y-134322391D01*
X40985000Y-134177609D01*
X40956754Y-134035609D01*
X40901348Y-133901847D01*
X40820912Y-133781465D01*
X40718535Y-133679088D01*
X40710000Y-133673385D01*
X40710000Y-133219774D01*
X45462660Y-133219774D01*
X45563318Y-133320509D01*
X45731782Y-133389936D01*
X45910554Y-133425163D01*
X46092763Y-133424836D01*
X46271407Y-133388968D01*
X46436682Y-133320509D01*
X46537340Y-133219774D01*
X46000000Y-132682434D01*
X45462660Y-133219774D01*
X40710000Y-133219774D01*
X40710000Y-132410554D01*
X45074837Y-132410554D01*
X45075164Y-132592763D01*
X45111032Y-132771407D01*
X45179491Y-132936682D01*
X45280226Y-133037340D01*
X45817566Y-132500000D01*
X46182434Y-132500000D01*
X46719774Y-133037340D01*
X46820509Y-132936682D01*
X46889936Y-132768218D01*
X46925163Y-132589446D01*
X46924836Y-132407237D01*
X46888968Y-132228593D01*
X46820509Y-132063318D01*
X46719774Y-131962660D01*
X46182434Y-132500000D01*
X45817566Y-132500000D01*
X45280226Y-131962660D01*
X45179491Y-132063318D01*
X45110064Y-132231782D01*
X45074837Y-132410554D01*
X40710000Y-132410554D01*
X40710000Y-131780226D01*
X45462660Y-131780226D01*
X46000000Y-132317566D01*
X46537340Y-131780226D01*
X46457176Y-131700000D01*
X54863380Y-131700000D01*
X54863380Y-133300000D01*
X54869848Y-133365671D01*
X54889004Y-133428819D01*
X54920111Y-133487016D01*
X54961974Y-133538026D01*
X55012984Y-133579889D01*
X55071181Y-133610996D01*
X55134329Y-133630152D01*
X55200000Y-133636620D01*
X56800000Y-133636620D01*
X56865671Y-133630152D01*
X56928819Y-133610996D01*
X56987016Y-133579889D01*
X57038026Y-133538026D01*
X57079889Y-133487016D01*
X57110996Y-133428819D01*
X57130152Y-133365671D01*
X57136620Y-133300000D01*
X57136620Y-131700000D01*
X57130152Y-131634329D01*
X57110996Y-131571181D01*
X57079889Y-131512984D01*
X57038026Y-131461974D01*
X56987016Y-131420111D01*
X56928819Y-131389004D01*
X56865671Y-131369848D01*
X56800000Y-131363380D01*
X55200000Y-131363380D01*
X55134329Y-131369848D01*
X55071181Y-131389004D01*
X55012984Y-131420111D01*
X54961974Y-131461974D01*
X54920111Y-131512984D01*
X54889004Y-131571181D01*
X54869848Y-131634329D01*
X54863380Y-131700000D01*
X46457176Y-131700000D01*
X46436682Y-131679491D01*
X46268218Y-131610064D01*
X46089446Y-131574837D01*
X45907237Y-131575164D01*
X45728593Y-131611032D01*
X45563318Y-131679491D01*
X45462660Y-131780226D01*
X40710000Y-131780226D01*
X40710000Y-130719774D01*
X47962660Y-130719774D01*
X48063318Y-130820509D01*
X48231782Y-130889936D01*
X48410554Y-130925163D01*
X48592763Y-130924836D01*
X48771407Y-130888968D01*
X48936682Y-130820509D01*
X49037340Y-130719774D01*
X48500000Y-130182434D01*
X47962660Y-130719774D01*
X40710000Y-130719774D01*
X40710000Y-129910554D01*
X47574837Y-129910554D01*
X47575164Y-130092763D01*
X47611032Y-130271407D01*
X47679491Y-130436682D01*
X47780226Y-130537340D01*
X48317566Y-130000000D01*
X48682434Y-130000000D01*
X49219774Y-130537340D01*
X49320509Y-130436682D01*
X49389936Y-130268218D01*
X49425163Y-130089446D01*
X49424836Y-129907237D01*
X49388968Y-129728593D01*
X49320509Y-129563318D01*
X49219774Y-129462660D01*
X48682434Y-130000000D01*
X48317566Y-130000000D01*
X47780226Y-129462660D01*
X47679491Y-129563318D01*
X47610064Y-129731782D01*
X47574837Y-129910554D01*
X40710000Y-129910554D01*
X40710000Y-129280226D01*
X47962660Y-129280226D01*
X48500000Y-129817566D01*
X49037340Y-129280226D01*
X48936682Y-129179491D01*
X48768218Y-129110064D01*
X48589446Y-129074837D01*
X48407237Y-129075164D01*
X48228593Y-129111032D01*
X48063318Y-129179491D01*
X47962660Y-129280226D01*
X40710000Y-129280226D01*
X40710000Y-129076615D01*
X40718535Y-129070912D01*
X40820912Y-128968535D01*
X40901348Y-128848153D01*
X40956754Y-128714391D01*
X40985000Y-128572391D01*
X40985000Y-128427609D01*
X40956754Y-128285609D01*
X40901348Y-128151847D01*
X40820912Y-128031465D01*
X40718535Y-127929088D01*
X40598153Y-127848652D01*
X40464391Y-127793246D01*
X40322391Y-127765000D01*
X40177609Y-127765000D01*
X40035609Y-127793246D01*
X39901847Y-127848652D01*
X39781465Y-127929088D01*
X39679088Y-128031465D01*
X39598652Y-128151847D01*
X39543246Y-128285609D01*
X39515000Y-128427609D01*
X36735000Y-128427609D01*
X36706754Y-128285609D01*
X36651348Y-128151847D01*
X36570912Y-128031465D01*
X36468535Y-127929088D01*
X36348153Y-127848652D01*
X36214391Y-127793246D01*
X36072391Y-127765000D01*
X35927609Y-127765000D01*
X35785609Y-127793246D01*
X35651847Y-127848652D01*
X35531465Y-127929088D01*
X35429088Y-128031465D01*
X35348652Y-128151847D01*
X35293246Y-128285609D01*
X35265000Y-128427609D01*
X35265000Y-128572391D01*
X35293246Y-128714391D01*
X35348652Y-128848153D01*
X35429088Y-128968535D01*
X35531465Y-129070912D01*
X35651847Y-129151348D01*
X35785609Y-129206754D01*
X35927609Y-129235000D01*
X36072391Y-129235000D01*
X36082460Y-129232997D01*
X36790001Y-129940539D01*
X36790000Y-136059462D01*
X35832460Y-137017003D01*
X35822391Y-137015000D01*
X35677609Y-137015000D01*
X35535609Y-137043246D01*
X35401847Y-137098652D01*
X35281465Y-137179088D01*
X35179088Y-137281465D01*
X35098652Y-137401847D01*
X35043246Y-137535609D01*
X35015000Y-137677609D01*
X23698955Y-137677609D01*
X23717051Y-137650527D01*
X23820578Y-137400593D01*
X23873355Y-137135264D01*
X23873355Y-136864736D01*
X23820578Y-136599407D01*
X23717051Y-136349473D01*
X23566754Y-136124537D01*
X23375463Y-135933246D01*
X23150527Y-135782949D01*
X22900593Y-135679422D01*
X22635264Y-135626645D01*
X22364736Y-135626645D01*
X22099407Y-135679422D01*
X21849473Y-135782949D01*
X21624537Y-135933246D01*
X21433246Y-136124537D01*
X21282949Y-136349473D01*
X21179422Y-136599407D01*
X21126645Y-136864736D01*
X19935000Y-136864736D01*
X19935000Y-134888212D01*
X26865000Y-134888212D01*
X26865000Y-135111788D01*
X26908617Y-135331067D01*
X26994176Y-135537624D01*
X27118388Y-135723520D01*
X27276480Y-135881612D01*
X27462376Y-136005824D01*
X27668933Y-136091383D01*
X27888212Y-136135000D01*
X28111788Y-136135000D01*
X28331067Y-136091383D01*
X28537624Y-136005824D01*
X28723520Y-135881612D01*
X28881612Y-135723520D01*
X29005824Y-135537624D01*
X29091383Y-135331067D01*
X29135000Y-135111788D01*
X29135000Y-134888212D01*
X29365000Y-134888212D01*
X29365000Y-135111788D01*
X29408617Y-135331067D01*
X29494176Y-135537624D01*
X29618388Y-135723520D01*
X29776480Y-135881612D01*
X29962376Y-136005824D01*
X30168933Y-136091383D01*
X30388212Y-136135000D01*
X30611788Y-136135000D01*
X30831067Y-136091383D01*
X31037624Y-136005824D01*
X31223520Y-135881612D01*
X31381612Y-135723520D01*
X31505824Y-135537624D01*
X31591383Y-135331067D01*
X31635000Y-135111788D01*
X31635000Y-134888212D01*
X31865000Y-134888212D01*
X31865000Y-135111788D01*
X31908617Y-135331067D01*
X31994176Y-135537624D01*
X32118388Y-135723520D01*
X32276480Y-135881612D01*
X32462376Y-136005824D01*
X32668933Y-136091383D01*
X32888212Y-136135000D01*
X33111788Y-136135000D01*
X33331067Y-136091383D01*
X33537624Y-136005824D01*
X33723520Y-135881612D01*
X33881612Y-135723520D01*
X34005824Y-135537624D01*
X34091383Y-135331067D01*
X34135000Y-135111788D01*
X34135000Y-134888212D01*
X34091383Y-134668933D01*
X34005824Y-134462376D01*
X33881612Y-134276480D01*
X33723520Y-134118388D01*
X33537624Y-133994176D01*
X33331067Y-133908617D01*
X33111788Y-133865000D01*
X32888212Y-133865000D01*
X32668933Y-133908617D01*
X32462376Y-133994176D01*
X32276480Y-134118388D01*
X32118388Y-134276480D01*
X31994176Y-134462376D01*
X31908617Y-134668933D01*
X31865000Y-134888212D01*
X31635000Y-134888212D01*
X31591383Y-134668933D01*
X31505824Y-134462376D01*
X31381612Y-134276480D01*
X31223520Y-134118388D01*
X31037624Y-133994176D01*
X30831067Y-133908617D01*
X30611788Y-133865000D01*
X30388212Y-133865000D01*
X30168933Y-133908617D01*
X29962376Y-133994176D01*
X29776480Y-134118388D01*
X29618388Y-134276480D01*
X29494176Y-134462376D01*
X29408617Y-134668933D01*
X29365000Y-134888212D01*
X29135000Y-134888212D01*
X29091383Y-134668933D01*
X29005824Y-134462376D01*
X28881612Y-134276480D01*
X28723520Y-134118388D01*
X28537624Y-133994176D01*
X28331067Y-133908617D01*
X28111788Y-133865000D01*
X27888212Y-133865000D01*
X27668933Y-133908617D01*
X27462376Y-133994176D01*
X27276480Y-134118388D01*
X27118388Y-134276480D01*
X26994176Y-134462376D01*
X26908617Y-134668933D01*
X26865000Y-134888212D01*
X19935000Y-134888212D01*
X19935000Y-133219774D01*
X24962660Y-133219774D01*
X25063318Y-133320509D01*
X25231782Y-133389936D01*
X25410554Y-133425163D01*
X25592763Y-133424836D01*
X25771407Y-133388968D01*
X25936682Y-133320509D01*
X26037340Y-133219774D01*
X25500000Y-132682434D01*
X24962660Y-133219774D01*
X19935000Y-133219774D01*
X19935000Y-132410554D01*
X24574837Y-132410554D01*
X24575164Y-132592763D01*
X24611032Y-132771407D01*
X24679491Y-132936682D01*
X24780226Y-133037340D01*
X25317566Y-132500000D01*
X25682434Y-132500000D01*
X26219774Y-133037340D01*
X26320509Y-132936682D01*
X26389936Y-132768218D01*
X26425163Y-132589446D01*
X26424836Y-132407237D01*
X26388968Y-132228593D01*
X26320509Y-132063318D01*
X26219774Y-131962660D01*
X25682434Y-132500000D01*
X25317566Y-132500000D01*
X24780226Y-131962660D01*
X24679491Y-132063318D01*
X24610064Y-132231782D01*
X24574837Y-132410554D01*
X19935000Y-132410554D01*
X19935000Y-131780226D01*
X24962660Y-131780226D01*
X25500000Y-132317566D01*
X26037340Y-131780226D01*
X25957176Y-131700000D01*
X34363380Y-131700000D01*
X34363380Y-133300000D01*
X34369848Y-133365671D01*
X34389004Y-133428819D01*
X34420111Y-133487016D01*
X34461974Y-133538026D01*
X34512984Y-133579889D01*
X34571181Y-133610996D01*
X34634329Y-133630152D01*
X34700000Y-133636620D01*
X36300000Y-133636620D01*
X36365671Y-133630152D01*
X36428819Y-133610996D01*
X36487016Y-133579889D01*
X36538026Y-133538026D01*
X36579889Y-133487016D01*
X36610996Y-133428819D01*
X36630152Y-133365671D01*
X36636620Y-133300000D01*
X36636620Y-131700000D01*
X36630152Y-131634329D01*
X36610996Y-131571181D01*
X36579889Y-131512984D01*
X36538026Y-131461974D01*
X36487016Y-131420111D01*
X36428819Y-131389004D01*
X36365671Y-131369848D01*
X36300000Y-131363380D01*
X34700000Y-131363380D01*
X34634329Y-131369848D01*
X34571181Y-131389004D01*
X34512984Y-131420111D01*
X34461974Y-131461974D01*
X34420111Y-131512984D01*
X34389004Y-131571181D01*
X34369848Y-131634329D01*
X34363380Y-131700000D01*
X25957176Y-131700000D01*
X25936682Y-131679491D01*
X25768218Y-131610064D01*
X25589446Y-131574837D01*
X25407237Y-131575164D01*
X25228593Y-131611032D01*
X25063318Y-131679491D01*
X24962660Y-131780226D01*
X19935000Y-131780226D01*
X19935000Y-130719774D01*
X27462660Y-130719774D01*
X27563318Y-130820509D01*
X27731782Y-130889936D01*
X27910554Y-130925163D01*
X28092763Y-130924836D01*
X28271407Y-130888968D01*
X28436682Y-130820509D01*
X28537340Y-130719774D01*
X28000000Y-130182434D01*
X27462660Y-130719774D01*
X19935000Y-130719774D01*
X19935000Y-129910554D01*
X27074837Y-129910554D01*
X27075164Y-130092763D01*
X27111032Y-130271407D01*
X27179491Y-130436682D01*
X27280226Y-130537340D01*
X27817566Y-130000000D01*
X28182434Y-130000000D01*
X28719774Y-130537340D01*
X28820509Y-130436682D01*
X28889936Y-130268218D01*
X28925163Y-130089446D01*
X28924836Y-129907237D01*
X28921017Y-129888212D01*
X29365000Y-129888212D01*
X29365000Y-130111788D01*
X29408617Y-130331067D01*
X29494176Y-130537624D01*
X29618388Y-130723520D01*
X29776480Y-130881612D01*
X29962376Y-131005824D01*
X30168933Y-131091383D01*
X30388212Y-131135000D01*
X30611788Y-131135000D01*
X30831067Y-131091383D01*
X31037624Y-131005824D01*
X31223520Y-130881612D01*
X31381612Y-130723520D01*
X31505824Y-130537624D01*
X31591383Y-130331067D01*
X31635000Y-130111788D01*
X31635000Y-129888212D01*
X31865000Y-129888212D01*
X31865000Y-130111788D01*
X31908617Y-130331067D01*
X31994176Y-130537624D01*
X32118388Y-130723520D01*
X32276480Y-130881612D01*
X32462376Y-131005824D01*
X32668933Y-131091383D01*
X32888212Y-131135000D01*
X33111788Y-131135000D01*
X33331067Y-131091383D01*
X33537624Y-131005824D01*
X33723520Y-130881612D01*
X33881612Y-130723520D01*
X34005824Y-130537624D01*
X34091383Y-130331067D01*
X34135000Y-130111788D01*
X34135000Y-129888212D01*
X34091383Y-129668933D01*
X34005824Y-129462376D01*
X33881612Y-129276480D01*
X33723520Y-129118388D01*
X33537624Y-128994176D01*
X33331067Y-128908617D01*
X33111788Y-128865000D01*
X32888212Y-128865000D01*
X32668933Y-128908617D01*
X32462376Y-128994176D01*
X32276480Y-129118388D01*
X32118388Y-129276480D01*
X31994176Y-129462376D01*
X31908617Y-129668933D01*
X31865000Y-129888212D01*
X31635000Y-129888212D01*
X31591383Y-129668933D01*
X31505824Y-129462376D01*
X31381612Y-129276480D01*
X31223520Y-129118388D01*
X31037624Y-128994176D01*
X30831067Y-128908617D01*
X30611788Y-128865000D01*
X30388212Y-128865000D01*
X30168933Y-128908617D01*
X29962376Y-128994176D01*
X29776480Y-129118388D01*
X29618388Y-129276480D01*
X29494176Y-129462376D01*
X29408617Y-129668933D01*
X29365000Y-129888212D01*
X28921017Y-129888212D01*
X28888968Y-129728593D01*
X28820509Y-129563318D01*
X28719774Y-129462660D01*
X28182434Y-130000000D01*
X27817566Y-130000000D01*
X27280226Y-129462660D01*
X27179491Y-129563318D01*
X27110064Y-129731782D01*
X27074837Y-129910554D01*
X19935000Y-129910554D01*
X19935000Y-129280226D01*
X27462660Y-129280226D01*
X28000000Y-129817566D01*
X28537340Y-129280226D01*
X28436682Y-129179491D01*
X28268218Y-129110064D01*
X28089446Y-129074837D01*
X27907237Y-129075164D01*
X27728593Y-129111032D01*
X27563318Y-129179491D01*
X27462660Y-129280226D01*
X19935000Y-129280226D01*
X19935000Y-122927609D01*
X34765000Y-122927609D01*
X34765000Y-123072391D01*
X34793246Y-123214391D01*
X34848652Y-123348153D01*
X34929088Y-123468535D01*
X35031465Y-123570912D01*
X35151847Y-123651348D01*
X35285609Y-123706754D01*
X35427609Y-123735000D01*
X35572391Y-123735000D01*
X35714391Y-123706754D01*
X35848153Y-123651348D01*
X35968535Y-123570912D01*
X36070912Y-123468535D01*
X36151348Y-123348153D01*
X36206754Y-123214391D01*
X36235000Y-123072391D01*
X36235000Y-122927609D01*
X36232997Y-122917541D01*
X36309298Y-122841240D01*
X36326842Y-122826842D01*
X36384326Y-122756798D01*
X36427040Y-122676886D01*
X36453343Y-122590176D01*
X36460000Y-122522590D01*
X36460000Y-122522582D01*
X36462224Y-122500000D01*
X36460000Y-122477418D01*
X36460000Y-118190537D01*
X37917541Y-116732997D01*
X37927609Y-116735000D01*
X38072391Y-116735000D01*
X38214391Y-116706754D01*
X38348153Y-116651348D01*
X38468535Y-116570912D01*
X38570912Y-116468535D01*
X38651348Y-116348153D01*
X38706754Y-116214391D01*
X38735000Y-116072391D01*
X38735000Y-115927609D01*
X38706754Y-115785609D01*
X38651348Y-115651847D01*
X38570912Y-115531465D01*
X38468535Y-115429088D01*
X38460000Y-115423385D01*
X38460000Y-109177609D01*
X41765000Y-109177609D01*
X41765000Y-109322391D01*
X41793246Y-109464391D01*
X41848652Y-109598153D01*
X41929088Y-109718535D01*
X42031465Y-109820912D01*
X42040001Y-109826615D01*
X42040000Y-117173385D01*
X42031465Y-117179088D01*
X41929088Y-117281465D01*
X41848652Y-117401847D01*
X41793246Y-117535609D01*
X41765000Y-117677609D01*
X41765000Y-117822391D01*
X41793246Y-117964391D01*
X41848652Y-118098153D01*
X41929088Y-118218535D01*
X42031465Y-118320912D01*
X42151847Y-118401348D01*
X42285609Y-118456754D01*
X42427609Y-118485000D01*
X42572391Y-118485000D01*
X42714391Y-118456754D01*
X42848153Y-118401348D01*
X42968535Y-118320912D01*
X43070912Y-118218535D01*
X43125000Y-118137586D01*
X43179088Y-118218535D01*
X43281465Y-118320912D01*
X43401847Y-118401348D01*
X43535609Y-118456754D01*
X43677609Y-118485000D01*
X43822391Y-118485000D01*
X43964391Y-118456754D01*
X44040000Y-118425436D01*
X44040001Y-120923385D01*
X44031465Y-120929088D01*
X43929088Y-121031465D01*
X43848652Y-121151847D01*
X43793246Y-121285609D01*
X43765000Y-121427609D01*
X43765000Y-121572391D01*
X43793246Y-121714391D01*
X43848652Y-121848153D01*
X43929088Y-121968535D01*
X44031465Y-122070912D01*
X44151847Y-122151348D01*
X44285609Y-122206754D01*
X44427609Y-122235000D01*
X44572391Y-122235000D01*
X44714391Y-122206754D01*
X44848153Y-122151348D01*
X44968535Y-122070912D01*
X45070912Y-121968535D01*
X45151348Y-121848153D01*
X45206754Y-121714391D01*
X45235000Y-121572391D01*
X45235000Y-121427609D01*
X45206754Y-121285609D01*
X45151348Y-121151847D01*
X45070912Y-121031465D01*
X44968535Y-120929088D01*
X44960000Y-120923385D01*
X44960000Y-117076615D01*
X44968535Y-117070912D01*
X45070912Y-116968535D01*
X45151348Y-116848153D01*
X45206754Y-116714391D01*
X45235000Y-116572391D01*
X45235000Y-116427609D01*
X45232997Y-116417540D01*
X47060335Y-114590202D01*
X47151847Y-114651348D01*
X47285609Y-114706754D01*
X47427609Y-114735000D01*
X47572391Y-114735000D01*
X47714391Y-114706754D01*
X47848153Y-114651348D01*
X47968535Y-114570912D01*
X48040000Y-114499447D01*
X48040000Y-117477418D01*
X48037776Y-117500000D01*
X48040000Y-117522582D01*
X48040000Y-117522589D01*
X48046657Y-117590175D01*
X48072960Y-117676885D01*
X48115674Y-117756797D01*
X48173158Y-117826842D01*
X48190708Y-117841245D01*
X48267003Y-117917540D01*
X48265000Y-117927609D01*
X48265000Y-118072391D01*
X48293246Y-118214391D01*
X48348652Y-118348153D01*
X48429088Y-118468535D01*
X48531465Y-118570912D01*
X48651847Y-118651348D01*
X48785609Y-118706754D01*
X48927609Y-118735000D01*
X49072391Y-118735000D01*
X49214391Y-118706754D01*
X49348153Y-118651348D01*
X49468535Y-118570912D01*
X49540001Y-118499446D01*
X49540001Y-127923384D01*
X49531465Y-127929088D01*
X49429088Y-128031465D01*
X49348652Y-128151847D01*
X49293246Y-128285609D01*
X49265000Y-128427609D01*
X49265000Y-128572391D01*
X49293246Y-128714391D01*
X49348652Y-128848153D01*
X49429088Y-128968535D01*
X49531465Y-129070912D01*
X49651847Y-129151348D01*
X49785609Y-129206754D01*
X49927609Y-129235000D01*
X50072391Y-129235000D01*
X50181589Y-129213279D01*
X50118388Y-129276480D01*
X49994176Y-129462376D01*
X49908617Y-129668933D01*
X49865000Y-129888212D01*
X49865000Y-130111788D01*
X49908617Y-130331067D01*
X49994176Y-130537624D01*
X50118388Y-130723520D01*
X50276480Y-130881612D01*
X50462376Y-131005824D01*
X50668933Y-131091383D01*
X50888212Y-131135000D01*
X51111788Y-131135000D01*
X51331067Y-131091383D01*
X51537624Y-131005824D01*
X51723520Y-130881612D01*
X51881612Y-130723520D01*
X52005824Y-130537624D01*
X52091383Y-130331067D01*
X52135000Y-130111788D01*
X52135000Y-129888212D01*
X52365000Y-129888212D01*
X52365000Y-130111788D01*
X52408617Y-130331067D01*
X52494176Y-130537624D01*
X52618388Y-130723520D01*
X52776480Y-130881612D01*
X52962376Y-131005824D01*
X53168933Y-131091383D01*
X53388212Y-131135000D01*
X53611788Y-131135000D01*
X53831067Y-131091383D01*
X54037624Y-131005824D01*
X54223520Y-130881612D01*
X54381612Y-130723520D01*
X54505824Y-130537624D01*
X54591383Y-130331067D01*
X54635000Y-130111788D01*
X54635000Y-129888212D01*
X54591383Y-129668933D01*
X54505824Y-129462376D01*
X54381612Y-129276480D01*
X54223520Y-129118388D01*
X54037624Y-128994176D01*
X53831067Y-128908617D01*
X53611788Y-128865000D01*
X53388212Y-128865000D01*
X53168933Y-128908617D01*
X52962376Y-128994176D01*
X52776480Y-129118388D01*
X52618388Y-129276480D01*
X52494176Y-129462376D01*
X52408617Y-129668933D01*
X52365000Y-129888212D01*
X52135000Y-129888212D01*
X52091383Y-129668933D01*
X52005824Y-129462376D01*
X51881612Y-129276480D01*
X51723520Y-129118388D01*
X51537624Y-128994176D01*
X51331067Y-128908617D01*
X51111788Y-128865000D01*
X50888212Y-128865000D01*
X50668933Y-128908617D01*
X50588758Y-128941827D01*
X50651348Y-128848153D01*
X50706754Y-128714391D01*
X50735000Y-128572391D01*
X50735000Y-128427609D01*
X50706754Y-128285609D01*
X50651348Y-128151847D01*
X50570912Y-128031465D01*
X50468535Y-127929088D01*
X50460000Y-127923385D01*
X50460000Y-125927609D01*
X53515000Y-125927609D01*
X53515000Y-126072391D01*
X53543246Y-126214391D01*
X53598652Y-126348153D01*
X53679088Y-126468535D01*
X53781465Y-126570912D01*
X53901847Y-126651348D01*
X54035609Y-126706754D01*
X54177609Y-126735000D01*
X54322391Y-126735000D01*
X54464391Y-126706754D01*
X54598153Y-126651348D01*
X54718535Y-126570912D01*
X54790001Y-126499446D01*
X54790001Y-127923384D01*
X54781465Y-127929088D01*
X54679088Y-128031465D01*
X54598652Y-128151847D01*
X54543246Y-128285609D01*
X54515000Y-128427609D01*
X54515000Y-128572391D01*
X54543246Y-128714391D01*
X54598652Y-128848153D01*
X54679088Y-128968535D01*
X54781465Y-129070912D01*
X54901847Y-129151348D01*
X55035609Y-129206754D01*
X55177609Y-129235000D01*
X55322391Y-129235000D01*
X55464391Y-129206754D01*
X55598153Y-129151348D01*
X55718535Y-129070912D01*
X55820912Y-128968535D01*
X55901348Y-128848153D01*
X55956754Y-128714391D01*
X55985000Y-128572391D01*
X55985000Y-128427609D01*
X55956754Y-128285609D01*
X55901348Y-128151847D01*
X55820912Y-128031465D01*
X55718535Y-127929088D01*
X55710000Y-127923385D01*
X55710000Y-127749447D01*
X55781465Y-127820912D01*
X55901847Y-127901348D01*
X56035609Y-127956754D01*
X56177609Y-127985000D01*
X56322391Y-127985000D01*
X56464391Y-127956754D01*
X56598153Y-127901348D01*
X56718535Y-127820912D01*
X56820912Y-127718535D01*
X56901348Y-127598153D01*
X56956754Y-127464391D01*
X56985000Y-127322391D01*
X56985000Y-127177609D01*
X56956754Y-127035609D01*
X56901348Y-126901847D01*
X56820912Y-126781465D01*
X56718535Y-126679088D01*
X56710000Y-126673385D01*
X56710000Y-125499447D01*
X56781465Y-125570912D01*
X56901847Y-125651348D01*
X57035609Y-125706754D01*
X57177609Y-125735000D01*
X57322391Y-125735000D01*
X57464391Y-125706754D01*
X57598153Y-125651348D01*
X57718535Y-125570912D01*
X57820912Y-125468535D01*
X57901348Y-125348153D01*
X57956754Y-125214391D01*
X57985000Y-125072391D01*
X57985000Y-124927609D01*
X57956754Y-124785609D01*
X57901348Y-124651847D01*
X57820912Y-124531465D01*
X57718535Y-124429088D01*
X57710000Y-124423385D01*
X57710000Y-123999447D01*
X57781465Y-124070912D01*
X57901847Y-124151348D01*
X58035609Y-124206754D01*
X58177609Y-124235000D01*
X58322391Y-124235000D01*
X58464391Y-124206754D01*
X58540000Y-124175436D01*
X58540001Y-125923385D01*
X58531465Y-125929088D01*
X58429088Y-126031465D01*
X58348652Y-126151847D01*
X58293246Y-126285609D01*
X58265000Y-126427609D01*
X58265000Y-126572391D01*
X58293246Y-126714391D01*
X58348652Y-126848153D01*
X58429088Y-126968535D01*
X58531465Y-127070912D01*
X58651847Y-127151348D01*
X58785609Y-127206754D01*
X58927609Y-127235000D01*
X59072391Y-127235000D01*
X59214391Y-127206754D01*
X59348153Y-127151348D01*
X59468535Y-127070912D01*
X59540001Y-126999446D01*
X59540001Y-127923385D01*
X59531465Y-127929088D01*
X59429088Y-128031465D01*
X59348652Y-128151847D01*
X59293246Y-128285609D01*
X59265000Y-128427609D01*
X59265000Y-128572391D01*
X59293246Y-128714391D01*
X59348652Y-128848153D01*
X59429088Y-128968535D01*
X59531465Y-129070912D01*
X59651847Y-129151348D01*
X59785609Y-129206754D01*
X59927609Y-129235000D01*
X60072391Y-129235000D01*
X60214391Y-129206754D01*
X60348153Y-129151348D01*
X60468535Y-129070912D01*
X60540000Y-128999447D01*
X60540001Y-136423385D01*
X60531465Y-136429088D01*
X60429088Y-136531465D01*
X60348652Y-136651847D01*
X60293246Y-136785609D01*
X60265000Y-136927609D01*
X60265000Y-137072391D01*
X60293246Y-137214391D01*
X60348652Y-137348153D01*
X60429088Y-137468535D01*
X60531465Y-137570912D01*
X60651847Y-137651348D01*
X60785609Y-137706754D01*
X60927609Y-137735000D01*
X61072391Y-137735000D01*
X61214391Y-137706754D01*
X61348153Y-137651348D01*
X61468535Y-137570912D01*
X61570912Y-137468535D01*
X61651348Y-137348153D01*
X61706754Y-137214391D01*
X61735000Y-137072391D01*
X61735000Y-136927609D01*
X61722494Y-136864736D01*
X77876645Y-136864736D01*
X77876645Y-137135264D01*
X77929422Y-137400593D01*
X78032949Y-137650527D01*
X78183246Y-137875463D01*
X78374537Y-138066754D01*
X78599473Y-138217051D01*
X78849407Y-138320578D01*
X79114736Y-138373355D01*
X79385264Y-138373355D01*
X79650593Y-138320578D01*
X79900527Y-138217051D01*
X80125463Y-138066754D01*
X80316754Y-137875463D01*
X80467051Y-137650527D01*
X80570578Y-137400593D01*
X80623355Y-137135264D01*
X80623355Y-136864736D01*
X80570578Y-136599407D01*
X80467051Y-136349473D01*
X80316754Y-136124537D01*
X80125463Y-135933246D01*
X79900527Y-135782949D01*
X79650593Y-135679422D01*
X79385264Y-135626645D01*
X79114736Y-135626645D01*
X78849407Y-135679422D01*
X78599473Y-135782949D01*
X78374537Y-135933246D01*
X78183246Y-136124537D01*
X78032949Y-136349473D01*
X77929422Y-136599407D01*
X77876645Y-136864736D01*
X61722494Y-136864736D01*
X61706754Y-136785609D01*
X61651348Y-136651847D01*
X61570912Y-136531465D01*
X61468535Y-136429088D01*
X61460000Y-136423385D01*
X61460000Y-134888212D01*
X67365000Y-134888212D01*
X67365000Y-135111788D01*
X67408617Y-135331067D01*
X67494176Y-135537624D01*
X67618388Y-135723520D01*
X67776480Y-135881612D01*
X67962376Y-136005824D01*
X68168933Y-136091383D01*
X68388212Y-136135000D01*
X68611788Y-136135000D01*
X68831067Y-136091383D01*
X69037624Y-136005824D01*
X69223520Y-135881612D01*
X69381612Y-135723520D01*
X69505824Y-135537624D01*
X69591383Y-135331067D01*
X69635000Y-135111788D01*
X69635000Y-134888212D01*
X69865000Y-134888212D01*
X69865000Y-135111788D01*
X69908617Y-135331067D01*
X69994176Y-135537624D01*
X70118388Y-135723520D01*
X70276480Y-135881612D01*
X70462376Y-136005824D01*
X70668933Y-136091383D01*
X70888212Y-136135000D01*
X71111788Y-136135000D01*
X71331067Y-136091383D01*
X71537624Y-136005824D01*
X71723520Y-135881612D01*
X71881612Y-135723520D01*
X72005824Y-135537624D01*
X72091383Y-135331067D01*
X72135000Y-135111788D01*
X72135000Y-134888212D01*
X72365000Y-134888212D01*
X72365000Y-135111788D01*
X72408617Y-135331067D01*
X72494176Y-135537624D01*
X72618388Y-135723520D01*
X72776480Y-135881612D01*
X72962376Y-136005824D01*
X73168933Y-136091383D01*
X73388212Y-136135000D01*
X73611788Y-136135000D01*
X73831067Y-136091383D01*
X74037624Y-136005824D01*
X74223520Y-135881612D01*
X74381612Y-135723520D01*
X74505824Y-135537624D01*
X74591383Y-135331067D01*
X74635000Y-135111788D01*
X74635000Y-134888212D01*
X74591383Y-134668933D01*
X74505824Y-134462376D01*
X74381612Y-134276480D01*
X74223520Y-134118388D01*
X74037624Y-133994176D01*
X73831067Y-133908617D01*
X73611788Y-133865000D01*
X73388212Y-133865000D01*
X73168933Y-133908617D01*
X72962376Y-133994176D01*
X72776480Y-134118388D01*
X72618388Y-134276480D01*
X72494176Y-134462376D01*
X72408617Y-134668933D01*
X72365000Y-134888212D01*
X72135000Y-134888212D01*
X72091383Y-134668933D01*
X72005824Y-134462376D01*
X71881612Y-134276480D01*
X71723520Y-134118388D01*
X71537624Y-133994176D01*
X71331067Y-133908617D01*
X71111788Y-133865000D01*
X70888212Y-133865000D01*
X70668933Y-133908617D01*
X70462376Y-133994176D01*
X70276480Y-134118388D01*
X70118388Y-134276480D01*
X69994176Y-134462376D01*
X69908617Y-134668933D01*
X69865000Y-134888212D01*
X69635000Y-134888212D01*
X69591383Y-134668933D01*
X69505824Y-134462376D01*
X69381612Y-134276480D01*
X69223520Y-134118388D01*
X69037624Y-133994176D01*
X68831067Y-133908617D01*
X68611788Y-133865000D01*
X68388212Y-133865000D01*
X68168933Y-133908617D01*
X67962376Y-133994176D01*
X67776480Y-134118388D01*
X67618388Y-134276480D01*
X67494176Y-134462376D01*
X67408617Y-134668933D01*
X67365000Y-134888212D01*
X61460000Y-134888212D01*
X61460000Y-133219774D01*
X65462660Y-133219774D01*
X65563318Y-133320509D01*
X65731782Y-133389936D01*
X65910554Y-133425163D01*
X66092763Y-133424836D01*
X66271407Y-133388968D01*
X66436682Y-133320509D01*
X66537340Y-133219774D01*
X66000000Y-132682434D01*
X65462660Y-133219774D01*
X61460000Y-133219774D01*
X61460000Y-132410554D01*
X65074837Y-132410554D01*
X65075164Y-132592763D01*
X65111032Y-132771407D01*
X65179491Y-132936682D01*
X65280226Y-133037340D01*
X65817566Y-132500000D01*
X66182434Y-132500000D01*
X66719774Y-133037340D01*
X66820509Y-132936682D01*
X66889936Y-132768218D01*
X66925163Y-132589446D01*
X66924836Y-132407237D01*
X66888968Y-132228593D01*
X66820509Y-132063318D01*
X66719774Y-131962660D01*
X66182434Y-132500000D01*
X65817566Y-132500000D01*
X65280226Y-131962660D01*
X65179491Y-132063318D01*
X65110064Y-132231782D01*
X65074837Y-132410554D01*
X61460000Y-132410554D01*
X61460000Y-131780226D01*
X65462660Y-131780226D01*
X66000000Y-132317566D01*
X66537340Y-131780226D01*
X66457176Y-131700000D01*
X74863380Y-131700000D01*
X74863380Y-133300000D01*
X74869848Y-133365671D01*
X74889004Y-133428819D01*
X74920111Y-133487016D01*
X74961974Y-133538026D01*
X75012984Y-133579889D01*
X75071181Y-133610996D01*
X75134329Y-133630152D01*
X75200000Y-133636620D01*
X76800000Y-133636620D01*
X76865671Y-133630152D01*
X76928819Y-133610996D01*
X76987016Y-133579889D01*
X77038026Y-133538026D01*
X77079889Y-133487016D01*
X77110996Y-133428819D01*
X77130152Y-133365671D01*
X77136620Y-133300000D01*
X77136620Y-131700000D01*
X77130152Y-131634329D01*
X77110996Y-131571181D01*
X77079889Y-131512984D01*
X77038026Y-131461974D01*
X76987016Y-131420111D01*
X76928819Y-131389004D01*
X76865671Y-131369848D01*
X76800000Y-131363380D01*
X75200000Y-131363380D01*
X75134329Y-131369848D01*
X75071181Y-131389004D01*
X75012984Y-131420111D01*
X74961974Y-131461974D01*
X74920111Y-131512984D01*
X74889004Y-131571181D01*
X74869848Y-131634329D01*
X74863380Y-131700000D01*
X66457176Y-131700000D01*
X66436682Y-131679491D01*
X66268218Y-131610064D01*
X66089446Y-131574837D01*
X65907237Y-131575164D01*
X65728593Y-131611032D01*
X65563318Y-131679491D01*
X65462660Y-131780226D01*
X61460000Y-131780226D01*
X61460000Y-130719774D01*
X67962660Y-130719774D01*
X68063318Y-130820509D01*
X68231782Y-130889936D01*
X68410554Y-130925163D01*
X68592763Y-130924836D01*
X68771407Y-130888968D01*
X68936682Y-130820509D01*
X69037340Y-130719774D01*
X68500000Y-130182434D01*
X67962660Y-130719774D01*
X61460000Y-130719774D01*
X61460000Y-129910554D01*
X67574837Y-129910554D01*
X67575164Y-130092763D01*
X67611032Y-130271407D01*
X67679491Y-130436682D01*
X67780226Y-130537340D01*
X68317566Y-130000000D01*
X68682434Y-130000000D01*
X69219774Y-130537340D01*
X69320509Y-130436682D01*
X69389936Y-130268218D01*
X69425163Y-130089446D01*
X69424836Y-129907237D01*
X69421017Y-129888212D01*
X69865000Y-129888212D01*
X69865000Y-130111788D01*
X69908617Y-130331067D01*
X69994176Y-130537624D01*
X70118388Y-130723520D01*
X70276480Y-130881612D01*
X70462376Y-131005824D01*
X70668933Y-131091383D01*
X70888212Y-131135000D01*
X71111788Y-131135000D01*
X71331067Y-131091383D01*
X71537624Y-131005824D01*
X71723520Y-130881612D01*
X71881612Y-130723520D01*
X72005824Y-130537624D01*
X72091383Y-130331067D01*
X72135000Y-130111788D01*
X72135000Y-129888212D01*
X72365000Y-129888212D01*
X72365000Y-130111788D01*
X72408617Y-130331067D01*
X72494176Y-130537624D01*
X72618388Y-130723520D01*
X72776480Y-130881612D01*
X72962376Y-131005824D01*
X73168933Y-131091383D01*
X73388212Y-131135000D01*
X73611788Y-131135000D01*
X73831067Y-131091383D01*
X74037624Y-131005824D01*
X74223520Y-130881612D01*
X74381612Y-130723520D01*
X74505824Y-130537624D01*
X74591383Y-130331067D01*
X74635000Y-130111788D01*
X74635000Y-129888212D01*
X74591383Y-129668933D01*
X74505824Y-129462376D01*
X74381612Y-129276480D01*
X74223520Y-129118388D01*
X74037624Y-128994176D01*
X73831067Y-128908617D01*
X73611788Y-128865000D01*
X73388212Y-128865000D01*
X73168933Y-128908617D01*
X72962376Y-128994176D01*
X72776480Y-129118388D01*
X72618388Y-129276480D01*
X72494176Y-129462376D01*
X72408617Y-129668933D01*
X72365000Y-129888212D01*
X72135000Y-129888212D01*
X72091383Y-129668933D01*
X72005824Y-129462376D01*
X71881612Y-129276480D01*
X71723520Y-129118388D01*
X71537624Y-128994176D01*
X71331067Y-128908617D01*
X71111788Y-128865000D01*
X70888212Y-128865000D01*
X70668933Y-128908617D01*
X70462376Y-128994176D01*
X70276480Y-129118388D01*
X70118388Y-129276480D01*
X69994176Y-129462376D01*
X69908617Y-129668933D01*
X69865000Y-129888212D01*
X69421017Y-129888212D01*
X69388968Y-129728593D01*
X69320509Y-129563318D01*
X69219774Y-129462660D01*
X68682434Y-130000000D01*
X68317566Y-130000000D01*
X67780226Y-129462660D01*
X67679491Y-129563318D01*
X67610064Y-129731782D01*
X67574837Y-129910554D01*
X61460000Y-129910554D01*
X61460000Y-129280226D01*
X67962660Y-129280226D01*
X68500000Y-129817566D01*
X69037340Y-129280226D01*
X68936682Y-129179491D01*
X68768218Y-129110064D01*
X68589446Y-129074837D01*
X68407237Y-129075164D01*
X68228593Y-129111032D01*
X68063318Y-129179491D01*
X67962660Y-129280226D01*
X61460000Y-129280226D01*
X61460000Y-123522582D01*
X61462224Y-123500000D01*
X61460000Y-123477418D01*
X61460000Y-123477410D01*
X61453343Y-123409824D01*
X61427040Y-123323114D01*
X61384326Y-123243202D01*
X61326842Y-123173158D01*
X61309298Y-123158760D01*
X61108901Y-122958363D01*
X62265000Y-122958363D01*
X62265000Y-123201637D01*
X62312460Y-123440236D01*
X62405557Y-123664992D01*
X62540713Y-123867267D01*
X62712733Y-124039287D01*
X62915008Y-124174443D01*
X63139764Y-124267540D01*
X63378363Y-124315000D01*
X63621637Y-124315000D01*
X63860236Y-124267540D01*
X64084992Y-124174443D01*
X64287267Y-124039287D01*
X64459287Y-123867267D01*
X64594443Y-123664992D01*
X64687540Y-123440236D01*
X64735000Y-123201637D01*
X64735000Y-122958363D01*
X64687540Y-122719764D01*
X64594443Y-122495008D01*
X64459287Y-122292733D01*
X64287267Y-122120713D01*
X64084992Y-121985557D01*
X63860236Y-121892460D01*
X63621637Y-121845000D01*
X63378363Y-121845000D01*
X63139764Y-121892460D01*
X62915008Y-121985557D01*
X62712733Y-122120713D01*
X62540713Y-122292733D01*
X62405557Y-122495008D01*
X62312460Y-122719764D01*
X62265000Y-122958363D01*
X61108901Y-122958363D01*
X60960000Y-122809463D01*
X60960000Y-121331496D01*
X62890938Y-121331496D01*
X63003735Y-121442518D01*
X63189343Y-121521993D01*
X63386889Y-121563730D01*
X63588782Y-121566126D01*
X63787264Y-121529088D01*
X63974706Y-121454041D01*
X63996265Y-121442518D01*
X64109062Y-121331496D01*
X63500000Y-120722434D01*
X62890938Y-121331496D01*
X60960000Y-121331496D01*
X60960000Y-120628782D01*
X62473874Y-120628782D01*
X62510912Y-120827264D01*
X62585959Y-121014706D01*
X62597482Y-121036265D01*
X62708504Y-121149062D01*
X63317566Y-120540000D01*
X63682434Y-120540000D01*
X64291496Y-121149062D01*
X64402518Y-121036265D01*
X64481993Y-120850657D01*
X64523730Y-120653111D01*
X64526126Y-120451218D01*
X64489088Y-120252736D01*
X64414041Y-120065294D01*
X64402518Y-120043735D01*
X64291496Y-119930938D01*
X63682434Y-120540000D01*
X63317566Y-120540000D01*
X62708504Y-119930938D01*
X62597482Y-120043735D01*
X62518007Y-120229343D01*
X62476270Y-120426889D01*
X62473874Y-120628782D01*
X60960000Y-120628782D01*
X60960000Y-119748504D01*
X62890938Y-119748504D01*
X63500000Y-120357566D01*
X64109062Y-119748504D01*
X63996265Y-119637482D01*
X63810657Y-119558007D01*
X63613111Y-119516270D01*
X63411218Y-119513874D01*
X63212736Y-119550912D01*
X63025294Y-119625959D01*
X63003735Y-119637482D01*
X62890938Y-119748504D01*
X60960000Y-119748504D01*
X60960000Y-117100000D01*
X62263380Y-117100000D01*
X62263380Y-118900000D01*
X62269848Y-118965671D01*
X62289004Y-119028819D01*
X62320111Y-119087016D01*
X62361974Y-119138026D01*
X62412984Y-119179889D01*
X62471181Y-119210996D01*
X62534329Y-119230152D01*
X62600000Y-119236620D01*
X64400000Y-119236620D01*
X64465671Y-119230152D01*
X64528819Y-119210996D01*
X64587016Y-119179889D01*
X64638026Y-119138026D01*
X64679889Y-119087016D01*
X64710996Y-119028819D01*
X64730152Y-118965671D01*
X64736620Y-118900000D01*
X64736620Y-117100000D01*
X64730152Y-117034329D01*
X64710996Y-116971181D01*
X64679889Y-116912984D01*
X64638026Y-116861974D01*
X64587016Y-116820111D01*
X64528819Y-116789004D01*
X64465671Y-116769848D01*
X64400000Y-116763380D01*
X62600000Y-116763380D01*
X62534329Y-116769848D01*
X62471181Y-116789004D01*
X62412984Y-116820111D01*
X62361974Y-116861974D01*
X62320111Y-116912984D01*
X62289004Y-116971181D01*
X62269848Y-117034329D01*
X62263380Y-117100000D01*
X60960000Y-117100000D01*
X60960000Y-112190537D01*
X61167540Y-111982997D01*
X61177609Y-111985000D01*
X61322391Y-111985000D01*
X61464391Y-111956754D01*
X61598153Y-111901348D01*
X61718535Y-111820912D01*
X61820912Y-111718535D01*
X61901348Y-111598153D01*
X61956754Y-111464391D01*
X61985000Y-111322391D01*
X61985000Y-111177609D01*
X61956754Y-111035609D01*
X61901348Y-110901847D01*
X61820912Y-110781465D01*
X61718535Y-110679088D01*
X61598153Y-110598652D01*
X61464391Y-110543246D01*
X61322391Y-110515000D01*
X61177609Y-110515000D01*
X61035609Y-110543246D01*
X60901847Y-110598652D01*
X60781465Y-110679088D01*
X60679088Y-110781465D01*
X60598652Y-110901847D01*
X60543246Y-111035609D01*
X60515000Y-111177609D01*
X60515000Y-111322391D01*
X60517003Y-111332460D01*
X60190708Y-111658755D01*
X60173158Y-111673158D01*
X60115674Y-111743203D01*
X60072960Y-111823115D01*
X60046657Y-111909825D01*
X60040000Y-111977411D01*
X60040000Y-111977418D01*
X60037776Y-112000000D01*
X60040000Y-112022582D01*
X60040001Y-122977408D01*
X60037776Y-123000000D01*
X60046657Y-123090175D01*
X60072960Y-123176885D01*
X60080347Y-123190704D01*
X60115675Y-123256798D01*
X60173159Y-123326842D01*
X60190703Y-123341240D01*
X60540000Y-123690538D01*
X60540000Y-123824564D01*
X60464391Y-123793246D01*
X60322391Y-123765000D01*
X60177609Y-123765000D01*
X60035609Y-123793246D01*
X59901847Y-123848652D01*
X59781465Y-123929088D01*
X59679088Y-124031465D01*
X59598652Y-124151847D01*
X59543246Y-124285609D01*
X59515000Y-124427609D01*
X59515000Y-124572391D01*
X59541933Y-124707789D01*
X59540000Y-124727411D01*
X59540000Y-124727418D01*
X59537776Y-124750000D01*
X59540000Y-124772582D01*
X59540000Y-126000553D01*
X59468535Y-125929088D01*
X59460000Y-125923385D01*
X59460000Y-122957627D01*
X59464391Y-122956754D01*
X59598153Y-122901348D01*
X59718535Y-122820912D01*
X59820912Y-122718535D01*
X59901348Y-122598153D01*
X59956754Y-122464391D01*
X59985000Y-122322391D01*
X59985000Y-122177609D01*
X59956754Y-122035609D01*
X59901348Y-121901847D01*
X59820912Y-121781465D01*
X59718535Y-121679088D01*
X59598153Y-121598652D01*
X59464391Y-121543246D01*
X59322391Y-121515000D01*
X59177609Y-121515000D01*
X59035609Y-121543246D01*
X58960000Y-121574564D01*
X58960000Y-120175436D01*
X59035609Y-120206754D01*
X59177609Y-120235000D01*
X59322391Y-120235000D01*
X59464391Y-120206754D01*
X59598153Y-120151348D01*
X59718535Y-120070912D01*
X59820912Y-119968535D01*
X59901348Y-119848153D01*
X59956754Y-119714391D01*
X59985000Y-119572391D01*
X59985000Y-119427609D01*
X59958067Y-119292212D01*
X59960000Y-119272590D01*
X59960000Y-119272581D01*
X59962224Y-119250001D01*
X59960000Y-119227421D01*
X59960000Y-109927609D01*
X65265000Y-109927609D01*
X65265000Y-110072391D01*
X65293246Y-110214391D01*
X65348652Y-110348153D01*
X65429088Y-110468535D01*
X65531465Y-110570912D01*
X65540000Y-110576615D01*
X65540001Y-123423385D01*
X65531465Y-123429088D01*
X65429088Y-123531465D01*
X65348652Y-123651847D01*
X65293246Y-123785609D01*
X65265000Y-123927609D01*
X65265000Y-124072391D01*
X65293246Y-124214391D01*
X65348652Y-124348153D01*
X65429088Y-124468535D01*
X65531465Y-124570912D01*
X65612414Y-124625000D01*
X65531465Y-124679088D01*
X65429088Y-124781465D01*
X65348652Y-124901847D01*
X65293246Y-125035609D01*
X65265000Y-125177609D01*
X65265000Y-125322391D01*
X65293246Y-125464391D01*
X65348652Y-125598153D01*
X65429088Y-125718535D01*
X65531465Y-125820912D01*
X65540000Y-125826615D01*
X65540001Y-127923385D01*
X65531465Y-127929088D01*
X65429088Y-128031465D01*
X65348652Y-128151847D01*
X65293246Y-128285609D01*
X65265000Y-128427609D01*
X65265000Y-128572391D01*
X65293246Y-128714391D01*
X65348652Y-128848153D01*
X65429088Y-128968535D01*
X65531465Y-129070912D01*
X65651847Y-129151348D01*
X65785609Y-129206754D01*
X65927609Y-129235000D01*
X66072391Y-129235000D01*
X66214391Y-129206754D01*
X66348153Y-129151348D01*
X66468535Y-129070912D01*
X66570912Y-128968535D01*
X66651348Y-128848153D01*
X66706754Y-128714391D01*
X66735000Y-128572391D01*
X66735000Y-128427609D01*
X66706754Y-128285609D01*
X66651348Y-128151847D01*
X66570912Y-128031465D01*
X66468535Y-127929088D01*
X66460000Y-127923385D01*
X66460000Y-125826615D01*
X66468535Y-125820912D01*
X66570912Y-125718535D01*
X66651348Y-125598153D01*
X66706754Y-125464391D01*
X66735000Y-125322391D01*
X66735000Y-125177609D01*
X66706754Y-125035609D01*
X66651348Y-124901847D01*
X66570912Y-124781465D01*
X66468535Y-124679088D01*
X66387586Y-124625000D01*
X66468535Y-124570912D01*
X66570912Y-124468535D01*
X66651348Y-124348153D01*
X66706754Y-124214391D01*
X66735000Y-124072391D01*
X66735000Y-123927609D01*
X66706754Y-123785609D01*
X66651348Y-123651847D01*
X66570912Y-123531465D01*
X66468535Y-123429088D01*
X66460000Y-123423385D01*
X66460000Y-122175436D01*
X66535609Y-122206754D01*
X66677609Y-122235000D01*
X66822391Y-122235000D01*
X66964391Y-122206754D01*
X67098153Y-122151348D01*
X67218535Y-122070912D01*
X67320912Y-121968535D01*
X67401348Y-121848153D01*
X67456754Y-121714391D01*
X67485000Y-121572391D01*
X67485000Y-121427609D01*
X67456754Y-121285609D01*
X67401348Y-121151847D01*
X67320912Y-121031465D01*
X67218535Y-120929088D01*
X67210000Y-120923385D01*
X67210000Y-113107801D01*
X67232324Y-113110000D01*
X67250000Y-113111741D01*
X67267676Y-113110000D01*
X69003817Y-113110000D01*
X68993202Y-113115674D01*
X68923158Y-113173158D01*
X68908759Y-113190703D01*
X68440705Y-113658758D01*
X68423159Y-113673158D01*
X68365675Y-113743202D01*
X68358408Y-113756798D01*
X68322960Y-113823115D01*
X68296657Y-113909825D01*
X68287776Y-114000000D01*
X68290001Y-114022592D01*
X68290000Y-115309462D01*
X68082460Y-115517003D01*
X68072391Y-115515000D01*
X67927609Y-115515000D01*
X67785609Y-115543246D01*
X67651847Y-115598652D01*
X67531465Y-115679088D01*
X67429088Y-115781465D01*
X67348652Y-115901847D01*
X67293246Y-116035609D01*
X67265000Y-116177609D01*
X67265000Y-116322391D01*
X67293246Y-116464391D01*
X67348652Y-116598153D01*
X67429088Y-116718535D01*
X67531465Y-116820912D01*
X67540000Y-116826615D01*
X67540001Y-121923385D01*
X67531465Y-121929088D01*
X67429088Y-122031465D01*
X67348652Y-122151847D01*
X67293246Y-122285609D01*
X67265000Y-122427609D01*
X67265000Y-122572391D01*
X67293246Y-122714391D01*
X67348652Y-122848153D01*
X67429088Y-122968535D01*
X67531465Y-123070912D01*
X67651847Y-123151348D01*
X67785609Y-123206754D01*
X67927609Y-123235000D01*
X68072391Y-123235000D01*
X68214391Y-123206754D01*
X68348153Y-123151348D01*
X68468535Y-123070912D01*
X68570912Y-122968535D01*
X68651348Y-122848153D01*
X68706754Y-122714391D01*
X68735000Y-122572391D01*
X68735000Y-122427609D01*
X68706754Y-122285609D01*
X68651348Y-122151847D01*
X68570912Y-122031465D01*
X68468535Y-121929088D01*
X68460000Y-121923385D01*
X68460000Y-117573288D01*
X70660000Y-117573288D01*
X70660000Y-117806712D01*
X70705539Y-118035652D01*
X70794866Y-118251308D01*
X70924550Y-118445394D01*
X71089606Y-118610450D01*
X71283692Y-118740134D01*
X71419200Y-118796263D01*
X71348652Y-118901847D01*
X71293246Y-119035609D01*
X71265000Y-119177609D01*
X71265000Y-119322391D01*
X71293246Y-119464391D01*
X71348652Y-119598153D01*
X71429088Y-119718535D01*
X71531465Y-119820912D01*
X71540000Y-119826615D01*
X71540001Y-123673385D01*
X71531465Y-123679088D01*
X71429088Y-123781465D01*
X71348652Y-123901847D01*
X71293246Y-124035609D01*
X71265000Y-124177609D01*
X71265000Y-124322391D01*
X71293246Y-124464391D01*
X71348652Y-124598153D01*
X71429088Y-124718535D01*
X71531465Y-124820912D01*
X71651847Y-124901348D01*
X71785609Y-124956754D01*
X71927609Y-124985000D01*
X72072391Y-124985000D01*
X72214391Y-124956754D01*
X72348153Y-124901348D01*
X72468535Y-124820912D01*
X72540001Y-124749446D01*
X72540000Y-125923385D01*
X72531465Y-125929088D01*
X72429088Y-126031465D01*
X72348652Y-126151847D01*
X72293246Y-126285609D01*
X72265000Y-126427609D01*
X72265000Y-126572391D01*
X72293246Y-126714391D01*
X72348652Y-126848153D01*
X72429088Y-126968535D01*
X72531465Y-127070912D01*
X72651847Y-127151348D01*
X72785609Y-127206754D01*
X72927609Y-127235000D01*
X73072391Y-127235000D01*
X73214391Y-127206754D01*
X73348153Y-127151348D01*
X73468535Y-127070912D01*
X73570912Y-126968535D01*
X73651348Y-126848153D01*
X73706754Y-126714391D01*
X73735000Y-126572391D01*
X73735000Y-126427609D01*
X73706754Y-126285609D01*
X73651348Y-126151847D01*
X73570912Y-126031465D01*
X73468535Y-125929088D01*
X73460000Y-125923385D01*
X73460000Y-123576615D01*
X73468535Y-123570912D01*
X73570912Y-123468535D01*
X73651348Y-123348153D01*
X73706754Y-123214391D01*
X73735000Y-123072391D01*
X73735000Y-122927609D01*
X73706754Y-122785609D01*
X73651348Y-122651847D01*
X73570912Y-122531465D01*
X73468535Y-122429088D01*
X73348153Y-122348652D01*
X73214391Y-122293246D01*
X73072391Y-122265000D01*
X72927609Y-122265000D01*
X72785609Y-122293246D01*
X72651847Y-122348652D01*
X72531465Y-122429088D01*
X72460000Y-122500553D01*
X72460000Y-119826615D01*
X72468535Y-119820912D01*
X72570912Y-119718535D01*
X72651348Y-119598153D01*
X72706754Y-119464391D01*
X72735000Y-119322391D01*
X72735000Y-119177609D01*
X72706754Y-119035609D01*
X72651348Y-118901847D01*
X72570912Y-118781465D01*
X72480205Y-118690758D01*
X72600394Y-118610450D01*
X72765450Y-118445394D01*
X72895134Y-118251308D01*
X72984461Y-118035652D01*
X73030000Y-117806712D01*
X73030000Y-117573288D01*
X73200000Y-117573288D01*
X73200000Y-117806712D01*
X73245539Y-118035652D01*
X73334866Y-118251308D01*
X73464550Y-118445394D01*
X73629606Y-118610450D01*
X73823692Y-118740134D01*
X74039348Y-118829461D01*
X74268288Y-118875000D01*
X74501712Y-118875000D01*
X74730652Y-118829461D01*
X74946308Y-118740134D01*
X75140394Y-118610450D01*
X75305450Y-118445394D01*
X75435134Y-118251308D01*
X75524461Y-118035652D01*
X75570000Y-117806712D01*
X75570000Y-117573288D01*
X75740000Y-117573288D01*
X75740000Y-117806712D01*
X75785539Y-118035652D01*
X75874866Y-118251308D01*
X76004550Y-118445394D01*
X76169606Y-118610450D01*
X76363692Y-118740134D01*
X76465001Y-118782097D01*
X76465000Y-122495553D01*
X76429088Y-122531465D01*
X76348652Y-122651847D01*
X76293246Y-122785609D01*
X76265000Y-122927609D01*
X76265000Y-123072391D01*
X76293246Y-123214391D01*
X76348652Y-123348153D01*
X76429088Y-123468535D01*
X76531465Y-123570912D01*
X76651847Y-123651348D01*
X76785609Y-123706754D01*
X76927609Y-123735000D01*
X77072391Y-123735000D01*
X77214391Y-123706754D01*
X77348153Y-123651348D01*
X77468535Y-123570912D01*
X77570912Y-123468535D01*
X77651348Y-123348153D01*
X77706754Y-123214391D01*
X77735000Y-123072391D01*
X77735000Y-122927609D01*
X78265000Y-122927609D01*
X78265000Y-123072391D01*
X78293246Y-123214391D01*
X78348652Y-123348153D01*
X78429088Y-123468535D01*
X78531465Y-123570912D01*
X78540000Y-123576615D01*
X78540001Y-125673385D01*
X78531465Y-125679088D01*
X78429088Y-125781465D01*
X78348652Y-125901847D01*
X78293246Y-126035609D01*
X78265000Y-126177609D01*
X78265000Y-126322391D01*
X78293246Y-126464391D01*
X78348652Y-126598153D01*
X78429088Y-126718535D01*
X78531465Y-126820912D01*
X78651847Y-126901348D01*
X78785609Y-126956754D01*
X78927609Y-126985000D01*
X79072391Y-126985000D01*
X79214391Y-126956754D01*
X79348153Y-126901348D01*
X79468535Y-126820912D01*
X79540001Y-126749446D01*
X79540001Y-127673385D01*
X79531465Y-127679088D01*
X79429088Y-127781465D01*
X79348652Y-127901847D01*
X79293246Y-128035609D01*
X79265000Y-128177609D01*
X79265000Y-128322391D01*
X79293246Y-128464391D01*
X79348652Y-128598153D01*
X79429088Y-128718535D01*
X79531465Y-128820912D01*
X79651847Y-128901348D01*
X79785609Y-128956754D01*
X79927609Y-128985000D01*
X80072391Y-128985000D01*
X80214391Y-128956754D01*
X80348153Y-128901348D01*
X80468535Y-128820912D01*
X80570912Y-128718535D01*
X80651348Y-128598153D01*
X80706754Y-128464391D01*
X80735000Y-128322391D01*
X80735000Y-128177609D01*
X80706754Y-128035609D01*
X80651348Y-127901847D01*
X80570912Y-127781465D01*
X80468535Y-127679088D01*
X80460000Y-127673385D01*
X80460000Y-122326615D01*
X80468535Y-122320912D01*
X80570912Y-122218535D01*
X80651348Y-122098153D01*
X80706754Y-121964391D01*
X80735000Y-121822391D01*
X80735000Y-121677609D01*
X80706754Y-121535609D01*
X80651348Y-121401847D01*
X80570912Y-121281465D01*
X80468535Y-121179088D01*
X80348153Y-121098652D01*
X80214391Y-121043246D01*
X80072391Y-121015000D01*
X79927609Y-121015000D01*
X79785609Y-121043246D01*
X79651847Y-121098652D01*
X79531465Y-121179088D01*
X79429088Y-121281465D01*
X79348652Y-121401847D01*
X79293246Y-121535609D01*
X79265000Y-121677609D01*
X79265000Y-121822391D01*
X79293246Y-121964391D01*
X79348652Y-122098153D01*
X79429088Y-122218535D01*
X79531465Y-122320912D01*
X79540000Y-122326615D01*
X79540000Y-122500553D01*
X79468535Y-122429088D01*
X79348153Y-122348652D01*
X79214391Y-122293246D01*
X79072391Y-122265000D01*
X78927609Y-122265000D01*
X78785609Y-122293246D01*
X78651847Y-122348652D01*
X78531465Y-122429088D01*
X78429088Y-122531465D01*
X78348652Y-122651847D01*
X78293246Y-122785609D01*
X78265000Y-122927609D01*
X77735000Y-122927609D01*
X77706754Y-122785609D01*
X77651348Y-122651847D01*
X77570912Y-122531465D01*
X77468535Y-122429088D01*
X77385000Y-122373272D01*
X77385000Y-118782097D01*
X77486308Y-118740134D01*
X77680394Y-118610450D01*
X77845450Y-118445394D01*
X77975134Y-118251308D01*
X78064461Y-118035652D01*
X78110000Y-117806712D01*
X78110000Y-117573288D01*
X78064461Y-117344348D01*
X77975134Y-117128692D01*
X77845450Y-116934606D01*
X77680394Y-116769550D01*
X77486308Y-116639866D01*
X77270652Y-116550539D01*
X77041712Y-116505000D01*
X76808288Y-116505000D01*
X76579348Y-116550539D01*
X76363692Y-116639866D01*
X76169606Y-116769550D01*
X76004550Y-116934606D01*
X75874866Y-117128692D01*
X75785539Y-117344348D01*
X75740000Y-117573288D01*
X75570000Y-117573288D01*
X75524461Y-117344348D01*
X75435134Y-117128692D01*
X75305450Y-116934606D01*
X75140394Y-116769550D01*
X74946308Y-116639866D01*
X74730652Y-116550539D01*
X74501712Y-116505000D01*
X74268288Y-116505000D01*
X74039348Y-116550539D01*
X73823692Y-116639866D01*
X73629606Y-116769550D01*
X73464550Y-116934606D01*
X73334866Y-117128692D01*
X73245539Y-117344348D01*
X73200000Y-117573288D01*
X73030000Y-117573288D01*
X72984461Y-117344348D01*
X72895134Y-117128692D01*
X72765450Y-116934606D01*
X72600394Y-116769550D01*
X72406308Y-116639866D01*
X72190652Y-116550539D01*
X71961712Y-116505000D01*
X71728288Y-116505000D01*
X71499348Y-116550539D01*
X71283692Y-116639866D01*
X71089606Y-116769550D01*
X70924550Y-116934606D01*
X70794866Y-117128692D01*
X70705539Y-117344348D01*
X70660000Y-117573288D01*
X68460000Y-117573288D01*
X68460000Y-116826615D01*
X68468535Y-116820912D01*
X68570912Y-116718535D01*
X68651348Y-116598153D01*
X68706754Y-116464391D01*
X68735000Y-116322391D01*
X68735000Y-116177609D01*
X68732997Y-116167540D01*
X68994885Y-115905652D01*
X70001781Y-115905652D01*
X70108513Y-116011532D01*
X70285553Y-116085985D01*
X70473715Y-116124468D01*
X70665771Y-116125504D01*
X70854338Y-116089051D01*
X71032170Y-116016511D01*
X71041487Y-116011532D01*
X71148219Y-115905652D01*
X70575000Y-115332434D01*
X70001781Y-115905652D01*
X68994885Y-115905652D01*
X69059298Y-115841240D01*
X69076842Y-115826842D01*
X69134326Y-115756798D01*
X69177040Y-115676886D01*
X69182539Y-115658758D01*
X69203343Y-115590177D01*
X69208844Y-115534325D01*
X69210000Y-115522590D01*
X69210000Y-115522583D01*
X69212224Y-115500001D01*
X69210000Y-115477419D01*
X69210000Y-115240771D01*
X69599496Y-115240771D01*
X69635949Y-115429338D01*
X69708489Y-115607170D01*
X69713468Y-115616487D01*
X69819348Y-115723219D01*
X70392566Y-115150000D01*
X70757434Y-115150000D01*
X71330652Y-115723219D01*
X71436532Y-115616487D01*
X71510985Y-115439447D01*
X71549468Y-115251285D01*
X71550504Y-115059229D01*
X71514051Y-114870662D01*
X71441511Y-114692830D01*
X71436532Y-114683513D01*
X71330652Y-114576781D01*
X70757434Y-115150000D01*
X70392566Y-115150000D01*
X69819348Y-114576781D01*
X69713468Y-114683513D01*
X69639015Y-114860553D01*
X69600532Y-115048715D01*
X69599496Y-115240771D01*
X69210000Y-115240771D01*
X69210000Y-114394348D01*
X70001781Y-114394348D01*
X70575000Y-114967566D01*
X71148219Y-114394348D01*
X71041487Y-114288468D01*
X70864447Y-114214015D01*
X70676285Y-114175532D01*
X70484229Y-114174496D01*
X70295662Y-114210949D01*
X70117830Y-114283489D01*
X70108513Y-114288468D01*
X70001781Y-114394348D01*
X69210000Y-114394348D01*
X69210000Y-114190537D01*
X69440538Y-113960000D01*
X71254463Y-113960000D01*
X71997502Y-114703040D01*
X71955539Y-114804348D01*
X71910000Y-115033288D01*
X71910000Y-115266712D01*
X71955539Y-115495652D01*
X72044866Y-115711308D01*
X72174550Y-115905394D01*
X72339606Y-116070450D01*
X72533692Y-116200134D01*
X72749348Y-116289461D01*
X72978288Y-116335000D01*
X73211712Y-116335000D01*
X73440652Y-116289461D01*
X73656308Y-116200134D01*
X73850394Y-116070450D01*
X74015450Y-115905394D01*
X74145134Y-115711308D01*
X74234461Y-115495652D01*
X74280000Y-115266712D01*
X74280000Y-115033288D01*
X74470000Y-115033288D01*
X74470000Y-115266712D01*
X74515539Y-115495652D01*
X74604866Y-115711308D01*
X74734550Y-115905394D01*
X74899606Y-116070450D01*
X75093692Y-116200134D01*
X75309348Y-116289461D01*
X75538288Y-116335000D01*
X75771712Y-116335000D01*
X76000652Y-116289461D01*
X76216308Y-116200134D01*
X76410394Y-116070450D01*
X76575450Y-115905394D01*
X76705134Y-115711308D01*
X76794461Y-115495652D01*
X76840000Y-115266712D01*
X76840000Y-115033288D01*
X76794461Y-114804348D01*
X76715922Y-114614736D01*
X77876645Y-114614736D01*
X77876645Y-114885264D01*
X77929422Y-115150593D01*
X78032949Y-115400527D01*
X78183246Y-115625463D01*
X78374537Y-115816754D01*
X78599473Y-115967051D01*
X78849407Y-116070578D01*
X79114736Y-116123355D01*
X79385264Y-116123355D01*
X79650593Y-116070578D01*
X79900527Y-115967051D01*
X80125463Y-115816754D01*
X80316754Y-115625463D01*
X80467051Y-115400527D01*
X80570578Y-115150593D01*
X80623355Y-114885264D01*
X80623355Y-114614736D01*
X80570578Y-114349407D01*
X80467051Y-114099473D01*
X80316754Y-113874537D01*
X80125463Y-113683246D01*
X79900527Y-113532949D01*
X79650593Y-113429422D01*
X79385264Y-113376645D01*
X79114736Y-113376645D01*
X78849407Y-113429422D01*
X78599473Y-113532949D01*
X78374537Y-113683246D01*
X78183246Y-113874537D01*
X78032949Y-114099473D01*
X77929422Y-114349407D01*
X77876645Y-114614736D01*
X76715922Y-114614736D01*
X76705134Y-114588692D01*
X76575450Y-114394606D01*
X76410394Y-114229550D01*
X76216308Y-114099866D01*
X76000652Y-114010539D01*
X75771712Y-113965000D01*
X75538288Y-113965000D01*
X75309348Y-114010539D01*
X75093692Y-114099866D01*
X74899606Y-114229550D01*
X74734550Y-114394606D01*
X74604866Y-114588692D01*
X74515539Y-114804348D01*
X74470000Y-115033288D01*
X74280000Y-115033288D01*
X74234461Y-114804348D01*
X74145134Y-114588692D01*
X74015450Y-114394606D01*
X73850394Y-114229550D01*
X73656308Y-114099866D01*
X73440652Y-114010539D01*
X73211712Y-113965000D01*
X72978288Y-113965000D01*
X72749348Y-114010539D01*
X72648040Y-114052502D01*
X71786245Y-113190708D01*
X71771842Y-113173158D01*
X71701798Y-113115674D01*
X71691183Y-113110000D01*
X80232324Y-113110000D01*
X80250000Y-113111741D01*
X80267676Y-113110000D01*
X80320572Y-113104790D01*
X80388432Y-113084205D01*
X80450973Y-113050777D01*
X80505790Y-113005790D01*
X80550777Y-112950973D01*
X80584205Y-112888432D01*
X80604790Y-112820572D01*
X80611741Y-112750000D01*
X80610000Y-112732324D01*
X80610000Y-100767676D01*
X80611741Y-100750000D01*
X80604790Y-100679428D01*
X80584205Y-100611568D01*
X80550777Y-100549027D01*
X80505790Y-100494210D01*
X80450973Y-100449223D01*
X80388432Y-100415795D01*
X80320572Y-100395210D01*
X80267676Y-100390000D01*
X80250000Y-100388259D01*
X80232324Y-100390000D01*
X67267676Y-100390000D01*
X67250000Y-100388259D01*
X67232324Y-100390000D01*
X67179428Y-100395210D01*
X67111568Y-100415795D01*
X67049027Y-100449223D01*
X66994210Y-100494210D01*
X66949223Y-100549027D01*
X66915795Y-100611568D01*
X66895210Y-100679428D01*
X66888259Y-100750000D01*
X66890000Y-100767676D01*
X66890001Y-108126613D01*
X66848153Y-108098652D01*
X66714391Y-108043246D01*
X66572391Y-108015000D01*
X66427609Y-108015000D01*
X66285609Y-108043246D01*
X66151847Y-108098652D01*
X66031465Y-108179088D01*
X65929088Y-108281465D01*
X65848652Y-108401847D01*
X65793246Y-108535609D01*
X65765000Y-108677609D01*
X65765000Y-108822391D01*
X65793246Y-108964391D01*
X65848652Y-109098153D01*
X65929088Y-109218535D01*
X65975553Y-109265000D01*
X65927609Y-109265000D01*
X65785609Y-109293246D01*
X65651847Y-109348652D01*
X65531465Y-109429088D01*
X65429088Y-109531465D01*
X65348652Y-109651847D01*
X65293246Y-109785609D01*
X65265000Y-109927609D01*
X59960000Y-109927609D01*
X59960000Y-107427609D01*
X60765000Y-107427609D01*
X60765000Y-107572391D01*
X60793246Y-107714391D01*
X60848652Y-107848153D01*
X60929088Y-107968535D01*
X61031465Y-108070912D01*
X61151847Y-108151348D01*
X61285609Y-108206754D01*
X61427609Y-108235000D01*
X61572391Y-108235000D01*
X61714391Y-108206754D01*
X61848153Y-108151348D01*
X61968535Y-108070912D01*
X62070912Y-107968535D01*
X62151348Y-107848153D01*
X62206754Y-107714391D01*
X62235000Y-107572391D01*
X62235000Y-107427609D01*
X62206754Y-107285609D01*
X62151348Y-107151847D01*
X62070912Y-107031465D01*
X61968535Y-106929088D01*
X61960000Y-106923385D01*
X61960000Y-105690537D01*
X65417541Y-102232997D01*
X65427609Y-102235000D01*
X65572391Y-102235000D01*
X65714391Y-102206754D01*
X65848153Y-102151348D01*
X65968535Y-102070912D01*
X66070912Y-101968535D01*
X66151348Y-101848153D01*
X66206754Y-101714391D01*
X66235000Y-101572391D01*
X66235000Y-101427609D01*
X66206754Y-101285609D01*
X66151348Y-101151847D01*
X66070912Y-101031465D01*
X65968535Y-100929088D01*
X65848153Y-100848652D01*
X65714391Y-100793246D01*
X65572391Y-100765000D01*
X65427609Y-100765000D01*
X65285609Y-100793246D01*
X65151847Y-100848652D01*
X65031465Y-100929088D01*
X64929088Y-101031465D01*
X64848652Y-101151847D01*
X64793246Y-101285609D01*
X64765000Y-101427609D01*
X64765000Y-101572391D01*
X64767003Y-101582459D01*
X61190708Y-105158755D01*
X61173158Y-105173158D01*
X61115674Y-105243203D01*
X61072960Y-105323115D01*
X61046657Y-105409825D01*
X61040000Y-105477411D01*
X61040000Y-105477418D01*
X61037776Y-105500000D01*
X61040000Y-105522582D01*
X61040001Y-106923385D01*
X61031465Y-106929088D01*
X60929088Y-107031465D01*
X60848652Y-107151847D01*
X60793246Y-107285609D01*
X60765000Y-107427609D01*
X59960000Y-107427609D01*
X59960000Y-107076615D01*
X59968535Y-107070912D01*
X60070912Y-106968535D01*
X60151348Y-106848153D01*
X60206754Y-106714391D01*
X60235000Y-106572391D01*
X60235000Y-106427609D01*
X60206754Y-106285609D01*
X60151348Y-106151847D01*
X60070912Y-106031465D01*
X59968535Y-105929088D01*
X59848153Y-105848652D01*
X59714391Y-105793246D01*
X59572391Y-105765000D01*
X59427609Y-105765000D01*
X59285609Y-105793246D01*
X59151847Y-105848652D01*
X59150343Y-105849657D01*
X59151348Y-105848153D01*
X59206754Y-105714391D01*
X59235000Y-105572391D01*
X59235000Y-105427609D01*
X59206754Y-105285609D01*
X59151348Y-105151847D01*
X59070912Y-105031465D01*
X58968535Y-104929088D01*
X58848153Y-104848652D01*
X58714391Y-104793246D01*
X58572391Y-104765000D01*
X58427609Y-104765000D01*
X58285609Y-104793246D01*
X58151847Y-104848652D01*
X58031465Y-104929088D01*
X57929088Y-105031465D01*
X57848652Y-105151847D01*
X57793246Y-105285609D01*
X57765000Y-105427609D01*
X57765000Y-105572391D01*
X57793246Y-105714391D01*
X57821220Y-105781925D01*
X57820912Y-105781465D01*
X57718535Y-105679088D01*
X57598153Y-105598652D01*
X57464391Y-105543246D01*
X57322391Y-105515000D01*
X57177609Y-105515000D01*
X57035609Y-105543246D01*
X56901847Y-105598652D01*
X56781465Y-105679088D01*
X56679088Y-105781465D01*
X56598652Y-105901847D01*
X56543246Y-106035609D01*
X56515000Y-106177609D01*
X56515000Y-106322391D01*
X56543246Y-106464391D01*
X56598652Y-106598153D01*
X56679088Y-106718535D01*
X56781465Y-106820912D01*
X56790000Y-106826615D01*
X56790000Y-107250553D01*
X56718535Y-107179088D01*
X56598153Y-107098652D01*
X56464391Y-107043246D01*
X56322391Y-107015000D01*
X56177609Y-107015000D01*
X56035609Y-107043246D01*
X55985000Y-107064209D01*
X55985000Y-106927609D01*
X55956754Y-106785609D01*
X55901348Y-106651847D01*
X55820912Y-106531465D01*
X55718535Y-106429088D01*
X55598153Y-106348652D01*
X55464391Y-106293246D01*
X55322391Y-106265000D01*
X55177609Y-106265000D01*
X55035609Y-106293246D01*
X54901847Y-106348652D01*
X54781465Y-106429088D01*
X54679088Y-106531465D01*
X54598652Y-106651847D01*
X54543246Y-106785609D01*
X54515000Y-106927609D01*
X54515000Y-107072391D01*
X54543246Y-107214391D01*
X54598652Y-107348153D01*
X54679088Y-107468535D01*
X54781465Y-107570912D01*
X54790000Y-107576615D01*
X54790000Y-109324564D01*
X54714391Y-109293246D01*
X54572391Y-109265000D01*
X54427609Y-109265000D01*
X54285609Y-109293246D01*
X54151847Y-109348652D01*
X54031465Y-109429088D01*
X53929088Y-109531465D01*
X53848652Y-109651847D01*
X53793246Y-109785609D01*
X53765000Y-109927609D01*
X53765000Y-110072391D01*
X53793246Y-110214391D01*
X53848652Y-110348153D01*
X53929088Y-110468535D01*
X54031465Y-110570912D01*
X54040001Y-110576615D01*
X54040000Y-125292373D01*
X54035609Y-125293246D01*
X53901847Y-125348652D01*
X53781465Y-125429088D01*
X53679088Y-125531465D01*
X53598652Y-125651847D01*
X53543246Y-125785609D01*
X53515000Y-125927609D01*
X50460000Y-125927609D01*
X50460000Y-116177609D01*
X50765000Y-116177609D01*
X50765000Y-116322391D01*
X50793246Y-116464391D01*
X50848652Y-116598153D01*
X50929088Y-116718535D01*
X51031465Y-116820912D01*
X51040001Y-116826615D01*
X51040000Y-119923385D01*
X51031465Y-119929088D01*
X50929088Y-120031465D01*
X50848652Y-120151847D01*
X50793246Y-120285609D01*
X50765000Y-120427609D01*
X50765000Y-120572391D01*
X50793246Y-120714391D01*
X50848652Y-120848153D01*
X50929088Y-120968535D01*
X51031465Y-121070912D01*
X51151847Y-121151348D01*
X51285609Y-121206754D01*
X51427609Y-121235000D01*
X51572391Y-121235000D01*
X51714391Y-121206754D01*
X51848153Y-121151348D01*
X51968535Y-121070912D01*
X52070912Y-120968535D01*
X52151348Y-120848153D01*
X52206754Y-120714391D01*
X52235000Y-120572391D01*
X52235000Y-120427609D01*
X52206754Y-120285609D01*
X52151348Y-120151847D01*
X52070912Y-120031465D01*
X51968535Y-119929088D01*
X51960000Y-119923385D01*
X51960000Y-116826615D01*
X51968535Y-116820912D01*
X52070912Y-116718535D01*
X52151348Y-116598153D01*
X52206754Y-116464391D01*
X52235000Y-116322391D01*
X52235000Y-116177609D01*
X52206754Y-116035609D01*
X52151348Y-115901847D01*
X52070912Y-115781465D01*
X51968535Y-115679088D01*
X51848153Y-115598652D01*
X51714391Y-115543246D01*
X51572391Y-115515000D01*
X51427609Y-115515000D01*
X51285609Y-115543246D01*
X51151847Y-115598652D01*
X51031465Y-115679088D01*
X50929088Y-115781465D01*
X50848652Y-115901847D01*
X50793246Y-116035609D01*
X50765000Y-116177609D01*
X50460000Y-116177609D01*
X50460000Y-114927609D01*
X52265000Y-114927609D01*
X52265000Y-115072391D01*
X52293246Y-115214391D01*
X52348652Y-115348153D01*
X52429088Y-115468535D01*
X52531465Y-115570912D01*
X52540001Y-115576615D01*
X52540000Y-121423385D01*
X52531465Y-121429088D01*
X52429088Y-121531465D01*
X52348652Y-121651847D01*
X52293246Y-121785609D01*
X52265000Y-121927609D01*
X52265000Y-122072391D01*
X52293246Y-122214391D01*
X52348652Y-122348153D01*
X52429088Y-122468535D01*
X52531465Y-122570912D01*
X52651847Y-122651348D01*
X52785609Y-122706754D01*
X52927609Y-122735000D01*
X53072391Y-122735000D01*
X53214391Y-122706754D01*
X53348153Y-122651348D01*
X53468535Y-122570912D01*
X53570912Y-122468535D01*
X53651348Y-122348153D01*
X53706754Y-122214391D01*
X53735000Y-122072391D01*
X53735000Y-121927609D01*
X53706754Y-121785609D01*
X53651348Y-121651847D01*
X53570912Y-121531465D01*
X53468535Y-121429088D01*
X53460000Y-121423385D01*
X53460000Y-115576615D01*
X53468535Y-115570912D01*
X53570912Y-115468535D01*
X53651348Y-115348153D01*
X53706754Y-115214391D01*
X53735000Y-115072391D01*
X53735000Y-114927609D01*
X53706754Y-114785609D01*
X53651348Y-114651847D01*
X53570912Y-114531465D01*
X53468535Y-114429088D01*
X53348153Y-114348652D01*
X53214391Y-114293246D01*
X53072391Y-114265000D01*
X52927609Y-114265000D01*
X52785609Y-114293246D01*
X52651847Y-114348652D01*
X52531465Y-114429088D01*
X52429088Y-114531465D01*
X52348652Y-114651847D01*
X52293246Y-114785609D01*
X52265000Y-114927609D01*
X50460000Y-114927609D01*
X50460000Y-107485000D01*
X50572391Y-107485000D01*
X50714391Y-107456754D01*
X50848153Y-107401348D01*
X50968535Y-107320912D01*
X51070912Y-107218535D01*
X51151348Y-107098153D01*
X51206754Y-106964391D01*
X51235000Y-106822391D01*
X51235000Y-106677609D01*
X51206754Y-106535609D01*
X51151348Y-106401847D01*
X51070912Y-106281465D01*
X50968535Y-106179088D01*
X50848153Y-106098652D01*
X50714391Y-106043246D01*
X50572391Y-106015000D01*
X50427609Y-106015000D01*
X50285609Y-106043246D01*
X50151847Y-106098652D01*
X50031465Y-106179088D01*
X49929088Y-106281465D01*
X49848652Y-106401847D01*
X49793246Y-106535609D01*
X49765000Y-106677609D01*
X49765000Y-106822391D01*
X49767003Y-106832460D01*
X49690708Y-106908755D01*
X49673158Y-106923158D01*
X49615674Y-106993203D01*
X49572960Y-107073115D01*
X49546657Y-107159825D01*
X49540000Y-107227411D01*
X49540000Y-107227418D01*
X49537776Y-107250000D01*
X49540000Y-107272582D01*
X49540000Y-113574564D01*
X49464391Y-113543246D01*
X49322391Y-113515000D01*
X49177609Y-113515000D01*
X49035609Y-113543246D01*
X48960000Y-113574564D01*
X48960000Y-108522582D01*
X48962224Y-108500000D01*
X48960000Y-108477418D01*
X48960000Y-108477410D01*
X48953343Y-108409824D01*
X48927040Y-108323114D01*
X48884326Y-108243202D01*
X48826842Y-108173158D01*
X48809297Y-108158759D01*
X48537158Y-107886620D01*
X48800000Y-107886620D01*
X48865671Y-107880152D01*
X48928819Y-107860996D01*
X48987016Y-107829889D01*
X49038026Y-107788026D01*
X49079889Y-107737016D01*
X49110996Y-107678819D01*
X49130152Y-107615671D01*
X49136620Y-107550000D01*
X49136620Y-104950000D01*
X49130152Y-104884329D01*
X49110996Y-104821181D01*
X49079889Y-104762984D01*
X49038026Y-104711974D01*
X48987016Y-104670111D01*
X48928819Y-104639004D01*
X48865671Y-104619848D01*
X48800000Y-104613380D01*
X46200000Y-104613380D01*
X46134329Y-104619848D01*
X46071181Y-104639004D01*
X46012984Y-104670111D01*
X45961974Y-104711974D01*
X45920111Y-104762984D01*
X45889004Y-104821181D01*
X45869848Y-104884329D01*
X45863380Y-104950000D01*
X45863380Y-107550000D01*
X45869848Y-107615671D01*
X45889004Y-107678819D01*
X45920111Y-107737016D01*
X45961974Y-107788026D01*
X46012984Y-107829889D01*
X46071181Y-107860996D01*
X46134329Y-107880152D01*
X46200000Y-107886620D01*
X47236083Y-107886620D01*
X48040001Y-108690539D01*
X48040000Y-113500553D01*
X47968535Y-113429088D01*
X47848153Y-113348652D01*
X47714391Y-113293246D01*
X47572391Y-113265000D01*
X47427609Y-113265000D01*
X47285609Y-113293246D01*
X47151847Y-113348652D01*
X47031465Y-113429088D01*
X46929088Y-113531465D01*
X46919579Y-113545696D01*
X46909824Y-113546657D01*
X46823114Y-113572960D01*
X46743202Y-113615674D01*
X46673158Y-113673158D01*
X46658759Y-113690703D01*
X44582460Y-115767003D01*
X44572391Y-115765000D01*
X44427609Y-115765000D01*
X44285609Y-115793246D01*
X44210000Y-115824564D01*
X44210000Y-108826615D01*
X44218535Y-108820912D01*
X44320912Y-108718535D01*
X44401348Y-108598153D01*
X44456754Y-108464391D01*
X44485000Y-108322391D01*
X44485000Y-108177609D01*
X44456754Y-108035609D01*
X44401348Y-107901847D01*
X44320912Y-107781465D01*
X44218535Y-107679088D01*
X44204304Y-107669579D01*
X44203343Y-107659824D01*
X44177040Y-107573114D01*
X44134326Y-107493202D01*
X44076842Y-107423158D01*
X44006798Y-107365674D01*
X43926886Y-107322960D01*
X43840176Y-107296657D01*
X43750000Y-107287775D01*
X43659825Y-107296657D01*
X43573115Y-107322960D01*
X43493203Y-107365674D01*
X43423159Y-107423158D01*
X43365675Y-107493202D01*
X43322961Y-107573114D01*
X43296658Y-107659824D01*
X43295697Y-107669578D01*
X43281465Y-107679088D01*
X43179088Y-107781465D01*
X43098652Y-107901847D01*
X43043246Y-108035609D01*
X43015000Y-108177609D01*
X43015000Y-108322391D01*
X43043246Y-108464391D01*
X43098652Y-108598153D01*
X43179088Y-108718535D01*
X43281465Y-108820912D01*
X43290001Y-108826615D01*
X43290000Y-117173385D01*
X43281465Y-117179088D01*
X43179088Y-117281465D01*
X43125000Y-117362414D01*
X43070912Y-117281465D01*
X42968535Y-117179088D01*
X42960000Y-117173385D01*
X42960000Y-109826615D01*
X42968535Y-109820912D01*
X43070912Y-109718535D01*
X43151348Y-109598153D01*
X43206754Y-109464391D01*
X43235000Y-109322391D01*
X43235000Y-109177609D01*
X43206754Y-109035609D01*
X43151348Y-108901847D01*
X43070912Y-108781465D01*
X42968535Y-108679088D01*
X42848153Y-108598652D01*
X42714391Y-108543246D01*
X42572391Y-108515000D01*
X42427609Y-108515000D01*
X42285609Y-108543246D01*
X42151847Y-108598652D01*
X42031465Y-108679088D01*
X41929088Y-108781465D01*
X41848652Y-108901847D01*
X41793246Y-109035609D01*
X41765000Y-109177609D01*
X38460000Y-109177609D01*
X38460000Y-107327413D01*
X41605021Y-107327413D01*
X41766139Y-107479541D01*
X42020111Y-107599085D01*
X42292526Y-107666785D01*
X42572913Y-107680038D01*
X42850499Y-107638336D01*
X43114616Y-107543280D01*
X43233861Y-107479541D01*
X43394979Y-107327413D01*
X42500000Y-106432434D01*
X41605021Y-107327413D01*
X38460000Y-107327413D01*
X38460000Y-106322913D01*
X41069962Y-106322913D01*
X41111664Y-106600499D01*
X41206720Y-106864616D01*
X41270459Y-106983861D01*
X41422587Y-107144979D01*
X42317566Y-106250000D01*
X42682434Y-106250000D01*
X43577413Y-107144979D01*
X43729541Y-106983861D01*
X43849085Y-106729889D01*
X43916785Y-106457474D01*
X43930038Y-106177087D01*
X43888336Y-105899501D01*
X43793280Y-105635384D01*
X43729541Y-105516139D01*
X43577413Y-105355021D01*
X42682434Y-106250000D01*
X42317566Y-106250000D01*
X41422587Y-105355021D01*
X41270459Y-105516139D01*
X41150915Y-105770111D01*
X41083215Y-106042526D01*
X41069962Y-106322913D01*
X38460000Y-106322913D01*
X38460000Y-105172587D01*
X41605021Y-105172587D01*
X42500000Y-106067566D01*
X43394979Y-105172587D01*
X43233861Y-105020459D01*
X42979889Y-104900915D01*
X42707474Y-104833215D01*
X42427087Y-104819962D01*
X42149501Y-104861664D01*
X41885384Y-104956720D01*
X41766139Y-105020459D01*
X41605021Y-105172587D01*
X38460000Y-105172587D01*
X38460000Y-102022582D01*
X38462224Y-102000000D01*
X38460000Y-101977418D01*
X38460000Y-101977410D01*
X38453343Y-101909824D01*
X38427040Y-101823114D01*
X38384326Y-101743202D01*
X38326842Y-101673158D01*
X38309298Y-101658760D01*
X38232997Y-101582459D01*
X38235000Y-101572391D01*
X38235000Y-101427609D01*
X38206754Y-101285609D01*
X38151348Y-101151847D01*
X38070912Y-101031465D01*
X37968535Y-100929088D01*
X37848153Y-100848652D01*
X37714391Y-100793246D01*
X37572391Y-100765000D01*
X37427609Y-100765000D01*
X37285609Y-100793246D01*
X37151847Y-100848652D01*
X37031465Y-100929088D01*
X36929088Y-101031465D01*
X36848652Y-101151847D01*
X36793246Y-101285609D01*
X36765000Y-101427609D01*
X36765000Y-101572391D01*
X36793246Y-101714391D01*
X36848652Y-101848153D01*
X36929088Y-101968535D01*
X37031465Y-102070912D01*
X37151847Y-102151348D01*
X37285609Y-102206754D01*
X37427609Y-102235000D01*
X37540000Y-102235000D01*
X37540001Y-115423385D01*
X37531465Y-115429088D01*
X37429088Y-115531465D01*
X37348652Y-115651847D01*
X37293246Y-115785609D01*
X37265000Y-115927609D01*
X37265000Y-116072391D01*
X37267003Y-116082459D01*
X35690703Y-117658760D01*
X35673159Y-117673158D01*
X35615675Y-117743202D01*
X35608408Y-117756798D01*
X35572960Y-117823115D01*
X35546657Y-117909825D01*
X35537776Y-118000000D01*
X35540001Y-118022592D01*
X35540000Y-122265000D01*
X35427609Y-122265000D01*
X35285609Y-122293246D01*
X35151847Y-122348652D01*
X35031465Y-122429088D01*
X34929088Y-122531465D01*
X34848652Y-122651847D01*
X34793246Y-122785609D01*
X34765000Y-122927609D01*
X19935000Y-122927609D01*
X19935000Y-101114736D01*
X20376645Y-101114736D01*
X20376645Y-101385264D01*
X20429422Y-101650593D01*
X20532949Y-101900527D01*
X20683246Y-102125463D01*
X20874537Y-102316754D01*
X21099473Y-102467051D01*
X21349407Y-102570578D01*
X21614736Y-102623355D01*
X21885264Y-102623355D01*
X22150593Y-102570578D01*
X22400527Y-102467051D01*
X22625463Y-102316754D01*
X22816754Y-102125463D01*
X22967051Y-101900527D01*
X23070578Y-101650593D01*
X23123355Y-101385264D01*
X23123355Y-101114736D01*
X23070578Y-100849407D01*
X22967051Y-100599473D01*
X22816754Y-100374537D01*
X22625463Y-100183246D01*
X22400527Y-100032949D01*
X22150593Y-99929422D01*
X21885264Y-99876645D01*
X21614736Y-99876645D01*
X21349407Y-99929422D01*
X21099473Y-100032949D01*
X20874537Y-100183246D01*
X20683246Y-100374537D01*
X20532949Y-100599473D01*
X20429422Y-100849407D01*
X20376645Y-101114736D01*
X19935000Y-101114736D01*
X19935000Y-99435000D01*
X81565000Y-99435000D01*
X81565001Y-139565000D01*
%TA.AperFunction,Conductor*%
D19*
G36*
X81565001Y-139565000D02*
G01*
X19935000Y-139565000D01*
X19935000Y-136864736D01*
X21126645Y-136864736D01*
X21126645Y-137135264D01*
X21179422Y-137400593D01*
X21282949Y-137650527D01*
X21433246Y-137875463D01*
X21624537Y-138066754D01*
X21849473Y-138217051D01*
X22099407Y-138320578D01*
X22364736Y-138373355D01*
X22635264Y-138373355D01*
X22900593Y-138320578D01*
X23150527Y-138217051D01*
X23375463Y-138066754D01*
X23566754Y-137875463D01*
X23698955Y-137677609D01*
X35015000Y-137677609D01*
X35015000Y-137822391D01*
X35043246Y-137964391D01*
X35098652Y-138098153D01*
X35179088Y-138218535D01*
X35281465Y-138320912D01*
X35401847Y-138401348D01*
X35535609Y-138456754D01*
X35677609Y-138485000D01*
X35822391Y-138485000D01*
X35964391Y-138456754D01*
X36098153Y-138401348D01*
X36218535Y-138320912D01*
X36320912Y-138218535D01*
X36401348Y-138098153D01*
X36456754Y-137964391D01*
X36485000Y-137822391D01*
X36485000Y-137677609D01*
X36482997Y-137667540D01*
X37559299Y-136591239D01*
X37576842Y-136576842D01*
X37634326Y-136506798D01*
X37677040Y-136426886D01*
X37703343Y-136340176D01*
X37710000Y-136272590D01*
X37710000Y-136272581D01*
X37712224Y-136250001D01*
X37710000Y-136227421D01*
X37710000Y-129772582D01*
X37712224Y-129750000D01*
X37710000Y-129727418D01*
X37710000Y-129727410D01*
X37703343Y-129659824D01*
X37677040Y-129573114D01*
X37634326Y-129493202D01*
X37576842Y-129423158D01*
X37559297Y-129408759D01*
X36732997Y-128582460D01*
X36735000Y-128572391D01*
X36735000Y-128427609D01*
X39515000Y-128427609D01*
X39515000Y-128572391D01*
X39543246Y-128714391D01*
X39598652Y-128848153D01*
X39679088Y-128968535D01*
X39781465Y-129070912D01*
X39790000Y-129076615D01*
X39790001Y-133673385D01*
X39781465Y-133679088D01*
X39679088Y-133781465D01*
X39598652Y-133901847D01*
X39543246Y-134035609D01*
X39515000Y-134177609D01*
X39515000Y-134322391D01*
X39543246Y-134464391D01*
X39598652Y-134598153D01*
X39679088Y-134718535D01*
X39781465Y-134820912D01*
X39901847Y-134901348D01*
X40035609Y-134956754D01*
X40177609Y-134985000D01*
X40322391Y-134985000D01*
X40464391Y-134956754D01*
X40598153Y-134901348D01*
X40617812Y-134888212D01*
X47365000Y-134888212D01*
X47365000Y-135111788D01*
X47408617Y-135331067D01*
X47494176Y-135537624D01*
X47618388Y-135723520D01*
X47776480Y-135881612D01*
X47962376Y-136005824D01*
X48168933Y-136091383D01*
X48388212Y-136135000D01*
X48611788Y-136135000D01*
X48831067Y-136091383D01*
X49037624Y-136005824D01*
X49223520Y-135881612D01*
X49381612Y-135723520D01*
X49505824Y-135537624D01*
X49591383Y-135331067D01*
X49635000Y-135111788D01*
X49635000Y-134888212D01*
X49865000Y-134888212D01*
X49865000Y-135111788D01*
X49908617Y-135331067D01*
X49994176Y-135537624D01*
X50118388Y-135723520D01*
X50276480Y-135881612D01*
X50462376Y-136005824D01*
X50668933Y-136091383D01*
X50888212Y-136135000D01*
X51111788Y-136135000D01*
X51331067Y-136091383D01*
X51537624Y-136005824D01*
X51723520Y-135881612D01*
X51881612Y-135723520D01*
X52005824Y-135537624D01*
X52091383Y-135331067D01*
X52135000Y-135111788D01*
X52135000Y-134888212D01*
X52365000Y-134888212D01*
X52365000Y-135111788D01*
X52408617Y-135331067D01*
X52494176Y-135537624D01*
X52618388Y-135723520D01*
X52776480Y-135881612D01*
X52962376Y-136005824D01*
X53168933Y-136091383D01*
X53388212Y-136135000D01*
X53611788Y-136135000D01*
X53831067Y-136091383D01*
X54037624Y-136005824D01*
X54223520Y-135881612D01*
X54381612Y-135723520D01*
X54505824Y-135537624D01*
X54591383Y-135331067D01*
X54635000Y-135111788D01*
X54635000Y-134888212D01*
X54591383Y-134668933D01*
X54505824Y-134462376D01*
X54381612Y-134276480D01*
X54223520Y-134118388D01*
X54037624Y-133994176D01*
X53831067Y-133908617D01*
X53611788Y-133865000D01*
X53388212Y-133865000D01*
X53168933Y-133908617D01*
X52962376Y-133994176D01*
X52776480Y-134118388D01*
X52618388Y-134276480D01*
X52494176Y-134462376D01*
X52408617Y-134668933D01*
X52365000Y-134888212D01*
X52135000Y-134888212D01*
X52091383Y-134668933D01*
X52005824Y-134462376D01*
X51881612Y-134276480D01*
X51723520Y-134118388D01*
X51537624Y-133994176D01*
X51331067Y-133908617D01*
X51111788Y-133865000D01*
X50888212Y-133865000D01*
X50668933Y-133908617D01*
X50462376Y-133994176D01*
X50276480Y-134118388D01*
X50118388Y-134276480D01*
X49994176Y-134462376D01*
X49908617Y-134668933D01*
X49865000Y-134888212D01*
X49635000Y-134888212D01*
X49591383Y-134668933D01*
X49505824Y-134462376D01*
X49381612Y-134276480D01*
X49223520Y-134118388D01*
X49037624Y-133994176D01*
X48831067Y-133908617D01*
X48611788Y-133865000D01*
X48388212Y-133865000D01*
X48168933Y-133908617D01*
X47962376Y-133994176D01*
X47776480Y-134118388D01*
X47618388Y-134276480D01*
X47494176Y-134462376D01*
X47408617Y-134668933D01*
X47365000Y-134888212D01*
X40617812Y-134888212D01*
X40718535Y-134820912D01*
X40820912Y-134718535D01*
X40901348Y-134598153D01*
X40956754Y-134464391D01*
X40985000Y-134322391D01*
X40985000Y-134177609D01*
X40956754Y-134035609D01*
X40901348Y-133901847D01*
X40820912Y-133781465D01*
X40718535Y-133679088D01*
X40710000Y-133673385D01*
X40710000Y-133219774D01*
X45462660Y-133219774D01*
X45563318Y-133320509D01*
X45731782Y-133389936D01*
X45910554Y-133425163D01*
X46092763Y-133424836D01*
X46271407Y-133388968D01*
X46436682Y-133320509D01*
X46537340Y-133219774D01*
X46000000Y-132682434D01*
X45462660Y-133219774D01*
X40710000Y-133219774D01*
X40710000Y-132410554D01*
X45074837Y-132410554D01*
X45075164Y-132592763D01*
X45111032Y-132771407D01*
X45179491Y-132936682D01*
X45280226Y-133037340D01*
X45817566Y-132500000D01*
X46182434Y-132500000D01*
X46719774Y-133037340D01*
X46820509Y-132936682D01*
X46889936Y-132768218D01*
X46925163Y-132589446D01*
X46924836Y-132407237D01*
X46888968Y-132228593D01*
X46820509Y-132063318D01*
X46719774Y-131962660D01*
X46182434Y-132500000D01*
X45817566Y-132500000D01*
X45280226Y-131962660D01*
X45179491Y-132063318D01*
X45110064Y-132231782D01*
X45074837Y-132410554D01*
X40710000Y-132410554D01*
X40710000Y-131780226D01*
X45462660Y-131780226D01*
X46000000Y-132317566D01*
X46537340Y-131780226D01*
X46457176Y-131700000D01*
X54863380Y-131700000D01*
X54863380Y-133300000D01*
X54869848Y-133365671D01*
X54889004Y-133428819D01*
X54920111Y-133487016D01*
X54961974Y-133538026D01*
X55012984Y-133579889D01*
X55071181Y-133610996D01*
X55134329Y-133630152D01*
X55200000Y-133636620D01*
X56800000Y-133636620D01*
X56865671Y-133630152D01*
X56928819Y-133610996D01*
X56987016Y-133579889D01*
X57038026Y-133538026D01*
X57079889Y-133487016D01*
X57110996Y-133428819D01*
X57130152Y-133365671D01*
X57136620Y-133300000D01*
X57136620Y-131700000D01*
X57130152Y-131634329D01*
X57110996Y-131571181D01*
X57079889Y-131512984D01*
X57038026Y-131461974D01*
X56987016Y-131420111D01*
X56928819Y-131389004D01*
X56865671Y-131369848D01*
X56800000Y-131363380D01*
X55200000Y-131363380D01*
X55134329Y-131369848D01*
X55071181Y-131389004D01*
X55012984Y-131420111D01*
X54961974Y-131461974D01*
X54920111Y-131512984D01*
X54889004Y-131571181D01*
X54869848Y-131634329D01*
X54863380Y-131700000D01*
X46457176Y-131700000D01*
X46436682Y-131679491D01*
X46268218Y-131610064D01*
X46089446Y-131574837D01*
X45907237Y-131575164D01*
X45728593Y-131611032D01*
X45563318Y-131679491D01*
X45462660Y-131780226D01*
X40710000Y-131780226D01*
X40710000Y-130719774D01*
X47962660Y-130719774D01*
X48063318Y-130820509D01*
X48231782Y-130889936D01*
X48410554Y-130925163D01*
X48592763Y-130924836D01*
X48771407Y-130888968D01*
X48936682Y-130820509D01*
X49037340Y-130719774D01*
X48500000Y-130182434D01*
X47962660Y-130719774D01*
X40710000Y-130719774D01*
X40710000Y-129910554D01*
X47574837Y-129910554D01*
X47575164Y-130092763D01*
X47611032Y-130271407D01*
X47679491Y-130436682D01*
X47780226Y-130537340D01*
X48317566Y-130000000D01*
X48682434Y-130000000D01*
X49219774Y-130537340D01*
X49320509Y-130436682D01*
X49389936Y-130268218D01*
X49425163Y-130089446D01*
X49424836Y-129907237D01*
X49388968Y-129728593D01*
X49320509Y-129563318D01*
X49219774Y-129462660D01*
X48682434Y-130000000D01*
X48317566Y-130000000D01*
X47780226Y-129462660D01*
X47679491Y-129563318D01*
X47610064Y-129731782D01*
X47574837Y-129910554D01*
X40710000Y-129910554D01*
X40710000Y-129280226D01*
X47962660Y-129280226D01*
X48500000Y-129817566D01*
X49037340Y-129280226D01*
X48936682Y-129179491D01*
X48768218Y-129110064D01*
X48589446Y-129074837D01*
X48407237Y-129075164D01*
X48228593Y-129111032D01*
X48063318Y-129179491D01*
X47962660Y-129280226D01*
X40710000Y-129280226D01*
X40710000Y-129076615D01*
X40718535Y-129070912D01*
X40820912Y-128968535D01*
X40901348Y-128848153D01*
X40956754Y-128714391D01*
X40985000Y-128572391D01*
X40985000Y-128427609D01*
X40956754Y-128285609D01*
X40901348Y-128151847D01*
X40820912Y-128031465D01*
X40718535Y-127929088D01*
X40598153Y-127848652D01*
X40464391Y-127793246D01*
X40322391Y-127765000D01*
X40177609Y-127765000D01*
X40035609Y-127793246D01*
X39901847Y-127848652D01*
X39781465Y-127929088D01*
X39679088Y-128031465D01*
X39598652Y-128151847D01*
X39543246Y-128285609D01*
X39515000Y-128427609D01*
X36735000Y-128427609D01*
X36706754Y-128285609D01*
X36651348Y-128151847D01*
X36570912Y-128031465D01*
X36468535Y-127929088D01*
X36348153Y-127848652D01*
X36214391Y-127793246D01*
X36072391Y-127765000D01*
X35927609Y-127765000D01*
X35785609Y-127793246D01*
X35651847Y-127848652D01*
X35531465Y-127929088D01*
X35429088Y-128031465D01*
X35348652Y-128151847D01*
X35293246Y-128285609D01*
X35265000Y-128427609D01*
X35265000Y-128572391D01*
X35293246Y-128714391D01*
X35348652Y-128848153D01*
X35429088Y-128968535D01*
X35531465Y-129070912D01*
X35651847Y-129151348D01*
X35785609Y-129206754D01*
X35927609Y-129235000D01*
X36072391Y-129235000D01*
X36082460Y-129232997D01*
X36790001Y-129940539D01*
X36790000Y-136059462D01*
X35832460Y-137017003D01*
X35822391Y-137015000D01*
X35677609Y-137015000D01*
X35535609Y-137043246D01*
X35401847Y-137098652D01*
X35281465Y-137179088D01*
X35179088Y-137281465D01*
X35098652Y-137401847D01*
X35043246Y-137535609D01*
X35015000Y-137677609D01*
X23698955Y-137677609D01*
X23717051Y-137650527D01*
X23820578Y-137400593D01*
X23873355Y-137135264D01*
X23873355Y-136864736D01*
X23820578Y-136599407D01*
X23717051Y-136349473D01*
X23566754Y-136124537D01*
X23375463Y-135933246D01*
X23150527Y-135782949D01*
X22900593Y-135679422D01*
X22635264Y-135626645D01*
X22364736Y-135626645D01*
X22099407Y-135679422D01*
X21849473Y-135782949D01*
X21624537Y-135933246D01*
X21433246Y-136124537D01*
X21282949Y-136349473D01*
X21179422Y-136599407D01*
X21126645Y-136864736D01*
X19935000Y-136864736D01*
X19935000Y-134888212D01*
X26865000Y-134888212D01*
X26865000Y-135111788D01*
X26908617Y-135331067D01*
X26994176Y-135537624D01*
X27118388Y-135723520D01*
X27276480Y-135881612D01*
X27462376Y-136005824D01*
X27668933Y-136091383D01*
X27888212Y-136135000D01*
X28111788Y-136135000D01*
X28331067Y-136091383D01*
X28537624Y-136005824D01*
X28723520Y-135881612D01*
X28881612Y-135723520D01*
X29005824Y-135537624D01*
X29091383Y-135331067D01*
X29135000Y-135111788D01*
X29135000Y-134888212D01*
X29365000Y-134888212D01*
X29365000Y-135111788D01*
X29408617Y-135331067D01*
X29494176Y-135537624D01*
X29618388Y-135723520D01*
X29776480Y-135881612D01*
X29962376Y-136005824D01*
X30168933Y-136091383D01*
X30388212Y-136135000D01*
X30611788Y-136135000D01*
X30831067Y-136091383D01*
X31037624Y-136005824D01*
X31223520Y-135881612D01*
X31381612Y-135723520D01*
X31505824Y-135537624D01*
X31591383Y-135331067D01*
X31635000Y-135111788D01*
X31635000Y-134888212D01*
X31865000Y-134888212D01*
X31865000Y-135111788D01*
X31908617Y-135331067D01*
X31994176Y-135537624D01*
X32118388Y-135723520D01*
X32276480Y-135881612D01*
X32462376Y-136005824D01*
X32668933Y-136091383D01*
X32888212Y-136135000D01*
X33111788Y-136135000D01*
X33331067Y-136091383D01*
X33537624Y-136005824D01*
X33723520Y-135881612D01*
X33881612Y-135723520D01*
X34005824Y-135537624D01*
X34091383Y-135331067D01*
X34135000Y-135111788D01*
X34135000Y-134888212D01*
X34091383Y-134668933D01*
X34005824Y-134462376D01*
X33881612Y-134276480D01*
X33723520Y-134118388D01*
X33537624Y-133994176D01*
X33331067Y-133908617D01*
X33111788Y-133865000D01*
X32888212Y-133865000D01*
X32668933Y-133908617D01*
X32462376Y-133994176D01*
X32276480Y-134118388D01*
X32118388Y-134276480D01*
X31994176Y-134462376D01*
X31908617Y-134668933D01*
X31865000Y-134888212D01*
X31635000Y-134888212D01*
X31591383Y-134668933D01*
X31505824Y-134462376D01*
X31381612Y-134276480D01*
X31223520Y-134118388D01*
X31037624Y-133994176D01*
X30831067Y-133908617D01*
X30611788Y-133865000D01*
X30388212Y-133865000D01*
X30168933Y-133908617D01*
X29962376Y-133994176D01*
X29776480Y-134118388D01*
X29618388Y-134276480D01*
X29494176Y-134462376D01*
X29408617Y-134668933D01*
X29365000Y-134888212D01*
X29135000Y-134888212D01*
X29091383Y-134668933D01*
X29005824Y-134462376D01*
X28881612Y-134276480D01*
X28723520Y-134118388D01*
X28537624Y-133994176D01*
X28331067Y-133908617D01*
X28111788Y-133865000D01*
X27888212Y-133865000D01*
X27668933Y-133908617D01*
X27462376Y-133994176D01*
X27276480Y-134118388D01*
X27118388Y-134276480D01*
X26994176Y-134462376D01*
X26908617Y-134668933D01*
X26865000Y-134888212D01*
X19935000Y-134888212D01*
X19935000Y-133219774D01*
X24962660Y-133219774D01*
X25063318Y-133320509D01*
X25231782Y-133389936D01*
X25410554Y-133425163D01*
X25592763Y-133424836D01*
X25771407Y-133388968D01*
X25936682Y-133320509D01*
X26037340Y-133219774D01*
X25500000Y-132682434D01*
X24962660Y-133219774D01*
X19935000Y-133219774D01*
X19935000Y-132410554D01*
X24574837Y-132410554D01*
X24575164Y-132592763D01*
X24611032Y-132771407D01*
X24679491Y-132936682D01*
X24780226Y-133037340D01*
X25317566Y-132500000D01*
X25682434Y-132500000D01*
X26219774Y-133037340D01*
X26320509Y-132936682D01*
X26389936Y-132768218D01*
X26425163Y-132589446D01*
X26424836Y-132407237D01*
X26388968Y-132228593D01*
X26320509Y-132063318D01*
X26219774Y-131962660D01*
X25682434Y-132500000D01*
X25317566Y-132500000D01*
X24780226Y-131962660D01*
X24679491Y-132063318D01*
X24610064Y-132231782D01*
X24574837Y-132410554D01*
X19935000Y-132410554D01*
X19935000Y-131780226D01*
X24962660Y-131780226D01*
X25500000Y-132317566D01*
X26037340Y-131780226D01*
X25957176Y-131700000D01*
X34363380Y-131700000D01*
X34363380Y-133300000D01*
X34369848Y-133365671D01*
X34389004Y-133428819D01*
X34420111Y-133487016D01*
X34461974Y-133538026D01*
X34512984Y-133579889D01*
X34571181Y-133610996D01*
X34634329Y-133630152D01*
X34700000Y-133636620D01*
X36300000Y-133636620D01*
X36365671Y-133630152D01*
X36428819Y-133610996D01*
X36487016Y-133579889D01*
X36538026Y-133538026D01*
X36579889Y-133487016D01*
X36610996Y-133428819D01*
X36630152Y-133365671D01*
X36636620Y-133300000D01*
X36636620Y-131700000D01*
X36630152Y-131634329D01*
X36610996Y-131571181D01*
X36579889Y-131512984D01*
X36538026Y-131461974D01*
X36487016Y-131420111D01*
X36428819Y-131389004D01*
X36365671Y-131369848D01*
X36300000Y-131363380D01*
X34700000Y-131363380D01*
X34634329Y-131369848D01*
X34571181Y-131389004D01*
X34512984Y-131420111D01*
X34461974Y-131461974D01*
X34420111Y-131512984D01*
X34389004Y-131571181D01*
X34369848Y-131634329D01*
X34363380Y-131700000D01*
X25957176Y-131700000D01*
X25936682Y-131679491D01*
X25768218Y-131610064D01*
X25589446Y-131574837D01*
X25407237Y-131575164D01*
X25228593Y-131611032D01*
X25063318Y-131679491D01*
X24962660Y-131780226D01*
X19935000Y-131780226D01*
X19935000Y-130719774D01*
X27462660Y-130719774D01*
X27563318Y-130820509D01*
X27731782Y-130889936D01*
X27910554Y-130925163D01*
X28092763Y-130924836D01*
X28271407Y-130888968D01*
X28436682Y-130820509D01*
X28537340Y-130719774D01*
X28000000Y-130182434D01*
X27462660Y-130719774D01*
X19935000Y-130719774D01*
X19935000Y-129910554D01*
X27074837Y-129910554D01*
X27075164Y-130092763D01*
X27111032Y-130271407D01*
X27179491Y-130436682D01*
X27280226Y-130537340D01*
X27817566Y-130000000D01*
X28182434Y-130000000D01*
X28719774Y-130537340D01*
X28820509Y-130436682D01*
X28889936Y-130268218D01*
X28925163Y-130089446D01*
X28924836Y-129907237D01*
X28921017Y-129888212D01*
X29365000Y-129888212D01*
X29365000Y-130111788D01*
X29408617Y-130331067D01*
X29494176Y-130537624D01*
X29618388Y-130723520D01*
X29776480Y-130881612D01*
X29962376Y-131005824D01*
X30168933Y-131091383D01*
X30388212Y-131135000D01*
X30611788Y-131135000D01*
X30831067Y-131091383D01*
X31037624Y-131005824D01*
X31223520Y-130881612D01*
X31381612Y-130723520D01*
X31505824Y-130537624D01*
X31591383Y-130331067D01*
X31635000Y-130111788D01*
X31635000Y-129888212D01*
X31865000Y-129888212D01*
X31865000Y-130111788D01*
X31908617Y-130331067D01*
X31994176Y-130537624D01*
X32118388Y-130723520D01*
X32276480Y-130881612D01*
X32462376Y-131005824D01*
X32668933Y-131091383D01*
X32888212Y-131135000D01*
X33111788Y-131135000D01*
X33331067Y-131091383D01*
X33537624Y-131005824D01*
X33723520Y-130881612D01*
X33881612Y-130723520D01*
X34005824Y-130537624D01*
X34091383Y-130331067D01*
X34135000Y-130111788D01*
X34135000Y-129888212D01*
X34091383Y-129668933D01*
X34005824Y-129462376D01*
X33881612Y-129276480D01*
X33723520Y-129118388D01*
X33537624Y-128994176D01*
X33331067Y-128908617D01*
X33111788Y-128865000D01*
X32888212Y-128865000D01*
X32668933Y-128908617D01*
X32462376Y-128994176D01*
X32276480Y-129118388D01*
X32118388Y-129276480D01*
X31994176Y-129462376D01*
X31908617Y-129668933D01*
X31865000Y-129888212D01*
X31635000Y-129888212D01*
X31591383Y-129668933D01*
X31505824Y-129462376D01*
X31381612Y-129276480D01*
X31223520Y-129118388D01*
X31037624Y-128994176D01*
X30831067Y-128908617D01*
X30611788Y-128865000D01*
X30388212Y-128865000D01*
X30168933Y-128908617D01*
X29962376Y-128994176D01*
X29776480Y-129118388D01*
X29618388Y-129276480D01*
X29494176Y-129462376D01*
X29408617Y-129668933D01*
X29365000Y-129888212D01*
X28921017Y-129888212D01*
X28888968Y-129728593D01*
X28820509Y-129563318D01*
X28719774Y-129462660D01*
X28182434Y-130000000D01*
X27817566Y-130000000D01*
X27280226Y-129462660D01*
X27179491Y-129563318D01*
X27110064Y-129731782D01*
X27074837Y-129910554D01*
X19935000Y-129910554D01*
X19935000Y-129280226D01*
X27462660Y-129280226D01*
X28000000Y-129817566D01*
X28537340Y-129280226D01*
X28436682Y-129179491D01*
X28268218Y-129110064D01*
X28089446Y-129074837D01*
X27907237Y-129075164D01*
X27728593Y-129111032D01*
X27563318Y-129179491D01*
X27462660Y-129280226D01*
X19935000Y-129280226D01*
X19935000Y-122927609D01*
X34765000Y-122927609D01*
X34765000Y-123072391D01*
X34793246Y-123214391D01*
X34848652Y-123348153D01*
X34929088Y-123468535D01*
X35031465Y-123570912D01*
X35151847Y-123651348D01*
X35285609Y-123706754D01*
X35427609Y-123735000D01*
X35572391Y-123735000D01*
X35714391Y-123706754D01*
X35848153Y-123651348D01*
X35968535Y-123570912D01*
X36070912Y-123468535D01*
X36151348Y-123348153D01*
X36206754Y-123214391D01*
X36235000Y-123072391D01*
X36235000Y-122927609D01*
X36232997Y-122917541D01*
X36309298Y-122841240D01*
X36326842Y-122826842D01*
X36384326Y-122756798D01*
X36427040Y-122676886D01*
X36453343Y-122590176D01*
X36460000Y-122522590D01*
X36460000Y-122522582D01*
X36462224Y-122500000D01*
X36460000Y-122477418D01*
X36460000Y-118190537D01*
X37917541Y-116732997D01*
X37927609Y-116735000D01*
X38072391Y-116735000D01*
X38214391Y-116706754D01*
X38348153Y-116651348D01*
X38468535Y-116570912D01*
X38570912Y-116468535D01*
X38651348Y-116348153D01*
X38706754Y-116214391D01*
X38735000Y-116072391D01*
X38735000Y-115927609D01*
X38706754Y-115785609D01*
X38651348Y-115651847D01*
X38570912Y-115531465D01*
X38468535Y-115429088D01*
X38460000Y-115423385D01*
X38460000Y-109177609D01*
X41765000Y-109177609D01*
X41765000Y-109322391D01*
X41793246Y-109464391D01*
X41848652Y-109598153D01*
X41929088Y-109718535D01*
X42031465Y-109820912D01*
X42040001Y-109826615D01*
X42040000Y-117173385D01*
X42031465Y-117179088D01*
X41929088Y-117281465D01*
X41848652Y-117401847D01*
X41793246Y-117535609D01*
X41765000Y-117677609D01*
X41765000Y-117822391D01*
X41793246Y-117964391D01*
X41848652Y-118098153D01*
X41929088Y-118218535D01*
X42031465Y-118320912D01*
X42151847Y-118401348D01*
X42285609Y-118456754D01*
X42427609Y-118485000D01*
X42572391Y-118485000D01*
X42714391Y-118456754D01*
X42848153Y-118401348D01*
X42968535Y-118320912D01*
X43070912Y-118218535D01*
X43125000Y-118137586D01*
X43179088Y-118218535D01*
X43281465Y-118320912D01*
X43401847Y-118401348D01*
X43535609Y-118456754D01*
X43677609Y-118485000D01*
X43822391Y-118485000D01*
X43964391Y-118456754D01*
X44040000Y-118425436D01*
X44040001Y-120923385D01*
X44031465Y-120929088D01*
X43929088Y-121031465D01*
X43848652Y-121151847D01*
X43793246Y-121285609D01*
X43765000Y-121427609D01*
X43765000Y-121572391D01*
X43793246Y-121714391D01*
X43848652Y-121848153D01*
X43929088Y-121968535D01*
X44031465Y-122070912D01*
X44151847Y-122151348D01*
X44285609Y-122206754D01*
X44427609Y-122235000D01*
X44572391Y-122235000D01*
X44714391Y-122206754D01*
X44848153Y-122151348D01*
X44968535Y-122070912D01*
X45070912Y-121968535D01*
X45151348Y-121848153D01*
X45206754Y-121714391D01*
X45235000Y-121572391D01*
X45235000Y-121427609D01*
X45206754Y-121285609D01*
X45151348Y-121151847D01*
X45070912Y-121031465D01*
X44968535Y-120929088D01*
X44960000Y-120923385D01*
X44960000Y-117076615D01*
X44968535Y-117070912D01*
X45070912Y-116968535D01*
X45151348Y-116848153D01*
X45206754Y-116714391D01*
X45235000Y-116572391D01*
X45235000Y-116427609D01*
X45232997Y-116417540D01*
X47060335Y-114590202D01*
X47151847Y-114651348D01*
X47285609Y-114706754D01*
X47427609Y-114735000D01*
X47572391Y-114735000D01*
X47714391Y-114706754D01*
X47848153Y-114651348D01*
X47968535Y-114570912D01*
X48040000Y-114499447D01*
X48040000Y-117477418D01*
X48037776Y-117500000D01*
X48040000Y-117522582D01*
X48040000Y-117522589D01*
X48046657Y-117590175D01*
X48072960Y-117676885D01*
X48115674Y-117756797D01*
X48173158Y-117826842D01*
X48190708Y-117841245D01*
X48267003Y-117917540D01*
X48265000Y-117927609D01*
X48265000Y-118072391D01*
X48293246Y-118214391D01*
X48348652Y-118348153D01*
X48429088Y-118468535D01*
X48531465Y-118570912D01*
X48651847Y-118651348D01*
X48785609Y-118706754D01*
X48927609Y-118735000D01*
X49072391Y-118735000D01*
X49214391Y-118706754D01*
X49348153Y-118651348D01*
X49468535Y-118570912D01*
X49540001Y-118499446D01*
X49540001Y-127923384D01*
X49531465Y-127929088D01*
X49429088Y-128031465D01*
X49348652Y-128151847D01*
X49293246Y-128285609D01*
X49265000Y-128427609D01*
X49265000Y-128572391D01*
X49293246Y-128714391D01*
X49348652Y-128848153D01*
X49429088Y-128968535D01*
X49531465Y-129070912D01*
X49651847Y-129151348D01*
X49785609Y-129206754D01*
X49927609Y-129235000D01*
X50072391Y-129235000D01*
X50181589Y-129213279D01*
X50118388Y-129276480D01*
X49994176Y-129462376D01*
X49908617Y-129668933D01*
X49865000Y-129888212D01*
X49865000Y-130111788D01*
X49908617Y-130331067D01*
X49994176Y-130537624D01*
X50118388Y-130723520D01*
X50276480Y-130881612D01*
X50462376Y-131005824D01*
X50668933Y-131091383D01*
X50888212Y-131135000D01*
X51111788Y-131135000D01*
X51331067Y-131091383D01*
X51537624Y-131005824D01*
X51723520Y-130881612D01*
X51881612Y-130723520D01*
X52005824Y-130537624D01*
X52091383Y-130331067D01*
X52135000Y-130111788D01*
X52135000Y-129888212D01*
X52365000Y-129888212D01*
X52365000Y-130111788D01*
X52408617Y-130331067D01*
X52494176Y-130537624D01*
X52618388Y-130723520D01*
X52776480Y-130881612D01*
X52962376Y-131005824D01*
X53168933Y-131091383D01*
X53388212Y-131135000D01*
X53611788Y-131135000D01*
X53831067Y-131091383D01*
X54037624Y-131005824D01*
X54223520Y-130881612D01*
X54381612Y-130723520D01*
X54505824Y-130537624D01*
X54591383Y-130331067D01*
X54635000Y-130111788D01*
X54635000Y-129888212D01*
X54591383Y-129668933D01*
X54505824Y-129462376D01*
X54381612Y-129276480D01*
X54223520Y-129118388D01*
X54037624Y-128994176D01*
X53831067Y-128908617D01*
X53611788Y-128865000D01*
X53388212Y-128865000D01*
X53168933Y-128908617D01*
X52962376Y-128994176D01*
X52776480Y-129118388D01*
X52618388Y-129276480D01*
X52494176Y-129462376D01*
X52408617Y-129668933D01*
X52365000Y-129888212D01*
X52135000Y-129888212D01*
X52091383Y-129668933D01*
X52005824Y-129462376D01*
X51881612Y-129276480D01*
X51723520Y-129118388D01*
X51537624Y-128994176D01*
X51331067Y-128908617D01*
X51111788Y-128865000D01*
X50888212Y-128865000D01*
X50668933Y-128908617D01*
X50588758Y-128941827D01*
X50651348Y-128848153D01*
X50706754Y-128714391D01*
X50735000Y-128572391D01*
X50735000Y-128427609D01*
X50706754Y-128285609D01*
X50651348Y-128151847D01*
X50570912Y-128031465D01*
X50468535Y-127929088D01*
X50460000Y-127923385D01*
X50460000Y-125927609D01*
X53515000Y-125927609D01*
X53515000Y-126072391D01*
X53543246Y-126214391D01*
X53598652Y-126348153D01*
X53679088Y-126468535D01*
X53781465Y-126570912D01*
X53901847Y-126651348D01*
X54035609Y-126706754D01*
X54177609Y-126735000D01*
X54322391Y-126735000D01*
X54464391Y-126706754D01*
X54598153Y-126651348D01*
X54718535Y-126570912D01*
X54790001Y-126499446D01*
X54790001Y-127923384D01*
X54781465Y-127929088D01*
X54679088Y-128031465D01*
X54598652Y-128151847D01*
X54543246Y-128285609D01*
X54515000Y-128427609D01*
X54515000Y-128572391D01*
X54543246Y-128714391D01*
X54598652Y-128848153D01*
X54679088Y-128968535D01*
X54781465Y-129070912D01*
X54901847Y-129151348D01*
X55035609Y-129206754D01*
X55177609Y-129235000D01*
X55322391Y-129235000D01*
X55464391Y-129206754D01*
X55598153Y-129151348D01*
X55718535Y-129070912D01*
X55820912Y-128968535D01*
X55901348Y-128848153D01*
X55956754Y-128714391D01*
X55985000Y-128572391D01*
X55985000Y-128427609D01*
X55956754Y-128285609D01*
X55901348Y-128151847D01*
X55820912Y-128031465D01*
X55718535Y-127929088D01*
X55710000Y-127923385D01*
X55710000Y-127749447D01*
X55781465Y-127820912D01*
X55901847Y-127901348D01*
X56035609Y-127956754D01*
X56177609Y-127985000D01*
X56322391Y-127985000D01*
X56464391Y-127956754D01*
X56598153Y-127901348D01*
X56718535Y-127820912D01*
X56820912Y-127718535D01*
X56901348Y-127598153D01*
X56956754Y-127464391D01*
X56985000Y-127322391D01*
X56985000Y-127177609D01*
X56956754Y-127035609D01*
X56901348Y-126901847D01*
X56820912Y-126781465D01*
X56718535Y-126679088D01*
X56710000Y-126673385D01*
X56710000Y-125499447D01*
X56781465Y-125570912D01*
X56901847Y-125651348D01*
X57035609Y-125706754D01*
X57177609Y-125735000D01*
X57322391Y-125735000D01*
X57464391Y-125706754D01*
X57598153Y-125651348D01*
X57718535Y-125570912D01*
X57820912Y-125468535D01*
X57901348Y-125348153D01*
X57956754Y-125214391D01*
X57985000Y-125072391D01*
X57985000Y-124927609D01*
X57956754Y-124785609D01*
X57901348Y-124651847D01*
X57820912Y-124531465D01*
X57718535Y-124429088D01*
X57710000Y-124423385D01*
X57710000Y-123999447D01*
X57781465Y-124070912D01*
X57901847Y-124151348D01*
X58035609Y-124206754D01*
X58177609Y-124235000D01*
X58322391Y-124235000D01*
X58464391Y-124206754D01*
X58540000Y-124175436D01*
X58540001Y-125923385D01*
X58531465Y-125929088D01*
X58429088Y-126031465D01*
X58348652Y-126151847D01*
X58293246Y-126285609D01*
X58265000Y-126427609D01*
X58265000Y-126572391D01*
X58293246Y-126714391D01*
X58348652Y-126848153D01*
X58429088Y-126968535D01*
X58531465Y-127070912D01*
X58651847Y-127151348D01*
X58785609Y-127206754D01*
X58927609Y-127235000D01*
X59072391Y-127235000D01*
X59214391Y-127206754D01*
X59348153Y-127151348D01*
X59468535Y-127070912D01*
X59540001Y-126999446D01*
X59540001Y-127923385D01*
X59531465Y-127929088D01*
X59429088Y-128031465D01*
X59348652Y-128151847D01*
X59293246Y-128285609D01*
X59265000Y-128427609D01*
X59265000Y-128572391D01*
X59293246Y-128714391D01*
X59348652Y-128848153D01*
X59429088Y-128968535D01*
X59531465Y-129070912D01*
X59651847Y-129151348D01*
X59785609Y-129206754D01*
X59927609Y-129235000D01*
X60072391Y-129235000D01*
X60214391Y-129206754D01*
X60348153Y-129151348D01*
X60468535Y-129070912D01*
X60540000Y-128999447D01*
X60540001Y-136423385D01*
X60531465Y-136429088D01*
X60429088Y-136531465D01*
X60348652Y-136651847D01*
X60293246Y-136785609D01*
X60265000Y-136927609D01*
X60265000Y-137072391D01*
X60293246Y-137214391D01*
X60348652Y-137348153D01*
X60429088Y-137468535D01*
X60531465Y-137570912D01*
X60651847Y-137651348D01*
X60785609Y-137706754D01*
X60927609Y-137735000D01*
X61072391Y-137735000D01*
X61214391Y-137706754D01*
X61348153Y-137651348D01*
X61468535Y-137570912D01*
X61570912Y-137468535D01*
X61651348Y-137348153D01*
X61706754Y-137214391D01*
X61735000Y-137072391D01*
X61735000Y-136927609D01*
X61722494Y-136864736D01*
X77876645Y-136864736D01*
X77876645Y-137135264D01*
X77929422Y-137400593D01*
X78032949Y-137650527D01*
X78183246Y-137875463D01*
X78374537Y-138066754D01*
X78599473Y-138217051D01*
X78849407Y-138320578D01*
X79114736Y-138373355D01*
X79385264Y-138373355D01*
X79650593Y-138320578D01*
X79900527Y-138217051D01*
X80125463Y-138066754D01*
X80316754Y-137875463D01*
X80467051Y-137650527D01*
X80570578Y-137400593D01*
X80623355Y-137135264D01*
X80623355Y-136864736D01*
X80570578Y-136599407D01*
X80467051Y-136349473D01*
X80316754Y-136124537D01*
X80125463Y-135933246D01*
X79900527Y-135782949D01*
X79650593Y-135679422D01*
X79385264Y-135626645D01*
X79114736Y-135626645D01*
X78849407Y-135679422D01*
X78599473Y-135782949D01*
X78374537Y-135933246D01*
X78183246Y-136124537D01*
X78032949Y-136349473D01*
X77929422Y-136599407D01*
X77876645Y-136864736D01*
X61722494Y-136864736D01*
X61706754Y-136785609D01*
X61651348Y-136651847D01*
X61570912Y-136531465D01*
X61468535Y-136429088D01*
X61460000Y-136423385D01*
X61460000Y-134888212D01*
X67365000Y-134888212D01*
X67365000Y-135111788D01*
X67408617Y-135331067D01*
X67494176Y-135537624D01*
X67618388Y-135723520D01*
X67776480Y-135881612D01*
X67962376Y-136005824D01*
X68168933Y-136091383D01*
X68388212Y-136135000D01*
X68611788Y-136135000D01*
X68831067Y-136091383D01*
X69037624Y-136005824D01*
X69223520Y-135881612D01*
X69381612Y-135723520D01*
X69505824Y-135537624D01*
X69591383Y-135331067D01*
X69635000Y-135111788D01*
X69635000Y-134888212D01*
X69865000Y-134888212D01*
X69865000Y-135111788D01*
X69908617Y-135331067D01*
X69994176Y-135537624D01*
X70118388Y-135723520D01*
X70276480Y-135881612D01*
X70462376Y-136005824D01*
X70668933Y-136091383D01*
X70888212Y-136135000D01*
X71111788Y-136135000D01*
X71331067Y-136091383D01*
X71537624Y-136005824D01*
X71723520Y-135881612D01*
X71881612Y-135723520D01*
X72005824Y-135537624D01*
X72091383Y-135331067D01*
X72135000Y-135111788D01*
X72135000Y-134888212D01*
X72365000Y-134888212D01*
X72365000Y-135111788D01*
X72408617Y-135331067D01*
X72494176Y-135537624D01*
X72618388Y-135723520D01*
X72776480Y-135881612D01*
X72962376Y-136005824D01*
X73168933Y-136091383D01*
X73388212Y-136135000D01*
X73611788Y-136135000D01*
X73831067Y-136091383D01*
X74037624Y-136005824D01*
X74223520Y-135881612D01*
X74381612Y-135723520D01*
X74505824Y-135537624D01*
X74591383Y-135331067D01*
X74635000Y-135111788D01*
X74635000Y-134888212D01*
X74591383Y-134668933D01*
X74505824Y-134462376D01*
X74381612Y-134276480D01*
X74223520Y-134118388D01*
X74037624Y-133994176D01*
X73831067Y-133908617D01*
X73611788Y-133865000D01*
X73388212Y-133865000D01*
X73168933Y-133908617D01*
X72962376Y-133994176D01*
X72776480Y-134118388D01*
X72618388Y-134276480D01*
X72494176Y-134462376D01*
X72408617Y-134668933D01*
X72365000Y-134888212D01*
X72135000Y-134888212D01*
X72091383Y-134668933D01*
X72005824Y-134462376D01*
X71881612Y-134276480D01*
X71723520Y-134118388D01*
X71537624Y-133994176D01*
X71331067Y-133908617D01*
X71111788Y-133865000D01*
X70888212Y-133865000D01*
X70668933Y-133908617D01*
X70462376Y-133994176D01*
X70276480Y-134118388D01*
X70118388Y-134276480D01*
X69994176Y-134462376D01*
X69908617Y-134668933D01*
X69865000Y-134888212D01*
X69635000Y-134888212D01*
X69591383Y-134668933D01*
X69505824Y-134462376D01*
X69381612Y-134276480D01*
X69223520Y-134118388D01*
X69037624Y-133994176D01*
X68831067Y-133908617D01*
X68611788Y-133865000D01*
X68388212Y-133865000D01*
X68168933Y-133908617D01*
X67962376Y-133994176D01*
X67776480Y-134118388D01*
X67618388Y-134276480D01*
X67494176Y-134462376D01*
X67408617Y-134668933D01*
X67365000Y-134888212D01*
X61460000Y-134888212D01*
X61460000Y-133219774D01*
X65462660Y-133219774D01*
X65563318Y-133320509D01*
X65731782Y-133389936D01*
X65910554Y-133425163D01*
X66092763Y-133424836D01*
X66271407Y-133388968D01*
X66436682Y-133320509D01*
X66537340Y-133219774D01*
X66000000Y-132682434D01*
X65462660Y-133219774D01*
X61460000Y-133219774D01*
X61460000Y-132410554D01*
X65074837Y-132410554D01*
X65075164Y-132592763D01*
X65111032Y-132771407D01*
X65179491Y-132936682D01*
X65280226Y-133037340D01*
X65817566Y-132500000D01*
X66182434Y-132500000D01*
X66719774Y-133037340D01*
X66820509Y-132936682D01*
X66889936Y-132768218D01*
X66925163Y-132589446D01*
X66924836Y-132407237D01*
X66888968Y-132228593D01*
X66820509Y-132063318D01*
X66719774Y-131962660D01*
X66182434Y-132500000D01*
X65817566Y-132500000D01*
X65280226Y-131962660D01*
X65179491Y-132063318D01*
X65110064Y-132231782D01*
X65074837Y-132410554D01*
X61460000Y-132410554D01*
X61460000Y-131780226D01*
X65462660Y-131780226D01*
X66000000Y-132317566D01*
X66537340Y-131780226D01*
X66457176Y-131700000D01*
X74863380Y-131700000D01*
X74863380Y-133300000D01*
X74869848Y-133365671D01*
X74889004Y-133428819D01*
X74920111Y-133487016D01*
X74961974Y-133538026D01*
X75012984Y-133579889D01*
X75071181Y-133610996D01*
X75134329Y-133630152D01*
X75200000Y-133636620D01*
X76800000Y-133636620D01*
X76865671Y-133630152D01*
X76928819Y-133610996D01*
X76987016Y-133579889D01*
X77038026Y-133538026D01*
X77079889Y-133487016D01*
X77110996Y-133428819D01*
X77130152Y-133365671D01*
X77136620Y-133300000D01*
X77136620Y-131700000D01*
X77130152Y-131634329D01*
X77110996Y-131571181D01*
X77079889Y-131512984D01*
X77038026Y-131461974D01*
X76987016Y-131420111D01*
X76928819Y-131389004D01*
X76865671Y-131369848D01*
X76800000Y-131363380D01*
X75200000Y-131363380D01*
X75134329Y-131369848D01*
X75071181Y-131389004D01*
X75012984Y-131420111D01*
X74961974Y-131461974D01*
X74920111Y-131512984D01*
X74889004Y-131571181D01*
X74869848Y-131634329D01*
X74863380Y-131700000D01*
X66457176Y-131700000D01*
X66436682Y-131679491D01*
X66268218Y-131610064D01*
X66089446Y-131574837D01*
X65907237Y-131575164D01*
X65728593Y-131611032D01*
X65563318Y-131679491D01*
X65462660Y-131780226D01*
X61460000Y-131780226D01*
X61460000Y-130719774D01*
X67962660Y-130719774D01*
X68063318Y-130820509D01*
X68231782Y-130889936D01*
X68410554Y-130925163D01*
X68592763Y-130924836D01*
X68771407Y-130888968D01*
X68936682Y-130820509D01*
X69037340Y-130719774D01*
X68500000Y-130182434D01*
X67962660Y-130719774D01*
X61460000Y-130719774D01*
X61460000Y-129910554D01*
X67574837Y-129910554D01*
X67575164Y-130092763D01*
X67611032Y-130271407D01*
X67679491Y-130436682D01*
X67780226Y-130537340D01*
X68317566Y-130000000D01*
X68682434Y-130000000D01*
X69219774Y-130537340D01*
X69320509Y-130436682D01*
X69389936Y-130268218D01*
X69425163Y-130089446D01*
X69424836Y-129907237D01*
X69421017Y-129888212D01*
X69865000Y-129888212D01*
X69865000Y-130111788D01*
X69908617Y-130331067D01*
X69994176Y-130537624D01*
X70118388Y-130723520D01*
X70276480Y-130881612D01*
X70462376Y-131005824D01*
X70668933Y-131091383D01*
X70888212Y-131135000D01*
X71111788Y-131135000D01*
X71331067Y-131091383D01*
X71537624Y-131005824D01*
X71723520Y-130881612D01*
X71881612Y-130723520D01*
X72005824Y-130537624D01*
X72091383Y-130331067D01*
X72135000Y-130111788D01*
X72135000Y-129888212D01*
X72365000Y-129888212D01*
X72365000Y-130111788D01*
X72408617Y-130331067D01*
X72494176Y-130537624D01*
X72618388Y-130723520D01*
X72776480Y-130881612D01*
X72962376Y-131005824D01*
X73168933Y-131091383D01*
X73388212Y-131135000D01*
X73611788Y-131135000D01*
X73831067Y-131091383D01*
X74037624Y-131005824D01*
X74223520Y-130881612D01*
X74381612Y-130723520D01*
X74505824Y-130537624D01*
X74591383Y-130331067D01*
X74635000Y-130111788D01*
X74635000Y-129888212D01*
X74591383Y-129668933D01*
X74505824Y-129462376D01*
X74381612Y-129276480D01*
X74223520Y-129118388D01*
X74037624Y-128994176D01*
X73831067Y-128908617D01*
X73611788Y-128865000D01*
X73388212Y-128865000D01*
X73168933Y-128908617D01*
X72962376Y-128994176D01*
X72776480Y-129118388D01*
X72618388Y-129276480D01*
X72494176Y-129462376D01*
X72408617Y-129668933D01*
X72365000Y-129888212D01*
X72135000Y-129888212D01*
X72091383Y-129668933D01*
X72005824Y-129462376D01*
X71881612Y-129276480D01*
X71723520Y-129118388D01*
X71537624Y-128994176D01*
X71331067Y-128908617D01*
X71111788Y-128865000D01*
X70888212Y-128865000D01*
X70668933Y-128908617D01*
X70462376Y-128994176D01*
X70276480Y-129118388D01*
X70118388Y-129276480D01*
X69994176Y-129462376D01*
X69908617Y-129668933D01*
X69865000Y-129888212D01*
X69421017Y-129888212D01*
X69388968Y-129728593D01*
X69320509Y-129563318D01*
X69219774Y-129462660D01*
X68682434Y-130000000D01*
X68317566Y-130000000D01*
X67780226Y-129462660D01*
X67679491Y-129563318D01*
X67610064Y-129731782D01*
X67574837Y-129910554D01*
X61460000Y-129910554D01*
X61460000Y-129280226D01*
X67962660Y-129280226D01*
X68500000Y-129817566D01*
X69037340Y-129280226D01*
X68936682Y-129179491D01*
X68768218Y-129110064D01*
X68589446Y-129074837D01*
X68407237Y-129075164D01*
X68228593Y-129111032D01*
X68063318Y-129179491D01*
X67962660Y-129280226D01*
X61460000Y-129280226D01*
X61460000Y-123522582D01*
X61462224Y-123500000D01*
X61460000Y-123477418D01*
X61460000Y-123477410D01*
X61453343Y-123409824D01*
X61427040Y-123323114D01*
X61384326Y-123243202D01*
X61326842Y-123173158D01*
X61309298Y-123158760D01*
X61108901Y-122958363D01*
X62265000Y-122958363D01*
X62265000Y-123201637D01*
X62312460Y-123440236D01*
X62405557Y-123664992D01*
X62540713Y-123867267D01*
X62712733Y-124039287D01*
X62915008Y-124174443D01*
X63139764Y-124267540D01*
X63378363Y-124315000D01*
X63621637Y-124315000D01*
X63860236Y-124267540D01*
X64084992Y-124174443D01*
X64287267Y-124039287D01*
X64459287Y-123867267D01*
X64594443Y-123664992D01*
X64687540Y-123440236D01*
X64735000Y-123201637D01*
X64735000Y-122958363D01*
X64687540Y-122719764D01*
X64594443Y-122495008D01*
X64459287Y-122292733D01*
X64287267Y-122120713D01*
X64084992Y-121985557D01*
X63860236Y-121892460D01*
X63621637Y-121845000D01*
X63378363Y-121845000D01*
X63139764Y-121892460D01*
X62915008Y-121985557D01*
X62712733Y-122120713D01*
X62540713Y-122292733D01*
X62405557Y-122495008D01*
X62312460Y-122719764D01*
X62265000Y-122958363D01*
X61108901Y-122958363D01*
X60960000Y-122809463D01*
X60960000Y-121331496D01*
X62890938Y-121331496D01*
X63003735Y-121442518D01*
X63189343Y-121521993D01*
X63386889Y-121563730D01*
X63588782Y-121566126D01*
X63787264Y-121529088D01*
X63974706Y-121454041D01*
X63996265Y-121442518D01*
X64109062Y-121331496D01*
X63500000Y-120722434D01*
X62890938Y-121331496D01*
X60960000Y-121331496D01*
X60960000Y-120628782D01*
X62473874Y-120628782D01*
X62510912Y-120827264D01*
X62585959Y-121014706D01*
X62597482Y-121036265D01*
X62708504Y-121149062D01*
X63317566Y-120540000D01*
X63682434Y-120540000D01*
X64291496Y-121149062D01*
X64402518Y-121036265D01*
X64481993Y-120850657D01*
X64523730Y-120653111D01*
X64526126Y-120451218D01*
X64489088Y-120252736D01*
X64414041Y-120065294D01*
X64402518Y-120043735D01*
X64291496Y-119930938D01*
X63682434Y-120540000D01*
X63317566Y-120540000D01*
X62708504Y-119930938D01*
X62597482Y-120043735D01*
X62518007Y-120229343D01*
X62476270Y-120426889D01*
X62473874Y-120628782D01*
X60960000Y-120628782D01*
X60960000Y-119748504D01*
X62890938Y-119748504D01*
X63500000Y-120357566D01*
X64109062Y-119748504D01*
X63996265Y-119637482D01*
X63810657Y-119558007D01*
X63613111Y-119516270D01*
X63411218Y-119513874D01*
X63212736Y-119550912D01*
X63025294Y-119625959D01*
X63003735Y-119637482D01*
X62890938Y-119748504D01*
X60960000Y-119748504D01*
X60960000Y-117100000D01*
X62263380Y-117100000D01*
X62263380Y-118900000D01*
X62269848Y-118965671D01*
X62289004Y-119028819D01*
X62320111Y-119087016D01*
X62361974Y-119138026D01*
X62412984Y-119179889D01*
X62471181Y-119210996D01*
X62534329Y-119230152D01*
X62600000Y-119236620D01*
X64400000Y-119236620D01*
X64465671Y-119230152D01*
X64528819Y-119210996D01*
X64587016Y-119179889D01*
X64638026Y-119138026D01*
X64679889Y-119087016D01*
X64710996Y-119028819D01*
X64730152Y-118965671D01*
X64736620Y-118900000D01*
X64736620Y-117100000D01*
X64730152Y-117034329D01*
X64710996Y-116971181D01*
X64679889Y-116912984D01*
X64638026Y-116861974D01*
X64587016Y-116820111D01*
X64528819Y-116789004D01*
X64465671Y-116769848D01*
X64400000Y-116763380D01*
X62600000Y-116763380D01*
X62534329Y-116769848D01*
X62471181Y-116789004D01*
X62412984Y-116820111D01*
X62361974Y-116861974D01*
X62320111Y-116912984D01*
X62289004Y-116971181D01*
X62269848Y-117034329D01*
X62263380Y-117100000D01*
X60960000Y-117100000D01*
X60960000Y-112190537D01*
X61167540Y-111982997D01*
X61177609Y-111985000D01*
X61322391Y-111985000D01*
X61464391Y-111956754D01*
X61598153Y-111901348D01*
X61718535Y-111820912D01*
X61820912Y-111718535D01*
X61901348Y-111598153D01*
X61956754Y-111464391D01*
X61985000Y-111322391D01*
X61985000Y-111177609D01*
X61956754Y-111035609D01*
X61901348Y-110901847D01*
X61820912Y-110781465D01*
X61718535Y-110679088D01*
X61598153Y-110598652D01*
X61464391Y-110543246D01*
X61322391Y-110515000D01*
X61177609Y-110515000D01*
X61035609Y-110543246D01*
X60901847Y-110598652D01*
X60781465Y-110679088D01*
X60679088Y-110781465D01*
X60598652Y-110901847D01*
X60543246Y-111035609D01*
X60515000Y-111177609D01*
X60515000Y-111322391D01*
X60517003Y-111332460D01*
X60190708Y-111658755D01*
X60173158Y-111673158D01*
X60115674Y-111743203D01*
X60072960Y-111823115D01*
X60046657Y-111909825D01*
X60040000Y-111977411D01*
X60040000Y-111977418D01*
X60037776Y-112000000D01*
X60040000Y-112022582D01*
X60040001Y-122977408D01*
X60037776Y-123000000D01*
X60046657Y-123090175D01*
X60072960Y-123176885D01*
X60080347Y-123190704D01*
X60115675Y-123256798D01*
X60173159Y-123326842D01*
X60190703Y-123341240D01*
X60540000Y-123690538D01*
X60540000Y-123824564D01*
X60464391Y-123793246D01*
X60322391Y-123765000D01*
X60177609Y-123765000D01*
X60035609Y-123793246D01*
X59901847Y-123848652D01*
X59781465Y-123929088D01*
X59679088Y-124031465D01*
X59598652Y-124151847D01*
X59543246Y-124285609D01*
X59515000Y-124427609D01*
X59515000Y-124572391D01*
X59541933Y-124707789D01*
X59540000Y-124727411D01*
X59540000Y-124727418D01*
X59537776Y-124750000D01*
X59540000Y-124772582D01*
X59540000Y-126000553D01*
X59468535Y-125929088D01*
X59460000Y-125923385D01*
X59460000Y-122957627D01*
X59464391Y-122956754D01*
X59598153Y-122901348D01*
X59718535Y-122820912D01*
X59820912Y-122718535D01*
X59901348Y-122598153D01*
X59956754Y-122464391D01*
X59985000Y-122322391D01*
X59985000Y-122177609D01*
X59956754Y-122035609D01*
X59901348Y-121901847D01*
X59820912Y-121781465D01*
X59718535Y-121679088D01*
X59598153Y-121598652D01*
X59464391Y-121543246D01*
X59322391Y-121515000D01*
X59177609Y-121515000D01*
X59035609Y-121543246D01*
X58960000Y-121574564D01*
X58960000Y-120175436D01*
X59035609Y-120206754D01*
X59177609Y-120235000D01*
X59322391Y-120235000D01*
X59464391Y-120206754D01*
X59598153Y-120151348D01*
X59718535Y-120070912D01*
X59820912Y-119968535D01*
X59901348Y-119848153D01*
X59956754Y-119714391D01*
X59985000Y-119572391D01*
X59985000Y-119427609D01*
X59958067Y-119292212D01*
X59960000Y-119272590D01*
X59960000Y-119272581D01*
X59962224Y-119250001D01*
X59960000Y-119227421D01*
X59960000Y-109927609D01*
X65265000Y-109927609D01*
X65265000Y-110072391D01*
X65293246Y-110214391D01*
X65348652Y-110348153D01*
X65429088Y-110468535D01*
X65531465Y-110570912D01*
X65540000Y-110576615D01*
X65540001Y-123423385D01*
X65531465Y-123429088D01*
X65429088Y-123531465D01*
X65348652Y-123651847D01*
X65293246Y-123785609D01*
X65265000Y-123927609D01*
X65265000Y-124072391D01*
X65293246Y-124214391D01*
X65348652Y-124348153D01*
X65429088Y-124468535D01*
X65531465Y-124570912D01*
X65612414Y-124625000D01*
X65531465Y-124679088D01*
X65429088Y-124781465D01*
X65348652Y-124901847D01*
X65293246Y-125035609D01*
X65265000Y-125177609D01*
X65265000Y-125322391D01*
X65293246Y-125464391D01*
X65348652Y-125598153D01*
X65429088Y-125718535D01*
X65531465Y-125820912D01*
X65540000Y-125826615D01*
X65540001Y-127923385D01*
X65531465Y-127929088D01*
X65429088Y-128031465D01*
X65348652Y-128151847D01*
X65293246Y-128285609D01*
X65265000Y-128427609D01*
X65265000Y-128572391D01*
X65293246Y-128714391D01*
X65348652Y-128848153D01*
X65429088Y-128968535D01*
X65531465Y-129070912D01*
X65651847Y-129151348D01*
X65785609Y-129206754D01*
X65927609Y-129235000D01*
X66072391Y-129235000D01*
X66214391Y-129206754D01*
X66348153Y-129151348D01*
X66468535Y-129070912D01*
X66570912Y-128968535D01*
X66651348Y-128848153D01*
X66706754Y-128714391D01*
X66735000Y-128572391D01*
X66735000Y-128427609D01*
X66706754Y-128285609D01*
X66651348Y-128151847D01*
X66570912Y-128031465D01*
X66468535Y-127929088D01*
X66460000Y-127923385D01*
X66460000Y-125826615D01*
X66468535Y-125820912D01*
X66570912Y-125718535D01*
X66651348Y-125598153D01*
X66706754Y-125464391D01*
X66735000Y-125322391D01*
X66735000Y-125177609D01*
X66706754Y-125035609D01*
X66651348Y-124901847D01*
X66570912Y-124781465D01*
X66468535Y-124679088D01*
X66387586Y-124625000D01*
X66468535Y-124570912D01*
X66570912Y-124468535D01*
X66651348Y-124348153D01*
X66706754Y-124214391D01*
X66735000Y-124072391D01*
X66735000Y-123927609D01*
X66706754Y-123785609D01*
X66651348Y-123651847D01*
X66570912Y-123531465D01*
X66468535Y-123429088D01*
X66460000Y-123423385D01*
X66460000Y-122175436D01*
X66535609Y-122206754D01*
X66677609Y-122235000D01*
X66822391Y-122235000D01*
X66964391Y-122206754D01*
X67098153Y-122151348D01*
X67218535Y-122070912D01*
X67320912Y-121968535D01*
X67401348Y-121848153D01*
X67456754Y-121714391D01*
X67485000Y-121572391D01*
X67485000Y-121427609D01*
X67456754Y-121285609D01*
X67401348Y-121151847D01*
X67320912Y-121031465D01*
X67218535Y-120929088D01*
X67210000Y-120923385D01*
X67210000Y-113107801D01*
X67232324Y-113110000D01*
X67250000Y-113111741D01*
X67267676Y-113110000D01*
X69003817Y-113110000D01*
X68993202Y-113115674D01*
X68923158Y-113173158D01*
X68908759Y-113190703D01*
X68440705Y-113658758D01*
X68423159Y-113673158D01*
X68365675Y-113743202D01*
X68358408Y-113756798D01*
X68322960Y-113823115D01*
X68296657Y-113909825D01*
X68287776Y-114000000D01*
X68290001Y-114022592D01*
X68290000Y-115309462D01*
X68082460Y-115517003D01*
X68072391Y-115515000D01*
X67927609Y-115515000D01*
X67785609Y-115543246D01*
X67651847Y-115598652D01*
X67531465Y-115679088D01*
X67429088Y-115781465D01*
X67348652Y-115901847D01*
X67293246Y-116035609D01*
X67265000Y-116177609D01*
X67265000Y-116322391D01*
X67293246Y-116464391D01*
X67348652Y-116598153D01*
X67429088Y-116718535D01*
X67531465Y-116820912D01*
X67540000Y-116826615D01*
X67540001Y-121923385D01*
X67531465Y-121929088D01*
X67429088Y-122031465D01*
X67348652Y-122151847D01*
X67293246Y-122285609D01*
X67265000Y-122427609D01*
X67265000Y-122572391D01*
X67293246Y-122714391D01*
X67348652Y-122848153D01*
X67429088Y-122968535D01*
X67531465Y-123070912D01*
X67651847Y-123151348D01*
X67785609Y-123206754D01*
X67927609Y-123235000D01*
X68072391Y-123235000D01*
X68214391Y-123206754D01*
X68348153Y-123151348D01*
X68468535Y-123070912D01*
X68570912Y-122968535D01*
X68651348Y-122848153D01*
X68706754Y-122714391D01*
X68735000Y-122572391D01*
X68735000Y-122427609D01*
X68706754Y-122285609D01*
X68651348Y-122151847D01*
X68570912Y-122031465D01*
X68468535Y-121929088D01*
X68460000Y-121923385D01*
X68460000Y-117573288D01*
X70660000Y-117573288D01*
X70660000Y-117806712D01*
X70705539Y-118035652D01*
X70794866Y-118251308D01*
X70924550Y-118445394D01*
X71089606Y-118610450D01*
X71283692Y-118740134D01*
X71419200Y-118796263D01*
X71348652Y-118901847D01*
X71293246Y-119035609D01*
X71265000Y-119177609D01*
X71265000Y-119322391D01*
X71293246Y-119464391D01*
X71348652Y-119598153D01*
X71429088Y-119718535D01*
X71531465Y-119820912D01*
X71540000Y-119826615D01*
X71540001Y-123673385D01*
X71531465Y-123679088D01*
X71429088Y-123781465D01*
X71348652Y-123901847D01*
X71293246Y-124035609D01*
X71265000Y-124177609D01*
X71265000Y-124322391D01*
X71293246Y-124464391D01*
X71348652Y-124598153D01*
X71429088Y-124718535D01*
X71531465Y-124820912D01*
X71651847Y-124901348D01*
X71785609Y-124956754D01*
X71927609Y-124985000D01*
X72072391Y-124985000D01*
X72214391Y-124956754D01*
X72348153Y-124901348D01*
X72468535Y-124820912D01*
X72540001Y-124749446D01*
X72540000Y-125923385D01*
X72531465Y-125929088D01*
X72429088Y-126031465D01*
X72348652Y-126151847D01*
X72293246Y-126285609D01*
X72265000Y-126427609D01*
X72265000Y-126572391D01*
X72293246Y-126714391D01*
X72348652Y-126848153D01*
X72429088Y-126968535D01*
X72531465Y-127070912D01*
X72651847Y-127151348D01*
X72785609Y-127206754D01*
X72927609Y-127235000D01*
X73072391Y-127235000D01*
X73214391Y-127206754D01*
X73348153Y-127151348D01*
X73468535Y-127070912D01*
X73570912Y-126968535D01*
X73651348Y-126848153D01*
X73706754Y-126714391D01*
X73735000Y-126572391D01*
X73735000Y-126427609D01*
X73706754Y-126285609D01*
X73651348Y-126151847D01*
X73570912Y-126031465D01*
X73468535Y-125929088D01*
X73460000Y-125923385D01*
X73460000Y-123576615D01*
X73468535Y-123570912D01*
X73570912Y-123468535D01*
X73651348Y-123348153D01*
X73706754Y-123214391D01*
X73735000Y-123072391D01*
X73735000Y-122927609D01*
X73706754Y-122785609D01*
X73651348Y-122651847D01*
X73570912Y-122531465D01*
X73468535Y-122429088D01*
X73348153Y-122348652D01*
X73214391Y-122293246D01*
X73072391Y-122265000D01*
X72927609Y-122265000D01*
X72785609Y-122293246D01*
X72651847Y-122348652D01*
X72531465Y-122429088D01*
X72460000Y-122500553D01*
X72460000Y-119826615D01*
X72468535Y-119820912D01*
X72570912Y-119718535D01*
X72651348Y-119598153D01*
X72706754Y-119464391D01*
X72735000Y-119322391D01*
X72735000Y-119177609D01*
X72706754Y-119035609D01*
X72651348Y-118901847D01*
X72570912Y-118781465D01*
X72480205Y-118690758D01*
X72600394Y-118610450D01*
X72765450Y-118445394D01*
X72895134Y-118251308D01*
X72984461Y-118035652D01*
X73030000Y-117806712D01*
X73030000Y-117573288D01*
X73200000Y-117573288D01*
X73200000Y-117806712D01*
X73245539Y-118035652D01*
X73334866Y-118251308D01*
X73464550Y-118445394D01*
X73629606Y-118610450D01*
X73823692Y-118740134D01*
X74039348Y-118829461D01*
X74268288Y-118875000D01*
X74501712Y-118875000D01*
X74730652Y-118829461D01*
X74946308Y-118740134D01*
X75140394Y-118610450D01*
X75305450Y-118445394D01*
X75435134Y-118251308D01*
X75524461Y-118035652D01*
X75570000Y-117806712D01*
X75570000Y-117573288D01*
X75740000Y-117573288D01*
X75740000Y-117806712D01*
X75785539Y-118035652D01*
X75874866Y-118251308D01*
X76004550Y-118445394D01*
X76169606Y-118610450D01*
X76363692Y-118740134D01*
X76465001Y-118782097D01*
X76465000Y-122495553D01*
X76429088Y-122531465D01*
X76348652Y-122651847D01*
X76293246Y-122785609D01*
X76265000Y-122927609D01*
X76265000Y-123072391D01*
X76293246Y-123214391D01*
X76348652Y-123348153D01*
X76429088Y-123468535D01*
X76531465Y-123570912D01*
X76651847Y-123651348D01*
X76785609Y-123706754D01*
X76927609Y-123735000D01*
X77072391Y-123735000D01*
X77214391Y-123706754D01*
X77348153Y-123651348D01*
X77468535Y-123570912D01*
X77570912Y-123468535D01*
X77651348Y-123348153D01*
X77706754Y-123214391D01*
X77735000Y-123072391D01*
X77735000Y-122927609D01*
X78265000Y-122927609D01*
X78265000Y-123072391D01*
X78293246Y-123214391D01*
X78348652Y-123348153D01*
X78429088Y-123468535D01*
X78531465Y-123570912D01*
X78540000Y-123576615D01*
X78540001Y-125673385D01*
X78531465Y-125679088D01*
X78429088Y-125781465D01*
X78348652Y-125901847D01*
X78293246Y-126035609D01*
X78265000Y-126177609D01*
X78265000Y-126322391D01*
X78293246Y-126464391D01*
X78348652Y-126598153D01*
X78429088Y-126718535D01*
X78531465Y-126820912D01*
X78651847Y-126901348D01*
X78785609Y-126956754D01*
X78927609Y-126985000D01*
X79072391Y-126985000D01*
X79214391Y-126956754D01*
X79348153Y-126901348D01*
X79468535Y-126820912D01*
X79540001Y-126749446D01*
X79540001Y-127673385D01*
X79531465Y-127679088D01*
X79429088Y-127781465D01*
X79348652Y-127901847D01*
X79293246Y-128035609D01*
X79265000Y-128177609D01*
X79265000Y-128322391D01*
X79293246Y-128464391D01*
X79348652Y-128598153D01*
X79429088Y-128718535D01*
X79531465Y-128820912D01*
X79651847Y-128901348D01*
X79785609Y-128956754D01*
X79927609Y-128985000D01*
X80072391Y-128985000D01*
X80214391Y-128956754D01*
X80348153Y-128901348D01*
X80468535Y-128820912D01*
X80570912Y-128718535D01*
X80651348Y-128598153D01*
X80706754Y-128464391D01*
X80735000Y-128322391D01*
X80735000Y-128177609D01*
X80706754Y-128035609D01*
X80651348Y-127901847D01*
X80570912Y-127781465D01*
X80468535Y-127679088D01*
X80460000Y-127673385D01*
X80460000Y-122326615D01*
X80468535Y-122320912D01*
X80570912Y-122218535D01*
X80651348Y-122098153D01*
X80706754Y-121964391D01*
X80735000Y-121822391D01*
X80735000Y-121677609D01*
X80706754Y-121535609D01*
X80651348Y-121401847D01*
X80570912Y-121281465D01*
X80468535Y-121179088D01*
X80348153Y-121098652D01*
X80214391Y-121043246D01*
X80072391Y-121015000D01*
X79927609Y-121015000D01*
X79785609Y-121043246D01*
X79651847Y-121098652D01*
X79531465Y-121179088D01*
X79429088Y-121281465D01*
X79348652Y-121401847D01*
X79293246Y-121535609D01*
X79265000Y-121677609D01*
X79265000Y-121822391D01*
X79293246Y-121964391D01*
X79348652Y-122098153D01*
X79429088Y-122218535D01*
X79531465Y-122320912D01*
X79540000Y-122326615D01*
X79540000Y-122500553D01*
X79468535Y-122429088D01*
X79348153Y-122348652D01*
X79214391Y-122293246D01*
X79072391Y-122265000D01*
X78927609Y-122265000D01*
X78785609Y-122293246D01*
X78651847Y-122348652D01*
X78531465Y-122429088D01*
X78429088Y-122531465D01*
X78348652Y-122651847D01*
X78293246Y-122785609D01*
X78265000Y-122927609D01*
X77735000Y-122927609D01*
X77706754Y-122785609D01*
X77651348Y-122651847D01*
X77570912Y-122531465D01*
X77468535Y-122429088D01*
X77385000Y-122373272D01*
X77385000Y-118782097D01*
X77486308Y-118740134D01*
X77680394Y-118610450D01*
X77845450Y-118445394D01*
X77975134Y-118251308D01*
X78064461Y-118035652D01*
X78110000Y-117806712D01*
X78110000Y-117573288D01*
X78064461Y-117344348D01*
X77975134Y-117128692D01*
X77845450Y-116934606D01*
X77680394Y-116769550D01*
X77486308Y-116639866D01*
X77270652Y-116550539D01*
X77041712Y-116505000D01*
X76808288Y-116505000D01*
X76579348Y-116550539D01*
X76363692Y-116639866D01*
X76169606Y-116769550D01*
X76004550Y-116934606D01*
X75874866Y-117128692D01*
X75785539Y-117344348D01*
X75740000Y-117573288D01*
X75570000Y-117573288D01*
X75524461Y-117344348D01*
X75435134Y-117128692D01*
X75305450Y-116934606D01*
X75140394Y-116769550D01*
X74946308Y-116639866D01*
X74730652Y-116550539D01*
X74501712Y-116505000D01*
X74268288Y-116505000D01*
X74039348Y-116550539D01*
X73823692Y-116639866D01*
X73629606Y-116769550D01*
X73464550Y-116934606D01*
X73334866Y-117128692D01*
X73245539Y-117344348D01*
X73200000Y-117573288D01*
X73030000Y-117573288D01*
X72984461Y-117344348D01*
X72895134Y-117128692D01*
X72765450Y-116934606D01*
X72600394Y-116769550D01*
X72406308Y-116639866D01*
X72190652Y-116550539D01*
X71961712Y-116505000D01*
X71728288Y-116505000D01*
X71499348Y-116550539D01*
X71283692Y-116639866D01*
X71089606Y-116769550D01*
X70924550Y-116934606D01*
X70794866Y-117128692D01*
X70705539Y-117344348D01*
X70660000Y-117573288D01*
X68460000Y-117573288D01*
X68460000Y-116826615D01*
X68468535Y-116820912D01*
X68570912Y-116718535D01*
X68651348Y-116598153D01*
X68706754Y-116464391D01*
X68735000Y-116322391D01*
X68735000Y-116177609D01*
X68732997Y-116167540D01*
X68994885Y-115905652D01*
X70001781Y-115905652D01*
X70108513Y-116011532D01*
X70285553Y-116085985D01*
X70473715Y-116124468D01*
X70665771Y-116125504D01*
X70854338Y-116089051D01*
X71032170Y-116016511D01*
X71041487Y-116011532D01*
X71148219Y-115905652D01*
X70575000Y-115332434D01*
X70001781Y-115905652D01*
X68994885Y-115905652D01*
X69059298Y-115841240D01*
X69076842Y-115826842D01*
X69134326Y-115756798D01*
X69177040Y-115676886D01*
X69182539Y-115658758D01*
X69203343Y-115590177D01*
X69208844Y-115534325D01*
X69210000Y-115522590D01*
X69210000Y-115522583D01*
X69212224Y-115500001D01*
X69210000Y-115477419D01*
X69210000Y-115240771D01*
X69599496Y-115240771D01*
X69635949Y-115429338D01*
X69708489Y-115607170D01*
X69713468Y-115616487D01*
X69819348Y-115723219D01*
X70392566Y-115150000D01*
X70757434Y-115150000D01*
X71330652Y-115723219D01*
X71436532Y-115616487D01*
X71510985Y-115439447D01*
X71549468Y-115251285D01*
X71550504Y-115059229D01*
X71514051Y-114870662D01*
X71441511Y-114692830D01*
X71436532Y-114683513D01*
X71330652Y-114576781D01*
X70757434Y-115150000D01*
X70392566Y-115150000D01*
X69819348Y-114576781D01*
X69713468Y-114683513D01*
X69639015Y-114860553D01*
X69600532Y-115048715D01*
X69599496Y-115240771D01*
X69210000Y-115240771D01*
X69210000Y-114394348D01*
X70001781Y-114394348D01*
X70575000Y-114967566D01*
X71148219Y-114394348D01*
X71041487Y-114288468D01*
X70864447Y-114214015D01*
X70676285Y-114175532D01*
X70484229Y-114174496D01*
X70295662Y-114210949D01*
X70117830Y-114283489D01*
X70108513Y-114288468D01*
X70001781Y-114394348D01*
X69210000Y-114394348D01*
X69210000Y-114190537D01*
X69440538Y-113960000D01*
X71254463Y-113960000D01*
X71997502Y-114703040D01*
X71955539Y-114804348D01*
X71910000Y-115033288D01*
X71910000Y-115266712D01*
X71955539Y-115495652D01*
X72044866Y-115711308D01*
X72174550Y-115905394D01*
X72339606Y-116070450D01*
X72533692Y-116200134D01*
X72749348Y-116289461D01*
X72978288Y-116335000D01*
X73211712Y-116335000D01*
X73440652Y-116289461D01*
X73656308Y-116200134D01*
X73850394Y-116070450D01*
X74015450Y-115905394D01*
X74145134Y-115711308D01*
X74234461Y-115495652D01*
X74280000Y-115266712D01*
X74280000Y-115033288D01*
X74470000Y-115033288D01*
X74470000Y-115266712D01*
X74515539Y-115495652D01*
X74604866Y-115711308D01*
X74734550Y-115905394D01*
X74899606Y-116070450D01*
X75093692Y-116200134D01*
X75309348Y-116289461D01*
X75538288Y-116335000D01*
X75771712Y-116335000D01*
X76000652Y-116289461D01*
X76216308Y-116200134D01*
X76410394Y-116070450D01*
X76575450Y-115905394D01*
X76705134Y-115711308D01*
X76794461Y-115495652D01*
X76840000Y-115266712D01*
X76840000Y-115033288D01*
X76794461Y-114804348D01*
X76715922Y-114614736D01*
X77876645Y-114614736D01*
X77876645Y-114885264D01*
X77929422Y-115150593D01*
X78032949Y-115400527D01*
X78183246Y-115625463D01*
X78374537Y-115816754D01*
X78599473Y-115967051D01*
X78849407Y-116070578D01*
X79114736Y-116123355D01*
X79385264Y-116123355D01*
X79650593Y-116070578D01*
X79900527Y-115967051D01*
X80125463Y-115816754D01*
X80316754Y-115625463D01*
X80467051Y-115400527D01*
X80570578Y-115150593D01*
X80623355Y-114885264D01*
X80623355Y-114614736D01*
X80570578Y-114349407D01*
X80467051Y-114099473D01*
X80316754Y-113874537D01*
X80125463Y-113683246D01*
X79900527Y-113532949D01*
X79650593Y-113429422D01*
X79385264Y-113376645D01*
X79114736Y-113376645D01*
X78849407Y-113429422D01*
X78599473Y-113532949D01*
X78374537Y-113683246D01*
X78183246Y-113874537D01*
X78032949Y-114099473D01*
X77929422Y-114349407D01*
X77876645Y-114614736D01*
X76715922Y-114614736D01*
X76705134Y-114588692D01*
X76575450Y-114394606D01*
X76410394Y-114229550D01*
X76216308Y-114099866D01*
X76000652Y-114010539D01*
X75771712Y-113965000D01*
X75538288Y-113965000D01*
X75309348Y-114010539D01*
X75093692Y-114099866D01*
X74899606Y-114229550D01*
X74734550Y-114394606D01*
X74604866Y-114588692D01*
X74515539Y-114804348D01*
X74470000Y-115033288D01*
X74280000Y-115033288D01*
X74234461Y-114804348D01*
X74145134Y-114588692D01*
X74015450Y-114394606D01*
X73850394Y-114229550D01*
X73656308Y-114099866D01*
X73440652Y-114010539D01*
X73211712Y-113965000D01*
X72978288Y-113965000D01*
X72749348Y-114010539D01*
X72648040Y-114052502D01*
X71786245Y-113190708D01*
X71771842Y-113173158D01*
X71701798Y-113115674D01*
X71691183Y-113110000D01*
X80232324Y-113110000D01*
X80250000Y-113111741D01*
X80267676Y-113110000D01*
X80320572Y-113104790D01*
X80388432Y-113084205D01*
X80450973Y-113050777D01*
X80505790Y-113005790D01*
X80550777Y-112950973D01*
X80584205Y-112888432D01*
X80604790Y-112820572D01*
X80611741Y-112750000D01*
X80610000Y-112732324D01*
X80610000Y-100767676D01*
X80611741Y-100750000D01*
X80604790Y-100679428D01*
X80584205Y-100611568D01*
X80550777Y-100549027D01*
X80505790Y-100494210D01*
X80450973Y-100449223D01*
X80388432Y-100415795D01*
X80320572Y-100395210D01*
X80267676Y-100390000D01*
X80250000Y-100388259D01*
X80232324Y-100390000D01*
X67267676Y-100390000D01*
X67250000Y-100388259D01*
X67232324Y-100390000D01*
X67179428Y-100395210D01*
X67111568Y-100415795D01*
X67049027Y-100449223D01*
X66994210Y-100494210D01*
X66949223Y-100549027D01*
X66915795Y-100611568D01*
X66895210Y-100679428D01*
X66888259Y-100750000D01*
X66890000Y-100767676D01*
X66890001Y-108126613D01*
X66848153Y-108098652D01*
X66714391Y-108043246D01*
X66572391Y-108015000D01*
X66427609Y-108015000D01*
X66285609Y-108043246D01*
X66151847Y-108098652D01*
X66031465Y-108179088D01*
X65929088Y-108281465D01*
X65848652Y-108401847D01*
X65793246Y-108535609D01*
X65765000Y-108677609D01*
X65765000Y-108822391D01*
X65793246Y-108964391D01*
X65848652Y-109098153D01*
X65929088Y-109218535D01*
X65975553Y-109265000D01*
X65927609Y-109265000D01*
X65785609Y-109293246D01*
X65651847Y-109348652D01*
X65531465Y-109429088D01*
X65429088Y-109531465D01*
X65348652Y-109651847D01*
X65293246Y-109785609D01*
X65265000Y-109927609D01*
X59960000Y-109927609D01*
X59960000Y-107427609D01*
X60765000Y-107427609D01*
X60765000Y-107572391D01*
X60793246Y-107714391D01*
X60848652Y-107848153D01*
X60929088Y-107968535D01*
X61031465Y-108070912D01*
X61151847Y-108151348D01*
X61285609Y-108206754D01*
X61427609Y-108235000D01*
X61572391Y-108235000D01*
X61714391Y-108206754D01*
X61848153Y-108151348D01*
X61968535Y-108070912D01*
X62070912Y-107968535D01*
X62151348Y-107848153D01*
X62206754Y-107714391D01*
X62235000Y-107572391D01*
X62235000Y-107427609D01*
X62206754Y-107285609D01*
X62151348Y-107151847D01*
X62070912Y-107031465D01*
X61968535Y-106929088D01*
X61960000Y-106923385D01*
X61960000Y-105690537D01*
X65417541Y-102232997D01*
X65427609Y-102235000D01*
X65572391Y-102235000D01*
X65714391Y-102206754D01*
X65848153Y-102151348D01*
X65968535Y-102070912D01*
X66070912Y-101968535D01*
X66151348Y-101848153D01*
X66206754Y-101714391D01*
X66235000Y-101572391D01*
X66235000Y-101427609D01*
X66206754Y-101285609D01*
X66151348Y-101151847D01*
X66070912Y-101031465D01*
X65968535Y-100929088D01*
X65848153Y-100848652D01*
X65714391Y-100793246D01*
X65572391Y-100765000D01*
X65427609Y-100765000D01*
X65285609Y-100793246D01*
X65151847Y-100848652D01*
X65031465Y-100929088D01*
X64929088Y-101031465D01*
X64848652Y-101151847D01*
X64793246Y-101285609D01*
X64765000Y-101427609D01*
X64765000Y-101572391D01*
X64767003Y-101582459D01*
X61190708Y-105158755D01*
X61173158Y-105173158D01*
X61115674Y-105243203D01*
X61072960Y-105323115D01*
X61046657Y-105409825D01*
X61040000Y-105477411D01*
X61040000Y-105477418D01*
X61037776Y-105500000D01*
X61040000Y-105522582D01*
X61040001Y-106923385D01*
X61031465Y-106929088D01*
X60929088Y-107031465D01*
X60848652Y-107151847D01*
X60793246Y-107285609D01*
X60765000Y-107427609D01*
X59960000Y-107427609D01*
X59960000Y-107076615D01*
X59968535Y-107070912D01*
X60070912Y-106968535D01*
X60151348Y-106848153D01*
X60206754Y-106714391D01*
X60235000Y-106572391D01*
X60235000Y-106427609D01*
X60206754Y-106285609D01*
X60151348Y-106151847D01*
X60070912Y-106031465D01*
X59968535Y-105929088D01*
X59848153Y-105848652D01*
X59714391Y-105793246D01*
X59572391Y-105765000D01*
X59427609Y-105765000D01*
X59285609Y-105793246D01*
X59151847Y-105848652D01*
X59150343Y-105849657D01*
X59151348Y-105848153D01*
X59206754Y-105714391D01*
X59235000Y-105572391D01*
X59235000Y-105427609D01*
X59206754Y-105285609D01*
X59151348Y-105151847D01*
X59070912Y-105031465D01*
X58968535Y-104929088D01*
X58848153Y-104848652D01*
X58714391Y-104793246D01*
X58572391Y-104765000D01*
X58427609Y-104765000D01*
X58285609Y-104793246D01*
X58151847Y-104848652D01*
X58031465Y-104929088D01*
X57929088Y-105031465D01*
X57848652Y-105151847D01*
X57793246Y-105285609D01*
X57765000Y-105427609D01*
X57765000Y-105572391D01*
X57793246Y-105714391D01*
X57821220Y-105781925D01*
X57820912Y-105781465D01*
X57718535Y-105679088D01*
X57598153Y-105598652D01*
X57464391Y-105543246D01*
X57322391Y-105515000D01*
X57177609Y-105515000D01*
X57035609Y-105543246D01*
X56901847Y-105598652D01*
X56781465Y-105679088D01*
X56679088Y-105781465D01*
X56598652Y-105901847D01*
X56543246Y-106035609D01*
X56515000Y-106177609D01*
X56515000Y-106322391D01*
X56543246Y-106464391D01*
X56598652Y-106598153D01*
X56679088Y-106718535D01*
X56781465Y-106820912D01*
X56790000Y-106826615D01*
X56790000Y-107250553D01*
X56718535Y-107179088D01*
X56598153Y-107098652D01*
X56464391Y-107043246D01*
X56322391Y-107015000D01*
X56177609Y-107015000D01*
X56035609Y-107043246D01*
X55985000Y-107064209D01*
X55985000Y-106927609D01*
X55956754Y-106785609D01*
X55901348Y-106651847D01*
X55820912Y-106531465D01*
X55718535Y-106429088D01*
X55598153Y-106348652D01*
X55464391Y-106293246D01*
X55322391Y-106265000D01*
X55177609Y-106265000D01*
X55035609Y-106293246D01*
X54901847Y-106348652D01*
X54781465Y-106429088D01*
X54679088Y-106531465D01*
X54598652Y-106651847D01*
X54543246Y-106785609D01*
X54515000Y-106927609D01*
X54515000Y-107072391D01*
X54543246Y-107214391D01*
X54598652Y-107348153D01*
X54679088Y-107468535D01*
X54781465Y-107570912D01*
X54790000Y-107576615D01*
X54790000Y-109324564D01*
X54714391Y-109293246D01*
X54572391Y-109265000D01*
X54427609Y-109265000D01*
X54285609Y-109293246D01*
X54151847Y-109348652D01*
X54031465Y-109429088D01*
X53929088Y-109531465D01*
X53848652Y-109651847D01*
X53793246Y-109785609D01*
X53765000Y-109927609D01*
X53765000Y-110072391D01*
X53793246Y-110214391D01*
X53848652Y-110348153D01*
X53929088Y-110468535D01*
X54031465Y-110570912D01*
X54040001Y-110576615D01*
X54040000Y-125292373D01*
X54035609Y-125293246D01*
X53901847Y-125348652D01*
X53781465Y-125429088D01*
X53679088Y-125531465D01*
X53598652Y-125651847D01*
X53543246Y-125785609D01*
X53515000Y-125927609D01*
X50460000Y-125927609D01*
X50460000Y-116177609D01*
X50765000Y-116177609D01*
X50765000Y-116322391D01*
X50793246Y-116464391D01*
X50848652Y-116598153D01*
X50929088Y-116718535D01*
X51031465Y-116820912D01*
X51040001Y-116826615D01*
X51040000Y-119923385D01*
X51031465Y-119929088D01*
X50929088Y-120031465D01*
X50848652Y-120151847D01*
X50793246Y-120285609D01*
X50765000Y-120427609D01*
X50765000Y-120572391D01*
X50793246Y-120714391D01*
X50848652Y-120848153D01*
X50929088Y-120968535D01*
X51031465Y-121070912D01*
X51151847Y-121151348D01*
X51285609Y-121206754D01*
X51427609Y-121235000D01*
X51572391Y-121235000D01*
X51714391Y-121206754D01*
X51848153Y-121151348D01*
X51968535Y-121070912D01*
X52070912Y-120968535D01*
X52151348Y-120848153D01*
X52206754Y-120714391D01*
X52235000Y-120572391D01*
X52235000Y-120427609D01*
X52206754Y-120285609D01*
X52151348Y-120151847D01*
X52070912Y-120031465D01*
X51968535Y-119929088D01*
X51960000Y-119923385D01*
X51960000Y-116826615D01*
X51968535Y-116820912D01*
X52070912Y-116718535D01*
X52151348Y-116598153D01*
X52206754Y-116464391D01*
X52235000Y-116322391D01*
X52235000Y-116177609D01*
X52206754Y-116035609D01*
X52151348Y-115901847D01*
X52070912Y-115781465D01*
X51968535Y-115679088D01*
X51848153Y-115598652D01*
X51714391Y-115543246D01*
X51572391Y-115515000D01*
X51427609Y-115515000D01*
X51285609Y-115543246D01*
X51151847Y-115598652D01*
X51031465Y-115679088D01*
X50929088Y-115781465D01*
X50848652Y-115901847D01*
X50793246Y-116035609D01*
X50765000Y-116177609D01*
X50460000Y-116177609D01*
X50460000Y-114927609D01*
X52265000Y-114927609D01*
X52265000Y-115072391D01*
X52293246Y-115214391D01*
X52348652Y-115348153D01*
X52429088Y-115468535D01*
X52531465Y-115570912D01*
X52540001Y-115576615D01*
X52540000Y-121423385D01*
X52531465Y-121429088D01*
X52429088Y-121531465D01*
X52348652Y-121651847D01*
X52293246Y-121785609D01*
X52265000Y-121927609D01*
X52265000Y-122072391D01*
X52293246Y-122214391D01*
X52348652Y-122348153D01*
X52429088Y-122468535D01*
X52531465Y-122570912D01*
X52651847Y-122651348D01*
X52785609Y-122706754D01*
X52927609Y-122735000D01*
X53072391Y-122735000D01*
X53214391Y-122706754D01*
X53348153Y-122651348D01*
X53468535Y-122570912D01*
X53570912Y-122468535D01*
X53651348Y-122348153D01*
X53706754Y-122214391D01*
X53735000Y-122072391D01*
X53735000Y-121927609D01*
X53706754Y-121785609D01*
X53651348Y-121651847D01*
X53570912Y-121531465D01*
X53468535Y-121429088D01*
X53460000Y-121423385D01*
X53460000Y-115576615D01*
X53468535Y-115570912D01*
X53570912Y-115468535D01*
X53651348Y-115348153D01*
X53706754Y-115214391D01*
X53735000Y-115072391D01*
X53735000Y-114927609D01*
X53706754Y-114785609D01*
X53651348Y-114651847D01*
X53570912Y-114531465D01*
X53468535Y-114429088D01*
X53348153Y-114348652D01*
X53214391Y-114293246D01*
X53072391Y-114265000D01*
X52927609Y-114265000D01*
X52785609Y-114293246D01*
X52651847Y-114348652D01*
X52531465Y-114429088D01*
X52429088Y-114531465D01*
X52348652Y-114651847D01*
X52293246Y-114785609D01*
X52265000Y-114927609D01*
X50460000Y-114927609D01*
X50460000Y-107485000D01*
X50572391Y-107485000D01*
X50714391Y-107456754D01*
X50848153Y-107401348D01*
X50968535Y-107320912D01*
X51070912Y-107218535D01*
X51151348Y-107098153D01*
X51206754Y-106964391D01*
X51235000Y-106822391D01*
X51235000Y-106677609D01*
X51206754Y-106535609D01*
X51151348Y-106401847D01*
X51070912Y-106281465D01*
X50968535Y-106179088D01*
X50848153Y-106098652D01*
X50714391Y-106043246D01*
X50572391Y-106015000D01*
X50427609Y-106015000D01*
X50285609Y-106043246D01*
X50151847Y-106098652D01*
X50031465Y-106179088D01*
X49929088Y-106281465D01*
X49848652Y-106401847D01*
X49793246Y-106535609D01*
X49765000Y-106677609D01*
X49765000Y-106822391D01*
X49767003Y-106832460D01*
X49690708Y-106908755D01*
X49673158Y-106923158D01*
X49615674Y-106993203D01*
X49572960Y-107073115D01*
X49546657Y-107159825D01*
X49540000Y-107227411D01*
X49540000Y-107227418D01*
X49537776Y-107250000D01*
X49540000Y-107272582D01*
X49540000Y-113574564D01*
X49464391Y-113543246D01*
X49322391Y-113515000D01*
X49177609Y-113515000D01*
X49035609Y-113543246D01*
X48960000Y-113574564D01*
X48960000Y-108522582D01*
X48962224Y-108500000D01*
X48960000Y-108477418D01*
X48960000Y-108477410D01*
X48953343Y-108409824D01*
X48927040Y-108323114D01*
X48884326Y-108243202D01*
X48826842Y-108173158D01*
X48809297Y-108158759D01*
X48537158Y-107886620D01*
X48800000Y-107886620D01*
X48865671Y-107880152D01*
X48928819Y-107860996D01*
X48987016Y-107829889D01*
X49038026Y-107788026D01*
X49079889Y-107737016D01*
X49110996Y-107678819D01*
X49130152Y-107615671D01*
X49136620Y-107550000D01*
X49136620Y-104950000D01*
X49130152Y-104884329D01*
X49110996Y-104821181D01*
X49079889Y-104762984D01*
X49038026Y-104711974D01*
X48987016Y-104670111D01*
X48928819Y-104639004D01*
X48865671Y-104619848D01*
X48800000Y-104613380D01*
X46200000Y-104613380D01*
X46134329Y-104619848D01*
X46071181Y-104639004D01*
X46012984Y-104670111D01*
X45961974Y-104711974D01*
X45920111Y-104762984D01*
X45889004Y-104821181D01*
X45869848Y-104884329D01*
X45863380Y-104950000D01*
X45863380Y-107550000D01*
X45869848Y-107615671D01*
X45889004Y-107678819D01*
X45920111Y-107737016D01*
X45961974Y-107788026D01*
X46012984Y-107829889D01*
X46071181Y-107860996D01*
X46134329Y-107880152D01*
X46200000Y-107886620D01*
X47236083Y-107886620D01*
X48040001Y-108690539D01*
X48040000Y-113500553D01*
X47968535Y-113429088D01*
X47848153Y-113348652D01*
X47714391Y-113293246D01*
X47572391Y-113265000D01*
X47427609Y-113265000D01*
X47285609Y-113293246D01*
X47151847Y-113348652D01*
X47031465Y-113429088D01*
X46929088Y-113531465D01*
X46919579Y-113545696D01*
X46909824Y-113546657D01*
X46823114Y-113572960D01*
X46743202Y-113615674D01*
X46673158Y-113673158D01*
X46658759Y-113690703D01*
X44582460Y-115767003D01*
X44572391Y-115765000D01*
X44427609Y-115765000D01*
X44285609Y-115793246D01*
X44210000Y-115824564D01*
X44210000Y-108826615D01*
X44218535Y-108820912D01*
X44320912Y-108718535D01*
X44401348Y-108598153D01*
X44456754Y-108464391D01*
X44485000Y-108322391D01*
X44485000Y-108177609D01*
X44456754Y-108035609D01*
X44401348Y-107901847D01*
X44320912Y-107781465D01*
X44218535Y-107679088D01*
X44204304Y-107669579D01*
X44203343Y-107659824D01*
X44177040Y-107573114D01*
X44134326Y-107493202D01*
X44076842Y-107423158D01*
X44006798Y-107365674D01*
X43926886Y-107322960D01*
X43840176Y-107296657D01*
X43750000Y-107287775D01*
X43659825Y-107296657D01*
X43573115Y-107322960D01*
X43493203Y-107365674D01*
X43423159Y-107423158D01*
X43365675Y-107493202D01*
X43322961Y-107573114D01*
X43296658Y-107659824D01*
X43295697Y-107669578D01*
X43281465Y-107679088D01*
X43179088Y-107781465D01*
X43098652Y-107901847D01*
X43043246Y-108035609D01*
X43015000Y-108177609D01*
X43015000Y-108322391D01*
X43043246Y-108464391D01*
X43098652Y-108598153D01*
X43179088Y-108718535D01*
X43281465Y-108820912D01*
X43290001Y-108826615D01*
X43290000Y-117173385D01*
X43281465Y-117179088D01*
X43179088Y-117281465D01*
X43125000Y-117362414D01*
X43070912Y-117281465D01*
X42968535Y-117179088D01*
X42960000Y-117173385D01*
X42960000Y-109826615D01*
X42968535Y-109820912D01*
X43070912Y-109718535D01*
X43151348Y-109598153D01*
X43206754Y-109464391D01*
X43235000Y-109322391D01*
X43235000Y-109177609D01*
X43206754Y-109035609D01*
X43151348Y-108901847D01*
X43070912Y-108781465D01*
X42968535Y-108679088D01*
X42848153Y-108598652D01*
X42714391Y-108543246D01*
X42572391Y-108515000D01*
X42427609Y-108515000D01*
X42285609Y-108543246D01*
X42151847Y-108598652D01*
X42031465Y-108679088D01*
X41929088Y-108781465D01*
X41848652Y-108901847D01*
X41793246Y-109035609D01*
X41765000Y-109177609D01*
X38460000Y-109177609D01*
X38460000Y-107327413D01*
X41605021Y-107327413D01*
X41766139Y-107479541D01*
X42020111Y-107599085D01*
X42292526Y-107666785D01*
X42572913Y-107680038D01*
X42850499Y-107638336D01*
X43114616Y-107543280D01*
X43233861Y-107479541D01*
X43394979Y-107327413D01*
X42500000Y-106432434D01*
X41605021Y-107327413D01*
X38460000Y-107327413D01*
X38460000Y-106322913D01*
X41069962Y-106322913D01*
X41111664Y-106600499D01*
X41206720Y-106864616D01*
X41270459Y-106983861D01*
X41422587Y-107144979D01*
X42317566Y-106250000D01*
X42682434Y-106250000D01*
X43577413Y-107144979D01*
X43729541Y-106983861D01*
X43849085Y-106729889D01*
X43916785Y-106457474D01*
X43930038Y-106177087D01*
X43888336Y-105899501D01*
X43793280Y-105635384D01*
X43729541Y-105516139D01*
X43577413Y-105355021D01*
X42682434Y-106250000D01*
X42317566Y-106250000D01*
X41422587Y-105355021D01*
X41270459Y-105516139D01*
X41150915Y-105770111D01*
X41083215Y-106042526D01*
X41069962Y-106322913D01*
X38460000Y-106322913D01*
X38460000Y-105172587D01*
X41605021Y-105172587D01*
X42500000Y-106067566D01*
X43394979Y-105172587D01*
X43233861Y-105020459D01*
X42979889Y-104900915D01*
X42707474Y-104833215D01*
X42427087Y-104819962D01*
X42149501Y-104861664D01*
X41885384Y-104956720D01*
X41766139Y-105020459D01*
X41605021Y-105172587D01*
X38460000Y-105172587D01*
X38460000Y-102022582D01*
X38462224Y-102000000D01*
X38460000Y-101977418D01*
X38460000Y-101977410D01*
X38453343Y-101909824D01*
X38427040Y-101823114D01*
X38384326Y-101743202D01*
X38326842Y-101673158D01*
X38309298Y-101658760D01*
X38232997Y-101582459D01*
X38235000Y-101572391D01*
X38235000Y-101427609D01*
X38206754Y-101285609D01*
X38151348Y-101151847D01*
X38070912Y-101031465D01*
X37968535Y-100929088D01*
X37848153Y-100848652D01*
X37714391Y-100793246D01*
X37572391Y-100765000D01*
X37427609Y-100765000D01*
X37285609Y-100793246D01*
X37151847Y-100848652D01*
X37031465Y-100929088D01*
X36929088Y-101031465D01*
X36848652Y-101151847D01*
X36793246Y-101285609D01*
X36765000Y-101427609D01*
X36765000Y-101572391D01*
X36793246Y-101714391D01*
X36848652Y-101848153D01*
X36929088Y-101968535D01*
X37031465Y-102070912D01*
X37151847Y-102151348D01*
X37285609Y-102206754D01*
X37427609Y-102235000D01*
X37540000Y-102235000D01*
X37540001Y-115423385D01*
X37531465Y-115429088D01*
X37429088Y-115531465D01*
X37348652Y-115651847D01*
X37293246Y-115785609D01*
X37265000Y-115927609D01*
X37265000Y-116072391D01*
X37267003Y-116082459D01*
X35690703Y-117658760D01*
X35673159Y-117673158D01*
X35615675Y-117743202D01*
X35608408Y-117756798D01*
X35572960Y-117823115D01*
X35546657Y-117909825D01*
X35537776Y-118000000D01*
X35540001Y-118022592D01*
X35540000Y-122265000D01*
X35427609Y-122265000D01*
X35285609Y-122293246D01*
X35151847Y-122348652D01*
X35031465Y-122429088D01*
X34929088Y-122531465D01*
X34848652Y-122651847D01*
X34793246Y-122785609D01*
X34765000Y-122927609D01*
X19935000Y-122927609D01*
X19935000Y-101114736D01*
X20376645Y-101114736D01*
X20376645Y-101385264D01*
X20429422Y-101650593D01*
X20532949Y-101900527D01*
X20683246Y-102125463D01*
X20874537Y-102316754D01*
X21099473Y-102467051D01*
X21349407Y-102570578D01*
X21614736Y-102623355D01*
X21885264Y-102623355D01*
X22150593Y-102570578D01*
X22400527Y-102467051D01*
X22625463Y-102316754D01*
X22816754Y-102125463D01*
X22967051Y-101900527D01*
X23070578Y-101650593D01*
X23123355Y-101385264D01*
X23123355Y-101114736D01*
X23070578Y-100849407D01*
X22967051Y-100599473D01*
X22816754Y-100374537D01*
X22625463Y-100183246D01*
X22400527Y-100032949D01*
X22150593Y-99929422D01*
X21885264Y-99876645D01*
X21614736Y-99876645D01*
X21349407Y-99929422D01*
X21099473Y-100032949D01*
X20874537Y-100183246D01*
X20683246Y-100374537D01*
X20532949Y-100599473D01*
X20429422Y-100849407D01*
X20376645Y-101114736D01*
X19935000Y-101114736D01*
X19935000Y-99435000D01*
X81565000Y-99435000D01*
X81565001Y-139565000D01*
G37*
%TD.AperFunction*%
%TD*%
M02*
