%TF.GenerationSoftware,KiCad,Pcbnew,(5.1.9-0-10_14)*%
%TF.CreationDate,2021-07-01T16:44:21-07:00*%
%TF.ProjectId,vantroller_v5_switch,76616e74-726f-46c6-9c65-725f76355f73,rev?*%
%TF.SameCoordinates,Original*%
%TF.FileFunction,Legend,Top*%
%TF.FilePolarity,Positive*%
%FSLAX46Y46*%
G04 Gerber Fmt 4.6, Leading zero omitted, Abs format (unit mm)*
G04 Created by KiCad (PCBNEW (5.1.9-0-10_14)) date 2021-07-01 16:44:21*
%MOMM*%
%LPD*%
G01*
G04 APERTURE LIST*
%ADD10C,0.127000*%
%ADD11C,0.200000*%
%ADD12C,0.120000*%
%ADD13C,0.152400*%
%ADD14C,0.015000*%
%ADD15C,0.150000*%
G04 APERTURE END LIST*
D10*
%TO.C,U2*%
X64450000Y-114500000D02*
X62500000Y-114500000D01*
X51550000Y-114500000D02*
X53500000Y-114500000D01*
D11*
X50600000Y-100150000D02*
G75*
G03*
X50600000Y-100150000I-100000J0D01*
G01*
D10*
X51550000Y-99500000D02*
X64450000Y-99500000D01*
D12*
%TO.C,U6*%
X45250000Y-114500000D02*
X47200000Y-114500000D01*
X45250000Y-114500000D02*
X45250000Y-114600000D01*
X47200000Y-116800000D02*
X45700000Y-116800000D01*
%TO.C,U5*%
X42195001Y-114485001D02*
X44145001Y-114485001D01*
X42195001Y-114485001D02*
X42195001Y-114585001D01*
X44145001Y-116785001D02*
X42645001Y-116785001D01*
%TO.C,U1*%
X64900000Y-125880000D02*
X64900000Y-115230000D01*
X64900000Y-115220000D02*
X48140000Y-115220000D01*
X48140000Y-115220000D02*
X48140000Y-125880000D01*
X48140000Y-125880000D02*
X64900000Y-125880000D01*
%TO.C,S3*%
X65000000Y-126500000D02*
X65000000Y-138500000D01*
X77000000Y-126500000D02*
X77000000Y-138500000D01*
X65000000Y-138500000D02*
X77000000Y-138500000D01*
X65000000Y-126500000D02*
X77000000Y-126500000D01*
%TO.C,S2*%
X45000000Y-126500000D02*
X45000000Y-138500000D01*
X57000000Y-126500000D02*
X57000000Y-138500000D01*
X45000000Y-138500000D02*
X57000000Y-138500000D01*
X45000000Y-126500000D02*
X57000000Y-126500000D01*
%TO.C,S1*%
X24500000Y-126500000D02*
X24500000Y-138500000D01*
X36500000Y-126500000D02*
X36500000Y-138500000D01*
X24500000Y-138500000D02*
X36500000Y-138500000D01*
X24500000Y-126500000D02*
X36500000Y-126500000D01*
%TO.C,R28*%
X48737258Y-112022500D02*
X48262742Y-112022500D01*
X48737258Y-110977500D02*
X48262742Y-110977500D01*
%TO.C,R8*%
X68846359Y-124120000D02*
X69153641Y-124120000D01*
X68846359Y-124880000D02*
X69153641Y-124880000D01*
%TO.C,R7*%
X68846359Y-122620000D02*
X69153641Y-122620000D01*
X68846359Y-123380000D02*
X69153641Y-123380000D01*
%TO.C,R6*%
X79410000Y-129272936D02*
X79410000Y-130727064D01*
X77590000Y-129272936D02*
X77590000Y-130727064D01*
%TO.C,R5*%
X78346359Y-126620000D02*
X78653641Y-126620000D01*
X78346359Y-127380000D02*
X78653641Y-127380000D01*
%TO.C,R4*%
X59410000Y-129272936D02*
X59410000Y-130727064D01*
X57590000Y-129272936D02*
X57590000Y-130727064D01*
%TO.C,R3*%
X58346359Y-126620000D02*
X58653641Y-126620000D01*
X58346359Y-127380000D02*
X58653641Y-127380000D01*
%TO.C,R2*%
X38910000Y-129272936D02*
X38910000Y-130727064D01*
X37090000Y-129272936D02*
X37090000Y-130727064D01*
%TO.C,R1*%
X37846359Y-126620000D02*
X38153641Y-126620000D01*
X37846359Y-127380000D02*
X38153641Y-127380000D01*
D13*
%TO.C,J3*%
X39998100Y-125261740D02*
X40595000Y-126455540D01*
X40595000Y-126455540D02*
X39325000Y-126455540D01*
X39325000Y-126455540D02*
X39921900Y-125261740D01*
X45802000Y-124167000D02*
X45802000Y-118833000D01*
X39198000Y-118833000D02*
X39198000Y-124167000D01*
X44913000Y-124230500D02*
X44913000Y-124611500D01*
X44913000Y-124611500D02*
X45167000Y-124611500D01*
X45167000Y-124611500D02*
X45167000Y-124230500D01*
X45167000Y-124230500D02*
X44913000Y-124230500D01*
X39325000Y-118960000D02*
X39756800Y-118960000D01*
X39756800Y-118960000D02*
X39756800Y-118071000D01*
X39756800Y-118071000D02*
X45243200Y-118071000D01*
X45243200Y-118071000D02*
X45243200Y-118960000D01*
X45243200Y-118960000D02*
X45675000Y-118960000D01*
X45675000Y-124040000D02*
X45243200Y-124040000D01*
X45243200Y-124040000D02*
X45243200Y-124929000D01*
X45243200Y-124929000D02*
X39756800Y-124929000D01*
X39756800Y-124929000D02*
X39756800Y-124040000D01*
X39756800Y-124040000D02*
X39325000Y-124040000D01*
X39325000Y-124040000D02*
X39325000Y-118960000D01*
X39325000Y-118960000D02*
X45675000Y-118960000D01*
X45675000Y-118960000D02*
X45675000Y-124040000D01*
X45675000Y-124040000D02*
X39325000Y-124040000D01*
D12*
%TO.C,J1*%
X49680000Y-106250000D02*
G75*
G03*
X49680000Y-106250000I-2180000J0D01*
G01*
X44680000Y-106250000D02*
G75*
G03*
X44680000Y-106250000I-2180000J0D01*
G01*
X50060000Y-101650000D02*
X39940000Y-101650000D01*
X50060000Y-102750000D02*
X39940000Y-102750000D01*
X50060000Y-110310000D02*
X39940000Y-110310000D01*
X50060000Y-101190000D02*
X39940000Y-101190000D01*
X50060000Y-110310000D02*
X50060000Y-101190000D01*
X39940000Y-110310000D02*
X39940000Y-101190000D01*
X45846000Y-107638000D02*
X45953000Y-107531000D01*
X48782000Y-104703000D02*
X48888000Y-104596000D01*
X46112000Y-107904000D02*
X46219000Y-107797000D01*
X49048000Y-104969000D02*
X49154000Y-104862000D01*
X40846000Y-107638000D02*
X41241000Y-107242000D01*
X43507000Y-104976000D02*
X43887000Y-104596000D01*
X41112000Y-107904000D02*
X41492000Y-107524000D01*
X43758000Y-105258000D02*
X44153000Y-104862000D01*
X50300000Y-101590000D02*
X50300000Y-100950000D01*
X50300000Y-100950000D02*
X49900000Y-100950000D01*
%TO.C,C7*%
X45061252Y-113860000D02*
X43638748Y-113860000D01*
X45061252Y-111140000D02*
X43638748Y-111140000D01*
%TO.C,C4*%
X39740000Y-115311252D02*
X39740000Y-113888748D01*
X41560000Y-115311252D02*
X41560000Y-113888748D01*
%TO.C,BT1*%
X25020000Y-101470000D02*
X21070000Y-102910000D01*
X36190000Y-103550000D02*
X34110000Y-101470000D01*
X36190000Y-107050000D02*
X36190000Y-103550000D01*
X36190000Y-120950000D02*
X34110000Y-123030000D01*
X25020000Y-123030000D02*
X21070000Y-121590000D01*
X34110000Y-101470000D02*
X31650000Y-101470000D01*
X25650000Y-101470000D02*
X25020000Y-101470000D01*
X34110000Y-123030000D02*
X31650000Y-123030000D01*
X25650000Y-123030000D02*
X25020000Y-123030000D01*
X36190000Y-120950000D02*
X36190000Y-117450000D01*
X21061831Y-121575244D02*
G75*
G02*
X20100000Y-118250000I738169J2015244D01*
G01*
X20083470Y-106246646D02*
G75*
G02*
X21070000Y-102910000I1716530J1306646D01*
G01*
%TO.C,U2*%
D14*
X53363095Y-97967380D02*
X53363095Y-98776904D01*
X53410714Y-98872142D01*
X53458333Y-98919761D01*
X53553571Y-98967380D01*
X53744047Y-98967380D01*
X53839285Y-98919761D01*
X53886904Y-98872142D01*
X53934523Y-98776904D01*
X53934523Y-97967380D01*
X54363095Y-98062619D02*
X54410714Y-98015000D01*
X54505952Y-97967380D01*
X54744047Y-97967380D01*
X54839285Y-98015000D01*
X54886904Y-98062619D01*
X54934523Y-98157857D01*
X54934523Y-98253095D01*
X54886904Y-98395952D01*
X54315476Y-98967380D01*
X54934523Y-98967380D01*
%TO.C,U6*%
D15*
X45688095Y-117202380D02*
X45688095Y-118011904D01*
X45735714Y-118107142D01*
X45783333Y-118154761D01*
X45878571Y-118202380D01*
X46069047Y-118202380D01*
X46164285Y-118154761D01*
X46211904Y-118107142D01*
X46259523Y-118011904D01*
X46259523Y-117202380D01*
X47164285Y-117202380D02*
X46973809Y-117202380D01*
X46878571Y-117250000D01*
X46830952Y-117297619D01*
X46735714Y-117440476D01*
X46688095Y-117630952D01*
X46688095Y-118011904D01*
X46735714Y-118107142D01*
X46783333Y-118154761D01*
X46878571Y-118202380D01*
X47069047Y-118202380D01*
X47164285Y-118154761D01*
X47211904Y-118107142D01*
X47259523Y-118011904D01*
X47259523Y-117773809D01*
X47211904Y-117678571D01*
X47164285Y-117630952D01*
X47069047Y-117583333D01*
X46878571Y-117583333D01*
X46783333Y-117630952D01*
X46735714Y-117678571D01*
X46688095Y-117773809D01*
%TO.C,U5*%
X40738095Y-116702380D02*
X40738095Y-117511904D01*
X40785714Y-117607142D01*
X40833333Y-117654761D01*
X40928571Y-117702380D01*
X41119047Y-117702380D01*
X41214285Y-117654761D01*
X41261904Y-117607142D01*
X41309523Y-117511904D01*
X41309523Y-116702380D01*
X42261904Y-116702380D02*
X41785714Y-116702380D01*
X41738095Y-117178571D01*
X41785714Y-117130952D01*
X41880952Y-117083333D01*
X42119047Y-117083333D01*
X42214285Y-117130952D01*
X42261904Y-117178571D01*
X42309523Y-117273809D01*
X42309523Y-117511904D01*
X42261904Y-117607142D01*
X42214285Y-117654761D01*
X42119047Y-117702380D01*
X41880952Y-117702380D01*
X41785714Y-117654761D01*
X41738095Y-117607142D01*
%TO.C,U1*%
X65492380Y-118761904D02*
X66301904Y-118761904D01*
X66397142Y-118714285D01*
X66444761Y-118666666D01*
X66492380Y-118571428D01*
X66492380Y-118380952D01*
X66444761Y-118285714D01*
X66397142Y-118238095D01*
X66301904Y-118190476D01*
X65492380Y-118190476D01*
X66492380Y-117190476D02*
X66492380Y-117761904D01*
X66492380Y-117476190D02*
X65492380Y-117476190D01*
X65635238Y-117571428D01*
X65730476Y-117666666D01*
X65778095Y-117761904D01*
%TO.C,S3*%
X70238095Y-125284761D02*
X70380952Y-125332380D01*
X70619047Y-125332380D01*
X70714285Y-125284761D01*
X70761904Y-125237142D01*
X70809523Y-125141904D01*
X70809523Y-125046666D01*
X70761904Y-124951428D01*
X70714285Y-124903809D01*
X70619047Y-124856190D01*
X70428571Y-124808571D01*
X70333333Y-124760952D01*
X70285714Y-124713333D01*
X70238095Y-124618095D01*
X70238095Y-124522857D01*
X70285714Y-124427619D01*
X70333333Y-124380000D01*
X70428571Y-124332380D01*
X70666666Y-124332380D01*
X70809523Y-124380000D01*
X71142857Y-124332380D02*
X71761904Y-124332380D01*
X71428571Y-124713333D01*
X71571428Y-124713333D01*
X71666666Y-124760952D01*
X71714285Y-124808571D01*
X71761904Y-124903809D01*
X71761904Y-125141904D01*
X71714285Y-125237142D01*
X71666666Y-125284761D01*
X71571428Y-125332380D01*
X71285714Y-125332380D01*
X71190476Y-125284761D01*
X71142857Y-125237142D01*
%TO.C,S2*%
X50238095Y-125284761D02*
X50380952Y-125332380D01*
X50619047Y-125332380D01*
X50714285Y-125284761D01*
X50761904Y-125237142D01*
X50809523Y-125141904D01*
X50809523Y-125046666D01*
X50761904Y-124951428D01*
X50714285Y-124903809D01*
X50619047Y-124856190D01*
X50428571Y-124808571D01*
X50333333Y-124760952D01*
X50285714Y-124713333D01*
X50238095Y-124618095D01*
X50238095Y-124522857D01*
X50285714Y-124427619D01*
X50333333Y-124380000D01*
X50428571Y-124332380D01*
X50666666Y-124332380D01*
X50809523Y-124380000D01*
X51190476Y-124427619D02*
X51238095Y-124380000D01*
X51333333Y-124332380D01*
X51571428Y-124332380D01*
X51666666Y-124380000D01*
X51714285Y-124427619D01*
X51761904Y-124522857D01*
X51761904Y-124618095D01*
X51714285Y-124760952D01*
X51142857Y-125332380D01*
X51761904Y-125332380D01*
%TO.C,S1*%
X29738095Y-125284761D02*
X29880952Y-125332380D01*
X30119047Y-125332380D01*
X30214285Y-125284761D01*
X30261904Y-125237142D01*
X30309523Y-125141904D01*
X30309523Y-125046666D01*
X30261904Y-124951428D01*
X30214285Y-124903809D01*
X30119047Y-124856190D01*
X29928571Y-124808571D01*
X29833333Y-124760952D01*
X29785714Y-124713333D01*
X29738095Y-124618095D01*
X29738095Y-124522857D01*
X29785714Y-124427619D01*
X29833333Y-124380000D01*
X29928571Y-124332380D01*
X30166666Y-124332380D01*
X30309523Y-124380000D01*
X31261904Y-125332380D02*
X30690476Y-125332380D01*
X30976190Y-125332380D02*
X30976190Y-124332380D01*
X30880952Y-124475238D01*
X30785714Y-124570476D01*
X30690476Y-124618095D01*
%TO.C,R28*%
X48857142Y-113202380D02*
X48523809Y-112726190D01*
X48285714Y-113202380D02*
X48285714Y-112202380D01*
X48666666Y-112202380D01*
X48761904Y-112250000D01*
X48809523Y-112297619D01*
X48857142Y-112392857D01*
X48857142Y-112535714D01*
X48809523Y-112630952D01*
X48761904Y-112678571D01*
X48666666Y-112726190D01*
X48285714Y-112726190D01*
X49238095Y-112297619D02*
X49285714Y-112250000D01*
X49380952Y-112202380D01*
X49619047Y-112202380D01*
X49714285Y-112250000D01*
X49761904Y-112297619D01*
X49809523Y-112392857D01*
X49809523Y-112488095D01*
X49761904Y-112630952D01*
X49190476Y-113202380D01*
X49809523Y-113202380D01*
X50380952Y-112630952D02*
X50285714Y-112583333D01*
X50238095Y-112535714D01*
X50190476Y-112440476D01*
X50190476Y-112392857D01*
X50238095Y-112297619D01*
X50285714Y-112250000D01*
X50380952Y-112202380D01*
X50571428Y-112202380D01*
X50666666Y-112250000D01*
X50714285Y-112297619D01*
X50761904Y-112392857D01*
X50761904Y-112440476D01*
X50714285Y-112535714D01*
X50666666Y-112583333D01*
X50571428Y-112630952D01*
X50380952Y-112630952D01*
X50285714Y-112678571D01*
X50238095Y-112726190D01*
X50190476Y-112821428D01*
X50190476Y-113011904D01*
X50238095Y-113107142D01*
X50285714Y-113154761D01*
X50380952Y-113202380D01*
X50571428Y-113202380D01*
X50666666Y-113154761D01*
X50714285Y-113107142D01*
X50761904Y-113011904D01*
X50761904Y-112821428D01*
X50714285Y-112726190D01*
X50666666Y-112678571D01*
X50571428Y-112630952D01*
%TO.C,R8*%
X66833333Y-125202380D02*
X66500000Y-124726190D01*
X66261904Y-125202380D02*
X66261904Y-124202380D01*
X66642857Y-124202380D01*
X66738095Y-124250000D01*
X66785714Y-124297619D01*
X66833333Y-124392857D01*
X66833333Y-124535714D01*
X66785714Y-124630952D01*
X66738095Y-124678571D01*
X66642857Y-124726190D01*
X66261904Y-124726190D01*
X67404761Y-124630952D02*
X67309523Y-124583333D01*
X67261904Y-124535714D01*
X67214285Y-124440476D01*
X67214285Y-124392857D01*
X67261904Y-124297619D01*
X67309523Y-124250000D01*
X67404761Y-124202380D01*
X67595238Y-124202380D01*
X67690476Y-124250000D01*
X67738095Y-124297619D01*
X67785714Y-124392857D01*
X67785714Y-124440476D01*
X67738095Y-124535714D01*
X67690476Y-124583333D01*
X67595238Y-124630952D01*
X67404761Y-124630952D01*
X67309523Y-124678571D01*
X67261904Y-124726190D01*
X67214285Y-124821428D01*
X67214285Y-125011904D01*
X67261904Y-125107142D01*
X67309523Y-125154761D01*
X67404761Y-125202380D01*
X67595238Y-125202380D01*
X67690476Y-125154761D01*
X67738095Y-125107142D01*
X67785714Y-125011904D01*
X67785714Y-124821428D01*
X67738095Y-124726190D01*
X67690476Y-124678571D01*
X67595238Y-124630952D01*
%TO.C,R7*%
X68833333Y-122282380D02*
X68500000Y-121806190D01*
X68261904Y-122282380D02*
X68261904Y-121282380D01*
X68642857Y-121282380D01*
X68738095Y-121330000D01*
X68785714Y-121377619D01*
X68833333Y-121472857D01*
X68833333Y-121615714D01*
X68785714Y-121710952D01*
X68738095Y-121758571D01*
X68642857Y-121806190D01*
X68261904Y-121806190D01*
X69166666Y-121282380D02*
X69833333Y-121282380D01*
X69404761Y-122282380D01*
%TO.C,R6*%
X80772380Y-130166666D02*
X80296190Y-130500000D01*
X80772380Y-130738095D02*
X79772380Y-130738095D01*
X79772380Y-130357142D01*
X79820000Y-130261904D01*
X79867619Y-130214285D01*
X79962857Y-130166666D01*
X80105714Y-130166666D01*
X80200952Y-130214285D01*
X80248571Y-130261904D01*
X80296190Y-130357142D01*
X80296190Y-130738095D01*
X79772380Y-129309523D02*
X79772380Y-129500000D01*
X79820000Y-129595238D01*
X79867619Y-129642857D01*
X80010476Y-129738095D01*
X80200952Y-129785714D01*
X80581904Y-129785714D01*
X80677142Y-129738095D01*
X80724761Y-129690476D01*
X80772380Y-129595238D01*
X80772380Y-129404761D01*
X80724761Y-129309523D01*
X80677142Y-129261904D01*
X80581904Y-129214285D01*
X80343809Y-129214285D01*
X80248571Y-129261904D01*
X80200952Y-129309523D01*
X80153333Y-129404761D01*
X80153333Y-129595238D01*
X80200952Y-129690476D01*
X80248571Y-129738095D01*
X80343809Y-129785714D01*
%TO.C,R5*%
X78333333Y-126282380D02*
X78000000Y-125806190D01*
X77761904Y-126282380D02*
X77761904Y-125282380D01*
X78142857Y-125282380D01*
X78238095Y-125330000D01*
X78285714Y-125377619D01*
X78333333Y-125472857D01*
X78333333Y-125615714D01*
X78285714Y-125710952D01*
X78238095Y-125758571D01*
X78142857Y-125806190D01*
X77761904Y-125806190D01*
X79238095Y-125282380D02*
X78761904Y-125282380D01*
X78714285Y-125758571D01*
X78761904Y-125710952D01*
X78857142Y-125663333D01*
X79095238Y-125663333D01*
X79190476Y-125710952D01*
X79238095Y-125758571D01*
X79285714Y-125853809D01*
X79285714Y-126091904D01*
X79238095Y-126187142D01*
X79190476Y-126234761D01*
X79095238Y-126282380D01*
X78857142Y-126282380D01*
X78761904Y-126234761D01*
X78714285Y-126187142D01*
%TO.C,R4*%
X60772380Y-130166666D02*
X60296190Y-130500000D01*
X60772380Y-130738095D02*
X59772380Y-130738095D01*
X59772380Y-130357142D01*
X59820000Y-130261904D01*
X59867619Y-130214285D01*
X59962857Y-130166666D01*
X60105714Y-130166666D01*
X60200952Y-130214285D01*
X60248571Y-130261904D01*
X60296190Y-130357142D01*
X60296190Y-130738095D01*
X60105714Y-129309523D02*
X60772380Y-129309523D01*
X59724761Y-129547619D02*
X60439047Y-129785714D01*
X60439047Y-129166666D01*
%TO.C,R3*%
X58333333Y-126282380D02*
X58000000Y-125806190D01*
X57761904Y-126282380D02*
X57761904Y-125282380D01*
X58142857Y-125282380D01*
X58238095Y-125330000D01*
X58285714Y-125377619D01*
X58333333Y-125472857D01*
X58333333Y-125615714D01*
X58285714Y-125710952D01*
X58238095Y-125758571D01*
X58142857Y-125806190D01*
X57761904Y-125806190D01*
X58666666Y-125282380D02*
X59285714Y-125282380D01*
X58952380Y-125663333D01*
X59095238Y-125663333D01*
X59190476Y-125710952D01*
X59238095Y-125758571D01*
X59285714Y-125853809D01*
X59285714Y-126091904D01*
X59238095Y-126187142D01*
X59190476Y-126234761D01*
X59095238Y-126282380D01*
X58809523Y-126282380D01*
X58714285Y-126234761D01*
X58666666Y-126187142D01*
%TO.C,R2*%
X40272380Y-130166666D02*
X39796190Y-130500000D01*
X40272380Y-130738095D02*
X39272380Y-130738095D01*
X39272380Y-130357142D01*
X39320000Y-130261904D01*
X39367619Y-130214285D01*
X39462857Y-130166666D01*
X39605714Y-130166666D01*
X39700952Y-130214285D01*
X39748571Y-130261904D01*
X39796190Y-130357142D01*
X39796190Y-130738095D01*
X39367619Y-129785714D02*
X39320000Y-129738095D01*
X39272380Y-129642857D01*
X39272380Y-129404761D01*
X39320000Y-129309523D01*
X39367619Y-129261904D01*
X39462857Y-129214285D01*
X39558095Y-129214285D01*
X39700952Y-129261904D01*
X40272380Y-129833333D01*
X40272380Y-129214285D01*
%TO.C,R1*%
X37833333Y-126282380D02*
X37500000Y-125806190D01*
X37261904Y-126282380D02*
X37261904Y-125282380D01*
X37642857Y-125282380D01*
X37738095Y-125330000D01*
X37785714Y-125377619D01*
X37833333Y-125472857D01*
X37833333Y-125615714D01*
X37785714Y-125710952D01*
X37738095Y-125758571D01*
X37642857Y-125806190D01*
X37261904Y-125806190D01*
X38785714Y-126282380D02*
X38214285Y-126282380D01*
X38500000Y-126282380D02*
X38500000Y-125282380D01*
X38404761Y-125425238D01*
X38309523Y-125520476D01*
X38214285Y-125568095D01*
%TO.C,J3*%
X42166666Y-120952380D02*
X42166666Y-121666666D01*
X42119047Y-121809523D01*
X42023809Y-121904761D01*
X41880952Y-121952380D01*
X41785714Y-121952380D01*
X42547619Y-120952380D02*
X43166666Y-120952380D01*
X42833333Y-121333333D01*
X42976190Y-121333333D01*
X43071428Y-121380952D01*
X43119047Y-121428571D01*
X43166666Y-121523809D01*
X43166666Y-121761904D01*
X43119047Y-121857142D01*
X43071428Y-121904761D01*
X42976190Y-121952380D01*
X42690476Y-121952380D01*
X42595238Y-121904761D01*
X42547619Y-121857142D01*
X33952380Y-121428571D02*
X33619047Y-121428571D01*
X33619047Y-121952380D02*
X33619047Y-120952380D01*
X34095238Y-120952380D01*
X34333333Y-120952380D02*
X34904761Y-120952380D01*
X34619047Y-121952380D02*
X34619047Y-120952380D01*
X35190476Y-121904761D02*
X35333333Y-121952380D01*
X35571428Y-121952380D01*
X35666666Y-121904761D01*
X35714285Y-121857142D01*
X35761904Y-121761904D01*
X35761904Y-121666666D01*
X35714285Y-121571428D01*
X35666666Y-121523809D01*
X35571428Y-121476190D01*
X35380952Y-121428571D01*
X35285714Y-121380952D01*
X35238095Y-121333333D01*
X35190476Y-121238095D01*
X35190476Y-121142857D01*
X35238095Y-121047619D01*
X35285714Y-121000000D01*
X35380952Y-120952380D01*
X35619047Y-120952380D01*
X35761904Y-121000000D01*
X36190476Y-121952380D02*
X36190476Y-120952380D01*
X36190476Y-121428571D02*
X36761904Y-121428571D01*
X36761904Y-121952380D02*
X36761904Y-120952380D01*
X37238095Y-121571428D02*
X38000000Y-121571428D01*
X39000000Y-121952380D02*
X38428571Y-121952380D01*
X38714285Y-121952380D02*
X38714285Y-120952380D01*
X38619047Y-121095238D01*
X38523809Y-121190476D01*
X38428571Y-121238095D01*
X39619047Y-120952380D02*
X39714285Y-120952380D01*
X39809523Y-121000000D01*
X39857142Y-121047619D01*
X39904761Y-121142857D01*
X39952380Y-121333333D01*
X39952380Y-121571428D01*
X39904761Y-121761904D01*
X39857142Y-121857142D01*
X39809523Y-121904761D01*
X39714285Y-121952380D01*
X39619047Y-121952380D01*
X39523809Y-121904761D01*
X39476190Y-121857142D01*
X39428571Y-121761904D01*
X39380952Y-121571428D01*
X39380952Y-121333333D01*
X39428571Y-121142857D01*
X39476190Y-121047619D01*
X39523809Y-121000000D01*
X39619047Y-120952380D01*
X40857142Y-120952380D02*
X40380952Y-120952380D01*
X40333333Y-121428571D01*
X40380952Y-121380952D01*
X40476190Y-121333333D01*
X40714285Y-121333333D01*
X40809523Y-121380952D01*
X40857142Y-121428571D01*
X40904761Y-121523809D01*
X40904761Y-121761904D01*
X40857142Y-121857142D01*
X40809523Y-121904761D01*
X40714285Y-121952380D01*
X40476190Y-121952380D01*
X40380952Y-121904761D01*
X40333333Y-121857142D01*
X41333333Y-121571428D02*
X42095238Y-121571428D01*
X42761904Y-120952380D02*
X42857142Y-120952380D01*
X42952380Y-121000000D01*
X43000000Y-121047619D01*
X43047619Y-121142857D01*
X43095238Y-121333333D01*
X43095238Y-121571428D01*
X43047619Y-121761904D01*
X43000000Y-121857142D01*
X42952380Y-121904761D01*
X42857142Y-121952380D01*
X42761904Y-121952380D01*
X42666666Y-121904761D01*
X42619047Y-121857142D01*
X42571428Y-121761904D01*
X42523809Y-121571428D01*
X42523809Y-121333333D01*
X42571428Y-121142857D01*
X42619047Y-121047619D01*
X42666666Y-121000000D01*
X42761904Y-120952380D01*
X44047619Y-121952380D02*
X43476190Y-121952380D01*
X43761904Y-121952380D02*
X43761904Y-120952380D01*
X43666666Y-121095238D01*
X43571428Y-121190476D01*
X43476190Y-121238095D01*
X44476190Y-121571428D02*
X45238095Y-121571428D01*
X46190476Y-121952380D02*
X45714285Y-121952380D01*
X45714285Y-120952380D01*
X46523809Y-121571428D02*
X47285714Y-121571428D01*
X47761904Y-121952380D02*
X47761904Y-120952380D01*
X48000000Y-120952380D01*
X48142857Y-121000000D01*
X48238095Y-121095238D01*
X48285714Y-121190476D01*
X48333333Y-121380952D01*
X48333333Y-121523809D01*
X48285714Y-121714285D01*
X48238095Y-121809523D01*
X48142857Y-121904761D01*
X48000000Y-121952380D01*
X47761904Y-121952380D01*
X48619047Y-120952380D02*
X48952380Y-121952380D01*
X49285714Y-120952380D01*
X49619047Y-121571428D02*
X50380952Y-121571428D01*
X50857142Y-121952380D02*
X50857142Y-120952380D01*
X51428571Y-121952380D02*
X51000000Y-121380952D01*
X51428571Y-120952380D02*
X50857142Y-121523809D01*
X42500000Y-120952380D02*
X42500000Y-121190476D01*
X42261904Y-121095238D02*
X42500000Y-121190476D01*
X42738095Y-121095238D01*
X42357142Y-121380952D02*
X42500000Y-121190476D01*
X42642857Y-121380952D01*
X38531285Y-119015619D02*
X38578904Y-118968000D01*
X38674142Y-118920380D01*
X38912238Y-118920380D01*
X39007476Y-118968000D01*
X39055095Y-119015619D01*
X39102714Y-119110857D01*
X39102714Y-119206095D01*
X39055095Y-119348952D01*
X38483666Y-119920380D01*
X39102714Y-119920380D01*
X39102714Y-123984380D02*
X38531285Y-123984380D01*
X38817000Y-123984380D02*
X38817000Y-122984380D01*
X38721761Y-123127238D01*
X38626523Y-123222476D01*
X38531285Y-123270095D01*
X45992523Y-119920380D02*
X45421095Y-119920380D01*
X45706809Y-119920380D02*
X45706809Y-118920380D01*
X45611571Y-119063238D01*
X45516333Y-119158476D01*
X45421095Y-119206095D01*
X46611571Y-118920380D02*
X46706809Y-118920380D01*
X46802047Y-118968000D01*
X46849666Y-119015619D01*
X46897285Y-119110857D01*
X46944904Y-119301333D01*
X46944904Y-119539428D01*
X46897285Y-119729904D01*
X46849666Y-119825142D01*
X46802047Y-119872761D01*
X46706809Y-119920380D01*
X46611571Y-119920380D01*
X46516333Y-119872761D01*
X46468714Y-119825142D01*
X46421095Y-119729904D01*
X46373476Y-119539428D01*
X46373476Y-119301333D01*
X46421095Y-119110857D01*
X46468714Y-119015619D01*
X46516333Y-118968000D01*
X46611571Y-118920380D01*
X45992523Y-123984380D02*
X46183000Y-123984380D01*
X46278238Y-123936761D01*
X46325857Y-123889142D01*
X46421095Y-123746285D01*
X46468714Y-123555809D01*
X46468714Y-123174857D01*
X46421095Y-123079619D01*
X46373476Y-123032000D01*
X46278238Y-122984380D01*
X46087761Y-122984380D01*
X45992523Y-123032000D01*
X45944904Y-123079619D01*
X45897285Y-123174857D01*
X45897285Y-123412952D01*
X45944904Y-123508190D01*
X45992523Y-123555809D01*
X46087761Y-123603428D01*
X46278238Y-123603428D01*
X46373476Y-123555809D01*
X46421095Y-123508190D01*
X46468714Y-123412952D01*
%TO.C,J1*%
X38416666Y-106702380D02*
X38416666Y-107416666D01*
X38369047Y-107559523D01*
X38273809Y-107654761D01*
X38130952Y-107702380D01*
X38035714Y-107702380D01*
X39416666Y-107702380D02*
X38845238Y-107702380D01*
X39130952Y-107702380D02*
X39130952Y-106702380D01*
X39035714Y-106845238D01*
X38940476Y-106940476D01*
X38845238Y-106988095D01*
%TO.C,C7*%
X41333333Y-111857142D02*
X41285714Y-111904761D01*
X41142857Y-111952380D01*
X41047619Y-111952380D01*
X40904761Y-111904761D01*
X40809523Y-111809523D01*
X40761904Y-111714285D01*
X40714285Y-111523809D01*
X40714285Y-111380952D01*
X40761904Y-111190476D01*
X40809523Y-111095238D01*
X40904761Y-111000000D01*
X41047619Y-110952380D01*
X41142857Y-110952380D01*
X41285714Y-111000000D01*
X41333333Y-111047619D01*
X41666666Y-110952380D02*
X42333333Y-110952380D01*
X41904761Y-111952380D01*
%TO.C,C4*%
X38333333Y-116357142D02*
X38285714Y-116404761D01*
X38142857Y-116452380D01*
X38047619Y-116452380D01*
X37904761Y-116404761D01*
X37809523Y-116309523D01*
X37761904Y-116214285D01*
X37714285Y-116023809D01*
X37714285Y-115880952D01*
X37761904Y-115690476D01*
X37809523Y-115595238D01*
X37904761Y-115500000D01*
X38047619Y-115452380D01*
X38142857Y-115452380D01*
X38285714Y-115500000D01*
X38333333Y-115547619D01*
X39190476Y-115785714D02*
X39190476Y-116452380D01*
X38952380Y-115404761D02*
X38714285Y-116119047D01*
X39333333Y-116119047D01*
%TO.C,BT1*%
X38428571Y-113535714D02*
X38476190Y-113392857D01*
X38523809Y-113345238D01*
X38619047Y-113297619D01*
X38761904Y-113297619D01*
X38857142Y-113345238D01*
X38904761Y-113392857D01*
X38952380Y-113488095D01*
X38952380Y-113869047D01*
X37952380Y-113869047D01*
X37952380Y-113535714D01*
X38000000Y-113440476D01*
X38047619Y-113392857D01*
X38142857Y-113345238D01*
X38238095Y-113345238D01*
X38333333Y-113392857D01*
X38380952Y-113440476D01*
X38428571Y-113535714D01*
X38428571Y-113869047D01*
X37952380Y-113011904D02*
X37952380Y-112440476D01*
X38952380Y-112726190D02*
X37952380Y-112726190D01*
X38952380Y-111583333D02*
X38952380Y-112154761D01*
X38952380Y-111869047D02*
X37952380Y-111869047D01*
X38095238Y-111964285D01*
X38190476Y-112059523D01*
X38238095Y-112154761D01*
%TD*%
M02*
