M48
; DRILL file {KiCad (5.1.9-0-10_14)} date Thursday, July 01, 2021 at 04:44:35 PM
; FORMAT={-:-/ absolute / inch / decimal}
; #@! TF.CreationDate,2021-07-01T16:44:35-07:00
; #@! TF.GenerationSoftware,Kicad,Pcbnew,(5.1.9-0-10_14)
FMAT,2
INCH
T1C0.0157
T2C0.0394
T3C0.0472
T4C0.0512
%
G90
G05
T1
X0.7972Y-3.9272
X0.7972Y-4.8031
X0.7972Y-4.8425
X0.7972Y-4.8819
X0.7972Y-4.9213
X0.7972Y-4.9606
X0.7972Y-5.0
X0.7972Y-5.0394
X0.7972Y-5.0787
X0.7972Y-5.1181
X0.7972Y-5.1575
X0.7972Y-5.1969
X0.7972Y-5.2362
X0.7972Y-5.2756
X0.7972Y-5.315
X0.7972Y-5.3543
X0.7972Y-5.3937
X0.7972Y-5.4331
X0.7972Y-5.4823
X0.8366Y-5.4823
X0.876Y-5.4823
X0.9154Y-3.9272
X0.9154Y-5.4823
X0.9547Y-3.9272
X0.9547Y-5.4823
X0.9941Y-3.9272
X0.9941Y-5.4823
X1.0335Y-3.9272
X1.0335Y-5.4823
X1.0728Y-3.9272
X1.0728Y-5.4823
X1.1122Y-3.9272
X1.1122Y-5.4823
X1.1516Y-3.9272
X1.1516Y-5.4823
X1.1909Y-3.9272
X1.1909Y-5.4823
X1.2303Y-3.9272
X1.2303Y-5.4823
X1.2697Y-3.9272
X1.2697Y-5.4823
X1.3091Y-3.9272
X1.3091Y-5.4823
X1.3484Y-3.9272
X1.3484Y-5.4823
X1.3878Y-3.9272
X1.3878Y-5.4823
X1.3976Y-4.8425
X1.4075Y-5.4232
X1.4173Y-5.0591
X1.4272Y-3.9272
X1.4272Y-5.4823
X1.4665Y-3.9272
X1.4665Y-5.4823
X1.4764Y-3.9961
X1.4961Y-4.5669
X1.5059Y-3.9272
X1.5059Y-5.4823
X1.5453Y-3.9272
X1.5453Y-5.4823
X1.5846Y-3.9272
X1.5846Y-5.0591
X1.5846Y-5.2854
X1.5846Y-5.4823
X1.624Y-3.9272
X1.624Y-5.4823
X1.6634Y-3.9272
X1.6634Y-5.4823
X1.6732Y-4.3012
X1.6732Y-4.6358
X1.7028Y-3.9272
X1.7028Y-5.4823
X1.7224Y-4.2618
X1.7224Y-4.6358
X1.7421Y-3.9272
X1.7421Y-5.4823
X1.752Y-4.5866
X1.752Y-4.7835
X1.7815Y-3.9272
X1.7815Y-5.4823
X1.8209Y-3.9272
X1.8209Y-5.4823
X1.8602Y-3.9272
X1.8602Y-5.4823
X1.8701Y-4.4882
X1.8996Y-3.9272
X1.8996Y-5.4823
X1.9291Y-4.6457
X1.939Y-3.9272
X1.939Y-4.498
X1.939Y-4.5669
X1.939Y-5.4823
X1.9685Y-5.0591
X1.9783Y-5.4823
X1.9882Y-4.2028
X2.0177Y-5.4823
X2.0276Y-4.5768
X2.0276Y-4.7441
X2.0571Y-5.4823
X2.0866Y-4.5276
X2.0866Y-4.8031
X2.0965Y-5.4823
X2.1358Y-4.9606
X2.1358Y-5.4823
X2.1457Y-4.3307
X2.1752Y-4.2126
X2.1752Y-5.0591
X2.1752Y-5.4823
X2.2146Y-4.2421
X2.2146Y-5.0098
X2.2146Y-5.4823
X2.2539Y-4.1831
X2.2539Y-4.9213
X2.2539Y-5.4823
X2.2933Y-4.8622
X2.2933Y-5.4823
X2.3031Y-4.1535
X2.3228Y-4.9803
X2.3327Y-4.7047
X2.3327Y-4.813
X2.3327Y-5.4823
X2.3425Y-4.1929
X2.3622Y-5.0591
X2.372Y-4.9016
X2.372Y-5.4823
X2.4016Y-5.3937
X2.4114Y-4.3799
X2.4114Y-5.4823
X2.4213Y-4.2323
X2.4213Y-4.7441
X2.4409Y-5.1181
X2.4508Y-5.4823
X2.4902Y-5.4823
X2.5295Y-5.4823
X2.5689Y-5.4823
X2.5787Y-3.9961
X2.5984Y-4.3307
X2.5984Y-4.8819
X2.5984Y-4.9311
X2.5984Y-5.0591
X2.6083Y-3.9272
X2.6083Y-5.4823
X2.6181Y-4.2815
X2.628Y-4.7835
X2.6476Y-3.9272
X2.6476Y-5.4823
X2.6772Y-4.5768
X2.6772Y-4.8228
X2.687Y-3.9272
X2.687Y-5.4823
X2.7264Y-3.9272
X2.7264Y-5.4823
X2.7657Y-3.9272
X2.7657Y-5.4823
X2.8051Y-3.9272
X2.8051Y-5.4823
X2.8346Y-4.6949
X2.8346Y-4.8917
X2.8445Y-3.9272
X2.8445Y-5.4823
X2.874Y-4.8425
X2.874Y-4.9803
X2.8839Y-3.9272
X2.8839Y-5.4823
X2.9232Y-3.9272
X2.9232Y-5.4823
X2.9626Y-3.9272
X2.9626Y-5.4823
X3.002Y-3.9272
X3.002Y-5.4823
X3.0315Y-4.8425
X3.0413Y-3.9272
X3.0413Y-5.4823
X3.0807Y-3.9272
X3.0807Y-5.4823
X3.1102Y-4.8425
X3.1102Y-4.9705
X3.1201Y-3.9272
X3.1201Y-5.4823
X3.1496Y-4.7933
X3.1496Y-5.0492
X3.1594Y-3.9272
X3.1594Y-5.4823
X3.1988Y-3.9272
X3.1988Y-3.9764
X3.1988Y-4.0157
X3.1988Y-4.0551
X3.1988Y-4.0945
X3.1988Y-4.1339
X3.1988Y-4.1732
X3.1988Y-4.2126
X3.1988Y-4.252
X3.1988Y-4.2913
X3.1988Y-4.3307
X3.1988Y-4.3701
X3.1988Y-4.4094
X3.1988Y-4.4488
X3.1988Y-4.4882
X3.1988Y-4.5276
X3.1988Y-4.5669
X3.1988Y-4.6063
X3.1988Y-4.6457
X3.1988Y-4.685
X3.1988Y-4.7244
X3.1988Y-4.7638
X3.1988Y-4.8031
X3.1988Y-4.8425
X3.1988Y-4.8819
X3.1988Y-4.9213
X3.1988Y-4.9606
X3.1988Y-5.0
X3.1988Y-5.0394
X3.1988Y-5.0787
X3.1988Y-5.1181
X3.1988Y-5.1575
X3.1988Y-5.1969
X3.1988Y-5.2362
X3.1988Y-5.2756
X3.1988Y-5.315
X3.1988Y-5.3543
X3.1988Y-5.3937
X3.1988Y-5.4331
X3.1988Y-5.4823
T2
X2.5Y-4.6457
X2.5Y-4.7457
X2.5Y-4.8457
T3
X1.0039Y-5.2165
X1.1024Y-5.1181
X1.1024Y-5.315
X1.2008Y-5.1181
X1.2008Y-5.315
X1.2992Y-5.1181
X1.2992Y-5.315
X1.3976Y-5.2165
X1.811Y-5.2165
X1.9094Y-5.1181
X1.9094Y-5.315
X2.0079Y-5.1181
X2.0079Y-5.315
X2.1063Y-5.1181
X2.1063Y-5.315
X2.2047Y-5.2165
X2.5984Y-5.2165
X2.6969Y-5.1181
X2.6969Y-5.315
X2.7785Y-4.5335
X2.7953Y-5.1181
X2.7953Y-5.315
X2.8285Y-4.6335
X2.8778Y-4.5335
X2.8937Y-5.1181
X2.8937Y-5.315
X2.9285Y-4.6335
X2.9785Y-4.5335
X2.9921Y-5.2165
X3.0285Y-4.6335
T4
X1.6732Y-4.1831
X1.8701Y-4.1831
T0
M30
