%TF.GenerationSoftware,KiCad,Pcbnew,(5.1.9-0-10_14)*%
%TF.CreationDate,2021-04-23T09:03:30-07:00*%
%TF.ProjectId,thundipiswitch2,7468756e-6469-4706-9973-776974636832,rev?*%
%TF.SameCoordinates,Original*%
%TF.FileFunction,Soldermask,Bot*%
%TF.FilePolarity,Negative*%
%FSLAX46Y46*%
G04 Gerber Fmt 4.6, Leading zero omitted, Abs format (unit mm)*
G04 Created by KiCad (PCBNEW (5.1.9-0-10_14)) date 2021-04-23 09:03:30*
%MOMM*%
%LPD*%
G01*
G04 APERTURE LIST*
%ADD10C,1.600000*%
%ADD11R,1.600000X1.600000*%
%ADD12O,1.700000X1.700000*%
%ADD13R,1.700000X1.700000*%
%ADD14R,1.800000X1.800000*%
%ADD15C,1.800000*%
%ADD16C,1.808000*%
%ADD17C,1.803400*%
%ADD18C,2.780000*%
G04 APERTURE END LIST*
D10*
%TO.C,S2*%
X127100000Y-59700000D03*
X124600000Y-59700000D03*
X122100000Y-59700000D03*
X127100000Y-64700000D03*
X124600000Y-64700000D03*
X122100000Y-64700000D03*
D11*
X129600000Y-62200000D03*
D10*
X119600000Y-62200000D03*
%TD*%
%TO.C,S1*%
X150100000Y-59900000D03*
X147600000Y-59900000D03*
X145100000Y-59900000D03*
X150100000Y-64900000D03*
X147600000Y-64900000D03*
X145100000Y-64900000D03*
D11*
X152600000Y-62400000D03*
D10*
X142600000Y-62400000D03*
%TD*%
%TO.C,S3*%
X172900000Y-59700000D03*
X170400000Y-59700000D03*
X167900000Y-59700000D03*
X172900000Y-64700000D03*
X170400000Y-64700000D03*
X167900000Y-64700000D03*
D11*
X175400000Y-62200000D03*
D10*
X165400000Y-62200000D03*
%TD*%
D12*
%TO.C,J2*%
X156740000Y-111460000D03*
X156740000Y-114000000D03*
X154200000Y-111460000D03*
X154200000Y-114000000D03*
X151660000Y-111460000D03*
X151660000Y-114000000D03*
X149120000Y-111460000D03*
X149120000Y-114000000D03*
X146580000Y-111460000D03*
X146580000Y-114000000D03*
X144040000Y-111460000D03*
X144040000Y-114000000D03*
X141500000Y-111460000D03*
X141500000Y-114000000D03*
X138960000Y-111460000D03*
X138960000Y-114000000D03*
X136420000Y-111460000D03*
X136420000Y-114000000D03*
X133880000Y-111460000D03*
X133880000Y-114000000D03*
X131340000Y-111460000D03*
X131340000Y-114000000D03*
X128800000Y-111460000D03*
D13*
X128800000Y-114000000D03*
%TD*%
D14*
%TO.C,U1*%
X195000000Y-69500000D03*
D15*
X192460000Y-69500000D03*
X189920000Y-69500000D03*
%TD*%
D16*
%TO.C,K3*%
X167000000Y-75300008D03*
X167000000Y-90300008D03*
X167000000Y-95300008D03*
X167000000Y-100300008D03*
X174500000Y-100300008D03*
X174500000Y-95300008D03*
X174500000Y-90300008D03*
X174500000Y-75300008D03*
X170750000Y-75300008D03*
%TD*%
%TO.C,K2*%
X144000000Y-75300008D03*
X144000000Y-90300008D03*
X144000000Y-95300008D03*
X144000000Y-100300008D03*
X151500000Y-100300008D03*
X151500000Y-95300008D03*
X151500000Y-90300008D03*
X151500000Y-75300008D03*
X147750000Y-75300008D03*
%TD*%
%TO.C,K1*%
X121000000Y-75300008D03*
X121000000Y-90300008D03*
X121000000Y-95300008D03*
X121000000Y-100300008D03*
X128500000Y-100300008D03*
X128500000Y-95300008D03*
X128500000Y-90300008D03*
X128500000Y-75300008D03*
X124750000Y-75300008D03*
%TD*%
D17*
%TO.C,J4*%
X175400000Y-109400000D03*
X180400000Y-109400000D03*
X185400000Y-109400000D03*
X190400001Y-109400000D03*
X195400001Y-109400000D03*
X200400001Y-109400000D03*
%TD*%
%TO.C,J1*%
X195000000Y-87979999D03*
X195000000Y-97500000D03*
%TD*%
D18*
%TO.C,F3*%
X179600000Y-85920000D03*
X183000000Y-85920000D03*
X179600000Y-76000000D03*
X183000000Y-76000000D03*
%TD*%
%TO.C,F2*%
X156600000Y-85920000D03*
X160000000Y-85920000D03*
X156600000Y-76000000D03*
X160000000Y-76000000D03*
%TD*%
%TO.C,F4*%
X190080000Y-77100000D03*
X190080000Y-80500000D03*
X200000000Y-77100000D03*
X200000000Y-80500000D03*
%TD*%
%TO.C,F1*%
X133600000Y-85920000D03*
X137000000Y-85920000D03*
X133600000Y-76000000D03*
X137000000Y-76000000D03*
%TD*%
M02*
