%TF.GenerationSoftware,KiCad,Pcbnew,(5.1.9-0-10_14)*%
%TF.CreationDate,2021-04-23T09:03:30-07:00*%
%TF.ProjectId,thundipiswitch2,7468756e-6469-4706-9973-776974636832,rev?*%
%TF.SameCoordinates,Original*%
%TF.FileFunction,Legend,Top*%
%TF.FilePolarity,Positive*%
%FSLAX46Y46*%
G04 Gerber Fmt 4.6, Leading zero omitted, Abs format (unit mm)*
G04 Created by KiCad (PCBNEW (5.1.9-0-10_14)) date 2021-04-23 09:03:30*
%MOMM*%
%LPD*%
G01*
G04 APERTURE LIST*
%ADD10C,0.300000*%
%ADD11C,0.120000*%
%ADD12C,0.152400*%
%ADD13C,0.150000*%
G04 APERTURE END LIST*
D10*
X139508571Y-109807142D02*
X139722857Y-109878571D01*
X140080000Y-109878571D01*
X140222857Y-109807142D01*
X140294285Y-109735714D01*
X140365714Y-109592857D01*
X140365714Y-109450000D01*
X140294285Y-109307142D01*
X140222857Y-109235714D01*
X140080000Y-109164285D01*
X139794285Y-109092857D01*
X139651428Y-109021428D01*
X139580000Y-108950000D01*
X139508571Y-108807142D01*
X139508571Y-108664285D01*
X139580000Y-108521428D01*
X139651428Y-108450000D01*
X139794285Y-108378571D01*
X140151428Y-108378571D01*
X140365714Y-108450000D01*
X141008571Y-109878571D02*
X141008571Y-108378571D01*
X141365714Y-108378571D01*
X141580000Y-108450000D01*
X141722857Y-108592857D01*
X141794285Y-108735714D01*
X141865714Y-109021428D01*
X141865714Y-109235714D01*
X141794285Y-109521428D01*
X141722857Y-109664285D01*
X141580000Y-109807142D01*
X141365714Y-109878571D01*
X141008571Y-109878571D01*
X142437142Y-109450000D02*
X143151428Y-109450000D01*
X142294285Y-109878571D02*
X142794285Y-108378571D01*
X143294285Y-109878571D01*
X139584285Y-117507142D02*
X139798571Y-117578571D01*
X140155714Y-117578571D01*
X140298571Y-117507142D01*
X140370000Y-117435714D01*
X140441428Y-117292857D01*
X140441428Y-117150000D01*
X140370000Y-117007142D01*
X140298571Y-116935714D01*
X140155714Y-116864285D01*
X139870000Y-116792857D01*
X139727142Y-116721428D01*
X139655714Y-116650000D01*
X139584285Y-116507142D01*
X139584285Y-116364285D01*
X139655714Y-116221428D01*
X139727142Y-116150000D01*
X139870000Y-116078571D01*
X140227142Y-116078571D01*
X140441428Y-116150000D01*
X141941428Y-117435714D02*
X141870000Y-117507142D01*
X141655714Y-117578571D01*
X141512857Y-117578571D01*
X141298571Y-117507142D01*
X141155714Y-117364285D01*
X141084285Y-117221428D01*
X141012857Y-116935714D01*
X141012857Y-116721428D01*
X141084285Y-116435714D01*
X141155714Y-116292857D01*
X141298571Y-116150000D01*
X141512857Y-116078571D01*
X141655714Y-116078571D01*
X141870000Y-116150000D01*
X141941428Y-116221428D01*
X143298571Y-117578571D02*
X142584285Y-117578571D01*
X142584285Y-116078571D01*
X134092857Y-116010000D02*
X133950000Y-115938571D01*
X133735714Y-115938571D01*
X133521428Y-116010000D01*
X133378571Y-116152857D01*
X133307142Y-116295714D01*
X133235714Y-116581428D01*
X133235714Y-116795714D01*
X133307142Y-117081428D01*
X133378571Y-117224285D01*
X133521428Y-117367142D01*
X133735714Y-117438571D01*
X133878571Y-117438571D01*
X134092857Y-117367142D01*
X134164285Y-117295714D01*
X134164285Y-116795714D01*
X133878571Y-116795714D01*
X134092857Y-108380000D02*
X133950000Y-108308571D01*
X133735714Y-108308571D01*
X133521428Y-108380000D01*
X133378571Y-108522857D01*
X133307142Y-108665714D01*
X133235714Y-108951428D01*
X133235714Y-109165714D01*
X133307142Y-109451428D01*
X133378571Y-109594285D01*
X133521428Y-109737142D01*
X133735714Y-109808571D01*
X133878571Y-109808571D01*
X134092857Y-109737142D01*
X134164285Y-109665714D01*
X134164285Y-109165714D01*
X133878571Y-109165714D01*
X129945714Y-115668571D02*
X129231428Y-115668571D01*
X129160000Y-116382857D01*
X129231428Y-116311428D01*
X129374285Y-116240000D01*
X129731428Y-116240000D01*
X129874285Y-116311428D01*
X129945714Y-116382857D01*
X130017142Y-116525714D01*
X130017142Y-116882857D01*
X129945714Y-117025714D01*
X129874285Y-117097142D01*
X129731428Y-117168571D01*
X129374285Y-117168571D01*
X129231428Y-117097142D01*
X129160000Y-117025714D01*
X130517142Y-116168571D02*
X130874285Y-117168571D01*
X131231428Y-116168571D01*
X128428571Y-108338571D02*
X129357142Y-108338571D01*
X128857142Y-108910000D01*
X129071428Y-108910000D01*
X129214285Y-108981428D01*
X129285714Y-109052857D01*
X129357142Y-109195714D01*
X129357142Y-109552857D01*
X129285714Y-109695714D01*
X129214285Y-109767142D01*
X129071428Y-109838571D01*
X128642857Y-109838571D01*
X128500000Y-109767142D01*
X128428571Y-109695714D01*
X130000000Y-109695714D02*
X130071428Y-109767142D01*
X130000000Y-109838571D01*
X129928571Y-109767142D01*
X130000000Y-109695714D01*
X130000000Y-109838571D01*
X130571428Y-108338571D02*
X131500000Y-108338571D01*
X131000000Y-108910000D01*
X131214285Y-108910000D01*
X131357142Y-108981428D01*
X131428571Y-109052857D01*
X131500000Y-109195714D01*
X131500000Y-109552857D01*
X131428571Y-109695714D01*
X131357142Y-109767142D01*
X131214285Y-109838571D01*
X130785714Y-109838571D01*
X130642857Y-109767142D01*
X130571428Y-109695714D01*
X200892857Y-114950000D02*
X200750000Y-114878571D01*
X200535714Y-114878571D01*
X200321428Y-114950000D01*
X200178571Y-115092857D01*
X200107142Y-115235714D01*
X200035714Y-115521428D01*
X200035714Y-115735714D01*
X200107142Y-116021428D01*
X200178571Y-116164285D01*
X200321428Y-116307142D01*
X200535714Y-116378571D01*
X200678571Y-116378571D01*
X200892857Y-116307142D01*
X200964285Y-116235714D01*
X200964285Y-115735714D01*
X200678571Y-115735714D01*
X190892857Y-115050000D02*
X190750000Y-114978571D01*
X190535714Y-114978571D01*
X190321428Y-115050000D01*
X190178571Y-115192857D01*
X190107142Y-115335714D01*
X190035714Y-115621428D01*
X190035714Y-115835714D01*
X190107142Y-116121428D01*
X190178571Y-116264285D01*
X190321428Y-116407142D01*
X190535714Y-116478571D01*
X190678571Y-116478571D01*
X190892857Y-116407142D01*
X190964285Y-116335714D01*
X190964285Y-115835714D01*
X190678571Y-115835714D01*
X180492857Y-115050000D02*
X180350000Y-114978571D01*
X180135714Y-114978571D01*
X179921428Y-115050000D01*
X179778571Y-115192857D01*
X179707142Y-115335714D01*
X179635714Y-115621428D01*
X179635714Y-115835714D01*
X179707142Y-116121428D01*
X179778571Y-116264285D01*
X179921428Y-116407142D01*
X180135714Y-116478571D01*
X180278571Y-116478571D01*
X180492857Y-116407142D01*
X180564285Y-116335714D01*
X180564285Y-115835714D01*
X180278571Y-115835714D01*
X175150000Y-116578571D02*
X174650000Y-115864285D01*
X174292857Y-116578571D02*
X174292857Y-115078571D01*
X174864285Y-115078571D01*
X175007142Y-115150000D01*
X175078571Y-115221428D01*
X175150000Y-115364285D01*
X175150000Y-115578571D01*
X175078571Y-115721428D01*
X175007142Y-115792857D01*
X174864285Y-115864285D01*
X174292857Y-115864285D01*
X176578571Y-116578571D02*
X175721428Y-116578571D01*
X176150000Y-116578571D02*
X176150000Y-115078571D01*
X176007142Y-115292857D01*
X175864285Y-115435714D01*
X175721428Y-115507142D01*
X184850000Y-116378571D02*
X184350000Y-115664285D01*
X183992857Y-116378571D02*
X183992857Y-114878571D01*
X184564285Y-114878571D01*
X184707142Y-114950000D01*
X184778571Y-115021428D01*
X184850000Y-115164285D01*
X184850000Y-115378571D01*
X184778571Y-115521428D01*
X184707142Y-115592857D01*
X184564285Y-115664285D01*
X183992857Y-115664285D01*
X185421428Y-115021428D02*
X185492857Y-114950000D01*
X185635714Y-114878571D01*
X185992857Y-114878571D01*
X186135714Y-114950000D01*
X186207142Y-115021428D01*
X186278571Y-115164285D01*
X186278571Y-115307142D01*
X186207142Y-115521428D01*
X185350000Y-116378571D01*
X186278571Y-116378571D01*
X195050000Y-116478571D02*
X194550000Y-115764285D01*
X194192857Y-116478571D02*
X194192857Y-114978571D01*
X194764285Y-114978571D01*
X194907142Y-115050000D01*
X194978571Y-115121428D01*
X195050000Y-115264285D01*
X195050000Y-115478571D01*
X194978571Y-115621428D01*
X194907142Y-115692857D01*
X194764285Y-115764285D01*
X194192857Y-115764285D01*
X195550000Y-114978571D02*
X196478571Y-114978571D01*
X195978571Y-115550000D01*
X196192857Y-115550000D01*
X196335714Y-115621428D01*
X196407142Y-115692857D01*
X196478571Y-115835714D01*
X196478571Y-116192857D01*
X196407142Y-116335714D01*
X196335714Y-116407142D01*
X196192857Y-116478571D01*
X195764285Y-116478571D01*
X195621428Y-116407142D01*
X195550000Y-116335714D01*
X111503571Y-98842857D02*
X111503571Y-97985714D01*
X113003571Y-98414285D02*
X111503571Y-98414285D01*
X113003571Y-97485714D02*
X111503571Y-97485714D01*
X113003571Y-96842857D02*
X112217857Y-96842857D01*
X112075000Y-96914285D01*
X112003571Y-97057142D01*
X112003571Y-97271428D01*
X112075000Y-97414285D01*
X112146428Y-97485714D01*
X112003571Y-95485714D02*
X113003571Y-95485714D01*
X112003571Y-96128571D02*
X112789285Y-96128571D01*
X112932142Y-96057142D01*
X113003571Y-95914285D01*
X113003571Y-95700000D01*
X112932142Y-95557142D01*
X112860714Y-95485714D01*
X112003571Y-94771428D02*
X113003571Y-94771428D01*
X112146428Y-94771428D02*
X112075000Y-94700000D01*
X112003571Y-94557142D01*
X112003571Y-94342857D01*
X112075000Y-94200000D01*
X112217857Y-94128571D01*
X113003571Y-94128571D01*
X113003571Y-92771428D02*
X111503571Y-92771428D01*
X112932142Y-92771428D02*
X113003571Y-92914285D01*
X113003571Y-93200000D01*
X112932142Y-93342857D01*
X112860714Y-93414285D01*
X112717857Y-93485714D01*
X112289285Y-93485714D01*
X112146428Y-93414285D01*
X112075000Y-93342857D01*
X112003571Y-93200000D01*
X112003571Y-92914285D01*
X112075000Y-92771428D01*
X113003571Y-92057142D02*
X112003571Y-92057142D01*
X111503571Y-92057142D02*
X111575000Y-92128571D01*
X111646428Y-92057142D01*
X111575000Y-91985714D01*
X111503571Y-92057142D01*
X111646428Y-92057142D01*
X113003571Y-91342857D02*
X111503571Y-91342857D01*
X111503571Y-90771428D01*
X111575000Y-90628571D01*
X111646428Y-90557142D01*
X111789285Y-90485714D01*
X112003571Y-90485714D01*
X112146428Y-90557142D01*
X112217857Y-90628571D01*
X112289285Y-90771428D01*
X112289285Y-91342857D01*
X113003571Y-89842857D02*
X112003571Y-89842857D01*
X111503571Y-89842857D02*
X111575000Y-89914285D01*
X111646428Y-89842857D01*
X111575000Y-89771428D01*
X111503571Y-89842857D01*
X111646428Y-89842857D01*
X112932142Y-89200000D02*
X113003571Y-88985714D01*
X113003571Y-88628571D01*
X112932142Y-88485714D01*
X112860714Y-88414285D01*
X112717857Y-88342857D01*
X112575000Y-88342857D01*
X112432142Y-88414285D01*
X112360714Y-88485714D01*
X112289285Y-88628571D01*
X112217857Y-88914285D01*
X112146428Y-89057142D01*
X112075000Y-89128571D01*
X111932142Y-89200000D01*
X111789285Y-89200000D01*
X111646428Y-89128571D01*
X111575000Y-89057142D01*
X111503571Y-88914285D01*
X111503571Y-88557142D01*
X111575000Y-88342857D01*
X112003571Y-87842857D02*
X113003571Y-87557142D01*
X112289285Y-87271428D01*
X113003571Y-86985714D01*
X112003571Y-86700000D01*
X113003571Y-86128571D02*
X112003571Y-86128571D01*
X111503571Y-86128571D02*
X111575000Y-86200000D01*
X111646428Y-86128571D01*
X111575000Y-86057142D01*
X111503571Y-86128571D01*
X111646428Y-86128571D01*
X112003571Y-85628571D02*
X112003571Y-85057142D01*
X111503571Y-85414285D02*
X112789285Y-85414285D01*
X112932142Y-85342857D01*
X113003571Y-85200000D01*
X113003571Y-85057142D01*
X112932142Y-83914285D02*
X113003571Y-84057142D01*
X113003571Y-84342857D01*
X112932142Y-84485714D01*
X112860714Y-84557142D01*
X112717857Y-84628571D01*
X112289285Y-84628571D01*
X112146428Y-84557142D01*
X112075000Y-84485714D01*
X112003571Y-84342857D01*
X112003571Y-84057142D01*
X112075000Y-83914285D01*
X113003571Y-83271428D02*
X111503571Y-83271428D01*
X113003571Y-82628571D02*
X112217857Y-82628571D01*
X112075000Y-82700000D01*
X112003571Y-82842857D01*
X112003571Y-83057142D01*
X112075000Y-83200000D01*
X112146428Y-83271428D01*
X112003571Y-80914285D02*
X113003571Y-80557142D01*
X112003571Y-80200000D01*
X111646428Y-79700000D02*
X111575000Y-79628571D01*
X111503571Y-79485714D01*
X111503571Y-79128571D01*
X111575000Y-78985714D01*
X111646428Y-78914285D01*
X111789285Y-78842857D01*
X111932142Y-78842857D01*
X112146428Y-78914285D01*
X113003571Y-79771428D01*
X113003571Y-78842857D01*
X112860714Y-78200000D02*
X112932142Y-78128571D01*
X113003571Y-78200000D01*
X112932142Y-78271428D01*
X112860714Y-78200000D01*
X113003571Y-78200000D01*
X113003571Y-76700000D02*
X113003571Y-77557142D01*
X113003571Y-77128571D02*
X111503571Y-77128571D01*
X111717857Y-77271428D01*
X111860714Y-77414285D01*
X111932142Y-77557142D01*
X115553571Y-99557142D02*
X114553571Y-99557142D01*
X114696428Y-99557142D02*
X114625000Y-99485714D01*
X114553571Y-99342857D01*
X114553571Y-99128571D01*
X114625000Y-98985714D01*
X114767857Y-98914285D01*
X115553571Y-98914285D01*
X114767857Y-98914285D02*
X114625000Y-98842857D01*
X114553571Y-98700000D01*
X114553571Y-98485714D01*
X114625000Y-98342857D01*
X114767857Y-98271428D01*
X115553571Y-98271428D01*
X115553571Y-97557142D02*
X114553571Y-97557142D01*
X114053571Y-97557142D02*
X114125000Y-97628571D01*
X114196428Y-97557142D01*
X114125000Y-97485714D01*
X114053571Y-97557142D01*
X114196428Y-97557142D01*
X115482142Y-96914285D02*
X115553571Y-96771428D01*
X115553571Y-96485714D01*
X115482142Y-96342857D01*
X115339285Y-96271428D01*
X115267857Y-96271428D01*
X115125000Y-96342857D01*
X115053571Y-96485714D01*
X115053571Y-96700000D01*
X114982142Y-96842857D01*
X114839285Y-96914285D01*
X114767857Y-96914285D01*
X114625000Y-96842857D01*
X114553571Y-96700000D01*
X114553571Y-96485714D01*
X114625000Y-96342857D01*
X115553571Y-95628571D02*
X114053571Y-95628571D01*
X114982142Y-95485714D02*
X115553571Y-95057142D01*
X114553571Y-95057142D02*
X115125000Y-95628571D01*
X115553571Y-94200000D02*
X115482142Y-94342857D01*
X115410714Y-94414285D01*
X115267857Y-94485714D01*
X114839285Y-94485714D01*
X114696428Y-94414285D01*
X114625000Y-94342857D01*
X114553571Y-94200000D01*
X114553571Y-93985714D01*
X114625000Y-93842857D01*
X114696428Y-93771428D01*
X114839285Y-93700000D01*
X115267857Y-93700000D01*
X115410714Y-93771428D01*
X115482142Y-93842857D01*
X115553571Y-93985714D01*
X115553571Y-94200000D01*
X114839285Y-92128571D02*
X114767857Y-92200000D01*
X114696428Y-92342857D01*
X114696428Y-92485714D01*
X114767857Y-92628571D01*
X114839285Y-92700000D01*
X114982142Y-92771428D01*
X115125000Y-92771428D01*
X115267857Y-92700000D01*
X115339285Y-92628571D01*
X115410714Y-92485714D01*
X115410714Y-92342857D01*
X115339285Y-92200000D01*
X115267857Y-92128571D01*
X114696428Y-92128571D02*
X115267857Y-92128571D01*
X115339285Y-92057142D01*
X115339285Y-91985714D01*
X115267857Y-91842857D01*
X115125000Y-91771428D01*
X114767857Y-91771428D01*
X114553571Y-91914285D01*
X114410714Y-92128571D01*
X114339285Y-92414285D01*
X114410714Y-92700000D01*
X114553571Y-92914285D01*
X114767857Y-93057142D01*
X115053571Y-93128571D01*
X115339285Y-93057142D01*
X115553571Y-92914285D01*
X115696428Y-92700000D01*
X115767857Y-92414285D01*
X115696428Y-92128571D01*
X115553571Y-91914285D01*
X115482142Y-90485714D02*
X115553571Y-90628571D01*
X115553571Y-90914285D01*
X115482142Y-91057142D01*
X115410714Y-91128571D01*
X115267857Y-91200000D01*
X114839285Y-91200000D01*
X114696428Y-91128571D01*
X114625000Y-91057142D01*
X114553571Y-90914285D01*
X114553571Y-90628571D01*
X114625000Y-90485714D01*
X115482142Y-89914285D02*
X115553571Y-89771428D01*
X115553571Y-89485714D01*
X115482142Y-89342857D01*
X115339285Y-89271428D01*
X115267857Y-89271428D01*
X115125000Y-89342857D01*
X115053571Y-89485714D01*
X115053571Y-89700000D01*
X114982142Y-89842857D01*
X114839285Y-89914285D01*
X114767857Y-89914285D01*
X114625000Y-89842857D01*
X114553571Y-89700000D01*
X114553571Y-89485714D01*
X114625000Y-89342857D01*
X115410714Y-88628571D02*
X115482142Y-88557142D01*
X115553571Y-88628571D01*
X115482142Y-88700000D01*
X115410714Y-88628571D01*
X115553571Y-88628571D01*
X114553571Y-88128571D02*
X114553571Y-87557142D01*
X114053571Y-87914285D02*
X115339285Y-87914285D01*
X115482142Y-87842857D01*
X115553571Y-87700000D01*
X115553571Y-87557142D01*
X115553571Y-86842857D02*
X115482142Y-86985714D01*
X115410714Y-87057142D01*
X115267857Y-87128571D01*
X114839285Y-87128571D01*
X114696428Y-87057142D01*
X114625000Y-86985714D01*
X114553571Y-86842857D01*
X114553571Y-86628571D01*
X114625000Y-86485714D01*
X114696428Y-86414285D01*
X114839285Y-86342857D01*
X115267857Y-86342857D01*
X115410714Y-86414285D01*
X115482142Y-86485714D01*
X115553571Y-86628571D01*
X115553571Y-86842857D01*
X115553571Y-85700000D02*
X114553571Y-85700000D01*
X114839285Y-85700000D02*
X114696428Y-85628571D01*
X114625000Y-85557142D01*
X114553571Y-85414285D01*
X114553571Y-85271428D01*
X115553571Y-84557142D02*
X115482142Y-84700000D01*
X115410714Y-84771428D01*
X115267857Y-84842857D01*
X114839285Y-84842857D01*
X114696428Y-84771428D01*
X114625000Y-84700000D01*
X114553571Y-84557142D01*
X114553571Y-84342857D01*
X114625000Y-84200000D01*
X114696428Y-84128571D01*
X114839285Y-84057142D01*
X115267857Y-84057142D01*
X115410714Y-84128571D01*
X115482142Y-84200000D01*
X115553571Y-84342857D01*
X115553571Y-84557142D01*
X114553571Y-83414285D02*
X115553571Y-83414285D01*
X114696428Y-83414285D02*
X114625000Y-83342857D01*
X114553571Y-83200000D01*
X114553571Y-82985714D01*
X114625000Y-82842857D01*
X114767857Y-82771428D01*
X115553571Y-82771428D01*
X114553571Y-82271428D02*
X114553571Y-81700000D01*
X114053571Y-82057142D02*
X115339285Y-82057142D01*
X115482142Y-81985714D01*
X115553571Y-81842857D01*
X115553571Y-81700000D01*
X115553571Y-80985714D02*
X115482142Y-81128571D01*
X115410714Y-81200000D01*
X115267857Y-81271428D01*
X114839285Y-81271428D01*
X114696428Y-81200000D01*
X114625000Y-81128571D01*
X114553571Y-80985714D01*
X114553571Y-80771428D01*
X114625000Y-80628571D01*
X114696428Y-80557142D01*
X114839285Y-80485714D01*
X115267857Y-80485714D01*
X115410714Y-80557142D01*
X115482142Y-80628571D01*
X115553571Y-80771428D01*
X115553571Y-80985714D01*
X115410714Y-79842857D02*
X115482142Y-79771428D01*
X115553571Y-79842857D01*
X115482142Y-79914285D01*
X115410714Y-79842857D01*
X115553571Y-79842857D01*
X115482142Y-78557142D02*
X115553571Y-78700000D01*
X115553571Y-78985714D01*
X115482142Y-79128571D01*
X115339285Y-79200000D01*
X114767857Y-79200000D01*
X114625000Y-79128571D01*
X114553571Y-78985714D01*
X114553571Y-78700000D01*
X114625000Y-78557142D01*
X114767857Y-78485714D01*
X114910714Y-78485714D01*
X115053571Y-79200000D01*
X115553571Y-77200000D02*
X114053571Y-77200000D01*
X115482142Y-77200000D02*
X115553571Y-77342857D01*
X115553571Y-77628571D01*
X115482142Y-77771428D01*
X115410714Y-77842857D01*
X115267857Y-77914285D01*
X114839285Y-77914285D01*
X114696428Y-77842857D01*
X114625000Y-77771428D01*
X114553571Y-77628571D01*
X114553571Y-77342857D01*
X114625000Y-77200000D01*
X114553571Y-75842857D02*
X115553571Y-75842857D01*
X114553571Y-76485714D02*
X115339285Y-76485714D01*
X115482142Y-76414285D01*
X115553571Y-76271428D01*
X115553571Y-76057142D01*
X115482142Y-75914285D01*
X115410714Y-75842857D01*
D11*
%TO.C,R28*%
X141372936Y-106090000D02*
X142827064Y-106090000D01*
X141372936Y-107910000D02*
X142827064Y-107910000D01*
%TO.C,R27*%
X151210000Y-104872936D02*
X151210000Y-106327064D01*
X149390000Y-104872936D02*
X149390000Y-106327064D01*
%TO.C,R26*%
X156210000Y-105972936D02*
X156210000Y-107427064D01*
X154390000Y-105972936D02*
X154390000Y-107427064D01*
%TO.C,R25*%
X156890000Y-107427064D02*
X156890000Y-105972936D01*
X158710000Y-107427064D02*
X158710000Y-105972936D01*
%TO.C,R24*%
X151890000Y-106327064D02*
X151890000Y-104872936D01*
X153710000Y-106327064D02*
X153710000Y-104872936D01*
%TO.C,R23*%
X146890000Y-106327064D02*
X146890000Y-104872936D01*
X148710000Y-106327064D02*
X148710000Y-104872936D01*
%TO.C,S2*%
X118600000Y-56200000D02*
X118600000Y-68200000D01*
X130600000Y-56200000D02*
X130600000Y-68200000D01*
X118600000Y-68200000D02*
X130600000Y-68200000D01*
X118600000Y-56200000D02*
X130600000Y-56200000D01*
%TO.C,S1*%
X141600000Y-56400000D02*
X141600000Y-68400000D01*
X153600000Y-56400000D02*
X153600000Y-68400000D01*
X141600000Y-68400000D02*
X153600000Y-68400000D01*
X141600000Y-56400000D02*
X153600000Y-56400000D01*
%TO.C,S3*%
X164400000Y-56200000D02*
X164400000Y-68200000D01*
X176400000Y-56200000D02*
X176400000Y-68200000D01*
X164400000Y-68200000D02*
X176400000Y-68200000D01*
X164400000Y-56200000D02*
X176400000Y-56200000D01*
%TO.C,J2*%
X158070000Y-115330000D02*
X158070000Y-110130000D01*
X130070000Y-115330000D02*
X158070000Y-115330000D01*
X127470000Y-110130000D02*
X158070000Y-110130000D01*
X130070000Y-115330000D02*
X130070000Y-112730000D01*
X130070000Y-112730000D02*
X127470000Y-112730000D01*
X127470000Y-112730000D02*
X127470000Y-110130000D01*
X128800000Y-115330000D02*
X127470000Y-115330000D01*
X127470000Y-115330000D02*
X127470000Y-114000000D01*
%TO.C,R3*%
X185400000Y-93500000D02*
X185400000Y-91500000D01*
X182400000Y-94300000D02*
X181600000Y-94300000D01*
X181600000Y-90700000D02*
X182400000Y-90700000D01*
X178600000Y-93500000D02*
X178600000Y-91500000D01*
%TO.C,R2*%
X162400000Y-93500000D02*
X162400000Y-91500000D01*
X159400000Y-94300000D02*
X158600000Y-94300000D01*
X158600000Y-90700000D02*
X159400000Y-90700000D01*
X155600000Y-93500000D02*
X155600000Y-91500000D01*
%TO.C,R1*%
X139400000Y-93500000D02*
X139400000Y-91500000D01*
X136400000Y-94300000D02*
X135600000Y-94300000D01*
X135600000Y-90700000D02*
X136400000Y-90700000D01*
X132600000Y-93500000D02*
X132600000Y-91500000D01*
%TO.C,C1*%
X118960000Y-107092164D02*
X118960000Y-107307836D01*
X118240000Y-107092164D02*
X118240000Y-107307836D01*
%TO.C,U2*%
X123410000Y-104290000D02*
X124110000Y-104290000D01*
X124110000Y-104290000D02*
X124110000Y-104990000D01*
X120590000Y-108510000D02*
X119890000Y-108510000D01*
X119890000Y-108510000D02*
X119890000Y-107810000D01*
X123410000Y-108510000D02*
X124110000Y-108510000D01*
X124110000Y-108510000D02*
X124110000Y-107810000D01*
X120590000Y-104290000D02*
X119890000Y-104290000D01*
%TO.C,U1*%
X197790000Y-72420000D02*
X197790000Y-70640000D01*
X187120000Y-72420000D02*
X197790000Y-72420000D01*
X187120000Y-70650000D02*
X187120000Y-72420000D01*
X187120000Y-70640000D02*
X188520000Y-70640000D01*
X188520000Y-70640000D02*
X188520000Y-68400000D01*
X188520000Y-68400000D02*
X196400000Y-68400000D01*
X196400000Y-68400000D02*
X196400000Y-70640000D01*
X196400000Y-70640000D02*
X197790000Y-70640000D01*
%TO.C,R22*%
X184727064Y-101910000D02*
X183272936Y-101910000D01*
X184727064Y-100090000D02*
X183272936Y-100090000D01*
%TO.C,R21*%
X184727064Y-99410000D02*
X183272936Y-99410000D01*
X184727064Y-97590000D02*
X183272936Y-97590000D01*
%TO.C,R20*%
X161727064Y-101910000D02*
X160272936Y-101910000D01*
X161727064Y-100090000D02*
X160272936Y-100090000D01*
%TO.C,R19*%
X161727064Y-99410000D02*
X160272936Y-99410000D01*
X161727064Y-97590000D02*
X160272936Y-97590000D01*
%TO.C,R18*%
X138727064Y-102410000D02*
X137272936Y-102410000D01*
X138727064Y-100590000D02*
X137272936Y-100590000D01*
%TO.C,R17*%
X138727064Y-99910000D02*
X137272936Y-99910000D01*
X138727064Y-98090000D02*
X137272936Y-98090000D01*
%TO.C,R16*%
X200272936Y-69090000D02*
X201727064Y-69090000D01*
X200272936Y-70910000D02*
X201727064Y-70910000D01*
%TO.C,R15*%
X155153641Y-59880000D02*
X154846359Y-59880000D01*
X155153641Y-59120000D02*
X154846359Y-59120000D01*
%TO.C,R14*%
X178153641Y-59880000D02*
X177846359Y-59880000D01*
X178153641Y-59120000D02*
X177846359Y-59120000D01*
%TO.C,R13*%
X132353641Y-59980000D02*
X132046359Y-59980000D01*
X132353641Y-59220000D02*
X132046359Y-59220000D01*
%TO.C,R12*%
X180227064Y-62910000D02*
X178772936Y-62910000D01*
X180227064Y-61090000D02*
X178772936Y-61090000D01*
%TO.C,R11*%
X126446359Y-106620000D02*
X126753641Y-106620000D01*
X126446359Y-107380000D02*
X126753641Y-107380000D01*
%TO.C,R10*%
X127046359Y-107820000D02*
X127353641Y-107820000D01*
X127046359Y-108580000D02*
X127353641Y-108580000D01*
%TO.C,R9*%
X123780000Y-110246359D02*
X123780000Y-110553641D01*
X123020000Y-110246359D02*
X123020000Y-110553641D01*
%TO.C,R8*%
X134127064Y-62910000D02*
X132672936Y-62910000D01*
X134127064Y-61090000D02*
X132672936Y-61090000D01*
%TO.C,R7*%
X124446359Y-102820000D02*
X124753641Y-102820000D01*
X124446359Y-103580000D02*
X124753641Y-103580000D01*
%TO.C,R6*%
X157227064Y-62910000D02*
X155772936Y-62910000D01*
X157227064Y-61090000D02*
X155772936Y-61090000D01*
%TO.C,R5*%
X121980000Y-112046359D02*
X121980000Y-112353641D01*
X121220000Y-112046359D02*
X121220000Y-112353641D01*
%TO.C,R4*%
X120780000Y-111446359D02*
X120780000Y-111753641D01*
X120020000Y-111446359D02*
X120020000Y-111753641D01*
%TO.C,Q6*%
X182920000Y-71260000D02*
X183850000Y-71260000D01*
X186080000Y-71260000D02*
X185150000Y-71260000D01*
X186080000Y-71260000D02*
X186080000Y-69100000D01*
X182920000Y-71260000D02*
X182920000Y-69800000D01*
%TO.C,Q5*%
X164420000Y-71260000D02*
X165350000Y-71260000D01*
X167580000Y-71260000D02*
X166650000Y-71260000D01*
X167580000Y-71260000D02*
X167580000Y-69100000D01*
X164420000Y-71260000D02*
X164420000Y-69800000D01*
%TO.C,Q4*%
X159920000Y-71260000D02*
X160850000Y-71260000D01*
X163080000Y-71260000D02*
X162150000Y-71260000D01*
X163080000Y-71260000D02*
X163080000Y-69100000D01*
X159920000Y-71260000D02*
X159920000Y-69800000D01*
%TO.C,Q3*%
X141420000Y-71260000D02*
X142350000Y-71260000D01*
X144580000Y-71260000D02*
X143650000Y-71260000D01*
X144580000Y-71260000D02*
X144580000Y-69100000D01*
X141420000Y-71260000D02*
X141420000Y-69800000D01*
%TO.C,Q2*%
X136920000Y-71260000D02*
X137850000Y-71260000D01*
X140080000Y-71260000D02*
X139150000Y-71260000D01*
X140080000Y-71260000D02*
X140080000Y-69100000D01*
X136920000Y-71260000D02*
X136920000Y-69800000D01*
%TO.C,Q1*%
X118420000Y-71260000D02*
X119350000Y-71260000D01*
X121580000Y-71260000D02*
X120650000Y-71260000D01*
X121580000Y-71260000D02*
X121580000Y-69100000D01*
X118420000Y-71260000D02*
X118420000Y-69800000D01*
D12*
%TO.C,K3*%
X164373000Y-101927001D02*
X177127000Y-101927001D01*
X177127000Y-101927001D02*
X177127000Y-72873007D01*
X177127000Y-72873007D02*
X164373000Y-72873007D01*
X164373000Y-72873007D02*
X164373000Y-101927001D01*
%TO.C,K2*%
X141373000Y-101927001D02*
X154127000Y-101927001D01*
X154127000Y-101927001D02*
X154127000Y-72873007D01*
X154127000Y-72873007D02*
X141373000Y-72873007D01*
X141373000Y-72873007D02*
X141373000Y-101927001D01*
%TO.C,K1*%
X118373000Y-101927001D02*
X131127000Y-101927001D01*
X131127000Y-101927001D02*
X131127000Y-72873007D01*
X131127000Y-72873007D02*
X118373000Y-72873007D01*
X118373000Y-72873007D02*
X118373000Y-101927001D01*
%TO.C,J4*%
X172773005Y-114127001D02*
X203026997Y-114127001D01*
X203026997Y-114127001D02*
X203026997Y-104023000D01*
X203026997Y-104023000D02*
X172773005Y-104023000D01*
X172773005Y-104023000D02*
X172773005Y-114127001D01*
X171376005Y-109400000D02*
G75*
G03*
X171376005Y-109400000I-381000J0D01*
G01*
%TO.C,J1*%
X203026999Y-102387001D02*
X203026999Y-83092998D01*
X203026999Y-83092998D02*
X190272999Y-83092998D01*
X190272999Y-83092998D02*
X190272999Y-102387001D01*
X190272999Y-102387001D02*
X203026999Y-102387001D01*
X195381000Y-103022000D02*
G75*
G03*
X195381000Y-103022000I-381000J0D01*
G01*
D11*
%TO.C,F3*%
X184770000Y-72860000D02*
X177830000Y-72860000D01*
X177830000Y-72860000D02*
X177830000Y-89060000D01*
X177830000Y-89060000D02*
X184770000Y-89060000D01*
X184770000Y-89060000D02*
X184770000Y-72860000D01*
X181300000Y-80210000D02*
X181300000Y-81710000D01*
X179300000Y-82560000D02*
X179300000Y-79360000D01*
X183300000Y-79360000D02*
X183300000Y-82560000D01*
%TO.C,F2*%
X161770000Y-72860000D02*
X154830000Y-72860000D01*
X154830000Y-72860000D02*
X154830000Y-89060000D01*
X154830000Y-89060000D02*
X161770000Y-89060000D01*
X161770000Y-89060000D02*
X161770000Y-72860000D01*
X158300000Y-80210000D02*
X158300000Y-81710000D01*
X156300000Y-82560000D02*
X156300000Y-79360000D01*
X160300000Y-79360000D02*
X160300000Y-82560000D01*
%TO.C,F4*%
X203140000Y-82270000D02*
X203140000Y-75330000D01*
X203140000Y-75330000D02*
X186940000Y-75330000D01*
X186940000Y-75330000D02*
X186940000Y-82270000D01*
X186940000Y-82270000D02*
X203140000Y-82270000D01*
X195790000Y-78800000D02*
X194290000Y-78800000D01*
X193440000Y-76800000D02*
X196640000Y-76800000D01*
X196640000Y-80800000D02*
X193440000Y-80800000D01*
%TO.C,F1*%
X138770000Y-72860000D02*
X131830000Y-72860000D01*
X131830000Y-72860000D02*
X131830000Y-89060000D01*
X131830000Y-89060000D02*
X138770000Y-89060000D01*
X138770000Y-89060000D02*
X138770000Y-72860000D01*
X135300000Y-80210000D02*
X135300000Y-81710000D01*
X133300000Y-82560000D02*
X133300000Y-79360000D01*
X137300000Y-79360000D02*
X137300000Y-82560000D01*
%TO.C,D13*%
X178700000Y-101185000D02*
X181185000Y-101185000D01*
X181185000Y-101185000D02*
X181185000Y-99815000D01*
X181185000Y-99815000D02*
X178700000Y-99815000D01*
%TO.C,D12*%
X178700000Y-98685000D02*
X181185000Y-98685000D01*
X181185000Y-98685000D02*
X181185000Y-97315000D01*
X181185000Y-97315000D02*
X178700000Y-97315000D01*
%TO.C,D11*%
X155700000Y-101185000D02*
X158185000Y-101185000D01*
X158185000Y-101185000D02*
X158185000Y-99815000D01*
X158185000Y-99815000D02*
X155700000Y-99815000D01*
%TO.C,D10*%
X155700000Y-98685000D02*
X158185000Y-98685000D01*
X158185000Y-98685000D02*
X158185000Y-97315000D01*
X158185000Y-97315000D02*
X155700000Y-97315000D01*
%TO.C,D9*%
X132700000Y-101685000D02*
X135185000Y-101685000D01*
X135185000Y-101685000D02*
X135185000Y-100315000D01*
X135185000Y-100315000D02*
X132700000Y-100315000D01*
%TO.C,D8*%
X132700000Y-99185000D02*
X135185000Y-99185000D01*
X135185000Y-99185000D02*
X135185000Y-97815000D01*
X135185000Y-97815000D02*
X132700000Y-97815000D01*
%TO.C,D7*%
X200200000Y-73185000D02*
X202685000Y-73185000D01*
X202685000Y-73185000D02*
X202685000Y-71815000D01*
X202685000Y-71815000D02*
X200200000Y-71815000D01*
%TO.C,D6*%
X175600000Y-68850000D02*
X175600000Y-72150000D01*
X175600000Y-72150000D02*
X181000000Y-72150000D01*
X175600000Y-68850000D02*
X181000000Y-68850000D01*
%TO.C,D5*%
X174900000Y-72150000D02*
X174900000Y-68850000D01*
X174900000Y-68850000D02*
X169500000Y-68850000D01*
X174900000Y-72150000D02*
X169500000Y-72150000D01*
%TO.C,D4*%
X152600000Y-68850000D02*
X152600000Y-72150000D01*
X152600000Y-72150000D02*
X158000000Y-72150000D01*
X152600000Y-68850000D02*
X158000000Y-68850000D01*
%TO.C,D3*%
X151900000Y-72150000D02*
X151900000Y-68850000D01*
X151900000Y-68850000D02*
X146500000Y-68850000D01*
X151900000Y-72150000D02*
X146500000Y-72150000D01*
%TO.C,D2*%
X129600000Y-68850000D02*
X129600000Y-72150000D01*
X129600000Y-72150000D02*
X135000000Y-72150000D01*
X129600000Y-68850000D02*
X135000000Y-68850000D01*
%TO.C,D1*%
X128900000Y-72150000D02*
X128900000Y-68850000D01*
X128900000Y-68850000D02*
X123500000Y-68850000D01*
X128900000Y-72150000D02*
X123500000Y-72150000D01*
%TO.C,R28*%
D13*
X141457142Y-105632380D02*
X141123809Y-105156190D01*
X140885714Y-105632380D02*
X140885714Y-104632380D01*
X141266666Y-104632380D01*
X141361904Y-104680000D01*
X141409523Y-104727619D01*
X141457142Y-104822857D01*
X141457142Y-104965714D01*
X141409523Y-105060952D01*
X141361904Y-105108571D01*
X141266666Y-105156190D01*
X140885714Y-105156190D01*
X141838095Y-104727619D02*
X141885714Y-104680000D01*
X141980952Y-104632380D01*
X142219047Y-104632380D01*
X142314285Y-104680000D01*
X142361904Y-104727619D01*
X142409523Y-104822857D01*
X142409523Y-104918095D01*
X142361904Y-105060952D01*
X141790476Y-105632380D01*
X142409523Y-105632380D01*
X142980952Y-105060952D02*
X142885714Y-105013333D01*
X142838095Y-104965714D01*
X142790476Y-104870476D01*
X142790476Y-104822857D01*
X142838095Y-104727619D01*
X142885714Y-104680000D01*
X142980952Y-104632380D01*
X143171428Y-104632380D01*
X143266666Y-104680000D01*
X143314285Y-104727619D01*
X143361904Y-104822857D01*
X143361904Y-104870476D01*
X143314285Y-104965714D01*
X143266666Y-105013333D01*
X143171428Y-105060952D01*
X142980952Y-105060952D01*
X142885714Y-105108571D01*
X142838095Y-105156190D01*
X142790476Y-105251428D01*
X142790476Y-105441904D01*
X142838095Y-105537142D01*
X142885714Y-105584761D01*
X142980952Y-105632380D01*
X143171428Y-105632380D01*
X143266666Y-105584761D01*
X143314285Y-105537142D01*
X143361904Y-105441904D01*
X143361904Y-105251428D01*
X143314285Y-105156190D01*
X143266666Y-105108571D01*
X143171428Y-105060952D01*
%TO.C,R27*%
X151857142Y-103252380D02*
X151523809Y-102776190D01*
X151285714Y-103252380D02*
X151285714Y-102252380D01*
X151666666Y-102252380D01*
X151761904Y-102300000D01*
X151809523Y-102347619D01*
X151857142Y-102442857D01*
X151857142Y-102585714D01*
X151809523Y-102680952D01*
X151761904Y-102728571D01*
X151666666Y-102776190D01*
X151285714Y-102776190D01*
X152238095Y-102347619D02*
X152285714Y-102300000D01*
X152380952Y-102252380D01*
X152619047Y-102252380D01*
X152714285Y-102300000D01*
X152761904Y-102347619D01*
X152809523Y-102442857D01*
X152809523Y-102538095D01*
X152761904Y-102680952D01*
X152190476Y-103252380D01*
X152809523Y-103252380D01*
X153142857Y-102252380D02*
X153809523Y-102252380D01*
X153380952Y-103252380D01*
%TO.C,R26*%
X159807142Y-107152380D02*
X159473809Y-106676190D01*
X159235714Y-107152380D02*
X159235714Y-106152380D01*
X159616666Y-106152380D01*
X159711904Y-106200000D01*
X159759523Y-106247619D01*
X159807142Y-106342857D01*
X159807142Y-106485714D01*
X159759523Y-106580952D01*
X159711904Y-106628571D01*
X159616666Y-106676190D01*
X159235714Y-106676190D01*
X160188095Y-106247619D02*
X160235714Y-106200000D01*
X160330952Y-106152380D01*
X160569047Y-106152380D01*
X160664285Y-106200000D01*
X160711904Y-106247619D01*
X160759523Y-106342857D01*
X160759523Y-106438095D01*
X160711904Y-106580952D01*
X160140476Y-107152380D01*
X160759523Y-107152380D01*
X161616666Y-106152380D02*
X161426190Y-106152380D01*
X161330952Y-106200000D01*
X161283333Y-106247619D01*
X161188095Y-106390476D01*
X161140476Y-106580952D01*
X161140476Y-106961904D01*
X161188095Y-107057142D01*
X161235714Y-107104761D01*
X161330952Y-107152380D01*
X161521428Y-107152380D01*
X161616666Y-107104761D01*
X161664285Y-107057142D01*
X161711904Y-106961904D01*
X161711904Y-106723809D01*
X161664285Y-106628571D01*
X161616666Y-106580952D01*
X161521428Y-106533333D01*
X161330952Y-106533333D01*
X161235714Y-106580952D01*
X161188095Y-106628571D01*
X161140476Y-106723809D01*
%TO.C,R25*%
X154867142Y-104182380D02*
X154533809Y-103706190D01*
X154295714Y-104182380D02*
X154295714Y-103182380D01*
X154676666Y-103182380D01*
X154771904Y-103230000D01*
X154819523Y-103277619D01*
X154867142Y-103372857D01*
X154867142Y-103515714D01*
X154819523Y-103610952D01*
X154771904Y-103658571D01*
X154676666Y-103706190D01*
X154295714Y-103706190D01*
X155248095Y-103277619D02*
X155295714Y-103230000D01*
X155390952Y-103182380D01*
X155629047Y-103182380D01*
X155724285Y-103230000D01*
X155771904Y-103277619D01*
X155819523Y-103372857D01*
X155819523Y-103468095D01*
X155771904Y-103610952D01*
X155200476Y-104182380D01*
X155819523Y-104182380D01*
X156724285Y-103182380D02*
X156248095Y-103182380D01*
X156200476Y-103658571D01*
X156248095Y-103610952D01*
X156343333Y-103563333D01*
X156581428Y-103563333D01*
X156676666Y-103610952D01*
X156724285Y-103658571D01*
X156771904Y-103753809D01*
X156771904Y-103991904D01*
X156724285Y-104087142D01*
X156676666Y-104134761D01*
X156581428Y-104182380D01*
X156343333Y-104182380D01*
X156248095Y-104134761D01*
X156200476Y-104087142D01*
%TO.C,R24*%
X149557142Y-108952380D02*
X149223809Y-108476190D01*
X148985714Y-108952380D02*
X148985714Y-107952380D01*
X149366666Y-107952380D01*
X149461904Y-108000000D01*
X149509523Y-108047619D01*
X149557142Y-108142857D01*
X149557142Y-108285714D01*
X149509523Y-108380952D01*
X149461904Y-108428571D01*
X149366666Y-108476190D01*
X148985714Y-108476190D01*
X149938095Y-108047619D02*
X149985714Y-108000000D01*
X150080952Y-107952380D01*
X150319047Y-107952380D01*
X150414285Y-108000000D01*
X150461904Y-108047619D01*
X150509523Y-108142857D01*
X150509523Y-108238095D01*
X150461904Y-108380952D01*
X149890476Y-108952380D01*
X150509523Y-108952380D01*
X151366666Y-108285714D02*
X151366666Y-108952380D01*
X151128571Y-107904761D02*
X150890476Y-108619047D01*
X151509523Y-108619047D01*
%TO.C,R23*%
X146357142Y-109052380D02*
X146023809Y-108576190D01*
X145785714Y-109052380D02*
X145785714Y-108052380D01*
X146166666Y-108052380D01*
X146261904Y-108100000D01*
X146309523Y-108147619D01*
X146357142Y-108242857D01*
X146357142Y-108385714D01*
X146309523Y-108480952D01*
X146261904Y-108528571D01*
X146166666Y-108576190D01*
X145785714Y-108576190D01*
X146738095Y-108147619D02*
X146785714Y-108100000D01*
X146880952Y-108052380D01*
X147119047Y-108052380D01*
X147214285Y-108100000D01*
X147261904Y-108147619D01*
X147309523Y-108242857D01*
X147309523Y-108338095D01*
X147261904Y-108480952D01*
X146690476Y-109052380D01*
X147309523Y-109052380D01*
X147642857Y-108052380D02*
X148261904Y-108052380D01*
X147928571Y-108433333D01*
X148071428Y-108433333D01*
X148166666Y-108480952D01*
X148214285Y-108528571D01*
X148261904Y-108623809D01*
X148261904Y-108861904D01*
X148214285Y-108957142D01*
X148166666Y-109004761D01*
X148071428Y-109052380D01*
X147785714Y-109052380D01*
X147690476Y-109004761D01*
X147642857Y-108957142D01*
%TO.C,S2*%
X131238095Y-57404761D02*
X131380952Y-57452380D01*
X131619047Y-57452380D01*
X131714285Y-57404761D01*
X131761904Y-57357142D01*
X131809523Y-57261904D01*
X131809523Y-57166666D01*
X131761904Y-57071428D01*
X131714285Y-57023809D01*
X131619047Y-56976190D01*
X131428571Y-56928571D01*
X131333333Y-56880952D01*
X131285714Y-56833333D01*
X131238095Y-56738095D01*
X131238095Y-56642857D01*
X131285714Y-56547619D01*
X131333333Y-56500000D01*
X131428571Y-56452380D01*
X131666666Y-56452380D01*
X131809523Y-56500000D01*
X132190476Y-56547619D02*
X132238095Y-56500000D01*
X132333333Y-56452380D01*
X132571428Y-56452380D01*
X132666666Y-56500000D01*
X132714285Y-56547619D01*
X132761904Y-56642857D01*
X132761904Y-56738095D01*
X132714285Y-56880952D01*
X132142857Y-57452380D01*
X132761904Y-57452380D01*
%TO.C,S1*%
X154238095Y-57904761D02*
X154380952Y-57952380D01*
X154619047Y-57952380D01*
X154714285Y-57904761D01*
X154761904Y-57857142D01*
X154809523Y-57761904D01*
X154809523Y-57666666D01*
X154761904Y-57571428D01*
X154714285Y-57523809D01*
X154619047Y-57476190D01*
X154428571Y-57428571D01*
X154333333Y-57380952D01*
X154285714Y-57333333D01*
X154238095Y-57238095D01*
X154238095Y-57142857D01*
X154285714Y-57047619D01*
X154333333Y-57000000D01*
X154428571Y-56952380D01*
X154666666Y-56952380D01*
X154809523Y-57000000D01*
X155761904Y-57952380D02*
X155190476Y-57952380D01*
X155476190Y-57952380D02*
X155476190Y-56952380D01*
X155380952Y-57095238D01*
X155285714Y-57190476D01*
X155190476Y-57238095D01*
%TO.C,S3*%
X177238095Y-57904761D02*
X177380952Y-57952380D01*
X177619047Y-57952380D01*
X177714285Y-57904761D01*
X177761904Y-57857142D01*
X177809523Y-57761904D01*
X177809523Y-57666666D01*
X177761904Y-57571428D01*
X177714285Y-57523809D01*
X177619047Y-57476190D01*
X177428571Y-57428571D01*
X177333333Y-57380952D01*
X177285714Y-57333333D01*
X177238095Y-57238095D01*
X177238095Y-57142857D01*
X177285714Y-57047619D01*
X177333333Y-57000000D01*
X177428571Y-56952380D01*
X177666666Y-56952380D01*
X177809523Y-57000000D01*
X178142857Y-56952380D02*
X178761904Y-56952380D01*
X178428571Y-57333333D01*
X178571428Y-57333333D01*
X178666666Y-57380952D01*
X178714285Y-57428571D01*
X178761904Y-57523809D01*
X178761904Y-57761904D01*
X178714285Y-57857142D01*
X178666666Y-57904761D01*
X178571428Y-57952380D01*
X178285714Y-57952380D01*
X178190476Y-57904761D01*
X178142857Y-57857142D01*
%TO.C,J2*%
X149286666Y-116212380D02*
X149286666Y-116926666D01*
X149239047Y-117069523D01*
X149143809Y-117164761D01*
X149000952Y-117212380D01*
X148905714Y-117212380D01*
X149715238Y-116307619D02*
X149762857Y-116260000D01*
X149858095Y-116212380D01*
X150096190Y-116212380D01*
X150191428Y-116260000D01*
X150239047Y-116307619D01*
X150286666Y-116402857D01*
X150286666Y-116498095D01*
X150239047Y-116640952D01*
X149667619Y-117212380D01*
X150286666Y-117212380D01*
%TO.C,R3*%
X186933333Y-93352380D02*
X186600000Y-92876190D01*
X186361904Y-93352380D02*
X186361904Y-92352380D01*
X186742857Y-92352380D01*
X186838095Y-92400000D01*
X186885714Y-92447619D01*
X186933333Y-92542857D01*
X186933333Y-92685714D01*
X186885714Y-92780952D01*
X186838095Y-92828571D01*
X186742857Y-92876190D01*
X186361904Y-92876190D01*
X187266666Y-92352380D02*
X187885714Y-92352380D01*
X187552380Y-92733333D01*
X187695238Y-92733333D01*
X187790476Y-92780952D01*
X187838095Y-92828571D01*
X187885714Y-92923809D01*
X187885714Y-93161904D01*
X187838095Y-93257142D01*
X187790476Y-93304761D01*
X187695238Y-93352380D01*
X187409523Y-93352380D01*
X187314285Y-93304761D01*
X187266666Y-93257142D01*
%TO.C,R2*%
X162933333Y-89152380D02*
X162600000Y-88676190D01*
X162361904Y-89152380D02*
X162361904Y-88152380D01*
X162742857Y-88152380D01*
X162838095Y-88200000D01*
X162885714Y-88247619D01*
X162933333Y-88342857D01*
X162933333Y-88485714D01*
X162885714Y-88580952D01*
X162838095Y-88628571D01*
X162742857Y-88676190D01*
X162361904Y-88676190D01*
X163314285Y-88247619D02*
X163361904Y-88200000D01*
X163457142Y-88152380D01*
X163695238Y-88152380D01*
X163790476Y-88200000D01*
X163838095Y-88247619D01*
X163885714Y-88342857D01*
X163885714Y-88438095D01*
X163838095Y-88580952D01*
X163266666Y-89152380D01*
X163885714Y-89152380D01*
%TO.C,R1*%
X139833333Y-89152380D02*
X139500000Y-88676190D01*
X139261904Y-89152380D02*
X139261904Y-88152380D01*
X139642857Y-88152380D01*
X139738095Y-88200000D01*
X139785714Y-88247619D01*
X139833333Y-88342857D01*
X139833333Y-88485714D01*
X139785714Y-88580952D01*
X139738095Y-88628571D01*
X139642857Y-88676190D01*
X139261904Y-88676190D01*
X140785714Y-89152380D02*
X140214285Y-89152380D01*
X140500000Y-89152380D02*
X140500000Y-88152380D01*
X140404761Y-88295238D01*
X140309523Y-88390476D01*
X140214285Y-88438095D01*
%TO.C,C1*%
X117033333Y-107357142D02*
X116985714Y-107404761D01*
X116842857Y-107452380D01*
X116747619Y-107452380D01*
X116604761Y-107404761D01*
X116509523Y-107309523D01*
X116461904Y-107214285D01*
X116414285Y-107023809D01*
X116414285Y-106880952D01*
X116461904Y-106690476D01*
X116509523Y-106595238D01*
X116604761Y-106500000D01*
X116747619Y-106452380D01*
X116842857Y-106452380D01*
X116985714Y-106500000D01*
X117033333Y-106547619D01*
X117985714Y-107452380D02*
X117414285Y-107452380D01*
X117700000Y-107452380D02*
X117700000Y-106452380D01*
X117604761Y-106595238D01*
X117509523Y-106690476D01*
X117414285Y-106738095D01*
%TO.C,U2*%
X121238095Y-102532380D02*
X121238095Y-103341904D01*
X121285714Y-103437142D01*
X121333333Y-103484761D01*
X121428571Y-103532380D01*
X121619047Y-103532380D01*
X121714285Y-103484761D01*
X121761904Y-103437142D01*
X121809523Y-103341904D01*
X121809523Y-102532380D01*
X122238095Y-102627619D02*
X122285714Y-102580000D01*
X122380952Y-102532380D01*
X122619047Y-102532380D01*
X122714285Y-102580000D01*
X122761904Y-102627619D01*
X122809523Y-102722857D01*
X122809523Y-102818095D01*
X122761904Y-102960952D01*
X122190476Y-103532380D01*
X122809523Y-103532380D01*
%TO.C,U1*%
X191698095Y-66412380D02*
X191698095Y-67221904D01*
X191745714Y-67317142D01*
X191793333Y-67364761D01*
X191888571Y-67412380D01*
X192079047Y-67412380D01*
X192174285Y-67364761D01*
X192221904Y-67317142D01*
X192269523Y-67221904D01*
X192269523Y-66412380D01*
X193269523Y-67412380D02*
X192698095Y-67412380D01*
X192983809Y-67412380D02*
X192983809Y-66412380D01*
X192888571Y-66555238D01*
X192793333Y-66650476D01*
X192698095Y-66698095D01*
%TO.C,R22*%
X183357142Y-103272380D02*
X183023809Y-102796190D01*
X182785714Y-103272380D02*
X182785714Y-102272380D01*
X183166666Y-102272380D01*
X183261904Y-102320000D01*
X183309523Y-102367619D01*
X183357142Y-102462857D01*
X183357142Y-102605714D01*
X183309523Y-102700952D01*
X183261904Y-102748571D01*
X183166666Y-102796190D01*
X182785714Y-102796190D01*
X183738095Y-102367619D02*
X183785714Y-102320000D01*
X183880952Y-102272380D01*
X184119047Y-102272380D01*
X184214285Y-102320000D01*
X184261904Y-102367619D01*
X184309523Y-102462857D01*
X184309523Y-102558095D01*
X184261904Y-102700952D01*
X183690476Y-103272380D01*
X184309523Y-103272380D01*
X184690476Y-102367619D02*
X184738095Y-102320000D01*
X184833333Y-102272380D01*
X185071428Y-102272380D01*
X185166666Y-102320000D01*
X185214285Y-102367619D01*
X185261904Y-102462857D01*
X185261904Y-102558095D01*
X185214285Y-102700952D01*
X184642857Y-103272380D01*
X185261904Y-103272380D01*
%TO.C,R21*%
X182657142Y-97052380D02*
X182323809Y-96576190D01*
X182085714Y-97052380D02*
X182085714Y-96052380D01*
X182466666Y-96052380D01*
X182561904Y-96100000D01*
X182609523Y-96147619D01*
X182657142Y-96242857D01*
X182657142Y-96385714D01*
X182609523Y-96480952D01*
X182561904Y-96528571D01*
X182466666Y-96576190D01*
X182085714Y-96576190D01*
X183038095Y-96147619D02*
X183085714Y-96100000D01*
X183180952Y-96052380D01*
X183419047Y-96052380D01*
X183514285Y-96100000D01*
X183561904Y-96147619D01*
X183609523Y-96242857D01*
X183609523Y-96338095D01*
X183561904Y-96480952D01*
X182990476Y-97052380D01*
X183609523Y-97052380D01*
X184561904Y-97052380D02*
X183990476Y-97052380D01*
X184276190Y-97052380D02*
X184276190Y-96052380D01*
X184180952Y-96195238D01*
X184085714Y-96290476D01*
X183990476Y-96338095D01*
%TO.C,R20*%
X160357142Y-103272380D02*
X160023809Y-102796190D01*
X159785714Y-103272380D02*
X159785714Y-102272380D01*
X160166666Y-102272380D01*
X160261904Y-102320000D01*
X160309523Y-102367619D01*
X160357142Y-102462857D01*
X160357142Y-102605714D01*
X160309523Y-102700952D01*
X160261904Y-102748571D01*
X160166666Y-102796190D01*
X159785714Y-102796190D01*
X160738095Y-102367619D02*
X160785714Y-102320000D01*
X160880952Y-102272380D01*
X161119047Y-102272380D01*
X161214285Y-102320000D01*
X161261904Y-102367619D01*
X161309523Y-102462857D01*
X161309523Y-102558095D01*
X161261904Y-102700952D01*
X160690476Y-103272380D01*
X161309523Y-103272380D01*
X161928571Y-102272380D02*
X162023809Y-102272380D01*
X162119047Y-102320000D01*
X162166666Y-102367619D01*
X162214285Y-102462857D01*
X162261904Y-102653333D01*
X162261904Y-102891428D01*
X162214285Y-103081904D01*
X162166666Y-103177142D01*
X162119047Y-103224761D01*
X162023809Y-103272380D01*
X161928571Y-103272380D01*
X161833333Y-103224761D01*
X161785714Y-103177142D01*
X161738095Y-103081904D01*
X161690476Y-102891428D01*
X161690476Y-102653333D01*
X161738095Y-102462857D01*
X161785714Y-102367619D01*
X161833333Y-102320000D01*
X161928571Y-102272380D01*
%TO.C,R19*%
X160057142Y-96952380D02*
X159723809Y-96476190D01*
X159485714Y-96952380D02*
X159485714Y-95952380D01*
X159866666Y-95952380D01*
X159961904Y-96000000D01*
X160009523Y-96047619D01*
X160057142Y-96142857D01*
X160057142Y-96285714D01*
X160009523Y-96380952D01*
X159961904Y-96428571D01*
X159866666Y-96476190D01*
X159485714Y-96476190D01*
X161009523Y-96952380D02*
X160438095Y-96952380D01*
X160723809Y-96952380D02*
X160723809Y-95952380D01*
X160628571Y-96095238D01*
X160533333Y-96190476D01*
X160438095Y-96238095D01*
X161485714Y-96952380D02*
X161676190Y-96952380D01*
X161771428Y-96904761D01*
X161819047Y-96857142D01*
X161914285Y-96714285D01*
X161961904Y-96523809D01*
X161961904Y-96142857D01*
X161914285Y-96047619D01*
X161866666Y-96000000D01*
X161771428Y-95952380D01*
X161580952Y-95952380D01*
X161485714Y-96000000D01*
X161438095Y-96047619D01*
X161390476Y-96142857D01*
X161390476Y-96380952D01*
X161438095Y-96476190D01*
X161485714Y-96523809D01*
X161580952Y-96571428D01*
X161771428Y-96571428D01*
X161866666Y-96523809D01*
X161914285Y-96476190D01*
X161961904Y-96380952D01*
%TO.C,R18*%
X137357142Y-103772380D02*
X137023809Y-103296190D01*
X136785714Y-103772380D02*
X136785714Y-102772380D01*
X137166666Y-102772380D01*
X137261904Y-102820000D01*
X137309523Y-102867619D01*
X137357142Y-102962857D01*
X137357142Y-103105714D01*
X137309523Y-103200952D01*
X137261904Y-103248571D01*
X137166666Y-103296190D01*
X136785714Y-103296190D01*
X138309523Y-103772380D02*
X137738095Y-103772380D01*
X138023809Y-103772380D02*
X138023809Y-102772380D01*
X137928571Y-102915238D01*
X137833333Y-103010476D01*
X137738095Y-103058095D01*
X138880952Y-103200952D02*
X138785714Y-103153333D01*
X138738095Y-103105714D01*
X138690476Y-103010476D01*
X138690476Y-102962857D01*
X138738095Y-102867619D01*
X138785714Y-102820000D01*
X138880952Y-102772380D01*
X139071428Y-102772380D01*
X139166666Y-102820000D01*
X139214285Y-102867619D01*
X139261904Y-102962857D01*
X139261904Y-103010476D01*
X139214285Y-103105714D01*
X139166666Y-103153333D01*
X139071428Y-103200952D01*
X138880952Y-103200952D01*
X138785714Y-103248571D01*
X138738095Y-103296190D01*
X138690476Y-103391428D01*
X138690476Y-103581904D01*
X138738095Y-103677142D01*
X138785714Y-103724761D01*
X138880952Y-103772380D01*
X139071428Y-103772380D01*
X139166666Y-103724761D01*
X139214285Y-103677142D01*
X139261904Y-103581904D01*
X139261904Y-103391428D01*
X139214285Y-103296190D01*
X139166666Y-103248571D01*
X139071428Y-103200952D01*
%TO.C,R17*%
X137257142Y-97452380D02*
X136923809Y-96976190D01*
X136685714Y-97452380D02*
X136685714Y-96452380D01*
X137066666Y-96452380D01*
X137161904Y-96500000D01*
X137209523Y-96547619D01*
X137257142Y-96642857D01*
X137257142Y-96785714D01*
X137209523Y-96880952D01*
X137161904Y-96928571D01*
X137066666Y-96976190D01*
X136685714Y-96976190D01*
X138209523Y-97452380D02*
X137638095Y-97452380D01*
X137923809Y-97452380D02*
X137923809Y-96452380D01*
X137828571Y-96595238D01*
X137733333Y-96690476D01*
X137638095Y-96738095D01*
X138542857Y-96452380D02*
X139209523Y-96452380D01*
X138780952Y-97452380D01*
%TO.C,R16*%
X200357142Y-68632380D02*
X200023809Y-68156190D01*
X199785714Y-68632380D02*
X199785714Y-67632380D01*
X200166666Y-67632380D01*
X200261904Y-67680000D01*
X200309523Y-67727619D01*
X200357142Y-67822857D01*
X200357142Y-67965714D01*
X200309523Y-68060952D01*
X200261904Y-68108571D01*
X200166666Y-68156190D01*
X199785714Y-68156190D01*
X201309523Y-68632380D02*
X200738095Y-68632380D01*
X201023809Y-68632380D02*
X201023809Y-67632380D01*
X200928571Y-67775238D01*
X200833333Y-67870476D01*
X200738095Y-67918095D01*
X202166666Y-67632380D02*
X201976190Y-67632380D01*
X201880952Y-67680000D01*
X201833333Y-67727619D01*
X201738095Y-67870476D01*
X201690476Y-68060952D01*
X201690476Y-68441904D01*
X201738095Y-68537142D01*
X201785714Y-68584761D01*
X201880952Y-68632380D01*
X202071428Y-68632380D01*
X202166666Y-68584761D01*
X202214285Y-68537142D01*
X202261904Y-68441904D01*
X202261904Y-68203809D01*
X202214285Y-68108571D01*
X202166666Y-68060952D01*
X202071428Y-68013333D01*
X201880952Y-68013333D01*
X201785714Y-68060952D01*
X201738095Y-68108571D01*
X201690476Y-68203809D01*
%TO.C,R15*%
X156857142Y-59952380D02*
X156523809Y-59476190D01*
X156285714Y-59952380D02*
X156285714Y-58952380D01*
X156666666Y-58952380D01*
X156761904Y-59000000D01*
X156809523Y-59047619D01*
X156857142Y-59142857D01*
X156857142Y-59285714D01*
X156809523Y-59380952D01*
X156761904Y-59428571D01*
X156666666Y-59476190D01*
X156285714Y-59476190D01*
X157809523Y-59952380D02*
X157238095Y-59952380D01*
X157523809Y-59952380D02*
X157523809Y-58952380D01*
X157428571Y-59095238D01*
X157333333Y-59190476D01*
X157238095Y-59238095D01*
X158714285Y-58952380D02*
X158238095Y-58952380D01*
X158190476Y-59428571D01*
X158238095Y-59380952D01*
X158333333Y-59333333D01*
X158571428Y-59333333D01*
X158666666Y-59380952D01*
X158714285Y-59428571D01*
X158761904Y-59523809D01*
X158761904Y-59761904D01*
X158714285Y-59857142D01*
X158666666Y-59904761D01*
X158571428Y-59952380D01*
X158333333Y-59952380D01*
X158238095Y-59904761D01*
X158190476Y-59857142D01*
%TO.C,R14*%
X179957142Y-59952380D02*
X179623809Y-59476190D01*
X179385714Y-59952380D02*
X179385714Y-58952380D01*
X179766666Y-58952380D01*
X179861904Y-59000000D01*
X179909523Y-59047619D01*
X179957142Y-59142857D01*
X179957142Y-59285714D01*
X179909523Y-59380952D01*
X179861904Y-59428571D01*
X179766666Y-59476190D01*
X179385714Y-59476190D01*
X180909523Y-59952380D02*
X180338095Y-59952380D01*
X180623809Y-59952380D02*
X180623809Y-58952380D01*
X180528571Y-59095238D01*
X180433333Y-59190476D01*
X180338095Y-59238095D01*
X181766666Y-59285714D02*
X181766666Y-59952380D01*
X181528571Y-58904761D02*
X181290476Y-59619047D01*
X181909523Y-59619047D01*
%TO.C,R13*%
X134357142Y-59952380D02*
X134023809Y-59476190D01*
X133785714Y-59952380D02*
X133785714Y-58952380D01*
X134166666Y-58952380D01*
X134261904Y-59000000D01*
X134309523Y-59047619D01*
X134357142Y-59142857D01*
X134357142Y-59285714D01*
X134309523Y-59380952D01*
X134261904Y-59428571D01*
X134166666Y-59476190D01*
X133785714Y-59476190D01*
X135309523Y-59952380D02*
X134738095Y-59952380D01*
X135023809Y-59952380D02*
X135023809Y-58952380D01*
X134928571Y-59095238D01*
X134833333Y-59190476D01*
X134738095Y-59238095D01*
X135642857Y-58952380D02*
X136261904Y-58952380D01*
X135928571Y-59333333D01*
X136071428Y-59333333D01*
X136166666Y-59380952D01*
X136214285Y-59428571D01*
X136261904Y-59523809D01*
X136261904Y-59761904D01*
X136214285Y-59857142D01*
X136166666Y-59904761D01*
X136071428Y-59952380D01*
X135785714Y-59952380D01*
X135690476Y-59904761D01*
X135642857Y-59857142D01*
%TO.C,R12*%
X182857142Y-62452380D02*
X182523809Y-61976190D01*
X182285714Y-62452380D02*
X182285714Y-61452380D01*
X182666666Y-61452380D01*
X182761904Y-61500000D01*
X182809523Y-61547619D01*
X182857142Y-61642857D01*
X182857142Y-61785714D01*
X182809523Y-61880952D01*
X182761904Y-61928571D01*
X182666666Y-61976190D01*
X182285714Y-61976190D01*
X183809523Y-62452380D02*
X183238095Y-62452380D01*
X183523809Y-62452380D02*
X183523809Y-61452380D01*
X183428571Y-61595238D01*
X183333333Y-61690476D01*
X183238095Y-61738095D01*
X184190476Y-61547619D02*
X184238095Y-61500000D01*
X184333333Y-61452380D01*
X184571428Y-61452380D01*
X184666666Y-61500000D01*
X184714285Y-61547619D01*
X184761904Y-61642857D01*
X184761904Y-61738095D01*
X184714285Y-61880952D01*
X184142857Y-62452380D01*
X184761904Y-62452380D01*
%TO.C,R11*%
X125957142Y-106282380D02*
X125623809Y-105806190D01*
X125385714Y-106282380D02*
X125385714Y-105282380D01*
X125766666Y-105282380D01*
X125861904Y-105330000D01*
X125909523Y-105377619D01*
X125957142Y-105472857D01*
X125957142Y-105615714D01*
X125909523Y-105710952D01*
X125861904Y-105758571D01*
X125766666Y-105806190D01*
X125385714Y-105806190D01*
X126909523Y-106282380D02*
X126338095Y-106282380D01*
X126623809Y-106282380D02*
X126623809Y-105282380D01*
X126528571Y-105425238D01*
X126433333Y-105520476D01*
X126338095Y-105568095D01*
X127861904Y-106282380D02*
X127290476Y-106282380D01*
X127576190Y-106282380D02*
X127576190Y-105282380D01*
X127480952Y-105425238D01*
X127385714Y-105520476D01*
X127290476Y-105568095D01*
%TO.C,R10*%
X128927142Y-107602380D02*
X128593809Y-107126190D01*
X128355714Y-107602380D02*
X128355714Y-106602380D01*
X128736666Y-106602380D01*
X128831904Y-106650000D01*
X128879523Y-106697619D01*
X128927142Y-106792857D01*
X128927142Y-106935714D01*
X128879523Y-107030952D01*
X128831904Y-107078571D01*
X128736666Y-107126190D01*
X128355714Y-107126190D01*
X129879523Y-107602380D02*
X129308095Y-107602380D01*
X129593809Y-107602380D02*
X129593809Y-106602380D01*
X129498571Y-106745238D01*
X129403333Y-106840476D01*
X129308095Y-106888095D01*
X130498571Y-106602380D02*
X130593809Y-106602380D01*
X130689047Y-106650000D01*
X130736666Y-106697619D01*
X130784285Y-106792857D01*
X130831904Y-106983333D01*
X130831904Y-107221428D01*
X130784285Y-107411904D01*
X130736666Y-107507142D01*
X130689047Y-107554761D01*
X130593809Y-107602380D01*
X130498571Y-107602380D01*
X130403333Y-107554761D01*
X130355714Y-107507142D01*
X130308095Y-107411904D01*
X130260476Y-107221428D01*
X130260476Y-106983333D01*
X130308095Y-106792857D01*
X130355714Y-106697619D01*
X130403333Y-106650000D01*
X130498571Y-106602380D01*
%TO.C,R9*%
X124933333Y-111652380D02*
X124600000Y-111176190D01*
X124361904Y-111652380D02*
X124361904Y-110652380D01*
X124742857Y-110652380D01*
X124838095Y-110700000D01*
X124885714Y-110747619D01*
X124933333Y-110842857D01*
X124933333Y-110985714D01*
X124885714Y-111080952D01*
X124838095Y-111128571D01*
X124742857Y-111176190D01*
X124361904Y-111176190D01*
X125409523Y-111652380D02*
X125600000Y-111652380D01*
X125695238Y-111604761D01*
X125742857Y-111557142D01*
X125838095Y-111414285D01*
X125885714Y-111223809D01*
X125885714Y-110842857D01*
X125838095Y-110747619D01*
X125790476Y-110700000D01*
X125695238Y-110652380D01*
X125504761Y-110652380D01*
X125409523Y-110700000D01*
X125361904Y-110747619D01*
X125314285Y-110842857D01*
X125314285Y-111080952D01*
X125361904Y-111176190D01*
X125409523Y-111223809D01*
X125504761Y-111271428D01*
X125695238Y-111271428D01*
X125790476Y-111223809D01*
X125838095Y-111176190D01*
X125885714Y-111080952D01*
%TO.C,R8*%
X136833333Y-62452380D02*
X136500000Y-61976190D01*
X136261904Y-62452380D02*
X136261904Y-61452380D01*
X136642857Y-61452380D01*
X136738095Y-61500000D01*
X136785714Y-61547619D01*
X136833333Y-61642857D01*
X136833333Y-61785714D01*
X136785714Y-61880952D01*
X136738095Y-61928571D01*
X136642857Y-61976190D01*
X136261904Y-61976190D01*
X137404761Y-61880952D02*
X137309523Y-61833333D01*
X137261904Y-61785714D01*
X137214285Y-61690476D01*
X137214285Y-61642857D01*
X137261904Y-61547619D01*
X137309523Y-61500000D01*
X137404761Y-61452380D01*
X137595238Y-61452380D01*
X137690476Y-61500000D01*
X137738095Y-61547619D01*
X137785714Y-61642857D01*
X137785714Y-61690476D01*
X137738095Y-61785714D01*
X137690476Y-61833333D01*
X137595238Y-61880952D01*
X137404761Y-61880952D01*
X137309523Y-61928571D01*
X137261904Y-61976190D01*
X137214285Y-62071428D01*
X137214285Y-62261904D01*
X137261904Y-62357142D01*
X137309523Y-62404761D01*
X137404761Y-62452380D01*
X137595238Y-62452380D01*
X137690476Y-62404761D01*
X137738095Y-62357142D01*
X137785714Y-62261904D01*
X137785714Y-62071428D01*
X137738095Y-61976190D01*
X137690476Y-61928571D01*
X137595238Y-61880952D01*
%TO.C,R7*%
X126333333Y-103652380D02*
X126000000Y-103176190D01*
X125761904Y-103652380D02*
X125761904Y-102652380D01*
X126142857Y-102652380D01*
X126238095Y-102700000D01*
X126285714Y-102747619D01*
X126333333Y-102842857D01*
X126333333Y-102985714D01*
X126285714Y-103080952D01*
X126238095Y-103128571D01*
X126142857Y-103176190D01*
X125761904Y-103176190D01*
X126666666Y-102652380D02*
X127333333Y-102652380D01*
X126904761Y-103652380D01*
%TO.C,R6*%
X159833333Y-62452380D02*
X159500000Y-61976190D01*
X159261904Y-62452380D02*
X159261904Y-61452380D01*
X159642857Y-61452380D01*
X159738095Y-61500000D01*
X159785714Y-61547619D01*
X159833333Y-61642857D01*
X159833333Y-61785714D01*
X159785714Y-61880952D01*
X159738095Y-61928571D01*
X159642857Y-61976190D01*
X159261904Y-61976190D01*
X160690476Y-61452380D02*
X160500000Y-61452380D01*
X160404761Y-61500000D01*
X160357142Y-61547619D01*
X160261904Y-61690476D01*
X160214285Y-61880952D01*
X160214285Y-62261904D01*
X160261904Y-62357142D01*
X160309523Y-62404761D01*
X160404761Y-62452380D01*
X160595238Y-62452380D01*
X160690476Y-62404761D01*
X160738095Y-62357142D01*
X160785714Y-62261904D01*
X160785714Y-62023809D01*
X160738095Y-61928571D01*
X160690476Y-61880952D01*
X160595238Y-61833333D01*
X160404761Y-61833333D01*
X160309523Y-61880952D01*
X160261904Y-61928571D01*
X160214285Y-62023809D01*
%TO.C,R5*%
X122933333Y-113152380D02*
X122600000Y-112676190D01*
X122361904Y-113152380D02*
X122361904Y-112152380D01*
X122742857Y-112152380D01*
X122838095Y-112200000D01*
X122885714Y-112247619D01*
X122933333Y-112342857D01*
X122933333Y-112485714D01*
X122885714Y-112580952D01*
X122838095Y-112628571D01*
X122742857Y-112676190D01*
X122361904Y-112676190D01*
X123838095Y-112152380D02*
X123361904Y-112152380D01*
X123314285Y-112628571D01*
X123361904Y-112580952D01*
X123457142Y-112533333D01*
X123695238Y-112533333D01*
X123790476Y-112580952D01*
X123838095Y-112628571D01*
X123885714Y-112723809D01*
X123885714Y-112961904D01*
X123838095Y-113057142D01*
X123790476Y-113104761D01*
X123695238Y-113152380D01*
X123457142Y-113152380D01*
X123361904Y-113104761D01*
X123314285Y-113057142D01*
%TO.C,R4*%
X118733333Y-111752380D02*
X118400000Y-111276190D01*
X118161904Y-111752380D02*
X118161904Y-110752380D01*
X118542857Y-110752380D01*
X118638095Y-110800000D01*
X118685714Y-110847619D01*
X118733333Y-110942857D01*
X118733333Y-111085714D01*
X118685714Y-111180952D01*
X118638095Y-111228571D01*
X118542857Y-111276190D01*
X118161904Y-111276190D01*
X119590476Y-111085714D02*
X119590476Y-111752380D01*
X119352380Y-110704761D02*
X119114285Y-111419047D01*
X119733333Y-111419047D01*
%TO.C,Q6*%
X184654761Y-68547619D02*
X184559523Y-68500000D01*
X184464285Y-68404761D01*
X184321428Y-68261904D01*
X184226190Y-68214285D01*
X184130952Y-68214285D01*
X184178571Y-68452380D02*
X184083333Y-68404761D01*
X183988095Y-68309523D01*
X183940476Y-68119047D01*
X183940476Y-67785714D01*
X183988095Y-67595238D01*
X184083333Y-67500000D01*
X184178571Y-67452380D01*
X184369047Y-67452380D01*
X184464285Y-67500000D01*
X184559523Y-67595238D01*
X184607142Y-67785714D01*
X184607142Y-68119047D01*
X184559523Y-68309523D01*
X184464285Y-68404761D01*
X184369047Y-68452380D01*
X184178571Y-68452380D01*
X185464285Y-67452380D02*
X185273809Y-67452380D01*
X185178571Y-67500000D01*
X185130952Y-67547619D01*
X185035714Y-67690476D01*
X184988095Y-67880952D01*
X184988095Y-68261904D01*
X185035714Y-68357142D01*
X185083333Y-68404761D01*
X185178571Y-68452380D01*
X185369047Y-68452380D01*
X185464285Y-68404761D01*
X185511904Y-68357142D01*
X185559523Y-68261904D01*
X185559523Y-68023809D01*
X185511904Y-67928571D01*
X185464285Y-67880952D01*
X185369047Y-67833333D01*
X185178571Y-67833333D01*
X185083333Y-67880952D01*
X185035714Y-67928571D01*
X184988095Y-68023809D01*
%TO.C,Q5*%
X165904761Y-68547619D02*
X165809523Y-68500000D01*
X165714285Y-68404761D01*
X165571428Y-68261904D01*
X165476190Y-68214285D01*
X165380952Y-68214285D01*
X165428571Y-68452380D02*
X165333333Y-68404761D01*
X165238095Y-68309523D01*
X165190476Y-68119047D01*
X165190476Y-67785714D01*
X165238095Y-67595238D01*
X165333333Y-67500000D01*
X165428571Y-67452380D01*
X165619047Y-67452380D01*
X165714285Y-67500000D01*
X165809523Y-67595238D01*
X165857142Y-67785714D01*
X165857142Y-68119047D01*
X165809523Y-68309523D01*
X165714285Y-68404761D01*
X165619047Y-68452380D01*
X165428571Y-68452380D01*
X166761904Y-67452380D02*
X166285714Y-67452380D01*
X166238095Y-67928571D01*
X166285714Y-67880952D01*
X166380952Y-67833333D01*
X166619047Y-67833333D01*
X166714285Y-67880952D01*
X166761904Y-67928571D01*
X166809523Y-68023809D01*
X166809523Y-68261904D01*
X166761904Y-68357142D01*
X166714285Y-68404761D01*
X166619047Y-68452380D01*
X166380952Y-68452380D01*
X166285714Y-68404761D01*
X166238095Y-68357142D01*
%TO.C,Q4*%
X161404761Y-68547619D02*
X161309523Y-68500000D01*
X161214285Y-68404761D01*
X161071428Y-68261904D01*
X160976190Y-68214285D01*
X160880952Y-68214285D01*
X160928571Y-68452380D02*
X160833333Y-68404761D01*
X160738095Y-68309523D01*
X160690476Y-68119047D01*
X160690476Y-67785714D01*
X160738095Y-67595238D01*
X160833333Y-67500000D01*
X160928571Y-67452380D01*
X161119047Y-67452380D01*
X161214285Y-67500000D01*
X161309523Y-67595238D01*
X161357142Y-67785714D01*
X161357142Y-68119047D01*
X161309523Y-68309523D01*
X161214285Y-68404761D01*
X161119047Y-68452380D01*
X160928571Y-68452380D01*
X162214285Y-67785714D02*
X162214285Y-68452380D01*
X161976190Y-67404761D02*
X161738095Y-68119047D01*
X162357142Y-68119047D01*
%TO.C,Q3*%
X142874761Y-68537619D02*
X142779523Y-68490000D01*
X142684285Y-68394761D01*
X142541428Y-68251904D01*
X142446190Y-68204285D01*
X142350952Y-68204285D01*
X142398571Y-68442380D02*
X142303333Y-68394761D01*
X142208095Y-68299523D01*
X142160476Y-68109047D01*
X142160476Y-67775714D01*
X142208095Y-67585238D01*
X142303333Y-67490000D01*
X142398571Y-67442380D01*
X142589047Y-67442380D01*
X142684285Y-67490000D01*
X142779523Y-67585238D01*
X142827142Y-67775714D01*
X142827142Y-68109047D01*
X142779523Y-68299523D01*
X142684285Y-68394761D01*
X142589047Y-68442380D01*
X142398571Y-68442380D01*
X143160476Y-67442380D02*
X143779523Y-67442380D01*
X143446190Y-67823333D01*
X143589047Y-67823333D01*
X143684285Y-67870952D01*
X143731904Y-67918571D01*
X143779523Y-68013809D01*
X143779523Y-68251904D01*
X143731904Y-68347142D01*
X143684285Y-68394761D01*
X143589047Y-68442380D01*
X143303333Y-68442380D01*
X143208095Y-68394761D01*
X143160476Y-68347142D01*
%TO.C,Q2*%
X138334761Y-68467619D02*
X138239523Y-68420000D01*
X138144285Y-68324761D01*
X138001428Y-68181904D01*
X137906190Y-68134285D01*
X137810952Y-68134285D01*
X137858571Y-68372380D02*
X137763333Y-68324761D01*
X137668095Y-68229523D01*
X137620476Y-68039047D01*
X137620476Y-67705714D01*
X137668095Y-67515238D01*
X137763333Y-67420000D01*
X137858571Y-67372380D01*
X138049047Y-67372380D01*
X138144285Y-67420000D01*
X138239523Y-67515238D01*
X138287142Y-67705714D01*
X138287142Y-68039047D01*
X138239523Y-68229523D01*
X138144285Y-68324761D01*
X138049047Y-68372380D01*
X137858571Y-68372380D01*
X138668095Y-67467619D02*
X138715714Y-67420000D01*
X138810952Y-67372380D01*
X139049047Y-67372380D01*
X139144285Y-67420000D01*
X139191904Y-67467619D01*
X139239523Y-67562857D01*
X139239523Y-67658095D01*
X139191904Y-67800952D01*
X138620476Y-68372380D01*
X139239523Y-68372380D01*
%TO.C,Q1*%
X123047619Y-70595238D02*
X123000000Y-70690476D01*
X122904761Y-70785714D01*
X122761904Y-70928571D01*
X122714285Y-71023809D01*
X122714285Y-71119047D01*
X122952380Y-71071428D02*
X122904761Y-71166666D01*
X122809523Y-71261904D01*
X122619047Y-71309523D01*
X122285714Y-71309523D01*
X122095238Y-71261904D01*
X122000000Y-71166666D01*
X121952380Y-71071428D01*
X121952380Y-70880952D01*
X122000000Y-70785714D01*
X122095238Y-70690476D01*
X122285714Y-70642857D01*
X122619047Y-70642857D01*
X122809523Y-70690476D01*
X122904761Y-70785714D01*
X122952380Y-70880952D01*
X122952380Y-71071428D01*
X122952380Y-69690476D02*
X122952380Y-70261904D01*
X122952380Y-69976190D02*
X121952380Y-69976190D01*
X122095238Y-70071428D01*
X122190476Y-70166666D01*
X122238095Y-70261904D01*
%TO.C,K3*%
X170011904Y-87852384D02*
X170011904Y-86852384D01*
X170583333Y-87852384D02*
X170154761Y-87280956D01*
X170583333Y-86852384D02*
X170011904Y-87423813D01*
X170916666Y-86852384D02*
X171535714Y-86852384D01*
X171202380Y-87233337D01*
X171345238Y-87233337D01*
X171440476Y-87280956D01*
X171488095Y-87328575D01*
X171535714Y-87423813D01*
X171535714Y-87661908D01*
X171488095Y-87757146D01*
X171440476Y-87804765D01*
X171345238Y-87852384D01*
X171059523Y-87852384D01*
X170964285Y-87804765D01*
X170916666Y-87757146D01*
X165107142Y-86900004D02*
X165011904Y-86852384D01*
X164869047Y-86852384D01*
X164726190Y-86900004D01*
X164630952Y-86995242D01*
X164583333Y-87090480D01*
X164535714Y-87280956D01*
X164535714Y-87423813D01*
X164583333Y-87614289D01*
X164630952Y-87709527D01*
X164726190Y-87804765D01*
X164869047Y-87852384D01*
X164964285Y-87852384D01*
X165107142Y-87804765D01*
X165154761Y-87757146D01*
X165154761Y-87423813D01*
X164964285Y-87423813D01*
X166059523Y-86852384D02*
X165583333Y-86852384D01*
X165535714Y-87328575D01*
X165583333Y-87280956D01*
X165678571Y-87233337D01*
X165916666Y-87233337D01*
X166011904Y-87280956D01*
X166059523Y-87328575D01*
X166107142Y-87423813D01*
X166107142Y-87661908D01*
X166059523Y-87757146D01*
X166011904Y-87804765D01*
X165916666Y-87852384D01*
X165678571Y-87852384D01*
X165583333Y-87804765D01*
X165535714Y-87757146D01*
X167107142Y-87852384D02*
X166773809Y-87376194D01*
X166535714Y-87852384D02*
X166535714Y-86852384D01*
X166916666Y-86852384D01*
X167011904Y-86900004D01*
X167059523Y-86947623D01*
X167107142Y-87042861D01*
X167107142Y-87185718D01*
X167059523Y-87280956D01*
X167011904Y-87328575D01*
X166916666Y-87376194D01*
X166535714Y-87376194D01*
X168011904Y-87852384D02*
X167535714Y-87852384D01*
X167535714Y-86852384D01*
X168345238Y-87471432D02*
X169107142Y-87471432D01*
X169583333Y-87852384D02*
X169583333Y-86852384D01*
X170154761Y-87852384D02*
X169726190Y-87280956D01*
X170154761Y-86852384D02*
X169583333Y-87423813D01*
X171107142Y-87852384D02*
X170535714Y-87852384D01*
X170821428Y-87852384D02*
X170821428Y-86852384D01*
X170726190Y-86995242D01*
X170630952Y-87090480D01*
X170535714Y-87138099D01*
X171535714Y-87471432D02*
X172297619Y-87471432D01*
X172773809Y-87328575D02*
X173107142Y-87328575D01*
X173250000Y-87852384D02*
X172773809Y-87852384D01*
X172773809Y-86852384D01*
X173250000Y-86852384D01*
X173440476Y-87947623D02*
X174202380Y-87947623D01*
X174440476Y-87852384D02*
X174440476Y-86852384D01*
X174678571Y-86852384D01*
X174821428Y-86900004D01*
X174916666Y-86995242D01*
X174964285Y-87090480D01*
X175011904Y-87280956D01*
X175011904Y-87423813D01*
X174964285Y-87614289D01*
X174916666Y-87709527D01*
X174821428Y-87804765D01*
X174678571Y-87852384D01*
X174440476Y-87852384D01*
X176011904Y-87757146D02*
X175964285Y-87804765D01*
X175821428Y-87852384D01*
X175726190Y-87852384D01*
X175583333Y-87804765D01*
X175488095Y-87709527D01*
X175440476Y-87614289D01*
X175392857Y-87423813D01*
X175392857Y-87280956D01*
X175440476Y-87090480D01*
X175488095Y-86995242D01*
X175583333Y-86900004D01*
X175726190Y-86852384D01*
X175821428Y-86852384D01*
X175964285Y-86900004D01*
X176011904Y-86947623D01*
X176916666Y-86852384D02*
X176440476Y-86852384D01*
X176392857Y-87328575D01*
X176440476Y-87280956D01*
X176535714Y-87233337D01*
X176773809Y-87233337D01*
X176869047Y-87280956D01*
X176916666Y-87328575D01*
X176964285Y-87423813D01*
X176964285Y-87661908D01*
X176916666Y-87757146D01*
X176869047Y-87804765D01*
X176773809Y-87852384D01*
X176535714Y-87852384D01*
X176440476Y-87804765D01*
X176392857Y-87757146D01*
X167000000Y-66819053D02*
X167000000Y-67057149D01*
X166761904Y-66961911D02*
X167000000Y-67057149D01*
X167238095Y-66961911D01*
X166857142Y-67247625D02*
X167000000Y-67057149D01*
X167142857Y-67247625D01*
X167000000Y-66819053D02*
X167000000Y-67057149D01*
X166761904Y-66961911D02*
X167000000Y-67057149D01*
X167238095Y-66961911D01*
X166857142Y-67247625D02*
X167000000Y-67057149D01*
X167142857Y-67247625D01*
%TO.C,K2*%
X147011904Y-87852384D02*
X147011904Y-86852384D01*
X147583333Y-87852384D02*
X147154761Y-87280956D01*
X147583333Y-86852384D02*
X147011904Y-87423813D01*
X147964285Y-86947623D02*
X148011904Y-86900004D01*
X148107142Y-86852384D01*
X148345238Y-86852384D01*
X148440476Y-86900004D01*
X148488095Y-86947623D01*
X148535714Y-87042861D01*
X148535714Y-87138099D01*
X148488095Y-87280956D01*
X147916666Y-87852384D01*
X148535714Y-87852384D01*
X142107142Y-86900004D02*
X142011904Y-86852384D01*
X141869047Y-86852384D01*
X141726190Y-86900004D01*
X141630952Y-86995242D01*
X141583333Y-87090480D01*
X141535714Y-87280956D01*
X141535714Y-87423813D01*
X141583333Y-87614289D01*
X141630952Y-87709527D01*
X141726190Y-87804765D01*
X141869047Y-87852384D01*
X141964285Y-87852384D01*
X142107142Y-87804765D01*
X142154761Y-87757146D01*
X142154761Y-87423813D01*
X141964285Y-87423813D01*
X143059523Y-86852384D02*
X142583333Y-86852384D01*
X142535714Y-87328575D01*
X142583333Y-87280956D01*
X142678571Y-87233337D01*
X142916666Y-87233337D01*
X143011904Y-87280956D01*
X143059523Y-87328575D01*
X143107142Y-87423813D01*
X143107142Y-87661908D01*
X143059523Y-87757146D01*
X143011904Y-87804765D01*
X142916666Y-87852384D01*
X142678571Y-87852384D01*
X142583333Y-87804765D01*
X142535714Y-87757146D01*
X144107142Y-87852384D02*
X143773809Y-87376194D01*
X143535714Y-87852384D02*
X143535714Y-86852384D01*
X143916666Y-86852384D01*
X144011904Y-86900004D01*
X144059523Y-86947623D01*
X144107142Y-87042861D01*
X144107142Y-87185718D01*
X144059523Y-87280956D01*
X144011904Y-87328575D01*
X143916666Y-87376194D01*
X143535714Y-87376194D01*
X145011904Y-87852384D02*
X144535714Y-87852384D01*
X144535714Y-86852384D01*
X145345238Y-87471432D02*
X146107142Y-87471432D01*
X146583333Y-87852384D02*
X146583333Y-86852384D01*
X147154761Y-87852384D02*
X146726190Y-87280956D01*
X147154761Y-86852384D02*
X146583333Y-87423813D01*
X148107142Y-87852384D02*
X147535714Y-87852384D01*
X147821428Y-87852384D02*
X147821428Y-86852384D01*
X147726190Y-86995242D01*
X147630952Y-87090480D01*
X147535714Y-87138099D01*
X148535714Y-87471432D02*
X149297619Y-87471432D01*
X149773809Y-87328575D02*
X150107142Y-87328575D01*
X150250000Y-87852384D02*
X149773809Y-87852384D01*
X149773809Y-86852384D01*
X150250000Y-86852384D01*
X150440476Y-87947623D02*
X151202380Y-87947623D01*
X151440476Y-87852384D02*
X151440476Y-86852384D01*
X151678571Y-86852384D01*
X151821428Y-86900004D01*
X151916666Y-86995242D01*
X151964285Y-87090480D01*
X152011904Y-87280956D01*
X152011904Y-87423813D01*
X151964285Y-87614289D01*
X151916666Y-87709527D01*
X151821428Y-87804765D01*
X151678571Y-87852384D01*
X151440476Y-87852384D01*
X153011904Y-87757146D02*
X152964285Y-87804765D01*
X152821428Y-87852384D01*
X152726190Y-87852384D01*
X152583333Y-87804765D01*
X152488095Y-87709527D01*
X152440476Y-87614289D01*
X152392857Y-87423813D01*
X152392857Y-87280956D01*
X152440476Y-87090480D01*
X152488095Y-86995242D01*
X152583333Y-86900004D01*
X152726190Y-86852384D01*
X152821428Y-86852384D01*
X152964285Y-86900004D01*
X153011904Y-86947623D01*
X153916666Y-86852384D02*
X153440476Y-86852384D01*
X153392857Y-87328575D01*
X153440476Y-87280956D01*
X153535714Y-87233337D01*
X153773809Y-87233337D01*
X153869047Y-87280956D01*
X153916666Y-87328575D01*
X153964285Y-87423813D01*
X153964285Y-87661908D01*
X153916666Y-87757146D01*
X153869047Y-87804765D01*
X153773809Y-87852384D01*
X153535714Y-87852384D01*
X153440476Y-87804765D01*
X153392857Y-87757146D01*
X144000000Y-66819053D02*
X144000000Y-67057149D01*
X143761904Y-66961911D02*
X144000000Y-67057149D01*
X144238095Y-66961911D01*
X143857142Y-67247625D02*
X144000000Y-67057149D01*
X144142857Y-67247625D01*
X144000000Y-66819053D02*
X144000000Y-67057149D01*
X143761904Y-66961911D02*
X144000000Y-67057149D01*
X144238095Y-66961911D01*
X143857142Y-67247625D02*
X144000000Y-67057149D01*
X144142857Y-67247625D01*
%TO.C,K1*%
X124011904Y-87852384D02*
X124011904Y-86852384D01*
X124583333Y-87852384D02*
X124154761Y-87280956D01*
X124583333Y-86852384D02*
X124011904Y-87423813D01*
X125535714Y-87852384D02*
X124964285Y-87852384D01*
X125250000Y-87852384D02*
X125250000Y-86852384D01*
X125154761Y-86995242D01*
X125059523Y-87090480D01*
X124964285Y-87138099D01*
X119107142Y-86900004D02*
X119011904Y-86852384D01*
X118869047Y-86852384D01*
X118726190Y-86900004D01*
X118630952Y-86995242D01*
X118583333Y-87090480D01*
X118535714Y-87280956D01*
X118535714Y-87423813D01*
X118583333Y-87614289D01*
X118630952Y-87709527D01*
X118726190Y-87804765D01*
X118869047Y-87852384D01*
X118964285Y-87852384D01*
X119107142Y-87804765D01*
X119154761Y-87757146D01*
X119154761Y-87423813D01*
X118964285Y-87423813D01*
X120059523Y-86852384D02*
X119583333Y-86852384D01*
X119535714Y-87328575D01*
X119583333Y-87280956D01*
X119678571Y-87233337D01*
X119916666Y-87233337D01*
X120011904Y-87280956D01*
X120059523Y-87328575D01*
X120107142Y-87423813D01*
X120107142Y-87661908D01*
X120059523Y-87757146D01*
X120011904Y-87804765D01*
X119916666Y-87852384D01*
X119678571Y-87852384D01*
X119583333Y-87804765D01*
X119535714Y-87757146D01*
X121107142Y-87852384D02*
X120773809Y-87376194D01*
X120535714Y-87852384D02*
X120535714Y-86852384D01*
X120916666Y-86852384D01*
X121011904Y-86900004D01*
X121059523Y-86947623D01*
X121107142Y-87042861D01*
X121107142Y-87185718D01*
X121059523Y-87280956D01*
X121011904Y-87328575D01*
X120916666Y-87376194D01*
X120535714Y-87376194D01*
X122011904Y-87852384D02*
X121535714Y-87852384D01*
X121535714Y-86852384D01*
X122345238Y-87471432D02*
X123107142Y-87471432D01*
X123583333Y-87852384D02*
X123583333Y-86852384D01*
X124154761Y-87852384D02*
X123726190Y-87280956D01*
X124154761Y-86852384D02*
X123583333Y-87423813D01*
X125107142Y-87852384D02*
X124535714Y-87852384D01*
X124821428Y-87852384D02*
X124821428Y-86852384D01*
X124726190Y-86995242D01*
X124630952Y-87090480D01*
X124535714Y-87138099D01*
X125535714Y-87471432D02*
X126297619Y-87471432D01*
X126773809Y-87328575D02*
X127107142Y-87328575D01*
X127250000Y-87852384D02*
X126773809Y-87852384D01*
X126773809Y-86852384D01*
X127250000Y-86852384D01*
X127440476Y-87947623D02*
X128202380Y-87947623D01*
X128440476Y-87852384D02*
X128440476Y-86852384D01*
X128678571Y-86852384D01*
X128821428Y-86900004D01*
X128916666Y-86995242D01*
X128964285Y-87090480D01*
X129011904Y-87280956D01*
X129011904Y-87423813D01*
X128964285Y-87614289D01*
X128916666Y-87709527D01*
X128821428Y-87804765D01*
X128678571Y-87852384D01*
X128440476Y-87852384D01*
X130011904Y-87757146D02*
X129964285Y-87804765D01*
X129821428Y-87852384D01*
X129726190Y-87852384D01*
X129583333Y-87804765D01*
X129488095Y-87709527D01*
X129440476Y-87614289D01*
X129392857Y-87423813D01*
X129392857Y-87280956D01*
X129440476Y-87090480D01*
X129488095Y-86995242D01*
X129583333Y-86900004D01*
X129726190Y-86852384D01*
X129821428Y-86852384D01*
X129964285Y-86900004D01*
X130011904Y-86947623D01*
X130916666Y-86852384D02*
X130440476Y-86852384D01*
X130392857Y-87328575D01*
X130440476Y-87280956D01*
X130535714Y-87233337D01*
X130773809Y-87233337D01*
X130869047Y-87280956D01*
X130916666Y-87328575D01*
X130964285Y-87423813D01*
X130964285Y-87661908D01*
X130916666Y-87757146D01*
X130869047Y-87804765D01*
X130773809Y-87852384D01*
X130535714Y-87852384D01*
X130440476Y-87804765D01*
X130392857Y-87757146D01*
X121000000Y-66819053D02*
X121000000Y-67057149D01*
X120761904Y-66961911D02*
X121000000Y-67057149D01*
X121238095Y-66961911D01*
X120857142Y-67247625D02*
X121000000Y-67057149D01*
X121142857Y-67247625D01*
X121000000Y-66819053D02*
X121000000Y-67057149D01*
X120761904Y-66961911D02*
X121000000Y-67057149D01*
X121238095Y-66961911D01*
X120857142Y-67247625D02*
X121000000Y-67057149D01*
X121142857Y-67247625D01*
%TO.C,J4*%
X170666666Y-112552380D02*
X170666666Y-113266666D01*
X170619047Y-113409523D01*
X170523809Y-113504761D01*
X170380952Y-113552380D01*
X170285714Y-113552380D01*
X171571428Y-112885714D02*
X171571428Y-113552380D01*
X171333333Y-112504761D02*
X171095238Y-113219047D01*
X171714285Y-113219047D01*
X184161905Y-109757142D02*
X184114286Y-109804761D01*
X183971429Y-109852380D01*
X183876191Y-109852380D01*
X183733334Y-109804761D01*
X183638096Y-109709523D01*
X183590477Y-109614285D01*
X183542858Y-109423809D01*
X183542858Y-109280952D01*
X183590477Y-109090476D01*
X183638096Y-108995238D01*
X183733334Y-108900000D01*
X183876191Y-108852380D01*
X183971429Y-108852380D01*
X184114286Y-108900000D01*
X184161905Y-108947619D01*
X184733334Y-109852380D02*
X184638096Y-109804761D01*
X184590477Y-109757142D01*
X184542858Y-109661904D01*
X184542858Y-109376190D01*
X184590477Y-109280952D01*
X184638096Y-109233333D01*
X184733334Y-109185714D01*
X184876191Y-109185714D01*
X184971429Y-109233333D01*
X185019048Y-109280952D01*
X185066667Y-109376190D01*
X185066667Y-109661904D01*
X185019048Y-109757142D01*
X184971429Y-109804761D01*
X184876191Y-109852380D01*
X184733334Y-109852380D01*
X185495239Y-109185714D02*
X185495239Y-109852380D01*
X185495239Y-109280952D02*
X185542858Y-109233333D01*
X185638096Y-109185714D01*
X185780953Y-109185714D01*
X185876191Y-109233333D01*
X185923810Y-109328571D01*
X185923810Y-109852380D01*
X186400001Y-109185714D02*
X186400001Y-109852380D01*
X186400001Y-109280952D02*
X186447620Y-109233333D01*
X186542858Y-109185714D01*
X186685715Y-109185714D01*
X186780953Y-109233333D01*
X186828572Y-109328571D01*
X186828572Y-109852380D01*
X187066667Y-109947619D02*
X187828572Y-109947619D01*
X188257143Y-108852380D02*
X188352381Y-108852380D01*
X188447620Y-108900000D01*
X188495239Y-108947619D01*
X188542858Y-109042857D01*
X188590477Y-109233333D01*
X188590477Y-109471428D01*
X188542858Y-109661904D01*
X188495239Y-109757142D01*
X188447620Y-109804761D01*
X188352381Y-109852380D01*
X188257143Y-109852380D01*
X188161905Y-109804761D01*
X188114286Y-109757142D01*
X188066667Y-109661904D01*
X188019048Y-109471428D01*
X188019048Y-109233333D01*
X188066667Y-109042857D01*
X188114286Y-108947619D01*
X188161905Y-108900000D01*
X188257143Y-108852380D01*
X189542858Y-109852380D02*
X188971429Y-109852380D01*
X189257143Y-109852380D02*
X189257143Y-108852380D01*
X189161905Y-108995238D01*
X189066667Y-109090476D01*
X188971429Y-109138095D01*
X189876191Y-109852380D02*
X190400001Y-109185714D01*
X189876191Y-109185714D02*
X190400001Y-109852380D01*
X190971429Y-108852380D02*
X191066667Y-108852380D01*
X191161905Y-108900000D01*
X191209524Y-108947619D01*
X191257143Y-109042857D01*
X191304762Y-109233333D01*
X191304762Y-109471428D01*
X191257143Y-109661904D01*
X191209524Y-109757142D01*
X191161905Y-109804761D01*
X191066667Y-109852380D01*
X190971429Y-109852380D01*
X190876191Y-109804761D01*
X190828572Y-109757142D01*
X190780953Y-109661904D01*
X190733334Y-109471428D01*
X190733334Y-109233333D01*
X190780953Y-109042857D01*
X190828572Y-108947619D01*
X190876191Y-108900000D01*
X190971429Y-108852380D01*
X192161905Y-108852380D02*
X191971429Y-108852380D01*
X191876191Y-108900000D01*
X191828572Y-108947619D01*
X191733334Y-109090476D01*
X191685715Y-109280952D01*
X191685715Y-109661904D01*
X191733334Y-109757142D01*
X191780953Y-109804761D01*
X191876191Y-109852380D01*
X192066667Y-109852380D01*
X192161905Y-109804761D01*
X192209524Y-109757142D01*
X192257143Y-109661904D01*
X192257143Y-109423809D01*
X192209524Y-109328571D01*
X192161905Y-109280952D01*
X192066667Y-109233333D01*
X191876191Y-109233333D01*
X191780953Y-109280952D01*
X191733334Y-109328571D01*
X191685715Y-109423809D01*
X175400000Y-108852380D02*
X175400000Y-109090476D01*
X175161904Y-108995238D02*
X175400000Y-109090476D01*
X175638095Y-108995238D01*
X175257142Y-109280952D02*
X175400000Y-109090476D01*
X175542857Y-109280952D01*
%TO.C,J1*%
X188666666Y-95552380D02*
X188666666Y-96266666D01*
X188619047Y-96409523D01*
X188523809Y-96504761D01*
X188380952Y-96552380D01*
X188285714Y-96552380D01*
X189666666Y-96552380D02*
X189095238Y-96552380D01*
X189380952Y-96552380D02*
X189380952Y-95552380D01*
X189285714Y-95695238D01*
X189190476Y-95790476D01*
X189095238Y-95838095D01*
X195404761Y-100978094D02*
X195452380Y-100835237D01*
X195452380Y-100597141D01*
X195404761Y-100501903D01*
X195357142Y-100454284D01*
X195261904Y-100406665D01*
X195166666Y-100406665D01*
X195071428Y-100454284D01*
X195023809Y-100501903D01*
X194976190Y-100597141D01*
X194928571Y-100787618D01*
X194880952Y-100882856D01*
X194833333Y-100930475D01*
X194738095Y-100978094D01*
X194642857Y-100978094D01*
X194547619Y-100930475D01*
X194500000Y-100882856D01*
X194452380Y-100787618D01*
X194452380Y-100549522D01*
X194500000Y-100406665D01*
X195404761Y-99549522D02*
X195452380Y-99644760D01*
X195452380Y-99835237D01*
X195404761Y-99930475D01*
X195357142Y-99978094D01*
X195261904Y-100025713D01*
X194976190Y-100025713D01*
X194880952Y-99978094D01*
X194833333Y-99930475D01*
X194785714Y-99835237D01*
X194785714Y-99644760D01*
X194833333Y-99549522D01*
X195452380Y-99120951D02*
X194785714Y-99120951D01*
X194976190Y-99120951D02*
X194880952Y-99073332D01*
X194833333Y-99025713D01*
X194785714Y-98930475D01*
X194785714Y-98835237D01*
X195404761Y-98120951D02*
X195452380Y-98216189D01*
X195452380Y-98406665D01*
X195404761Y-98501903D01*
X195309523Y-98549522D01*
X194928571Y-98549522D01*
X194833333Y-98501903D01*
X194785714Y-98406665D01*
X194785714Y-98216189D01*
X194833333Y-98120951D01*
X194928571Y-98073332D01*
X195023809Y-98073332D01*
X195119047Y-98549522D01*
X194785714Y-97739999D02*
X195452380Y-97549522D01*
X194976190Y-97359046D01*
X195452380Y-97168570D01*
X194785714Y-96978094D01*
X195547619Y-96835237D02*
X195547619Y-96073332D01*
X194452380Y-95978094D02*
X194452380Y-95406665D01*
X195452380Y-95692379D02*
X194452380Y-95692379D01*
X195404761Y-94692379D02*
X195452380Y-94787618D01*
X195452380Y-94978094D01*
X195404761Y-95073332D01*
X195309523Y-95120951D01*
X194928571Y-95120951D01*
X194833333Y-95073332D01*
X194785714Y-94978094D01*
X194785714Y-94787618D01*
X194833333Y-94692379D01*
X194928571Y-94644760D01*
X195023809Y-94644760D01*
X195119047Y-95120951D01*
X195452380Y-94216189D02*
X194785714Y-94216189D01*
X194976190Y-94216189D02*
X194880952Y-94168570D01*
X194833333Y-94120951D01*
X194785714Y-94025713D01*
X194785714Y-93930475D01*
X195452380Y-93597141D02*
X194785714Y-93597141D01*
X194880952Y-93597141D02*
X194833333Y-93549522D01*
X194785714Y-93454284D01*
X194785714Y-93311427D01*
X194833333Y-93216189D01*
X194928571Y-93168570D01*
X195452380Y-93168570D01*
X194928571Y-93168570D02*
X194833333Y-93120951D01*
X194785714Y-93025713D01*
X194785714Y-92882856D01*
X194833333Y-92787618D01*
X194928571Y-92739999D01*
X195452380Y-92739999D01*
X195452380Y-92263808D02*
X194785714Y-92263808D01*
X194452380Y-92263808D02*
X194500000Y-92311427D01*
X194547619Y-92263808D01*
X194500000Y-92216189D01*
X194452380Y-92263808D01*
X194547619Y-92263808D01*
X194785714Y-91787618D02*
X195452380Y-91787618D01*
X194880952Y-91787618D02*
X194833333Y-91739999D01*
X194785714Y-91644760D01*
X194785714Y-91501903D01*
X194833333Y-91406665D01*
X194928571Y-91359046D01*
X195452380Y-91359046D01*
X195452380Y-90454284D02*
X194928571Y-90454284D01*
X194833333Y-90501903D01*
X194785714Y-90597141D01*
X194785714Y-90787618D01*
X194833333Y-90882856D01*
X195404761Y-90454284D02*
X195452380Y-90549522D01*
X195452380Y-90787618D01*
X195404761Y-90882856D01*
X195309523Y-90930475D01*
X195214285Y-90930475D01*
X195119047Y-90882856D01*
X195071428Y-90787618D01*
X195071428Y-90549522D01*
X195023809Y-90454284D01*
X195452380Y-89835237D02*
X195404761Y-89930475D01*
X195309523Y-89978094D01*
X194452380Y-89978094D01*
X195547619Y-89692379D02*
X195547619Y-88930475D01*
X194452380Y-88501903D02*
X194452380Y-88406665D01*
X194500000Y-88311427D01*
X194547619Y-88263808D01*
X194642857Y-88216189D01*
X194833333Y-88168570D01*
X195071428Y-88168570D01*
X195261904Y-88216189D01*
X195357142Y-88263808D01*
X195404761Y-88311427D01*
X195452380Y-88406665D01*
X195452380Y-88501903D01*
X195404761Y-88597141D01*
X195357142Y-88644760D01*
X195261904Y-88692379D01*
X195071428Y-88739999D01*
X194833333Y-88739999D01*
X194642857Y-88692379D01*
X194547619Y-88644760D01*
X194500000Y-88597141D01*
X194452380Y-88501903D01*
X195452380Y-87216189D02*
X195452380Y-87787618D01*
X195452380Y-87501903D02*
X194452380Y-87501903D01*
X194595238Y-87597141D01*
X194690476Y-87692379D01*
X194738095Y-87787618D01*
X195452380Y-86882856D02*
X194785714Y-86359046D01*
X194785714Y-86882856D02*
X195452380Y-86359046D01*
X194452380Y-85787618D02*
X194452380Y-85692379D01*
X194500000Y-85597141D01*
X194547619Y-85549522D01*
X194642857Y-85501903D01*
X194833333Y-85454284D01*
X195071428Y-85454284D01*
X195261904Y-85501903D01*
X195357142Y-85549522D01*
X195404761Y-85597141D01*
X195452380Y-85692379D01*
X195452380Y-85787618D01*
X195404761Y-85882856D01*
X195357142Y-85930475D01*
X195261904Y-85978094D01*
X195071428Y-86025713D01*
X194833333Y-86025713D01*
X194642857Y-85978094D01*
X194547619Y-85930475D01*
X194500000Y-85882856D01*
X194452380Y-85787618D01*
X194547619Y-85073332D02*
X194500000Y-85025713D01*
X194452380Y-84930475D01*
X194452380Y-84692379D01*
X194500000Y-84597141D01*
X194547619Y-84549522D01*
X194642857Y-84501903D01*
X194738095Y-84501903D01*
X194880952Y-84549522D01*
X195452380Y-85120951D01*
X195452380Y-84501903D01*
X194452380Y-97500000D02*
X194690476Y-97500000D01*
X194595238Y-97738095D02*
X194690476Y-97500000D01*
X194595238Y-97261904D01*
X194880952Y-97642857D02*
X194690476Y-97500000D01*
X194880952Y-97357142D01*
%TO.C,F3*%
X185566666Y-73828571D02*
X185233333Y-73828571D01*
X185233333Y-74352380D02*
X185233333Y-73352380D01*
X185709523Y-73352380D01*
X185995238Y-73352380D02*
X186614285Y-73352380D01*
X186280952Y-73733333D01*
X186423809Y-73733333D01*
X186519047Y-73780952D01*
X186566666Y-73828571D01*
X186614285Y-73923809D01*
X186614285Y-74161904D01*
X186566666Y-74257142D01*
X186519047Y-74304761D01*
X186423809Y-74352380D01*
X186138095Y-74352380D01*
X186042857Y-74304761D01*
X185995238Y-74257142D01*
%TO.C,F2*%
X162666666Y-73728571D02*
X162333333Y-73728571D01*
X162333333Y-74252380D02*
X162333333Y-73252380D01*
X162809523Y-73252380D01*
X163142857Y-73347619D02*
X163190476Y-73300000D01*
X163285714Y-73252380D01*
X163523809Y-73252380D01*
X163619047Y-73300000D01*
X163666666Y-73347619D01*
X163714285Y-73442857D01*
X163714285Y-73538095D01*
X163666666Y-73680952D01*
X163095238Y-74252380D01*
X163714285Y-74252380D01*
%TO.C,F4*%
X187566666Y-83328571D02*
X187233333Y-83328571D01*
X187233333Y-83852380D02*
X187233333Y-82852380D01*
X187709523Y-82852380D01*
X188519047Y-83185714D02*
X188519047Y-83852380D01*
X188280952Y-82804761D02*
X188042857Y-83519047D01*
X188661904Y-83519047D01*
%TO.C,F1*%
X139666666Y-73728571D02*
X139333333Y-73728571D01*
X139333333Y-74252380D02*
X139333333Y-73252380D01*
X139809523Y-73252380D01*
X140714285Y-74252380D02*
X140142857Y-74252380D01*
X140428571Y-74252380D02*
X140428571Y-73252380D01*
X140333333Y-73395238D01*
X140238095Y-73490476D01*
X140142857Y-73538095D01*
%TO.C,D13*%
X178285714Y-102332380D02*
X178285714Y-101332380D01*
X178523809Y-101332380D01*
X178666666Y-101380000D01*
X178761904Y-101475238D01*
X178809523Y-101570476D01*
X178857142Y-101760952D01*
X178857142Y-101903809D01*
X178809523Y-102094285D01*
X178761904Y-102189523D01*
X178666666Y-102284761D01*
X178523809Y-102332380D01*
X178285714Y-102332380D01*
X179809523Y-102332380D02*
X179238095Y-102332380D01*
X179523809Y-102332380D02*
X179523809Y-101332380D01*
X179428571Y-101475238D01*
X179333333Y-101570476D01*
X179238095Y-101618095D01*
X180142857Y-101332380D02*
X180761904Y-101332380D01*
X180428571Y-101713333D01*
X180571428Y-101713333D01*
X180666666Y-101760952D01*
X180714285Y-101808571D01*
X180761904Y-101903809D01*
X180761904Y-102141904D01*
X180714285Y-102237142D01*
X180666666Y-102284761D01*
X180571428Y-102332380D01*
X180285714Y-102332380D01*
X180190476Y-102284761D01*
X180142857Y-102237142D01*
%TO.C,D12*%
X178085714Y-96852380D02*
X178085714Y-95852380D01*
X178323809Y-95852380D01*
X178466666Y-95900000D01*
X178561904Y-95995238D01*
X178609523Y-96090476D01*
X178657142Y-96280952D01*
X178657142Y-96423809D01*
X178609523Y-96614285D01*
X178561904Y-96709523D01*
X178466666Y-96804761D01*
X178323809Y-96852380D01*
X178085714Y-96852380D01*
X179609523Y-96852380D02*
X179038095Y-96852380D01*
X179323809Y-96852380D02*
X179323809Y-95852380D01*
X179228571Y-95995238D01*
X179133333Y-96090476D01*
X179038095Y-96138095D01*
X179990476Y-95947619D02*
X180038095Y-95900000D01*
X180133333Y-95852380D01*
X180371428Y-95852380D01*
X180466666Y-95900000D01*
X180514285Y-95947619D01*
X180561904Y-96042857D01*
X180561904Y-96138095D01*
X180514285Y-96280952D01*
X179942857Y-96852380D01*
X180561904Y-96852380D01*
%TO.C,D11*%
X155285714Y-102332380D02*
X155285714Y-101332380D01*
X155523809Y-101332380D01*
X155666666Y-101380000D01*
X155761904Y-101475238D01*
X155809523Y-101570476D01*
X155857142Y-101760952D01*
X155857142Y-101903809D01*
X155809523Y-102094285D01*
X155761904Y-102189523D01*
X155666666Y-102284761D01*
X155523809Y-102332380D01*
X155285714Y-102332380D01*
X156809523Y-102332380D02*
X156238095Y-102332380D01*
X156523809Y-102332380D02*
X156523809Y-101332380D01*
X156428571Y-101475238D01*
X156333333Y-101570476D01*
X156238095Y-101618095D01*
X157761904Y-102332380D02*
X157190476Y-102332380D01*
X157476190Y-102332380D02*
X157476190Y-101332380D01*
X157380952Y-101475238D01*
X157285714Y-101570476D01*
X157190476Y-101618095D01*
%TO.C,D10*%
X155285714Y-97152380D02*
X155285714Y-96152380D01*
X155523809Y-96152380D01*
X155666666Y-96200000D01*
X155761904Y-96295238D01*
X155809523Y-96390476D01*
X155857142Y-96580952D01*
X155857142Y-96723809D01*
X155809523Y-96914285D01*
X155761904Y-97009523D01*
X155666666Y-97104761D01*
X155523809Y-97152380D01*
X155285714Y-97152380D01*
X156809523Y-97152380D02*
X156238095Y-97152380D01*
X156523809Y-97152380D02*
X156523809Y-96152380D01*
X156428571Y-96295238D01*
X156333333Y-96390476D01*
X156238095Y-96438095D01*
X157428571Y-96152380D02*
X157523809Y-96152380D01*
X157619047Y-96200000D01*
X157666666Y-96247619D01*
X157714285Y-96342857D01*
X157761904Y-96533333D01*
X157761904Y-96771428D01*
X157714285Y-96961904D01*
X157666666Y-97057142D01*
X157619047Y-97104761D01*
X157523809Y-97152380D01*
X157428571Y-97152380D01*
X157333333Y-97104761D01*
X157285714Y-97057142D01*
X157238095Y-96961904D01*
X157190476Y-96771428D01*
X157190476Y-96533333D01*
X157238095Y-96342857D01*
X157285714Y-96247619D01*
X157333333Y-96200000D01*
X157428571Y-96152380D01*
%TO.C,D9*%
X132761904Y-102832380D02*
X132761904Y-101832380D01*
X133000000Y-101832380D01*
X133142857Y-101880000D01*
X133238095Y-101975238D01*
X133285714Y-102070476D01*
X133333333Y-102260952D01*
X133333333Y-102403809D01*
X133285714Y-102594285D01*
X133238095Y-102689523D01*
X133142857Y-102784761D01*
X133000000Y-102832380D01*
X132761904Y-102832380D01*
X133809523Y-102832380D02*
X134000000Y-102832380D01*
X134095238Y-102784761D01*
X134142857Y-102737142D01*
X134238095Y-102594285D01*
X134285714Y-102403809D01*
X134285714Y-102022857D01*
X134238095Y-101927619D01*
X134190476Y-101880000D01*
X134095238Y-101832380D01*
X133904761Y-101832380D01*
X133809523Y-101880000D01*
X133761904Y-101927619D01*
X133714285Y-102022857D01*
X133714285Y-102260952D01*
X133761904Y-102356190D01*
X133809523Y-102403809D01*
X133904761Y-102451428D01*
X134095238Y-102451428D01*
X134190476Y-102403809D01*
X134238095Y-102356190D01*
X134285714Y-102260952D01*
%TO.C,D8*%
X132761904Y-97352380D02*
X132761904Y-96352380D01*
X133000000Y-96352380D01*
X133142857Y-96400000D01*
X133238095Y-96495238D01*
X133285714Y-96590476D01*
X133333333Y-96780952D01*
X133333333Y-96923809D01*
X133285714Y-97114285D01*
X133238095Y-97209523D01*
X133142857Y-97304761D01*
X133000000Y-97352380D01*
X132761904Y-97352380D01*
X133904761Y-96780952D02*
X133809523Y-96733333D01*
X133761904Y-96685714D01*
X133714285Y-96590476D01*
X133714285Y-96542857D01*
X133761904Y-96447619D01*
X133809523Y-96400000D01*
X133904761Y-96352380D01*
X134095238Y-96352380D01*
X134190476Y-96400000D01*
X134238095Y-96447619D01*
X134285714Y-96542857D01*
X134285714Y-96590476D01*
X134238095Y-96685714D01*
X134190476Y-96733333D01*
X134095238Y-96780952D01*
X133904761Y-96780952D01*
X133809523Y-96828571D01*
X133761904Y-96876190D01*
X133714285Y-96971428D01*
X133714285Y-97161904D01*
X133761904Y-97257142D01*
X133809523Y-97304761D01*
X133904761Y-97352380D01*
X134095238Y-97352380D01*
X134190476Y-97304761D01*
X134238095Y-97257142D01*
X134285714Y-97161904D01*
X134285714Y-96971428D01*
X134238095Y-96876190D01*
X134190476Y-96828571D01*
X134095238Y-96780952D01*
%TO.C,D7*%
X200261904Y-74332380D02*
X200261904Y-73332380D01*
X200500000Y-73332380D01*
X200642857Y-73380000D01*
X200738095Y-73475238D01*
X200785714Y-73570476D01*
X200833333Y-73760952D01*
X200833333Y-73903809D01*
X200785714Y-74094285D01*
X200738095Y-74189523D01*
X200642857Y-74284761D01*
X200500000Y-74332380D01*
X200261904Y-74332380D01*
X201166666Y-73332380D02*
X201833333Y-73332380D01*
X201404761Y-74332380D01*
%TO.C,D6*%
X178511904Y-68452380D02*
X178511904Y-67452380D01*
X178750000Y-67452380D01*
X178892857Y-67500000D01*
X178988095Y-67595238D01*
X179035714Y-67690476D01*
X179083333Y-67880952D01*
X179083333Y-68023809D01*
X179035714Y-68214285D01*
X178988095Y-68309523D01*
X178892857Y-68404761D01*
X178750000Y-68452380D01*
X178511904Y-68452380D01*
X179940476Y-67452380D02*
X179750000Y-67452380D01*
X179654761Y-67500000D01*
X179607142Y-67547619D01*
X179511904Y-67690476D01*
X179464285Y-67880952D01*
X179464285Y-68261904D01*
X179511904Y-68357142D01*
X179559523Y-68404761D01*
X179654761Y-68452380D01*
X179845238Y-68452380D01*
X179940476Y-68404761D01*
X179988095Y-68357142D01*
X180035714Y-68261904D01*
X180035714Y-68023809D01*
X179988095Y-67928571D01*
X179940476Y-67880952D01*
X179845238Y-67833333D01*
X179654761Y-67833333D01*
X179559523Y-67880952D01*
X179511904Y-67928571D01*
X179464285Y-68023809D01*
%TO.C,D5*%
X170761904Y-68452380D02*
X170761904Y-67452380D01*
X171000000Y-67452380D01*
X171142857Y-67500000D01*
X171238095Y-67595238D01*
X171285714Y-67690476D01*
X171333333Y-67880952D01*
X171333333Y-68023809D01*
X171285714Y-68214285D01*
X171238095Y-68309523D01*
X171142857Y-68404761D01*
X171000000Y-68452380D01*
X170761904Y-68452380D01*
X172238095Y-67452380D02*
X171761904Y-67452380D01*
X171714285Y-67928571D01*
X171761904Y-67880952D01*
X171857142Y-67833333D01*
X172095238Y-67833333D01*
X172190476Y-67880952D01*
X172238095Y-67928571D01*
X172285714Y-68023809D01*
X172285714Y-68261904D01*
X172238095Y-68357142D01*
X172190476Y-68404761D01*
X172095238Y-68452380D01*
X171857142Y-68452380D01*
X171761904Y-68404761D01*
X171714285Y-68357142D01*
%TO.C,D4*%
X154761904Y-68452380D02*
X154761904Y-67452380D01*
X155000000Y-67452380D01*
X155142857Y-67500000D01*
X155238095Y-67595238D01*
X155285714Y-67690476D01*
X155333333Y-67880952D01*
X155333333Y-68023809D01*
X155285714Y-68214285D01*
X155238095Y-68309523D01*
X155142857Y-68404761D01*
X155000000Y-68452380D01*
X154761904Y-68452380D01*
X156190476Y-67785714D02*
X156190476Y-68452380D01*
X155952380Y-67404761D02*
X155714285Y-68119047D01*
X156333333Y-68119047D01*
%TO.C,D3*%
X147761904Y-68452380D02*
X147761904Y-67452380D01*
X148000000Y-67452380D01*
X148142857Y-67500000D01*
X148238095Y-67595238D01*
X148285714Y-67690476D01*
X148333333Y-67880952D01*
X148333333Y-68023809D01*
X148285714Y-68214285D01*
X148238095Y-68309523D01*
X148142857Y-68404761D01*
X148000000Y-68452380D01*
X147761904Y-68452380D01*
X148666666Y-67452380D02*
X149285714Y-67452380D01*
X148952380Y-67833333D01*
X149095238Y-67833333D01*
X149190476Y-67880952D01*
X149238095Y-67928571D01*
X149285714Y-68023809D01*
X149285714Y-68261904D01*
X149238095Y-68357142D01*
X149190476Y-68404761D01*
X149095238Y-68452380D01*
X148809523Y-68452380D01*
X148714285Y-68404761D01*
X148666666Y-68357142D01*
%TO.C,D2*%
X132261904Y-68452380D02*
X132261904Y-67452380D01*
X132500000Y-67452380D01*
X132642857Y-67500000D01*
X132738095Y-67595238D01*
X132785714Y-67690476D01*
X132833333Y-67880952D01*
X132833333Y-68023809D01*
X132785714Y-68214285D01*
X132738095Y-68309523D01*
X132642857Y-68404761D01*
X132500000Y-68452380D01*
X132261904Y-68452380D01*
X133214285Y-67547619D02*
X133261904Y-67500000D01*
X133357142Y-67452380D01*
X133595238Y-67452380D01*
X133690476Y-67500000D01*
X133738095Y-67547619D01*
X133785714Y-67642857D01*
X133785714Y-67738095D01*
X133738095Y-67880952D01*
X133166666Y-68452380D01*
X133785714Y-68452380D01*
%TO.C,D1*%
X124991904Y-68472380D02*
X124991904Y-67472380D01*
X125230000Y-67472380D01*
X125372857Y-67520000D01*
X125468095Y-67615238D01*
X125515714Y-67710476D01*
X125563333Y-67900952D01*
X125563333Y-68043809D01*
X125515714Y-68234285D01*
X125468095Y-68329523D01*
X125372857Y-68424761D01*
X125230000Y-68472380D01*
X124991904Y-68472380D01*
X126515714Y-68472380D02*
X125944285Y-68472380D01*
X126230000Y-68472380D02*
X126230000Y-67472380D01*
X126134761Y-67615238D01*
X126039523Y-67710476D01*
X125944285Y-67758095D01*
%TD*%
M02*
