%TF.GenerationSoftware,KiCad,Pcbnew,(5.1.9-0-10_14)*%
%TF.CreationDate,2021-05-17T23:47:06-07:00*%
%TF.ProjectId,tp_radio_board,74705f72-6164-4696-9f5f-626f6172642e,rev?*%
%TF.SameCoordinates,Original*%
%TF.FileFunction,Legend,Top*%
%TF.FilePolarity,Positive*%
%FSLAX46Y46*%
G04 Gerber Fmt 4.6, Leading zero omitted, Abs format (unit mm)*
G04 Created by KiCad (PCBNEW (5.1.9-0-10_14)) date 2021-05-17 23:47:06*
%MOMM*%
%LPD*%
G01*
G04 APERTURE LIST*
%ADD10C,0.300000*%
%ADD11C,0.152400*%
%ADD12C,0.120000*%
%ADD13C,0.150000*%
G04 APERTURE END LIST*
D10*
X27702380Y-168130952D02*
X29130952Y-168130952D01*
X28416666Y-170630952D02*
X28416666Y-168130952D01*
X29964285Y-170630952D02*
X29964285Y-168130952D01*
X31035714Y-170630952D02*
X31035714Y-169321428D01*
X30916666Y-169083333D01*
X30678571Y-168964285D01*
X30321428Y-168964285D01*
X30083333Y-169083333D01*
X29964285Y-169202380D01*
X33297619Y-168964285D02*
X33297619Y-170630952D01*
X32226190Y-168964285D02*
X32226190Y-170273809D01*
X32345238Y-170511904D01*
X32583333Y-170630952D01*
X32940476Y-170630952D01*
X33178571Y-170511904D01*
X33297619Y-170392857D01*
X34488095Y-168964285D02*
X34488095Y-170630952D01*
X34488095Y-169202380D02*
X34607142Y-169083333D01*
X34845238Y-168964285D01*
X35202380Y-168964285D01*
X35440476Y-169083333D01*
X35559523Y-169321428D01*
X35559523Y-170630952D01*
X37821428Y-170630952D02*
X37821428Y-168130952D01*
X37821428Y-170511904D02*
X37583333Y-170630952D01*
X37107142Y-170630952D01*
X36869047Y-170511904D01*
X36750000Y-170392857D01*
X36630952Y-170154761D01*
X36630952Y-169440476D01*
X36750000Y-169202380D01*
X36869047Y-169083333D01*
X37107142Y-168964285D01*
X37583333Y-168964285D01*
X37821428Y-169083333D01*
X39011904Y-170630952D02*
X39011904Y-168964285D01*
X39011904Y-168130952D02*
X38892857Y-168250000D01*
X39011904Y-168369047D01*
X39130952Y-168250000D01*
X39011904Y-168130952D01*
X39011904Y-168369047D01*
X40202380Y-168964285D02*
X40202380Y-171464285D01*
X40202380Y-169083333D02*
X40440476Y-168964285D01*
X40916666Y-168964285D01*
X41154761Y-169083333D01*
X41273809Y-169202380D01*
X41392857Y-169440476D01*
X41392857Y-170154761D01*
X41273809Y-170392857D01*
X41154761Y-170511904D01*
X40916666Y-170630952D01*
X40440476Y-170630952D01*
X40202380Y-170511904D01*
X42464285Y-170630952D02*
X42464285Y-168964285D01*
X42464285Y-168130952D02*
X42345238Y-168250000D01*
X42464285Y-168369047D01*
X42583333Y-168250000D01*
X42464285Y-168130952D01*
X42464285Y-168369047D01*
X46988095Y-170630952D02*
X46154761Y-169440476D01*
X45559523Y-170630952D02*
X45559523Y-168130952D01*
X46511904Y-168130952D01*
X46750000Y-168250000D01*
X46869047Y-168369047D01*
X46988095Y-168607142D01*
X46988095Y-168964285D01*
X46869047Y-169202380D01*
X46750000Y-169321428D01*
X46511904Y-169440476D01*
X45559523Y-169440476D01*
X49011904Y-170511904D02*
X48773809Y-170630952D01*
X48297619Y-170630952D01*
X48059523Y-170511904D01*
X47940476Y-170273809D01*
X47940476Y-169321428D01*
X48059523Y-169083333D01*
X48297619Y-168964285D01*
X48773809Y-168964285D01*
X49011904Y-169083333D01*
X49130952Y-169321428D01*
X49130952Y-169559523D01*
X47940476Y-169797619D01*
X50559523Y-170630952D02*
X50321428Y-170511904D01*
X50202380Y-170273809D01*
X50202380Y-168130952D01*
X52583333Y-170630952D02*
X52583333Y-169321428D01*
X52464285Y-169083333D01*
X52226190Y-168964285D01*
X51750000Y-168964285D01*
X51511904Y-169083333D01*
X52583333Y-170511904D02*
X52345238Y-170630952D01*
X51750000Y-170630952D01*
X51511904Y-170511904D01*
X51392857Y-170273809D01*
X51392857Y-170035714D01*
X51511904Y-169797619D01*
X51750000Y-169678571D01*
X52345238Y-169678571D01*
X52583333Y-169559523D01*
X53535714Y-168964285D02*
X54130952Y-170630952D01*
X54726190Y-168964285D02*
X54130952Y-170630952D01*
X53892857Y-171226190D01*
X53773809Y-171345238D01*
X53535714Y-171464285D01*
X58416666Y-169321428D02*
X58773809Y-169440476D01*
X58892857Y-169559523D01*
X59011904Y-169797619D01*
X59011904Y-170154761D01*
X58892857Y-170392857D01*
X58773809Y-170511904D01*
X58535714Y-170630952D01*
X57583333Y-170630952D01*
X57583333Y-168130952D01*
X58416666Y-168130952D01*
X58654761Y-168250000D01*
X58773809Y-168369047D01*
X58892857Y-168607142D01*
X58892857Y-168845238D01*
X58773809Y-169083333D01*
X58654761Y-169202380D01*
X58416666Y-169321428D01*
X57583333Y-169321428D01*
X60440476Y-170630952D02*
X60202380Y-170511904D01*
X60083333Y-170392857D01*
X59964285Y-170154761D01*
X59964285Y-169440476D01*
X60083333Y-169202380D01*
X60202380Y-169083333D01*
X60440476Y-168964285D01*
X60797619Y-168964285D01*
X61035714Y-169083333D01*
X61154761Y-169202380D01*
X61273809Y-169440476D01*
X61273809Y-170154761D01*
X61154761Y-170392857D01*
X61035714Y-170511904D01*
X60797619Y-170630952D01*
X60440476Y-170630952D01*
X63416666Y-170630952D02*
X63416666Y-169321428D01*
X63297619Y-169083333D01*
X63059523Y-168964285D01*
X62583333Y-168964285D01*
X62345238Y-169083333D01*
X63416666Y-170511904D02*
X63178571Y-170630952D01*
X62583333Y-170630952D01*
X62345238Y-170511904D01*
X62226190Y-170273809D01*
X62226190Y-170035714D01*
X62345238Y-169797619D01*
X62583333Y-169678571D01*
X63178571Y-169678571D01*
X63416666Y-169559523D01*
X64607142Y-170630952D02*
X64607142Y-168964285D01*
X64607142Y-169440476D02*
X64726190Y-169202380D01*
X64845238Y-169083333D01*
X65083333Y-168964285D01*
X65321428Y-168964285D01*
X67226190Y-170630952D02*
X67226190Y-168130952D01*
X67226190Y-170511904D02*
X66988095Y-170630952D01*
X66511904Y-170630952D01*
X66273809Y-170511904D01*
X66154761Y-170392857D01*
X66035714Y-170154761D01*
X66035714Y-169440476D01*
X66154761Y-169202380D01*
X66273809Y-169083333D01*
X66511904Y-168964285D01*
X66988095Y-168964285D01*
X67226190Y-169083333D01*
X70083333Y-168964285D02*
X70678571Y-170630952D01*
X71273809Y-168964285D01*
X71988095Y-168130952D02*
X73535714Y-168130952D01*
X72702380Y-169083333D01*
X73059523Y-169083333D01*
X73297619Y-169202380D01*
X73416666Y-169321428D01*
X73535714Y-169559523D01*
X73535714Y-170154761D01*
X73416666Y-170392857D01*
X73297619Y-170511904D01*
X73059523Y-170630952D01*
X72345238Y-170630952D01*
X72107142Y-170511904D01*
X71988095Y-170392857D01*
X76511904Y-170630952D02*
X76511904Y-168964285D01*
X76511904Y-169202380D02*
X76630952Y-169083333D01*
X76869047Y-168964285D01*
X77226190Y-168964285D01*
X77464285Y-169083333D01*
X77583333Y-169321428D01*
X77583333Y-170630952D01*
X77583333Y-169321428D02*
X77702380Y-169083333D01*
X77940476Y-168964285D01*
X78297619Y-168964285D01*
X78535714Y-169083333D01*
X78654761Y-169321428D01*
X78654761Y-170630952D01*
X79845238Y-170630952D02*
X79845238Y-168964285D01*
X79845238Y-168130952D02*
X79726190Y-168250000D01*
X79845238Y-168369047D01*
X79964285Y-168250000D01*
X79845238Y-168130952D01*
X79845238Y-168369047D01*
X80916666Y-170511904D02*
X81154761Y-170630952D01*
X81630952Y-170630952D01*
X81869047Y-170511904D01*
X81988095Y-170273809D01*
X81988095Y-170154761D01*
X81869047Y-169916666D01*
X81630952Y-169797619D01*
X81273809Y-169797619D01*
X81035714Y-169678571D01*
X80916666Y-169440476D01*
X80916666Y-169321428D01*
X81035714Y-169083333D01*
X81273809Y-168964285D01*
X81630952Y-168964285D01*
X81869047Y-169083333D01*
X83059523Y-170630952D02*
X83059523Y-168130952D01*
X83297619Y-169678571D02*
X84011904Y-170630952D01*
X84011904Y-168964285D02*
X83059523Y-169916666D01*
X85440476Y-170630952D02*
X85202380Y-170511904D01*
X85083333Y-170392857D01*
X84964285Y-170154761D01*
X84964285Y-169440476D01*
X85083333Y-169202380D01*
X85202380Y-169083333D01*
X85440476Y-168964285D01*
X85797619Y-168964285D01*
X86035714Y-169083333D01*
X86154761Y-169202380D01*
X86273809Y-169440476D01*
X86273809Y-170154761D01*
X86154761Y-170392857D01*
X86035714Y-170511904D01*
X85797619Y-170630952D01*
X85440476Y-170630952D01*
X88892857Y-169440476D02*
X88773809Y-169321428D01*
X88535714Y-169202380D01*
X88297619Y-169202380D01*
X88059523Y-169321428D01*
X87940476Y-169440476D01*
X87821428Y-169678571D01*
X87821428Y-169916666D01*
X87940476Y-170154761D01*
X88059523Y-170273809D01*
X88297619Y-170392857D01*
X88535714Y-170392857D01*
X88773809Y-170273809D01*
X88892857Y-170154761D01*
X88892857Y-169202380D02*
X88892857Y-170154761D01*
X89011904Y-170273809D01*
X89130952Y-170273809D01*
X89369047Y-170154761D01*
X89488095Y-169916666D01*
X89488095Y-169321428D01*
X89250000Y-168964285D01*
X88892857Y-168726190D01*
X88416666Y-168607142D01*
X87940476Y-168726190D01*
X87583333Y-168964285D01*
X87345238Y-169321428D01*
X87226190Y-169797619D01*
X87345238Y-170273809D01*
X87583333Y-170630952D01*
X87940476Y-170869047D01*
X88416666Y-170988095D01*
X88892857Y-170869047D01*
X89250000Y-170630952D01*
X91630952Y-170511904D02*
X91392857Y-170630952D01*
X90916666Y-170630952D01*
X90678571Y-170511904D01*
X90559523Y-170392857D01*
X90440476Y-170154761D01*
X90440476Y-169440476D01*
X90559523Y-169202380D01*
X90678571Y-169083333D01*
X90916666Y-168964285D01*
X91392857Y-168964285D01*
X91630952Y-169083333D01*
X92583333Y-170511904D02*
X92821428Y-170630952D01*
X93297619Y-170630952D01*
X93535714Y-170511904D01*
X93654761Y-170273809D01*
X93654761Y-170154761D01*
X93535714Y-169916666D01*
X93297619Y-169797619D01*
X92940476Y-169797619D01*
X92702380Y-169678571D01*
X92583333Y-169440476D01*
X92583333Y-169321428D01*
X92702380Y-169083333D01*
X92940476Y-168964285D01*
X93297619Y-168964285D01*
X93535714Y-169083333D01*
X94726190Y-170392857D02*
X94845238Y-170511904D01*
X94726190Y-170630952D01*
X94607142Y-170511904D01*
X94726190Y-170392857D01*
X94726190Y-170630952D01*
X95559523Y-168964285D02*
X96511904Y-168964285D01*
X95916666Y-168130952D02*
X95916666Y-170273809D01*
X96035714Y-170511904D01*
X96273809Y-170630952D01*
X96511904Y-170630952D01*
X97702380Y-170630952D02*
X97464285Y-170511904D01*
X97345238Y-170392857D01*
X97226190Y-170154761D01*
X97226190Y-169440476D01*
X97345238Y-169202380D01*
X97464285Y-169083333D01*
X97702380Y-168964285D01*
X98059523Y-168964285D01*
X98297619Y-169083333D01*
X98416666Y-169202380D01*
X98535714Y-169440476D01*
X98535714Y-170154761D01*
X98416666Y-170392857D01*
X98297619Y-170511904D01*
X98059523Y-170630952D01*
X97702380Y-170630952D01*
X99607142Y-170630952D02*
X99607142Y-168964285D01*
X99607142Y-169440476D02*
X99726190Y-169202380D01*
X99845238Y-169083333D01*
X100083333Y-168964285D01*
X100321428Y-168964285D01*
X101511904Y-170630952D02*
X101273809Y-170511904D01*
X101154761Y-170392857D01*
X101035714Y-170154761D01*
X101035714Y-169440476D01*
X101154761Y-169202380D01*
X101273809Y-169083333D01*
X101511904Y-168964285D01*
X101869047Y-168964285D01*
X102107142Y-169083333D01*
X102226190Y-169202380D01*
X102345238Y-169440476D01*
X102345238Y-170154761D01*
X102226190Y-170392857D01*
X102107142Y-170511904D01*
X101869047Y-170630952D01*
X101511904Y-170630952D01*
X103416666Y-168964285D02*
X103416666Y-170630952D01*
X103416666Y-169202380D02*
X103535714Y-169083333D01*
X103773809Y-168964285D01*
X104130952Y-168964285D01*
X104369047Y-169083333D01*
X104488095Y-169321428D01*
X104488095Y-170630952D01*
X105321428Y-168964285D02*
X106273809Y-168964285D01*
X105678571Y-168130952D02*
X105678571Y-170273809D01*
X105797619Y-170511904D01*
X106035714Y-170630952D01*
X106273809Y-170630952D01*
X107464285Y-170630952D02*
X107226190Y-170511904D01*
X107107142Y-170392857D01*
X106988095Y-170154761D01*
X106988095Y-169440476D01*
X107107142Y-169202380D01*
X107226190Y-169083333D01*
X107464285Y-168964285D01*
X107821428Y-168964285D01*
X108059523Y-169083333D01*
X108178571Y-169202380D01*
X108297619Y-169440476D01*
X108297619Y-170154761D01*
X108178571Y-170392857D01*
X108059523Y-170511904D01*
X107821428Y-170630952D01*
X107464285Y-170630952D01*
X109369047Y-170392857D02*
X109488095Y-170511904D01*
X109369047Y-170630952D01*
X109250000Y-170511904D01*
X109369047Y-170392857D01*
X109369047Y-170630952D01*
X111511904Y-170511904D02*
X111273809Y-170630952D01*
X110797619Y-170630952D01*
X110559523Y-170511904D01*
X110440476Y-170273809D01*
X110440476Y-169321428D01*
X110559523Y-169083333D01*
X110797619Y-168964285D01*
X111273809Y-168964285D01*
X111511904Y-169083333D01*
X111630952Y-169321428D01*
X111630952Y-169559523D01*
X110440476Y-169797619D01*
X113773809Y-170630952D02*
X113773809Y-168130952D01*
X113773809Y-170511904D02*
X113535714Y-170630952D01*
X113059523Y-170630952D01*
X112821428Y-170511904D01*
X112702380Y-170392857D01*
X112583333Y-170154761D01*
X112583333Y-169440476D01*
X112702380Y-169202380D01*
X112821428Y-169083333D01*
X113059523Y-168964285D01*
X113535714Y-168964285D01*
X113773809Y-169083333D01*
X116035714Y-168964285D02*
X116035714Y-170630952D01*
X114964285Y-168964285D02*
X114964285Y-170273809D01*
X115083333Y-170511904D01*
X115321428Y-170630952D01*
X115678571Y-170630952D01*
X115916666Y-170511904D01*
X116035714Y-170392857D01*
D11*
%TO.C,J1*%
X31378100Y-104501740D02*
X31975000Y-105695540D01*
X31975000Y-105695540D02*
X30705000Y-105695540D01*
X30705000Y-105695540D02*
X31301900Y-104501740D01*
X37182000Y-103407000D02*
X37182000Y-98073000D01*
X30578000Y-98073000D02*
X30578000Y-103407000D01*
X36293000Y-103470500D02*
X36293000Y-103851500D01*
X36293000Y-103851500D02*
X36547000Y-103851500D01*
X36547000Y-103851500D02*
X36547000Y-103470500D01*
X36547000Y-103470500D02*
X36293000Y-103470500D01*
X30705000Y-98200000D02*
X31136800Y-98200000D01*
X31136800Y-98200000D02*
X31136800Y-97311000D01*
X31136800Y-97311000D02*
X36623200Y-97311000D01*
X36623200Y-97311000D02*
X36623200Y-98200000D01*
X36623200Y-98200000D02*
X37055000Y-98200000D01*
X37055000Y-103280000D02*
X36623200Y-103280000D01*
X36623200Y-103280000D02*
X36623200Y-104169000D01*
X36623200Y-104169000D02*
X31136800Y-104169000D01*
X31136800Y-104169000D02*
X31136800Y-103280000D01*
X31136800Y-103280000D02*
X30705000Y-103280000D01*
X30705000Y-103280000D02*
X30705000Y-98200000D01*
X30705000Y-98200000D02*
X37055000Y-98200000D01*
X37055000Y-98200000D02*
X37055000Y-103280000D01*
X37055000Y-103280000D02*
X30705000Y-103280000D01*
%TO.C,K2*%
X54713007Y-159977000D02*
X83767001Y-159977000D01*
X54713007Y-147223000D02*
X54713007Y-159977000D01*
X83767001Y-147223000D02*
X54713007Y-147223000D01*
X83767001Y-159977000D02*
X83767001Y-147223000D01*
%TO.C,K3*%
X113767001Y-159977000D02*
X113767001Y-147223000D01*
X113767001Y-147223000D02*
X84713007Y-147223000D01*
X84713007Y-147223000D02*
X84713007Y-159977000D01*
X84713007Y-159977000D02*
X113767001Y-159977000D01*
%TO.C,K1*%
X53767001Y-159977000D02*
X53767001Y-147223000D01*
X53767001Y-147223000D02*
X24713007Y-147223000D01*
X24713007Y-147223000D02*
X24713007Y-159977000D01*
X24713007Y-159977000D02*
X53767001Y-159977000D01*
D12*
%TO.C,D12*%
X100955000Y-161935000D02*
X103440000Y-161935000D01*
X100955000Y-160565000D02*
X100955000Y-161935000D01*
X103440000Y-160565000D02*
X100955000Y-160565000D01*
%TO.C,D11*%
X70955000Y-161935000D02*
X73440000Y-161935000D01*
X70955000Y-160565000D02*
X70955000Y-161935000D01*
X73440000Y-160565000D02*
X70955000Y-160565000D01*
%TO.C,D10*%
X40955000Y-161935000D02*
X43440000Y-161935000D01*
X40955000Y-160565000D02*
X40955000Y-161935000D01*
X43440000Y-160565000D02*
X40955000Y-160565000D01*
%TO.C,R24*%
X43967064Y-162340000D02*
X42512936Y-162340000D01*
X43967064Y-164160000D02*
X42512936Y-164160000D01*
%TO.C,R26*%
X103967064Y-162340000D02*
X102512936Y-162340000D01*
X103967064Y-164160000D02*
X102512936Y-164160000D01*
%TO.C,R25*%
X73967064Y-162340000D02*
X72512936Y-162340000D01*
X73967064Y-164160000D02*
X72512936Y-164160000D01*
%TO.C,R21*%
X36962500Y-162287258D02*
X36962500Y-161812742D01*
X35917500Y-162287258D02*
X35917500Y-161812742D01*
%TO.C,R23*%
X96962500Y-162287258D02*
X96962500Y-161812742D01*
X95917500Y-162287258D02*
X95917500Y-161812742D01*
%TO.C,R22*%
X66962500Y-162287258D02*
X66962500Y-161812742D01*
X65917500Y-162287258D02*
X65917500Y-161812742D01*
%TO.C,R16*%
X33467064Y-162440000D02*
X32012936Y-162440000D01*
X33467064Y-164260000D02*
X32012936Y-164260000D01*
%TO.C,R18*%
X93467064Y-162440000D02*
X92012936Y-162440000D01*
X93467064Y-164260000D02*
X92012936Y-164260000D01*
%TO.C,R17*%
X63467064Y-162440000D02*
X62012936Y-162440000D01*
X63467064Y-164260000D02*
X62012936Y-164260000D01*
%TO.C,R13*%
X26462500Y-162387258D02*
X26462500Y-161912742D01*
X25417500Y-162387258D02*
X25417500Y-161912742D01*
%TO.C,R15*%
X86462500Y-162387258D02*
X86462500Y-161912742D01*
X85417500Y-162387258D02*
X85417500Y-161912742D01*
%TO.C,R14*%
X56462500Y-162387258D02*
X56462500Y-161912742D01*
X55417500Y-162387258D02*
X55417500Y-161912742D01*
%TO.C,Q10*%
X39800000Y-163930000D02*
X38340000Y-163930000D01*
X39800000Y-160770000D02*
X37640000Y-160770000D01*
X39800000Y-160770000D02*
X39800000Y-161700000D01*
X39800000Y-163930000D02*
X39800000Y-163000000D01*
%TO.C,Q12*%
X99800000Y-163930000D02*
X98340000Y-163930000D01*
X99800000Y-160770000D02*
X97640000Y-160770000D01*
X99800000Y-160770000D02*
X99800000Y-161700000D01*
X99800000Y-163930000D02*
X99800000Y-163000000D01*
%TO.C,Q11*%
X69800000Y-163930000D02*
X68340000Y-163930000D01*
X69800000Y-160770000D02*
X67640000Y-160770000D01*
X69800000Y-160770000D02*
X69800000Y-161700000D01*
X69800000Y-163930000D02*
X69800000Y-163000000D01*
%TO.C,Q7*%
X29300000Y-164030000D02*
X27840000Y-164030000D01*
X29300000Y-160870000D02*
X27140000Y-160870000D01*
X29300000Y-160870000D02*
X29300000Y-161800000D01*
X29300000Y-164030000D02*
X29300000Y-163100000D01*
%TO.C,Q9*%
X89300000Y-164030000D02*
X87840000Y-164030000D01*
X89300000Y-160870000D02*
X87140000Y-160870000D01*
X89300000Y-160870000D02*
X89300000Y-161800000D01*
X89300000Y-164030000D02*
X89300000Y-163100000D01*
%TO.C,Q8*%
X59300000Y-164030000D02*
X57840000Y-164030000D01*
X59300000Y-160870000D02*
X57140000Y-160870000D01*
X59300000Y-160870000D02*
X59300000Y-161800000D01*
X59300000Y-164030000D02*
X59300000Y-163100000D01*
%TO.C,D7*%
X30455000Y-162035000D02*
X32940000Y-162035000D01*
X30455000Y-160665000D02*
X30455000Y-162035000D01*
X32940000Y-160665000D02*
X30455000Y-160665000D01*
%TO.C,D9*%
X90455000Y-162035000D02*
X92940000Y-162035000D01*
X90455000Y-160665000D02*
X90455000Y-162035000D01*
X92940000Y-160665000D02*
X90455000Y-160665000D01*
%TO.C,D8*%
X60455000Y-162035000D02*
X62940000Y-162035000D01*
X60455000Y-160665000D02*
X60455000Y-162035000D01*
X62940000Y-160665000D02*
X60455000Y-160665000D01*
%TO.C,J10*%
X82300000Y-101800000D02*
X82300000Y-102800000D01*
X82300000Y-106200000D02*
X82300000Y-107200000D01*
X84800000Y-109700000D02*
X85800000Y-109700000D01*
X89200000Y-109700000D02*
X90200000Y-109700000D01*
X92700000Y-107200000D02*
X92700000Y-106200000D01*
X92700000Y-102800000D02*
X92700000Y-101800000D01*
X89200000Y-99300000D02*
X90200000Y-99300000D01*
X84800000Y-99300000D02*
X85800000Y-99300000D01*
%TO.C,J8*%
X111510000Y-115300000D02*
X111510000Y-116300000D01*
X111510000Y-119700000D02*
X111510000Y-120700000D01*
X114010000Y-123200000D02*
X115010000Y-123200000D01*
X118410000Y-123200000D02*
X119410000Y-123200000D01*
X121910000Y-120700000D02*
X121910000Y-119700000D01*
X121910000Y-116300000D02*
X121910000Y-115300000D01*
X118410000Y-112800000D02*
X119410000Y-112800000D01*
X114010000Y-112800000D02*
X115010000Y-112800000D01*
%TO.C,J7*%
X110040000Y-178650000D02*
X110040000Y-181050000D01*
X107540000Y-183550000D02*
X105140000Y-183550000D01*
X102640000Y-181050000D02*
X102640000Y-178650000D01*
X105140000Y-176150000D02*
X107540000Y-176150000D01*
%TO.C,J6*%
X80040000Y-178650000D02*
X80040000Y-181050000D01*
X77540000Y-183550000D02*
X75140000Y-183550000D01*
X72640000Y-181050000D02*
X72640000Y-178650000D01*
X75140000Y-176150000D02*
X77540000Y-176150000D01*
%TO.C,J5*%
X50040000Y-178650000D02*
X50040000Y-181050000D01*
X47540000Y-183550000D02*
X45140000Y-183550000D01*
X42640000Y-181050000D02*
X42640000Y-178650000D01*
X45140000Y-176150000D02*
X47540000Y-176150000D01*
%TO.C,J4*%
X96040000Y-178650000D02*
X96040000Y-181050000D01*
X93540000Y-183550000D02*
X91140000Y-183550000D01*
X88640000Y-181050000D02*
X88640000Y-178650000D01*
X91140000Y-176150000D02*
X93540000Y-176150000D01*
%TO.C,J3*%
X66040000Y-178650000D02*
X66040000Y-181050000D01*
X63540000Y-183550000D02*
X61140000Y-183550000D01*
X58640000Y-181050000D02*
X58640000Y-178650000D01*
X61140000Y-176150000D02*
X63540000Y-176150000D01*
%TO.C,J2*%
X36040000Y-178650000D02*
X36040000Y-181050000D01*
X33540000Y-183550000D02*
X31140000Y-183550000D01*
X28640000Y-181050000D02*
X28640000Y-178650000D01*
X31140000Y-176150000D02*
X33540000Y-176150000D01*
%TO.C,J9*%
X79500000Y-110500000D02*
X66500000Y-110500000D01*
X66500000Y-110500000D02*
X66500000Y-98500000D01*
X79500000Y-98500000D02*
X66500000Y-98500000D01*
X79500000Y-110500000D02*
X79500000Y-98500000D01*
X80500000Y-118500000D02*
X65500000Y-118500000D01*
X65500000Y-118500000D02*
X65500000Y-98000000D01*
X80500000Y-98000000D02*
X80500000Y-118500000D01*
X65500000Y-98000000D02*
X80500000Y-98000000D01*
X68500000Y-110500000D02*
X79500000Y-99500000D01*
X69500000Y-110500000D02*
X68500000Y-110500000D01*
X79500000Y-100500000D02*
X69500000Y-110500000D01*
X79500000Y-101500000D02*
X79500000Y-100500000D01*
X70500000Y-110500000D02*
X79500000Y-101500000D01*
X71500000Y-110500000D02*
X70500000Y-110500000D01*
X79500000Y-102500000D02*
X71500000Y-110500000D01*
X79500000Y-103500000D02*
X79500000Y-102500000D01*
X72500000Y-110500000D02*
X79500000Y-103500000D01*
X73500000Y-110500000D02*
X72500000Y-110500000D01*
X79500000Y-104500000D02*
X73500000Y-110500000D01*
X79500000Y-105500000D02*
X79500000Y-104500000D01*
X74500000Y-110500000D02*
X79500000Y-105500000D01*
X75500000Y-110500000D02*
X74500000Y-110500000D01*
X79500000Y-106500000D02*
X75500000Y-110500000D01*
X79500000Y-107500000D02*
X79500000Y-106500000D01*
X76500000Y-110500000D02*
X79500000Y-107500000D01*
X77500000Y-110500000D02*
X76500000Y-110500000D01*
X79500000Y-108500000D02*
X77500000Y-110500000D01*
X79500000Y-109500000D02*
X79500000Y-108500000D01*
X78500000Y-110500000D02*
X79500000Y-109500000D01*
X79500000Y-98500000D02*
X67500000Y-110500000D01*
X67500000Y-98500000D02*
X66500000Y-99500000D01*
X68500000Y-98500000D02*
X67500000Y-98500000D01*
X66500000Y-100500000D02*
X68500000Y-98500000D01*
X66500000Y-100000000D02*
X66500000Y-100500000D01*
X66500000Y-101500000D02*
X66500000Y-100000000D01*
X69500000Y-98500000D02*
X66500000Y-101500000D01*
X70500000Y-98500000D02*
X69500000Y-98500000D01*
X66500000Y-102500000D02*
X70500000Y-98500000D01*
X66500000Y-103500000D02*
X66500000Y-102500000D01*
X71500000Y-98500000D02*
X66500000Y-103500000D01*
X72500000Y-98500000D02*
X71500000Y-98500000D01*
X66500000Y-104500000D02*
X72500000Y-98500000D01*
X66500000Y-104000000D02*
X66500000Y-104500000D01*
X66500000Y-105500000D02*
X66500000Y-104000000D01*
X73500000Y-98500000D02*
X66500000Y-105500000D01*
X74500000Y-98500000D02*
X73500000Y-98500000D01*
X66500000Y-106500000D02*
X74500000Y-98500000D01*
X66500000Y-107500000D02*
X66500000Y-106500000D01*
X75500000Y-98500000D02*
X66500000Y-107500000D01*
X75000000Y-98500000D02*
X75500000Y-98500000D01*
X76500000Y-98500000D02*
X75000000Y-98500000D01*
X66500000Y-108500000D02*
X76500000Y-98500000D01*
X66500000Y-108000000D02*
X66500000Y-108500000D01*
X66500000Y-109500000D02*
X66500000Y-108000000D01*
X77500000Y-98500000D02*
X66500000Y-109500000D01*
X78500000Y-98500000D02*
X77500000Y-98500000D01*
X66500000Y-110500000D02*
X78500000Y-98500000D01*
%TO.C,R20*%
X93807064Y-114400000D02*
X92352936Y-114400000D01*
X93807064Y-116220000D02*
X92352936Y-116220000D01*
%TO.C,R19*%
X64630000Y-114883641D02*
X64630000Y-114576359D01*
X63870000Y-114883641D02*
X63870000Y-114576359D01*
%TO.C,F6*%
X121350000Y-136710000D02*
X121350000Y-139910000D01*
X117350000Y-139910000D02*
X117350000Y-136710000D01*
X119350000Y-137560000D02*
X119350000Y-139060000D01*
X122820000Y-146410000D02*
X122820000Y-130210000D01*
X115880000Y-146410000D02*
X122820000Y-146410000D01*
X115880000Y-130210000D02*
X115880000Y-146410000D01*
X122820000Y-130210000D02*
X115880000Y-130210000D01*
%TO.C,F5*%
X82140000Y-136710000D02*
X82140000Y-139910000D01*
X78140000Y-139910000D02*
X78140000Y-136710000D01*
X80140000Y-137560000D02*
X80140000Y-139060000D01*
X83610000Y-146410000D02*
X83610000Y-130210000D01*
X76670000Y-146410000D02*
X83610000Y-146410000D01*
X76670000Y-130210000D02*
X76670000Y-146410000D01*
X83610000Y-130210000D02*
X76670000Y-130210000D01*
%TO.C,F4*%
X52140000Y-136710000D02*
X52140000Y-139910000D01*
X48140000Y-139910000D02*
X48140000Y-136710000D01*
X50140000Y-137560000D02*
X50140000Y-139060000D01*
X53610000Y-146410000D02*
X53610000Y-130210000D01*
X46670000Y-146410000D02*
X53610000Y-146410000D01*
X46670000Y-130210000D02*
X46670000Y-146410000D01*
X53610000Y-130210000D02*
X46670000Y-130210000D01*
%TO.C,U6*%
X42200000Y-122450000D02*
X44150000Y-122450000D01*
X42200000Y-122450000D02*
X42200000Y-122550000D01*
X44150000Y-124750000D02*
X42650000Y-124750000D01*
%TO.C,U5*%
X36200000Y-121750000D02*
X38150000Y-121750000D01*
X36200000Y-121750000D02*
X36200000Y-121850000D01*
X38150000Y-124050000D02*
X36650000Y-124050000D01*
%TO.C,U4*%
X35100000Y-116940000D02*
X36600000Y-116940000D01*
X33600000Y-119660000D02*
X36600000Y-119660000D01*
%TO.C,U3*%
X89380000Y-122490000D02*
X89380000Y-120710000D01*
X78710000Y-122490000D02*
X89380000Y-122490000D01*
X78710000Y-120720000D02*
X78710000Y-122490000D01*
X78710000Y-120710000D02*
X80110000Y-120710000D01*
X80110000Y-120710000D02*
X80110000Y-118470000D01*
X80110000Y-118470000D02*
X87990000Y-118470000D01*
X87990000Y-118470000D02*
X87990000Y-120710000D01*
X87990000Y-120710000D02*
X89380000Y-120710000D01*
%TO.C,R30*%
X40437258Y-120622500D02*
X39962742Y-120622500D01*
X40437258Y-119577500D02*
X39962742Y-119577500D01*
%TO.C,R29*%
X39822500Y-117462742D02*
X39822500Y-117937258D01*
X38777500Y-117462742D02*
X38777500Y-117937258D01*
%TO.C,R28*%
X39277500Y-124237258D02*
X39277500Y-123762742D01*
X40322500Y-124237258D02*
X40322500Y-123762742D01*
%TO.C,R27*%
X41080000Y-117646359D02*
X41080000Y-117953641D01*
X40320000Y-117646359D02*
X40320000Y-117953641D01*
%TO.C,R12*%
X28831359Y-133355000D02*
X29138641Y-133355000D01*
X28831359Y-134115000D02*
X29138641Y-134115000D01*
%TO.C,R11*%
X28831359Y-132255000D02*
X29138641Y-132255000D01*
X28831359Y-133015000D02*
X29138641Y-133015000D01*
%TO.C,R10*%
X29891359Y-126505000D02*
X30198641Y-126505000D01*
X29891359Y-127265000D02*
X30198641Y-127265000D01*
%TO.C,R9*%
X31031359Y-137455000D02*
X31338641Y-137455000D01*
X31031359Y-138215000D02*
X31338641Y-138215000D01*
%TO.C,R8*%
X31891359Y-126505000D02*
X32198641Y-126505000D01*
X31891359Y-127265000D02*
X32198641Y-127265000D01*
%TO.C,R7*%
X34198641Y-127265000D02*
X33891359Y-127265000D01*
X34198641Y-126505000D02*
X33891359Y-126505000D01*
%TO.C,R4*%
X46940000Y-162350000D02*
X46940000Y-164350000D01*
X49940000Y-161550000D02*
X50740000Y-161550000D01*
X50740000Y-165150000D02*
X49940000Y-165150000D01*
X53740000Y-162350000D02*
X53740000Y-164350000D01*
%TO.C,R5*%
X76940000Y-162350000D02*
X76940000Y-164350000D01*
X79940000Y-161550000D02*
X80740000Y-161550000D01*
X80740000Y-165150000D02*
X79940000Y-165150000D01*
X83740000Y-162350000D02*
X83740000Y-164350000D01*
%TO.C,R3*%
X33040000Y-111063641D02*
X33040000Y-110756359D01*
X33800000Y-111063641D02*
X33800000Y-110756359D01*
%TO.C,R2*%
X33810000Y-112776359D02*
X33810000Y-113083641D01*
X33050000Y-112776359D02*
X33050000Y-113083641D01*
%TO.C,R1*%
X23840000Y-109556359D02*
X23840000Y-109863641D01*
X23080000Y-109556359D02*
X23080000Y-109863641D01*
%TO.C,Q6*%
X88800000Y-142630000D02*
X88800000Y-141700000D01*
X88800000Y-139470000D02*
X88800000Y-140400000D01*
X88800000Y-139470000D02*
X86640000Y-139470000D01*
X88800000Y-142630000D02*
X87340000Y-142630000D01*
%TO.C,Q3*%
X88800000Y-146330000D02*
X88800000Y-145400000D01*
X88800000Y-143170000D02*
X88800000Y-144100000D01*
X88800000Y-143170000D02*
X86640000Y-143170000D01*
X88800000Y-146330000D02*
X87340000Y-146330000D01*
%TO.C,Q4*%
X28900000Y-142530000D02*
X28900000Y-141600000D01*
X28900000Y-139370000D02*
X28900000Y-140300000D01*
X28900000Y-139370000D02*
X26740000Y-139370000D01*
X28900000Y-142530000D02*
X27440000Y-142530000D01*
%TO.C,Q1*%
X28900000Y-146230000D02*
X28900000Y-145300000D01*
X28900000Y-143070000D02*
X28900000Y-144000000D01*
X28900000Y-143070000D02*
X26740000Y-143070000D01*
X28900000Y-146230000D02*
X27440000Y-146230000D01*
%TO.C,F3*%
X114820000Y-130210000D02*
X107880000Y-130210000D01*
X107880000Y-130210000D02*
X107880000Y-146410000D01*
X107880000Y-146410000D02*
X114820000Y-146410000D01*
X114820000Y-146410000D02*
X114820000Y-130210000D01*
X111350000Y-137560000D02*
X111350000Y-139060000D01*
X109350000Y-139910000D02*
X109350000Y-136710000D01*
X113350000Y-136710000D02*
X113350000Y-139910000D01*
%TO.C,F2*%
X75610000Y-130210000D02*
X68670000Y-130210000D01*
X68670000Y-130210000D02*
X68670000Y-146410000D01*
X68670000Y-146410000D02*
X75610000Y-146410000D01*
X75610000Y-146410000D02*
X75610000Y-130210000D01*
X72140000Y-137560000D02*
X72140000Y-139060000D01*
X70140000Y-139910000D02*
X70140000Y-136710000D01*
X74140000Y-136710000D02*
X74140000Y-139910000D01*
%TO.C,F1*%
X45610000Y-130210000D02*
X38670000Y-130210000D01*
X38670000Y-130210000D02*
X38670000Y-146410000D01*
X38670000Y-146410000D02*
X45610000Y-146410000D01*
X45610000Y-146410000D02*
X45610000Y-130210000D01*
X42140000Y-137560000D02*
X42140000Y-139060000D01*
X40140000Y-139910000D02*
X40140000Y-136710000D01*
X44140000Y-136710000D02*
X44140000Y-139910000D01*
%TO.C,D6*%
X96840000Y-142700000D02*
X96840000Y-139400000D01*
X96840000Y-139400000D02*
X91440000Y-139400000D01*
X96840000Y-142700000D02*
X91440000Y-142700000D01*
%TO.C,D3*%
X96840000Y-146400000D02*
X96840000Y-143100000D01*
X96840000Y-143100000D02*
X91440000Y-143100000D01*
X96840000Y-146400000D02*
X91440000Y-146400000D01*
%TO.C,D4*%
X36940000Y-142600000D02*
X36940000Y-139300000D01*
X36940000Y-139300000D02*
X31540000Y-139300000D01*
X36940000Y-142600000D02*
X31540000Y-142600000D01*
%TO.C,D1*%
X36940000Y-146300000D02*
X36940000Y-143000000D01*
X36940000Y-143000000D02*
X31540000Y-143000000D01*
X36940000Y-146300000D02*
X31540000Y-146300000D01*
%TO.C,C7*%
X44760000Y-117788748D02*
X44760000Y-119211252D01*
X42040000Y-117788748D02*
X42040000Y-119211252D01*
%TO.C,C6*%
X38210000Y-118659420D02*
X38210000Y-118940580D01*
X37190000Y-118659420D02*
X37190000Y-118940580D01*
%TO.C,C5*%
X32810000Y-118159420D02*
X32810000Y-118440580D01*
X31790000Y-118159420D02*
X31790000Y-118440580D01*
%TO.C,C4*%
X35510000Y-122488748D02*
X35510000Y-123911252D01*
X33690000Y-122488748D02*
X33690000Y-123911252D01*
%TO.C,C3*%
X31360000Y-117592164D02*
X31360000Y-117807836D01*
X30640000Y-117592164D02*
X30640000Y-117807836D01*
%TO.C,C2*%
X35825000Y-133742836D02*
X35825000Y-133527164D01*
X36545000Y-133742836D02*
X36545000Y-133527164D01*
%TO.C,C1*%
X30090000Y-102972164D02*
X30090000Y-103187836D01*
X29370000Y-102972164D02*
X29370000Y-103187836D01*
%TO.C,BT1*%
X63870000Y-103560000D02*
X62430000Y-99610000D01*
X61790000Y-114730000D02*
X63870000Y-112650000D01*
X58290000Y-114730000D02*
X61790000Y-114730000D01*
X44390000Y-114730000D02*
X42310000Y-112650000D01*
X42310000Y-103560000D02*
X43750000Y-99610000D01*
X63870000Y-112650000D02*
X63870000Y-110190000D01*
X63870000Y-104190000D02*
X63870000Y-103560000D01*
X42310000Y-112650000D02*
X42310000Y-110190000D01*
X42310000Y-104190000D02*
X42310000Y-103560000D01*
X44390000Y-114730000D02*
X47890000Y-114730000D01*
X43764756Y-99601831D02*
G75*
G02*
X47090000Y-98640000I2015244J-738169D01*
G01*
X59093354Y-98623470D02*
G75*
G02*
X62430000Y-99610000I1306646J-1716530D01*
G01*
%TO.C,U2*%
X34295000Y-136715000D02*
X34995000Y-136715000D01*
X30775000Y-132495000D02*
X30775000Y-133195000D01*
X31475000Y-132495000D02*
X30775000Y-132495000D01*
X34995000Y-132495000D02*
X34995000Y-133195000D01*
X34295000Y-132495000D02*
X34995000Y-132495000D01*
X30775000Y-136715000D02*
X30775000Y-136015000D01*
X31475000Y-136715000D02*
X30775000Y-136715000D01*
%TO.C,S1*%
X107710000Y-98000000D02*
X119710000Y-98000000D01*
X107710000Y-110000000D02*
X119710000Y-110000000D01*
X119710000Y-98000000D02*
X119710000Y-110000000D01*
X107710000Y-98000000D02*
X107710000Y-110000000D01*
%TO.C,R6*%
X113740000Y-162350000D02*
X113740000Y-164350000D01*
X110740000Y-165150000D02*
X109940000Y-165150000D01*
X109940000Y-161550000D02*
X110740000Y-161550000D01*
X106940000Y-162350000D02*
X106940000Y-164350000D01*
%TO.C,Q5*%
X58700000Y-142630000D02*
X57240000Y-142630000D01*
X58700000Y-139470000D02*
X56540000Y-139470000D01*
X58700000Y-139470000D02*
X58700000Y-140400000D01*
X58700000Y-142630000D02*
X58700000Y-141700000D01*
%TO.C,Q2*%
X58700000Y-146330000D02*
X57240000Y-146330000D01*
X58700000Y-143170000D02*
X56540000Y-143170000D01*
X58700000Y-143170000D02*
X58700000Y-144100000D01*
X58700000Y-146330000D02*
X58700000Y-145400000D01*
%TO.C,D5*%
X66740000Y-142700000D02*
X61340000Y-142700000D01*
X66740000Y-139400000D02*
X61340000Y-139400000D01*
X66740000Y-142700000D02*
X66740000Y-139400000D01*
%TO.C,D2*%
X66740000Y-146400000D02*
X61340000Y-146400000D01*
X66740000Y-143100000D02*
X61340000Y-143100000D01*
X66740000Y-146400000D02*
X66740000Y-143100000D01*
%TO.C,REF\u002A\u002A*%
D13*
X23512380Y-112253333D02*
X23036190Y-112586666D01*
X23512380Y-112824761D02*
X22512380Y-112824761D01*
X22512380Y-112443809D01*
X22560000Y-112348571D01*
X22607619Y-112300952D01*
X22702857Y-112253333D01*
X22845714Y-112253333D01*
X22940952Y-112300952D01*
X22988571Y-112348571D01*
X23036190Y-112443809D01*
X23036190Y-112824761D01*
X22988571Y-111824761D02*
X22988571Y-111491428D01*
X23512380Y-111348571D02*
X23512380Y-111824761D01*
X22512380Y-111824761D01*
X22512380Y-111348571D01*
X22988571Y-110586666D02*
X22988571Y-110920000D01*
X23512380Y-110920000D02*
X22512380Y-110920000D01*
X22512380Y-110443809D01*
X22512380Y-109920000D02*
X22750476Y-109920000D01*
X22655238Y-110158095D02*
X22750476Y-109920000D01*
X22655238Y-109681904D01*
X22940952Y-110062857D02*
X22750476Y-109920000D01*
X22940952Y-109777142D01*
X22512380Y-109158095D02*
X22750476Y-109158095D01*
X22655238Y-109396190D02*
X22750476Y-109158095D01*
X22655238Y-108920000D01*
X22940952Y-109300952D02*
X22750476Y-109158095D01*
X22940952Y-109015238D01*
%TO.C,J1*%
X33546666Y-100192380D02*
X33546666Y-100906666D01*
X33499047Y-101049523D01*
X33403809Y-101144761D01*
X33260952Y-101192380D01*
X33165714Y-101192380D01*
X34546666Y-101192380D02*
X33975238Y-101192380D01*
X34260952Y-101192380D02*
X34260952Y-100192380D01*
X34165714Y-100335238D01*
X34070476Y-100430476D01*
X33975238Y-100478095D01*
X25332380Y-100668571D02*
X24999047Y-100668571D01*
X24999047Y-101192380D02*
X24999047Y-100192380D01*
X25475238Y-100192380D01*
X25713333Y-100192380D02*
X26284761Y-100192380D01*
X25999047Y-101192380D02*
X25999047Y-100192380D01*
X26570476Y-101144761D02*
X26713333Y-101192380D01*
X26951428Y-101192380D01*
X27046666Y-101144761D01*
X27094285Y-101097142D01*
X27141904Y-101001904D01*
X27141904Y-100906666D01*
X27094285Y-100811428D01*
X27046666Y-100763809D01*
X26951428Y-100716190D01*
X26760952Y-100668571D01*
X26665714Y-100620952D01*
X26618095Y-100573333D01*
X26570476Y-100478095D01*
X26570476Y-100382857D01*
X26618095Y-100287619D01*
X26665714Y-100240000D01*
X26760952Y-100192380D01*
X26999047Y-100192380D01*
X27141904Y-100240000D01*
X27570476Y-101192380D02*
X27570476Y-100192380D01*
X27570476Y-100668571D02*
X28141904Y-100668571D01*
X28141904Y-101192380D02*
X28141904Y-100192380D01*
X28618095Y-100811428D02*
X29380000Y-100811428D01*
X30380000Y-101192380D02*
X29808571Y-101192380D01*
X30094285Y-101192380D02*
X30094285Y-100192380D01*
X29999047Y-100335238D01*
X29903809Y-100430476D01*
X29808571Y-100478095D01*
X30999047Y-100192380D02*
X31094285Y-100192380D01*
X31189523Y-100240000D01*
X31237142Y-100287619D01*
X31284761Y-100382857D01*
X31332380Y-100573333D01*
X31332380Y-100811428D01*
X31284761Y-101001904D01*
X31237142Y-101097142D01*
X31189523Y-101144761D01*
X31094285Y-101192380D01*
X30999047Y-101192380D01*
X30903809Y-101144761D01*
X30856190Y-101097142D01*
X30808571Y-101001904D01*
X30760952Y-100811428D01*
X30760952Y-100573333D01*
X30808571Y-100382857D01*
X30856190Y-100287619D01*
X30903809Y-100240000D01*
X30999047Y-100192380D01*
X32237142Y-100192380D02*
X31760952Y-100192380D01*
X31713333Y-100668571D01*
X31760952Y-100620952D01*
X31856190Y-100573333D01*
X32094285Y-100573333D01*
X32189523Y-100620952D01*
X32237142Y-100668571D01*
X32284761Y-100763809D01*
X32284761Y-101001904D01*
X32237142Y-101097142D01*
X32189523Y-101144761D01*
X32094285Y-101192380D01*
X31856190Y-101192380D01*
X31760952Y-101144761D01*
X31713333Y-101097142D01*
X32713333Y-100811428D02*
X33475238Y-100811428D01*
X34141904Y-100192380D02*
X34237142Y-100192380D01*
X34332380Y-100240000D01*
X34380000Y-100287619D01*
X34427619Y-100382857D01*
X34475238Y-100573333D01*
X34475238Y-100811428D01*
X34427619Y-101001904D01*
X34380000Y-101097142D01*
X34332380Y-101144761D01*
X34237142Y-101192380D01*
X34141904Y-101192380D01*
X34046666Y-101144761D01*
X33999047Y-101097142D01*
X33951428Y-101001904D01*
X33903809Y-100811428D01*
X33903809Y-100573333D01*
X33951428Y-100382857D01*
X33999047Y-100287619D01*
X34046666Y-100240000D01*
X34141904Y-100192380D01*
X35427619Y-101192380D02*
X34856190Y-101192380D01*
X35141904Y-101192380D02*
X35141904Y-100192380D01*
X35046666Y-100335238D01*
X34951428Y-100430476D01*
X34856190Y-100478095D01*
X35856190Y-100811428D02*
X36618095Y-100811428D01*
X37570476Y-101192380D02*
X37094285Y-101192380D01*
X37094285Y-100192380D01*
X37903809Y-100811428D02*
X38665714Y-100811428D01*
X39141904Y-101192380D02*
X39141904Y-100192380D01*
X39380000Y-100192380D01*
X39522857Y-100240000D01*
X39618095Y-100335238D01*
X39665714Y-100430476D01*
X39713333Y-100620952D01*
X39713333Y-100763809D01*
X39665714Y-100954285D01*
X39618095Y-101049523D01*
X39522857Y-101144761D01*
X39380000Y-101192380D01*
X39141904Y-101192380D01*
X39999047Y-100192380D02*
X40332380Y-101192380D01*
X40665714Y-100192380D01*
X40999047Y-100811428D02*
X41760952Y-100811428D01*
X42237142Y-101192380D02*
X42237142Y-100192380D01*
X42808571Y-101192380D02*
X42380000Y-100620952D01*
X42808571Y-100192380D02*
X42237142Y-100763809D01*
X33880000Y-100192380D02*
X33880000Y-100430476D01*
X33641904Y-100335238D02*
X33880000Y-100430476D01*
X34118095Y-100335238D01*
X33737142Y-100620952D02*
X33880000Y-100430476D01*
X34022857Y-100620952D01*
X29911285Y-98255619D02*
X29958904Y-98208000D01*
X30054142Y-98160380D01*
X30292238Y-98160380D01*
X30387476Y-98208000D01*
X30435095Y-98255619D01*
X30482714Y-98350857D01*
X30482714Y-98446095D01*
X30435095Y-98588952D01*
X29863666Y-99160380D01*
X30482714Y-99160380D01*
X30482714Y-103224380D02*
X29911285Y-103224380D01*
X30197000Y-103224380D02*
X30197000Y-102224380D01*
X30101761Y-102367238D01*
X30006523Y-102462476D01*
X29911285Y-102510095D01*
X37372523Y-99160380D02*
X36801095Y-99160380D01*
X37086809Y-99160380D02*
X37086809Y-98160380D01*
X36991571Y-98303238D01*
X36896333Y-98398476D01*
X36801095Y-98446095D01*
X37991571Y-98160380D02*
X38086809Y-98160380D01*
X38182047Y-98208000D01*
X38229666Y-98255619D01*
X38277285Y-98350857D01*
X38324904Y-98541333D01*
X38324904Y-98779428D01*
X38277285Y-98969904D01*
X38229666Y-99065142D01*
X38182047Y-99112761D01*
X38086809Y-99160380D01*
X37991571Y-99160380D01*
X37896333Y-99112761D01*
X37848714Y-99065142D01*
X37801095Y-98969904D01*
X37753476Y-98779428D01*
X37753476Y-98541333D01*
X37801095Y-98350857D01*
X37848714Y-98255619D01*
X37896333Y-98208000D01*
X37991571Y-98160380D01*
X37372523Y-103224380D02*
X37563000Y-103224380D01*
X37658238Y-103176761D01*
X37705857Y-103129142D01*
X37801095Y-102986285D01*
X37848714Y-102795809D01*
X37848714Y-102414857D01*
X37801095Y-102319619D01*
X37753476Y-102272000D01*
X37658238Y-102224380D01*
X37467761Y-102224380D01*
X37372523Y-102272000D01*
X37324904Y-102319619D01*
X37277285Y-102414857D01*
X37277285Y-102652952D01*
X37324904Y-102748190D01*
X37372523Y-102795809D01*
X37467761Y-102843428D01*
X37658238Y-102843428D01*
X37753476Y-102795809D01*
X37801095Y-102748190D01*
X37848714Y-102652952D01*
%TO.C,K2*%
X69692384Y-154338095D02*
X68692384Y-154338095D01*
X69692384Y-153766666D02*
X69120956Y-154195238D01*
X68692384Y-153766666D02*
X69263813Y-154338095D01*
X68787623Y-153385714D02*
X68740004Y-153338095D01*
X68692384Y-153242857D01*
X68692384Y-153004761D01*
X68740004Y-152909523D01*
X68787623Y-152861904D01*
X68882861Y-152814285D01*
X68978099Y-152814285D01*
X69120956Y-152861904D01*
X69692384Y-153433333D01*
X69692384Y-152814285D01*
X68740004Y-159242857D02*
X68692384Y-159338095D01*
X68692384Y-159480952D01*
X68740004Y-159623809D01*
X68835242Y-159719047D01*
X68930480Y-159766666D01*
X69120956Y-159814285D01*
X69263813Y-159814285D01*
X69454289Y-159766666D01*
X69549527Y-159719047D01*
X69644765Y-159623809D01*
X69692384Y-159480952D01*
X69692384Y-159385714D01*
X69644765Y-159242857D01*
X69597146Y-159195238D01*
X69263813Y-159195238D01*
X69263813Y-159385714D01*
X68692384Y-158290476D02*
X68692384Y-158766666D01*
X69168575Y-158814285D01*
X69120956Y-158766666D01*
X69073337Y-158671428D01*
X69073337Y-158433333D01*
X69120956Y-158338095D01*
X69168575Y-158290476D01*
X69263813Y-158242857D01*
X69501908Y-158242857D01*
X69597146Y-158290476D01*
X69644765Y-158338095D01*
X69692384Y-158433333D01*
X69692384Y-158671428D01*
X69644765Y-158766666D01*
X69597146Y-158814285D01*
X69692384Y-157242857D02*
X69216194Y-157576190D01*
X69692384Y-157814285D02*
X68692384Y-157814285D01*
X68692384Y-157433333D01*
X68740004Y-157338095D01*
X68787623Y-157290476D01*
X68882861Y-157242857D01*
X69025718Y-157242857D01*
X69120956Y-157290476D01*
X69168575Y-157338095D01*
X69216194Y-157433333D01*
X69216194Y-157814285D01*
X69692384Y-156338095D02*
X69692384Y-156814285D01*
X68692384Y-156814285D01*
X69311432Y-156004761D02*
X69311432Y-155242857D01*
X69692384Y-154766666D02*
X68692384Y-154766666D01*
X69692384Y-154195238D02*
X69120956Y-154623809D01*
X68692384Y-154195238D02*
X69263813Y-154766666D01*
X69692384Y-153242857D02*
X69692384Y-153814285D01*
X69692384Y-153528571D02*
X68692384Y-153528571D01*
X68835242Y-153623809D01*
X68930480Y-153719047D01*
X68978099Y-153814285D01*
X69311432Y-152814285D02*
X69311432Y-152052380D01*
X69168575Y-151576190D02*
X69168575Y-151242857D01*
X69692384Y-151100000D02*
X69692384Y-151576190D01*
X68692384Y-151576190D01*
X68692384Y-151100000D01*
X69787623Y-150909523D02*
X69787623Y-150147619D01*
X69692384Y-149909523D02*
X68692384Y-149909523D01*
X68692384Y-149671428D01*
X68740004Y-149528571D01*
X68835242Y-149433333D01*
X68930480Y-149385714D01*
X69120956Y-149338095D01*
X69263813Y-149338095D01*
X69454289Y-149385714D01*
X69549527Y-149433333D01*
X69644765Y-149528571D01*
X69692384Y-149671428D01*
X69692384Y-149909523D01*
X69597146Y-148338095D02*
X69644765Y-148385714D01*
X69692384Y-148528571D01*
X69692384Y-148623809D01*
X69644765Y-148766666D01*
X69549527Y-148861904D01*
X69454289Y-148909523D01*
X69263813Y-148957142D01*
X69120956Y-148957142D01*
X68930480Y-148909523D01*
X68835242Y-148861904D01*
X68740004Y-148766666D01*
X68692384Y-148623809D01*
X68692384Y-148528571D01*
X68740004Y-148385714D01*
X68787623Y-148338095D01*
X68692384Y-147433333D02*
X68692384Y-147909523D01*
X69168575Y-147957142D01*
X69120956Y-147909523D01*
X69073337Y-147814285D01*
X69073337Y-147576190D01*
X69120956Y-147480952D01*
X69168575Y-147433333D01*
X69263813Y-147385714D01*
X69501908Y-147385714D01*
X69597146Y-147433333D01*
X69644765Y-147480952D01*
X69692384Y-147576190D01*
X69692384Y-147814285D01*
X69644765Y-147909523D01*
X69597146Y-147957142D01*
X48659053Y-157350000D02*
X48897149Y-157350000D01*
X48801911Y-157588095D02*
X48897149Y-157350000D01*
X48801911Y-157111904D01*
X49087625Y-157492857D02*
X48897149Y-157350000D01*
X49087625Y-157207142D01*
X48659053Y-157350000D02*
X48897149Y-157350000D01*
X48801911Y-157588095D02*
X48897149Y-157350000D01*
X48801911Y-157111904D01*
X49087625Y-157492857D02*
X48897149Y-157350000D01*
X49087625Y-157207142D01*
%TO.C,K3*%
X99692384Y-154338095D02*
X98692384Y-154338095D01*
X99692384Y-153766666D02*
X99120956Y-154195238D01*
X98692384Y-153766666D02*
X99263813Y-154338095D01*
X98692384Y-153433333D02*
X98692384Y-152814285D01*
X99073337Y-153147619D01*
X99073337Y-153004761D01*
X99120956Y-152909523D01*
X99168575Y-152861904D01*
X99263813Y-152814285D01*
X99501908Y-152814285D01*
X99597146Y-152861904D01*
X99644765Y-152909523D01*
X99692384Y-153004761D01*
X99692384Y-153290476D01*
X99644765Y-153385714D01*
X99597146Y-153433333D01*
X98740004Y-159242857D02*
X98692384Y-159338095D01*
X98692384Y-159480952D01*
X98740004Y-159623809D01*
X98835242Y-159719047D01*
X98930480Y-159766666D01*
X99120956Y-159814285D01*
X99263813Y-159814285D01*
X99454289Y-159766666D01*
X99549527Y-159719047D01*
X99644765Y-159623809D01*
X99692384Y-159480952D01*
X99692384Y-159385714D01*
X99644765Y-159242857D01*
X99597146Y-159195238D01*
X99263813Y-159195238D01*
X99263813Y-159385714D01*
X98692384Y-158290476D02*
X98692384Y-158766666D01*
X99168575Y-158814285D01*
X99120956Y-158766666D01*
X99073337Y-158671428D01*
X99073337Y-158433333D01*
X99120956Y-158338095D01*
X99168575Y-158290476D01*
X99263813Y-158242857D01*
X99501908Y-158242857D01*
X99597146Y-158290476D01*
X99644765Y-158338095D01*
X99692384Y-158433333D01*
X99692384Y-158671428D01*
X99644765Y-158766666D01*
X99597146Y-158814285D01*
X99692384Y-157242857D02*
X99216194Y-157576190D01*
X99692384Y-157814285D02*
X98692384Y-157814285D01*
X98692384Y-157433333D01*
X98740004Y-157338095D01*
X98787623Y-157290476D01*
X98882861Y-157242857D01*
X99025718Y-157242857D01*
X99120956Y-157290476D01*
X99168575Y-157338095D01*
X99216194Y-157433333D01*
X99216194Y-157814285D01*
X99692384Y-156338095D02*
X99692384Y-156814285D01*
X98692384Y-156814285D01*
X99311432Y-156004761D02*
X99311432Y-155242857D01*
X99692384Y-154766666D02*
X98692384Y-154766666D01*
X99692384Y-154195238D02*
X99120956Y-154623809D01*
X98692384Y-154195238D02*
X99263813Y-154766666D01*
X99692384Y-153242857D02*
X99692384Y-153814285D01*
X99692384Y-153528571D02*
X98692384Y-153528571D01*
X98835242Y-153623809D01*
X98930480Y-153719047D01*
X98978099Y-153814285D01*
X99311432Y-152814285D02*
X99311432Y-152052380D01*
X99168575Y-151576190D02*
X99168575Y-151242857D01*
X99692384Y-151100000D02*
X99692384Y-151576190D01*
X98692384Y-151576190D01*
X98692384Y-151100000D01*
X99787623Y-150909523D02*
X99787623Y-150147619D01*
X99692384Y-149909523D02*
X98692384Y-149909523D01*
X98692384Y-149671428D01*
X98740004Y-149528571D01*
X98835242Y-149433333D01*
X98930480Y-149385714D01*
X99120956Y-149338095D01*
X99263813Y-149338095D01*
X99454289Y-149385714D01*
X99549527Y-149433333D01*
X99644765Y-149528571D01*
X99692384Y-149671428D01*
X99692384Y-149909523D01*
X99597146Y-148338095D02*
X99644765Y-148385714D01*
X99692384Y-148528571D01*
X99692384Y-148623809D01*
X99644765Y-148766666D01*
X99549527Y-148861904D01*
X99454289Y-148909523D01*
X99263813Y-148957142D01*
X99120956Y-148957142D01*
X98930480Y-148909523D01*
X98835242Y-148861904D01*
X98740004Y-148766666D01*
X98692384Y-148623809D01*
X98692384Y-148528571D01*
X98740004Y-148385714D01*
X98787623Y-148338095D01*
X98692384Y-147433333D02*
X98692384Y-147909523D01*
X99168575Y-147957142D01*
X99120956Y-147909523D01*
X99073337Y-147814285D01*
X99073337Y-147576190D01*
X99120956Y-147480952D01*
X99168575Y-147433333D01*
X99263813Y-147385714D01*
X99501908Y-147385714D01*
X99597146Y-147433333D01*
X99644765Y-147480952D01*
X99692384Y-147576190D01*
X99692384Y-147814285D01*
X99644765Y-147909523D01*
X99597146Y-147957142D01*
X78659053Y-157350000D02*
X78897149Y-157350000D01*
X78801911Y-157588095D02*
X78897149Y-157350000D01*
X78801911Y-157111904D01*
X79087625Y-157492857D02*
X78897149Y-157350000D01*
X79087625Y-157207142D01*
X78659053Y-157350000D02*
X78897149Y-157350000D01*
X78801911Y-157588095D02*
X78897149Y-157350000D01*
X78801911Y-157111904D01*
X79087625Y-157492857D02*
X78897149Y-157350000D01*
X79087625Y-157207142D01*
%TO.C,K1*%
X39692384Y-154338095D02*
X38692384Y-154338095D01*
X39692384Y-153766666D02*
X39120956Y-154195238D01*
X38692384Y-153766666D02*
X39263813Y-154338095D01*
X39692384Y-152814285D02*
X39692384Y-153385714D01*
X39692384Y-153100000D02*
X38692384Y-153100000D01*
X38835242Y-153195238D01*
X38930480Y-153290476D01*
X38978099Y-153385714D01*
X38740004Y-159242857D02*
X38692384Y-159338095D01*
X38692384Y-159480952D01*
X38740004Y-159623809D01*
X38835242Y-159719047D01*
X38930480Y-159766666D01*
X39120956Y-159814285D01*
X39263813Y-159814285D01*
X39454289Y-159766666D01*
X39549527Y-159719047D01*
X39644765Y-159623809D01*
X39692384Y-159480952D01*
X39692384Y-159385714D01*
X39644765Y-159242857D01*
X39597146Y-159195238D01*
X39263813Y-159195238D01*
X39263813Y-159385714D01*
X38692384Y-158290476D02*
X38692384Y-158766666D01*
X39168575Y-158814285D01*
X39120956Y-158766666D01*
X39073337Y-158671428D01*
X39073337Y-158433333D01*
X39120956Y-158338095D01*
X39168575Y-158290476D01*
X39263813Y-158242857D01*
X39501908Y-158242857D01*
X39597146Y-158290476D01*
X39644765Y-158338095D01*
X39692384Y-158433333D01*
X39692384Y-158671428D01*
X39644765Y-158766666D01*
X39597146Y-158814285D01*
X39692384Y-157242857D02*
X39216194Y-157576190D01*
X39692384Y-157814285D02*
X38692384Y-157814285D01*
X38692384Y-157433333D01*
X38740004Y-157338095D01*
X38787623Y-157290476D01*
X38882861Y-157242857D01*
X39025718Y-157242857D01*
X39120956Y-157290476D01*
X39168575Y-157338095D01*
X39216194Y-157433333D01*
X39216194Y-157814285D01*
X39692384Y-156338095D02*
X39692384Y-156814285D01*
X38692384Y-156814285D01*
X39311432Y-156004761D02*
X39311432Y-155242857D01*
X39692384Y-154766666D02*
X38692384Y-154766666D01*
X39692384Y-154195238D02*
X39120956Y-154623809D01*
X38692384Y-154195238D02*
X39263813Y-154766666D01*
X39692384Y-153242857D02*
X39692384Y-153814285D01*
X39692384Y-153528571D02*
X38692384Y-153528571D01*
X38835242Y-153623809D01*
X38930480Y-153719047D01*
X38978099Y-153814285D01*
X39311432Y-152814285D02*
X39311432Y-152052380D01*
X39168575Y-151576190D02*
X39168575Y-151242857D01*
X39692384Y-151100000D02*
X39692384Y-151576190D01*
X38692384Y-151576190D01*
X38692384Y-151100000D01*
X39787623Y-150909523D02*
X39787623Y-150147619D01*
X39692384Y-149909523D02*
X38692384Y-149909523D01*
X38692384Y-149671428D01*
X38740004Y-149528571D01*
X38835242Y-149433333D01*
X38930480Y-149385714D01*
X39120956Y-149338095D01*
X39263813Y-149338095D01*
X39454289Y-149385714D01*
X39549527Y-149433333D01*
X39644765Y-149528571D01*
X39692384Y-149671428D01*
X39692384Y-149909523D01*
X39597146Y-148338095D02*
X39644765Y-148385714D01*
X39692384Y-148528571D01*
X39692384Y-148623809D01*
X39644765Y-148766666D01*
X39549527Y-148861904D01*
X39454289Y-148909523D01*
X39263813Y-148957142D01*
X39120956Y-148957142D01*
X38930480Y-148909523D01*
X38835242Y-148861904D01*
X38740004Y-148766666D01*
X38692384Y-148623809D01*
X38692384Y-148528571D01*
X38740004Y-148385714D01*
X38787623Y-148338095D01*
X38692384Y-147433333D02*
X38692384Y-147909523D01*
X39168575Y-147957142D01*
X39120956Y-147909523D01*
X39073337Y-147814285D01*
X39073337Y-147576190D01*
X39120956Y-147480952D01*
X39168575Y-147433333D01*
X39263813Y-147385714D01*
X39501908Y-147385714D01*
X39597146Y-147433333D01*
X39644765Y-147480952D01*
X39692384Y-147576190D01*
X39692384Y-147814285D01*
X39644765Y-147909523D01*
X39597146Y-147957142D01*
X18659053Y-157350000D02*
X18897149Y-157350000D01*
X18801911Y-157588095D02*
X18897149Y-157350000D01*
X18801911Y-157111904D01*
X19087625Y-157492857D02*
X18897149Y-157350000D01*
X19087625Y-157207142D01*
X18659053Y-157350000D02*
X18897149Y-157350000D01*
X18801911Y-157588095D02*
X18897149Y-157350000D01*
X18801911Y-157111904D01*
X19087625Y-157492857D02*
X18897149Y-157350000D01*
X19087625Y-157207142D01*
%TO.C,U1*%
X26738095Y-104202380D02*
X26738095Y-105011904D01*
X26785714Y-105107142D01*
X26833333Y-105154761D01*
X26928571Y-105202380D01*
X27119047Y-105202380D01*
X27214285Y-105154761D01*
X27261904Y-105107142D01*
X27309523Y-105011904D01*
X27309523Y-104202380D01*
X28309523Y-105202380D02*
X27738095Y-105202380D01*
X28023809Y-105202380D02*
X28023809Y-104202380D01*
X27928571Y-104345238D01*
X27833333Y-104440476D01*
X27738095Y-104488095D01*
%TO.C,D12*%
X104625714Y-161802380D02*
X104625714Y-160802380D01*
X104863809Y-160802380D01*
X105006666Y-160850000D01*
X105101904Y-160945238D01*
X105149523Y-161040476D01*
X105197142Y-161230952D01*
X105197142Y-161373809D01*
X105149523Y-161564285D01*
X105101904Y-161659523D01*
X105006666Y-161754761D01*
X104863809Y-161802380D01*
X104625714Y-161802380D01*
X106149523Y-161802380D02*
X105578095Y-161802380D01*
X105863809Y-161802380D02*
X105863809Y-160802380D01*
X105768571Y-160945238D01*
X105673333Y-161040476D01*
X105578095Y-161088095D01*
X106530476Y-160897619D02*
X106578095Y-160850000D01*
X106673333Y-160802380D01*
X106911428Y-160802380D01*
X107006666Y-160850000D01*
X107054285Y-160897619D01*
X107101904Y-160992857D01*
X107101904Y-161088095D01*
X107054285Y-161230952D01*
X106482857Y-161802380D01*
X107101904Y-161802380D01*
%TO.C,D11*%
X74725714Y-161702380D02*
X74725714Y-160702380D01*
X74963809Y-160702380D01*
X75106666Y-160750000D01*
X75201904Y-160845238D01*
X75249523Y-160940476D01*
X75297142Y-161130952D01*
X75297142Y-161273809D01*
X75249523Y-161464285D01*
X75201904Y-161559523D01*
X75106666Y-161654761D01*
X74963809Y-161702380D01*
X74725714Y-161702380D01*
X76249523Y-161702380D02*
X75678095Y-161702380D01*
X75963809Y-161702380D02*
X75963809Y-160702380D01*
X75868571Y-160845238D01*
X75773333Y-160940476D01*
X75678095Y-160988095D01*
X77201904Y-161702380D02*
X76630476Y-161702380D01*
X76916190Y-161702380D02*
X76916190Y-160702380D01*
X76820952Y-160845238D01*
X76725714Y-160940476D01*
X76630476Y-160988095D01*
%TO.C,D10*%
X44625714Y-161702380D02*
X44625714Y-160702380D01*
X44863809Y-160702380D01*
X45006666Y-160750000D01*
X45101904Y-160845238D01*
X45149523Y-160940476D01*
X45197142Y-161130952D01*
X45197142Y-161273809D01*
X45149523Y-161464285D01*
X45101904Y-161559523D01*
X45006666Y-161654761D01*
X44863809Y-161702380D01*
X44625714Y-161702380D01*
X46149523Y-161702380D02*
X45578095Y-161702380D01*
X45863809Y-161702380D02*
X45863809Y-160702380D01*
X45768571Y-160845238D01*
X45673333Y-160940476D01*
X45578095Y-160988095D01*
X46768571Y-160702380D02*
X46863809Y-160702380D01*
X46959047Y-160750000D01*
X47006666Y-160797619D01*
X47054285Y-160892857D01*
X47101904Y-161083333D01*
X47101904Y-161321428D01*
X47054285Y-161511904D01*
X47006666Y-161607142D01*
X46959047Y-161654761D01*
X46863809Y-161702380D01*
X46768571Y-161702380D01*
X46673333Y-161654761D01*
X46625714Y-161607142D01*
X46578095Y-161511904D01*
X46530476Y-161321428D01*
X46530476Y-161083333D01*
X46578095Y-160892857D01*
X46625714Y-160797619D01*
X46673333Y-160750000D01*
X46768571Y-160702380D01*
%TO.C,R24*%
X42537142Y-165492380D02*
X42203809Y-165016190D01*
X41965714Y-165492380D02*
X41965714Y-164492380D01*
X42346666Y-164492380D01*
X42441904Y-164540000D01*
X42489523Y-164587619D01*
X42537142Y-164682857D01*
X42537142Y-164825714D01*
X42489523Y-164920952D01*
X42441904Y-164968571D01*
X42346666Y-165016190D01*
X41965714Y-165016190D01*
X42918095Y-164587619D02*
X42965714Y-164540000D01*
X43060952Y-164492380D01*
X43299047Y-164492380D01*
X43394285Y-164540000D01*
X43441904Y-164587619D01*
X43489523Y-164682857D01*
X43489523Y-164778095D01*
X43441904Y-164920952D01*
X42870476Y-165492380D01*
X43489523Y-165492380D01*
X44346666Y-164825714D02*
X44346666Y-165492380D01*
X44108571Y-164444761D02*
X43870476Y-165159047D01*
X44489523Y-165159047D01*
%TO.C,R26*%
X103397142Y-165652380D02*
X103063809Y-165176190D01*
X102825714Y-165652380D02*
X102825714Y-164652380D01*
X103206666Y-164652380D01*
X103301904Y-164700000D01*
X103349523Y-164747619D01*
X103397142Y-164842857D01*
X103397142Y-164985714D01*
X103349523Y-165080952D01*
X103301904Y-165128571D01*
X103206666Y-165176190D01*
X102825714Y-165176190D01*
X103778095Y-164747619D02*
X103825714Y-164700000D01*
X103920952Y-164652380D01*
X104159047Y-164652380D01*
X104254285Y-164700000D01*
X104301904Y-164747619D01*
X104349523Y-164842857D01*
X104349523Y-164938095D01*
X104301904Y-165080952D01*
X103730476Y-165652380D01*
X104349523Y-165652380D01*
X105206666Y-164652380D02*
X105016190Y-164652380D01*
X104920952Y-164700000D01*
X104873333Y-164747619D01*
X104778095Y-164890476D01*
X104730476Y-165080952D01*
X104730476Y-165461904D01*
X104778095Y-165557142D01*
X104825714Y-165604761D01*
X104920952Y-165652380D01*
X105111428Y-165652380D01*
X105206666Y-165604761D01*
X105254285Y-165557142D01*
X105301904Y-165461904D01*
X105301904Y-165223809D01*
X105254285Y-165128571D01*
X105206666Y-165080952D01*
X105111428Y-165033333D01*
X104920952Y-165033333D01*
X104825714Y-165080952D01*
X104778095Y-165128571D01*
X104730476Y-165223809D01*
%TO.C,R25*%
X72247142Y-165332380D02*
X71913809Y-164856190D01*
X71675714Y-165332380D02*
X71675714Y-164332380D01*
X72056666Y-164332380D01*
X72151904Y-164380000D01*
X72199523Y-164427619D01*
X72247142Y-164522857D01*
X72247142Y-164665714D01*
X72199523Y-164760952D01*
X72151904Y-164808571D01*
X72056666Y-164856190D01*
X71675714Y-164856190D01*
X72628095Y-164427619D02*
X72675714Y-164380000D01*
X72770952Y-164332380D01*
X73009047Y-164332380D01*
X73104285Y-164380000D01*
X73151904Y-164427619D01*
X73199523Y-164522857D01*
X73199523Y-164618095D01*
X73151904Y-164760952D01*
X72580476Y-165332380D01*
X73199523Y-165332380D01*
X74104285Y-164332380D02*
X73628095Y-164332380D01*
X73580476Y-164808571D01*
X73628095Y-164760952D01*
X73723333Y-164713333D01*
X73961428Y-164713333D01*
X74056666Y-164760952D01*
X74104285Y-164808571D01*
X74151904Y-164903809D01*
X74151904Y-165141904D01*
X74104285Y-165237142D01*
X74056666Y-165284761D01*
X73961428Y-165332380D01*
X73723333Y-165332380D01*
X73628095Y-165284761D01*
X73580476Y-165237142D01*
%TO.C,R21*%
X35887142Y-165462380D02*
X35553809Y-164986190D01*
X35315714Y-165462380D02*
X35315714Y-164462380D01*
X35696666Y-164462380D01*
X35791904Y-164510000D01*
X35839523Y-164557619D01*
X35887142Y-164652857D01*
X35887142Y-164795714D01*
X35839523Y-164890952D01*
X35791904Y-164938571D01*
X35696666Y-164986190D01*
X35315714Y-164986190D01*
X36268095Y-164557619D02*
X36315714Y-164510000D01*
X36410952Y-164462380D01*
X36649047Y-164462380D01*
X36744285Y-164510000D01*
X36791904Y-164557619D01*
X36839523Y-164652857D01*
X36839523Y-164748095D01*
X36791904Y-164890952D01*
X36220476Y-165462380D01*
X36839523Y-165462380D01*
X37791904Y-165462380D02*
X37220476Y-165462380D01*
X37506190Y-165462380D02*
X37506190Y-164462380D01*
X37410952Y-164605238D01*
X37315714Y-164700476D01*
X37220476Y-164748095D01*
%TO.C,R23*%
X95717142Y-165002380D02*
X95383809Y-164526190D01*
X95145714Y-165002380D02*
X95145714Y-164002380D01*
X95526666Y-164002380D01*
X95621904Y-164050000D01*
X95669523Y-164097619D01*
X95717142Y-164192857D01*
X95717142Y-164335714D01*
X95669523Y-164430952D01*
X95621904Y-164478571D01*
X95526666Y-164526190D01*
X95145714Y-164526190D01*
X96098095Y-164097619D02*
X96145714Y-164050000D01*
X96240952Y-164002380D01*
X96479047Y-164002380D01*
X96574285Y-164050000D01*
X96621904Y-164097619D01*
X96669523Y-164192857D01*
X96669523Y-164288095D01*
X96621904Y-164430952D01*
X96050476Y-165002380D01*
X96669523Y-165002380D01*
X97002857Y-164002380D02*
X97621904Y-164002380D01*
X97288571Y-164383333D01*
X97431428Y-164383333D01*
X97526666Y-164430952D01*
X97574285Y-164478571D01*
X97621904Y-164573809D01*
X97621904Y-164811904D01*
X97574285Y-164907142D01*
X97526666Y-164954761D01*
X97431428Y-165002380D01*
X97145714Y-165002380D01*
X97050476Y-164954761D01*
X97002857Y-164907142D01*
%TO.C,R22*%
X65727142Y-165042380D02*
X65393809Y-164566190D01*
X65155714Y-165042380D02*
X65155714Y-164042380D01*
X65536666Y-164042380D01*
X65631904Y-164090000D01*
X65679523Y-164137619D01*
X65727142Y-164232857D01*
X65727142Y-164375714D01*
X65679523Y-164470952D01*
X65631904Y-164518571D01*
X65536666Y-164566190D01*
X65155714Y-164566190D01*
X66108095Y-164137619D02*
X66155714Y-164090000D01*
X66250952Y-164042380D01*
X66489047Y-164042380D01*
X66584285Y-164090000D01*
X66631904Y-164137619D01*
X66679523Y-164232857D01*
X66679523Y-164328095D01*
X66631904Y-164470952D01*
X66060476Y-165042380D01*
X66679523Y-165042380D01*
X67060476Y-164137619D02*
X67108095Y-164090000D01*
X67203333Y-164042380D01*
X67441428Y-164042380D01*
X67536666Y-164090000D01*
X67584285Y-164137619D01*
X67631904Y-164232857D01*
X67631904Y-164328095D01*
X67584285Y-164470952D01*
X67012857Y-165042380D01*
X67631904Y-165042380D01*
%TO.C,R16*%
X31987142Y-165722380D02*
X31653809Y-165246190D01*
X31415714Y-165722380D02*
X31415714Y-164722380D01*
X31796666Y-164722380D01*
X31891904Y-164770000D01*
X31939523Y-164817619D01*
X31987142Y-164912857D01*
X31987142Y-165055714D01*
X31939523Y-165150952D01*
X31891904Y-165198571D01*
X31796666Y-165246190D01*
X31415714Y-165246190D01*
X32939523Y-165722380D02*
X32368095Y-165722380D01*
X32653809Y-165722380D02*
X32653809Y-164722380D01*
X32558571Y-164865238D01*
X32463333Y-164960476D01*
X32368095Y-165008095D01*
X33796666Y-164722380D02*
X33606190Y-164722380D01*
X33510952Y-164770000D01*
X33463333Y-164817619D01*
X33368095Y-164960476D01*
X33320476Y-165150952D01*
X33320476Y-165531904D01*
X33368095Y-165627142D01*
X33415714Y-165674761D01*
X33510952Y-165722380D01*
X33701428Y-165722380D01*
X33796666Y-165674761D01*
X33844285Y-165627142D01*
X33891904Y-165531904D01*
X33891904Y-165293809D01*
X33844285Y-165198571D01*
X33796666Y-165150952D01*
X33701428Y-165103333D01*
X33510952Y-165103333D01*
X33415714Y-165150952D01*
X33368095Y-165198571D01*
X33320476Y-165293809D01*
%TO.C,R18*%
X92017142Y-165752380D02*
X91683809Y-165276190D01*
X91445714Y-165752380D02*
X91445714Y-164752380D01*
X91826666Y-164752380D01*
X91921904Y-164800000D01*
X91969523Y-164847619D01*
X92017142Y-164942857D01*
X92017142Y-165085714D01*
X91969523Y-165180952D01*
X91921904Y-165228571D01*
X91826666Y-165276190D01*
X91445714Y-165276190D01*
X92969523Y-165752380D02*
X92398095Y-165752380D01*
X92683809Y-165752380D02*
X92683809Y-164752380D01*
X92588571Y-164895238D01*
X92493333Y-164990476D01*
X92398095Y-165038095D01*
X93540952Y-165180952D02*
X93445714Y-165133333D01*
X93398095Y-165085714D01*
X93350476Y-164990476D01*
X93350476Y-164942857D01*
X93398095Y-164847619D01*
X93445714Y-164800000D01*
X93540952Y-164752380D01*
X93731428Y-164752380D01*
X93826666Y-164800000D01*
X93874285Y-164847619D01*
X93921904Y-164942857D01*
X93921904Y-164990476D01*
X93874285Y-165085714D01*
X93826666Y-165133333D01*
X93731428Y-165180952D01*
X93540952Y-165180952D01*
X93445714Y-165228571D01*
X93398095Y-165276190D01*
X93350476Y-165371428D01*
X93350476Y-165561904D01*
X93398095Y-165657142D01*
X93445714Y-165704761D01*
X93540952Y-165752380D01*
X93731428Y-165752380D01*
X93826666Y-165704761D01*
X93874285Y-165657142D01*
X93921904Y-165561904D01*
X93921904Y-165371428D01*
X93874285Y-165276190D01*
X93826666Y-165228571D01*
X93731428Y-165180952D01*
%TO.C,R17*%
X61967142Y-165652380D02*
X61633809Y-165176190D01*
X61395714Y-165652380D02*
X61395714Y-164652380D01*
X61776666Y-164652380D01*
X61871904Y-164700000D01*
X61919523Y-164747619D01*
X61967142Y-164842857D01*
X61967142Y-164985714D01*
X61919523Y-165080952D01*
X61871904Y-165128571D01*
X61776666Y-165176190D01*
X61395714Y-165176190D01*
X62919523Y-165652380D02*
X62348095Y-165652380D01*
X62633809Y-165652380D02*
X62633809Y-164652380D01*
X62538571Y-164795238D01*
X62443333Y-164890476D01*
X62348095Y-164938095D01*
X63252857Y-164652380D02*
X63919523Y-164652380D01*
X63490952Y-165652380D01*
%TO.C,R13*%
X24667142Y-164862380D02*
X24333809Y-164386190D01*
X24095714Y-164862380D02*
X24095714Y-163862380D01*
X24476666Y-163862380D01*
X24571904Y-163910000D01*
X24619523Y-163957619D01*
X24667142Y-164052857D01*
X24667142Y-164195714D01*
X24619523Y-164290952D01*
X24571904Y-164338571D01*
X24476666Y-164386190D01*
X24095714Y-164386190D01*
X25619523Y-164862380D02*
X25048095Y-164862380D01*
X25333809Y-164862380D02*
X25333809Y-163862380D01*
X25238571Y-164005238D01*
X25143333Y-164100476D01*
X25048095Y-164148095D01*
X25952857Y-163862380D02*
X26571904Y-163862380D01*
X26238571Y-164243333D01*
X26381428Y-164243333D01*
X26476666Y-164290952D01*
X26524285Y-164338571D01*
X26571904Y-164433809D01*
X26571904Y-164671904D01*
X26524285Y-164767142D01*
X26476666Y-164814761D01*
X26381428Y-164862380D01*
X26095714Y-164862380D01*
X26000476Y-164814761D01*
X25952857Y-164767142D01*
%TO.C,R15*%
X84967142Y-164922380D02*
X84633809Y-164446190D01*
X84395714Y-164922380D02*
X84395714Y-163922380D01*
X84776666Y-163922380D01*
X84871904Y-163970000D01*
X84919523Y-164017619D01*
X84967142Y-164112857D01*
X84967142Y-164255714D01*
X84919523Y-164350952D01*
X84871904Y-164398571D01*
X84776666Y-164446190D01*
X84395714Y-164446190D01*
X85919523Y-164922380D02*
X85348095Y-164922380D01*
X85633809Y-164922380D02*
X85633809Y-163922380D01*
X85538571Y-164065238D01*
X85443333Y-164160476D01*
X85348095Y-164208095D01*
X86824285Y-163922380D02*
X86348095Y-163922380D01*
X86300476Y-164398571D01*
X86348095Y-164350952D01*
X86443333Y-164303333D01*
X86681428Y-164303333D01*
X86776666Y-164350952D01*
X86824285Y-164398571D01*
X86871904Y-164493809D01*
X86871904Y-164731904D01*
X86824285Y-164827142D01*
X86776666Y-164874761D01*
X86681428Y-164922380D01*
X86443333Y-164922380D01*
X86348095Y-164874761D01*
X86300476Y-164827142D01*
%TO.C,R14*%
X54967142Y-164822380D02*
X54633809Y-164346190D01*
X54395714Y-164822380D02*
X54395714Y-163822380D01*
X54776666Y-163822380D01*
X54871904Y-163870000D01*
X54919523Y-163917619D01*
X54967142Y-164012857D01*
X54967142Y-164155714D01*
X54919523Y-164250952D01*
X54871904Y-164298571D01*
X54776666Y-164346190D01*
X54395714Y-164346190D01*
X55919523Y-164822380D02*
X55348095Y-164822380D01*
X55633809Y-164822380D02*
X55633809Y-163822380D01*
X55538571Y-163965238D01*
X55443333Y-164060476D01*
X55348095Y-164108095D01*
X56776666Y-164155714D02*
X56776666Y-164822380D01*
X56538571Y-163774761D02*
X56300476Y-164489047D01*
X56919523Y-164489047D01*
%TO.C,Q10*%
X38898571Y-165427619D02*
X38803333Y-165380000D01*
X38708095Y-165284761D01*
X38565238Y-165141904D01*
X38470000Y-165094285D01*
X38374761Y-165094285D01*
X38422380Y-165332380D02*
X38327142Y-165284761D01*
X38231904Y-165189523D01*
X38184285Y-164999047D01*
X38184285Y-164665714D01*
X38231904Y-164475238D01*
X38327142Y-164380000D01*
X38422380Y-164332380D01*
X38612857Y-164332380D01*
X38708095Y-164380000D01*
X38803333Y-164475238D01*
X38850952Y-164665714D01*
X38850952Y-164999047D01*
X38803333Y-165189523D01*
X38708095Y-165284761D01*
X38612857Y-165332380D01*
X38422380Y-165332380D01*
X39803333Y-165332380D02*
X39231904Y-165332380D01*
X39517619Y-165332380D02*
X39517619Y-164332380D01*
X39422380Y-164475238D01*
X39327142Y-164570476D01*
X39231904Y-164618095D01*
X40422380Y-164332380D02*
X40517619Y-164332380D01*
X40612857Y-164380000D01*
X40660476Y-164427619D01*
X40708095Y-164522857D01*
X40755714Y-164713333D01*
X40755714Y-164951428D01*
X40708095Y-165141904D01*
X40660476Y-165237142D01*
X40612857Y-165284761D01*
X40517619Y-165332380D01*
X40422380Y-165332380D01*
X40327142Y-165284761D01*
X40279523Y-165237142D01*
X40231904Y-165141904D01*
X40184285Y-164951428D01*
X40184285Y-164713333D01*
X40231904Y-164522857D01*
X40279523Y-164427619D01*
X40327142Y-164380000D01*
X40422380Y-164332380D01*
%TO.C,Q12*%
X99138571Y-165687619D02*
X99043333Y-165640000D01*
X98948095Y-165544761D01*
X98805238Y-165401904D01*
X98710000Y-165354285D01*
X98614761Y-165354285D01*
X98662380Y-165592380D02*
X98567142Y-165544761D01*
X98471904Y-165449523D01*
X98424285Y-165259047D01*
X98424285Y-164925714D01*
X98471904Y-164735238D01*
X98567142Y-164640000D01*
X98662380Y-164592380D01*
X98852857Y-164592380D01*
X98948095Y-164640000D01*
X99043333Y-164735238D01*
X99090952Y-164925714D01*
X99090952Y-165259047D01*
X99043333Y-165449523D01*
X98948095Y-165544761D01*
X98852857Y-165592380D01*
X98662380Y-165592380D01*
X100043333Y-165592380D02*
X99471904Y-165592380D01*
X99757619Y-165592380D02*
X99757619Y-164592380D01*
X99662380Y-164735238D01*
X99567142Y-164830476D01*
X99471904Y-164878095D01*
X100424285Y-164687619D02*
X100471904Y-164640000D01*
X100567142Y-164592380D01*
X100805238Y-164592380D01*
X100900476Y-164640000D01*
X100948095Y-164687619D01*
X100995714Y-164782857D01*
X100995714Y-164878095D01*
X100948095Y-165020952D01*
X100376666Y-165592380D01*
X100995714Y-165592380D01*
%TO.C,Q11*%
X68898571Y-165467619D02*
X68803333Y-165420000D01*
X68708095Y-165324761D01*
X68565238Y-165181904D01*
X68470000Y-165134285D01*
X68374761Y-165134285D01*
X68422380Y-165372380D02*
X68327142Y-165324761D01*
X68231904Y-165229523D01*
X68184285Y-165039047D01*
X68184285Y-164705714D01*
X68231904Y-164515238D01*
X68327142Y-164420000D01*
X68422380Y-164372380D01*
X68612857Y-164372380D01*
X68708095Y-164420000D01*
X68803333Y-164515238D01*
X68850952Y-164705714D01*
X68850952Y-165039047D01*
X68803333Y-165229523D01*
X68708095Y-165324761D01*
X68612857Y-165372380D01*
X68422380Y-165372380D01*
X69803333Y-165372380D02*
X69231904Y-165372380D01*
X69517619Y-165372380D02*
X69517619Y-164372380D01*
X69422380Y-164515238D01*
X69327142Y-164610476D01*
X69231904Y-164658095D01*
X70755714Y-165372380D02*
X70184285Y-165372380D01*
X70470000Y-165372380D02*
X70470000Y-164372380D01*
X70374761Y-164515238D01*
X70279523Y-164610476D01*
X70184285Y-164658095D01*
%TO.C,Q7*%
X28544761Y-165377619D02*
X28449523Y-165330000D01*
X28354285Y-165234761D01*
X28211428Y-165091904D01*
X28116190Y-165044285D01*
X28020952Y-165044285D01*
X28068571Y-165282380D02*
X27973333Y-165234761D01*
X27878095Y-165139523D01*
X27830476Y-164949047D01*
X27830476Y-164615714D01*
X27878095Y-164425238D01*
X27973333Y-164330000D01*
X28068571Y-164282380D01*
X28259047Y-164282380D01*
X28354285Y-164330000D01*
X28449523Y-164425238D01*
X28497142Y-164615714D01*
X28497142Y-164949047D01*
X28449523Y-165139523D01*
X28354285Y-165234761D01*
X28259047Y-165282380D01*
X28068571Y-165282380D01*
X28830476Y-164282380D02*
X29497142Y-164282380D01*
X29068571Y-165282380D01*
%TO.C,Q9*%
X89134761Y-165427619D02*
X89039523Y-165380000D01*
X88944285Y-165284761D01*
X88801428Y-165141904D01*
X88706190Y-165094285D01*
X88610952Y-165094285D01*
X88658571Y-165332380D02*
X88563333Y-165284761D01*
X88468095Y-165189523D01*
X88420476Y-164999047D01*
X88420476Y-164665714D01*
X88468095Y-164475238D01*
X88563333Y-164380000D01*
X88658571Y-164332380D01*
X88849047Y-164332380D01*
X88944285Y-164380000D01*
X89039523Y-164475238D01*
X89087142Y-164665714D01*
X89087142Y-164999047D01*
X89039523Y-165189523D01*
X88944285Y-165284761D01*
X88849047Y-165332380D01*
X88658571Y-165332380D01*
X89563333Y-165332380D02*
X89753809Y-165332380D01*
X89849047Y-165284761D01*
X89896666Y-165237142D01*
X89991904Y-165094285D01*
X90039523Y-164903809D01*
X90039523Y-164522857D01*
X89991904Y-164427619D01*
X89944285Y-164380000D01*
X89849047Y-164332380D01*
X89658571Y-164332380D01*
X89563333Y-164380000D01*
X89515714Y-164427619D01*
X89468095Y-164522857D01*
X89468095Y-164760952D01*
X89515714Y-164856190D01*
X89563333Y-164903809D01*
X89658571Y-164951428D01*
X89849047Y-164951428D01*
X89944285Y-164903809D01*
X89991904Y-164856190D01*
X90039523Y-164760952D01*
%TO.C,Q8*%
X58874761Y-165477619D02*
X58779523Y-165430000D01*
X58684285Y-165334761D01*
X58541428Y-165191904D01*
X58446190Y-165144285D01*
X58350952Y-165144285D01*
X58398571Y-165382380D02*
X58303333Y-165334761D01*
X58208095Y-165239523D01*
X58160476Y-165049047D01*
X58160476Y-164715714D01*
X58208095Y-164525238D01*
X58303333Y-164430000D01*
X58398571Y-164382380D01*
X58589047Y-164382380D01*
X58684285Y-164430000D01*
X58779523Y-164525238D01*
X58827142Y-164715714D01*
X58827142Y-165049047D01*
X58779523Y-165239523D01*
X58684285Y-165334761D01*
X58589047Y-165382380D01*
X58398571Y-165382380D01*
X59398571Y-164810952D02*
X59303333Y-164763333D01*
X59255714Y-164715714D01*
X59208095Y-164620476D01*
X59208095Y-164572857D01*
X59255714Y-164477619D01*
X59303333Y-164430000D01*
X59398571Y-164382380D01*
X59589047Y-164382380D01*
X59684285Y-164430000D01*
X59731904Y-164477619D01*
X59779523Y-164572857D01*
X59779523Y-164620476D01*
X59731904Y-164715714D01*
X59684285Y-164763333D01*
X59589047Y-164810952D01*
X59398571Y-164810952D01*
X59303333Y-164858571D01*
X59255714Y-164906190D01*
X59208095Y-165001428D01*
X59208095Y-165191904D01*
X59255714Y-165287142D01*
X59303333Y-165334761D01*
X59398571Y-165382380D01*
X59589047Y-165382380D01*
X59684285Y-165334761D01*
X59731904Y-165287142D01*
X59779523Y-165191904D01*
X59779523Y-165001428D01*
X59731904Y-164906190D01*
X59684285Y-164858571D01*
X59589047Y-164810952D01*
%TO.C,D7*%
X34031904Y-162052380D02*
X34031904Y-161052380D01*
X34270000Y-161052380D01*
X34412857Y-161100000D01*
X34508095Y-161195238D01*
X34555714Y-161290476D01*
X34603333Y-161480952D01*
X34603333Y-161623809D01*
X34555714Y-161814285D01*
X34508095Y-161909523D01*
X34412857Y-162004761D01*
X34270000Y-162052380D01*
X34031904Y-162052380D01*
X34936666Y-161052380D02*
X35603333Y-161052380D01*
X35174761Y-162052380D01*
%TO.C,D9*%
X94001904Y-161902380D02*
X94001904Y-160902380D01*
X94240000Y-160902380D01*
X94382857Y-160950000D01*
X94478095Y-161045238D01*
X94525714Y-161140476D01*
X94573333Y-161330952D01*
X94573333Y-161473809D01*
X94525714Y-161664285D01*
X94478095Y-161759523D01*
X94382857Y-161854761D01*
X94240000Y-161902380D01*
X94001904Y-161902380D01*
X95049523Y-161902380D02*
X95240000Y-161902380D01*
X95335238Y-161854761D01*
X95382857Y-161807142D01*
X95478095Y-161664285D01*
X95525714Y-161473809D01*
X95525714Y-161092857D01*
X95478095Y-160997619D01*
X95430476Y-160950000D01*
X95335238Y-160902380D01*
X95144761Y-160902380D01*
X95049523Y-160950000D01*
X95001904Y-160997619D01*
X94954285Y-161092857D01*
X94954285Y-161330952D01*
X95001904Y-161426190D01*
X95049523Y-161473809D01*
X95144761Y-161521428D01*
X95335238Y-161521428D01*
X95430476Y-161473809D01*
X95478095Y-161426190D01*
X95525714Y-161330952D01*
%TO.C,D8*%
X64081904Y-161712380D02*
X64081904Y-160712380D01*
X64320000Y-160712380D01*
X64462857Y-160760000D01*
X64558095Y-160855238D01*
X64605714Y-160950476D01*
X64653333Y-161140952D01*
X64653333Y-161283809D01*
X64605714Y-161474285D01*
X64558095Y-161569523D01*
X64462857Y-161664761D01*
X64320000Y-161712380D01*
X64081904Y-161712380D01*
X65224761Y-161140952D02*
X65129523Y-161093333D01*
X65081904Y-161045714D01*
X65034285Y-160950476D01*
X65034285Y-160902857D01*
X65081904Y-160807619D01*
X65129523Y-160760000D01*
X65224761Y-160712380D01*
X65415238Y-160712380D01*
X65510476Y-160760000D01*
X65558095Y-160807619D01*
X65605714Y-160902857D01*
X65605714Y-160950476D01*
X65558095Y-161045714D01*
X65510476Y-161093333D01*
X65415238Y-161140952D01*
X65224761Y-161140952D01*
X65129523Y-161188571D01*
X65081904Y-161236190D01*
X65034285Y-161331428D01*
X65034285Y-161521904D01*
X65081904Y-161617142D01*
X65129523Y-161664761D01*
X65224761Y-161712380D01*
X65415238Y-161712380D01*
X65510476Y-161664761D01*
X65558095Y-161617142D01*
X65605714Y-161521904D01*
X65605714Y-161331428D01*
X65558095Y-161236190D01*
X65510476Y-161188571D01*
X65415238Y-161140952D01*
%TO.C,J10*%
X86690476Y-96452380D02*
X86690476Y-97166666D01*
X86642857Y-97309523D01*
X86547619Y-97404761D01*
X86404761Y-97452380D01*
X86309523Y-97452380D01*
X87690476Y-97452380D02*
X87119047Y-97452380D01*
X87404761Y-97452380D02*
X87404761Y-96452380D01*
X87309523Y-96595238D01*
X87214285Y-96690476D01*
X87119047Y-96738095D01*
X88309523Y-96452380D02*
X88404761Y-96452380D01*
X88500000Y-96500000D01*
X88547619Y-96547619D01*
X88595238Y-96642857D01*
X88642857Y-96833333D01*
X88642857Y-97071428D01*
X88595238Y-97261904D01*
X88547619Y-97357142D01*
X88500000Y-97404761D01*
X88404761Y-97452380D01*
X88309523Y-97452380D01*
X88214285Y-97404761D01*
X88166666Y-97357142D01*
X88119047Y-97261904D01*
X88071428Y-97071428D01*
X88071428Y-96833333D01*
X88119047Y-96642857D01*
X88166666Y-96547619D01*
X88214285Y-96500000D01*
X88309523Y-96452380D01*
%TO.C,J8*%
X116376666Y-109952380D02*
X116376666Y-110666666D01*
X116329047Y-110809523D01*
X116233809Y-110904761D01*
X116090952Y-110952380D01*
X115995714Y-110952380D01*
X116995714Y-110380952D02*
X116900476Y-110333333D01*
X116852857Y-110285714D01*
X116805238Y-110190476D01*
X116805238Y-110142857D01*
X116852857Y-110047619D01*
X116900476Y-110000000D01*
X116995714Y-109952380D01*
X117186190Y-109952380D01*
X117281428Y-110000000D01*
X117329047Y-110047619D01*
X117376666Y-110142857D01*
X117376666Y-110190476D01*
X117329047Y-110285714D01*
X117281428Y-110333333D01*
X117186190Y-110380952D01*
X116995714Y-110380952D01*
X116900476Y-110428571D01*
X116852857Y-110476190D01*
X116805238Y-110571428D01*
X116805238Y-110761904D01*
X116852857Y-110857142D01*
X116900476Y-110904761D01*
X116995714Y-110952380D01*
X117186190Y-110952380D01*
X117281428Y-110904761D01*
X117329047Y-110857142D01*
X117376666Y-110761904D01*
X117376666Y-110571428D01*
X117329047Y-110476190D01*
X117281428Y-110428571D01*
X117186190Y-110380952D01*
%TO.C,J7*%
X106006666Y-173302380D02*
X106006666Y-174016666D01*
X105959047Y-174159523D01*
X105863809Y-174254761D01*
X105720952Y-174302380D01*
X105625714Y-174302380D01*
X106387619Y-173302380D02*
X107054285Y-173302380D01*
X106625714Y-174302380D01*
%TO.C,J6*%
X76006666Y-173302380D02*
X76006666Y-174016666D01*
X75959047Y-174159523D01*
X75863809Y-174254761D01*
X75720952Y-174302380D01*
X75625714Y-174302380D01*
X76911428Y-173302380D02*
X76720952Y-173302380D01*
X76625714Y-173350000D01*
X76578095Y-173397619D01*
X76482857Y-173540476D01*
X76435238Y-173730952D01*
X76435238Y-174111904D01*
X76482857Y-174207142D01*
X76530476Y-174254761D01*
X76625714Y-174302380D01*
X76816190Y-174302380D01*
X76911428Y-174254761D01*
X76959047Y-174207142D01*
X77006666Y-174111904D01*
X77006666Y-173873809D01*
X76959047Y-173778571D01*
X76911428Y-173730952D01*
X76816190Y-173683333D01*
X76625714Y-173683333D01*
X76530476Y-173730952D01*
X76482857Y-173778571D01*
X76435238Y-173873809D01*
%TO.C,J5*%
X46006666Y-173302380D02*
X46006666Y-174016666D01*
X45959047Y-174159523D01*
X45863809Y-174254761D01*
X45720952Y-174302380D01*
X45625714Y-174302380D01*
X46959047Y-173302380D02*
X46482857Y-173302380D01*
X46435238Y-173778571D01*
X46482857Y-173730952D01*
X46578095Y-173683333D01*
X46816190Y-173683333D01*
X46911428Y-173730952D01*
X46959047Y-173778571D01*
X47006666Y-173873809D01*
X47006666Y-174111904D01*
X46959047Y-174207142D01*
X46911428Y-174254761D01*
X46816190Y-174302380D01*
X46578095Y-174302380D01*
X46482857Y-174254761D01*
X46435238Y-174207142D01*
%TO.C,J4*%
X92006666Y-173302380D02*
X92006666Y-174016666D01*
X91959047Y-174159523D01*
X91863809Y-174254761D01*
X91720952Y-174302380D01*
X91625714Y-174302380D01*
X92911428Y-173635714D02*
X92911428Y-174302380D01*
X92673333Y-173254761D02*
X92435238Y-173969047D01*
X93054285Y-173969047D01*
%TO.C,J3*%
X62006666Y-173302380D02*
X62006666Y-174016666D01*
X61959047Y-174159523D01*
X61863809Y-174254761D01*
X61720952Y-174302380D01*
X61625714Y-174302380D01*
X62387619Y-173302380D02*
X63006666Y-173302380D01*
X62673333Y-173683333D01*
X62816190Y-173683333D01*
X62911428Y-173730952D01*
X62959047Y-173778571D01*
X63006666Y-173873809D01*
X63006666Y-174111904D01*
X62959047Y-174207142D01*
X62911428Y-174254761D01*
X62816190Y-174302380D01*
X62530476Y-174302380D01*
X62435238Y-174254761D01*
X62387619Y-174207142D01*
%TO.C,J2*%
X32006666Y-173302380D02*
X32006666Y-174016666D01*
X31959047Y-174159523D01*
X31863809Y-174254761D01*
X31720952Y-174302380D01*
X31625714Y-174302380D01*
X32435238Y-173397619D02*
X32482857Y-173350000D01*
X32578095Y-173302380D01*
X32816190Y-173302380D01*
X32911428Y-173350000D01*
X32959047Y-173397619D01*
X33006666Y-173492857D01*
X33006666Y-173588095D01*
X32959047Y-173730952D01*
X32387619Y-174302380D01*
X33006666Y-174302380D01*
%TO.C,J9*%
X72166666Y-116952380D02*
X72166666Y-117666666D01*
X72119047Y-117809523D01*
X72023809Y-117904761D01*
X71880952Y-117952380D01*
X71785714Y-117952380D01*
X72690476Y-117952380D02*
X72880952Y-117952380D01*
X72976190Y-117904761D01*
X73023809Y-117857142D01*
X73119047Y-117714285D01*
X73166666Y-117523809D01*
X73166666Y-117142857D01*
X73119047Y-117047619D01*
X73071428Y-117000000D01*
X72976190Y-116952380D01*
X72785714Y-116952380D01*
X72690476Y-117000000D01*
X72642857Y-117047619D01*
X72595238Y-117142857D01*
X72595238Y-117380952D01*
X72642857Y-117476190D01*
X72690476Y-117523809D01*
X72785714Y-117571428D01*
X72976190Y-117571428D01*
X73071428Y-117523809D01*
X73119047Y-117476190D01*
X73166666Y-117380952D01*
X69643571Y-104953571D02*
X69583095Y-105014047D01*
X69401666Y-105074523D01*
X69280714Y-105074523D01*
X69099285Y-105014047D01*
X68978333Y-104893095D01*
X68917857Y-104772142D01*
X68857380Y-104530238D01*
X68857380Y-104348809D01*
X68917857Y-104106904D01*
X68978333Y-103985952D01*
X69099285Y-103865000D01*
X69280714Y-103804523D01*
X69401666Y-103804523D01*
X69583095Y-103865000D01*
X69643571Y-103925476D01*
X70187857Y-103804523D02*
X70187857Y-104832619D01*
X70248333Y-104953571D01*
X70308809Y-105014047D01*
X70429761Y-105074523D01*
X70671666Y-105074523D01*
X70792619Y-105014047D01*
X70853095Y-104953571D01*
X70913571Y-104832619D01*
X70913571Y-103804523D01*
X71336904Y-103804523D02*
X72062619Y-103804523D01*
X71699761Y-105074523D02*
X71699761Y-103804523D01*
X73695476Y-103804523D02*
X73937380Y-103804523D01*
X74058333Y-103865000D01*
X74179285Y-103985952D01*
X74239761Y-104227857D01*
X74239761Y-104651190D01*
X74179285Y-104893095D01*
X74058333Y-105014047D01*
X73937380Y-105074523D01*
X73695476Y-105074523D01*
X73574523Y-105014047D01*
X73453571Y-104893095D01*
X73393095Y-104651190D01*
X73393095Y-104227857D01*
X73453571Y-103985952D01*
X73574523Y-103865000D01*
X73695476Y-103804523D01*
X74784047Y-103804523D02*
X74784047Y-104832619D01*
X74844523Y-104953571D01*
X74905000Y-105014047D01*
X75025952Y-105074523D01*
X75267857Y-105074523D01*
X75388809Y-105014047D01*
X75449285Y-104953571D01*
X75509761Y-104832619D01*
X75509761Y-103804523D01*
X75933095Y-103804523D02*
X76658809Y-103804523D01*
X76295952Y-105074523D02*
X76295952Y-103804523D01*
X77082142Y-104953571D02*
X77142619Y-105014047D01*
X77082142Y-105074523D01*
X77021666Y-105014047D01*
X77082142Y-104953571D01*
X77082142Y-105074523D01*
X77082142Y-104590714D02*
X77021666Y-103865000D01*
X77082142Y-103804523D01*
X77142619Y-103865000D01*
X77082142Y-104590714D01*
X77082142Y-103804523D01*
%TO.C,R20*%
X92437142Y-117582380D02*
X92103809Y-117106190D01*
X91865714Y-117582380D02*
X91865714Y-116582380D01*
X92246666Y-116582380D01*
X92341904Y-116630000D01*
X92389523Y-116677619D01*
X92437142Y-116772857D01*
X92437142Y-116915714D01*
X92389523Y-117010952D01*
X92341904Y-117058571D01*
X92246666Y-117106190D01*
X91865714Y-117106190D01*
X92818095Y-116677619D02*
X92865714Y-116630000D01*
X92960952Y-116582380D01*
X93199047Y-116582380D01*
X93294285Y-116630000D01*
X93341904Y-116677619D01*
X93389523Y-116772857D01*
X93389523Y-116868095D01*
X93341904Y-117010952D01*
X92770476Y-117582380D01*
X93389523Y-117582380D01*
X94008571Y-116582380D02*
X94103809Y-116582380D01*
X94199047Y-116630000D01*
X94246666Y-116677619D01*
X94294285Y-116772857D01*
X94341904Y-116963333D01*
X94341904Y-117201428D01*
X94294285Y-117391904D01*
X94246666Y-117487142D01*
X94199047Y-117534761D01*
X94103809Y-117582380D01*
X94008571Y-117582380D01*
X93913333Y-117534761D01*
X93865714Y-117487142D01*
X93818095Y-117391904D01*
X93770476Y-117201428D01*
X93770476Y-116963333D01*
X93818095Y-116772857D01*
X93865714Y-116677619D01*
X93913333Y-116630000D01*
X94008571Y-116582380D01*
%TO.C,R19*%
X63111142Y-117546380D02*
X62777809Y-117070190D01*
X62539714Y-117546380D02*
X62539714Y-116546380D01*
X62920666Y-116546380D01*
X63015904Y-116594000D01*
X63063523Y-116641619D01*
X63111142Y-116736857D01*
X63111142Y-116879714D01*
X63063523Y-116974952D01*
X63015904Y-117022571D01*
X62920666Y-117070190D01*
X62539714Y-117070190D01*
X64063523Y-117546380D02*
X63492095Y-117546380D01*
X63777809Y-117546380D02*
X63777809Y-116546380D01*
X63682571Y-116689238D01*
X63587333Y-116784476D01*
X63492095Y-116832095D01*
X64539714Y-117546380D02*
X64730190Y-117546380D01*
X64825428Y-117498761D01*
X64873047Y-117451142D01*
X64968285Y-117308285D01*
X65015904Y-117117809D01*
X65015904Y-116736857D01*
X64968285Y-116641619D01*
X64920666Y-116594000D01*
X64825428Y-116546380D01*
X64634952Y-116546380D01*
X64539714Y-116594000D01*
X64492095Y-116641619D01*
X64444476Y-116736857D01*
X64444476Y-116974952D01*
X64492095Y-117070190D01*
X64539714Y-117117809D01*
X64634952Y-117165428D01*
X64825428Y-117165428D01*
X64920666Y-117117809D01*
X64968285Y-117070190D01*
X65015904Y-116974952D01*
%TO.C,F6*%
X123648571Y-138643333D02*
X123648571Y-138976666D01*
X124172380Y-138976666D02*
X123172380Y-138976666D01*
X123172380Y-138500476D01*
X123172380Y-137690952D02*
X123172380Y-137881428D01*
X123220000Y-137976666D01*
X123267619Y-138024285D01*
X123410476Y-138119523D01*
X123600952Y-138167142D01*
X123981904Y-138167142D01*
X124077142Y-138119523D01*
X124124761Y-138071904D01*
X124172380Y-137976666D01*
X124172380Y-137786190D01*
X124124761Y-137690952D01*
X124077142Y-137643333D01*
X123981904Y-137595714D01*
X123743809Y-137595714D01*
X123648571Y-137643333D01*
X123600952Y-137690952D01*
X123553333Y-137786190D01*
X123553333Y-137976666D01*
X123600952Y-138071904D01*
X123648571Y-138119523D01*
X123743809Y-138167142D01*
%TO.C,F5*%
X84438571Y-138643333D02*
X84438571Y-138976666D01*
X84962380Y-138976666D02*
X83962380Y-138976666D01*
X83962380Y-138500476D01*
X83962380Y-137643333D02*
X83962380Y-138119523D01*
X84438571Y-138167142D01*
X84390952Y-138119523D01*
X84343333Y-138024285D01*
X84343333Y-137786190D01*
X84390952Y-137690952D01*
X84438571Y-137643333D01*
X84533809Y-137595714D01*
X84771904Y-137595714D01*
X84867142Y-137643333D01*
X84914761Y-137690952D01*
X84962380Y-137786190D01*
X84962380Y-138024285D01*
X84914761Y-138119523D01*
X84867142Y-138167142D01*
%TO.C,F4*%
X54438571Y-138643333D02*
X54438571Y-138976666D01*
X54962380Y-138976666D02*
X53962380Y-138976666D01*
X53962380Y-138500476D01*
X54295714Y-137690952D02*
X54962380Y-137690952D01*
X53914761Y-137929047D02*
X54629047Y-138167142D01*
X54629047Y-137548095D01*
%TO.C,U6*%
X42638095Y-121302380D02*
X42638095Y-122111904D01*
X42685714Y-122207142D01*
X42733333Y-122254761D01*
X42828571Y-122302380D01*
X43019047Y-122302380D01*
X43114285Y-122254761D01*
X43161904Y-122207142D01*
X43209523Y-122111904D01*
X43209523Y-121302380D01*
X44114285Y-121302380D02*
X43923809Y-121302380D01*
X43828571Y-121350000D01*
X43780952Y-121397619D01*
X43685714Y-121540476D01*
X43638095Y-121730952D01*
X43638095Y-122111904D01*
X43685714Y-122207142D01*
X43733333Y-122254761D01*
X43828571Y-122302380D01*
X44019047Y-122302380D01*
X44114285Y-122254761D01*
X44161904Y-122207142D01*
X44209523Y-122111904D01*
X44209523Y-121873809D01*
X44161904Y-121778571D01*
X44114285Y-121730952D01*
X44019047Y-121683333D01*
X43828571Y-121683333D01*
X43733333Y-121730952D01*
X43685714Y-121778571D01*
X43638095Y-121873809D01*
%TO.C,U5*%
X36638095Y-120602380D02*
X36638095Y-121411904D01*
X36685714Y-121507142D01*
X36733333Y-121554761D01*
X36828571Y-121602380D01*
X37019047Y-121602380D01*
X37114285Y-121554761D01*
X37161904Y-121507142D01*
X37209523Y-121411904D01*
X37209523Y-120602380D01*
X38161904Y-120602380D02*
X37685714Y-120602380D01*
X37638095Y-121078571D01*
X37685714Y-121030952D01*
X37780952Y-120983333D01*
X38019047Y-120983333D01*
X38114285Y-121030952D01*
X38161904Y-121078571D01*
X38209523Y-121173809D01*
X38209523Y-121411904D01*
X38161904Y-121507142D01*
X38114285Y-121554761D01*
X38019047Y-121602380D01*
X37780952Y-121602380D01*
X37685714Y-121554761D01*
X37638095Y-121507142D01*
%TO.C,U4*%
X34338095Y-115552380D02*
X34338095Y-116361904D01*
X34385714Y-116457142D01*
X34433333Y-116504761D01*
X34528571Y-116552380D01*
X34719047Y-116552380D01*
X34814285Y-116504761D01*
X34861904Y-116457142D01*
X34909523Y-116361904D01*
X34909523Y-115552380D01*
X35814285Y-115885714D02*
X35814285Y-116552380D01*
X35576190Y-115504761D02*
X35338095Y-116219047D01*
X35957142Y-116219047D01*
%TO.C,U3*%
X83288095Y-116482380D02*
X83288095Y-117291904D01*
X83335714Y-117387142D01*
X83383333Y-117434761D01*
X83478571Y-117482380D01*
X83669047Y-117482380D01*
X83764285Y-117434761D01*
X83811904Y-117387142D01*
X83859523Y-117291904D01*
X83859523Y-116482380D01*
X84240476Y-116482380D02*
X84859523Y-116482380D01*
X84526190Y-116863333D01*
X84669047Y-116863333D01*
X84764285Y-116910952D01*
X84811904Y-116958571D01*
X84859523Y-117053809D01*
X84859523Y-117291904D01*
X84811904Y-117387142D01*
X84764285Y-117434761D01*
X84669047Y-117482380D01*
X84383333Y-117482380D01*
X84288095Y-117434761D01*
X84240476Y-117387142D01*
%TO.C,R30*%
X39557142Y-121982380D02*
X39223809Y-121506190D01*
X38985714Y-121982380D02*
X38985714Y-120982380D01*
X39366666Y-120982380D01*
X39461904Y-121030000D01*
X39509523Y-121077619D01*
X39557142Y-121172857D01*
X39557142Y-121315714D01*
X39509523Y-121410952D01*
X39461904Y-121458571D01*
X39366666Y-121506190D01*
X38985714Y-121506190D01*
X39890476Y-120982380D02*
X40509523Y-120982380D01*
X40176190Y-121363333D01*
X40319047Y-121363333D01*
X40414285Y-121410952D01*
X40461904Y-121458571D01*
X40509523Y-121553809D01*
X40509523Y-121791904D01*
X40461904Y-121887142D01*
X40414285Y-121934761D01*
X40319047Y-121982380D01*
X40033333Y-121982380D01*
X39938095Y-121934761D01*
X39890476Y-121887142D01*
X41128571Y-120982380D02*
X41223809Y-120982380D01*
X41319047Y-121030000D01*
X41366666Y-121077619D01*
X41414285Y-121172857D01*
X41461904Y-121363333D01*
X41461904Y-121601428D01*
X41414285Y-121791904D01*
X41366666Y-121887142D01*
X41319047Y-121934761D01*
X41223809Y-121982380D01*
X41128571Y-121982380D01*
X41033333Y-121934761D01*
X40985714Y-121887142D01*
X40938095Y-121791904D01*
X40890476Y-121601428D01*
X40890476Y-121363333D01*
X40938095Y-121172857D01*
X40985714Y-121077619D01*
X41033333Y-121030000D01*
X41128571Y-120982380D01*
%TO.C,R29*%
X38219142Y-115768380D02*
X37885809Y-115292190D01*
X37647714Y-115768380D02*
X37647714Y-114768380D01*
X38028666Y-114768380D01*
X38123904Y-114816000D01*
X38171523Y-114863619D01*
X38219142Y-114958857D01*
X38219142Y-115101714D01*
X38171523Y-115196952D01*
X38123904Y-115244571D01*
X38028666Y-115292190D01*
X37647714Y-115292190D01*
X38600095Y-114863619D02*
X38647714Y-114816000D01*
X38742952Y-114768380D01*
X38981047Y-114768380D01*
X39076285Y-114816000D01*
X39123904Y-114863619D01*
X39171523Y-114958857D01*
X39171523Y-115054095D01*
X39123904Y-115196952D01*
X38552476Y-115768380D01*
X39171523Y-115768380D01*
X39647714Y-115768380D02*
X39838190Y-115768380D01*
X39933428Y-115720761D01*
X39981047Y-115673142D01*
X40076285Y-115530285D01*
X40123904Y-115339809D01*
X40123904Y-114958857D01*
X40076285Y-114863619D01*
X40028666Y-114816000D01*
X39933428Y-114768380D01*
X39742952Y-114768380D01*
X39647714Y-114816000D01*
X39600095Y-114863619D01*
X39552476Y-114958857D01*
X39552476Y-115196952D01*
X39600095Y-115292190D01*
X39647714Y-115339809D01*
X39742952Y-115387428D01*
X39933428Y-115387428D01*
X40028666Y-115339809D01*
X40076285Y-115292190D01*
X40123904Y-115196952D01*
%TO.C,R28*%
X39227142Y-126742380D02*
X38893809Y-126266190D01*
X38655714Y-126742380D02*
X38655714Y-125742380D01*
X39036666Y-125742380D01*
X39131904Y-125790000D01*
X39179523Y-125837619D01*
X39227142Y-125932857D01*
X39227142Y-126075714D01*
X39179523Y-126170952D01*
X39131904Y-126218571D01*
X39036666Y-126266190D01*
X38655714Y-126266190D01*
X39608095Y-125837619D02*
X39655714Y-125790000D01*
X39750952Y-125742380D01*
X39989047Y-125742380D01*
X40084285Y-125790000D01*
X40131904Y-125837619D01*
X40179523Y-125932857D01*
X40179523Y-126028095D01*
X40131904Y-126170952D01*
X39560476Y-126742380D01*
X40179523Y-126742380D01*
X40750952Y-126170952D02*
X40655714Y-126123333D01*
X40608095Y-126075714D01*
X40560476Y-125980476D01*
X40560476Y-125932857D01*
X40608095Y-125837619D01*
X40655714Y-125790000D01*
X40750952Y-125742380D01*
X40941428Y-125742380D01*
X41036666Y-125790000D01*
X41084285Y-125837619D01*
X41131904Y-125932857D01*
X41131904Y-125980476D01*
X41084285Y-126075714D01*
X41036666Y-126123333D01*
X40941428Y-126170952D01*
X40750952Y-126170952D01*
X40655714Y-126218571D01*
X40608095Y-126266190D01*
X40560476Y-126361428D01*
X40560476Y-126551904D01*
X40608095Y-126647142D01*
X40655714Y-126694761D01*
X40750952Y-126742380D01*
X40941428Y-126742380D01*
X41036666Y-126694761D01*
X41084285Y-126647142D01*
X41131904Y-126551904D01*
X41131904Y-126361428D01*
X41084285Y-126266190D01*
X41036666Y-126218571D01*
X40941428Y-126170952D01*
%TO.C,R27*%
X41013142Y-116022380D02*
X40679809Y-115546190D01*
X40441714Y-116022380D02*
X40441714Y-115022380D01*
X40822666Y-115022380D01*
X40917904Y-115070000D01*
X40965523Y-115117619D01*
X41013142Y-115212857D01*
X41013142Y-115355714D01*
X40965523Y-115450952D01*
X40917904Y-115498571D01*
X40822666Y-115546190D01*
X40441714Y-115546190D01*
X41394095Y-115117619D02*
X41441714Y-115070000D01*
X41536952Y-115022380D01*
X41775047Y-115022380D01*
X41870285Y-115070000D01*
X41917904Y-115117619D01*
X41965523Y-115212857D01*
X41965523Y-115308095D01*
X41917904Y-115450952D01*
X41346476Y-116022380D01*
X41965523Y-116022380D01*
X42298857Y-115022380D02*
X42965523Y-115022380D01*
X42536952Y-116022380D01*
%TO.C,R12*%
X28087142Y-135552380D02*
X27753809Y-135076190D01*
X27515714Y-135552380D02*
X27515714Y-134552380D01*
X27896666Y-134552380D01*
X27991904Y-134600000D01*
X28039523Y-134647619D01*
X28087142Y-134742857D01*
X28087142Y-134885714D01*
X28039523Y-134980952D01*
X27991904Y-135028571D01*
X27896666Y-135076190D01*
X27515714Y-135076190D01*
X29039523Y-135552380D02*
X28468095Y-135552380D01*
X28753809Y-135552380D02*
X28753809Y-134552380D01*
X28658571Y-134695238D01*
X28563333Y-134790476D01*
X28468095Y-134838095D01*
X29420476Y-134647619D02*
X29468095Y-134600000D01*
X29563333Y-134552380D01*
X29801428Y-134552380D01*
X29896666Y-134600000D01*
X29944285Y-134647619D01*
X29991904Y-134742857D01*
X29991904Y-134838095D01*
X29944285Y-134980952D01*
X29372857Y-135552380D01*
X29991904Y-135552380D01*
%TO.C,R11*%
X28387142Y-131882380D02*
X28053809Y-131406190D01*
X27815714Y-131882380D02*
X27815714Y-130882380D01*
X28196666Y-130882380D01*
X28291904Y-130930000D01*
X28339523Y-130977619D01*
X28387142Y-131072857D01*
X28387142Y-131215714D01*
X28339523Y-131310952D01*
X28291904Y-131358571D01*
X28196666Y-131406190D01*
X27815714Y-131406190D01*
X29339523Y-131882380D02*
X28768095Y-131882380D01*
X29053809Y-131882380D02*
X29053809Y-130882380D01*
X28958571Y-131025238D01*
X28863333Y-131120476D01*
X28768095Y-131168095D01*
X30291904Y-131882380D02*
X29720476Y-131882380D01*
X30006190Y-131882380D02*
X30006190Y-130882380D01*
X29910952Y-131025238D01*
X29815714Y-131120476D01*
X29720476Y-131168095D01*
%TO.C,R10*%
X28867142Y-126202380D02*
X28533809Y-125726190D01*
X28295714Y-126202380D02*
X28295714Y-125202380D01*
X28676666Y-125202380D01*
X28771904Y-125250000D01*
X28819523Y-125297619D01*
X28867142Y-125392857D01*
X28867142Y-125535714D01*
X28819523Y-125630952D01*
X28771904Y-125678571D01*
X28676666Y-125726190D01*
X28295714Y-125726190D01*
X29819523Y-126202380D02*
X29248095Y-126202380D01*
X29533809Y-126202380D02*
X29533809Y-125202380D01*
X29438571Y-125345238D01*
X29343333Y-125440476D01*
X29248095Y-125488095D01*
X30438571Y-125202380D02*
X30533809Y-125202380D01*
X30629047Y-125250000D01*
X30676666Y-125297619D01*
X30724285Y-125392857D01*
X30771904Y-125583333D01*
X30771904Y-125821428D01*
X30724285Y-126011904D01*
X30676666Y-126107142D01*
X30629047Y-126154761D01*
X30533809Y-126202380D01*
X30438571Y-126202380D01*
X30343333Y-126154761D01*
X30295714Y-126107142D01*
X30248095Y-126011904D01*
X30200476Y-125821428D01*
X30200476Y-125583333D01*
X30248095Y-125392857D01*
X30295714Y-125297619D01*
X30343333Y-125250000D01*
X30438571Y-125202380D01*
%TO.C,R9*%
X29223333Y-138992380D02*
X28890000Y-138516190D01*
X28651904Y-138992380D02*
X28651904Y-137992380D01*
X29032857Y-137992380D01*
X29128095Y-138040000D01*
X29175714Y-138087619D01*
X29223333Y-138182857D01*
X29223333Y-138325714D01*
X29175714Y-138420952D01*
X29128095Y-138468571D01*
X29032857Y-138516190D01*
X28651904Y-138516190D01*
X29699523Y-138992380D02*
X29890000Y-138992380D01*
X29985238Y-138944761D01*
X30032857Y-138897142D01*
X30128095Y-138754285D01*
X30175714Y-138563809D01*
X30175714Y-138182857D01*
X30128095Y-138087619D01*
X30080476Y-138040000D01*
X29985238Y-137992380D01*
X29794761Y-137992380D01*
X29699523Y-138040000D01*
X29651904Y-138087619D01*
X29604285Y-138182857D01*
X29604285Y-138420952D01*
X29651904Y-138516190D01*
X29699523Y-138563809D01*
X29794761Y-138611428D01*
X29985238Y-138611428D01*
X30080476Y-138563809D01*
X30128095Y-138516190D01*
X30175714Y-138420952D01*
%TO.C,R8*%
X31878333Y-126167380D02*
X31545000Y-125691190D01*
X31306904Y-126167380D02*
X31306904Y-125167380D01*
X31687857Y-125167380D01*
X31783095Y-125215000D01*
X31830714Y-125262619D01*
X31878333Y-125357857D01*
X31878333Y-125500714D01*
X31830714Y-125595952D01*
X31783095Y-125643571D01*
X31687857Y-125691190D01*
X31306904Y-125691190D01*
X32449761Y-125595952D02*
X32354523Y-125548333D01*
X32306904Y-125500714D01*
X32259285Y-125405476D01*
X32259285Y-125357857D01*
X32306904Y-125262619D01*
X32354523Y-125215000D01*
X32449761Y-125167380D01*
X32640238Y-125167380D01*
X32735476Y-125215000D01*
X32783095Y-125262619D01*
X32830714Y-125357857D01*
X32830714Y-125405476D01*
X32783095Y-125500714D01*
X32735476Y-125548333D01*
X32640238Y-125595952D01*
X32449761Y-125595952D01*
X32354523Y-125643571D01*
X32306904Y-125691190D01*
X32259285Y-125786428D01*
X32259285Y-125976904D01*
X32306904Y-126072142D01*
X32354523Y-126119761D01*
X32449761Y-126167380D01*
X32640238Y-126167380D01*
X32735476Y-126119761D01*
X32783095Y-126072142D01*
X32830714Y-125976904D01*
X32830714Y-125786428D01*
X32783095Y-125691190D01*
X32735476Y-125643571D01*
X32640238Y-125595952D01*
%TO.C,R7*%
X33878333Y-128507380D02*
X33545000Y-128031190D01*
X33306904Y-128507380D02*
X33306904Y-127507380D01*
X33687857Y-127507380D01*
X33783095Y-127555000D01*
X33830714Y-127602619D01*
X33878333Y-127697857D01*
X33878333Y-127840714D01*
X33830714Y-127935952D01*
X33783095Y-127983571D01*
X33687857Y-128031190D01*
X33306904Y-128031190D01*
X34211666Y-127507380D02*
X34878333Y-127507380D01*
X34449761Y-128507380D01*
%TO.C,R4*%
X51213333Y-163902380D02*
X50880000Y-163426190D01*
X50641904Y-163902380D02*
X50641904Y-162902380D01*
X51022857Y-162902380D01*
X51118095Y-162950000D01*
X51165714Y-162997619D01*
X51213333Y-163092857D01*
X51213333Y-163235714D01*
X51165714Y-163330952D01*
X51118095Y-163378571D01*
X51022857Y-163426190D01*
X50641904Y-163426190D01*
X52070476Y-163235714D02*
X52070476Y-163902380D01*
X51832380Y-162854761D02*
X51594285Y-163569047D01*
X52213333Y-163569047D01*
%TO.C,R5*%
X80243333Y-163842380D02*
X79910000Y-163366190D01*
X79671904Y-163842380D02*
X79671904Y-162842380D01*
X80052857Y-162842380D01*
X80148095Y-162890000D01*
X80195714Y-162937619D01*
X80243333Y-163032857D01*
X80243333Y-163175714D01*
X80195714Y-163270952D01*
X80148095Y-163318571D01*
X80052857Y-163366190D01*
X79671904Y-163366190D01*
X81148095Y-162842380D02*
X80671904Y-162842380D01*
X80624285Y-163318571D01*
X80671904Y-163270952D01*
X80767142Y-163223333D01*
X81005238Y-163223333D01*
X81100476Y-163270952D01*
X81148095Y-163318571D01*
X81195714Y-163413809D01*
X81195714Y-163651904D01*
X81148095Y-163747142D01*
X81100476Y-163794761D01*
X81005238Y-163842380D01*
X80767142Y-163842380D01*
X80671904Y-163794761D01*
X80624285Y-163747142D01*
%TO.C,R3*%
X33361333Y-109926380D02*
X33028000Y-109450190D01*
X32789904Y-109926380D02*
X32789904Y-108926380D01*
X33170857Y-108926380D01*
X33266095Y-108974000D01*
X33313714Y-109021619D01*
X33361333Y-109116857D01*
X33361333Y-109259714D01*
X33313714Y-109354952D01*
X33266095Y-109402571D01*
X33170857Y-109450190D01*
X32789904Y-109450190D01*
X33694666Y-108926380D02*
X34313714Y-108926380D01*
X33980380Y-109307333D01*
X34123238Y-109307333D01*
X34218476Y-109354952D01*
X34266095Y-109402571D01*
X34313714Y-109497809D01*
X34313714Y-109735904D01*
X34266095Y-109831142D01*
X34218476Y-109878761D01*
X34123238Y-109926380D01*
X33837523Y-109926380D01*
X33742285Y-109878761D01*
X33694666Y-109831142D01*
%TO.C,R2*%
X34631333Y-113482380D02*
X34298000Y-113006190D01*
X34059904Y-113482380D02*
X34059904Y-112482380D01*
X34440857Y-112482380D01*
X34536095Y-112530000D01*
X34583714Y-112577619D01*
X34631333Y-112672857D01*
X34631333Y-112815714D01*
X34583714Y-112910952D01*
X34536095Y-112958571D01*
X34440857Y-113006190D01*
X34059904Y-113006190D01*
X35012285Y-112577619D02*
X35059904Y-112530000D01*
X35155142Y-112482380D01*
X35393238Y-112482380D01*
X35488476Y-112530000D01*
X35536095Y-112577619D01*
X35583714Y-112672857D01*
X35583714Y-112768095D01*
X35536095Y-112910952D01*
X34964666Y-113482380D01*
X35583714Y-113482380D01*
%TO.C,R1*%
X23455333Y-108402380D02*
X23122000Y-107926190D01*
X22883904Y-108402380D02*
X22883904Y-107402380D01*
X23264857Y-107402380D01*
X23360095Y-107450000D01*
X23407714Y-107497619D01*
X23455333Y-107592857D01*
X23455333Y-107735714D01*
X23407714Y-107830952D01*
X23360095Y-107878571D01*
X23264857Y-107926190D01*
X22883904Y-107926190D01*
X24407714Y-108402380D02*
X23836285Y-108402380D01*
X24122000Y-108402380D02*
X24122000Y-107402380D01*
X24026761Y-107545238D01*
X23931523Y-107640476D01*
X23836285Y-107688095D01*
%TO.C,Q6*%
X84844761Y-141597619D02*
X84749523Y-141550000D01*
X84654285Y-141454761D01*
X84511428Y-141311904D01*
X84416190Y-141264285D01*
X84320952Y-141264285D01*
X84368571Y-141502380D02*
X84273333Y-141454761D01*
X84178095Y-141359523D01*
X84130476Y-141169047D01*
X84130476Y-140835714D01*
X84178095Y-140645238D01*
X84273333Y-140550000D01*
X84368571Y-140502380D01*
X84559047Y-140502380D01*
X84654285Y-140550000D01*
X84749523Y-140645238D01*
X84797142Y-140835714D01*
X84797142Y-141169047D01*
X84749523Y-141359523D01*
X84654285Y-141454761D01*
X84559047Y-141502380D01*
X84368571Y-141502380D01*
X85654285Y-140502380D02*
X85463809Y-140502380D01*
X85368571Y-140550000D01*
X85320952Y-140597619D01*
X85225714Y-140740476D01*
X85178095Y-140930952D01*
X85178095Y-141311904D01*
X85225714Y-141407142D01*
X85273333Y-141454761D01*
X85368571Y-141502380D01*
X85559047Y-141502380D01*
X85654285Y-141454761D01*
X85701904Y-141407142D01*
X85749523Y-141311904D01*
X85749523Y-141073809D01*
X85701904Y-140978571D01*
X85654285Y-140930952D01*
X85559047Y-140883333D01*
X85368571Y-140883333D01*
X85273333Y-140930952D01*
X85225714Y-140978571D01*
X85178095Y-141073809D01*
%TO.C,Q3*%
X84844761Y-145197619D02*
X84749523Y-145150000D01*
X84654285Y-145054761D01*
X84511428Y-144911904D01*
X84416190Y-144864285D01*
X84320952Y-144864285D01*
X84368571Y-145102380D02*
X84273333Y-145054761D01*
X84178095Y-144959523D01*
X84130476Y-144769047D01*
X84130476Y-144435714D01*
X84178095Y-144245238D01*
X84273333Y-144150000D01*
X84368571Y-144102380D01*
X84559047Y-144102380D01*
X84654285Y-144150000D01*
X84749523Y-144245238D01*
X84797142Y-144435714D01*
X84797142Y-144769047D01*
X84749523Y-144959523D01*
X84654285Y-145054761D01*
X84559047Y-145102380D01*
X84368571Y-145102380D01*
X85130476Y-144102380D02*
X85749523Y-144102380D01*
X85416190Y-144483333D01*
X85559047Y-144483333D01*
X85654285Y-144530952D01*
X85701904Y-144578571D01*
X85749523Y-144673809D01*
X85749523Y-144911904D01*
X85701904Y-145007142D01*
X85654285Y-145054761D01*
X85559047Y-145102380D01*
X85273333Y-145102380D01*
X85178095Y-145054761D01*
X85130476Y-145007142D01*
%TO.C,Q4*%
X24944761Y-141397619D02*
X24849523Y-141350000D01*
X24754285Y-141254761D01*
X24611428Y-141111904D01*
X24516190Y-141064285D01*
X24420952Y-141064285D01*
X24468571Y-141302380D02*
X24373333Y-141254761D01*
X24278095Y-141159523D01*
X24230476Y-140969047D01*
X24230476Y-140635714D01*
X24278095Y-140445238D01*
X24373333Y-140350000D01*
X24468571Y-140302380D01*
X24659047Y-140302380D01*
X24754285Y-140350000D01*
X24849523Y-140445238D01*
X24897142Y-140635714D01*
X24897142Y-140969047D01*
X24849523Y-141159523D01*
X24754285Y-141254761D01*
X24659047Y-141302380D01*
X24468571Y-141302380D01*
X25754285Y-140635714D02*
X25754285Y-141302380D01*
X25516190Y-140254761D02*
X25278095Y-140969047D01*
X25897142Y-140969047D01*
%TO.C,Q1*%
X25444761Y-145297619D02*
X25349523Y-145250000D01*
X25254285Y-145154761D01*
X25111428Y-145011904D01*
X25016190Y-144964285D01*
X24920952Y-144964285D01*
X24968571Y-145202380D02*
X24873333Y-145154761D01*
X24778095Y-145059523D01*
X24730476Y-144869047D01*
X24730476Y-144535714D01*
X24778095Y-144345238D01*
X24873333Y-144250000D01*
X24968571Y-144202380D01*
X25159047Y-144202380D01*
X25254285Y-144250000D01*
X25349523Y-144345238D01*
X25397142Y-144535714D01*
X25397142Y-144869047D01*
X25349523Y-145059523D01*
X25254285Y-145154761D01*
X25159047Y-145202380D01*
X24968571Y-145202380D01*
X26349523Y-145202380D02*
X25778095Y-145202380D01*
X26063809Y-145202380D02*
X26063809Y-144202380D01*
X25968571Y-144345238D01*
X25873333Y-144440476D01*
X25778095Y-144488095D01*
%TO.C,F3*%
X115648571Y-138643333D02*
X115648571Y-138976666D01*
X116172380Y-138976666D02*
X115172380Y-138976666D01*
X115172380Y-138500476D01*
X115172380Y-138214761D02*
X115172380Y-137595714D01*
X115553333Y-137929047D01*
X115553333Y-137786190D01*
X115600952Y-137690952D01*
X115648571Y-137643333D01*
X115743809Y-137595714D01*
X115981904Y-137595714D01*
X116077142Y-137643333D01*
X116124761Y-137690952D01*
X116172380Y-137786190D01*
X116172380Y-138071904D01*
X116124761Y-138167142D01*
X116077142Y-138214761D01*
%TO.C,F2*%
X76438571Y-138643333D02*
X76438571Y-138976666D01*
X76962380Y-138976666D02*
X75962380Y-138976666D01*
X75962380Y-138500476D01*
X76057619Y-138167142D02*
X76010000Y-138119523D01*
X75962380Y-138024285D01*
X75962380Y-137786190D01*
X76010000Y-137690952D01*
X76057619Y-137643333D01*
X76152857Y-137595714D01*
X76248095Y-137595714D01*
X76390952Y-137643333D01*
X76962380Y-138214761D01*
X76962380Y-137595714D01*
%TO.C,F1*%
X46438571Y-138643333D02*
X46438571Y-138976666D01*
X46962380Y-138976666D02*
X45962380Y-138976666D01*
X45962380Y-138500476D01*
X46962380Y-137595714D02*
X46962380Y-138167142D01*
X46962380Y-137881428D02*
X45962380Y-137881428D01*
X46105238Y-137976666D01*
X46200476Y-138071904D01*
X46248095Y-138167142D01*
%TO.C,D6*%
X97801904Y-141402380D02*
X97801904Y-140402380D01*
X98040000Y-140402380D01*
X98182857Y-140450000D01*
X98278095Y-140545238D01*
X98325714Y-140640476D01*
X98373333Y-140830952D01*
X98373333Y-140973809D01*
X98325714Y-141164285D01*
X98278095Y-141259523D01*
X98182857Y-141354761D01*
X98040000Y-141402380D01*
X97801904Y-141402380D01*
X99230476Y-140402380D02*
X99040000Y-140402380D01*
X98944761Y-140450000D01*
X98897142Y-140497619D01*
X98801904Y-140640476D01*
X98754285Y-140830952D01*
X98754285Y-141211904D01*
X98801904Y-141307142D01*
X98849523Y-141354761D01*
X98944761Y-141402380D01*
X99135238Y-141402380D01*
X99230476Y-141354761D01*
X99278095Y-141307142D01*
X99325714Y-141211904D01*
X99325714Y-140973809D01*
X99278095Y-140878571D01*
X99230476Y-140830952D01*
X99135238Y-140783333D01*
X98944761Y-140783333D01*
X98849523Y-140830952D01*
X98801904Y-140878571D01*
X98754285Y-140973809D01*
%TO.C,D3*%
X97701904Y-145002380D02*
X97701904Y-144002380D01*
X97940000Y-144002380D01*
X98082857Y-144050000D01*
X98178095Y-144145238D01*
X98225714Y-144240476D01*
X98273333Y-144430952D01*
X98273333Y-144573809D01*
X98225714Y-144764285D01*
X98178095Y-144859523D01*
X98082857Y-144954761D01*
X97940000Y-145002380D01*
X97701904Y-145002380D01*
X98606666Y-144002380D02*
X99225714Y-144002380D01*
X98892380Y-144383333D01*
X99035238Y-144383333D01*
X99130476Y-144430952D01*
X99178095Y-144478571D01*
X99225714Y-144573809D01*
X99225714Y-144811904D01*
X99178095Y-144907142D01*
X99130476Y-144954761D01*
X99035238Y-145002380D01*
X98749523Y-145002380D01*
X98654285Y-144954761D01*
X98606666Y-144907142D01*
%TO.C,D4*%
X37501904Y-141302380D02*
X37501904Y-140302380D01*
X37740000Y-140302380D01*
X37882857Y-140350000D01*
X37978095Y-140445238D01*
X38025714Y-140540476D01*
X38073333Y-140730952D01*
X38073333Y-140873809D01*
X38025714Y-141064285D01*
X37978095Y-141159523D01*
X37882857Y-141254761D01*
X37740000Y-141302380D01*
X37501904Y-141302380D01*
X38930476Y-140635714D02*
X38930476Y-141302380D01*
X38692380Y-140254761D02*
X38454285Y-140969047D01*
X39073333Y-140969047D01*
%TO.C,D1*%
X37601904Y-144802380D02*
X37601904Y-143802380D01*
X37840000Y-143802380D01*
X37982857Y-143850000D01*
X38078095Y-143945238D01*
X38125714Y-144040476D01*
X38173333Y-144230952D01*
X38173333Y-144373809D01*
X38125714Y-144564285D01*
X38078095Y-144659523D01*
X37982857Y-144754761D01*
X37840000Y-144802380D01*
X37601904Y-144802380D01*
X39125714Y-144802380D02*
X38554285Y-144802380D01*
X38840000Y-144802380D02*
X38840000Y-143802380D01*
X38744761Y-143945238D01*
X38649523Y-144040476D01*
X38554285Y-144088095D01*
%TO.C,C7*%
X44029333Y-116181142D02*
X43981714Y-116228761D01*
X43838857Y-116276380D01*
X43743619Y-116276380D01*
X43600761Y-116228761D01*
X43505523Y-116133523D01*
X43457904Y-116038285D01*
X43410285Y-115847809D01*
X43410285Y-115704952D01*
X43457904Y-115514476D01*
X43505523Y-115419238D01*
X43600761Y-115324000D01*
X43743619Y-115276380D01*
X43838857Y-115276380D01*
X43981714Y-115324000D01*
X44029333Y-115371619D01*
X44362666Y-115276380D02*
X45029333Y-115276380D01*
X44600761Y-116276380D01*
%TO.C,C6*%
X37403333Y-117017142D02*
X37355714Y-117064761D01*
X37212857Y-117112380D01*
X37117619Y-117112380D01*
X36974761Y-117064761D01*
X36879523Y-116969523D01*
X36831904Y-116874285D01*
X36784285Y-116683809D01*
X36784285Y-116540952D01*
X36831904Y-116350476D01*
X36879523Y-116255238D01*
X36974761Y-116160000D01*
X37117619Y-116112380D01*
X37212857Y-116112380D01*
X37355714Y-116160000D01*
X37403333Y-116207619D01*
X38260476Y-116112380D02*
X38070000Y-116112380D01*
X37974761Y-116160000D01*
X37927142Y-116207619D01*
X37831904Y-116350476D01*
X37784285Y-116540952D01*
X37784285Y-116921904D01*
X37831904Y-117017142D01*
X37879523Y-117064761D01*
X37974761Y-117112380D01*
X38165238Y-117112380D01*
X38260476Y-117064761D01*
X38308095Y-117017142D01*
X38355714Y-116921904D01*
X38355714Y-116683809D01*
X38308095Y-116588571D01*
X38260476Y-116540952D01*
X38165238Y-116493333D01*
X37974761Y-116493333D01*
X37879523Y-116540952D01*
X37831904Y-116588571D01*
X37784285Y-116683809D01*
%TO.C,C5*%
X32133333Y-120957142D02*
X32085714Y-121004761D01*
X31942857Y-121052380D01*
X31847619Y-121052380D01*
X31704761Y-121004761D01*
X31609523Y-120909523D01*
X31561904Y-120814285D01*
X31514285Y-120623809D01*
X31514285Y-120480952D01*
X31561904Y-120290476D01*
X31609523Y-120195238D01*
X31704761Y-120100000D01*
X31847619Y-120052380D01*
X31942857Y-120052380D01*
X32085714Y-120100000D01*
X32133333Y-120147619D01*
X33038095Y-120052380D02*
X32561904Y-120052380D01*
X32514285Y-120528571D01*
X32561904Y-120480952D01*
X32657142Y-120433333D01*
X32895238Y-120433333D01*
X32990476Y-120480952D01*
X33038095Y-120528571D01*
X33085714Y-120623809D01*
X33085714Y-120861904D01*
X33038095Y-120957142D01*
X32990476Y-121004761D01*
X32895238Y-121052380D01*
X32657142Y-121052380D01*
X32561904Y-121004761D01*
X32514285Y-120957142D01*
%TO.C,C4*%
X32343333Y-123207142D02*
X32295714Y-123254761D01*
X32152857Y-123302380D01*
X32057619Y-123302380D01*
X31914761Y-123254761D01*
X31819523Y-123159523D01*
X31771904Y-123064285D01*
X31724285Y-122873809D01*
X31724285Y-122730952D01*
X31771904Y-122540476D01*
X31819523Y-122445238D01*
X31914761Y-122350000D01*
X32057619Y-122302380D01*
X32152857Y-122302380D01*
X32295714Y-122350000D01*
X32343333Y-122397619D01*
X33200476Y-122635714D02*
X33200476Y-123302380D01*
X32962380Y-122254761D02*
X32724285Y-122969047D01*
X33343333Y-122969047D01*
%TO.C,C3*%
X30333333Y-119757142D02*
X30285714Y-119804761D01*
X30142857Y-119852380D01*
X30047619Y-119852380D01*
X29904761Y-119804761D01*
X29809523Y-119709523D01*
X29761904Y-119614285D01*
X29714285Y-119423809D01*
X29714285Y-119280952D01*
X29761904Y-119090476D01*
X29809523Y-118995238D01*
X29904761Y-118900000D01*
X30047619Y-118852380D01*
X30142857Y-118852380D01*
X30285714Y-118900000D01*
X30333333Y-118947619D01*
X30666666Y-118852380D02*
X31285714Y-118852380D01*
X30952380Y-119233333D01*
X31095238Y-119233333D01*
X31190476Y-119280952D01*
X31238095Y-119328571D01*
X31285714Y-119423809D01*
X31285714Y-119661904D01*
X31238095Y-119757142D01*
X31190476Y-119804761D01*
X31095238Y-119852380D01*
X30809523Y-119852380D01*
X30714285Y-119804761D01*
X30666666Y-119757142D01*
%TO.C,C2*%
X37473333Y-133807142D02*
X37425714Y-133854761D01*
X37282857Y-133902380D01*
X37187619Y-133902380D01*
X37044761Y-133854761D01*
X36949523Y-133759523D01*
X36901904Y-133664285D01*
X36854285Y-133473809D01*
X36854285Y-133330952D01*
X36901904Y-133140476D01*
X36949523Y-133045238D01*
X37044761Y-132950000D01*
X37187619Y-132902380D01*
X37282857Y-132902380D01*
X37425714Y-132950000D01*
X37473333Y-132997619D01*
X37854285Y-132997619D02*
X37901904Y-132950000D01*
X37997142Y-132902380D01*
X38235238Y-132902380D01*
X38330476Y-132950000D01*
X38378095Y-132997619D01*
X38425714Y-133092857D01*
X38425714Y-133188095D01*
X38378095Y-133330952D01*
X37806666Y-133902380D01*
X38425714Y-133902380D01*
%TO.C,C1*%
X29805333Y-105005142D02*
X29757714Y-105052761D01*
X29614857Y-105100380D01*
X29519619Y-105100380D01*
X29376761Y-105052761D01*
X29281523Y-104957523D01*
X29233904Y-104862285D01*
X29186285Y-104671809D01*
X29186285Y-104528952D01*
X29233904Y-104338476D01*
X29281523Y-104243238D01*
X29376761Y-104148000D01*
X29519619Y-104100380D01*
X29614857Y-104100380D01*
X29757714Y-104148000D01*
X29805333Y-104195619D01*
X30757714Y-105100380D02*
X30186285Y-105100380D01*
X30472000Y-105100380D02*
X30472000Y-104100380D01*
X30376761Y-104243238D01*
X30281523Y-104338476D01*
X30186285Y-104386095D01*
%TO.C,BT1*%
X52304285Y-118618571D02*
X52447142Y-118666190D01*
X52494761Y-118713809D01*
X52542380Y-118809047D01*
X52542380Y-118951904D01*
X52494761Y-119047142D01*
X52447142Y-119094761D01*
X52351904Y-119142380D01*
X51970952Y-119142380D01*
X51970952Y-118142380D01*
X52304285Y-118142380D01*
X52399523Y-118190000D01*
X52447142Y-118237619D01*
X52494761Y-118332857D01*
X52494761Y-118428095D01*
X52447142Y-118523333D01*
X52399523Y-118570952D01*
X52304285Y-118618571D01*
X51970952Y-118618571D01*
X52828095Y-118142380D02*
X53399523Y-118142380D01*
X53113809Y-119142380D02*
X53113809Y-118142380D01*
X54256666Y-119142380D02*
X53685238Y-119142380D01*
X53970952Y-119142380D02*
X53970952Y-118142380D01*
X53875714Y-118285238D01*
X53780476Y-118380476D01*
X53685238Y-118428095D01*
%TO.C,U2*%
X31708095Y-130762380D02*
X31708095Y-131571904D01*
X31755714Y-131667142D01*
X31803333Y-131714761D01*
X31898571Y-131762380D01*
X32089047Y-131762380D01*
X32184285Y-131714761D01*
X32231904Y-131667142D01*
X32279523Y-131571904D01*
X32279523Y-130762380D01*
X32708095Y-130857619D02*
X32755714Y-130810000D01*
X32850952Y-130762380D01*
X33089047Y-130762380D01*
X33184285Y-130810000D01*
X33231904Y-130857619D01*
X33279523Y-130952857D01*
X33279523Y-131048095D01*
X33231904Y-131190952D01*
X32660476Y-131762380D01*
X33279523Y-131762380D01*
%TO.C,S1*%
X112948095Y-96784761D02*
X113090952Y-96832380D01*
X113329047Y-96832380D01*
X113424285Y-96784761D01*
X113471904Y-96737142D01*
X113519523Y-96641904D01*
X113519523Y-96546666D01*
X113471904Y-96451428D01*
X113424285Y-96403809D01*
X113329047Y-96356190D01*
X113138571Y-96308571D01*
X113043333Y-96260952D01*
X112995714Y-96213333D01*
X112948095Y-96118095D01*
X112948095Y-96022857D01*
X112995714Y-95927619D01*
X113043333Y-95880000D01*
X113138571Y-95832380D01*
X113376666Y-95832380D01*
X113519523Y-95880000D01*
X114471904Y-96832380D02*
X113900476Y-96832380D01*
X114186190Y-96832380D02*
X114186190Y-95832380D01*
X114090952Y-95975238D01*
X113995714Y-96070476D01*
X113900476Y-96118095D01*
%TO.C,R6*%
X112713333Y-163672380D02*
X112380000Y-163196190D01*
X112141904Y-163672380D02*
X112141904Y-162672380D01*
X112522857Y-162672380D01*
X112618095Y-162720000D01*
X112665714Y-162767619D01*
X112713333Y-162862857D01*
X112713333Y-163005714D01*
X112665714Y-163100952D01*
X112618095Y-163148571D01*
X112522857Y-163196190D01*
X112141904Y-163196190D01*
X113570476Y-162672380D02*
X113380000Y-162672380D01*
X113284761Y-162720000D01*
X113237142Y-162767619D01*
X113141904Y-162910476D01*
X113094285Y-163100952D01*
X113094285Y-163481904D01*
X113141904Y-163577142D01*
X113189523Y-163624761D01*
X113284761Y-163672380D01*
X113475238Y-163672380D01*
X113570476Y-163624761D01*
X113618095Y-163577142D01*
X113665714Y-163481904D01*
X113665714Y-163243809D01*
X113618095Y-163148571D01*
X113570476Y-163100952D01*
X113475238Y-163053333D01*
X113284761Y-163053333D01*
X113189523Y-163100952D01*
X113141904Y-163148571D01*
X113094285Y-163243809D01*
%TO.C,Q5*%
X54944761Y-141797619D02*
X54849523Y-141750000D01*
X54754285Y-141654761D01*
X54611428Y-141511904D01*
X54516190Y-141464285D01*
X54420952Y-141464285D01*
X54468571Y-141702380D02*
X54373333Y-141654761D01*
X54278095Y-141559523D01*
X54230476Y-141369047D01*
X54230476Y-141035714D01*
X54278095Y-140845238D01*
X54373333Y-140750000D01*
X54468571Y-140702380D01*
X54659047Y-140702380D01*
X54754285Y-140750000D01*
X54849523Y-140845238D01*
X54897142Y-141035714D01*
X54897142Y-141369047D01*
X54849523Y-141559523D01*
X54754285Y-141654761D01*
X54659047Y-141702380D01*
X54468571Y-141702380D01*
X55801904Y-140702380D02*
X55325714Y-140702380D01*
X55278095Y-141178571D01*
X55325714Y-141130952D01*
X55420952Y-141083333D01*
X55659047Y-141083333D01*
X55754285Y-141130952D01*
X55801904Y-141178571D01*
X55849523Y-141273809D01*
X55849523Y-141511904D01*
X55801904Y-141607142D01*
X55754285Y-141654761D01*
X55659047Y-141702380D01*
X55420952Y-141702380D01*
X55325714Y-141654761D01*
X55278095Y-141607142D01*
%TO.C,Q2*%
X55044761Y-145297619D02*
X54949523Y-145250000D01*
X54854285Y-145154761D01*
X54711428Y-145011904D01*
X54616190Y-144964285D01*
X54520952Y-144964285D01*
X54568571Y-145202380D02*
X54473333Y-145154761D01*
X54378095Y-145059523D01*
X54330476Y-144869047D01*
X54330476Y-144535714D01*
X54378095Y-144345238D01*
X54473333Y-144250000D01*
X54568571Y-144202380D01*
X54759047Y-144202380D01*
X54854285Y-144250000D01*
X54949523Y-144345238D01*
X54997142Y-144535714D01*
X54997142Y-144869047D01*
X54949523Y-145059523D01*
X54854285Y-145154761D01*
X54759047Y-145202380D01*
X54568571Y-145202380D01*
X55378095Y-144297619D02*
X55425714Y-144250000D01*
X55520952Y-144202380D01*
X55759047Y-144202380D01*
X55854285Y-144250000D01*
X55901904Y-144297619D01*
X55949523Y-144392857D01*
X55949523Y-144488095D01*
X55901904Y-144630952D01*
X55330476Y-145202380D01*
X55949523Y-145202380D01*
%TO.C,D5*%
X67301904Y-141502380D02*
X67301904Y-140502380D01*
X67540000Y-140502380D01*
X67682857Y-140550000D01*
X67778095Y-140645238D01*
X67825714Y-140740476D01*
X67873333Y-140930952D01*
X67873333Y-141073809D01*
X67825714Y-141264285D01*
X67778095Y-141359523D01*
X67682857Y-141454761D01*
X67540000Y-141502380D01*
X67301904Y-141502380D01*
X68778095Y-140502380D02*
X68301904Y-140502380D01*
X68254285Y-140978571D01*
X68301904Y-140930952D01*
X68397142Y-140883333D01*
X68635238Y-140883333D01*
X68730476Y-140930952D01*
X68778095Y-140978571D01*
X68825714Y-141073809D01*
X68825714Y-141311904D01*
X68778095Y-141407142D01*
X68730476Y-141454761D01*
X68635238Y-141502380D01*
X68397142Y-141502380D01*
X68301904Y-141454761D01*
X68254285Y-141407142D01*
%TO.C,D2*%
X67301904Y-145002380D02*
X67301904Y-144002380D01*
X67540000Y-144002380D01*
X67682857Y-144050000D01*
X67778095Y-144145238D01*
X67825714Y-144240476D01*
X67873333Y-144430952D01*
X67873333Y-144573809D01*
X67825714Y-144764285D01*
X67778095Y-144859523D01*
X67682857Y-144954761D01*
X67540000Y-145002380D01*
X67301904Y-145002380D01*
X68254285Y-144097619D02*
X68301904Y-144050000D01*
X68397142Y-144002380D01*
X68635238Y-144002380D01*
X68730476Y-144050000D01*
X68778095Y-144097619D01*
X68825714Y-144192857D01*
X68825714Y-144288095D01*
X68778095Y-144430952D01*
X68206666Y-145002380D01*
X68825714Y-145002380D01*
%TD*%
M02*
